<svg width="8" height="3" viewBox="0 0 8 3" fill="none" xmlns="http://www.w3.org/2000/svg">
<path d="M6.31821 1.43771C6.31821 1.45895 6.29823 1.50039 6.24234 1.55465C6.01707 1.77403 5.38376 2.01254 4.5288 2.01801C3.45961 2.02515 1.76838 1.73806 1.11764 1.47157C1.7637 1.1952 3.44665 0.885388 4.51434 0.878238H4.51386C5.69462 0.870461 6.31709 1.29027 6.31816 1.43771H6.31821ZM4.50797 0.000115077H4.50733C3.60157 0.00662999 0.911707 0.322338 0.221656 0.991603L0 1.48104C0.0127512 2.77119 4.48969 2.89613 4.53496 2.89613C5.53826 2.88918 6.44402 2.61134 6.89839 2.17028C7.12366 1.95175 7.24076 1.69599 7.23779 1.42909C7.23077 0.591769 6.08253 -0.0095595 4.50797 0.000115077" fill="#363254"/>
</svg>
