<svg width="14" height="17" viewBox="0 0 14 17" fill="none" xmlns="http://www.w3.org/2000/svg">
<path d="M0 0.439165V11.8417C0 14.5587 2.37321 16.0554 6.68225 16.0554C8.62171 16.0554 10.1769 15.7523 11.3052 15.155C12.6519 14.4416 13.3641 13.2961 13.3641 11.8417V0.572095C13.3641 0.329797 13.1581 0.133349 12.9044 0.133349C12.6507 0.133349 12.4451 0.329797 12.4451 0.572095V11.8417C12.4451 12.9899 11.926 13.8224 10.8587 14.3879C9.88237 14.9043 8.43852 15.1775 6.68225 15.1775C4.05339 15.1775 0.919998 14.5983 0.919998 11.8417V0.439165C0.919998 0.196446 0.71364 0 0.459892 0C0.206143 0 0 0.196446 0 0.439165" fill="#363254"/>
</svg>
