<svg width="5" height="13" viewBox="0 0 5 13" fill="none" xmlns="http://www.w3.org/2000/svg">
<path d="M2.44977 0.0614387C2.23102 0.185322 2.15855 0.454753 2.28864 0.663188C3.63764 2.83272 4.12038 4.79761 3.68546 6.34415C3.37622 7.44354 2.60501 8.32923 1.39605 8.97683C0.631813 9.38529 0.175981 9.90059 0.040414 10.5076C-0.144032 11.3325 0.361447 11.9927 0.383102 12.0203C0.533863 12.2136 0.818362 12.2527 1.02232 12.1107C1.2258 11.9685 1.27029 11.6945 1.12278 11.4989C1.12054 11.4951 0.840358 11.1155 0.941391 10.6826C1.02232 10.3364 1.3265 10.0203 1.845 9.74264C3.27936 8.97494 4.19767 7.90879 4.57373 6.57152C5.07411 4.79109 4.55811 2.59295 3.07936 0.21498C2.95002 0.00633372 2.66737 -0.0620245 2.44977 0.0614387" fill="#080604"/>
</svg>
