<svg width="49" height="35" viewBox="0 0 49 35" fill="none" xmlns="http://www.w3.org/2000/svg">
<path d="M0.919478 32.086V14.0659C0.919478 14.0676 0.92064 13.272 0.92064 13.272C0.923131 6.34206 0.925123 1.76385 14.6552 1.31374C29.1651 0.838401 33.3175 0.878364 33.3581 0.878574H33.3637C37.9866 0.878574 41.7537 2.19733 44.2576 4.69183C46.5501 6.97473 47.7616 10.1656 47.7616 13.9198C47.7616 21.9539 39.0834 24.1729 31.8035 24.6196C27.972 24.8539 23.4526 22.979 19.4651 21.3244C14.9954 19.4701 11.1354 17.8689 8.7588 19.259C7.50351 19.993 6.82122 21.4712 6.67263 23.7779C6.3496 26.8634 5.96872 32.003 5.96517 32.0553C5.96409 33.5651 4.38322 33.7863 3.44091 33.7863C2.49951 33.7863 0.919483 33.5651 0.919483 32.086H0.919478ZM14.6243 0.437095C0.00581027 0.916012 0.00332062 6.0985 0.00116222 13.2713L0 14.0647V32.086C0 33.7001 1.28649 34.6649 3.4409 34.6649C5.59723 34.6649 6.88355 33.7001 6.88355 32.086C6.88621 32.0648 7.26525 26.9376 7.58877 23.8481C7.71903 21.8317 8.25861 20.5813 9.23894 20.0073C11.2083 18.8562 15.0399 20.446 19.0986 22.1297C23.1816 23.8237 27.809 25.744 31.8624 25.4954C42.7081 24.8297 48.681 20.7188 48.681 13.9198C48.681 9.93531 47.3808 6.53451 44.9215 4.08419C42.2402 1.41323 38.2433 0.0010841 33.3636 0.0010841H33.3692C33.329 0.000610857 29.1664 -0.0407707 14.6243 0.437095" fill="#363254"/>
</svg>
