<svg width="14" height="15" viewBox="0 0 14 15" fill="none" xmlns="http://www.w3.org/2000/svg">
<path d="M4.29826 3.02392C4.33906 2.81612 4.54755 2.64575 4.76177 2.64575H5.97759C6.19224 2.64575 6.33399 2.81612 6.29276 3.02392L5.96463 4.69645C5.92361 4.90489 6.06642 5.07441 6.28022 5.07441H7.27757C7.49179 5.07441 7.84181 5.09271 8.05476 5.11437C8.05476 5.11437 9.50924 5.1312 9.98125 5.65408C10.3657 6.07978 10.5327 6.66618 10.3629 7.53083L9.60296 11.4049C9.56237 11.6131 9.35325 11.7835 9.13882 11.7835H7.89175C7.67732 11.7835 7.53515 11.6131 7.57616 11.4049L8.2218 8.11849C8.2626 7.91048 8.30851 7.56701 8.32423 7.355C8.32423 7.355 8.35292 6.9661 8.19587 6.79931C8.03946 6.63189 7.70538 6.5486 7.1949 6.5486H5.99034C5.7757 6.5486 5.56785 6.71855 5.5262 6.92677L4.64786 11.4049C4.60684 11.6131 4.39836 11.7835 4.18392 11.7835H2.96789C2.75346 11.7835 2.61171 11.6131 2.65251 11.4049L4.29826 3.02392Z" stroke="white" stroke-width="5.29133"/>
</svg>
