<svg width="14" height="20" viewBox="0 0 14 20" fill="none" xmlns="http://www.w3.org/2000/svg">
<path d="M6.24106 0.266485C3.9118 1.12694 0.34381 3.54614 0.192624 3.64899C-0.0137328 3.78949 -0.0620587 4.06375 0.0855361 4.26083C0.232642 4.45812 0.520138 4.50397 0.726665 4.36326C0.762623 4.33949 4.35163 1.90557 6.57246 1.08487C6.64193 1.05963 8.27642 0.474079 9.84522 1.40394C11.4784 2.3725 12.5126 4.69032 12.8373 8.10837C13.3543 13.571 12.1296 16.1194 8.74222 16.6315C7.78191 16.7762 7.08291 17.1409 6.66378 17.7166C6.11346 18.4702 6.27933 19.2995 6.28713 19.3346C6.33703 19.5704 6.57626 19.7225 6.824 19.6773C7.07205 19.6323 7.23484 19.4024 7.18934 19.1653C7.18822 19.1611 7.09679 18.6504 7.42511 18.2088C7.69715 17.843 8.18844 17.6036 8.88584 17.4978C13.922 16.7373 14.1326 12.0379 13.7532 8.02907C13.3964 4.27282 12.2441 1.79284 10.3306 0.658538C8.4095 -0.48039 6.4578 0.186561 6.24106 0.266485" fill="#363254"/>
</svg>
