<svg width="218" height="52" viewBox="0 0 218 52" fill="none" xmlns="http://www.w3.org/2000/svg">
<path d="M10.692 9.468V11.492H4.026V16.31H9.526V18.246H4.026V25H1.518V9.468H10.692ZM23.8822 12.878V25H21.3522V22.36C21.0442 23.2547 20.5089 23.9513 19.7462 24.45C18.9835 24.934 18.0962 25.176 17.0842 25.176C15.6762 25.176 14.5469 24.7213 13.6962 23.812C12.8455 22.9027 12.4202 21.6047 12.4202 19.918V12.878H14.9282V19.654C14.9282 20.754 15.2069 21.6047 15.7642 22.206C16.3215 22.7927 17.0842 23.086 18.0522 23.086C19.0495 23.086 19.8489 22.7633 20.4502 22.118C21.0515 21.4727 21.3522 20.534 21.3522 19.302V12.878H23.8822ZM29.1739 8.72V25H26.6659V8.72H29.1739ZM34.4969 8.72V25H31.9889V8.72H34.4969ZM52.4561 20.864C52.4561 21.6267 52.2727 22.338 51.9061 22.998C51.5394 23.6433 50.9821 24.164 50.2341 24.56C49.4861 24.956 48.5694 25.154 47.4841 25.154C46.4281 25.154 45.4821 24.9707 44.6461 24.604C43.8101 24.2227 43.1427 23.6947 42.6441 23.02C42.1454 22.3453 41.8594 21.568 41.7861 20.688H44.4701C44.5434 21.3627 44.8294 21.942 45.3281 22.426C45.8414 22.91 46.5234 23.152 47.3741 23.152C48.1367 23.152 48.7234 22.9467 49.1341 22.536C49.5594 22.1253 49.7721 21.5973 49.7721 20.952C49.7721 20.3947 49.6181 19.94 49.3101 19.588C49.0021 19.2213 48.6207 18.9353 48.1661 18.73C47.7114 18.5247 47.0881 18.29 46.2961 18.026C45.3281 17.718 44.5361 17.41 43.9201 17.102C43.3187 16.794 42.8054 16.3467 42.3801 15.76C41.9547 15.1733 41.7421 14.4033 41.7421 13.45C41.7421 12.614 41.9474 11.8807 42.3581 11.25C42.7687 10.6193 43.3554 10.1353 44.1181 9.798C44.8807 9.446 45.7607 9.27 46.7581 9.27C48.3421 9.27 49.5961 9.65133 50.5201 10.414C51.4587 11.1767 51.9941 12.174 52.1261 13.406H49.4201C49.3174 12.8193 49.0387 12.3207 48.5841 11.91C48.1441 11.4847 47.5354 11.272 46.7581 11.272C46.0541 11.272 45.4894 11.4553 45.0641 11.822C44.6387 12.174 44.4261 12.6873 44.4261 13.362C44.4261 13.89 44.5727 14.33 44.8661 14.682C45.1594 15.0193 45.5261 15.2907 45.9661 15.496C46.4207 15.6867 47.0367 15.914 47.8141 16.178C48.7967 16.486 49.5961 16.8013 50.2121 17.124C50.8427 17.432 51.3707 17.8867 51.7961 18.488C52.2361 19.0893 52.4561 19.8813 52.4561 20.864ZM60.8408 22.822V25H59.3008C58.0102 25 57.0275 24.692 56.3528 24.076C55.6928 23.4453 55.3628 22.404 55.3628 20.952V15.012H53.6248V12.878H55.3628V9.864H57.8928V12.878H60.8188V15.012H57.8928V20.996C57.8928 21.6853 58.0175 22.162 58.2668 22.426C58.5308 22.69 58.9855 22.822 59.6308 22.822H60.8408ZM67.8322 12.724C68.9322 12.724 69.8709 12.9953 70.6482 13.538C71.4255 14.0807 71.9755 14.7993 72.2982 15.694V12.878H74.8062V25H72.2982V22.184C71.9755 23.0787 71.4255 23.7973 70.6482 24.34C69.8709 24.8827 68.9322 25.154 67.8322 25.154C66.7762 25.154 65.8302 24.9047 64.9942 24.406C64.1729 23.9073 63.5275 23.1887 63.0582 22.25C62.5889 21.3113 62.3542 20.204 62.3542 18.928C62.3542 17.6667 62.5889 16.5667 63.0582 15.628C63.5275 14.6893 64.1729 13.9707 64.9942 13.472C65.8302 12.9733 66.7762 12.724 67.8322 12.724ZM68.6022 14.924C67.4875 14.924 66.5929 15.2833 65.9182 16.002C65.2582 16.706 64.9282 17.6813 64.9282 18.928C64.9282 20.1747 65.2582 21.1573 65.9182 21.876C66.5929 22.58 67.4875 22.932 68.6022 22.932C69.3062 22.932 69.9369 22.7707 70.4942 22.448C71.0515 22.1107 71.4915 21.6413 71.8142 21.04C72.1369 20.4387 72.2982 19.7347 72.2982 18.928C72.2982 18.136 72.1369 17.4393 71.8142 16.838C71.4915 16.222 71.0515 15.7527 70.4942 15.43C69.9369 15.0927 69.3062 14.924 68.6022 14.924ZM82.9859 12.724C84.5552 12.724 85.8532 13.142 86.8799 13.978C87.9066 14.7993 88.5446 15.9213 88.7939 17.344H86.1319C85.9852 16.5813 85.6259 15.9873 85.0539 15.562C84.4966 15.122 83.7926 14.902 82.9419 14.902C81.9739 14.902 81.1672 15.2467 80.5219 15.936C79.8766 16.6107 79.5539 17.608 79.5539 18.928C79.5539 20.248 79.8766 21.2527 80.5219 21.942C81.1672 22.6313 81.9739 22.976 82.9419 22.976C83.7926 22.976 84.4966 22.756 85.0539 22.316C85.6259 21.876 85.9852 21.2747 86.1319 20.512H88.7939C88.5446 21.9347 87.9066 23.064 86.8799 23.9C85.8532 24.736 84.5552 25.154 82.9859 25.154C81.8126 25.154 80.7712 24.9047 79.8619 24.406C78.9672 23.9073 78.2632 23.1887 77.7499 22.25C77.2366 21.3113 76.9799 20.204 76.9799 18.928C76.9799 17.6667 77.2366 16.5667 77.7499 15.628C78.2632 14.6893 78.9672 13.9707 79.8619 13.472C80.7712 12.9733 81.8126 12.724 82.9859 12.724ZM97.861 25L93.505 19.61V25H90.997V8.72H93.505V18.048L97.817 12.878H100.831L95.551 18.906L100.963 25H97.861ZM120.647 17.212C120.647 18.7813 120.324 20.1527 119.679 21.326C119.048 22.4847 118.117 23.3867 116.885 24.032C115.667 24.6773 114.208 25 112.507 25H107.315V9.468H112.507C114.208 9.468 115.667 9.79067 116.885 10.436C118.117 11.0667 119.048 11.9613 119.679 13.12C120.324 14.2787 120.647 15.6427 120.647 17.212ZM112.309 22.734C114.171 22.734 115.601 22.25 116.599 21.282C117.596 20.314 118.095 18.9573 118.095 17.212C118.095 15.4667 117.596 14.11 116.599 13.142C115.601 12.174 114.171 11.69 112.309 11.69H109.823V22.734H112.309ZM134.214 18.356C134.214 18.7667 134.185 19.126 134.126 19.434H124.798C124.842 20.6807 125.187 21.6047 125.832 22.206C126.478 22.8073 127.277 23.108 128.23 23.108C129.066 23.108 129.77 22.8953 130.342 22.47C130.929 22.0447 131.288 21.48 131.42 20.776H134.104C133.943 21.6267 133.606 22.382 133.092 23.042C132.579 23.702 131.912 24.2227 131.09 24.604C130.269 24.9707 129.352 25.154 128.34 25.154C127.167 25.154 126.126 24.9047 125.216 24.406C124.322 23.9073 123.618 23.1887 123.104 22.25C122.591 21.3113 122.334 20.204 122.334 18.928C122.334 17.6667 122.591 16.5667 123.104 15.628C123.618 14.6893 124.322 13.9707 125.216 13.472C126.126 12.9733 127.167 12.724 128.34 12.724C129.528 12.724 130.562 12.9733 131.442 13.472C132.337 13.956 133.019 14.6307 133.488 15.496C133.972 16.3467 134.214 17.3 134.214 18.356ZM131.684 18.29C131.714 17.498 131.574 16.838 131.266 16.31C130.973 15.7673 130.562 15.3713 130.034 15.122C129.521 14.858 128.956 14.726 128.34 14.726C127.358 14.726 126.536 15.0267 125.876 15.628C125.216 16.2293 124.857 17.1167 124.798 18.29H131.684ZM141.388 22.404L144.82 12.878H147.504L142.884 25H139.848L135.228 12.878H137.912L141.388 22.404ZM160.393 18.356C160.393 18.7667 160.364 19.126 160.305 19.434H150.977C151.021 20.6807 151.366 21.6047 152.011 22.206C152.657 22.8073 153.456 23.108 154.409 23.108C155.245 23.108 155.949 22.8953 156.521 22.47C157.108 22.0447 157.467 21.48 157.599 20.776H160.283C160.122 21.6267 159.785 22.382 159.271 23.042C158.758 23.702 158.091 24.2227 157.269 24.604C156.448 24.9707 155.531 25.154 154.519 25.154C153.346 25.154 152.305 24.9047 151.395 24.406C150.501 23.9073 149.797 23.1887 149.283 22.25C148.77 21.3113 148.513 20.204 148.513 18.928C148.513 17.6667 148.77 16.5667 149.283 15.628C149.797 14.6893 150.501 13.9707 151.395 13.472C152.305 12.9733 153.346 12.724 154.519 12.724C155.707 12.724 156.741 12.9733 157.621 13.472C158.516 13.956 159.198 14.6307 159.667 15.496C160.151 16.3467 160.393 17.3 160.393 18.356ZM157.863 18.29C157.893 17.498 157.753 16.838 157.445 16.31C157.152 15.7673 156.741 15.3713 156.213 15.122C155.7 14.858 155.135 14.726 154.519 14.726C153.537 14.726 152.715 15.0267 152.055 15.628C151.395 16.2293 151.036 17.1167 150.977 18.29H157.863ZM165.103 8.72V25H162.595V8.72H165.103ZM173.462 12.724C174.635 12.724 175.691 12.9733 176.63 13.472C177.569 13.9707 178.302 14.6893 178.83 15.628C179.358 16.5667 179.622 17.6667 179.622 18.928C179.622 20.204 179.358 21.3113 178.83 22.25C178.302 23.1887 177.569 23.9073 176.63 24.406C175.691 24.9047 174.635 25.154 173.462 25.154C172.289 25.154 171.233 24.9047 170.294 24.406C169.37 23.9073 168.637 23.1887 168.094 22.25C167.566 21.2967 167.302 20.1893 167.302 18.928C167.302 17.6667 167.566 16.5667 168.094 15.628C168.637 14.6893 169.37 13.9707 170.294 13.472C171.233 12.9733 172.289 12.724 173.462 12.724ZM173.462 14.902C172.817 14.902 172.223 15.0487 171.68 15.342C171.137 15.6353 170.697 16.09 170.36 16.706C170.037 17.3073 169.876 18.048 169.876 18.928C169.876 19.8227 170.037 20.5707 170.36 21.172C170.697 21.7733 171.137 22.2207 171.68 22.514C172.223 22.8073 172.817 22.954 173.462 22.954C174.107 22.954 174.701 22.8073 175.244 22.514C175.787 22.2207 176.219 21.7733 176.542 21.172C176.879 20.5707 177.048 19.8227 177.048 18.928C177.048 18.048 176.879 17.3073 176.542 16.706C176.219 16.09 175.787 15.6353 175.244 15.342C174.701 15.0487 174.107 14.902 173.462 14.902ZM188.765 12.724C189.821 12.724 190.76 12.9733 191.581 13.472C192.417 13.9707 193.07 14.6893 193.539 15.628C194.008 16.5667 194.243 17.6667 194.243 18.928C194.243 20.204 194.008 21.3113 193.539 22.25C193.07 23.1887 192.417 23.9073 191.581 24.406C190.76 24.9047 189.821 25.154 188.765 25.154C187.665 25.154 186.726 24.8827 185.949 24.34C185.172 23.7973 184.629 23.0787 184.321 22.184V30.764H181.813V12.878H184.321V15.694C184.629 14.7993 185.172 14.0807 185.949 13.538C186.726 12.9953 187.665 12.724 188.765 12.724ZM187.995 14.924C187.291 14.924 186.66 15.0927 186.103 15.43C185.546 15.7527 185.106 16.222 184.783 16.838C184.46 17.4393 184.299 18.136 184.299 18.928C184.299 19.7347 184.46 20.4387 184.783 21.04C185.106 21.6413 185.546 22.1107 186.103 22.448C186.66 22.7707 187.291 22.932 187.995 22.932C189.11 22.932 190.004 22.58 190.679 21.876C191.354 21.1573 191.691 20.1747 191.691 18.928C191.691 17.696 191.354 16.7207 190.679 16.002C190.004 15.2833 189.11 14.924 187.995 14.924ZM207.703 18.356C207.703 18.7667 207.674 19.126 207.615 19.434H198.287C198.331 20.6807 198.676 21.6047 199.321 22.206C199.966 22.8073 200.766 23.108 201.719 23.108C202.555 23.108 203.259 22.8953 203.831 22.47C204.418 22.0447 204.777 21.48 204.909 20.776H207.593C207.432 21.6267 207.094 22.382 206.581 23.042C206.068 23.702 205.4 24.2227 204.579 24.604C203.758 24.9707 202.841 25.154 201.829 25.154C200.656 25.154 199.614 24.9047 198.705 24.406C197.81 23.9073 197.106 23.1887 196.593 22.25C196.08 21.3113 195.823 20.204 195.823 18.928C195.823 17.6667 196.08 16.5667 196.593 15.628C197.106 14.6893 197.81 13.9707 198.705 13.472C199.614 12.9733 200.656 12.724 201.829 12.724C203.017 12.724 204.051 12.9733 204.931 13.472C205.826 13.956 206.508 14.6307 206.977 15.496C207.461 16.3467 207.703 17.3 207.703 18.356ZM205.173 18.29C205.202 17.498 205.063 16.838 204.755 16.31C204.462 15.7673 204.051 15.3713 203.523 15.122C203.01 14.858 202.445 14.726 201.829 14.726C200.846 14.726 200.025 15.0267 199.365 15.628C198.705 16.2293 198.346 17.1167 198.287 18.29H205.173ZM212.412 15.254C212.823 14.462 213.41 13.8387 214.172 13.384C214.935 12.9147 215.815 12.68 216.812 12.68V15.408H216.064C214.964 15.408 214.077 15.6793 213.402 16.222C212.742 16.75 212.412 17.63 212.412 18.862V25H209.904V12.878H212.412V15.254Z" fill="white"/>
<path d="M0.888 51V42.6H6.12V43.584H2.088V46.308H5.46V47.268H2.088V51H0.888ZM7.77534 51V42.6H10.6193C11.2833 42.6 11.8273 42.712 12.2513 42.936C12.6753 43.16 12.9873 43.46 13.1873 43.836C13.3953 44.204 13.4993 44.624 13.4993 45.096C13.4993 45.544 13.3953 45.96 13.1873 46.344C12.9873 46.72 12.6713 47.024 12.2393 47.256C11.8073 47.48 11.2553 47.592 10.5833 47.592H8.97534V51H7.77534ZM12.1913 51L10.3793 47.268H11.6993L13.5833 51H12.1913ZM8.97534 46.68H10.5473C11.1393 46.68 11.5713 46.536 11.8433 46.248C12.1233 45.952 12.2633 45.576 12.2633 45.12C12.2633 44.656 12.1273 44.288 11.8553 44.016C11.5833 43.744 11.1433 43.608 10.5353 43.608H8.97534V46.68ZM15.4361 51V42.6H20.7401V43.584H16.6361V46.272H20.3801V47.232H16.6361V50.016H20.7401V51H15.4361ZM22.675 51V42.6H27.979V43.584H23.875V46.272H27.619V47.232H23.875V50.016H27.979V51H22.675ZM29.9139 51V42.6H31.1139V50.052H34.9539V51H29.9139ZM36.1907 51L39.2867 42.6H40.5947L43.6667 51H42.3947L39.9227 44.04L37.4507 51H36.1907ZM37.5947 48.924L37.9187 47.964H41.8787L42.2027 48.924H37.5947ZM45.2472 51V42.6H46.4472L50.7312 49.044V42.6H51.9312V51H50.7312L46.4472 44.556V51H45.2472ZM57.7162 51.144C56.9002 51.144 56.1962 50.964 55.6042 50.604C55.0122 50.236 54.5562 49.728 54.2362 49.08C53.9162 48.424 53.7562 47.664 53.7562 46.8C53.7562 45.944 53.9162 45.188 54.2362 44.532C54.5562 43.876 55.0122 43.368 55.6042 43.008C56.1962 42.64 56.9002 42.456 57.7162 42.456C58.6922 42.456 59.4842 42.692 60.0922 43.164C60.7002 43.636 61.0882 44.3 61.2562 45.156H59.9482C59.8202 44.66 59.5722 44.264 59.2042 43.968C58.8362 43.672 58.3362 43.524 57.7042 43.524C57.1522 43.524 56.6682 43.656 56.2522 43.92C55.8442 44.184 55.5282 44.56 55.3042 45.048C55.0882 45.536 54.9802 46.12 54.9802 46.8C54.9802 47.48 55.0882 48.068 55.3042 48.564C55.5282 49.052 55.8442 49.428 56.2522 49.692C56.6682 49.948 57.1522 50.076 57.7042 50.076C58.3362 50.076 58.8362 49.936 59.2042 49.656C59.5722 49.368 59.8202 48.98 59.9482 48.492H61.2562C61.0882 49.324 60.7002 49.976 60.0922 50.448C59.4842 50.912 58.6922 51.144 57.7162 51.144ZM63.0766 51V42.6H68.3806V43.584H64.2766V46.272H68.0206V47.232H64.2766V50.016H68.3806V51H63.0766Z" fill="#999999"/>
</svg>
