<svg width="116" height="26" viewBox="0 0 116 26" fill="none" xmlns="http://www.w3.org/2000/svg">
<rect width="116" height="26" rx="13" fill="#DFF314"/>
<path d="M42.4437 17V16.136C43.0117 15.704 43.5477 15.268 44.0517 14.828C44.5637 14.388 45.0197 13.952 45.4197 13.52C45.8197 13.08 46.1317 12.652 46.3557 12.236C46.5877 11.812 46.7037 11.408 46.7037 11.024C46.7037 10.752 46.6517 10.5 46.5477 10.268C46.4517 10.036 46.2957 9.848 46.0797 9.704C45.8717 9.552 45.5877 9.476 45.2277 9.476C44.8757 9.476 44.5837 9.552 44.3517 9.704C44.1197 9.856 43.9437 10.06 43.8237 10.316C43.7117 10.564 43.6557 10.84 43.6557 11.144H42.4917C42.4997 10.568 42.6237 10.08 42.8637 9.68C43.1037 9.28 43.4317 8.976 43.8477 8.768C44.2637 8.56 44.7317 8.456 45.2517 8.456C45.7877 8.456 46.2517 8.556 46.6437 8.756C47.0357 8.948 47.3437 9.232 47.5677 9.608C47.7917 9.984 47.9037 10.436 47.9037 10.964C47.9037 11.348 47.8237 11.732 47.6637 12.116C47.5117 12.492 47.3037 12.86 47.0397 13.22C46.7757 13.58 46.4797 13.928 46.1517 14.264C45.8317 14.592 45.4997 14.904 45.1557 15.2C44.8117 15.496 44.4837 15.764 44.1717 16.004H48.1557V17H42.4437ZM53.0543 17.144C52.3263 17.144 51.6983 16.964 51.1703 16.604C50.6503 16.236 50.2503 15.728 49.9703 15.08C49.6903 14.424 49.5503 13.664 49.5503 12.8C49.5503 11.936 49.6903 11.18 49.9703 10.532C50.2503 9.876 50.6503 9.368 51.1703 9.008C51.6983 8.64 52.3263 8.456 53.0543 8.456C53.7903 8.456 54.4143 8.64 54.9263 9.008C55.4463 9.368 55.8463 9.876 56.1263 10.532C56.4143 11.18 56.5583 11.936 56.5583 12.8C56.5583 13.664 56.4143 14.424 56.1263 15.08C55.8463 15.728 55.4463 16.236 54.9263 16.604C54.4143 16.964 53.7903 17.144 53.0543 17.144ZM53.0543 16.076C53.4943 16.076 53.8823 15.944 54.2183 15.68C54.5623 15.416 54.8303 15.04 55.0223 14.552C55.2223 14.064 55.3223 13.48 55.3223 12.8C55.3223 12.112 55.2223 11.528 55.0223 11.048C54.8303 10.56 54.5623 10.188 54.2183 9.932C53.8823 9.668 53.4943 9.536 53.0543 9.536C52.6143 9.536 52.2223 9.668 51.8783 9.932C51.5343 10.188 51.2623 10.56 51.0623 11.048C50.8703 11.528 50.7743 12.112 50.7743 12.8C50.7743 13.48 50.8703 14.064 51.0623 14.552C51.2623 15.04 51.5343 15.416 51.8783 15.68C52.2223 15.944 52.6143 16.076 53.0543 16.076ZM58.1051 17V16.136C58.6731 15.704 59.2091 15.268 59.7131 14.828C60.2251 14.388 60.6811 13.952 61.0811 13.52C61.4811 13.08 61.7931 12.652 62.0171 12.236C62.2491 11.812 62.3651 11.408 62.3651 11.024C62.3651 10.752 62.3131 10.5 62.2091 10.268C62.1131 10.036 61.9571 9.848 61.7411 9.704C61.5331 9.552 61.2491 9.476 60.8891 9.476C60.5371 9.476 60.2451 9.552 60.0131 9.704C59.7811 9.856 59.6051 10.06 59.4851 10.316C59.3731 10.564 59.3171 10.84 59.3171 11.144H58.1531C58.1611 10.568 58.2851 10.08 58.5251 9.68C58.7651 9.28 59.0931 8.976 59.5091 8.768C59.9251 8.56 60.3931 8.456 60.9131 8.456C61.4491 8.456 61.9131 8.556 62.3051 8.756C62.6971 8.948 63.0051 9.232 63.2291 9.608C63.4531 9.984 63.5651 10.436 63.5651 10.964C63.5651 11.348 63.4851 11.732 63.3251 12.116C63.1731 12.492 62.9651 12.86 62.7011 13.22C62.4371 13.58 62.1411 13.928 61.8131 14.264C61.4931 14.592 61.1611 14.904 60.8171 15.2C60.4731 15.496 60.1451 15.764 59.8331 16.004H63.8171V17H58.1051ZM68.6655 17.144C68.0495 17.144 67.5295 17.032 67.1055 16.808C66.6895 16.576 66.3575 16.268 66.1095 15.884C65.8615 15.5 65.6775 15.068 65.5575 14.588C65.4455 14.108 65.3895 13.616 65.3895 13.112C65.3895 12.184 65.5175 11.372 65.7735 10.676C66.0295 9.98 66.4015 9.436 66.8895 9.044C67.3775 8.652 67.9655 8.456 68.6535 8.456C69.1975 8.456 69.6615 8.564 70.0455 8.78C70.4375 8.988 70.7455 9.264 70.9695 9.608C71.1935 9.952 71.3295 10.332 71.3775 10.748H70.2615C70.1815 10.34 70.0015 10.028 69.7215 9.812C69.4415 9.588 69.0815 9.476 68.6415 9.476C68.2415 9.476 67.8855 9.6 67.5735 9.848C67.2695 10.088 67.0255 10.456 66.8415 10.952C66.6655 11.448 66.5655 12.076 66.5415 12.836C66.5415 12.852 66.5415 12.868 66.5415 12.884C66.5415 12.9 66.5415 12.916 66.5415 12.932C66.6615 12.692 66.8295 12.472 67.0455 12.272C67.2695 12.072 67.5335 11.912 67.8375 11.792C68.1495 11.672 68.4855 11.612 68.8455 11.612C69.3175 11.612 69.7535 11.724 70.1535 11.948C70.5615 12.164 70.8895 12.476 71.1375 12.884C71.3935 13.292 71.5215 13.768 71.5215 14.312C71.5215 14.8 71.4055 15.26 71.1735 15.692C70.9415 16.124 70.6095 16.476 70.1775 16.748C69.7535 17.012 69.2495 17.144 68.6655 17.144ZM68.5815 16.1C68.9175 16.1 69.2175 16.028 69.4815 15.884C69.7455 15.732 69.9535 15.524 70.1055 15.26C70.2575 14.996 70.3335 14.696 70.3335 14.36C70.3335 14.016 70.2575 13.716 70.1055 13.46C69.9535 13.196 69.7455 12.992 69.4815 12.848C69.2175 12.704 68.9175 12.632 68.5815 12.632C68.2455 12.632 67.9415 12.708 67.6695 12.86C67.3975 13.012 67.1815 13.22 67.0215 13.484C66.8695 13.748 66.7935 14.044 66.7935 14.372C66.7935 14.708 66.8695 15.008 67.0215 15.272C67.1815 15.528 67.3975 15.732 67.6695 15.884C67.9415 16.028 68.2455 16.1 68.5815 16.1Z" fill="#181818"/>
</svg>
