<svg width="800" height="80" viewBox="0 0 800 80" fill="none" xmlns="http://www.w3.org/2000/svg">
<line x1="65" y1="79.25" x2="800" y2="79.2501" stroke="#333333" stroke-width="1.5"/>
<path d="M789.282 18L789.282 18.2594C789.282 23.6577 793.924 27.9964 799.589 27.9964" stroke="#999999" stroke-width="1.5" stroke-miterlimit="10"/>
<path d="M789.282 37.9997L789.282 37.7403C789.282 32.3421 793.924 27.9961 799.589 27.9961" stroke="#999999" stroke-width="1.5" stroke-miterlimit="10"/>
<path d="M774 28L799.589 28L774 28Z" fill="white"/>
<path d="M774 28L799.589 28" stroke="#999999" stroke-width="1.5" stroke-miterlimit="10"/>
<path d="M249.868 21.876H243.466L242.366 25H239.748L245.226 9.688H248.13L253.608 25H250.968L249.868 21.876ZM249.164 19.83L246.678 12.724L244.17 19.83H249.164ZM260.17 25.198C259.217 25.198 258.359 25.0293 257.596 24.692C256.848 24.34 256.254 23.8707 255.814 23.284C255.374 22.6827 255.139 22.0153 255.11 21.282H257.706C257.75 21.7953 257.992 22.228 258.432 22.58C258.887 22.9173 259.451 23.086 260.126 23.086C260.83 23.086 261.373 22.954 261.754 22.69C262.15 22.4113 262.348 22.0593 262.348 21.634C262.348 21.1793 262.128 20.842 261.688 20.622C261.263 20.402 260.581 20.16 259.642 19.896C258.733 19.6467 257.992 19.4047 257.42 19.17C256.848 18.9353 256.349 18.576 255.924 18.092C255.513 17.608 255.308 16.97 255.308 16.178C255.308 15.5327 255.499 14.946 255.88 14.418C256.261 13.8753 256.804 13.45 257.508 13.142C258.227 12.834 259.048 12.68 259.972 12.68C261.351 12.68 262.458 13.032 263.294 13.736C264.145 14.4253 264.599 15.3713 264.658 16.574H262.15C262.106 16.0313 261.886 15.5987 261.49 15.276C261.094 14.9533 260.559 14.792 259.884 14.792C259.224 14.792 258.718 14.9167 258.366 15.166C258.014 15.4153 257.838 15.7453 257.838 16.156C257.838 16.4787 257.955 16.75 258.19 16.97C258.425 17.19 258.711 17.366 259.048 17.498C259.385 17.6153 259.884 17.7693 260.544 17.96C261.424 18.1947 262.143 18.4367 262.7 18.686C263.272 18.9207 263.763 19.2727 264.174 19.742C264.585 20.2113 264.797 20.8347 264.812 21.612C264.812 22.3013 264.621 22.9173 264.24 23.46C263.859 24.0027 263.316 24.428 262.612 24.736C261.923 25.044 261.109 25.198 260.17 25.198ZM271.702 25.198C270.748 25.198 269.89 25.0293 269.128 24.692C268.38 24.34 267.786 23.8707 267.346 23.284C266.906 22.6827 266.671 22.0153 266.642 21.282H269.238C269.282 21.7953 269.524 22.228 269.964 22.58C270.418 22.9173 270.983 23.086 271.658 23.086C272.362 23.086 272.904 22.954 273.286 22.69C273.682 22.4113 273.88 22.0593 273.88 21.634C273.88 21.1793 273.66 20.842 273.22 20.622C272.794 20.402 272.112 20.16 271.174 19.896C270.264 19.6467 269.524 19.4047 268.952 19.17C268.38 18.9353 267.881 18.576 267.456 18.092C267.045 17.608 266.84 16.97 266.84 16.178C266.84 15.5327 267.03 14.946 267.412 14.418C267.793 13.8753 268.336 13.45 269.04 13.142C269.758 12.834 270.58 12.68 271.504 12.68C272.882 12.68 273.99 13.032 274.826 13.736C275.676 14.4253 276.131 15.3713 276.19 16.574H273.682C273.638 16.0313 273.418 15.5987 273.022 15.276C272.626 14.9533 272.09 14.792 271.416 14.792C270.756 14.792 270.25 14.9167 269.898 15.166C269.546 15.4153 269.37 15.7453 269.37 16.156C269.37 16.4787 269.487 16.75 269.722 16.97C269.956 17.19 270.242 17.366 270.58 17.498C270.917 17.6153 271.416 17.7693 272.076 17.96C272.956 18.1947 273.674 18.4367 274.232 18.686C274.804 18.9207 275.295 19.2727 275.706 19.742C276.116 20.2113 276.329 20.8347 276.344 21.612C276.344 22.3013 276.153 22.9173 275.772 23.46C275.39 24.0027 274.848 24.428 274.144 24.736C273.454 25.044 272.64 25.198 271.702 25.198ZM280.11 11.272C279.655 11.272 279.274 11.118 278.966 10.81C278.658 10.502 278.504 10.1207 278.504 9.666C278.504 9.21133 278.658 8.83 278.966 8.522C279.274 8.214 279.655 8.06 280.11 8.06C280.55 8.06 280.924 8.214 281.232 8.522C281.54 8.83 281.694 9.21133 281.694 9.666C281.694 10.1207 281.54 10.502 281.232 10.81C280.924 11.118 280.55 11.272 280.11 11.272ZM281.342 12.878V25H278.834V12.878H281.342ZM288.815 25.198C287.861 25.198 287.003 25.0293 286.241 24.692C285.493 24.34 284.899 23.8707 284.459 23.284C284.019 22.6827 283.784 22.0153 283.755 21.282H286.351C286.395 21.7953 286.637 22.228 287.077 22.58C287.531 22.9173 288.096 23.086 288.771 23.086C289.475 23.086 290.017 22.954 290.399 22.69C290.795 22.4113 290.993 22.0593 290.993 21.634C290.993 21.1793 290.773 20.842 290.333 20.622C289.907 20.402 289.225 20.16 288.287 19.896C287.377 19.6467 286.637 19.4047 286.065 19.17C285.493 18.9353 284.994 18.576 284.569 18.092C284.158 17.608 283.953 16.97 283.953 16.178C283.953 15.5327 284.143 14.946 284.525 14.418C284.906 13.8753 285.449 13.45 286.153 13.142C286.871 12.834 287.693 12.68 288.617 12.68C289.995 12.68 291.103 13.032 291.939 13.736C292.789 14.4253 293.244 15.3713 293.303 16.574H290.795C290.751 16.0313 290.531 15.5987 290.135 15.276C289.739 14.9533 289.203 14.792 288.529 14.792C287.869 14.792 287.363 14.9167 287.011 15.166C286.659 15.4153 286.483 15.7453 286.483 16.156C286.483 16.4787 286.6 16.75 286.835 16.97C287.069 17.19 287.355 17.366 287.693 17.498C288.03 17.6153 288.529 17.7693 289.189 17.96C290.069 18.1947 290.787 18.4367 291.345 18.686C291.917 18.9207 292.408 19.2727 292.819 19.742C293.229 20.2113 293.442 20.8347 293.457 21.612C293.457 22.3013 293.266 22.9173 292.885 23.46C292.503 24.0027 291.961 24.428 291.257 24.736C290.567 25.044 289.753 25.198 288.815 25.198ZM298.872 14.924V21.634C298.872 22.0887 298.975 22.4187 299.18 22.624C299.4 22.8147 299.767 22.91 300.28 22.91H301.82V25H299.84C298.711 25 297.846 24.736 297.244 24.208C296.643 23.68 296.342 22.822 296.342 21.634V14.924H294.912V12.878H296.342V9.864H298.872V12.878H301.82V14.924H298.872ZM303.076 18.884C303.076 17.6667 303.325 16.5887 303.824 15.65C304.337 14.7113 305.027 13.9853 305.892 13.472C306.772 12.944 307.74 12.68 308.796 12.68C309.749 12.68 310.578 12.8707 311.282 13.252C312.001 13.6187 312.573 14.0807 312.998 14.638V12.878H315.528V25H312.998V23.196C312.573 23.768 311.993 24.2447 311.26 24.626C310.527 25.0073 309.691 25.198 308.752 25.198C307.711 25.198 306.757 24.934 305.892 24.406C305.027 23.8633 304.337 23.1153 303.824 22.162C303.325 21.194 303.076 20.1013 303.076 18.884ZM312.998 18.928C312.998 18.092 312.822 17.366 312.47 16.75C312.133 16.134 311.685 15.6647 311.128 15.342C310.571 15.0193 309.969 14.858 309.324 14.858C308.679 14.858 308.077 15.0193 307.52 15.342C306.963 15.65 306.508 16.112 306.156 16.728C305.819 17.3293 305.65 18.048 305.65 18.884C305.65 19.72 305.819 20.4533 306.156 21.084C306.508 21.7147 306.963 22.1987 307.52 22.536C308.092 22.8587 308.693 23.02 309.324 23.02C309.969 23.02 310.571 22.8587 311.128 22.536C311.685 22.2133 312.133 21.744 312.47 21.128C312.822 20.4973 312.998 19.764 312.998 18.928ZM324.718 12.68C325.672 12.68 326.522 12.878 327.27 13.274C328.033 13.67 328.627 14.2567 329.052 15.034C329.478 15.8113 329.69 16.75 329.69 17.85V25H327.204V18.224C327.204 17.1387 326.933 16.31 326.39 15.738C325.848 15.1513 325.107 14.858 324.168 14.858C323.23 14.858 322.482 15.1513 321.924 15.738C321.382 16.31 321.11 17.1387 321.11 18.224V25H318.602V12.878H321.11V14.264C321.521 13.7653 322.042 13.3767 322.672 13.098C323.318 12.8193 324 12.68 324.718 12.68ZM335.595 14.924V21.634C335.595 22.0887 335.698 22.4187 335.903 22.624C336.123 22.8147 336.49 22.91 337.003 22.91H338.543V25H336.563C335.434 25 334.569 24.736 333.967 24.208C333.366 23.68 333.065 22.822 333.065 21.634V14.924H331.635V12.878H333.065V9.864H335.595V12.878H338.543V14.924H335.595ZM348.638 11.734V16.222H353.918V18.268H348.638V22.954H354.578V25H346.13V9.688H354.578V11.734H348.638ZM363.563 12.68C364.516 12.68 365.367 12.878 366.115 13.274C366.877 13.67 367.471 14.2567 367.897 15.034C368.322 15.8113 368.535 16.75 368.535 17.85V25H366.049V18.224C366.049 17.1387 365.777 16.31 365.235 15.738C364.692 15.1513 363.951 14.858 363.013 14.858C362.074 14.858 361.326 15.1513 360.769 15.738C360.226 16.31 359.955 17.1387 359.955 18.224V25H357.447V12.878H359.955V14.264C360.365 13.7653 360.886 13.3767 361.517 13.098C362.162 12.8193 362.844 12.68 363.563 12.68ZM370.678 18.884C370.678 17.6667 370.927 16.5887 371.426 15.65C371.939 14.7113 372.629 13.9853 373.494 13.472C374.374 12.944 375.349 12.68 376.42 12.68C377.212 12.68 377.989 12.856 378.752 13.208C379.529 13.5453 380.145 14 380.6 14.572V8.72H383.13V25H380.6V23.174C380.189 23.7607 379.617 24.2447 378.884 24.626C378.165 25.0073 377.337 25.198 376.398 25.198C375.342 25.198 374.374 24.934 373.494 24.406C372.629 23.8633 371.939 23.1153 371.426 22.162C370.927 21.194 370.678 20.1013 370.678 18.884ZM380.6 18.928C380.6 18.092 380.424 17.366 380.072 16.75C379.735 16.134 379.287 15.6647 378.73 15.342C378.173 15.0193 377.571 14.858 376.926 14.858C376.281 14.858 375.679 15.0193 375.122 15.342C374.565 15.65 374.11 16.112 373.758 16.728C373.421 17.3293 373.252 18.048 373.252 18.884C373.252 19.72 373.421 20.4533 373.758 21.084C374.11 21.7147 374.565 22.1987 375.122 22.536C375.694 22.8587 376.295 23.02 376.926 23.02C377.571 23.02 378.173 22.8587 378.73 22.536C379.287 22.2133 379.735 21.744 380.072 21.128C380.424 20.4973 380.6 19.764 380.6 18.928ZM395.51 15.98V18.092H386.468V15.98H395.51ZM409.831 12.878V25H407.323V23.57C406.927 24.0687 406.407 24.4647 405.761 24.758C405.131 25.0367 404.456 25.176 403.737 25.176C402.784 25.176 401.926 24.978 401.163 24.582C400.415 24.186 399.821 23.5993 399.381 22.822C398.956 22.0447 398.743 21.106 398.743 20.006V12.878H401.229V19.632C401.229 20.7173 401.501 21.5533 402.043 22.14C402.586 22.712 403.327 22.998 404.265 22.998C405.204 22.998 405.945 22.712 406.487 22.14C407.045 21.5533 407.323 20.7173 407.323 19.632V12.878H409.831ZM417.32 25.198C416.367 25.198 415.509 25.0293 414.746 24.692C413.998 24.34 413.404 23.8707 412.964 23.284C412.524 22.6827 412.29 22.0153 412.26 21.282H414.856C414.9 21.7953 415.142 22.228 415.582 22.58C416.037 22.9173 416.602 23.086 417.276 23.086C417.98 23.086 418.523 22.954 418.904 22.69C419.3 22.4113 419.498 22.0593 419.498 21.634C419.498 21.1793 419.278 20.842 418.838 20.622C418.413 20.402 417.731 20.16 416.792 19.896C415.883 19.6467 415.142 19.4047 414.57 19.17C413.998 18.9353 413.5 18.576 413.074 18.092C412.664 17.608 412.458 16.97 412.458 16.178C412.458 15.5327 412.649 14.946 413.03 14.418C413.412 13.8753 413.954 13.45 414.658 13.142C415.377 12.834 416.198 12.68 417.122 12.68C418.501 12.68 419.608 13.032 420.444 13.736C421.295 14.4253 421.75 15.3713 421.808 16.574H419.3C419.256 16.0313 419.036 15.5987 418.64 15.276C418.244 14.9533 417.709 14.792 417.034 14.792C416.374 14.792 415.868 14.9167 415.516 15.166C415.164 15.4153 414.988 15.7453 414.988 16.156C414.988 16.4787 415.106 16.75 415.34 16.97C415.575 17.19 415.861 17.366 416.198 17.498C416.536 17.6153 417.034 17.7693 417.694 17.96C418.574 18.1947 419.293 18.4367 419.85 18.686C420.422 18.9207 420.914 19.2727 421.324 19.742C421.735 20.2113 421.948 20.8347 421.962 21.612C421.962 22.3013 421.772 22.9173 421.39 23.46C421.009 24.0027 420.466 24.428 419.762 24.736C419.073 25.044 418.259 25.198 417.32 25.198ZM435.562 18.642C435.562 19.0967 435.533 19.5073 435.474 19.874H426.212C426.286 20.842 426.645 21.6193 427.29 22.206C427.936 22.7927 428.728 23.086 429.666 23.086C431.016 23.086 431.969 22.5213 432.526 21.392H435.232C434.866 22.5067 434.198 23.4233 433.23 24.142C432.277 24.846 431.089 25.198 429.666 25.198C428.508 25.198 427.466 24.9413 426.542 24.428C425.633 23.9 424.914 23.1667 424.386 22.228C423.873 21.2747 423.616 20.1747 423.616 18.928C423.616 17.6813 423.866 16.5887 424.364 15.65C424.878 14.6967 425.589 13.9633 426.498 13.45C427.422 12.9367 428.478 12.68 429.666 12.68C430.81 12.68 431.83 12.9293 432.724 13.428C433.619 13.9267 434.316 14.6307 434.814 15.54C435.313 16.4347 435.562 17.4687 435.562 18.642ZM432.944 17.85C432.93 16.926 432.6 16.1853 431.954 15.628C431.309 15.0707 430.51 14.792 429.556 14.792C428.691 14.792 427.95 15.0707 427.334 15.628C426.718 16.1707 426.352 16.9113 426.234 17.85H432.944ZM440.318 14.638C440.685 14.022 441.169 13.5453 441.77 13.208C442.386 12.856 443.112 12.68 443.948 12.68V15.276H443.31C442.328 15.276 441.58 15.5253 441.066 16.024C440.568 16.5227 440.318 17.388 440.318 18.62V25H437.81V12.878H440.318V14.638ZM455.929 25.198C454.975 25.198 454.117 25.0293 453.355 24.692C452.607 24.34 452.013 23.8707 451.573 23.284C451.133 22.6827 450.898 22.0153 450.869 21.282H453.465C453.509 21.7953 453.751 22.228 454.191 22.58C454.645 22.9173 455.21 23.086 455.885 23.086C456.589 23.086 457.131 22.954 457.513 22.69C457.909 22.4113 458.107 22.0593 458.107 21.634C458.107 21.1793 457.887 20.842 457.447 20.622C457.021 20.402 456.339 20.16 455.401 19.896C454.491 19.6467 453.751 19.4047 453.179 19.17C452.607 18.9353 452.108 18.576 451.683 18.092C451.272 17.608 451.067 16.97 451.067 16.178C451.067 15.5327 451.257 14.946 451.639 14.418C452.02 13.8753 452.563 13.45 453.267 13.142C453.985 12.834 454.807 12.68 455.731 12.68C457.109 12.68 458.217 13.032 459.053 13.736C459.903 14.4253 460.358 15.3713 460.417 16.574H457.909C457.865 16.0313 457.645 15.5987 457.249 15.276C456.853 14.9533 456.317 14.792 455.643 14.792C454.983 14.792 454.477 14.9167 454.125 15.166C453.773 15.4153 453.597 15.7453 453.597 16.156C453.597 16.4787 453.714 16.75 453.949 16.97C454.183 17.19 454.469 17.366 454.807 17.498C455.144 17.6153 455.643 17.7693 456.303 17.96C457.183 18.1947 457.901 18.4367 458.459 18.686C459.031 18.9207 459.522 19.2727 459.933 19.742C460.343 20.2113 460.556 20.8347 460.571 21.612C460.571 22.3013 460.38 22.9173 459.999 23.46C459.617 24.0027 459.075 24.428 458.371 24.736C457.681 25.044 456.867 25.198 455.929 25.198ZM474.039 12.878V25H471.531V23.57C471.135 24.0687 470.614 24.4647 469.969 24.758C469.338 25.0367 468.663 25.176 467.945 25.176C466.991 25.176 466.133 24.978 465.371 24.582C464.623 24.186 464.029 23.5993 463.589 22.822C463.163 22.0447 462.951 21.106 462.951 20.006V12.878H465.437V19.632C465.437 20.7173 465.708 21.5533 466.251 22.14C466.793 22.712 467.534 22.998 468.473 22.998C469.411 22.998 470.152 22.712 470.695 22.14C471.252 21.5533 471.531 20.7173 471.531 19.632V12.878H474.039ZM479.636 14.66C480.061 14.1027 480.64 13.6333 481.374 13.252C482.107 12.8707 482.936 12.68 483.86 12.68C484.916 12.68 485.876 12.944 486.742 13.472C487.622 13.9853 488.311 14.7113 488.81 15.65C489.308 16.5887 489.558 17.6667 489.558 18.884C489.558 20.1013 489.308 21.194 488.81 22.162C488.311 23.1153 487.622 23.8633 486.742 24.406C485.876 24.934 484.916 25.198 483.86 25.198C482.936 25.198 482.114 25.0147 481.396 24.648C480.677 24.2667 480.09 23.7973 479.636 23.24V30.764H477.128V12.878H479.636V14.66ZM487.006 18.884C487.006 18.048 486.83 17.3293 486.478 16.728C486.14 16.112 485.686 15.65 485.114 15.342C484.556 15.0193 483.955 14.858 483.31 14.858C482.679 14.858 482.078 15.0193 481.506 15.342C480.948 15.6647 480.494 16.134 480.142 16.75C479.804 17.366 479.636 18.092 479.636 18.928C479.636 19.764 479.804 20.4973 480.142 21.128C480.494 21.744 480.948 22.2133 481.506 22.536C482.078 22.8587 482.679 23.02 483.31 23.02C483.955 23.02 484.556 22.8587 485.114 22.536C485.686 22.1987 486.14 21.7147 486.478 21.084C486.83 20.4533 487.006 19.72 487.006 18.884ZM494.326 14.66C494.751 14.1027 495.33 13.6333 496.064 13.252C496.797 12.8707 497.626 12.68 498.55 12.68C499.606 12.68 500.566 12.944 501.432 13.472C502.312 13.9853 503.001 14.7113 503.5 15.65C503.998 16.5887 504.248 17.6667 504.248 18.884C504.248 20.1013 503.998 21.194 503.5 22.162C503.001 23.1153 502.312 23.8633 501.432 24.406C500.566 24.934 499.606 25.198 498.55 25.198C497.626 25.198 496.804 25.0147 496.086 24.648C495.367 24.2667 494.78 23.7973 494.326 23.24V30.764H491.818V12.878H494.326V14.66ZM501.696 18.884C501.696 18.048 501.52 17.3293 501.168 16.728C500.83 16.112 500.376 15.65 499.804 15.342C499.246 15.0193 498.645 14.858 498 14.858C497.369 14.858 496.768 15.0193 496.196 15.342C495.638 15.6647 495.184 16.134 494.832 16.75C494.494 17.366 494.326 18.092 494.326 18.928C494.326 19.764 494.494 20.4973 494.832 21.128C495.184 21.744 495.638 22.2133 496.196 22.536C496.768 22.8587 497.369 23.02 498 23.02C498.645 23.02 499.246 22.8587 499.804 22.536C500.376 22.1987 500.83 21.7147 501.168 21.084C501.52 20.4533 501.696 19.72 501.696 18.884ZM511.766 25.198C510.622 25.198 509.588 24.9413 508.664 24.428C507.74 23.9 507.014 23.1667 506.486 22.228C505.958 21.2747 505.694 20.1747 505.694 18.928C505.694 17.696 505.965 16.6033 506.508 15.65C507.051 14.6967 507.791 13.9633 508.73 13.45C509.669 12.9367 510.717 12.68 511.876 12.68C513.035 12.68 514.083 12.9367 515.022 13.45C515.961 13.9633 516.701 14.6967 517.244 15.65C517.787 16.6033 518.058 17.696 518.058 18.928C518.058 20.16 517.779 21.2527 517.222 22.206C516.665 23.1593 515.902 23.9 514.934 24.428C513.981 24.9413 512.925 25.198 511.766 25.198ZM511.766 23.02C512.411 23.02 513.013 22.866 513.57 22.558C514.142 22.25 514.604 21.788 514.956 21.172C515.308 20.556 515.484 19.808 515.484 18.928C515.484 18.048 515.315 17.3073 514.978 16.706C514.641 16.09 514.193 15.628 513.636 15.32C513.079 15.012 512.477 14.858 511.832 14.858C511.187 14.858 510.585 15.012 510.028 15.32C509.485 15.628 509.053 16.09 508.73 16.706C508.407 17.3073 508.246 18.048 508.246 18.928C508.246 20.2333 508.576 21.2453 509.236 21.964C509.911 22.668 510.754 23.02 511.766 23.02ZM522.825 14.638C523.192 14.022 523.676 13.5453 524.277 13.208C524.893 12.856 525.619 12.68 526.455 12.68V15.276H525.817C524.835 15.276 524.087 15.5253 523.573 16.024C523.075 16.5227 522.825 17.388 522.825 18.62V25H520.317V12.878H522.825V14.638ZM531.467 14.924V21.634C531.467 22.0887 531.569 22.4187 531.775 22.624C531.995 22.8147 532.361 22.91 532.875 22.91H534.415V25H532.435C531.305 25 530.44 24.736 529.839 24.208C529.237 23.68 528.937 22.822 528.937 21.634V14.924H527.507V12.878H528.937V9.864H531.467V12.878H534.415V14.924H531.467Z" fill="white"/>
<path d="M242.972 51.144C242.38 51.144 241.844 51.028 241.364 50.796C240.884 50.556 240.5 50.196 240.212 49.716C239.932 49.228 239.792 48.608 239.792 47.856V42.6H240.992V47.868C240.992 48.372 241.076 48.788 241.244 49.116C241.412 49.436 241.644 49.676 241.94 49.836C242.244 49.988 242.596 50.064 242.996 50.064C243.404 50.064 243.752 49.988 244.04 49.836C244.336 49.676 244.564 49.436 244.724 49.116C244.892 48.788 244.976 48.372 244.976 47.868V42.6H246.176V47.856C246.176 48.608 246.032 49.228 245.744 49.716C245.456 50.196 245.068 50.556 244.58 50.796C244.1 51.028 243.564 51.144 242.972 51.144ZM248.217 51V42.6H251.325C251.917 42.6 252.409 42.696 252.801 42.888C253.193 43.072 253.485 43.328 253.677 43.656C253.877 43.976 253.977 44.34 253.977 44.748C253.977 45.172 253.881 45.528 253.689 45.816C253.505 46.104 253.261 46.328 252.957 46.488C252.661 46.64 252.341 46.728 251.997 46.752L252.177 46.632C252.545 46.64 252.877 46.74 253.173 46.932C253.477 47.116 253.717 47.364 253.893 47.676C254.077 47.988 254.169 48.332 254.169 48.708C254.169 49.14 254.061 49.532 253.845 49.884C253.637 50.228 253.329 50.5 252.921 50.7C252.521 50.9 252.025 51 251.433 51H248.217ZM249.417 50.004H251.277C251.805 50.004 252.213 49.884 252.501 49.644C252.797 49.396 252.945 49.048 252.945 48.6C252.945 48.16 252.793 47.808 252.489 47.544C252.193 47.28 251.781 47.148 251.253 47.148H249.417V50.004ZM249.417 46.224H251.193C251.697 46.224 252.081 46.108 252.345 45.876C252.609 45.636 252.741 45.308 252.741 44.892C252.741 44.492 252.609 44.176 252.345 43.944C252.081 43.704 251.689 43.584 251.169 43.584H249.417V46.224ZM255.971 51V42.6H257.171V51H255.971ZM265.164 52.2L262.272 47.652H263.652L266.568 52.2H265.164ZM263.016 51.144C262.224 51.144 261.524 50.964 260.916 50.604C260.316 50.236 259.844 49.728 259.5 49.08C259.164 48.424 258.996 47.664 258.996 46.8C258.996 45.944 259.164 45.192 259.5 44.544C259.844 43.888 260.316 43.376 260.916 43.008C261.524 42.64 262.224 42.456 263.016 42.456C263.824 42.456 264.528 42.64 265.128 43.008C265.736 43.376 266.208 43.888 266.544 44.544C266.88 45.192 267.048 45.944 267.048 46.8C267.048 47.664 266.88 48.424 266.544 49.08C266.208 49.728 265.736 50.236 265.128 50.604C264.528 50.964 263.824 51.144 263.016 51.144ZM263.016 50.076C263.584 50.076 264.076 49.944 264.492 49.68C264.916 49.416 265.244 49.04 265.476 48.552C265.708 48.064 265.824 47.48 265.824 46.8C265.824 46.12 265.708 45.536 265.476 45.048C265.244 44.56 264.916 44.188 264.492 43.932C264.076 43.668 263.584 43.536 263.016 43.536C262.456 43.536 261.964 43.668 261.54 43.932C261.124 44.188 260.8 44.56 260.568 45.048C260.336 45.536 260.22 46.12 260.22 46.8C260.22 47.48 260.336 48.064 260.568 48.552C260.8 49.04 261.124 49.416 261.54 49.68C261.964 49.944 262.456 50.076 263.016 50.076ZM271.939 51.144C271.347 51.144 270.811 51.028 270.331 50.796C269.851 50.556 269.467 50.196 269.179 49.716C268.899 49.228 268.759 48.608 268.759 47.856V42.6H269.959V47.868C269.959 48.372 270.043 48.788 270.211 49.116C270.379 49.436 270.611 49.676 270.907 49.836C271.211 49.988 271.563 50.064 271.963 50.064C272.371 50.064 272.719 49.988 273.007 49.836C273.303 49.676 273.531 49.436 273.691 49.116C273.859 48.788 273.943 48.372 273.943 47.868V42.6H275.143V47.856C275.143 48.608 274.999 49.228 274.711 49.716C274.423 50.196 274.035 50.556 273.547 50.796C273.067 51.028 272.531 51.144 271.939 51.144ZM277.184 51V42.6H278.384V51H277.184ZM282.477 51V43.584H279.981V42.6H286.161V43.584H283.677V51H282.477ZM289.871 51V47.88L287.111 42.6H288.467L290.567 46.896H290.387L292.487 42.6H293.831L291.071 47.88V51H289.871ZM302.381 51.144C301.597 51.144 300.909 50.964 300.317 50.604C299.725 50.244 299.265 49.74 298.937 49.092C298.609 48.444 298.445 47.688 298.445 46.824C298.445 45.968 298.609 45.212 298.937 44.556C299.273 43.9 299.749 43.388 300.365 43.02C300.989 42.644 301.721 42.456 302.561 42.456C303.521 42.456 304.321 42.688 304.961 43.152C305.601 43.608 306.009 44.244 306.185 45.06H304.829C304.709 44.596 304.453 44.232 304.061 43.968C303.677 43.696 303.177 43.56 302.561 43.56C301.969 43.56 301.453 43.692 301.013 43.956C300.581 44.22 300.249 44.596 300.017 45.084C299.785 45.572 299.669 46.152 299.669 46.824C299.669 47.504 299.785 48.088 300.017 48.576C300.249 49.064 300.573 49.436 300.989 49.692C301.413 49.948 301.905 50.076 302.465 50.076C303.305 50.076 303.941 49.832 304.373 49.344C304.805 48.856 305.057 48.204 305.129 47.388H302.813V46.464H306.341V51H305.237L305.141 49.716C304.949 50.028 304.725 50.292 304.469 50.508C304.221 50.716 303.925 50.876 303.581 50.988C303.245 51.092 302.845 51.144 302.381 51.144ZM308.304 51V42.6H309.504V50.052H313.344V51H308.304ZM318.068 51.144C317.276 51.144 316.576 50.964 315.968 50.604C315.368 50.236 314.896 49.728 314.552 49.08C314.216 48.424 314.048 47.664 314.048 46.8C314.048 45.944 314.216 45.192 314.552 44.544C314.896 43.888 315.368 43.376 315.968 43.008C316.576 42.64 317.276 42.456 318.068 42.456C318.876 42.456 319.58 42.64 320.18 43.008C320.788 43.376 321.26 43.888 321.596 44.544C321.932 45.192 322.1 45.944 322.1 46.8C322.1 47.664 321.932 48.424 321.596 49.08C321.26 49.728 320.788 50.236 320.18 50.604C319.58 50.964 318.876 51.144 318.068 51.144ZM318.068 50.076C318.636 50.076 319.128 49.944 319.544 49.68C319.968 49.416 320.296 49.04 320.528 48.552C320.76 48.064 320.876 47.48 320.876 46.8C320.876 46.12 320.76 45.536 320.528 45.048C320.296 44.56 319.968 44.188 319.544 43.932C319.128 43.668 318.636 43.536 318.068 43.536C317.508 43.536 317.016 43.668 316.592 43.932C316.176 44.188 315.852 44.56 315.62 45.048C315.388 45.536 315.272 46.12 315.272 46.8C315.272 47.48 315.388 48.064 315.62 48.552C315.852 49.04 316.176 49.416 316.592 49.68C317.016 49.944 317.508 50.076 318.068 50.076ZM323.907 51V42.6H327.015C327.607 42.6 328.099 42.696 328.491 42.888C328.883 43.072 329.175 43.328 329.367 43.656C329.567 43.976 329.667 44.34 329.667 44.748C329.667 45.172 329.571 45.528 329.379 45.816C329.195 46.104 328.951 46.328 328.647 46.488C328.351 46.64 328.031 46.728 327.687 46.752L327.867 46.632C328.235 46.64 328.567 46.74 328.863 46.932C329.167 47.116 329.407 47.364 329.583 47.676C329.767 47.988 329.859 48.332 329.859 48.708C329.859 49.14 329.751 49.532 329.535 49.884C329.327 50.228 329.019 50.5 328.611 50.7C328.211 50.9 327.715 51 327.123 51H323.907ZM325.107 50.004H326.967C327.495 50.004 327.903 49.884 328.191 49.644C328.487 49.396 328.635 49.048 328.635 48.6C328.635 48.16 328.483 47.808 328.179 47.544C327.883 47.28 327.471 47.148 326.943 47.148H325.107V50.004ZM325.107 46.224H326.883C327.387 46.224 327.771 46.108 328.035 45.876C328.299 45.636 328.431 45.308 328.431 44.892C328.431 44.492 328.299 44.176 328.035 43.944C327.771 43.704 327.379 43.584 326.859 43.584H325.107V46.224ZM330.993 51L334.089 42.6H335.397L338.469 51H337.197L334.725 44.04L332.253 51H330.993ZM332.397 48.924L332.721 47.964H336.681L337.005 48.924H332.397ZM340.049 51V42.6H341.249V50.052H345.089V51H340.049ZM353.08 51.144C352.472 51.144 351.936 51.036 351.472 50.82C351.008 50.596 350.648 50.284 350.392 49.884C350.136 49.484 350.004 49.016 349.996 48.48H351.268C351.268 48.784 351.336 49.064 351.472 49.32C351.616 49.568 351.82 49.768 352.084 49.92C352.356 50.064 352.688 50.136 353.08 50.136C353.416 50.136 353.704 50.08 353.944 49.968C354.192 49.856 354.38 49.704 354.508 49.512C354.636 49.312 354.7 49.084 354.7 48.828C354.7 48.54 354.636 48.304 354.508 48.12C354.38 47.928 354.2 47.768 353.968 47.64C353.744 47.512 353.484 47.4 353.188 47.304C352.9 47.208 352.588 47.104 352.252 46.992C351.572 46.768 351.068 46.484 350.74 46.14C350.42 45.796 350.26 45.348 350.26 44.796C350.26 44.324 350.368 43.916 350.584 43.572C350.808 43.22 351.124 42.948 351.532 42.756C351.94 42.556 352.416 42.456 352.96 42.456C353.512 42.456 353.988 42.556 354.388 42.756C354.796 42.956 355.116 43.232 355.348 43.584C355.58 43.936 355.7 44.348 355.708 44.82H354.436C354.436 44.604 354.376 44.392 354.256 44.184C354.144 43.976 353.976 43.808 353.752 43.68C353.536 43.544 353.264 43.476 352.936 43.476C352.656 43.468 352.408 43.512 352.192 43.608C351.976 43.704 351.808 43.844 351.688 44.028C351.568 44.212 351.508 44.432 351.508 44.688C351.508 44.944 351.564 45.152 351.676 45.312C351.788 45.464 351.944 45.596 352.144 45.708C352.352 45.82 352.596 45.924 352.876 46.02C353.156 46.108 353.464 46.208 353.8 46.32C354.208 46.456 354.576 46.624 354.904 46.824C355.232 47.016 355.488 47.268 355.672 47.58C355.864 47.884 355.96 48.276 355.96 48.756C355.96 49.172 355.852 49.56 355.636 49.92C355.42 50.28 355.1 50.576 354.676 50.808C354.252 51.032 353.72 51.144 353.08 51.144ZM357.77 51V42.6H363.074V43.584H358.97V46.272H362.714V47.232H358.97V50.016H363.074V51H357.77ZM365.009 51V42.6H367.853C368.517 42.6 369.061 42.712 369.485 42.936C369.909 43.16 370.221 43.46 370.421 43.836C370.629 44.204 370.733 44.624 370.733 45.096C370.733 45.544 370.629 45.96 370.421 46.344C370.221 46.72 369.905 47.024 369.473 47.256C369.041 47.48 368.489 47.592 367.817 47.592H366.209V51H365.009ZM369.425 51L367.613 47.268H368.933L370.817 51H369.425ZM366.209 46.68H367.781C368.373 46.68 368.805 46.536 369.077 46.248C369.357 45.952 369.497 45.576 369.497 45.12C369.497 44.656 369.361 44.288 369.089 44.016C368.817 43.744 368.377 43.608 367.769 43.608H366.209V46.68ZM374.825 51L371.693 42.6H372.989L375.545 49.752L378.113 42.6H379.385L376.253 51H374.825ZM380.869 51V42.6H382.069V51H380.869ZM387.854 51.144C387.038 51.144 386.334 50.964 385.742 50.604C385.15 50.236 384.694 49.728 384.374 49.08C384.054 48.424 383.894 47.664 383.894 46.8C383.894 45.944 384.054 45.188 384.374 44.532C384.694 43.876 385.15 43.368 385.742 43.008C386.334 42.64 387.038 42.456 387.854 42.456C388.83 42.456 389.622 42.692 390.23 43.164C390.838 43.636 391.226 44.3 391.394 45.156H390.086C389.958 44.66 389.71 44.264 389.342 43.968C388.974 43.672 388.474 43.524 387.842 43.524C387.29 43.524 386.806 43.656 386.39 43.92C385.982 44.184 385.666 44.56 385.442 45.048C385.226 45.536 385.118 46.12 385.118 46.8C385.118 47.48 385.226 48.068 385.442 48.564C385.666 49.052 385.982 49.428 386.39 49.692C386.806 49.948 387.29 50.076 387.842 50.076C388.474 50.076 388.974 49.936 389.342 49.656C389.71 49.368 389.958 48.98 390.086 48.492H391.394C391.226 49.324 390.838 49.976 390.23 50.448C389.622 50.912 388.83 51.144 387.854 51.144ZM393.214 51V42.6H398.518V43.584H394.414V46.272H398.158V47.232H394.414V50.016H398.518V51H393.214ZM403.201 51.144C402.593 51.144 402.057 51.036 401.593 50.82C401.129 50.596 400.769 50.284 400.513 49.884C400.257 49.484 400.125 49.016 400.117 48.48H401.389C401.389 48.784 401.457 49.064 401.593 49.32C401.737 49.568 401.941 49.768 402.205 49.92C402.477 50.064 402.809 50.136 403.201 50.136C403.537 50.136 403.825 50.08 404.065 49.968C404.313 49.856 404.501 49.704 404.629 49.512C404.757 49.312 404.821 49.084 404.821 48.828C404.821 48.54 404.757 48.304 404.629 48.12C404.501 47.928 404.321 47.768 404.089 47.64C403.865 47.512 403.605 47.4 403.309 47.304C403.021 47.208 402.709 47.104 402.373 46.992C401.693 46.768 401.189 46.484 400.861 46.14C400.541 45.796 400.381 45.348 400.381 44.796C400.381 44.324 400.489 43.916 400.705 43.572C400.929 43.22 401.245 42.948 401.653 42.756C402.061 42.556 402.537 42.456 403.081 42.456C403.633 42.456 404.109 42.556 404.509 42.756C404.917 42.956 405.237 43.232 405.469 43.584C405.701 43.936 405.821 44.348 405.829 44.82H404.557C404.557 44.604 404.497 44.392 404.377 44.184C404.265 43.976 404.097 43.808 403.873 43.68C403.657 43.544 403.385 43.476 403.057 43.476C402.777 43.468 402.529 43.512 402.313 43.608C402.097 43.704 401.929 43.844 401.809 44.028C401.689 44.212 401.629 44.432 401.629 44.688C401.629 44.944 401.685 45.152 401.797 45.312C401.909 45.464 402.065 45.596 402.265 45.708C402.473 45.82 402.717 45.924 402.997 46.02C403.277 46.108 403.585 46.208 403.921 46.32C404.329 46.456 404.697 46.624 405.025 46.824C405.353 47.016 405.609 47.268 405.793 47.58C405.985 47.884 406.081 48.276 406.081 48.756C406.081 49.172 405.973 49.56 405.757 49.92C405.541 50.28 405.221 50.576 404.797 50.808C404.373 51.032 403.841 51.144 403.201 51.144Z" fill="#999999"/>
<rect x="65" y="8" width="116" height="26" rx="13" fill="#DFF314"/>
<path d="M107.537 25V24.136C108.105 23.704 108.641 23.268 109.145 22.828C109.657 22.388 110.113 21.952 110.513 21.52C110.913 21.08 111.225 20.652 111.449 20.236C111.681 19.812 111.797 19.408 111.797 19.024C111.797 18.752 111.745 18.5 111.641 18.268C111.545 18.036 111.389 17.848 111.173 17.704C110.965 17.552 110.681 17.476 110.321 17.476C109.969 17.476 109.677 17.552 109.445 17.704C109.213 17.856 109.037 18.06 108.917 18.316C108.805 18.564 108.749 18.84 108.749 19.144H107.585C107.593 18.568 107.717 18.08 107.957 17.68C108.197 17.28 108.525 16.976 108.941 16.768C109.357 16.56 109.825 16.456 110.345 16.456C110.881 16.456 111.345 16.556 111.737 16.756C112.129 16.948 112.437 17.232 112.661 17.608C112.885 17.984 112.997 18.436 112.997 18.964C112.997 19.348 112.917 19.732 112.757 20.116C112.605 20.492 112.397 20.86 112.133 21.22C111.869 21.58 111.573 21.928 111.245 22.264C110.925 22.592 110.593 22.904 110.249 23.2C109.905 23.496 109.577 23.764 109.265 24.004H113.249V25H107.537ZM118.148 25.144C117.42 25.144 116.792 24.964 116.264 24.604C115.744 24.236 115.344 23.728 115.064 23.08C114.784 22.424 114.644 21.664 114.644 20.8C114.644 19.936 114.784 19.18 115.064 18.532C115.344 17.876 115.744 17.368 116.264 17.008C116.792 16.64 117.42 16.456 118.148 16.456C118.884 16.456 119.508 16.64 120.02 17.008C120.54 17.368 120.94 17.876 121.22 18.532C121.508 19.18 121.652 19.936 121.652 20.8C121.652 21.664 121.508 22.424 121.22 23.08C120.94 23.728 120.54 24.236 120.02 24.604C119.508 24.964 118.884 25.144 118.148 25.144ZM118.148 24.076C118.588 24.076 118.976 23.944 119.312 23.68C119.656 23.416 119.924 23.04 120.116 22.552C120.316 22.064 120.416 21.48 120.416 20.8C120.416 20.112 120.316 19.528 120.116 19.048C119.924 18.56 119.656 18.188 119.312 17.932C118.976 17.668 118.588 17.536 118.148 17.536C117.708 17.536 117.316 17.668 116.972 17.932C116.628 18.188 116.356 18.56 116.156 19.048C115.964 19.528 115.868 20.112 115.868 20.8C115.868 21.48 115.964 22.064 116.156 22.552C116.356 23.04 116.628 23.416 116.972 23.68C117.316 23.944 117.708 24.076 118.148 24.076ZM123.199 25V24.136C123.767 23.704 124.303 23.268 124.807 22.828C125.319 22.388 125.775 21.952 126.175 21.52C126.575 21.08 126.887 20.652 127.111 20.236C127.343 19.812 127.459 19.408 127.459 19.024C127.459 18.752 127.407 18.5 127.303 18.268C127.207 18.036 127.051 17.848 126.835 17.704C126.627 17.552 126.343 17.476 125.983 17.476C125.631 17.476 125.339 17.552 125.107 17.704C124.875 17.856 124.699 18.06 124.579 18.316C124.467 18.564 124.411 18.84 124.411 19.144H123.247C123.255 18.568 123.379 18.08 123.619 17.68C123.859 17.28 124.187 16.976 124.603 16.768C125.019 16.56 125.487 16.456 126.007 16.456C126.543 16.456 127.007 16.556 127.399 16.756C127.791 16.948 128.099 17.232 128.323 17.608C128.547 17.984 128.659 18.436 128.659 18.964C128.659 19.348 128.579 19.732 128.419 20.116C128.267 20.492 128.059 20.86 127.795 21.22C127.531 21.58 127.235 21.928 126.907 22.264C126.587 22.592 126.255 22.904 125.911 23.2C125.567 23.496 125.239 23.764 124.927 24.004H128.911V25H123.199ZM133.579 25.144C132.995 25.144 132.491 25.04 132.067 24.832C131.643 24.624 131.311 24.344 131.071 23.992C130.831 23.632 130.683 23.224 130.627 22.768H131.803C131.883 23.16 132.075 23.484 132.379 23.74C132.691 23.996 133.095 24.124 133.591 24.124C133.951 24.124 134.259 24.04 134.515 23.872C134.779 23.696 134.979 23.46 135.115 23.164C135.259 22.868 135.331 22.54 135.331 22.18C135.331 21.804 135.259 21.476 135.115 21.196C134.979 20.908 134.783 20.688 134.527 20.536C134.271 20.376 133.971 20.296 133.627 20.296C133.211 20.296 132.855 20.384 132.559 20.56C132.271 20.736 132.055 20.956 131.911 21.22H130.747L131.419 16.6H135.967V17.644H132.331L131.911 20.02C132.103 19.804 132.359 19.632 132.679 19.504C133.007 19.368 133.379 19.3 133.795 19.3C134.219 19.3 134.595 19.376 134.923 19.528C135.259 19.672 135.543 19.876 135.775 20.14C136.007 20.404 136.183 20.708 136.303 21.052C136.431 21.396 136.495 21.764 136.495 22.156C136.495 22.572 136.427 22.964 136.291 23.332C136.155 23.692 135.959 24.008 135.703 24.28C135.455 24.552 135.151 24.764 134.791 24.916C134.431 25.068 134.027 25.144 133.579 25.144Z" fill="#181818"/>
</svg>
