<svg width="297" height="55" viewBox="0 0 297 55" fill="none" xmlns="http://www.w3.org/2000/svg">
<path d="M10.868 21.876H4.466L3.366 25H0.748L6.226 9.688H9.13L14.608 25H11.968L10.868 21.876ZM10.164 19.83L7.678 12.724L5.17 19.83H10.164ZM21.1698 25.198C20.2165 25.198 19.3585 25.0293 18.5958 24.692C17.8478 24.34 17.2538 23.8707 16.8138 23.284C16.3738 22.6827 16.1392 22.0153 16.1098 21.282H18.7058C18.7498 21.7953 18.9918 22.228 19.4318 22.58C19.8865 22.9173 20.4512 23.086 21.1258 23.086C21.8298 23.086 22.3725 22.954 22.7538 22.69C23.1498 22.4113 23.3478 22.0593 23.3478 21.634C23.3478 21.1793 23.1278 20.842 22.6878 20.622C22.2625 20.402 21.5805 20.16 20.6418 19.896C19.7325 19.6467 18.9918 19.4047 18.4198 19.17C17.8478 18.9353 17.3492 18.576 16.9238 18.092C16.5132 17.608 16.3078 16.97 16.3078 16.178C16.3078 15.5327 16.4985 14.946 16.8798 14.418C17.2612 13.8753 17.8038 13.45 18.5078 13.142C19.2265 12.834 20.0478 12.68 20.9718 12.68C22.3505 12.68 23.4578 13.032 24.2938 13.736C25.1445 14.4253 25.5992 15.3713 25.6578 16.574H23.1498C23.1058 16.0313 22.8858 15.5987 22.4898 15.276C22.0938 14.9533 21.5585 14.792 20.8838 14.792C20.2238 14.792 19.7178 14.9167 19.3658 15.166C19.0138 15.4153 18.8378 15.7453 18.8378 16.156C18.8378 16.4787 18.9552 16.75 19.1898 16.97C19.4245 17.19 19.7105 17.366 20.0478 17.498C20.3852 17.6153 20.8838 17.7693 21.5438 17.96C22.4238 18.1947 23.1425 18.4367 23.6998 18.686C24.2718 18.9207 24.7632 19.2727 25.1738 19.742C25.5845 20.2113 25.7972 20.8347 25.8118 21.612C25.8118 22.3013 25.6212 22.9173 25.2398 23.46C24.8585 24.0027 24.3158 24.428 23.6118 24.736C22.9225 25.044 22.1085 25.198 21.1698 25.198ZM32.7018 25.198C31.7485 25.198 30.8905 25.0293 30.1278 24.692C29.3798 24.34 28.7858 23.8707 28.3458 23.284C27.9058 22.6827 27.6711 22.0153 27.6418 21.282H30.2378C30.2818 21.7953 30.5238 22.228 30.9638 22.58C31.4185 22.9173 31.9831 23.086 32.6578 23.086C33.3618 23.086 33.9045 22.954 34.2858 22.69C34.6818 22.4113 34.8798 22.0593 34.8798 21.634C34.8798 21.1793 34.6598 20.842 34.2198 20.622C33.7945 20.402 33.1125 20.16 32.1738 19.896C31.2645 19.6467 30.5238 19.4047 29.9518 19.17C29.3798 18.9353 28.8811 18.576 28.4558 18.092C28.0451 17.608 27.8398 16.97 27.8398 16.178C27.8398 15.5327 28.0305 14.946 28.4118 14.418C28.7931 13.8753 29.3358 13.45 30.0398 13.142C30.7585 12.834 31.5798 12.68 32.5038 12.68C33.8825 12.68 34.9898 13.032 35.8258 13.736C36.6765 14.4253 37.1311 15.3713 37.1898 16.574H34.6818C34.6378 16.0313 34.4178 15.5987 34.0218 15.276C33.6258 14.9533 33.0905 14.792 32.4158 14.792C31.7558 14.792 31.2498 14.9167 30.8978 15.166C30.5458 15.4153 30.3698 15.7453 30.3698 16.156C30.3698 16.4787 30.4871 16.75 30.7218 16.97C30.9565 17.19 31.2425 17.366 31.5798 17.498C31.9171 17.6153 32.4158 17.7693 33.0758 17.96C33.9558 18.1947 34.6745 18.4367 35.2318 18.686C35.8038 18.9207 36.2951 19.2727 36.7058 19.742C37.1165 20.2113 37.3291 20.8347 37.3438 21.612C37.3438 22.3013 37.1531 22.9173 36.7718 23.46C36.3905 24.0027 35.8478 24.428 35.1438 24.736C34.4545 25.044 33.6405 25.198 32.7018 25.198ZM41.1098 11.272C40.6551 11.272 40.2738 11.118 39.9658 10.81C39.6578 10.502 39.5038 10.1207 39.5038 9.666C39.5038 9.21133 39.6578 8.83 39.9658 8.522C40.2738 8.214 40.6551 8.06 41.1098 8.06C41.5498 8.06 41.9238 8.214 42.2318 8.522C42.5398 8.83 42.6938 9.21133 42.6938 9.666C42.6938 10.1207 42.5398 10.502 42.2318 10.81C41.9238 11.118 41.5498 11.272 41.1098 11.272ZM42.3418 12.878V25H39.8338V12.878H42.3418ZM49.8145 25.198C48.8612 25.198 48.0032 25.0293 47.2405 24.692C46.4925 24.34 45.8985 23.8707 45.4585 23.284C45.0185 22.6827 44.7839 22.0153 44.7545 21.282H47.3505C47.3945 21.7953 47.6365 22.228 48.0765 22.58C48.5312 22.9173 49.0959 23.086 49.7705 23.086C50.4745 23.086 51.0172 22.954 51.3985 22.69C51.7945 22.4113 51.9925 22.0593 51.9925 21.634C51.9925 21.1793 51.7725 20.842 51.3325 20.622C50.9072 20.402 50.2252 20.16 49.2865 19.896C48.3772 19.6467 47.6365 19.4047 47.0645 19.17C46.4925 18.9353 45.9939 18.576 45.5685 18.092C45.1579 17.608 44.9525 16.97 44.9525 16.178C44.9525 15.5327 45.1432 14.946 45.5245 14.418C45.9059 13.8753 46.4485 13.45 47.1525 13.142C47.8712 12.834 48.6925 12.68 49.6165 12.68C50.9952 12.68 52.1025 13.032 52.9385 13.736C53.7892 14.4253 54.2439 15.3713 54.3025 16.574H51.7945C51.7505 16.0313 51.5305 15.5987 51.1345 15.276C50.7385 14.9533 50.2032 14.792 49.5285 14.792C48.8685 14.792 48.3625 14.9167 48.0105 15.166C47.6585 15.4153 47.4825 15.7453 47.4825 16.156C47.4825 16.4787 47.5999 16.75 47.8345 16.97C48.0692 17.19 48.3552 17.366 48.6925 17.498C49.0299 17.6153 49.5285 17.7693 50.1885 17.96C51.0685 18.1947 51.7872 18.4367 52.3445 18.686C52.9165 18.9207 53.4079 19.2727 53.8185 19.742C54.2292 20.2113 54.4419 20.8347 54.4565 21.612C54.4565 22.3013 54.2659 22.9173 53.8845 23.46C53.5032 24.0027 52.9605 24.428 52.2565 24.736C51.5672 25.044 50.7532 25.198 49.8145 25.198ZM59.8725 14.924V21.634C59.8725 22.0887 59.9752 22.4187 60.1805 22.624C60.4005 22.8147 60.7672 22.91 61.2805 22.91H62.8205V25H60.8405C59.7112 25 58.8458 24.736 58.2445 24.208C57.6432 23.68 57.3425 22.822 57.3425 21.634V14.924H55.9125V12.878H57.3425V9.864H59.8725V12.878H62.8205V14.924H59.8725ZM64.076 18.884C64.076 17.6667 64.3254 16.5887 64.824 15.65C65.3374 14.7113 66.0267 13.9853 66.892 13.472C67.772 12.944 68.74 12.68 69.796 12.68C70.7494 12.68 71.578 12.8707 72.282 13.252C73.0007 13.6187 73.5727 14.0807 73.998 14.638V12.878H76.528V25H73.998V23.196C73.5727 23.768 72.9934 24.2447 72.26 24.626C71.5267 25.0073 70.6907 25.198 69.752 25.198C68.7107 25.198 67.7574 24.934 66.892 24.406C66.0267 23.8633 65.3374 23.1153 64.824 22.162C64.3254 21.194 64.076 20.1013 64.076 18.884ZM73.998 18.928C73.998 18.092 73.822 17.366 73.47 16.75C73.1327 16.134 72.6854 15.6647 72.128 15.342C71.5707 15.0193 70.9694 14.858 70.324 14.858C69.6787 14.858 69.0774 15.0193 68.52 15.342C67.9627 15.65 67.508 16.112 67.156 16.728C66.8187 17.3293 66.65 18.048 66.65 18.884C66.65 19.72 66.8187 20.4533 67.156 21.084C67.508 21.7147 67.9627 22.1987 68.52 22.536C69.092 22.8587 69.6934 23.02 70.324 23.02C70.9694 23.02 71.5707 22.8587 72.128 22.536C72.6854 22.2133 73.1327 21.744 73.47 21.128C73.822 20.4973 73.998 19.764 73.998 18.928ZM85.7182 12.68C86.6715 12.68 87.5222 12.878 88.2702 13.274C89.0329 13.67 89.6269 14.2567 90.0522 15.034C90.4775 15.8113 90.6902 16.75 90.6902 17.85V25H88.2042V18.224C88.2042 17.1387 87.9329 16.31 87.3902 15.738C86.8475 15.1513 86.1069 14.858 85.1682 14.858C84.2295 14.858 83.4815 15.1513 82.9242 15.738C82.3815 16.31 82.1102 17.1387 82.1102 18.224V25H79.6022V12.878H82.1102V14.264C82.5209 13.7653 83.0415 13.3767 83.6722 13.098C84.3175 12.8193 84.9995 12.68 85.7182 12.68ZM96.5953 14.924V21.634C96.5953 22.0887 96.698 22.4187 96.9033 22.624C97.1233 22.8147 97.49 22.91 98.0033 22.91H99.5433V25H97.5633C96.434 25 95.5686 24.736 94.9673 24.208C94.366 23.68 94.0653 22.822 94.0653 21.634V14.924H92.6353V12.878H94.0653V9.864H96.5953V12.878H99.5433V14.924H96.5953ZM109.638 11.734V16.222H114.918V18.268H109.638V22.954H115.578V25H107.13V9.688H115.578V11.734H109.638ZM124.563 12.68C125.516 12.68 126.367 12.878 127.115 13.274C127.877 13.67 128.471 14.2567 128.897 15.034C129.322 15.8113 129.535 16.75 129.535 17.85V25H127.049V18.224C127.049 17.1387 126.777 16.31 126.235 15.738C125.692 15.1513 124.951 14.858 124.013 14.858C123.074 14.858 122.326 15.1513 121.769 15.738C121.226 16.31 120.955 17.1387 120.955 18.224V25H118.447V12.878H120.955V14.264C121.365 13.7653 121.886 13.3767 122.517 13.098C123.162 12.8193 123.844 12.68 124.563 12.68ZM131.678 18.884C131.678 17.6667 131.927 16.5887 132.426 15.65C132.939 14.7113 133.629 13.9853 134.494 13.472C135.374 12.944 136.349 12.68 137.42 12.68C138.212 12.68 138.989 12.856 139.752 13.208C140.529 13.5453 141.145 14 141.6 14.572V8.72H144.13V25H141.6V23.174C141.189 23.7607 140.617 24.2447 139.884 24.626C139.165 25.0073 138.337 25.198 137.398 25.198C136.342 25.198 135.374 24.934 134.494 24.406C133.629 23.8633 132.939 23.1153 132.426 22.162C131.927 21.194 131.678 20.1013 131.678 18.884ZM141.6 18.928C141.6 18.092 141.424 17.366 141.072 16.75C140.735 16.134 140.287 15.6647 139.73 15.342C139.173 15.0193 138.571 14.858 137.926 14.858C137.281 14.858 136.679 15.0193 136.122 15.342C135.565 15.65 135.11 16.112 134.758 16.728C134.421 17.3293 134.252 18.048 134.252 18.884C134.252 19.72 134.421 20.4533 134.758 21.084C135.11 21.7147 135.565 22.1987 136.122 22.536C136.694 22.8587 137.295 23.02 137.926 23.02C138.571 23.02 139.173 22.8587 139.73 22.536C140.287 22.2133 140.735 21.744 141.072 21.128C141.424 20.4973 141.6 19.764 141.6 18.928ZM156.51 15.98V18.092H147.468V15.98H156.51ZM170.831 12.878V25H168.323V23.57C167.927 24.0687 167.407 24.4647 166.761 24.758C166.131 25.0367 165.456 25.176 164.737 25.176C163.784 25.176 162.926 24.978 162.163 24.582C161.415 24.186 160.821 23.5993 160.381 22.822C159.956 22.0447 159.743 21.106 159.743 20.006V12.878H162.229V19.632C162.229 20.7173 162.501 21.5533 163.043 22.14C163.586 22.712 164.327 22.998 165.265 22.998C166.204 22.998 166.945 22.712 167.487 22.14C168.045 21.5533 168.323 20.7173 168.323 19.632V12.878H170.831ZM178.32 25.198C177.367 25.198 176.509 25.0293 175.746 24.692C174.998 24.34 174.404 23.8707 173.964 23.284C173.524 22.6827 173.29 22.0153 173.26 21.282H175.856C175.9 21.7953 176.142 22.228 176.582 22.58C177.037 22.9173 177.602 23.086 178.276 23.086C178.98 23.086 179.523 22.954 179.904 22.69C180.3 22.4113 180.498 22.0593 180.498 21.634C180.498 21.1793 180.278 20.842 179.838 20.622C179.413 20.402 178.731 20.16 177.792 19.896C176.883 19.6467 176.142 19.4047 175.57 19.17C174.998 18.9353 174.5 18.576 174.074 18.092C173.664 17.608 173.458 16.97 173.458 16.178C173.458 15.5327 173.649 14.946 174.03 14.418C174.412 13.8753 174.954 13.45 175.658 13.142C176.377 12.834 177.198 12.68 178.122 12.68C179.501 12.68 180.608 13.032 181.444 13.736C182.295 14.4253 182.75 15.3713 182.808 16.574H180.3C180.256 16.0313 180.036 15.5987 179.64 15.276C179.244 14.9533 178.709 14.792 178.034 14.792C177.374 14.792 176.868 14.9167 176.516 15.166C176.164 15.4153 175.988 15.7453 175.988 16.156C175.988 16.4787 176.106 16.75 176.34 16.97C176.575 17.19 176.861 17.366 177.198 17.498C177.536 17.6153 178.034 17.7693 178.694 17.96C179.574 18.1947 180.293 18.4367 180.85 18.686C181.422 18.9207 181.914 19.2727 182.324 19.742C182.735 20.2113 182.948 20.8347 182.962 21.612C182.962 22.3013 182.772 22.9173 182.39 23.46C182.009 24.0027 181.466 24.428 180.762 24.736C180.073 25.044 179.259 25.198 178.32 25.198ZM196.562 18.642C196.562 19.0967 196.533 19.5073 196.474 19.874H187.212C187.286 20.842 187.645 21.6193 188.29 22.206C188.936 22.7927 189.728 23.086 190.666 23.086C192.016 23.086 192.969 22.5213 193.526 21.392H196.232C195.866 22.5067 195.198 23.4233 194.23 24.142C193.277 24.846 192.089 25.198 190.666 25.198C189.508 25.198 188.466 24.9413 187.542 24.428C186.633 23.9 185.914 23.1667 185.386 22.228C184.873 21.2747 184.616 20.1747 184.616 18.928C184.616 17.6813 184.866 16.5887 185.364 15.65C185.878 14.6967 186.589 13.9633 187.498 13.45C188.422 12.9367 189.478 12.68 190.666 12.68C191.81 12.68 192.83 12.9293 193.724 13.428C194.619 13.9267 195.316 14.6307 195.814 15.54C196.313 16.4347 196.562 17.4687 196.562 18.642ZM193.944 17.85C193.93 16.926 193.6 16.1853 192.954 15.628C192.309 15.0707 191.51 14.792 190.556 14.792C189.691 14.792 188.95 15.0707 188.334 15.628C187.718 16.1707 187.352 16.9113 187.234 17.85H193.944ZM201.318 14.638C201.685 14.022 202.169 13.5453 202.77 13.208C203.386 12.856 204.112 12.68 204.948 12.68V15.276H204.31C203.328 15.276 202.58 15.5253 202.066 16.024C201.568 16.5227 201.318 17.388 201.318 18.62V25H198.81V12.878H201.318V14.638ZM216.929 25.198C215.975 25.198 215.117 25.0293 214.355 24.692C213.607 24.34 213.013 23.8707 212.573 23.284C212.133 22.6827 211.898 22.0153 211.869 21.282H214.465C214.509 21.7953 214.751 22.228 215.191 22.58C215.645 22.9173 216.21 23.086 216.885 23.086C217.589 23.086 218.131 22.954 218.513 22.69C218.909 22.4113 219.107 22.0593 219.107 21.634C219.107 21.1793 218.887 20.842 218.447 20.622C218.021 20.402 217.339 20.16 216.401 19.896C215.491 19.6467 214.751 19.4047 214.179 19.17C213.607 18.9353 213.108 18.576 212.683 18.092C212.272 17.608 212.067 16.97 212.067 16.178C212.067 15.5327 212.257 14.946 212.639 14.418C213.02 13.8753 213.563 13.45 214.267 13.142C214.985 12.834 215.807 12.68 216.731 12.68C218.109 12.68 219.217 13.032 220.053 13.736C220.903 14.4253 221.358 15.3713 221.417 16.574H218.909C218.865 16.0313 218.645 15.5987 218.249 15.276C217.853 14.9533 217.317 14.792 216.643 14.792C215.983 14.792 215.477 14.9167 215.125 15.166C214.773 15.4153 214.597 15.7453 214.597 16.156C214.597 16.4787 214.714 16.75 214.949 16.97C215.183 17.19 215.469 17.366 215.807 17.498C216.144 17.6153 216.643 17.7693 217.303 17.96C218.183 18.1947 218.901 18.4367 219.459 18.686C220.031 18.9207 220.522 19.2727 220.933 19.742C221.343 20.2113 221.556 20.8347 221.571 21.612C221.571 22.3013 221.38 22.9173 220.999 23.46C220.617 24.0027 220.075 24.428 219.371 24.736C218.681 25.044 217.867 25.198 216.929 25.198ZM235.039 12.878V25H232.531V23.57C232.135 24.0687 231.614 24.4647 230.969 24.758C230.338 25.0367 229.663 25.176 228.945 25.176C227.991 25.176 227.133 24.978 226.371 24.582C225.623 24.186 225.029 23.5993 224.589 22.822C224.163 22.0447 223.951 21.106 223.951 20.006V12.878H226.437V19.632C226.437 20.7173 226.708 21.5533 227.251 22.14C227.793 22.712 228.534 22.998 229.473 22.998C230.411 22.998 231.152 22.712 231.695 22.14C232.252 21.5533 232.531 20.7173 232.531 19.632V12.878H235.039ZM240.636 14.66C241.061 14.1027 241.64 13.6333 242.374 13.252C243.107 12.8707 243.936 12.68 244.86 12.68C245.916 12.68 246.876 12.944 247.742 13.472C248.622 13.9853 249.311 14.7113 249.81 15.65C250.308 16.5887 250.558 17.6667 250.558 18.884C250.558 20.1013 250.308 21.194 249.81 22.162C249.311 23.1153 248.622 23.8633 247.742 24.406C246.876 24.934 245.916 25.198 244.86 25.198C243.936 25.198 243.114 25.0147 242.396 24.648C241.677 24.2667 241.09 23.7973 240.636 23.24V30.764H238.128V12.878H240.636V14.66ZM248.006 18.884C248.006 18.048 247.83 17.3293 247.478 16.728C247.14 16.112 246.686 15.65 246.114 15.342C245.556 15.0193 244.955 14.858 244.31 14.858C243.679 14.858 243.078 15.0193 242.506 15.342C241.948 15.6647 241.494 16.134 241.142 16.75C240.804 17.366 240.636 18.092 240.636 18.928C240.636 19.764 240.804 20.4973 241.142 21.128C241.494 21.744 241.948 22.2133 242.506 22.536C243.078 22.8587 243.679 23.02 244.31 23.02C244.955 23.02 245.556 22.8587 246.114 22.536C246.686 22.1987 247.14 21.7147 247.478 21.084C247.83 20.4533 248.006 19.72 248.006 18.884ZM255.326 14.66C255.751 14.1027 256.33 13.6333 257.064 13.252C257.797 12.8707 258.626 12.68 259.55 12.68C260.606 12.68 261.566 12.944 262.432 13.472C263.312 13.9853 264.001 14.7113 264.5 15.65C264.998 16.5887 265.248 17.6667 265.248 18.884C265.248 20.1013 264.998 21.194 264.5 22.162C264.001 23.1153 263.312 23.8633 262.432 24.406C261.566 24.934 260.606 25.198 259.55 25.198C258.626 25.198 257.804 25.0147 257.086 24.648C256.367 24.2667 255.78 23.7973 255.326 23.24V30.764H252.818V12.878H255.326V14.66ZM262.696 18.884C262.696 18.048 262.52 17.3293 262.168 16.728C261.83 16.112 261.376 15.65 260.804 15.342C260.246 15.0193 259.645 14.858 259 14.858C258.369 14.858 257.768 15.0193 257.196 15.342C256.638 15.6647 256.184 16.134 255.832 16.75C255.494 17.366 255.326 18.092 255.326 18.928C255.326 19.764 255.494 20.4973 255.832 21.128C256.184 21.744 256.638 22.2133 257.196 22.536C257.768 22.8587 258.369 23.02 259 23.02C259.645 23.02 260.246 22.8587 260.804 22.536C261.376 22.1987 261.83 21.7147 262.168 21.084C262.52 20.4533 262.696 19.72 262.696 18.884ZM272.766 25.198C271.622 25.198 270.588 24.9413 269.664 24.428C268.74 23.9 268.014 23.1667 267.486 22.228C266.958 21.2747 266.694 20.1747 266.694 18.928C266.694 17.696 266.965 16.6033 267.508 15.65C268.051 14.6967 268.791 13.9633 269.73 13.45C270.669 12.9367 271.717 12.68 272.876 12.68C274.035 12.68 275.083 12.9367 276.022 13.45C276.961 13.9633 277.701 14.6967 278.244 15.65C278.787 16.6033 279.058 17.696 279.058 18.928C279.058 20.16 278.779 21.2527 278.222 22.206C277.665 23.1593 276.902 23.9 275.934 24.428C274.981 24.9413 273.925 25.198 272.766 25.198ZM272.766 23.02C273.411 23.02 274.013 22.866 274.57 22.558C275.142 22.25 275.604 21.788 275.956 21.172C276.308 20.556 276.484 19.808 276.484 18.928C276.484 18.048 276.315 17.3073 275.978 16.706C275.641 16.09 275.193 15.628 274.636 15.32C274.079 15.012 273.477 14.858 272.832 14.858C272.187 14.858 271.585 15.012 271.028 15.32C270.485 15.628 270.053 16.09 269.73 16.706C269.407 17.3073 269.246 18.048 269.246 18.928C269.246 20.2333 269.576 21.2453 270.236 21.964C270.911 22.668 271.754 23.02 272.766 23.02ZM283.825 14.638C284.192 14.022 284.676 13.5453 285.277 13.208C285.893 12.856 286.619 12.68 287.455 12.68V15.276H286.817C285.835 15.276 285.087 15.5253 284.573 16.024C284.075 16.5227 283.825 17.388 283.825 18.62V25H281.317V12.878H283.825V14.638ZM292.467 14.924V21.634C292.467 22.0887 292.569 22.4187 292.775 22.624C292.995 22.8147 293.361 22.91 293.875 22.91H295.415V25H293.435C292.305 25 291.44 24.736 290.839 24.208C290.237 23.68 289.937 22.822 289.937 21.634V14.924H288.507V12.878H289.937V9.864H292.467V12.878H295.415V14.924H292.467Z" fill="white"/>
<path d="M3.972 51.144C3.38 51.144 2.844 51.028 2.364 50.796C1.884 50.556 1.5 50.196 1.212 49.716C0.932 49.228 0.792 48.608 0.792 47.856V42.6H1.992V47.868C1.992 48.372 2.076 48.788 2.244 49.116C2.412 49.436 2.644 49.676 2.94 49.836C3.244 49.988 3.596 50.064 3.996 50.064C4.404 50.064 4.752 49.988 5.04 49.836C5.336 49.676 5.564 49.436 5.724 49.116C5.892 48.788 5.976 48.372 5.976 47.868V42.6H7.176V47.856C7.176 48.608 7.032 49.228 6.744 49.716C6.456 50.196 6.068 50.556 5.58 50.796C5.1 51.028 4.564 51.144 3.972 51.144ZM9.21675 51V42.6H12.3247C12.9167 42.6 13.4087 42.696 13.8008 42.888C14.1927 43.072 14.4847 43.328 14.6768 43.656C14.8767 43.976 14.9767 44.34 14.9767 44.748C14.9767 45.172 14.8807 45.528 14.6888 45.816C14.5048 46.104 14.2607 46.328 13.9567 46.488C13.6607 46.64 13.3407 46.728 12.9967 46.752L13.1767 46.632C13.5447 46.64 13.8767 46.74 14.1727 46.932C14.4768 47.116 14.7168 47.364 14.8928 47.676C15.0768 47.988 15.1688 48.332 15.1688 48.708C15.1688 49.14 15.0608 49.532 14.8448 49.884C14.6367 50.228 14.3287 50.5 13.9207 50.7C13.5207 50.9 13.0247 51 12.4327 51H9.21675ZM10.4167 50.004H12.2767C12.8047 50.004 13.2127 49.884 13.5007 49.644C13.7967 49.396 13.9447 49.048 13.9447 48.6C13.9447 48.16 13.7927 47.808 13.4887 47.544C13.1927 47.28 12.7807 47.148 12.2527 47.148H10.4167V50.004ZM10.4167 46.224H12.1927C12.6967 46.224 13.0807 46.108 13.3447 45.876C13.6087 45.636 13.7408 45.308 13.7408 44.892C13.7408 44.492 13.6087 44.176 13.3447 43.944C13.0807 43.704 12.6887 43.584 12.1687 43.584H10.4167V46.224ZM16.9713 51V42.6H18.1713V51H16.9713ZM26.1638 52.2L23.2718 47.652H24.6518L27.5678 52.2H26.1638ZM24.0158 51.144C23.2238 51.144 22.5238 50.964 21.9158 50.604C21.3158 50.236 20.8438 49.728 20.4998 49.08C20.1638 48.424 19.9958 47.664 19.9958 46.8C19.9958 45.944 20.1638 45.192 20.4998 44.544C20.8438 43.888 21.3158 43.376 21.9158 43.008C22.5238 42.64 23.2238 42.456 24.0158 42.456C24.8238 42.456 25.5278 42.64 26.1278 43.008C26.7358 43.376 27.2078 43.888 27.5438 44.544C27.8798 45.192 28.0478 45.944 28.0478 46.8C28.0478 47.664 27.8798 48.424 27.5438 49.08C27.2078 49.728 26.7358 50.236 26.1278 50.604C25.5278 50.964 24.8238 51.144 24.0158 51.144ZM24.0158 50.076C24.5838 50.076 25.0758 49.944 25.4918 49.68C25.9158 49.416 26.2438 49.04 26.4758 48.552C26.7078 48.064 26.8238 47.48 26.8238 46.8C26.8238 46.12 26.7078 45.536 26.4758 45.048C26.2438 44.56 25.9158 44.188 25.4918 43.932C25.0758 43.668 24.5838 43.536 24.0158 43.536C23.4558 43.536 22.9638 43.668 22.5398 43.932C22.1238 44.188 21.7998 44.56 21.5678 45.048C21.3358 45.536 21.2198 46.12 21.2198 46.8C21.2198 47.48 21.3358 48.064 21.5678 48.552C21.7998 49.04 22.1238 49.416 22.5398 49.68C22.9638 49.944 23.4558 50.076 24.0158 50.076ZM32.9393 51.144C32.3473 51.144 31.8113 51.028 31.3313 50.796C30.8513 50.556 30.4673 50.196 30.1793 49.716C29.8993 49.228 29.7593 48.608 29.7593 47.856V42.6H30.9593V47.868C30.9593 48.372 31.0433 48.788 31.2113 49.116C31.3793 49.436 31.6113 49.676 31.9073 49.836C32.2113 49.988 32.5633 50.064 32.9633 50.064C33.3713 50.064 33.7193 49.988 34.0073 49.836C34.3033 49.676 34.5313 49.436 34.6913 49.116C34.8593 48.788 34.9433 48.372 34.9433 47.868V42.6H36.1433V47.856C36.1433 48.608 35.9993 49.228 35.7113 49.716C35.4233 50.196 35.0353 50.556 34.5473 50.796C34.0673 51.028 33.5313 51.144 32.9393 51.144ZM38.1841 51V42.6H39.3841V51H38.1841ZM43.4767 51V43.584H40.9807V42.6H47.1607V43.584H44.6767V51H43.4767ZM50.8713 51V47.88L48.1113 42.6H49.4673L51.5673 46.896H51.3873L53.4873 42.6H54.8313L52.0713 47.88V51H50.8713ZM63.3809 51.144C62.5969 51.144 61.9089 50.964 61.3169 50.604C60.7249 50.244 60.2649 49.74 59.9369 49.092C59.6089 48.444 59.4449 47.688 59.4449 46.824C59.4449 45.968 59.6089 45.212 59.9369 44.556C60.2729 43.9 60.7489 43.388 61.3649 43.02C61.9889 42.644 62.7209 42.456 63.5609 42.456C64.5209 42.456 65.3209 42.688 65.9609 43.152C66.6009 43.608 67.0089 44.244 67.1849 45.06H65.8289C65.7089 44.596 65.4529 44.232 65.0609 43.968C64.6769 43.696 64.1769 43.56 63.5609 43.56C62.9689 43.56 62.4529 43.692 62.0129 43.956C61.5809 44.22 61.2489 44.596 61.0169 45.084C60.7849 45.572 60.6689 46.152 60.6689 46.824C60.6689 47.504 60.7849 48.088 61.0169 48.576C61.2489 49.064 61.5729 49.436 61.9889 49.692C62.4129 49.948 62.9049 50.076 63.4649 50.076C64.3049 50.076 64.9409 49.832 65.3729 49.344C65.8049 48.856 66.0569 48.204 66.1289 47.388H63.8129V46.464H67.3409V51H66.2369L66.1409 49.716C65.9489 50.028 65.7249 50.292 65.4689 50.508C65.2209 50.716 64.9249 50.876 64.5809 50.988C64.2449 51.092 63.8449 51.144 63.3809 51.144ZM69.3044 51V42.6H70.5044V50.052H74.3444V51H69.3044ZM79.0677 51.144C78.2757 51.144 77.5757 50.964 76.9677 50.604C76.3677 50.236 75.8957 49.728 75.5517 49.08C75.2157 48.424 75.0477 47.664 75.0477 46.8C75.0477 45.944 75.2157 45.192 75.5517 44.544C75.8957 43.888 76.3677 43.376 76.9677 43.008C77.5757 42.64 78.2757 42.456 79.0677 42.456C79.8757 42.456 80.5797 42.64 81.1797 43.008C81.7877 43.376 82.2597 43.888 82.5957 44.544C82.9317 45.192 83.0997 45.944 83.0997 46.8C83.0997 47.664 82.9317 48.424 82.5957 49.08C82.2597 49.728 81.7877 50.236 81.1797 50.604C80.5797 50.964 79.8757 51.144 79.0677 51.144ZM79.0677 50.076C79.6357 50.076 80.1277 49.944 80.5437 49.68C80.9677 49.416 81.2957 49.04 81.5277 48.552C81.7597 48.064 81.8757 47.48 81.8757 46.8C81.8757 46.12 81.7597 45.536 81.5277 45.048C81.2957 44.56 80.9677 44.188 80.5437 43.932C80.1277 43.668 79.6357 43.536 79.0677 43.536C78.5077 43.536 78.0157 43.668 77.5917 43.932C77.1757 44.188 76.8517 44.56 76.6197 45.048C76.3877 45.536 76.2717 46.12 76.2717 46.8C76.2717 47.48 76.3877 48.064 76.6197 48.552C76.8517 49.04 77.1757 49.416 77.5917 49.68C78.0157 49.944 78.5077 50.076 79.0677 50.076ZM84.9072 51V42.6H88.0152C88.6072 42.6 89.0992 42.696 89.4912 42.888C89.8832 43.072 90.1752 43.328 90.3672 43.656C90.5672 43.976 90.6672 44.34 90.6672 44.748C90.6672 45.172 90.5712 45.528 90.3792 45.816C90.1952 46.104 89.9512 46.328 89.6472 46.488C89.3512 46.64 89.0312 46.728 88.6872 46.752L88.8672 46.632C89.2352 46.64 89.5672 46.74 89.8632 46.932C90.1672 47.116 90.4072 47.364 90.5832 47.676C90.7672 47.988 90.8592 48.332 90.8592 48.708C90.8592 49.14 90.7512 49.532 90.5352 49.884C90.3272 50.228 90.0192 50.5 89.6112 50.7C89.2112 50.9 88.7152 51 88.1232 51H84.9072ZM86.1072 50.004H87.9672C88.4952 50.004 88.9032 49.884 89.1912 49.644C89.4872 49.396 89.6352 49.048 89.6352 48.6C89.6352 48.16 89.4832 47.808 89.1792 47.544C88.8832 47.28 88.4712 47.148 87.9432 47.148H86.1072V50.004ZM86.1072 46.224H87.8832C88.3872 46.224 88.7712 46.108 89.0352 45.876C89.2992 45.636 89.4312 45.308 89.4312 44.892C89.4312 44.492 89.2992 44.176 89.0352 43.944C88.7712 43.704 88.3792 43.584 87.8592 43.584H86.1072V46.224ZM91.9926 51L95.0886 42.6H96.3966L99.4686 51H98.1966L95.7246 44.04L93.2526 51H91.9926ZM93.3966 48.924L93.7206 47.964H97.6806L98.0046 48.924H93.3966ZM101.049 51V42.6H102.249V50.052H106.089V51H101.049ZM114.08 51.144C113.472 51.144 112.936 51.036 112.472 50.82C112.008 50.596 111.648 50.284 111.392 49.884C111.136 49.484 111.004 49.016 110.996 48.48H112.268C112.268 48.784 112.336 49.064 112.472 49.32C112.616 49.568 112.82 49.768 113.084 49.92C113.356 50.064 113.688 50.136 114.08 50.136C114.416 50.136 114.704 50.08 114.944 49.968C115.192 49.856 115.38 49.704 115.508 49.512C115.636 49.312 115.7 49.084 115.7 48.828C115.7 48.54 115.636 48.304 115.508 48.12C115.38 47.928 115.2 47.768 114.968 47.64C114.744 47.512 114.484 47.4 114.188 47.304C113.9 47.208 113.588 47.104 113.252 46.992C112.572 46.768 112.068 46.484 111.74 46.14C111.42 45.796 111.26 45.348 111.26 44.796C111.26 44.324 111.368 43.916 111.584 43.572C111.808 43.22 112.124 42.948 112.532 42.756C112.94 42.556 113.416 42.456 113.96 42.456C114.512 42.456 114.988 42.556 115.388 42.756C115.796 42.956 116.116 43.232 116.348 43.584C116.58 43.936 116.7 44.348 116.708 44.82H115.436C115.436 44.604 115.376 44.392 115.256 44.184C115.144 43.976 114.976 43.808 114.752 43.68C114.536 43.544 114.264 43.476 113.936 43.476C113.656 43.468 113.408 43.512 113.192 43.608C112.976 43.704 112.808 43.844 112.688 44.028C112.568 44.212 112.508 44.432 112.508 44.688C112.508 44.944 112.564 45.152 112.676 45.312C112.788 45.464 112.944 45.596 113.144 45.708C113.352 45.82 113.596 45.924 113.876 46.02C114.156 46.108 114.464 46.208 114.8 46.32C115.208 46.456 115.576 46.624 115.904 46.824C116.232 47.016 116.488 47.268 116.672 47.58C116.864 47.884 116.96 48.276 116.96 48.756C116.96 49.172 116.852 49.56 116.636 49.92C116.42 50.28 116.1 50.576 115.676 50.808C115.252 51.032 114.72 51.144 114.08 51.144ZM118.77 51V42.6H124.074V43.584H119.97V46.272H123.714V47.232H119.97V50.016H124.074V51H118.77ZM126.009 51V42.6H128.853C129.517 42.6 130.061 42.712 130.485 42.936C130.909 43.16 131.221 43.46 131.421 43.836C131.629 44.204 131.733 44.624 131.733 45.096C131.733 45.544 131.629 45.96 131.421 46.344C131.221 46.72 130.905 47.024 130.473 47.256C130.041 47.48 129.489 47.592 128.817 47.592H127.209V51H126.009ZM130.425 51L128.613 47.268H129.933L131.817 51H130.425ZM127.209 46.68H128.781C129.373 46.68 129.805 46.536 130.077 46.248C130.357 45.952 130.497 45.576 130.497 45.12C130.497 44.656 130.361 44.288 130.089 44.016C129.817 43.744 129.377 43.608 128.769 43.608H127.209V46.68ZM135.825 51L132.693 42.6H133.989L136.545 49.752L139.113 42.6H140.385L137.253 51H135.825ZM141.869 51V42.6H143.069V51H141.869ZM148.854 51.144C148.038 51.144 147.334 50.964 146.742 50.604C146.15 50.236 145.694 49.728 145.374 49.08C145.054 48.424 144.894 47.664 144.894 46.8C144.894 45.944 145.054 45.188 145.374 44.532C145.694 43.876 146.15 43.368 146.742 43.008C147.334 42.64 148.038 42.456 148.854 42.456C149.83 42.456 150.622 42.692 151.23 43.164C151.838 43.636 152.226 44.3 152.394 45.156H151.086C150.958 44.66 150.71 44.264 150.342 43.968C149.974 43.672 149.474 43.524 148.842 43.524C148.29 43.524 147.806 43.656 147.39 43.92C146.982 44.184 146.666 44.56 146.442 45.048C146.226 45.536 146.118 46.12 146.118 46.8C146.118 47.48 146.226 48.068 146.442 48.564C146.666 49.052 146.982 49.428 147.39 49.692C147.806 49.948 148.29 50.076 148.842 50.076C149.474 50.076 149.974 49.936 150.342 49.656C150.71 49.368 150.958 48.98 151.086 48.492H152.394C152.226 49.324 151.838 49.976 151.23 50.448C150.622 50.912 149.83 51.144 148.854 51.144ZM154.214 51V42.6H159.518V43.584H155.414V46.272H159.158V47.232H155.414V50.016H159.518V51H154.214ZM164.201 51.144C163.593 51.144 163.057 51.036 162.593 50.82C162.129 50.596 161.769 50.284 161.513 49.884C161.257 49.484 161.125 49.016 161.117 48.48H162.389C162.389 48.784 162.457 49.064 162.593 49.32C162.737 49.568 162.941 49.768 163.205 49.92C163.477 50.064 163.809 50.136 164.201 50.136C164.537 50.136 164.825 50.08 165.065 49.968C165.313 49.856 165.501 49.704 165.629 49.512C165.757 49.312 165.821 49.084 165.821 48.828C165.821 48.54 165.757 48.304 165.629 48.12C165.501 47.928 165.321 47.768 165.089 47.64C164.865 47.512 164.605 47.4 164.309 47.304C164.021 47.208 163.709 47.104 163.373 46.992C162.693 46.768 162.189 46.484 161.861 46.14C161.541 45.796 161.381 45.348 161.381 44.796C161.381 44.324 161.489 43.916 161.705 43.572C161.929 43.22 162.245 42.948 162.653 42.756C163.061 42.556 163.537 42.456 164.081 42.456C164.633 42.456 165.109 42.556 165.509 42.756C165.917 42.956 166.237 43.232 166.469 43.584C166.701 43.936 166.821 44.348 166.829 44.82H165.557C165.557 44.604 165.497 44.392 165.377 44.184C165.265 43.976 165.097 43.808 164.873 43.68C164.657 43.544 164.385 43.476 164.057 43.476C163.777 43.468 163.529 43.512 163.313 43.608C163.097 43.704 162.929 43.844 162.809 44.028C162.689 44.212 162.629 44.432 162.629 44.688C162.629 44.944 162.685 45.152 162.797 45.312C162.909 45.464 163.065 45.596 163.265 45.708C163.473 45.82 163.717 45.924 163.997 46.02C164.277 46.108 164.585 46.208 164.921 46.32C165.329 46.456 165.697 46.624 166.025 46.824C166.353 47.016 166.609 47.268 166.793 47.58C166.985 47.884 167.081 48.276 167.081 48.756C167.081 49.172 166.973 49.56 166.757 49.92C166.541 50.28 166.221 50.576 165.797 50.808C165.373 51.032 164.841 51.144 164.201 51.144Z" fill="#999999"/>
</svg>
