<svg width="116" height="26" viewBox="0 0 116 26" fill="none" xmlns="http://www.w3.org/2000/svg">
<rect width="116" height="26" rx="13" fill="#DFF314"/>
<path d="M42.5374 17V16.136C43.1054 15.704 43.6414 15.268 44.1454 14.828C44.6574 14.388 45.1134 13.952 45.5134 13.52C45.9134 13.08 46.2254 12.652 46.4494 12.236C46.6814 11.812 46.7974 11.408 46.7974 11.024C46.7974 10.752 46.7454 10.5 46.6414 10.268C46.5454 10.036 46.3894 9.848 46.1734 9.704C45.9654 9.552 45.6814 9.476 45.3214 9.476C44.9694 9.476 44.6774 9.552 44.4454 9.704C44.2134 9.856 44.0374 10.06 43.9174 10.316C43.8054 10.564 43.7494 10.84 43.7494 11.144H42.5854C42.5934 10.568 42.7174 10.08 42.9574 9.68C43.1974 9.28 43.5254 8.976 43.9414 8.768C44.3574 8.56 44.8254 8.456 45.3454 8.456C45.8814 8.456 46.3454 8.556 46.7374 8.756C47.1294 8.948 47.4374 9.232 47.6614 9.608C47.8854 9.984 47.9974 10.436 47.9974 10.964C47.9974 11.348 47.9174 11.732 47.7574 12.116C47.6054 12.492 47.3974 12.86 47.1334 13.22C46.8694 13.58 46.5734 13.928 46.2454 14.264C45.9254 14.592 45.5934 14.904 45.2494 15.2C44.9054 15.496 44.5774 15.764 44.2654 16.004H48.2494V17H42.5374ZM53.148 17.144C52.42 17.144 51.792 16.964 51.264 16.604C50.744 16.236 50.344 15.728 50.064 15.08C49.784 14.424 49.644 13.664 49.644 12.8C49.644 11.936 49.784 11.18 50.064 10.532C50.344 9.876 50.744 9.368 51.264 9.008C51.792 8.64 52.42 8.456 53.148 8.456C53.884 8.456 54.508 8.64 55.02 9.008C55.54 9.368 55.94 9.876 56.22 10.532C56.508 11.18 56.652 11.936 56.652 12.8C56.652 13.664 56.508 14.424 56.22 15.08C55.94 15.728 55.54 16.236 55.02 16.604C54.508 16.964 53.884 17.144 53.148 17.144ZM53.148 16.076C53.588 16.076 53.976 15.944 54.312 15.68C54.656 15.416 54.924 15.04 55.116 14.552C55.316 14.064 55.416 13.48 55.416 12.8C55.416 12.112 55.316 11.528 55.116 11.048C54.924 10.56 54.656 10.188 54.312 9.932C53.976 9.668 53.588 9.536 53.148 9.536C52.708 9.536 52.316 9.668 51.972 9.932C51.628 10.188 51.356 10.56 51.156 11.048C50.964 11.528 50.868 12.112 50.868 12.8C50.868 13.48 50.964 14.064 51.156 14.552C51.356 15.04 51.628 15.416 51.972 15.68C52.316 15.944 52.708 16.076 53.148 16.076ZM58.1988 17V16.136C58.7668 15.704 59.3028 15.268 59.8068 14.828C60.3188 14.388 60.7748 13.952 61.1748 13.52C61.5748 13.08 61.8868 12.652 62.1108 12.236C62.3428 11.812 62.4588 11.408 62.4588 11.024C62.4588 10.752 62.4068 10.5 62.3028 10.268C62.2068 10.036 62.0508 9.848 61.8348 9.704C61.6268 9.552 61.3428 9.476 60.9828 9.476C60.6308 9.476 60.3388 9.552 60.1068 9.704C59.8748 9.856 59.6988 10.06 59.5788 10.316C59.4668 10.564 59.4108 10.84 59.4108 11.144H58.2468C58.2548 10.568 58.3788 10.08 58.6188 9.68C58.8588 9.28 59.1868 8.976 59.6028 8.768C60.0188 8.56 60.4868 8.456 61.0068 8.456C61.5428 8.456 62.0068 8.556 62.3988 8.756C62.7908 8.948 63.0988 9.232 63.3228 9.608C63.5468 9.984 63.6588 10.436 63.6588 10.964C63.6588 11.348 63.5788 11.732 63.4188 12.116C63.2668 12.492 63.0588 12.86 62.7948 13.22C62.5308 13.58 62.2348 13.928 61.9068 14.264C61.5868 14.592 61.2548 14.904 60.9108 15.2C60.5668 15.496 60.2388 15.764 59.9268 16.004H63.9108V17H58.1988ZM68.5792 17.144C67.9952 17.144 67.4912 17.04 67.0672 16.832C66.6432 16.624 66.3112 16.344 66.0712 15.992C65.8312 15.632 65.6832 15.224 65.6272 14.768H66.8032C66.8832 15.16 67.0752 15.484 67.3792 15.74C67.6912 15.996 68.0952 16.124 68.5912 16.124C68.9512 16.124 69.2592 16.04 69.5152 15.872C69.7792 15.696 69.9792 15.46 70.1152 15.164C70.2592 14.868 70.3312 14.54 70.3312 14.18C70.3312 13.804 70.2592 13.476 70.1152 13.196C69.9792 12.908 69.7832 12.688 69.5272 12.536C69.2712 12.376 68.9712 12.296 68.6272 12.296C68.2112 12.296 67.8552 12.384 67.5592 12.56C67.2712 12.736 67.0552 12.956 66.9112 13.22H65.7472L66.4192 8.6H70.9672V9.644H67.3312L66.9112 12.02C67.1032 11.804 67.3592 11.632 67.6792 11.504C68.0072 11.368 68.3792 11.3 68.7952 11.3C69.2192 11.3 69.5952 11.376 69.9232 11.528C70.2592 11.672 70.5432 11.876 70.7752 12.14C71.0072 12.404 71.1832 12.708 71.3032 13.052C71.4312 13.396 71.4952 13.764 71.4952 14.156C71.4952 14.572 71.4272 14.964 71.2912 15.332C71.1552 15.692 70.9592 16.008 70.7032 16.28C70.4552 16.552 70.1512 16.764 69.7912 16.916C69.4312 17.068 69.0272 17.144 68.5792 17.144Z" fill="#181818"/>
</svg>
