<svg width="800" height="80" viewBox="0 0 800 80" fill="none" xmlns="http://www.w3.org/2000/svg">
<line x1="65" y1="79.25" x2="800" y2="79.2501" stroke="#333333" stroke-width="1.5"/>
<path d="M789.282 18L789.282 18.2594C789.282 23.6577 793.924 27.9964 799.589 27.9964" stroke="#999999" stroke-width="1.5" stroke-miterlimit="10"/>
<path d="M789.282 37.9997L789.282 37.7403C789.282 32.3421 793.924 27.9961 799.589 27.9961" stroke="#999999" stroke-width="1.5" stroke-miterlimit="10"/>
<path d="M774 28L799.589 28Z" fill="white"/>
<path d="M774 28L799.589 28" stroke="#999999" stroke-width="1.5" stroke-miterlimit="10"/>
<path d="M257.828 9.71L252.086 25H249.182L243.418 9.71H246.102L250.634 22.426L255.188 9.71H257.828ZM260.981 11.272C260.527 11.272 260.145 11.118 259.837 10.81C259.529 10.502 259.375 10.1207 259.375 9.666C259.375 9.21133 259.529 8.83 259.837 8.522C260.145 8.214 260.527 8.06 260.981 8.06C261.421 8.06 261.795 8.214 262.103 8.522C262.411 8.83 262.565 9.21133 262.565 9.666C262.565 10.1207 262.411 10.502 262.103 10.81C261.795 11.118 261.421 11.272 260.981 11.272ZM262.213 12.878V25H259.705V12.878H262.213ZM264.45 18.884C264.45 17.6667 264.7 16.5887 265.198 15.65C265.712 14.7113 266.401 13.9853 267.266 13.472C268.146 12.944 269.122 12.68 270.192 12.68C270.984 12.68 271.762 12.856 272.524 13.208C273.302 13.5453 273.918 14 274.372 14.572V8.72H276.902V25H274.372V23.174C273.962 23.7607 273.39 24.2447 272.656 24.626C271.938 25.0073 271.109 25.198 270.17 25.198C269.114 25.198 268.146 24.934 267.266 24.406C266.401 23.8633 265.712 23.1153 265.198 22.162C264.7 21.194 264.45 20.1013 264.45 18.884ZM274.372 18.928C274.372 18.092 274.196 17.366 273.844 16.75C273.507 16.134 273.06 15.6647 272.502 15.342C271.945 15.0193 271.344 14.858 270.698 14.858C270.053 14.858 269.452 15.0193 268.894 15.342C268.337 15.65 267.882 16.112 267.53 16.728C267.193 17.3293 267.024 18.048 267.024 18.884C267.024 19.72 267.193 20.4533 267.53 21.084C267.882 21.7147 268.337 22.1987 268.894 22.536C269.466 22.8587 270.068 23.02 270.698 23.02C271.344 23.02 271.945 22.8587 272.502 22.536C273.06 22.2133 273.507 21.744 273.844 21.128C274.196 20.4973 274.372 19.764 274.372 18.928ZM291.086 18.642C291.086 19.0967 291.057 19.5073 290.998 19.874H281.736C281.81 20.842 282.169 21.6193 282.814 22.206C283.46 22.7927 284.252 23.086 285.19 23.086C286.54 23.086 287.493 22.5213 288.05 21.392H290.756C290.39 22.5067 289.722 23.4233 288.754 24.142C287.801 24.846 286.613 25.198 285.19 25.198C284.032 25.198 282.99 24.9413 282.066 24.428C281.157 23.9 280.438 23.1667 279.91 22.228C279.397 21.2747 279.14 20.1747 279.14 18.928C279.14 17.6813 279.39 16.5887 279.888 15.65C280.402 14.6967 281.113 13.9633 282.022 13.45C282.946 12.9367 284.002 12.68 285.19 12.68C286.334 12.68 287.354 12.9293 288.248 13.428C289.143 13.9267 289.84 14.6307 290.338 15.54C290.837 16.4347 291.086 17.4687 291.086 18.642ZM288.468 17.85C288.454 16.926 288.124 16.1853 287.478 15.628C286.833 15.0707 286.034 14.792 285.08 14.792C284.215 14.792 283.474 15.0707 282.858 15.628C282.242 16.1707 281.876 16.9113 281.758 17.85H288.468ZM298.592 25.198C297.448 25.198 296.414 24.9413 295.49 24.428C294.566 23.9 293.84 23.1667 293.312 22.228C292.784 21.2747 292.52 20.1747 292.52 18.928C292.52 17.696 292.792 16.6033 293.334 15.65C293.877 14.6967 294.618 13.9633 295.556 13.45C296.495 12.9367 297.544 12.68 298.702 12.68C299.861 12.68 300.91 12.9367 301.848 13.45C302.787 13.9633 303.528 14.6967 304.07 15.65C304.613 16.6033 304.884 17.696 304.884 18.928C304.884 20.16 304.606 21.2527 304.048 22.206C303.491 23.1593 302.728 23.9 301.76 24.428C300.807 24.9413 299.751 25.198 298.592 25.198ZM298.592 23.02C299.238 23.02 299.839 22.866 300.396 22.558C300.968 22.25 301.43 21.788 301.782 21.172C302.134 20.556 302.31 19.808 302.31 18.928C302.31 18.048 302.142 17.3073 301.804 16.706C301.467 16.09 301.02 15.628 300.462 15.32C299.905 15.012 299.304 14.858 298.658 14.858C298.013 14.858 297.412 15.012 296.854 15.32C296.312 15.628 295.879 16.09 295.556 16.706C295.234 17.3073 295.072 18.048 295.072 18.928C295.072 20.2333 295.402 21.2453 296.062 21.964C296.737 22.668 297.58 23.02 298.592 23.02ZM315.147 11.734V16.222H320.427V18.268H315.147V22.954H321.087V25H312.639V9.688H321.087V11.734H315.147ZM323.12 18.884C323.12 17.6667 323.369 16.5887 323.868 15.65C324.381 14.7113 325.07 13.9853 325.936 13.472C326.816 12.944 327.791 12.68 328.862 12.68C329.654 12.68 330.431 12.856 331.194 13.208C331.971 13.5453 332.587 14 333.042 14.572V8.72H335.572V25H333.042V23.174C332.631 23.7607 332.059 24.2447 331.326 24.626C330.607 25.0073 329.778 25.198 328.84 25.198C327.784 25.198 326.816 24.934 325.936 24.406C325.07 23.8633 324.381 23.1153 323.868 22.162C323.369 21.194 323.12 20.1013 323.12 18.884ZM333.042 18.928C333.042 18.092 332.866 17.366 332.514 16.75C332.176 16.134 331.729 15.6647 331.172 15.342C330.614 15.0193 330.013 14.858 329.368 14.858C328.722 14.858 328.121 15.0193 327.564 15.342C327.006 15.65 326.552 16.112 326.2 16.728C325.862 17.3293 325.694 18.048 325.694 18.884C325.694 19.72 325.862 20.4533 326.2 21.084C326.552 21.7147 327.006 22.1987 327.564 22.536C328.136 22.8587 328.737 23.02 329.368 23.02C330.013 23.02 330.614 22.8587 331.172 22.536C331.729 22.2133 332.176 21.744 332.514 21.128C332.866 20.4973 333.042 19.764 333.042 18.928ZM339.922 11.272C339.467 11.272 339.086 11.118 338.778 10.81C338.47 10.502 338.316 10.1207 338.316 9.666C338.316 9.21133 338.47 8.83 338.778 8.522C339.086 8.214 339.467 8.06 339.922 8.06C340.362 8.06 340.736 8.214 341.044 8.522C341.352 8.83 341.506 9.21133 341.506 9.666C341.506 10.1207 341.352 10.502 341.044 10.81C340.736 11.118 340.362 11.272 339.922 11.272ZM341.154 12.878V25H338.646V12.878H341.154ZM347.153 14.924V21.634C347.153 22.0887 347.255 22.4187 347.461 22.624C347.681 22.8147 348.047 22.91 348.561 22.91H350.101V25H348.121C346.991 25 346.126 24.736 345.525 24.208C344.923 23.68 344.623 22.822 344.623 21.634V14.924H343.193V12.878H344.623V9.864H347.153V12.878H350.101V14.924H347.153ZM357.45 25.198C356.306 25.198 355.272 24.9413 354.348 24.428C353.424 23.9 352.698 23.1667 352.17 22.228C351.642 21.2747 351.378 20.1747 351.378 18.928C351.378 17.696 351.65 16.6033 352.192 15.65C352.735 14.6967 353.476 13.9633 354.414 13.45C355.353 12.9367 356.402 12.68 357.56 12.68C358.719 12.68 359.768 12.9367 360.706 13.45C361.645 13.9633 362.386 14.6967 362.928 15.65C363.471 16.6033 363.742 17.696 363.742 18.928C363.742 20.16 363.464 21.2527 362.906 22.206C362.349 23.1593 361.586 23.9 360.618 24.428C359.665 24.9413 358.609 25.198 357.45 25.198ZM357.45 23.02C358.096 23.02 358.697 22.866 359.254 22.558C359.826 22.25 360.288 21.788 360.64 21.172C360.992 20.556 361.168 19.808 361.168 18.928C361.168 18.048 361 17.3073 360.662 16.706C360.325 16.09 359.878 15.628 359.32 15.32C358.763 15.012 358.162 14.858 357.516 14.858C356.871 14.858 356.27 15.012 355.712 15.32C355.17 15.628 354.737 16.09 354.414 16.706C354.092 17.3073 353.93 18.048 353.93 18.928C353.93 20.2333 354.26 21.2453 354.92 21.964C355.595 22.668 356.438 23.02 357.45 23.02ZM368.509 14.638C368.876 14.022 369.36 13.5453 369.961 13.208C370.577 12.856 371.303 12.68 372.139 12.68V15.276H371.501C370.519 15.276 369.771 15.5253 369.257 16.024C368.759 16.5227 368.509 17.388 368.509 18.62V25H366.001V12.878H368.509V14.638Z" fill="white"/>
<path d="M247.536 51.144C246.72 51.144 246.016 50.964 245.424 50.604C244.832 50.236 244.376 49.728 244.056 49.08C243.736 48.424 243.576 47.664 243.576 46.8C243.576 45.944 243.736 45.188 244.056 44.532C244.376 43.876 244.832 43.368 245.424 43.008C246.016 42.64 246.72 42.456 247.536 42.456C248.512 42.456 249.304 42.692 249.912 43.164C250.52 43.636 250.908 44.3 251.076 45.156H249.768C249.64 44.66 249.392 44.264 249.024 43.968C248.656 43.672 248.156 43.524 247.524 43.524C246.972 43.524 246.488 43.656 246.072 43.92C245.664 44.184 245.348 44.56 245.124 45.048C244.908 45.536 244.8 46.12 244.8 46.8C244.8 47.48 244.908 48.068 245.124 48.564C245.348 49.052 245.664 49.428 246.072 49.692C246.488 49.948 246.972 50.076 247.524 50.076C248.156 50.076 248.656 49.936 249.024 49.656C249.392 49.368 249.64 48.98 249.768 48.492H251.076C250.908 49.324 250.52 49.976 249.912 50.448C249.304 50.912 248.512 51.144 247.536 51.144ZM256.604 51.144C255.812 51.144 255.112 50.964 254.504 50.604C253.904 50.236 253.432 49.728 253.088 49.08C252.752 48.424 252.584 47.664 252.584 46.8C252.584 45.944 252.752 45.192 253.088 44.544C253.432 43.888 253.904 43.376 254.504 43.008C255.112 42.64 255.812 42.456 256.604 42.456C257.412 42.456 258.116 42.64 258.716 43.008C259.324 43.376 259.796 43.888 260.132 44.544C260.468 45.192 260.636 45.944 260.636 46.8C260.636 47.664 260.468 48.424 260.132 49.08C259.796 49.728 259.324 50.236 258.716 50.604C258.116 50.964 257.412 51.144 256.604 51.144ZM256.604 50.076C257.172 50.076 257.664 49.944 258.08 49.68C258.504 49.416 258.832 49.04 259.064 48.552C259.296 48.064 259.412 47.48 259.412 46.8C259.412 46.12 259.296 45.536 259.064 45.048C258.832 44.56 258.504 44.188 258.08 43.932C257.664 43.668 257.172 43.536 256.604 43.536C256.044 43.536 255.552 43.668 255.128 43.932C254.712 44.188 254.388 44.56 254.156 45.048C253.924 45.536 253.808 46.12 253.808 46.8C253.808 47.48 253.924 48.064 254.156 48.552C254.388 49.04 254.712 49.416 255.128 49.68C255.552 49.944 256.044 50.076 256.604 50.076ZM261.318 51L264.414 42.6H265.722L268.794 51H267.522L265.05 44.04L262.578 51H261.318ZM262.722 48.924L263.046 47.964H267.006L267.33 48.924H262.722ZM273.542 51.144C272.726 51.144 272.022 50.964 271.43 50.604C270.838 50.236 270.382 49.728 270.062 49.08C269.742 48.424 269.582 47.664 269.582 46.8C269.582 45.944 269.742 45.188 270.062 44.532C270.382 43.876 270.838 43.368 271.43 43.008C272.022 42.64 272.726 42.456 273.542 42.456C274.518 42.456 275.31 42.692 275.918 43.164C276.526 43.636 276.914 44.3 277.082 45.156H275.774C275.646 44.66 275.398 44.264 275.03 43.968C274.662 43.672 274.162 43.524 273.53 43.524C272.978 43.524 272.494 43.656 272.078 43.92C271.67 44.184 271.354 44.56 271.13 45.048C270.914 45.536 270.806 46.12 270.806 46.8C270.806 47.48 270.914 48.068 271.13 48.564C271.354 49.052 271.67 49.428 272.078 49.692C272.494 49.948 272.978 50.076 273.53 50.076C274.162 50.076 274.662 49.936 275.03 49.656C275.398 49.368 275.646 48.98 275.774 48.492H277.082C276.914 49.324 276.526 49.976 275.918 50.448C275.31 50.912 274.518 51.144 273.542 51.144ZM284.242 51V42.6H285.442V51H284.242ZM278.902 51V42.6H280.102V51H278.902ZM279.898 47.208V46.224H284.506V47.208H279.898ZM289.539 51V43.584H287.043V42.6H293.223V43.584H290.739V51H289.539ZM297.917 51.144C297.325 51.144 296.789 51.028 296.309 50.796C295.829 50.556 295.445 50.196 295.157 49.716C294.877 49.228 294.737 48.608 294.737 47.856V42.6H295.937V47.868C295.937 48.372 296.021 48.788 296.189 49.116C296.357 49.436 296.589 49.676 296.885 49.836C297.189 49.988 297.541 50.064 297.941 50.064C298.349 50.064 298.697 49.988 298.985 49.836C299.281 49.676 299.509 49.436 299.669 49.116C299.837 48.788 299.921 48.372 299.921 47.868V42.6H301.121V47.856C301.121 48.608 300.977 49.228 300.689 49.716C300.401 50.196 300.013 50.556 299.525 50.796C299.045 51.028 298.509 51.144 297.917 51.144ZM303.162 51V42.6H306.27C306.862 42.6 307.354 42.696 307.746 42.888C308.138 43.072 308.43 43.328 308.622 43.656C308.822 43.976 308.922 44.34 308.922 44.748C308.922 45.172 308.826 45.528 308.634 45.816C308.45 46.104 308.206 46.328 307.902 46.488C307.606 46.64 307.286 46.728 306.942 46.752L307.122 46.632C307.49 46.64 307.822 46.74 308.118 46.932C308.422 47.116 308.662 47.364 308.838 47.676C309.022 47.988 309.114 48.332 309.114 48.708C309.114 49.14 309.006 49.532 308.79 49.884C308.582 50.228 308.274 50.5 307.866 50.7C307.466 50.9 306.97 51 306.378 51H303.162ZM304.362 50.004H306.222C306.75 50.004 307.158 49.884 307.446 49.644C307.742 49.396 307.89 49.048 307.89 48.6C307.89 48.16 307.738 47.808 307.434 47.544C307.138 47.28 306.726 47.148 306.198 47.148H304.362V50.004ZM304.362 46.224H306.138C306.642 46.224 307.026 46.108 307.29 45.876C307.554 45.636 307.686 45.308 307.686 44.892C307.686 44.492 307.554 44.176 307.29 43.944C307.026 43.704 306.634 43.584 306.114 43.584H304.362V46.224ZM310.916 51V42.6H316.22V43.584H312.116V46.272H315.86V47.232H312.116V50.016H316.22V51H310.916Z" fill="white"/>
<rect x="65" y="12" width="115" height="26" rx="13" fill="#DFF314"/>
<path d="M77.72 29V28.136C78.288 27.704 78.824 27.268 79.328 26.828C79.84 26.388 80.296 25.952 80.696 25.52C81.096 25.08 81.408 24.652 81.632 24.236C81.864 23.812 81.98 23.408 81.98 23.024C81.98 22.752 81.928 22.5 81.824 22.268C81.728 22.036 81.572 21.848 81.356 21.704C81.148 21.552 80.864 21.476 80.504 21.476C80.152 21.476 79.86 21.552 79.628 21.704C79.396 21.856 79.22 22.06 79.1 22.316C78.988 22.564 78.932 22.84 78.932 23.144H77.768C77.776 22.568 77.9 22.08 78.14 21.68C78.38 21.28 78.708 20.976 79.124 20.768C79.54 20.56 80.008 20.456 80.528 20.456C81.064 20.456 81.528 20.556 81.92 20.756C82.312 20.948 82.62 21.232 82.844 21.608C83.068 21.984 83.18 22.436 83.18 22.964C83.18 23.348 83.1 23.732 82.94 24.116C82.788 24.492 82.58 24.86 82.316 25.22C82.052 25.58 81.756 25.928 81.428 26.264C81.108 26.592 80.776 26.904 80.432 27.2C80.088 27.496 79.76 27.764 79.448 28.004H83.432V29H77.72ZM88.3306 29.144C87.6026 29.144 86.9746 28.964 86.4466 28.604C85.9266 28.236 85.5266 27.728 85.2466 27.08C84.9666 26.424 84.8266 25.664 84.8266 24.8C84.8266 23.936 84.9666 23.18 85.2466 22.532C85.5266 21.876 85.9266 21.368 86.4466 21.008C86.9746 20.64 87.6026 20.456 88.3306 20.456C89.0666 20.456 89.6906 20.64 90.2026 21.008C90.7226 21.368 91.1226 21.876 91.4026 22.532C91.6906 23.18 91.8346 23.936 91.8346 24.8C91.8346 25.664 91.6906 26.424 91.4026 27.08C91.1226 27.728 90.7226 28.236 90.2026 28.604C89.6906 28.964 89.0666 29.144 88.3306 29.144ZM88.3306 28.076C88.7706 28.076 89.1586 27.944 89.4946 27.68C89.8386 27.416 90.1066 27.04 90.2986 26.552C90.4986 26.064 90.5986 25.48 90.5986 24.8C90.5986 24.112 90.4986 23.528 90.2986 23.048C90.1066 22.56 89.8386 22.188 89.4946 21.932C89.1586 21.668 88.7706 21.536 88.3306 21.536C87.8906 21.536 87.4986 21.668 87.1546 21.932C86.8106 22.188 86.5386 22.56 86.3386 23.048C86.1466 23.528 86.0506 24.112 86.0506 24.8C86.0506 25.48 86.1466 26.064 86.3386 26.552C86.5386 27.04 86.8106 27.416 87.1546 27.68C87.4986 27.944 87.8906 28.076 88.3306 28.076ZM93.3814 29V28.136C93.9494 27.704 94.4854 27.268 94.9894 26.828C95.5014 26.388 95.9574 25.952 96.3574 25.52C96.7574 25.08 97.0694 24.652 97.2934 24.236C97.5254 23.812 97.6414 23.408 97.6414 23.024C97.6414 22.752 97.5894 22.5 97.4854 22.268C97.3894 22.036 97.2334 21.848 97.0174 21.704C96.8094 21.552 96.5254 21.476 96.1654 21.476C95.8134 21.476 95.5214 21.552 95.2894 21.704C95.0574 21.856 94.8814 22.06 94.7614 22.316C94.6494 22.564 94.5934 22.84 94.5934 23.144H93.4294C93.4374 22.568 93.5614 22.08 93.8014 21.68C94.0414 21.28 94.3694 20.976 94.7854 20.768C95.2014 20.56 95.6694 20.456 96.1894 20.456C96.7254 20.456 97.1894 20.556 97.5814 20.756C97.9734 20.948 98.2814 21.232 98.5054 21.608C98.7294 21.984 98.8414 22.436 98.8414 22.964C98.8414 23.348 98.7614 23.732 98.6014 24.116C98.4494 24.492 98.2414 24.86 97.9774 25.22C97.7134 25.58 97.4174 25.928 97.0894 26.264C96.7694 26.592 96.4374 26.904 96.0934 27.2C95.7494 27.496 95.4214 27.764 95.1094 28.004H99.0934V29H93.3814ZM104.558 29V27.284H100.334V26.348L104.366 20.6H105.746V26.24H106.946V27.284H105.746V29H104.558ZM101.642 26.24H104.618V21.92L101.642 26.24ZM108.578 25.892V24.884H113.426V25.892H108.578ZM115.547 29V20.6H118.403C119.075 20.6 119.627 20.712 120.059 20.936C120.499 21.16 120.823 21.464 121.031 21.848C121.239 22.224 121.343 22.656 121.343 23.144C121.343 23.608 121.239 24.032 121.031 24.416C120.823 24.8 120.503 25.108 120.071 25.34C119.639 25.564 119.083 25.676 118.403 25.676H116.747V29H115.547ZM116.747 24.68H118.355C118.995 24.68 119.447 24.54 119.711 24.26C119.983 23.98 120.119 23.608 120.119 23.144C120.119 22.656 119.983 22.276 119.711 22.004C119.447 21.732 118.995 21.596 118.355 21.596H116.747V24.68ZM123.021 29V20.6H125.865C126.529 20.6 127.073 20.712 127.497 20.936C127.921 21.16 128.233 21.46 128.433 21.836C128.641 22.204 128.745 22.624 128.745 23.096C128.745 23.544 128.641 23.96 128.433 24.344C128.233 24.72 127.917 25.024 127.485 25.256C127.053 25.48 126.501 25.592 125.829 25.592H124.221V29H123.021ZM127.437 29L125.625 25.268H126.945L128.829 29H127.437ZM124.221 24.68H125.793C126.385 24.68 126.817 24.536 127.089 24.248C127.369 23.952 127.509 23.576 127.509 23.12C127.509 22.656 127.373 22.288 127.101 22.016C126.829 21.744 126.389 21.608 125.781 21.608H124.221V24.68ZM130.681 29V20.6H135.985V21.584H131.881V24.272H135.625V25.232H131.881V28.016H135.985V29H130.681ZM140.668 29.144C140.06 29.144 139.524 29.036 139.06 28.82C138.596 28.596 138.236 28.284 137.98 27.884C137.724 27.484 137.592 27.016 137.584 26.48H138.856C138.856 26.784 138.924 27.064 139.06 27.32C139.204 27.568 139.408 27.768 139.672 27.92C139.944 28.064 140.276 28.136 140.668 28.136C141.004 28.136 141.292 28.08 141.532 27.968C141.78 27.856 141.968 27.704 142.096 27.512C142.224 27.312 142.288 27.084 142.288 26.828C142.288 26.54 142.224 26.304 142.096 26.12C141.968 25.928 141.788 25.768 141.556 25.64C141.332 25.512 141.072 25.4 140.776 25.304C140.488 25.208 140.176 25.104 139.84 24.992C139.16 24.768 138.656 24.484 138.328 24.14C138.008 23.796 137.848 23.348 137.848 22.796C137.848 22.324 137.956 21.916 138.172 21.572C138.396 21.22 138.712 20.948 139.12 20.756C139.528 20.556 140.004 20.456 140.548 20.456C141.1 20.456 141.576 20.556 141.976 20.756C142.384 20.956 142.704 21.232 142.936 21.584C143.168 21.936 143.288 22.348 143.296 22.82H142.024C142.024 22.604 141.964 22.392 141.844 22.184C141.732 21.976 141.564 21.808 141.34 21.68C141.124 21.544 140.852 21.476 140.524 21.476C140.244 21.468 139.996 21.512 139.78 21.608C139.564 21.704 139.396 21.844 139.276 22.028C139.156 22.212 139.096 22.432 139.096 22.688C139.096 22.944 139.152 23.152 139.264 23.312C139.376 23.464 139.532 23.596 139.732 23.708C139.94 23.82 140.184 23.924 140.464 24.02C140.744 24.108 141.052 24.208 141.388 24.32C141.796 24.456 142.164 24.624 142.492 24.824C142.82 25.016 143.076 25.268 143.26 25.58C143.452 25.884 143.548 26.276 143.548 26.756C143.548 27.172 143.44 27.56 143.224 27.92C143.008 28.28 142.688 28.576 142.264 28.808C141.84 29.032 141.308 29.144 140.668 29.144ZM145.358 29V20.6H150.662V21.584H146.558V24.272H150.302V25.232H146.558V28.016H150.662V29H145.358ZM152.597 29V20.6H153.797L158.081 27.044V20.6H159.281V29H158.081L153.797 22.556V29H152.597ZM163.374 29V21.584H160.878V20.6H167.058V21.584H164.574V29H163.374Z" fill="#181818"/>
</svg>
