<svg width="130" height="55" viewBox="0 0 130 55" fill="none" xmlns="http://www.w3.org/2000/svg">
<path d="M14.828 9.71L9.086 25H6.182L0.418 9.71H3.102L7.634 22.426L12.188 9.71H14.828ZM17.9814 11.272C17.5267 11.272 17.1454 11.118 16.8374 10.81C16.5294 10.502 16.3754 10.1207 16.3754 9.666C16.3754 9.21133 16.5294 8.83 16.8374 8.522C17.1454 8.214 17.5267 8.06 17.9814 8.06C18.4214 8.06 18.7954 8.214 19.1034 8.522C19.4114 8.83 19.5654 9.21133 19.5654 9.666C19.5654 10.1207 19.4114 10.502 19.1034 10.81C18.7954 11.118 18.4214 11.272 17.9814 11.272ZM19.2134 12.878V25H16.7054V12.878H19.2134ZM21.4502 18.884C21.4502 17.6667 21.6995 16.5887 22.1982 15.65C22.7115 14.7113 23.4008 13.9853 24.2662 13.472C25.1462 12.944 26.1215 12.68 27.1922 12.68C27.9842 12.68 28.7615 12.856 29.5242 13.208C30.3015 13.5453 30.9175 14 31.3722 14.572V8.72H33.9022V25H31.3722V23.174C30.9615 23.7607 30.3895 24.2447 29.6562 24.626C28.9375 25.0073 28.1088 25.198 27.1702 25.198C26.1142 25.198 25.1462 24.934 24.2662 24.406C23.4008 23.8633 22.7115 23.1153 22.1982 22.162C21.6995 21.194 21.4502 20.1013 21.4502 18.884ZM31.3722 18.928C31.3722 18.092 31.1962 17.366 30.8442 16.75C30.5068 16.134 30.0595 15.6647 29.5022 15.342C28.9448 15.0193 28.3435 14.858 27.6982 14.858C27.0528 14.858 26.4515 15.0193 25.8942 15.342C25.3368 15.65 24.8822 16.112 24.5302 16.728C24.1928 17.3293 24.0242 18.048 24.0242 18.884C24.0242 19.72 24.1928 20.4533 24.5302 21.084C24.8822 21.7147 25.3368 22.1987 25.8942 22.536C26.4662 22.8587 27.0675 23.02 27.6982 23.02C28.3435 23.02 28.9448 22.8587 29.5022 22.536C30.0595 22.2133 30.5068 21.744 30.8442 21.128C31.1962 20.4973 31.3722 19.764 31.3722 18.928ZM48.0863 18.642C48.0863 19.0967 48.057 19.5073 47.9983 19.874H38.7363C38.8097 20.842 39.169 21.6193 39.8143 22.206C40.4597 22.7927 41.2517 23.086 42.1903 23.086C43.5397 23.086 44.493 22.5213 45.0503 21.392H47.7563C47.3897 22.5067 46.7223 23.4233 45.7543 24.142C44.801 24.846 43.613 25.198 42.1903 25.198C41.0317 25.198 39.9903 24.9413 39.0663 24.428C38.157 23.9 37.4383 23.1667 36.9103 22.228C36.397 21.2747 36.1403 20.1747 36.1403 18.928C36.1403 17.6813 36.3897 16.5887 36.8883 15.65C37.4017 14.6967 38.113 13.9633 39.0223 13.45C39.9463 12.9367 41.0023 12.68 42.1903 12.68C43.3343 12.68 44.3537 12.9293 45.2483 13.428C46.143 13.9267 46.8397 14.6307 47.3383 15.54C47.837 16.4347 48.0863 17.4687 48.0863 18.642ZM45.4683 17.85C45.4537 16.926 45.1237 16.1853 44.4783 15.628C43.833 15.0707 43.0337 14.792 42.0803 14.792C41.215 14.792 40.4743 15.0707 39.8583 15.628C39.2423 16.1707 38.8757 16.9113 38.7583 17.85H45.4683ZM55.5925 25.198C54.4485 25.198 53.4145 24.9413 52.4905 24.428C51.5665 23.9 50.8405 23.1667 50.3125 22.228C49.7845 21.2747 49.5205 20.1747 49.5205 18.928C49.5205 17.696 49.7918 16.6033 50.3345 15.65C50.8771 14.6967 51.6178 13.9633 52.5565 13.45C53.4951 12.9367 54.5438 12.68 55.7025 12.68C56.8611 12.68 57.9098 12.9367 58.8485 13.45C59.7871 13.9633 60.5278 14.6967 61.0705 15.65C61.6131 16.6033 61.8845 17.696 61.8845 18.928C61.8845 20.16 61.6058 21.2527 61.0485 22.206C60.4911 23.1593 59.7285 23.9 58.7605 24.428C57.8071 24.9413 56.7511 25.198 55.5925 25.198ZM55.5925 23.02C56.2378 23.02 56.8391 22.866 57.3965 22.558C57.9685 22.25 58.4305 21.788 58.7825 21.172C59.1345 20.556 59.3105 19.808 59.3105 18.928C59.3105 18.048 59.1418 17.3073 58.8045 16.706C58.4671 16.09 58.0198 15.628 57.4625 15.32C56.9051 15.012 56.3038 14.858 55.6585 14.858C55.0131 14.858 54.4118 15.012 53.8545 15.32C53.3118 15.628 52.8791 16.09 52.5565 16.706C52.2338 17.3073 52.0725 18.048 52.0725 18.928C52.0725 20.2333 52.4025 21.2453 53.0625 21.964C53.7371 22.668 54.5805 23.02 55.5925 23.02ZM72.1466 11.734V16.222H77.4266V18.268H72.1466V22.954H78.0866V25H69.6386V9.688H78.0866V11.734H72.1466ZM80.1197 18.884C80.1197 17.6667 80.369 16.5887 80.8677 15.65C81.381 14.7113 82.0704 13.9853 82.9357 13.472C83.8157 12.944 84.791 12.68 85.8617 12.68C86.6537 12.68 87.431 12.856 88.1937 13.208C88.971 13.5453 89.587 14 90.0417 14.572V8.72H92.5717V25H90.0417V23.174C89.631 23.7607 89.059 24.2447 88.3257 24.626C87.607 25.0073 86.7784 25.198 85.8397 25.198C84.7837 25.198 83.8157 24.934 82.9357 24.406C82.0704 23.8633 81.381 23.1153 80.8677 22.162C80.369 21.194 80.1197 20.1013 80.1197 18.884ZM90.0417 18.928C90.0417 18.092 89.8657 17.366 89.5137 16.75C89.1764 16.134 88.729 15.6647 88.1717 15.342C87.6144 15.0193 87.013 14.858 86.3677 14.858C85.7224 14.858 85.121 15.0193 84.5637 15.342C84.0064 15.65 83.5517 16.112 83.1997 16.728C82.8624 17.3293 82.6937 18.048 82.6937 18.884C82.6937 19.72 82.8624 20.4533 83.1997 21.084C83.5517 21.7147 84.0064 22.1987 84.5637 22.536C85.1357 22.8587 85.737 23.02 86.3677 23.02C87.013 23.02 87.6144 22.8587 88.1717 22.536C88.729 22.2133 89.1764 21.744 89.5137 21.128C89.8657 20.4973 90.0417 19.764 90.0417 18.928ZM96.9219 11.272C96.4672 11.272 96.0859 11.118 95.7779 10.81C95.4699 10.502 95.3159 10.1207 95.3159 9.666C95.3159 9.21133 95.4699 8.83 95.7779 8.522C96.0859 8.214 96.4672 8.06 96.9219 8.06C97.3619 8.06 97.7359 8.214 98.0439 8.522C98.3519 8.83 98.5059 9.21133 98.5059 9.666C98.5059 10.1207 98.3519 10.502 98.0439 10.81C97.7359 11.118 97.3619 11.272 96.9219 11.272ZM98.1539 12.878V25H95.6459V12.878H98.1539ZM104.153 14.924V21.634C104.153 22.0887 104.255 22.4187 104.461 22.624C104.681 22.8147 105.047 22.91 105.561 22.91H107.101V25H105.121C103.991 25 103.126 24.736 102.525 24.208C101.923 23.68 101.623 22.822 101.623 21.634V14.924H100.193V12.878H101.623V9.864H104.153V12.878H107.101V14.924H104.153ZM114.45 25.198C113.306 25.198 112.272 24.9413 111.348 24.428C110.424 23.9 109.698 23.1667 109.17 22.228C108.642 21.2747 108.378 20.1747 108.378 18.928C108.378 17.696 108.65 16.6033 109.192 15.65C109.735 14.6967 110.476 13.9633 111.414 13.45C112.353 12.9367 113.402 12.68 114.56 12.68C115.719 12.68 116.768 12.9367 117.706 13.45C118.645 13.9633 119.386 14.6967 119.928 15.65C120.471 16.6033 120.742 17.696 120.742 18.928C120.742 20.16 120.464 21.2527 119.906 22.206C119.349 23.1593 118.586 23.9 117.618 24.428C116.665 24.9413 115.609 25.198 114.45 25.198ZM114.45 23.02C115.096 23.02 115.697 22.866 116.254 22.558C116.826 22.25 117.288 21.788 117.64 21.172C117.992 20.556 118.168 19.808 118.168 18.928C118.168 18.048 118 17.3073 117.662 16.706C117.325 16.09 116.878 15.628 116.32 15.32C115.763 15.012 115.162 14.858 114.516 14.858C113.871 14.858 113.27 15.012 112.712 15.32C112.17 15.628 111.737 16.09 111.414 16.706C111.092 17.3073 110.93 18.048 110.93 18.928C110.93 20.2333 111.26 21.2453 111.92 21.964C112.595 22.668 113.438 23.02 114.45 23.02ZM125.509 14.638C125.876 14.022 126.36 13.5453 126.961 13.208C127.577 12.856 128.303 12.68 129.139 12.68V15.276H128.501C127.519 15.276 126.771 15.5253 126.257 16.024C125.759 16.5227 125.509 17.388 125.509 18.62V25H123.001V12.878H125.509V14.638Z" fill="white"/>
<path d="M4.536 51.144C3.72 51.144 3.016 50.964 2.424 50.604C1.832 50.236 1.376 49.728 1.056 49.08C0.736 48.424 0.576 47.664 0.576 46.8C0.576 45.944 0.736 45.188 1.056 44.532C1.376 43.876 1.832 43.368 2.424 43.008C3.016 42.64 3.72 42.456 4.536 42.456C5.512 42.456 6.304 42.692 6.912 43.164C7.52 43.636 7.908 44.3 8.076 45.156H6.768C6.64 44.66 6.392 44.264 6.024 43.968C5.656 43.672 5.156 43.524 4.524 43.524C3.972 43.524 3.488 43.656 3.072 43.92C2.664 44.184 2.348 44.56 2.124 45.048C1.908 45.536 1.8 46.12 1.8 46.8C1.8 47.48 1.908 48.068 2.124 48.564C2.348 49.052 2.664 49.428 3.072 49.692C3.488 49.948 3.972 50.076 4.524 50.076C5.156 50.076 5.656 49.936 6.024 49.656C6.392 49.368 6.64 48.98 6.768 48.492H8.076C7.908 49.324 7.52 49.976 6.912 50.448C6.304 50.912 5.512 51.144 4.536 51.144ZM13.6044 51.144C12.8124 51.144 12.1124 50.964 11.5044 50.604C10.9044 50.236 10.4324 49.728 10.0884 49.08C9.75244 48.424 9.58444 47.664 9.58444 46.8C9.58444 45.944 9.75244 45.192 10.0884 44.544C10.4324 43.888 10.9044 43.376 11.5044 43.008C12.1124 42.64 12.8124 42.456 13.6044 42.456C14.4124 42.456 15.1164 42.64 15.7164 43.008C16.3244 43.376 16.7964 43.888 17.1324 44.544C17.4684 45.192 17.6364 45.944 17.6364 46.8C17.6364 47.664 17.4684 48.424 17.1324 49.08C16.7964 49.728 16.3244 50.236 15.7164 50.604C15.1164 50.964 14.4124 51.144 13.6044 51.144ZM13.6044 50.076C14.1724 50.076 14.6644 49.944 15.0804 49.68C15.5044 49.416 15.8324 49.04 16.0644 48.552C16.2964 48.064 16.4124 47.48 16.4124 46.8C16.4124 46.12 16.2964 45.536 16.0644 45.048C15.8324 44.56 15.5044 44.188 15.0804 43.932C14.6644 43.668 14.1724 43.536 13.6044 43.536C13.0444 43.536 12.5524 43.668 12.1284 43.932C11.7124 44.188 11.3884 44.56 11.1564 45.048C10.9244 45.536 10.8084 46.12 10.8084 46.8C10.8084 47.48 10.9244 48.064 11.1564 48.552C11.3884 49.04 11.7124 49.416 12.1284 49.68C12.5524 49.944 13.0444 50.076 13.6044 50.076ZM18.3177 51L21.4137 42.6H22.7217L25.7937 51H24.5217L22.0497 44.04L19.5777 51H18.3177ZM19.7217 48.924L20.0457 47.964H24.0057L24.3297 48.924H19.7217ZM30.5418 51.144C29.7258 51.144 29.0218 50.964 28.4298 50.604C27.8378 50.236 27.3818 49.728 27.0618 49.08C26.7418 48.424 26.5818 47.664 26.5818 46.8C26.5818 45.944 26.7418 45.188 27.0618 44.532C27.3818 43.876 27.8378 43.368 28.4298 43.008C29.0218 42.64 29.7258 42.456 30.5418 42.456C31.5178 42.456 32.3098 42.692 32.9178 43.164C33.5258 43.636 33.9138 44.3 34.0818 45.156H32.7738C32.6458 44.66 32.3978 44.264 32.0298 43.968C31.6618 43.672 31.1618 43.524 30.5298 43.524C29.9778 43.524 29.4938 43.656 29.0778 43.92C28.6698 44.184 28.3538 44.56 28.1298 45.048C27.9138 45.536 27.8058 46.12 27.8058 46.8C27.8058 47.48 27.9138 48.068 28.1298 48.564C28.3538 49.052 28.6698 49.428 29.0778 49.692C29.4938 49.948 29.9778 50.076 30.5298 50.076C31.1618 50.076 31.6618 49.936 32.0298 49.656C32.3978 49.368 32.6458 48.98 32.7738 48.492H34.0818C33.9138 49.324 33.5258 49.976 32.9178 50.448C32.3098 50.912 31.5178 51.144 30.5418 51.144ZM41.2422 51V42.6H42.4422V51H41.2422ZM35.9022 51V42.6H37.1022V51H35.9022ZM36.8982 47.208V46.224H41.5062V47.208H36.8982ZM46.5385 51V43.584H44.0425V42.6H50.2225V43.584H47.7385V51H46.5385ZM54.9172 51.144C54.3252 51.144 53.7892 51.028 53.3092 50.796C52.8292 50.556 52.4452 50.196 52.1572 49.716C51.8772 49.228 51.7372 48.608 51.7372 47.856V42.6H52.9372V47.868C52.9372 48.372 53.0212 48.788 53.1892 49.116C53.3572 49.436 53.5892 49.676 53.8852 49.836C54.1892 49.988 54.5412 50.064 54.9412 50.064C55.3492 50.064 55.6972 49.988 55.9852 49.836C56.2812 49.676 56.5092 49.436 56.6692 49.116C56.8372 48.788 56.9212 48.372 56.9212 47.868V42.6H58.1212V47.856C58.1212 48.608 57.9772 49.228 57.6892 49.716C57.4012 50.196 57.0132 50.556 56.5252 50.796C56.0452 51.028 55.5092 51.144 54.9172 51.144ZM60.1619 51V42.6H63.2699C63.8619 42.6 64.3539 42.696 64.7459 42.888C65.1379 43.072 65.4299 43.328 65.6219 43.656C65.8219 43.976 65.9219 44.34 65.9219 44.748C65.9219 45.172 65.8259 45.528 65.6339 45.816C65.4499 46.104 65.2059 46.328 64.9019 46.488C64.6059 46.64 64.2859 46.728 63.9419 46.752L64.1219 46.632C64.4899 46.64 64.8219 46.74 65.1179 46.932C65.4219 47.116 65.6619 47.364 65.8379 47.676C66.0219 47.988 66.1139 48.332 66.1139 48.708C66.1139 49.14 66.0059 49.532 65.7899 49.884C65.5819 50.228 65.2739 50.5 64.8659 50.7C64.4659 50.9 63.9699 51 63.3779 51H60.1619ZM61.3619 50.004H63.2219C63.7499 50.004 64.1579 49.884 64.4459 49.644C64.7419 49.396 64.8899 49.048 64.8899 48.6C64.8899 48.16 64.7379 47.808 64.4339 47.544C64.1379 47.28 63.7259 47.148 63.1979 47.148H61.3619V50.004ZM61.3619 46.224H63.1379C63.6419 46.224 64.0259 46.108 64.2899 45.876C64.5539 45.636 64.6859 45.308 64.6859 44.892C64.6859 44.492 64.5539 44.176 64.2899 43.944C64.0259 43.704 63.6339 43.584 63.1139 43.584H61.3619V46.224ZM67.9164 51V42.6H73.2204V43.584H69.1164V46.272H72.8604V47.232H69.1164V50.016H73.2204V51H67.9164Z" fill="white"/>
</svg>
