<svg width="800" height="80" viewBox="0 0 800 80" fill="none" xmlns="http://www.w3.org/2000/svg">
<line x1="65" y1="79.25" x2="800" y2="79.2501" stroke="#333333" stroke-width="1.5"/>
<circle cx="787" cy="27" r="4" fill="#DFF314"/>
<path d="M253.828 9.71L248.086 25H245.182L239.418 9.71H242.102L246.634 22.426L251.188 9.71H253.828ZM256.981 11.272C256.527 11.272 256.145 11.118 255.837 10.81C255.529 10.502 255.375 10.1207 255.375 9.666C255.375 9.21133 255.529 8.83 255.837 8.522C256.145 8.214 256.527 8.06 256.981 8.06C257.421 8.06 257.795 8.214 258.103 8.522C258.411 8.83 258.565 9.21133 258.565 9.666C258.565 10.1207 258.411 10.502 258.103 10.81C257.795 11.118 257.421 11.272 256.981 11.272ZM258.213 12.878V25H255.705V12.878H258.213ZM260.45 18.884C260.45 17.6667 260.7 16.5887 261.198 15.65C261.712 14.7113 262.401 13.9853 263.266 13.472C264.146 12.944 265.122 12.68 266.192 12.68C266.984 12.68 267.762 12.856 268.524 13.208C269.302 13.5453 269.918 14 270.372 14.572V8.72H272.902V25H270.372V23.174C269.962 23.7607 269.39 24.2447 268.656 24.626C267.938 25.0073 267.109 25.198 266.17 25.198C265.114 25.198 264.146 24.934 263.266 24.406C262.401 23.8633 261.712 23.1153 261.198 22.162C260.7 21.194 260.45 20.1013 260.45 18.884ZM270.372 18.928C270.372 18.092 270.196 17.366 269.844 16.75C269.507 16.134 269.06 15.6647 268.502 15.342C267.945 15.0193 267.344 14.858 266.698 14.858C266.053 14.858 265.452 15.0193 264.894 15.342C264.337 15.65 263.882 16.112 263.53 16.728C263.193 17.3293 263.024 18.048 263.024 18.884C263.024 19.72 263.193 20.4533 263.53 21.084C263.882 21.7147 264.337 22.1987 264.894 22.536C265.466 22.8587 266.068 23.02 266.698 23.02C267.344 23.02 267.945 22.8587 268.502 22.536C269.06 22.2133 269.507 21.744 269.844 21.128C270.196 20.4973 270.372 19.764 270.372 18.928ZM287.086 18.642C287.086 19.0967 287.057 19.5073 286.998 19.874H277.736C277.81 20.842 278.169 21.6193 278.814 22.206C279.46 22.7927 280.252 23.086 281.19 23.086C282.54 23.086 283.493 22.5213 284.05 21.392H286.756C286.39 22.5067 285.722 23.4233 284.754 24.142C283.801 24.846 282.613 25.198 281.19 25.198C280.032 25.198 278.99 24.9413 278.066 24.428C277.157 23.9 276.438 23.1667 275.91 22.228C275.397 21.2747 275.14 20.1747 275.14 18.928C275.14 17.6813 275.39 16.5887 275.888 15.65C276.402 14.6967 277.113 13.9633 278.022 13.45C278.946 12.9367 280.002 12.68 281.19 12.68C282.334 12.68 283.354 12.9293 284.248 13.428C285.143 13.9267 285.84 14.6307 286.338 15.54C286.837 16.4347 287.086 17.4687 287.086 18.642ZM284.468 17.85C284.454 16.926 284.124 16.1853 283.478 15.628C282.833 15.0707 282.034 14.792 281.08 14.792C280.215 14.792 279.474 15.0707 278.858 15.628C278.242 16.1707 277.876 16.9113 277.758 17.85H284.468ZM294.592 25.198C293.448 25.198 292.414 24.9413 291.49 24.428C290.566 23.9 289.84 23.1667 289.312 22.228C288.784 21.2747 288.52 20.1747 288.52 18.928C288.52 17.696 288.792 16.6033 289.334 15.65C289.877 14.6967 290.618 13.9633 291.556 13.45C292.495 12.9367 293.544 12.68 294.702 12.68C295.861 12.68 296.91 12.9367 297.848 13.45C298.787 13.9633 299.528 14.6967 300.07 15.65C300.613 16.6033 300.884 17.696 300.884 18.928C300.884 20.16 300.606 21.2527 300.048 22.206C299.491 23.1593 298.728 23.9 297.76 24.428C296.807 24.9413 295.751 25.198 294.592 25.198ZM294.592 23.02C295.238 23.02 295.839 22.866 296.396 22.558C296.968 22.25 297.43 21.788 297.782 21.172C298.134 20.556 298.31 19.808 298.31 18.928C298.31 18.048 298.142 17.3073 297.804 16.706C297.467 16.09 297.02 15.628 296.462 15.32C295.905 15.012 295.304 14.858 294.658 14.858C294.013 14.858 293.412 15.012 292.854 15.32C292.312 15.628 291.879 16.09 291.556 16.706C291.234 17.3073 291.072 18.048 291.072 18.928C291.072 20.2333 291.402 21.2453 292.062 21.964C292.737 22.668 293.58 23.02 294.592 23.02ZM311.147 11.734V16.222H316.427V18.268H311.147V22.954H317.087V25H308.639V9.688H317.087V11.734H311.147ZM319.12 18.884C319.12 17.6667 319.369 16.5887 319.868 15.65C320.381 14.7113 321.07 13.9853 321.936 13.472C322.816 12.944 323.791 12.68 324.862 12.68C325.654 12.68 326.431 12.856 327.194 13.208C327.971 13.5453 328.587 14 329.042 14.572V8.72H331.572V25H329.042V23.174C328.631 23.7607 328.059 24.2447 327.326 24.626C326.607 25.0073 325.778 25.198 324.84 25.198C323.784 25.198 322.816 24.934 321.936 24.406C321.07 23.8633 320.381 23.1153 319.868 22.162C319.369 21.194 319.12 20.1013 319.12 18.884ZM329.042 18.928C329.042 18.092 328.866 17.366 328.514 16.75C328.176 16.134 327.729 15.6647 327.172 15.342C326.614 15.0193 326.013 14.858 325.368 14.858C324.722 14.858 324.121 15.0193 323.564 15.342C323.006 15.65 322.552 16.112 322.2 16.728C321.862 17.3293 321.694 18.048 321.694 18.884C321.694 19.72 321.862 20.4533 322.2 21.084C322.552 21.7147 323.006 22.1987 323.564 22.536C324.136 22.8587 324.737 23.02 325.368 23.02C326.013 23.02 326.614 22.8587 327.172 22.536C327.729 22.2133 328.176 21.744 328.514 21.128C328.866 20.4973 329.042 19.764 329.042 18.928ZM335.922 11.272C335.467 11.272 335.086 11.118 334.778 10.81C334.47 10.502 334.316 10.1207 334.316 9.666C334.316 9.21133 334.47 8.83 334.778 8.522C335.086 8.214 335.467 8.06 335.922 8.06C336.362 8.06 336.736 8.214 337.044 8.522C337.352 8.83 337.506 9.21133 337.506 9.666C337.506 10.1207 337.352 10.502 337.044 10.81C336.736 11.118 336.362 11.272 335.922 11.272ZM337.154 12.878V25H334.646V12.878H337.154ZM343.153 14.924V21.634C343.153 22.0887 343.255 22.4187 343.461 22.624C343.681 22.8147 344.047 22.91 344.561 22.91H346.101V25H344.121C342.991 25 342.126 24.736 341.525 24.208C340.923 23.68 340.623 22.822 340.623 21.634V14.924H339.193V12.878H340.623V9.864H343.153V12.878H346.101V14.924H343.153ZM353.45 25.198C352.306 25.198 351.272 24.9413 350.348 24.428C349.424 23.9 348.698 23.1667 348.17 22.228C347.642 21.2747 347.378 20.1747 347.378 18.928C347.378 17.696 347.65 16.6033 348.192 15.65C348.735 14.6967 349.476 13.9633 350.414 13.45C351.353 12.9367 352.402 12.68 353.56 12.68C354.719 12.68 355.768 12.9367 356.706 13.45C357.645 13.9633 358.386 14.6967 358.928 15.65C359.471 16.6033 359.742 17.696 359.742 18.928C359.742 20.16 359.464 21.2527 358.906 22.206C358.349 23.1593 357.586 23.9 356.618 24.428C355.665 24.9413 354.609 25.198 353.45 25.198ZM353.45 23.02C354.096 23.02 354.697 22.866 355.254 22.558C355.826 22.25 356.288 21.788 356.64 21.172C356.992 20.556 357.168 19.808 357.168 18.928C357.168 18.048 357 17.3073 356.662 16.706C356.325 16.09 355.878 15.628 355.32 15.32C354.763 15.012 354.162 14.858 353.516 14.858C352.871 14.858 352.27 15.012 351.712 15.32C351.17 15.628 350.737 16.09 350.414 16.706C350.092 17.3073 349.93 18.048 349.93 18.928C349.93 20.2333 350.26 21.2453 350.92 21.964C351.595 22.668 352.438 23.02 353.45 23.02ZM364.509 14.638C364.876 14.022 365.36 13.5453 365.961 13.208C366.577 12.856 367.303 12.68 368.139 12.68V15.276H367.501C366.519 15.276 365.771 15.5253 365.257 16.024C364.759 16.5227 364.509 17.388 364.509 18.62V25H362.001V12.878H364.509V14.638Z" fill="white"/>
<path d="M243.536 51.144C242.72 51.144 242.016 50.964 241.424 50.604C240.832 50.236 240.376 49.728 240.056 49.08C239.736 48.424 239.576 47.664 239.576 46.8C239.576 45.944 239.736 45.188 240.056 44.532C240.376 43.876 240.832 43.368 241.424 43.008C242.016 42.64 242.72 42.456 243.536 42.456C244.512 42.456 245.304 42.692 245.912 43.164C246.52 43.636 246.908 44.3 247.076 45.156H245.768C245.64 44.66 245.392 44.264 245.024 43.968C244.656 43.672 244.156 43.524 243.524 43.524C242.972 43.524 242.488 43.656 242.072 43.92C241.664 44.184 241.348 44.56 241.124 45.048C240.908 45.536 240.8 46.12 240.8 46.8C240.8 47.48 240.908 48.068 241.124 48.564C241.348 49.052 241.664 49.428 242.072 49.692C242.488 49.948 242.972 50.076 243.524 50.076C244.156 50.076 244.656 49.936 245.024 49.656C245.392 49.368 245.64 48.98 245.768 48.492H247.076C246.908 49.324 246.52 49.976 245.912 50.448C245.304 50.912 244.512 51.144 243.536 51.144ZM248.896 51V42.6H250.096V50.052H253.936V51H248.896ZM255.725 51V42.6H261.029V43.584H256.925V46.272H260.669V47.232H256.925V50.016H261.029V51H255.725ZM262.412 51L265.508 42.6H266.816L269.888 51H268.616L266.144 44.04L263.672 51H262.412ZM263.816 48.924L264.14 47.964H268.1L268.424 48.924H263.816ZM272.828 51L269.696 42.6H270.992L273.548 49.752L276.116 42.6H277.388L274.256 51H272.828ZM278.872 51V42.6H284.176V43.584H280.072V46.272H283.816V47.232H280.072V50.016H284.176V51H278.872ZM286.11 51V42.6H288.955C289.619 42.6 290.163 42.712 290.587 42.936C291.01 43.16 291.322 43.46 291.523 43.836C291.73 44.204 291.834 44.624 291.834 45.096C291.834 45.544 291.73 45.96 291.523 46.344C291.322 46.72 291.006 47.024 290.574 47.256C290.143 47.48 289.591 47.592 288.919 47.592H287.31V51H286.11ZM290.527 51L288.714 47.268H290.035L291.919 51H290.527ZM287.31 46.68H288.882C289.474 46.68 289.906 46.536 290.179 46.248C290.459 45.952 290.599 45.576 290.599 45.12C290.599 44.656 290.463 44.288 290.191 44.016C289.919 43.744 289.479 43.608 288.871 43.608H287.31V46.68ZM300.873 51.144C300.057 51.144 299.353 50.964 298.761 50.604C298.169 50.236 297.713 49.728 297.393 49.08C297.073 48.424 296.913 47.664 296.913 46.8C296.913 45.944 297.073 45.188 297.393 44.532C297.713 43.876 298.169 43.368 298.761 43.008C299.353 42.64 300.057 42.456 300.873 42.456C301.849 42.456 302.641 42.692 303.249 43.164C303.857 43.636 304.245 44.3 304.413 45.156H303.105C302.977 44.66 302.729 44.264 302.361 43.968C301.993 43.672 301.493 43.524 300.861 43.524C300.309 43.524 299.825 43.656 299.409 43.92C299.001 44.184 298.685 44.56 298.461 45.048C298.245 45.536 298.137 46.12 298.137 46.8C298.137 47.48 298.245 48.068 298.461 48.564C298.685 49.052 299.001 49.428 299.409 49.692C299.825 49.948 300.309 50.076 300.861 50.076C301.493 50.076 301.993 49.936 302.361 49.656C302.729 49.368 302.977 48.98 303.105 48.492H304.413C304.245 49.324 303.857 49.976 303.249 50.448C302.641 50.912 301.849 51.144 300.873 51.144ZM306.233 51V42.6H309.077C309.741 42.6 310.285 42.712 310.709 42.936C311.133 43.16 311.445 43.46 311.645 43.836C311.853 44.204 311.957 44.624 311.957 45.096C311.957 45.544 311.853 45.96 311.645 46.344C311.445 46.72 311.129 47.024 310.697 47.256C310.265 47.48 309.713 47.592 309.041 47.592H307.433V51H306.233ZM310.649 51L308.837 47.268H310.157L312.041 51H310.649ZM307.433 46.68H309.005C309.597 46.68 310.029 46.536 310.301 46.248C310.581 45.952 310.721 45.576 310.721 45.12C310.721 44.656 310.585 44.288 310.313 44.016C310.041 43.744 309.601 43.608 308.993 43.608H307.433V46.68ZM313.894 51V42.6H319.198V43.584H315.094V46.272H318.838V47.232H315.094V50.016H319.198V51H313.894ZM320.581 51L323.677 42.6H324.985L328.057 51H326.785L324.313 44.04L321.841 51H320.581ZM321.985 48.924L322.309 47.964H326.269L326.593 48.924H321.985ZM330.668 51V43.584H328.172V42.6H334.352V43.584H331.868V51H330.668ZM335.963 51V42.6H337.163V51H335.963ZM341.783 51L338.651 42.6H339.947L342.503 49.752L345.071 42.6H346.343L343.211 51H341.783ZM347.827 51V42.6H353.131V43.584H349.027V46.272H352.771V47.232H349.027V50.016H353.131V51H347.827ZM357.814 51.144C357.206 51.144 356.67 51.036 356.206 50.82C355.742 50.596 355.382 50.284 355.126 49.884C354.87 49.484 354.738 49.016 354.73 48.48H356.002C356.002 48.784 356.07 49.064 356.206 49.32C356.35 49.568 356.554 49.768 356.818 49.92C357.09 50.064 357.422 50.136 357.814 50.136C358.15 50.136 358.438 50.08 358.678 49.968C358.926 49.856 359.114 49.704 359.242 49.512C359.37 49.312 359.434 49.084 359.434 48.828C359.434 48.54 359.37 48.304 359.242 48.12C359.114 47.928 358.934 47.768 358.702 47.64C358.478 47.512 358.218 47.4 357.922 47.304C357.634 47.208 357.322 47.104 356.986 46.992C356.306 46.768 355.802 46.484 355.474 46.14C355.154 45.796 354.994 45.348 354.994 44.796C354.994 44.324 355.102 43.916 355.318 43.572C355.542 43.22 355.858 42.948 356.266 42.756C356.674 42.556 357.15 42.456 357.694 42.456C358.246 42.456 358.722 42.556 359.122 42.756C359.53 42.956 359.85 43.232 360.082 43.584C360.314 43.936 360.434 44.348 360.442 44.82H359.17C359.17 44.604 359.11 44.392 358.99 44.184C358.878 43.976 358.71 43.808 358.486 43.68C358.27 43.544 357.998 43.476 357.67 43.476C357.39 43.468 357.142 43.512 356.926 43.608C356.71 43.704 356.542 43.844 356.422 44.028C356.302 44.212 356.242 44.432 356.242 44.688C356.242 44.944 356.298 45.152 356.41 45.312C356.522 45.464 356.678 45.596 356.878 45.708C357.086 45.82 357.33 45.924 357.61 46.02C357.89 46.108 358.198 46.208 358.534 46.32C358.942 46.456 359.31 46.624 359.638 46.824C359.966 47.016 360.222 47.268 360.406 47.58C360.598 47.884 360.694 48.276 360.694 48.756C360.694 49.172 360.586 49.56 360.37 49.92C360.154 50.28 359.834 50.576 359.41 50.808C358.986 51.032 358.454 51.144 357.814 51.144Z" fill="white"/>
<rect x="64.5" width="115" height="26" rx="13" fill="#DFF314"/>
<path d="M77.22 17V16.136C77.788 15.704 78.324 15.268 78.828 14.828C79.34 14.388 79.796 13.952 80.196 13.52C80.596 13.08 80.908 12.652 81.132 12.236C81.364 11.812 81.48 11.408 81.48 11.024C81.48 10.752 81.428 10.5 81.324 10.268C81.228 10.036 81.072 9.848 80.856 9.704C80.648 9.552 80.364 9.476 80.004 9.476C79.652 9.476 79.36 9.552 79.128 9.704C78.896 9.856 78.72 10.06 78.6 10.316C78.488 10.564 78.432 10.84 78.432 11.144H77.268C77.276 10.568 77.4 10.08 77.64 9.68C77.88 9.28 78.208 8.976 78.624 8.768C79.04 8.56 79.508 8.456 80.028 8.456C80.564 8.456 81.028 8.556 81.42 8.756C81.812 8.948 82.12 9.232 82.344 9.608C82.568 9.984 82.68 10.436 82.68 10.964C82.68 11.348 82.6 11.732 82.44 12.116C82.288 12.492 82.08 12.86 81.816 13.22C81.552 13.58 81.256 13.928 80.928 14.264C80.608 14.592 80.276 14.904 79.932 15.2C79.588 15.496 79.26 15.764 78.948 16.004H82.932V17H77.22ZM87.8306 17.144C87.1026 17.144 86.4746 16.964 85.9466 16.604C85.4266 16.236 85.0266 15.728 84.7466 15.08C84.4666 14.424 84.3266 13.664 84.3266 12.8C84.3266 11.936 84.4666 11.18 84.7466 10.532C85.0266 9.876 85.4266 9.368 85.9466 9.008C86.4746 8.64 87.1026 8.456 87.8306 8.456C88.5666 8.456 89.1906 8.64 89.7026 9.008C90.2226 9.368 90.6226 9.876 90.9026 10.532C91.1906 11.18 91.3346 11.936 91.3346 12.8C91.3346 13.664 91.1906 14.424 90.9026 15.08C90.6226 15.728 90.2226 16.236 89.7026 16.604C89.1906 16.964 88.5666 17.144 87.8306 17.144ZM87.8306 16.076C88.2706 16.076 88.6586 15.944 88.9946 15.68C89.3386 15.416 89.6066 15.04 89.7986 14.552C89.9986 14.064 90.0986 13.48 90.0986 12.8C90.0986 12.112 89.9986 11.528 89.7986 11.048C89.6066 10.56 89.3386 10.188 88.9946 9.932C88.6586 9.668 88.2706 9.536 87.8306 9.536C87.3906 9.536 86.9986 9.668 86.6546 9.932C86.3106 10.188 86.0386 10.56 85.8386 11.048C85.6466 11.528 85.5506 12.112 85.5506 12.8C85.5506 13.48 85.6466 14.064 85.8386 14.552C86.0386 15.04 86.3106 15.416 86.6546 15.68C86.9986 15.944 87.3906 16.076 87.8306 16.076ZM92.8814 17V16.136C93.4494 15.704 93.9854 15.268 94.4894 14.828C95.0014 14.388 95.4574 13.952 95.8574 13.52C96.2574 13.08 96.5694 12.652 96.7934 12.236C97.0254 11.812 97.1414 11.408 97.1414 11.024C97.1414 10.752 97.0894 10.5 96.9854 10.268C96.8894 10.036 96.7334 9.848 96.5174 9.704C96.3094 9.552 96.0254 9.476 95.6654 9.476C95.3134 9.476 95.0214 9.552 94.7894 9.704C94.5574 9.856 94.3814 10.06 94.2614 10.316C94.1494 10.564 94.0934 10.84 94.0934 11.144H92.9294C92.9374 10.568 93.0614 10.08 93.3014 9.68C93.5414 9.28 93.8694 8.976 94.2854 8.768C94.7014 8.56 95.1694 8.456 95.6894 8.456C96.2254 8.456 96.6894 8.556 97.0814 8.756C97.4734 8.948 97.7814 9.232 98.0054 9.608C98.2294 9.984 98.3414 10.436 98.3414 10.964C98.3414 11.348 98.2614 11.732 98.1014 12.116C97.9494 12.492 97.7414 12.86 97.4774 13.22C97.2134 13.58 96.9174 13.928 96.5894 14.264C96.2694 14.592 95.9374 14.904 95.5934 15.2C95.2494 15.496 94.9214 15.764 94.6094 16.004H98.5934V17H92.8814ZM104.058 17V15.284H99.8337V14.348L103.866 8.6H105.246V14.24H106.446V15.284H105.246V17H104.058ZM101.142 14.24H104.118V9.92L101.142 14.24ZM108.078 13.892V12.884H112.926V13.892H108.078ZM115.047 17V8.6H117.903C118.575 8.6 119.127 8.712 119.559 8.936C119.999 9.16 120.323 9.464 120.531 9.848C120.739 10.224 120.843 10.656 120.843 11.144C120.843 11.608 120.739 12.032 120.531 12.416C120.323 12.8 120.003 13.108 119.571 13.34C119.139 13.564 118.583 13.676 117.903 13.676H116.247V17H115.047ZM116.247 12.68H117.855C118.495 12.68 118.947 12.54 119.211 12.26C119.483 11.98 119.619 11.608 119.619 11.144C119.619 10.656 119.483 10.276 119.211 10.004C118.947 9.732 118.495 9.596 117.855 9.596H116.247V12.68ZM122.521 17V8.6H125.365C126.029 8.6 126.573 8.712 126.997 8.936C127.421 9.16 127.733 9.46 127.933 9.836C128.141 10.204 128.245 10.624 128.245 11.096C128.245 11.544 128.141 11.96 127.933 12.344C127.733 12.72 127.417 13.024 126.985 13.256C126.553 13.48 126.001 13.592 125.329 13.592H123.721V17H122.521ZM126.937 17L125.125 13.268H126.445L128.329 17H126.937ZM123.721 12.68H125.293C125.885 12.68 126.317 12.536 126.589 12.248C126.869 11.952 127.009 11.576 127.009 11.12C127.009 10.656 126.873 10.288 126.601 10.016C126.329 9.744 125.889 9.608 125.281 9.608H123.721V12.68ZM130.181 17V8.6H135.485V9.584H131.381V12.272H135.125V13.232H131.381V16.016H135.485V17H130.181ZM140.168 17.144C139.56 17.144 139.024 17.036 138.56 16.82C138.096 16.596 137.736 16.284 137.48 15.884C137.224 15.484 137.092 15.016 137.084 14.48H138.356C138.356 14.784 138.424 15.064 138.56 15.32C138.704 15.568 138.908 15.768 139.172 15.92C139.444 16.064 139.776 16.136 140.168 16.136C140.504 16.136 140.792 16.08 141.032 15.968C141.28 15.856 141.468 15.704 141.596 15.512C141.724 15.312 141.788 15.084 141.788 14.828C141.788 14.54 141.724 14.304 141.596 14.12C141.468 13.928 141.288 13.768 141.056 13.64C140.832 13.512 140.572 13.4 140.276 13.304C139.988 13.208 139.676 13.104 139.34 12.992C138.66 12.768 138.156 12.484 137.828 12.14C137.508 11.796 137.348 11.348 137.348 10.796C137.348 10.324 137.456 9.916 137.672 9.572C137.896 9.22 138.212 8.948 138.62 8.756C139.028 8.556 139.504 8.456 140.048 8.456C140.6 8.456 141.076 8.556 141.476 8.756C141.884 8.956 142.204 9.232 142.436 9.584C142.668 9.936 142.788 10.348 142.796 10.82H141.524C141.524 10.604 141.464 10.392 141.344 10.184C141.232 9.976 141.064 9.808 140.84 9.68C140.624 9.544 140.352 9.476 140.024 9.476C139.744 9.468 139.496 9.512 139.28 9.608C139.064 9.704 138.896 9.844 138.776 10.028C138.656 10.212 138.596 10.432 138.596 10.688C138.596 10.944 138.652 11.152 138.764 11.312C138.876 11.464 139.032 11.596 139.232 11.708C139.44 11.82 139.684 11.924 139.964 12.02C140.244 12.108 140.552 12.208 140.888 12.32C141.296 12.456 141.664 12.624 141.992 12.824C142.32 13.016 142.576 13.268 142.76 13.58C142.952 13.884 143.048 14.276 143.048 14.756C143.048 15.172 142.94 15.56 142.724 15.92C142.508 16.28 142.188 16.576 141.764 16.808C141.34 17.032 140.808 17.144 140.168 17.144ZM144.858 17V8.6H150.162V9.584H146.058V12.272H149.802V13.232H146.058V16.016H150.162V17H144.858ZM152.097 17V8.6H153.297L157.581 15.044V8.6H158.781V17H157.581L153.297 10.556V17H152.097ZM162.874 17V9.584H160.378V8.6H166.558V9.584H164.074V17H162.874Z" fill="#181818"/>
</svg>
