<svg width="130" height="55" viewBox="0 0 130 55" fill="none" xmlns="http://www.w3.org/2000/svg">
<path d="M14.828 9.71L9.086 25H6.182L0.418 9.71H3.102L7.634 22.426L12.188 9.71H14.828ZM17.9814 11.272C17.5267 11.272 17.1454 11.118 16.8374 10.81C16.5294 10.502 16.3754 10.1207 16.3754 9.666C16.3754 9.21133 16.5294 8.83 16.8374 8.522C17.1454 8.214 17.5267 8.06 17.9814 8.06C18.4214 8.06 18.7954 8.214 19.1034 8.522C19.4114 8.83 19.5654 9.21133 19.5654 9.666C19.5654 10.1207 19.4114 10.502 19.1034 10.81C18.7954 11.118 18.4214 11.272 17.9814 11.272ZM19.2134 12.878V25H16.7054V12.878H19.2134ZM21.4502 18.884C21.4502 17.6667 21.6995 16.5887 22.1982 15.65C22.7115 14.7113 23.4008 13.9853 24.2662 13.472C25.1462 12.944 26.1215 12.68 27.1922 12.68C27.9842 12.68 28.7615 12.856 29.5242 13.208C30.3015 13.5453 30.9175 14 31.3722 14.572V8.72H33.9022V25H31.3722V23.174C30.9615 23.7607 30.3895 24.2447 29.6562 24.626C28.9375 25.0073 28.1088 25.198 27.1702 25.198C26.1142 25.198 25.1462 24.934 24.2662 24.406C23.4008 23.8633 22.7115 23.1153 22.1982 22.162C21.6995 21.194 21.4502 20.1013 21.4502 18.884ZM31.3722 18.928C31.3722 18.092 31.1962 17.366 30.8442 16.75C30.5068 16.134 30.0595 15.6647 29.5022 15.342C28.9448 15.0193 28.3435 14.858 27.6982 14.858C27.0528 14.858 26.4515 15.0193 25.8942 15.342C25.3368 15.65 24.8822 16.112 24.5302 16.728C24.1928 17.3293 24.0242 18.048 24.0242 18.884C24.0242 19.72 24.1928 20.4533 24.5302 21.084C24.8822 21.7147 25.3368 22.1987 25.8942 22.536C26.4662 22.8587 27.0675 23.02 27.6982 23.02C28.3435 23.02 28.9448 22.8587 29.5022 22.536C30.0595 22.2133 30.5068 21.744 30.8442 21.128C31.1962 20.4973 31.3722 19.764 31.3722 18.928ZM48.0863 18.642C48.0863 19.0967 48.057 19.5073 47.9983 19.874H38.7363C38.8097 20.842 39.169 21.6193 39.8143 22.206C40.4597 22.7927 41.2517 23.086 42.1903 23.086C43.5397 23.086 44.493 22.5213 45.0503 21.392H47.7563C47.3897 22.5067 46.7223 23.4233 45.7543 24.142C44.801 24.846 43.613 25.198 42.1903 25.198C41.0317 25.198 39.9903 24.9413 39.0663 24.428C38.157 23.9 37.4383 23.1667 36.9103 22.228C36.397 21.2747 36.1403 20.1747 36.1403 18.928C36.1403 17.6813 36.3897 16.5887 36.8883 15.65C37.4017 14.6967 38.113 13.9633 39.0223 13.45C39.9463 12.9367 41.0023 12.68 42.1903 12.68C43.3343 12.68 44.3537 12.9293 45.2483 13.428C46.143 13.9267 46.8397 14.6307 47.3383 15.54C47.837 16.4347 48.0863 17.4687 48.0863 18.642ZM45.4683 17.85C45.4537 16.926 45.1237 16.1853 44.4783 15.628C43.833 15.0707 43.0337 14.792 42.0803 14.792C41.215 14.792 40.4743 15.0707 39.8583 15.628C39.2423 16.1707 38.8757 16.9113 38.7583 17.85H45.4683ZM55.5925 25.198C54.4485 25.198 53.4145 24.9413 52.4905 24.428C51.5665 23.9 50.8405 23.1667 50.3125 22.228C49.7845 21.2747 49.5205 20.1747 49.5205 18.928C49.5205 17.696 49.7918 16.6033 50.3345 15.65C50.8771 14.6967 51.6178 13.9633 52.5565 13.45C53.4951 12.9367 54.5438 12.68 55.7025 12.68C56.8611 12.68 57.9098 12.9367 58.8485 13.45C59.7871 13.9633 60.5278 14.6967 61.0705 15.65C61.6131 16.6033 61.8845 17.696 61.8845 18.928C61.8845 20.16 61.6058 21.2527 61.0485 22.206C60.4911 23.1593 59.7285 23.9 58.7605 24.428C57.8071 24.9413 56.7511 25.198 55.5925 25.198ZM55.5925 23.02C56.2378 23.02 56.8391 22.866 57.3965 22.558C57.9685 22.25 58.4305 21.788 58.7825 21.172C59.1345 20.556 59.3105 19.808 59.3105 18.928C59.3105 18.048 59.1418 17.3073 58.8045 16.706C58.4671 16.09 58.0198 15.628 57.4625 15.32C56.9051 15.012 56.3038 14.858 55.6585 14.858C55.0131 14.858 54.4118 15.012 53.8545 15.32C53.3118 15.628 52.8791 16.09 52.5565 16.706C52.2338 17.3073 52.0725 18.048 52.0725 18.928C52.0725 20.2333 52.4025 21.2453 53.0625 21.964C53.7371 22.668 54.5805 23.02 55.5925 23.02ZM72.1466 11.734V16.222H77.4266V18.268H72.1466V22.954H78.0866V25H69.6386V9.688H78.0866V11.734H72.1466ZM80.1197 18.884C80.1197 17.6667 80.369 16.5887 80.8677 15.65C81.381 14.7113 82.0704 13.9853 82.9357 13.472C83.8157 12.944 84.791 12.68 85.8617 12.68C86.6537 12.68 87.431 12.856 88.1937 13.208C88.971 13.5453 89.587 14 90.0417 14.572V8.72H92.5717V25H90.0417V23.174C89.631 23.7607 89.059 24.2447 88.3257 24.626C87.607 25.0073 86.7784 25.198 85.8397 25.198C84.7837 25.198 83.8157 24.934 82.9357 24.406C82.0704 23.8633 81.381 23.1153 80.8677 22.162C80.369 21.194 80.1197 20.1013 80.1197 18.884ZM90.0417 18.928C90.0417 18.092 89.8657 17.366 89.5137 16.75C89.1764 16.134 88.729 15.6647 88.1717 15.342C87.6144 15.0193 87.013 14.858 86.3677 14.858C85.7224 14.858 85.121 15.0193 84.5637 15.342C84.0064 15.65 83.5517 16.112 83.1997 16.728C82.8624 17.3293 82.6937 18.048 82.6937 18.884C82.6937 19.72 82.8624 20.4533 83.1997 21.084C83.5517 21.7147 84.0064 22.1987 84.5637 22.536C85.1357 22.8587 85.737 23.02 86.3677 23.02C87.013 23.02 87.6144 22.8587 88.1717 22.536C88.729 22.2133 89.1764 21.744 89.5137 21.128C89.8657 20.4973 90.0417 19.764 90.0417 18.928ZM96.9219 11.272C96.4672 11.272 96.0859 11.118 95.7779 10.81C95.4699 10.502 95.3159 10.1207 95.3159 9.666C95.3159 9.21133 95.4699 8.83 95.7779 8.522C96.0859 8.214 96.4672 8.06 96.9219 8.06C97.3619 8.06 97.7359 8.214 98.0439 8.522C98.3519 8.83 98.5059 9.21133 98.5059 9.666C98.5059 10.1207 98.3519 10.502 98.0439 10.81C97.7359 11.118 97.3619 11.272 96.9219 11.272ZM98.1539 12.878V25H95.6459V12.878H98.1539ZM104.153 14.924V21.634C104.153 22.0887 104.255 22.4187 104.461 22.624C104.681 22.8147 105.047 22.91 105.561 22.91H107.101V25H105.121C103.991 25 103.126 24.736 102.525 24.208C101.923 23.68 101.623 22.822 101.623 21.634V14.924H100.193V12.878H101.623V9.864H104.153V12.878H107.101V14.924H104.153ZM114.45 25.198C113.306 25.198 112.272 24.9413 111.348 24.428C110.424 23.9 109.698 23.1667 109.17 22.228C108.642 21.2747 108.378 20.1747 108.378 18.928C108.378 17.696 108.65 16.6033 109.192 15.65C109.735 14.6967 110.476 13.9633 111.414 13.45C112.353 12.9367 113.402 12.68 114.56 12.68C115.719 12.68 116.768 12.9367 117.706 13.45C118.645 13.9633 119.386 14.6967 119.928 15.65C120.471 16.6033 120.742 17.696 120.742 18.928C120.742 20.16 120.464 21.2527 119.906 22.206C119.349 23.1593 118.586 23.9 117.618 24.428C116.665 24.9413 115.609 25.198 114.45 25.198ZM114.45 23.02C115.096 23.02 115.697 22.866 116.254 22.558C116.826 22.25 117.288 21.788 117.64 21.172C117.992 20.556 118.168 19.808 118.168 18.928C118.168 18.048 118 17.3073 117.662 16.706C117.325 16.09 116.878 15.628 116.32 15.32C115.763 15.012 115.162 14.858 114.516 14.858C113.871 14.858 113.27 15.012 112.712 15.32C112.17 15.628 111.737 16.09 111.414 16.706C111.092 17.3073 110.93 18.048 110.93 18.928C110.93 20.2333 111.26 21.2453 111.92 21.964C112.595 22.668 113.438 23.02 114.45 23.02ZM125.509 14.638C125.876 14.022 126.36 13.5453 126.961 13.208C127.577 12.856 128.303 12.68 129.139 12.68V15.276H128.501C127.519 15.276 126.771 15.5253 126.257 16.024C125.759 16.5227 125.509 17.388 125.509 18.62V25H123.001V12.878H125.509V14.638Z" fill="white"/>
<path d="M4.536 51.144C3.72 51.144 3.016 50.964 2.424 50.604C1.832 50.236 1.376 49.728 1.056 49.08C0.736 48.424 0.576 47.664 0.576 46.8C0.576 45.944 0.736 45.188 1.056 44.532C1.376 43.876 1.832 43.368 2.424 43.008C3.016 42.64 3.72 42.456 4.536 42.456C5.512 42.456 6.304 42.692 6.912 43.164C7.52 43.636 7.908 44.3 8.076 45.156H6.768C6.64 44.66 6.392 44.264 6.024 43.968C5.656 43.672 5.156 43.524 4.524 43.524C3.972 43.524 3.488 43.656 3.072 43.92C2.664 44.184 2.348 44.56 2.124 45.048C1.908 45.536 1.8 46.12 1.8 46.8C1.8 47.48 1.908 48.068 2.124 48.564C2.348 49.052 2.664 49.428 3.072 49.692C3.488 49.948 3.972 50.076 4.524 50.076C5.156 50.076 5.656 49.936 6.024 49.656C6.392 49.368 6.64 48.98 6.768 48.492H8.076C7.908 49.324 7.52 49.976 6.912 50.448C6.304 50.912 5.512 51.144 4.536 51.144ZM9.89644 51V42.6H11.0964V50.052H14.9364V51H9.89644ZM16.7252 51V42.6H22.0292V43.584H17.9252V46.272H21.6692V47.232H17.9252V50.016H22.0292V51H16.7252ZM23.4121 51L26.5081 42.6H27.8161L30.8881 51H29.6161L27.1441 44.04L24.6721 51H23.4121ZM24.8161 48.924L25.1401 47.964H29.1001L29.4241 48.924H24.8161ZM33.8276 51L30.6956 42.6H31.9916L34.5476 49.752L37.1156 42.6H38.3876L35.2556 51H33.8276ZM39.8716 51V42.6H45.1756V43.584H41.0716V46.272H44.8156V47.232H41.0716V50.016H45.1756V51H39.8716ZM47.1105 51V42.6H49.9545C50.6185 42.6 51.1625 42.712 51.5865 42.936C52.0105 43.16 52.3225 43.46 52.5225 43.836C52.7305 44.204 52.8345 44.624 52.8345 45.096C52.8345 45.544 52.7305 45.96 52.5225 46.344C52.3225 46.72 52.0065 47.024 51.5745 47.256C51.1425 47.48 50.5905 47.592 49.9185 47.592H48.3105V51H47.1105ZM51.5265 51L49.7145 47.268H51.0345L52.9185 51H51.5265ZM48.3105 46.68H49.8825C50.4745 46.68 50.9065 46.536 51.1785 46.248C51.4585 45.952 51.5985 45.576 51.5985 45.12C51.5985 44.656 51.4625 44.288 51.1905 44.016C50.9185 43.744 50.4785 43.608 49.8705 43.608H48.3105V46.68ZM61.873 51.144C61.057 51.144 60.353 50.964 59.761 50.604C59.169 50.236 58.713 49.728 58.393 49.08C58.073 48.424 57.913 47.664 57.913 46.8C57.913 45.944 58.073 45.188 58.393 44.532C58.713 43.876 59.169 43.368 59.761 43.008C60.353 42.64 61.057 42.456 61.873 42.456C62.849 42.456 63.641 42.692 64.249 43.164C64.857 43.636 65.245 44.3 65.413 45.156H64.105C63.977 44.66 63.729 44.264 63.361 43.968C62.993 43.672 62.493 43.524 61.861 43.524C61.309 43.524 60.825 43.656 60.409 43.92C60.001 44.184 59.685 44.56 59.461 45.048C59.245 45.536 59.137 46.12 59.137 46.8C59.137 47.48 59.245 48.068 59.461 48.564C59.685 49.052 60.001 49.428 60.409 49.692C60.825 49.948 61.309 50.076 61.861 50.076C62.493 50.076 62.993 49.936 63.361 49.656C63.729 49.368 63.977 48.98 64.105 48.492H65.413C65.245 49.324 64.857 49.976 64.249 50.448C63.641 50.912 62.849 51.144 61.873 51.144ZM67.2335 51V42.6H70.0775C70.7415 42.6 71.2855 42.712 71.7095 42.936C72.1335 43.16 72.4455 43.46 72.6455 43.836C72.8535 44.204 72.9575 44.624 72.9575 45.096C72.9575 45.544 72.8535 45.96 72.6455 46.344C72.4455 46.72 72.1295 47.024 71.6975 47.256C71.2655 47.48 70.7135 47.592 70.0415 47.592H68.4335V51H67.2335ZM71.6495 51L69.8375 47.268H71.1575L73.0415 51H71.6495ZM68.4335 46.68H70.0055C70.5975 46.68 71.0295 46.536 71.3015 46.248C71.5815 45.952 71.7215 45.576 71.7215 45.12C71.7215 44.656 71.5855 44.288 71.3135 44.016C71.0415 43.744 70.6015 43.608 69.9935 43.608H68.4335V46.68ZM74.8942 51V42.6H80.1982V43.584H76.0942V46.272H79.8382V47.232H76.0942V50.016H80.1982V51H74.8942ZM81.5812 51L84.6772 42.6H85.9852L89.0572 51H87.7852L85.3132 44.04L82.8412 51H81.5812ZM82.9852 48.924L83.3092 47.964H87.2692L87.5932 48.924H82.9852ZM91.6679 51V43.584H89.1719V42.6H95.3519V43.584H92.8679V51H91.6679ZM96.9625 51V42.6H98.1625V51H96.9625ZM102.783 51L99.6511 42.6H100.947L103.503 49.752L106.071 42.6H107.343L104.211 51H102.783ZM108.827 51V42.6H114.131V43.584H110.027V46.272H113.771V47.232H110.027V50.016H114.131V51H108.827ZM118.814 51.144C118.206 51.144 117.67 51.036 117.206 50.82C116.742 50.596 116.382 50.284 116.126 49.884C115.87 49.484 115.738 49.016 115.73 48.48H117.002C117.002 48.784 117.07 49.064 117.206 49.32C117.35 49.568 117.554 49.768 117.818 49.92C118.09 50.064 118.422 50.136 118.814 50.136C119.15 50.136 119.438 50.08 119.678 49.968C119.926 49.856 120.114 49.704 120.242 49.512C120.37 49.312 120.434 49.084 120.434 48.828C120.434 48.54 120.37 48.304 120.242 48.12C120.114 47.928 119.934 47.768 119.702 47.64C119.478 47.512 119.218 47.4 118.922 47.304C118.634 47.208 118.322 47.104 117.986 46.992C117.306 46.768 116.802 46.484 116.474 46.14C116.154 45.796 115.994 45.348 115.994 44.796C115.994 44.324 116.102 43.916 116.318 43.572C116.542 43.22 116.858 42.948 117.266 42.756C117.674 42.556 118.15 42.456 118.694 42.456C119.246 42.456 119.722 42.556 120.122 42.756C120.53 42.956 120.85 43.232 121.082 43.584C121.314 43.936 121.434 44.348 121.442 44.82H120.17C120.17 44.604 120.11 44.392 119.99 44.184C119.878 43.976 119.71 43.808 119.486 43.68C119.27 43.544 118.998 43.476 118.67 43.476C118.39 43.468 118.142 43.512 117.926 43.608C117.71 43.704 117.542 43.844 117.422 44.028C117.302 44.212 117.242 44.432 117.242 44.688C117.242 44.944 117.298 45.152 117.41 45.312C117.522 45.464 117.678 45.596 117.878 45.708C118.086 45.82 118.33 45.924 118.61 46.02C118.89 46.108 119.198 46.208 119.534 46.32C119.942 46.456 120.31 46.624 120.638 46.824C120.966 47.016 121.222 47.268 121.406 47.58C121.598 47.884 121.694 48.276 121.694 48.756C121.694 49.172 121.586 49.56 121.37 49.92C121.154 50.28 120.834 50.576 120.41 50.808C119.986 51.032 119.454 51.144 118.814 51.144Z" fill="white"/>
</svg>
