<svg width="115" height="26" viewBox="0 0 115 26" fill="none" xmlns="http://www.w3.org/2000/svg">
<rect width="115" height="26" rx="13" fill="#DFF314"/>
<path d="M12.72 17V16.136C13.288 15.704 13.824 15.268 14.328 14.828C14.84 14.388 15.296 13.952 15.696 13.52C16.096 13.08 16.408 12.652 16.632 12.236C16.864 11.812 16.98 11.408 16.98 11.024C16.98 10.752 16.928 10.5 16.824 10.268C16.728 10.036 16.572 9.848 16.356 9.704C16.148 9.552 15.864 9.476 15.504 9.476C15.152 9.476 14.86 9.552 14.628 9.704C14.396 9.856 14.22 10.06 14.1 10.316C13.988 10.564 13.932 10.84 13.932 11.144H12.768C12.776 10.568 12.9 10.08 13.14 9.68C13.38 9.28 13.708 8.976 14.124 8.768C14.54 8.56 15.008 8.456 15.528 8.456C16.064 8.456 16.528 8.556 16.92 8.756C17.312 8.948 17.62 9.232 17.844 9.608C18.068 9.984 18.18 10.436 18.18 10.964C18.18 11.348 18.1 11.732 17.94 12.116C17.788 12.492 17.58 12.86 17.316 13.22C17.052 13.58 16.756 13.928 16.428 14.264C16.108 14.592 15.776 14.904 15.432 15.2C15.088 15.496 14.76 15.764 14.448 16.004H18.432V17H12.72ZM23.3306 17.144C22.6026 17.144 21.9746 16.964 21.4466 16.604C20.9266 16.236 20.5266 15.728 20.2466 15.08C19.9666 14.424 19.8266 13.664 19.8266 12.8C19.8266 11.936 19.9666 11.18 20.2466 10.532C20.5266 9.876 20.9266 9.368 21.4466 9.008C21.9746 8.64 22.6026 8.456 23.3306 8.456C24.0666 8.456 24.6906 8.64 25.2026 9.008C25.7226 9.368 26.1226 9.876 26.4026 10.532C26.6906 11.18 26.8346 11.936 26.8346 12.8C26.8346 13.664 26.6906 14.424 26.4026 15.08C26.1226 15.728 25.7226 16.236 25.2026 16.604C24.6906 16.964 24.0666 17.144 23.3306 17.144ZM23.3306 16.076C23.7706 16.076 24.1586 15.944 24.4946 15.68C24.8386 15.416 25.1066 15.04 25.2986 14.552C25.4986 14.064 25.5986 13.48 25.5986 12.8C25.5986 12.112 25.4986 11.528 25.2986 11.048C25.1066 10.56 24.8386 10.188 24.4946 9.932C24.1586 9.668 23.7706 9.536 23.3306 9.536C22.8906 9.536 22.4986 9.668 22.1546 9.932C21.8106 10.188 21.5386 10.56 21.3386 11.048C21.1466 11.528 21.0506 12.112 21.0506 12.8C21.0506 13.48 21.1466 14.064 21.3386 14.552C21.5386 15.04 21.8106 15.416 22.1546 15.68C22.4986 15.944 22.8906 16.076 23.3306 16.076ZM28.3814 17V16.136C28.9494 15.704 29.4854 15.268 29.9894 14.828C30.5014 14.388 30.9574 13.952 31.3574 13.52C31.7574 13.08 32.0694 12.652 32.2934 12.236C32.5254 11.812 32.6414 11.408 32.6414 11.024C32.6414 10.752 32.5894 10.5 32.4854 10.268C32.3894 10.036 32.2334 9.848 32.0174 9.704C31.8094 9.552 31.5254 9.476 31.1654 9.476C30.8134 9.476 30.5214 9.552 30.2894 9.704C30.0574 9.856 29.8814 10.06 29.7614 10.316C29.6494 10.564 29.5934 10.84 29.5934 11.144H28.4294C28.4374 10.568 28.5614 10.08 28.8014 9.68C29.0414 9.28 29.3694 8.976 29.7854 8.768C30.2014 8.56 30.6694 8.456 31.1894 8.456C31.7254 8.456 32.1894 8.556 32.5814 8.756C32.9734 8.948 33.2814 9.232 33.5054 9.608C33.7294 9.984 33.8414 10.436 33.8414 10.964C33.8414 11.348 33.7614 11.732 33.6014 12.116C33.4494 12.492 33.2414 12.86 32.9774 13.22C32.7134 13.58 32.4174 13.928 32.0894 14.264C31.7694 14.592 31.4374 14.904 31.0934 15.2C30.7494 15.496 30.4214 15.764 30.1094 16.004H34.0934V17H28.3814ZM39.5577 17V15.284H35.3337V14.348L39.3657 8.6H40.7457V14.24H41.9457V15.284H40.7457V17H39.5577ZM36.6417 14.24H39.6177V9.92L36.6417 14.24ZM43.578 13.892V12.884H48.426V13.892H43.578ZM50.5474 17V8.6H53.4034C54.0754 8.6 54.6274 8.712 55.0594 8.936C55.4994 9.16 55.8234 9.464 56.0314 9.848C56.2394 10.224 56.3434 10.656 56.3434 11.144C56.3434 11.608 56.2394 12.032 56.0314 12.416C55.8234 12.8 55.5034 13.108 55.0714 13.34C54.6394 13.564 54.0834 13.676 53.4034 13.676H51.7474V17H50.5474ZM51.7474 12.68H53.3554C53.9954 12.68 54.4474 12.54 54.7114 12.26C54.9834 11.98 55.1194 11.608 55.1194 11.144C55.1194 10.656 54.9834 10.276 54.7114 10.004C54.4474 9.732 53.9954 9.596 53.3554 9.596H51.7474V12.68ZM58.0207 17V8.6H60.8647C61.5287 8.6 62.0727 8.712 62.4967 8.936C62.9207 9.16 63.2327 9.46 63.4327 9.836C63.6407 10.204 63.7447 10.624 63.7447 11.096C63.7447 11.544 63.6407 11.96 63.4327 12.344C63.2327 12.72 62.9167 13.024 62.4847 13.256C62.0527 13.48 61.5007 13.592 60.8287 13.592H59.2207V17H58.0207ZM62.4367 17L60.6247 13.268H61.9447L63.8287 17H62.4367ZM59.2207 12.68H60.7927C61.3847 12.68 61.8167 12.536 62.0887 12.248C62.3687 11.952 62.5087 11.576 62.5087 11.12C62.5087 10.656 62.3727 10.288 62.1007 10.016C61.8287 9.744 61.3887 9.608 60.7807 9.608H59.2207V12.68ZM65.6814 17V8.6H70.9854V9.584H66.8814V12.272H70.6254V13.232H66.8814V16.016H70.9854V17H65.6814ZM75.6683 17.144C75.0603 17.144 74.5243 17.036 74.0603 16.82C73.5963 16.596 73.2363 16.284 72.9803 15.884C72.7243 15.484 72.5923 15.016 72.5843 14.48H73.8563C73.8563 14.784 73.9243 15.064 74.0603 15.32C74.2043 15.568 74.4083 15.768 74.6723 15.92C74.9443 16.064 75.2763 16.136 75.6683 16.136C76.0043 16.136 76.2923 16.08 76.5323 15.968C76.7803 15.856 76.9683 15.704 77.0963 15.512C77.2243 15.312 77.2883 15.084 77.2883 14.828C77.2883 14.54 77.2243 14.304 77.0963 14.12C76.9683 13.928 76.7883 13.768 76.5563 13.64C76.3323 13.512 76.0723 13.4 75.7763 13.304C75.4883 13.208 75.1763 13.104 74.8403 12.992C74.1603 12.768 73.6563 12.484 73.3283 12.14C73.0083 11.796 72.8483 11.348 72.8483 10.796C72.8483 10.324 72.9563 9.916 73.1723 9.572C73.3963 9.22 73.7123 8.948 74.1203 8.756C74.5283 8.556 75.0043 8.456 75.5483 8.456C76.1003 8.456 76.5763 8.556 76.9763 8.756C77.3843 8.956 77.7043 9.232 77.9363 9.584C78.1683 9.936 78.2883 10.348 78.2963 10.82H77.0243C77.0243 10.604 76.9643 10.392 76.8443 10.184C76.7323 9.976 76.5643 9.808 76.3403 9.68C76.1243 9.544 75.8523 9.476 75.5243 9.476C75.2443 9.468 74.9963 9.512 74.7803 9.608C74.5643 9.704 74.3963 9.844 74.2763 10.028C74.1563 10.212 74.0963 10.432 74.0963 10.688C74.0963 10.944 74.1523 11.152 74.2643 11.312C74.3763 11.464 74.5323 11.596 74.7323 11.708C74.9403 11.82 75.1843 11.924 75.4643 12.02C75.7443 12.108 76.0523 12.208 76.3883 12.32C76.7963 12.456 77.1643 12.624 77.4923 12.824C77.8203 13.016 78.0763 13.268 78.2603 13.58C78.4523 13.884 78.5483 14.276 78.5483 14.756C78.5483 15.172 78.4403 15.56 78.2243 15.92C78.0083 16.28 77.6883 16.576 77.2643 16.808C76.8403 17.032 76.3083 17.144 75.6683 17.144ZM80.3585 17V8.6H85.6625V9.584H81.5585V12.272H85.3025V13.232H81.5585V16.016H85.6625V17H80.3585ZM87.5974 17V8.6H88.7974L93.0814 15.044V8.6H94.2814V17H93.0814L88.7974 10.556V17H87.5974ZM98.3743 17V9.584H95.8783V8.6H102.058V9.584H99.5743V17H98.3743Z" fill="#181818"/>
</svg>
