<svg width="209" height="62" viewBox="0 0 209 62" fill="none" xmlns="http://www.w3.org/2000/svg">
<g filter="url(#filter0_d_112_688)">
<rect x="10" y="5" width="189" height="42" rx="21" fill="#DFF314" shape-rendering="crispEdges"/>
<path d="M38.94 31L36.364 21.2H38.38L40.088 28.858L42.104 21.2H44.19L46.15 28.858L47.872 21.2H49.902L47.256 31H45.002L43.126 23.86L41.18 31H38.94ZM49.9897 31L53.5737 21.2H55.7157L59.2857 31H57.2837L54.6377 23.356L51.9777 31H49.9897ZM51.5717 28.774L52.0757 27.304H57.0597L57.5497 28.774H51.5717ZM62.2364 31V22.726H59.3664V21.2H66.9684V22.726H64.1124V31H62.2364ZM72.7958 31.168C71.8158 31.168 70.9712 30.958 70.2618 30.538C69.5618 30.1087 69.0205 29.516 68.6378 28.76C68.2645 27.9947 68.0778 27.1127 68.0778 26.114C68.0778 25.1153 68.2645 24.2333 68.6378 23.468C69.0205 22.7027 69.5618 22.1053 70.2618 21.676C70.9712 21.2467 71.8158 21.032 72.7958 21.032C73.9812 21.032 74.9518 21.326 75.7078 21.914C76.4638 22.502 76.9352 23.3327 77.1218 24.406H75.0638C74.9425 23.8833 74.6858 23.4773 74.2938 23.188C73.9112 22.8893 73.4072 22.74 72.7818 22.74C72.2032 22.74 71.7038 22.88 71.2838 23.16C70.8732 23.4307 70.5558 23.818 70.3318 24.322C70.1078 24.8167 69.9958 25.414 69.9958 26.114C69.9958 26.8047 70.1078 27.402 70.3318 27.906C70.5558 28.41 70.8732 28.7973 71.2838 29.068C71.7038 29.3387 72.2032 29.474 72.7818 29.474C73.4072 29.474 73.9112 29.3387 74.2938 29.068C74.6765 28.788 74.9285 28.4007 75.0498 27.906H77.1218C76.9352 28.9233 76.4638 29.7213 75.7078 30.3C74.9518 30.8787 73.9812 31.168 72.7958 31.168ZM85.3298 31V21.2H87.2198V31H85.3298ZM79.1558 31V21.2H81.0458V31H79.1558ZM80.7798 26.758V25.232H85.6518V26.758H80.7798ZM93.2848 31V21.2H96.9388C97.7322 21.2 98.3855 21.3353 98.8988 21.606C99.4122 21.8767 99.7948 22.2407 100.047 22.698C100.299 23.146 100.425 23.6453 100.425 24.196C100.425 24.7187 100.303 25.2087 100.061 25.666C99.8182 26.114 99.4355 26.478 98.9128 26.758C98.3995 27.0287 97.7368 27.164 96.9248 27.164H95.1748V31H93.2848ZM98.3668 31L96.3508 26.688H98.3948L100.523 31H98.3668ZM95.1748 25.792H96.8268C97.3962 25.792 97.8162 25.652 98.0868 25.372C98.3575 25.092 98.4928 24.7233 98.4928 24.266C98.4928 23.8087 98.3575 23.4493 98.0868 23.188C97.8255 22.9173 97.4055 22.782 96.8268 22.782H95.1748V25.792ZM102.537 31V21.2H108.977V22.726H104.427V25.288H108.557V26.758H104.427V29.474H108.977V31H102.537ZM114.493 31.168C113.784 31.168 113.149 31.0467 112.589 30.804C112.038 30.5613 111.6 30.2067 111.273 29.74C110.956 29.2733 110.792 28.7087 110.783 28.046H112.785C112.794 28.3353 112.869 28.5967 113.009 28.83C113.149 29.0633 113.34 29.25 113.583 29.39C113.835 29.5207 114.134 29.586 114.479 29.586C114.778 29.586 115.034 29.5393 115.249 29.446C115.473 29.3433 115.646 29.2033 115.767 29.026C115.888 28.8487 115.949 28.6387 115.949 28.396C115.949 28.116 115.879 27.8827 115.739 27.696C115.608 27.5093 115.422 27.3507 115.179 27.22C114.946 27.0893 114.67 26.9727 114.353 26.87C114.045 26.758 113.718 26.6413 113.373 26.52C112.598 26.268 112.006 25.932 111.595 25.512C111.194 25.092 110.993 24.5367 110.993 23.846C110.993 23.258 111.133 22.754 111.413 22.334C111.702 21.914 112.099 21.592 112.603 21.368C113.107 21.144 113.681 21.032 114.325 21.032C114.988 21.032 115.566 21.1487 116.061 21.382C116.565 21.606 116.962 21.9327 117.251 22.362C117.55 22.7913 117.704 23.2953 117.713 23.874H115.697C115.688 23.6593 115.622 23.4587 115.501 23.272C115.389 23.076 115.23 22.922 115.025 22.81C114.82 22.6887 114.577 22.628 114.297 22.628C114.054 22.6187 113.83 22.656 113.625 22.74C113.429 22.824 113.27 22.95 113.149 23.118C113.037 23.2767 112.981 23.4773 112.981 23.72C112.981 23.9533 113.037 24.1493 113.149 24.308C113.27 24.4667 113.434 24.6067 113.639 24.728C113.844 24.84 114.087 24.9473 114.367 25.05C114.647 25.1433 114.95 25.2413 115.277 25.344C115.762 25.512 116.21 25.7127 116.621 25.946C117.032 26.17 117.358 26.464 117.601 26.828C117.844 27.192 117.965 27.6727 117.965 28.27C117.965 28.7833 117.83 29.2593 117.559 29.698C117.288 30.1367 116.896 30.4913 116.383 30.762C115.879 31.0327 115.249 31.168 114.493 31.168ZM123.782 31.168C123.064 31.168 122.41 31.0233 121.822 30.734C121.234 30.4447 120.768 30.0107 120.422 29.432C120.077 28.8533 119.904 28.116 119.904 27.22V21.2H121.794V27.234C121.794 27.7193 121.874 28.13 122.032 28.466C122.191 28.7927 122.42 29.0353 122.718 29.194C123.026 29.3527 123.39 29.432 123.81 29.432C124.24 29.432 124.604 29.3527 124.902 29.194C125.21 29.0353 125.444 28.7927 125.602 28.466C125.761 28.13 125.84 27.7193 125.84 27.234V21.2H127.73V27.22C127.73 28.116 127.553 28.8533 127.198 29.432C126.844 30.0107 126.363 30.4447 125.756 30.734C125.159 31.0233 124.501 31.168 123.782 31.168ZM129.992 31V21.2H132.246L135.242 27.318L138.21 21.2H140.464V31H138.574V24.42L135.984 29.628H134.486L131.882 24.42V31H129.992ZM142.813 31V21.2H149.253V22.726H144.703V25.288H148.833V26.758H144.703V29.474H149.253V31H142.813Z" fill="#181818"/>
<circle cx="176" cy="26" r="3" fill="#181818"/>
</g>
<defs>
<filter id="filter0_d_112_688" x="0" y="0" width="209" height="62" filterUnits="userSpaceOnUse" color-interpolation-filters="sRGB">
<feFlood flood-opacity="0" result="BackgroundImageFix"/>
<feColorMatrix in="SourceAlpha" type="matrix" values="0 0 0 0 0 0 0 0 0 0 0 0 0 0 0 0 0 0 127 0" result="hardAlpha"/>
<feOffset dy="5"/>
<feGaussianBlur stdDeviation="5"/>
<feComposite in2="hardAlpha" operator="out"/>
<feColorMatrix type="matrix" values="0 0 0 0 0.0627451 0 0 0 0 0.0627451 0 0 0 0 0.0627451 0 0 0 0.25 0"/>
<feBlend mode="normal" in2="BackgroundImageFix" result="effect1_dropShadow_112_688"/>
<feBlend mode="normal" in="SourceGraphic" in2="effect1_dropShadow_112_688" result="shape"/>
</filter>
</defs>
</svg>
