<svg width="402" height="109" viewBox="0 0 402 109" fill="none" xmlns="http://www.w3.org/2000/svg">
<path d="M28.836 70.98V96H24.696V77.244L17.46 96H13.86L6.588 77.244V96H2.484V70.98H7.452L15.732 90.96L23.868 70.98H28.836ZM35.3931 76.164L41.3331 90.744L46.8411 76.164H51.4131L39.4251 105.432H34.8531L39.1371 95.532L30.7851 76.164H35.3931ZM93.2932 70.584L86.9572 96H81.9172L76.5532 76.344L71.1892 96H66.1492L59.8132 70.584H64.3132L68.7052 91.248L74.2852 70.584H78.8212L84.4012 91.248L88.7932 70.584H93.2932ZM105.321 75.912C107.241 75.912 108.969 76.32 110.505 77.136C112.041 77.952 113.241 79.128 114.105 80.664C114.969 82.2 115.401 84 115.401 86.064C115.401 88.152 114.969 89.964 114.105 91.5C113.241 93.036 112.041 94.212 110.505 95.028C108.969 95.844 107.241 96.252 105.321 96.252C103.401 96.252 101.673 95.844 100.137 95.028C98.6245 94.212 97.4245 93.036 96.5365 91.5C95.6725 89.94 95.2405 88.128 95.2405 86.064C95.2405 84 95.6725 82.2 96.5365 80.664C97.4245 79.128 98.6245 77.952 100.137 77.136C101.673 76.32 103.401 75.912 105.321 75.912ZM105.321 79.476C104.265 79.476 103.293 79.716 102.405 80.196C101.517 80.676 100.797 81.42 100.245 82.428C99.7165 83.412 99.4525 84.624 99.4525 86.064C99.4525 87.528 99.7165 88.752 100.245 89.736C100.797 90.72 101.517 91.452 102.405 91.932C103.293 92.412 104.265 92.652 105.321 92.652C106.377 92.652 107.349 92.412 108.237 91.932C109.125 91.452 109.833 90.72 110.361 89.736C110.913 88.752 111.189 87.528 111.189 86.064C111.189 84.624 110.913 83.412 110.361 82.428C109.833 81.42 109.125 80.676 108.237 80.196C107.349 79.716 106.377 79.476 105.321 79.476ZM122.73 80.052C123.402 78.756 124.362 77.736 125.61 76.992C126.858 76.224 128.298 75.84 129.93 75.84V80.304H128.706C126.906 80.304 125.454 80.748 124.35 81.636C123.27 82.5 122.73 83.94 122.73 85.956V96H118.626V76.164H122.73V80.052ZM143.517 96L136.389 87.18V96H132.285V69.36H136.389V84.624L143.445 76.164H148.377L139.737 86.028L148.593 96H143.517ZM162.371 73.896V81.6H171.731V84.768H162.371V92.652H172.811V96H158.267V70.584H172.811V73.896H162.371ZM187.81 96L182.95 88.98L178.702 96H174.13L180.682 85.704L174.058 76.164H178.702L183.454 83.004L187.666 76.164H192.202L185.65 86.172L192.454 96H187.81ZM205.961 75.912C207.689 75.912 209.225 76.32 210.569 77.136C211.937 77.952 213.005 79.128 213.773 80.664C214.541 82.2 214.925 84 214.925 86.064C214.925 88.152 214.541 89.964 213.773 91.5C213.005 93.036 211.937 94.212 210.569 95.028C209.225 95.844 207.689 96.252 205.961 96.252C204.161 96.252 202.625 95.808 201.353 94.92C200.081 94.032 199.193 92.856 198.689 91.392V105.432H194.585V76.164H198.689V80.772C199.193 79.308 200.081 78.132 201.353 77.244C202.625 76.356 204.161 75.912 205.961 75.912ZM204.701 79.512C203.549 79.512 202.517 79.788 201.605 80.34C200.693 80.868 199.973 81.636 199.445 82.644C198.917 83.628 198.653 84.768 198.653 86.064C198.653 87.384 198.917 88.536 199.445 89.52C199.973 90.504 200.693 91.272 201.605 91.824C202.517 92.352 203.549 92.616 204.701 92.616C206.525 92.616 207.989 92.04 209.093 90.888C210.197 89.712 210.749 88.104 210.749 86.064C210.749 84.048 210.197 82.452 209.093 81.276C207.989 80.1 206.525 79.512 204.701 79.512ZM236.59 85.128C236.59 85.8 236.542 86.388 236.446 86.892H221.182C221.254 88.932 221.818 90.444 222.874 91.428C223.93 92.412 225.238 92.904 226.798 92.904C228.166 92.904 229.318 92.556 230.254 91.86C231.214 91.164 231.802 90.24 232.018 89.088H236.41C236.146 90.48 235.594 91.716 234.754 92.796C233.914 93.876 232.822 94.728 231.478 95.352C230.134 95.952 228.634 96.252 226.978 96.252C225.058 96.252 223.354 95.844 221.866 95.028C220.402 94.212 219.25 93.036 218.41 91.5C217.57 89.964 217.15 88.152 217.15 86.064C217.15 84 217.57 82.2 218.41 80.664C219.25 79.128 220.402 77.952 221.866 77.136C223.354 76.32 225.058 75.912 226.978 75.912C228.922 75.912 230.614 76.32 232.054 77.136C233.518 77.928 234.634 79.032 235.402 80.448C236.194 81.84 236.59 83.4 236.59 85.128ZM232.45 85.02C232.498 83.724 232.27 82.644 231.766 81.78C231.286 80.892 230.614 80.244 229.75 79.836C228.91 79.404 227.986 79.188 226.978 79.188C225.37 79.188 224.026 79.68 222.946 80.664C221.866 81.648 221.278 83.1 221.182 85.02H232.45ZM243.936 80.052C244.608 78.756 245.568 77.736 246.816 76.992C248.064 76.224 249.504 75.84 251.136 75.84V80.304H249.912C248.112 80.304 246.66 80.748 245.556 81.636C244.476 82.5 243.936 83.94 243.936 85.956V96H239.832V76.164H243.936V80.052ZM252.915 70.404C252.915 69.708 253.155 69.132 253.635 68.676C254.115 68.22 254.751 67.992 255.543 67.992C256.335 67.992 256.971 68.22 257.451 68.676C257.955 69.132 258.207 69.708 258.207 70.404C258.207 71.1 257.955 71.664 257.451 72.096C256.971 72.528 256.335 72.744 255.543 72.744C254.751 72.744 254.115 72.528 253.635 72.096C253.155 71.664 252.915 71.1 252.915 70.404ZM257.595 76.164V96H253.491V76.164H257.595ZM280.274 85.128C280.274 85.8 280.226 86.388 280.13 86.892H264.866C264.938 88.932 265.502 90.444 266.558 91.428C267.614 92.412 268.922 92.904 270.482 92.904C271.85 92.904 273.002 92.556 273.938 91.86C274.898 91.164 275.486 90.24 275.702 89.088H280.094C279.83 90.48 279.278 91.716 278.438 92.796C277.598 93.876 276.506 94.728 275.162 95.352C273.818 95.952 272.318 96.252 270.662 96.252C268.742 96.252 267.038 95.844 265.55 95.028C264.086 94.212 262.934 93.036 262.094 91.5C261.254 89.964 260.834 88.152 260.834 86.064C260.834 84 261.254 82.2 262.094 80.664C262.934 79.128 264.086 77.952 265.55 77.136C267.038 76.32 268.742 75.912 270.662 75.912C272.606 75.912 274.298 76.32 275.738 77.136C277.202 77.928 278.318 79.032 279.086 80.448C279.878 81.84 280.274 83.4 280.274 85.128ZM276.134 85.02C276.182 83.724 275.954 82.644 275.45 81.78C274.97 80.892 274.298 80.244 273.434 79.836C272.594 79.404 271.67 79.188 270.662 79.188C269.054 79.188 267.71 79.68 266.63 80.664C265.55 81.648 264.962 83.1 264.866 85.02H276.134ZM294.604 75.84C296.908 75.84 298.756 76.584 300.148 78.072C301.54 79.56 302.236 81.684 302.236 84.444V96H298.132V84.876C298.132 83.1 297.676 81.732 296.764 80.772C295.852 79.788 294.604 79.296 293.02 79.296C291.388 79.296 290.08 79.824 289.096 80.88C288.112 81.912 287.62 83.436 287.62 85.452V96H283.516V76.164H287.62V80.52C288.148 79.032 289.036 77.88 290.284 77.064C291.532 76.248 292.972 75.84 294.604 75.84ZM315.136 75.912C317.704 75.912 319.828 76.596 321.508 77.964C323.188 79.308 324.232 81.144 324.64 83.472H320.284C320.044 82.224 319.456 81.252 318.52 80.556C317.608 79.836 316.456 79.476 315.064 79.476C313.48 79.476 312.16 80.04 311.104 81.168C310.048 82.272 309.52 83.904 309.52 86.064C309.52 88.224 310.048 89.868 311.104 90.996C312.16 92.124 313.48 92.688 315.064 92.688C316.456 92.688 317.608 92.328 318.52 91.608C319.456 90.888 320.044 89.904 320.284 88.656H324.64C324.232 90.984 323.188 92.832 321.508 94.2C319.828 95.568 317.704 96.252 315.136 96.252C313.216 96.252 311.512 95.844 310.024 95.028C308.56 94.212 307.408 93.036 306.568 91.5C305.728 89.964 305.308 88.152 305.308 86.064C305.308 84 305.728 82.2 306.568 80.664C307.408 79.128 308.56 77.952 310.024 77.136C311.512 76.32 313.216 75.912 315.136 75.912ZM346.317 85.128C346.317 85.8 346.269 86.388 346.173 86.892H330.909C330.981 88.932 331.545 90.444 332.601 91.428C333.657 92.412 334.965 92.904 336.525 92.904C337.893 92.904 339.045 92.556 339.981 91.86C340.941 91.164 341.529 90.24 341.745 89.088H346.137C345.873 90.48 345.321 91.716 344.481 92.796C343.641 93.876 342.549 94.728 341.205 95.352C339.861 95.952 338.361 96.252 336.705 96.252C334.785 96.252 333.081 95.844 331.593 95.028C330.129 94.212 328.977 93.036 328.137 91.5C327.297 89.964 326.877 88.152 326.877 86.064C326.877 84 327.297 82.2 328.137 80.664C328.977 79.128 330.129 77.952 331.593 77.136C333.081 76.32 334.785 75.912 336.705 75.912C338.649 75.912 340.341 76.32 341.781 77.136C343.245 77.928 344.361 79.032 345.129 80.448C345.921 81.84 346.317 83.4 346.317 85.128ZM342.177 85.02C342.225 83.724 341.997 82.644 341.493 81.78C341.013 80.892 340.341 80.244 339.477 79.836C338.637 79.404 337.713 79.188 336.705 79.188C335.097 79.188 333.753 79.68 332.673 80.664C331.593 81.648 331.005 83.1 330.909 85.02H342.177ZM356.075 75.912C358.403 75.912 360.263 76.512 361.655 77.712C363.071 78.888 363.935 80.472 364.247 82.464H360.359C360.191 81.384 359.723 80.52 358.955 79.872C358.211 79.2 357.215 78.864 355.967 78.864C354.935 78.864 354.131 79.116 353.555 79.62C353.003 80.1 352.727 80.76 352.727 81.6C352.727 82.224 352.931 82.728 353.339 83.112C353.747 83.496 354.251 83.796 354.851 84.012C355.475 84.228 356.351 84.468 357.479 84.732C358.967 85.068 360.167 85.416 361.079 85.776C362.015 86.136 362.807 86.712 363.455 87.504C364.127 88.272 364.463 89.328 364.463 90.672C364.463 92.328 363.827 93.672 362.555 94.704C361.307 95.736 359.615 96.252 357.479 96.252C355.007 96.252 353.003 95.676 351.467 94.524C349.955 93.372 349.043 91.764 348.731 89.7H352.727C352.847 90.78 353.327 91.656 354.167 92.328C355.007 93 356.111 93.336 357.479 93.336C358.463 93.336 359.231 93.084 359.783 92.58C360.359 92.052 360.647 91.392 360.647 90.6C360.647 89.904 360.431 89.352 359.999 88.944C359.567 88.536 359.027 88.224 358.379 88.008C357.731 87.768 356.843 87.528 355.715 87.288C354.275 86.952 353.099 86.616 352.187 86.28C351.299 85.944 350.531 85.404 349.883 84.66C349.259 83.892 348.947 82.86 348.947 81.564C348.947 79.884 349.571 78.528 350.819 77.496C352.091 76.44 353.843 75.912 356.075 75.912ZM365.375 98.52H401.375V62.52H365.375V98.52Z" fill="white"/>
<rect x="2.75" y="0.75" width="141.5" height="30.5" rx="15.25" stroke="#999999" stroke-width="1.5"/>
<path d="M23 9.07778V9C23 12.8111 19.9667 16 16.0778 16H16C19.8889 16 23 19.1111 23 23C23 19.0333 26.0333 16 30 16C26.1889 16 23 12.9667 23 9.07778Z" fill="#999999"/>
<path d="M36.888 20V11.6H38.304L41.1 17.288L43.884 11.6H45.3V20H44.1V13.712L41.556 18.848H40.632L38.088 13.736V20H36.888ZM49.5433 20V16.88L46.7833 11.6H48.1393L50.2393 15.896H50.0593L52.1593 11.6H53.5033L50.7433 16.88V20H49.5433ZM58.4289 20V11.6H63.7329V12.584H59.6289V15.272H63.3729V16.232H59.6289V19.016H63.7329V20H58.4289ZM65.2238 20L67.8158 15.752L65.2118 11.6H66.5798L68.5838 14.792L70.4558 11.6H71.8118L69.2198 15.8L71.8358 20H70.4678L68.4638 16.76L66.5798 20H65.2238ZM73.5161 20V11.6H76.3721C77.0441 11.6 77.5961 11.712 78.0281 11.936C78.4681 12.16 78.7921 12.464 79.0001 12.848C79.2081 13.224 79.3121 13.656 79.3121 14.144C79.3121 14.608 79.2081 15.032 79.0001 15.416C78.7921 15.8 78.4721 16.108 78.0401 16.34C77.6081 16.564 77.0521 16.676 76.3721 16.676H74.7161V20H73.5161ZM74.7161 15.68H76.3241C76.9641 15.68 77.4161 15.54 77.6801 15.26C77.9521 14.98 78.0881 14.608 78.0881 14.144C78.0881 13.656 77.9521 13.276 77.6801 13.004C77.4161 12.732 76.9641 12.596 76.3241 12.596H74.7161V15.68ZM80.9894 20V11.6H86.2934V12.584H82.1894V15.272H85.9334V16.232H82.1894V19.016H86.2934V20H80.9894ZM88.2283 20V11.6H91.0723C91.7363 11.6 92.2803 11.712 92.7043 11.936C93.1283 12.16 93.4403 12.46 93.6403 12.836C93.8483 13.204 93.9523 13.624 93.9523 14.096C93.9523 14.544 93.8483 14.96 93.6403 15.344C93.4403 15.72 93.1243 16.024 92.6923 16.256C92.2603 16.48 91.7083 16.592 91.0363 16.592H89.4283V20H88.2283ZM92.6443 20L90.8323 16.268H92.1523L94.0363 20H92.6443ZM89.4283 15.68H91.0003C91.5923 15.68 92.0243 15.536 92.2963 15.248C92.5763 14.952 92.7163 14.576 92.7163 14.12C92.7163 13.656 92.5803 13.288 92.3083 13.016C92.0363 12.744 91.5963 12.608 90.9883 12.608H89.4283V15.68ZM95.8891 20V11.6H97.0891V20H95.8891ZM99.2257 20V11.6H104.53V12.584H100.426V15.272H104.17V16.232H100.426V19.016H104.53V20H99.2257ZM106.465 20V11.6H107.665L111.949 18.044V11.6H113.149V20H111.949L107.665 13.556V20H106.465ZM118.933 20.144C118.117 20.144 117.413 19.964 116.821 19.604C116.229 19.236 115.773 18.728 115.453 18.08C115.133 17.424 114.973 16.664 114.973 15.8C114.973 14.944 115.133 14.188 115.453 13.532C115.773 12.876 116.229 12.368 116.821 12.008C117.413 11.64 118.117 11.456 118.933 11.456C119.909 11.456 120.701 11.692 121.309 12.164C121.917 12.636 122.305 13.3 122.473 14.156H121.165C121.037 13.66 120.789 13.264 120.421 12.968C120.053 12.672 119.553 12.524 118.921 12.524C118.369 12.524 117.885 12.656 117.469 12.92C117.061 13.184 116.745 13.56 116.521 14.048C116.305 14.536 116.197 15.12 116.197 15.8C116.197 16.48 116.305 17.068 116.521 17.564C116.745 18.052 117.061 18.428 117.469 18.692C117.885 18.948 118.369 19.076 118.921 19.076C119.553 19.076 120.053 18.936 120.421 18.656C120.789 18.368 121.037 17.98 121.165 17.492H122.473C122.305 18.324 121.917 18.976 121.309 19.448C120.701 19.912 119.909 20.144 118.933 20.144ZM124.294 20V11.6H129.598V12.584H125.494V15.272H129.238V16.232H125.494V19.016H129.598V20H124.294Z" fill="#999999"/>
</svg>
