<svg width="802" height="395" viewBox="0 0 802 395" fill="none" xmlns="http://www.w3.org/2000/svg">
<path d="M791.282 333L791.282 333.259C791.282 338.658 795.924 342.996 801.589 342.996" stroke="#999999" stroke-width="1.5" stroke-miterlimit="10"/>
<path d="M791.282 353L791.282 352.74C791.282 347.342 795.924 342.996 801.589 342.996" stroke="#999999" stroke-width="1.5" stroke-miterlimit="10"/>
<path d="M776 343L801.589 343L776 343Z" fill="white"/>
<path d="M776 343L801.589 343" stroke="#999999" stroke-width="1.5" stroke-miterlimit="10"/>
<path d="M247.192 324.468V326.492H240.526V331.31H246.026V333.246H240.526V340H238.018V324.468H247.192ZM260.382 327.878V340H257.852V337.36C257.544 338.255 257.009 338.951 256.246 339.45C255.484 339.934 254.596 340.176 253.584 340.176C252.176 340.176 251.047 339.721 250.196 338.812C249.346 337.903 248.92 336.605 248.92 334.918V327.878H251.428V334.654C251.428 335.754 251.707 336.605 252.264 337.206C252.822 337.793 253.584 338.086 254.552 338.086C255.55 338.086 256.349 337.763 256.95 337.118C257.552 336.473 257.852 335.534 257.852 334.302V327.878H260.382ZM265.674 323.72V340H263.166V323.72H265.674ZM270.997 323.72V340H268.489V323.72H270.997ZM288.956 335.864C288.956 336.627 288.773 337.338 288.406 337.998C288.039 338.643 287.482 339.164 286.734 339.56C285.986 339.956 285.069 340.154 283.984 340.154C282.928 340.154 281.982 339.971 281.146 339.604C280.31 339.223 279.643 338.695 279.144 338.02C278.645 337.345 278.359 336.568 278.286 335.688H280.97C281.043 336.363 281.329 336.942 281.828 337.426C282.341 337.91 283.023 338.152 283.874 338.152C284.637 338.152 285.223 337.947 285.634 337.536C286.059 337.125 286.272 336.597 286.272 335.952C286.272 335.395 286.118 334.94 285.81 334.588C285.502 334.221 285.121 333.935 284.666 333.73C284.211 333.525 283.588 333.29 282.796 333.026C281.828 332.718 281.036 332.41 280.42 332.102C279.819 331.794 279.305 331.347 278.88 330.76C278.455 330.173 278.242 329.403 278.242 328.45C278.242 327.614 278.447 326.881 278.858 326.25C279.269 325.619 279.855 325.135 280.618 324.798C281.381 324.446 282.261 324.27 283.258 324.27C284.842 324.27 286.096 324.651 287.02 325.414C287.959 326.177 288.494 327.174 288.626 328.406H285.92C285.817 327.819 285.539 327.321 285.084 326.91C284.644 326.485 284.035 326.272 283.258 326.272C282.554 326.272 281.989 326.455 281.564 326.822C281.139 327.174 280.926 327.687 280.926 328.362C280.926 328.89 281.073 329.33 281.366 329.682C281.659 330.019 282.026 330.291 282.466 330.496C282.921 330.687 283.537 330.914 284.314 331.178C285.297 331.486 286.096 331.801 286.712 332.124C287.343 332.432 287.871 332.887 288.296 333.488C288.736 334.089 288.956 334.881 288.956 335.864ZM297.341 337.822V340H295.801C294.51 340 293.527 339.692 292.853 339.076C292.193 338.445 291.863 337.404 291.863 335.952V330.012H290.125V327.878H291.863V324.864H294.393V327.878H297.319V330.012H294.393V335.996C294.393 336.685 294.517 337.162 294.767 337.426C295.031 337.69 295.485 337.822 296.131 337.822H297.341ZM304.332 327.724C305.432 327.724 306.371 327.995 307.148 328.538C307.926 329.081 308.476 329.799 308.798 330.694V327.878H311.306V340H308.798V337.184C308.476 338.079 307.926 338.797 307.148 339.34C306.371 339.883 305.432 340.154 304.332 340.154C303.276 340.154 302.33 339.905 301.494 339.406C300.673 338.907 300.028 338.189 299.558 337.25C299.089 336.311 298.854 335.204 298.854 333.928C298.854 332.667 299.089 331.567 299.558 330.628C300.028 329.689 300.673 328.971 301.494 328.472C302.33 327.973 303.276 327.724 304.332 327.724ZM305.102 329.924C303.988 329.924 303.093 330.283 302.418 331.002C301.758 331.706 301.428 332.681 301.428 333.928C301.428 335.175 301.758 336.157 302.418 336.876C303.093 337.58 303.988 337.932 305.102 337.932C305.806 337.932 306.437 337.771 306.994 337.448C307.552 337.111 307.992 336.641 308.314 336.04C308.637 335.439 308.798 334.735 308.798 333.928C308.798 333.136 308.637 332.439 308.314 331.838C307.992 331.222 307.552 330.753 306.994 330.43C306.437 330.093 305.806 329.924 305.102 329.924ZM319.486 327.724C321.055 327.724 322.353 328.142 323.38 328.978C324.407 329.799 325.045 330.921 325.294 332.344H322.632C322.485 331.581 322.126 330.987 321.554 330.562C320.997 330.122 320.293 329.902 319.442 329.902C318.474 329.902 317.667 330.247 317.022 330.936C316.377 331.611 316.054 332.608 316.054 333.928C316.054 335.248 316.377 336.253 317.022 336.942C317.667 337.631 318.474 337.976 319.442 337.976C320.293 337.976 320.997 337.756 321.554 337.316C322.126 336.876 322.485 336.275 322.632 335.512H325.294C325.045 336.935 324.407 338.064 323.38 338.9C322.353 339.736 321.055 340.154 319.486 340.154C318.313 340.154 317.271 339.905 316.362 339.406C315.467 338.907 314.763 338.189 314.25 337.25C313.737 336.311 313.48 335.204 313.48 333.928C313.48 332.667 313.737 331.567 314.25 330.628C314.763 329.689 315.467 328.971 316.362 328.472C317.271 327.973 318.313 327.724 319.486 327.724ZM334.361 340L330.005 334.61V340H327.497V323.72H330.005V333.048L334.317 327.878H337.331L332.051 333.906L337.463 340H334.361ZM357.147 332.212C357.147 333.781 356.824 335.153 356.179 336.326C355.548 337.485 354.617 338.387 353.385 339.032C352.167 339.677 350.708 340 349.007 340H343.815V324.468H349.007C350.708 324.468 352.167 324.791 353.385 325.436C354.617 326.067 355.548 326.961 356.179 328.12C356.824 329.279 357.147 330.643 357.147 332.212ZM348.809 337.734C350.671 337.734 352.101 337.25 353.099 336.282C354.096 335.314 354.595 333.957 354.595 332.212C354.595 330.467 354.096 329.11 353.099 328.142C352.101 327.174 350.671 326.69 348.809 326.69H346.323V337.734H348.809ZM370.714 333.356C370.714 333.767 370.685 334.126 370.626 334.434H361.298C361.342 335.681 361.687 336.605 362.332 337.206C362.978 337.807 363.777 338.108 364.73 338.108C365.566 338.108 366.27 337.895 366.842 337.47C367.429 337.045 367.788 336.48 367.92 335.776H370.604C370.443 336.627 370.106 337.382 369.592 338.042C369.079 338.702 368.412 339.223 367.59 339.604C366.769 339.971 365.852 340.154 364.84 340.154C363.667 340.154 362.626 339.905 361.716 339.406C360.822 338.907 360.118 338.189 359.604 337.25C359.091 336.311 358.834 335.204 358.834 333.928C358.834 332.667 359.091 331.567 359.604 330.628C360.118 329.689 360.822 328.971 361.716 328.472C362.626 327.973 363.667 327.724 364.84 327.724C366.028 327.724 367.062 327.973 367.942 328.472C368.837 328.956 369.519 329.631 369.988 330.496C370.472 331.347 370.714 332.3 370.714 333.356ZM368.184 333.29C368.214 332.498 368.074 331.838 367.766 331.31C367.473 330.767 367.062 330.371 366.534 330.122C366.021 329.858 365.456 329.726 364.84 329.726C363.858 329.726 363.036 330.027 362.376 330.628C361.716 331.229 361.357 332.117 361.298 333.29H368.184ZM377.888 337.404L381.32 327.878H384.004L379.384 340H376.348L371.728 327.878H374.412L377.888 337.404ZM396.893 333.356C396.893 333.767 396.864 334.126 396.805 334.434H387.477C387.521 335.681 387.866 336.605 388.511 337.206C389.157 337.807 389.956 338.108 390.909 338.108C391.745 338.108 392.449 337.895 393.021 337.47C393.608 337.045 393.967 336.48 394.099 335.776H396.783C396.622 336.627 396.285 337.382 395.771 338.042C395.258 338.702 394.591 339.223 393.769 339.604C392.948 339.971 392.031 340.154 391.019 340.154C389.846 340.154 388.805 339.905 387.895 339.406C387.001 338.907 386.297 338.189 385.783 337.25C385.27 336.311 385.013 335.204 385.013 333.928C385.013 332.667 385.27 331.567 385.783 330.628C386.297 329.689 387.001 328.971 387.895 328.472C388.805 327.973 389.846 327.724 391.019 327.724C392.207 327.724 393.241 327.973 394.121 328.472C395.016 328.956 395.698 329.631 396.167 330.496C396.651 331.347 396.893 332.3 396.893 333.356ZM394.363 333.29C394.393 332.498 394.253 331.838 393.945 331.31C393.652 330.767 393.241 330.371 392.713 330.122C392.2 329.858 391.635 329.726 391.019 329.726C390.037 329.726 389.215 330.027 388.555 330.628C387.895 331.229 387.536 332.117 387.477 333.29H394.363ZM401.603 323.72V340H399.095V323.72H401.603ZM409.962 327.724C411.135 327.724 412.191 327.973 413.13 328.472C414.069 328.971 414.802 329.689 415.33 330.628C415.858 331.567 416.122 332.667 416.122 333.928C416.122 335.204 415.858 336.311 415.33 337.25C414.802 338.189 414.069 338.907 413.13 339.406C412.191 339.905 411.135 340.154 409.962 340.154C408.789 340.154 407.733 339.905 406.794 339.406C405.87 338.907 405.137 338.189 404.594 337.25C404.066 336.297 403.802 335.189 403.802 333.928C403.802 332.667 404.066 331.567 404.594 330.628C405.137 329.689 405.87 328.971 406.794 328.472C407.733 327.973 408.789 327.724 409.962 327.724ZM409.962 329.902C409.317 329.902 408.723 330.049 408.18 330.342C407.637 330.635 407.197 331.09 406.86 331.706C406.537 332.307 406.376 333.048 406.376 333.928C406.376 334.823 406.537 335.571 406.86 336.172C407.197 336.773 407.637 337.221 408.18 337.514C408.723 337.807 409.317 337.954 409.962 337.954C410.607 337.954 411.201 337.807 411.744 337.514C412.287 337.221 412.719 336.773 413.042 336.172C413.379 335.571 413.548 334.823 413.548 333.928C413.548 333.048 413.379 332.307 413.042 331.706C412.719 331.09 412.287 330.635 411.744 330.342C411.201 330.049 410.607 329.902 409.962 329.902ZM425.265 327.724C426.321 327.724 427.26 327.973 428.081 328.472C428.917 328.971 429.57 329.689 430.039 330.628C430.508 331.567 430.743 332.667 430.743 333.928C430.743 335.204 430.508 336.311 430.039 337.25C429.57 338.189 428.917 338.907 428.081 339.406C427.26 339.905 426.321 340.154 425.265 340.154C424.165 340.154 423.226 339.883 422.449 339.34C421.672 338.797 421.129 338.079 420.821 337.184V345.764H418.313V327.878H420.821V330.694C421.129 329.799 421.672 329.081 422.449 328.538C423.226 327.995 424.165 327.724 425.265 327.724ZM424.495 329.924C423.791 329.924 423.16 330.093 422.603 330.43C422.046 330.753 421.606 331.222 421.283 331.838C420.96 332.439 420.799 333.136 420.799 333.928C420.799 334.735 420.96 335.439 421.283 336.04C421.606 336.641 422.046 337.111 422.603 337.448C423.16 337.771 423.791 337.932 424.495 337.932C425.61 337.932 426.504 337.58 427.179 336.876C427.854 336.157 428.191 335.175 428.191 333.928C428.191 332.696 427.854 331.721 427.179 331.002C426.504 330.283 425.61 329.924 424.495 329.924ZM444.203 333.356C444.203 333.767 444.174 334.126 444.115 334.434H434.787C434.831 335.681 435.176 336.605 435.821 337.206C436.466 337.807 437.266 338.108 438.219 338.108C439.055 338.108 439.759 337.895 440.331 337.47C440.918 337.045 441.277 336.48 441.409 335.776H444.093C443.932 336.627 443.594 337.382 443.081 338.042C442.568 338.702 441.9 339.223 441.079 339.604C440.258 339.971 439.341 340.154 438.329 340.154C437.156 340.154 436.114 339.905 435.205 339.406C434.31 338.907 433.606 338.189 433.093 337.25C432.58 336.311 432.323 335.204 432.323 333.928C432.323 332.667 432.58 331.567 433.093 330.628C433.606 329.689 434.31 328.971 435.205 328.472C436.114 327.973 437.156 327.724 438.329 327.724C439.517 327.724 440.551 327.973 441.431 328.472C442.326 328.956 443.008 329.631 443.477 330.496C443.961 331.347 444.203 332.3 444.203 333.356ZM441.673 333.29C441.702 332.498 441.563 331.838 441.255 331.31C440.962 330.767 440.551 330.371 440.023 330.122C439.51 329.858 438.945 329.726 438.329 329.726C437.346 329.726 436.525 330.027 435.865 330.628C435.205 331.229 434.846 332.117 434.787 333.29H441.673ZM448.912 330.254C449.323 329.462 449.91 328.839 450.672 328.384C451.435 327.915 452.315 327.68 453.312 327.68V330.408H452.564C451.464 330.408 450.577 330.679 449.902 331.222C449.242 331.75 448.912 332.63 448.912 333.862V340H446.404V327.878H448.912V330.254Z" fill="white"/>
<path d="M237.388 366V357.6H242.62V358.584H238.588V361.308H241.96V362.268H238.588V366H237.388ZM244.275 366V357.6H247.119C247.783 357.6 248.327 357.712 248.751 357.936C249.175 358.16 249.487 358.46 249.687 358.836C249.895 359.204 249.999 359.624 249.999 360.096C249.999 360.544 249.895 360.96 249.687 361.344C249.487 361.72 249.171 362.024 248.739 362.256C248.307 362.48 247.755 362.592 247.083 362.592H245.475V366H244.275ZM248.691 366L246.879 362.268H248.199L250.083 366H248.691ZM245.475 361.68H247.047C247.639 361.68 248.071 361.536 248.343 361.248C248.623 360.952 248.763 360.576 248.763 360.12C248.763 359.656 248.627 359.288 248.355 359.016C248.083 358.744 247.643 358.608 247.035 358.608H245.475V361.68ZM251.936 366V357.6H257.24V358.584H253.136V361.272H256.88V362.232H253.136V365.016H257.24V366H251.936ZM259.175 366V357.6H264.479V358.584H260.375V361.272H264.119V362.232H260.375V365.016H264.479V366H259.175ZM266.414 366V357.6H267.614V365.052H271.454V366H266.414ZM272.691 366L275.787 357.6H277.095L280.167 366H278.895L276.423 359.04L273.951 366H272.691ZM274.095 363.924L274.419 362.964H278.379L278.703 363.924H274.095ZM281.747 366V357.6H282.947L287.231 364.044V357.6H288.431V366H287.231L282.947 359.556V366H281.747ZM294.216 366.144C293.4 366.144 292.696 365.964 292.104 365.604C291.512 365.236 291.056 364.728 290.736 364.08C290.416 363.424 290.256 362.664 290.256 361.8C290.256 360.944 290.416 360.188 290.736 359.532C291.056 358.876 291.512 358.368 292.104 358.008C292.696 357.64 293.4 357.456 294.216 357.456C295.192 357.456 295.984 357.692 296.592 358.164C297.2 358.636 297.588 359.3 297.756 360.156H296.448C296.32 359.66 296.072 359.264 295.704 358.968C295.336 358.672 294.836 358.524 294.204 358.524C293.652 358.524 293.168 358.656 292.752 358.92C292.344 359.184 292.028 359.56 291.804 360.048C291.588 360.536 291.48 361.12 291.48 361.8C291.48 362.48 291.588 363.068 291.804 363.564C292.028 364.052 292.344 364.428 292.752 364.692C293.168 364.948 293.652 365.076 294.204 365.076C294.836 365.076 295.336 364.936 295.704 364.656C296.072 364.368 296.32 363.98 296.448 363.492H297.756C297.588 364.324 297.2 364.976 296.592 365.448C295.984 365.912 295.192 366.144 294.216 366.144ZM299.577 366V357.6H304.881V358.584H300.777V361.272H304.521V362.232H300.777V365.016H304.881V366H299.577Z" fill="#999999"/>
<rect x="68" y="323" width="116" height="26" rx="13" fill="#DFF314"/>
<path d="M110.444 340V339.136C111.012 338.704 111.548 338.268 112.052 337.828C112.564 337.388 113.02 336.952 113.42 336.52C113.82 336.08 114.132 335.652 114.356 335.236C114.588 334.812 114.704 334.408 114.704 334.024C114.704 333.752 114.652 333.5 114.548 333.268C114.452 333.036 114.296 332.848 114.08 332.704C113.872 332.552 113.588 332.476 113.228 332.476C112.876 332.476 112.584 332.552 112.352 332.704C112.12 332.856 111.944 333.06 111.824 333.316C111.712 333.564 111.656 333.84 111.656 334.144H110.492C110.5 333.568 110.624 333.08 110.864 332.68C111.104 332.28 111.432 331.976 111.848 331.768C112.264 331.56 112.732 331.456 113.252 331.456C113.788 331.456 114.252 331.556 114.644 331.756C115.036 331.948 115.344 332.232 115.568 332.608C115.792 332.984 115.904 333.436 115.904 333.964C115.904 334.348 115.824 334.732 115.664 335.116C115.512 335.492 115.304 335.86 115.04 336.22C114.776 336.58 114.48 336.928 114.152 337.264C113.832 337.592 113.5 337.904 113.156 338.2C112.812 338.496 112.484 338.764 112.172 339.004H116.156V340H110.444ZM121.054 340.144C120.326 340.144 119.698 339.964 119.17 339.604C118.65 339.236 118.25 338.728 117.97 338.08C117.69 337.424 117.55 336.664 117.55 335.8C117.55 334.936 117.69 334.18 117.97 333.532C118.25 332.876 118.65 332.368 119.17 332.008C119.698 331.64 120.326 331.456 121.054 331.456C121.79 331.456 122.414 331.64 122.926 332.008C123.446 332.368 123.846 332.876 124.126 333.532C124.414 334.18 124.558 334.936 124.558 335.8C124.558 336.664 124.414 337.424 124.126 338.08C123.846 338.728 123.446 339.236 122.926 339.604C122.414 339.964 121.79 340.144 121.054 340.144ZM121.054 339.076C121.494 339.076 121.882 338.944 122.218 338.68C122.562 338.416 122.83 338.04 123.022 337.552C123.222 337.064 123.322 336.48 123.322 335.8C123.322 335.112 123.222 334.528 123.022 334.048C122.83 333.56 122.562 333.188 122.218 332.932C121.882 332.668 121.494 332.536 121.054 332.536C120.614 332.536 120.222 332.668 119.878 332.932C119.534 333.188 119.262 333.56 119.062 334.048C118.87 334.528 118.774 335.112 118.774 335.8C118.774 336.48 118.87 337.064 119.062 337.552C119.262 338.04 119.534 338.416 119.878 338.68C120.222 338.944 120.614 339.076 121.054 339.076ZM126.105 340V339.136C126.673 338.704 127.209 338.268 127.713 337.828C128.225 337.388 128.681 336.952 129.081 336.52C129.481 336.08 129.793 335.652 130.017 335.236C130.249 334.812 130.365 334.408 130.365 334.024C130.365 333.752 130.313 333.5 130.209 333.268C130.113 333.036 129.957 332.848 129.741 332.704C129.533 332.552 129.249 332.476 128.889 332.476C128.537 332.476 128.245 332.552 128.013 332.704C127.781 332.856 127.605 333.06 127.485 333.316C127.373 333.564 127.317 333.84 127.317 334.144H126.153C126.161 333.568 126.285 333.08 126.525 332.68C126.765 332.28 127.093 331.976 127.509 331.768C127.925 331.56 128.393 331.456 128.913 331.456C129.449 331.456 129.913 331.556 130.305 331.756C130.697 331.948 131.005 332.232 131.229 332.608C131.453 332.984 131.565 333.436 131.565 333.964C131.565 334.348 131.485 334.732 131.325 335.116C131.173 335.492 130.965 335.86 130.701 336.22C130.437 336.58 130.141 336.928 129.813 337.264C129.493 337.592 129.161 337.904 128.817 338.2C128.473 338.496 128.145 338.764 127.833 339.004H131.817V340H126.105ZM136.665 340.144C136.049 340.144 135.529 340.032 135.105 339.808C134.689 339.576 134.357 339.268 134.109 338.884C133.861 338.5 133.677 338.068 133.557 337.588C133.445 337.108 133.389 336.616 133.389 336.112C133.389 335.184 133.517 334.372 133.773 333.676C134.029 332.98 134.401 332.436 134.889 332.044C135.377 331.652 135.965 331.456 136.653 331.456C137.197 331.456 137.661 331.564 138.045 331.78C138.437 331.988 138.745 332.264 138.969 332.608C139.193 332.952 139.329 333.332 139.377 333.748H138.261C138.181 333.34 138.001 333.028 137.721 332.812C137.441 332.588 137.081 332.476 136.641 332.476C136.241 332.476 135.885 332.6 135.573 332.848C135.269 333.088 135.025 333.456 134.841 333.952C134.665 334.448 134.565 335.076 134.541 335.836C134.541 335.852 134.541 335.868 134.541 335.884C134.541 335.9 134.541 335.916 134.541 335.932C134.661 335.692 134.829 335.472 135.045 335.272C135.269 335.072 135.533 334.912 135.837 334.792C136.149 334.672 136.485 334.612 136.845 334.612C137.317 334.612 137.753 334.724 138.153 334.948C138.561 335.164 138.889 335.476 139.137 335.884C139.393 336.292 139.521 336.768 139.521 337.312C139.521 337.8 139.405 338.26 139.173 338.692C138.941 339.124 138.609 339.476 138.177 339.748C137.753 340.012 137.249 340.144 136.665 340.144ZM136.581 339.1C136.917 339.1 137.217 339.028 137.481 338.884C137.745 338.732 137.953 338.524 138.105 338.26C138.257 337.996 138.333 337.696 138.333 337.36C138.333 337.016 138.257 336.716 138.105 336.46C137.953 336.196 137.745 335.992 137.481 335.848C137.217 335.704 136.917 335.632 136.581 335.632C136.245 335.632 135.941 335.708 135.669 335.86C135.397 336.012 135.181 336.22 135.021 336.484C134.869 336.748 134.793 337.044 134.793 337.372C134.793 337.708 134.869 338.008 135.021 338.272C135.181 338.528 135.397 338.732 135.669 338.884C135.941 339.028 136.245 339.1 136.581 339.1Z" fill="#181818"/>
<line x1="67" y1="289.25" x2="802" y2="289.25" stroke="#333333" stroke-width="1.5"/>
<path d="M791.282 228L791.282 228.259C791.282 233.658 795.924 237.996 801.589 237.996" stroke="#999999" stroke-width="1.5" stroke-miterlimit="10"/>
<path d="M791.282 248L791.282 247.74C791.282 242.342 795.924 237.996 801.589 237.996" stroke="#999999" stroke-width="1.5" stroke-miterlimit="10"/>
<path d="M776 238L801.589 238L776 238Z" fill="white"/>
<path d="M776 238L801.589 238" stroke="#999999" stroke-width="1.5" stroke-miterlimit="10"/>
<path d="M251.868 231.876H245.466L244.366 235H241.748L247.226 219.688H250.13L255.608 235H252.968L251.868 231.876ZM251.164 229.83L248.678 222.724L246.17 229.83H251.164ZM262.17 235.198C261.217 235.198 260.359 235.029 259.596 234.692C258.848 234.34 258.254 233.871 257.814 233.284C257.374 232.683 257.139 232.015 257.11 231.282H259.706C259.75 231.795 259.992 232.228 260.432 232.58C260.887 232.917 261.451 233.086 262.126 233.086C262.83 233.086 263.373 232.954 263.754 232.69C264.15 232.411 264.348 232.059 264.348 231.634C264.348 231.179 264.128 230.842 263.688 230.622C263.263 230.402 262.581 230.16 261.642 229.896C260.733 229.647 259.992 229.405 259.42 229.17C258.848 228.935 258.349 228.576 257.924 228.092C257.513 227.608 257.308 226.97 257.308 226.178C257.308 225.533 257.499 224.946 257.88 224.418C258.261 223.875 258.804 223.45 259.508 223.142C260.227 222.834 261.048 222.68 261.972 222.68C263.351 222.68 264.458 223.032 265.294 223.736C266.145 224.425 266.599 225.371 266.658 226.574H264.15C264.106 226.031 263.886 225.599 263.49 225.276C263.094 224.953 262.559 224.792 261.884 224.792C261.224 224.792 260.718 224.917 260.366 225.166C260.014 225.415 259.838 225.745 259.838 226.156C259.838 226.479 259.955 226.75 260.19 226.97C260.425 227.19 260.711 227.366 261.048 227.498C261.385 227.615 261.884 227.769 262.544 227.96C263.424 228.195 264.143 228.437 264.7 228.686C265.272 228.921 265.763 229.273 266.174 229.742C266.585 230.211 266.797 230.835 266.812 231.612C266.812 232.301 266.621 232.917 266.24 233.46C265.859 234.003 265.316 234.428 264.612 234.736C263.923 235.044 263.109 235.198 262.17 235.198ZM273.702 235.198C272.748 235.198 271.89 235.029 271.128 234.692C270.38 234.34 269.786 233.871 269.346 233.284C268.906 232.683 268.671 232.015 268.642 231.282H271.238C271.282 231.795 271.524 232.228 271.964 232.58C272.418 232.917 272.983 233.086 273.658 233.086C274.362 233.086 274.904 232.954 275.286 232.69C275.682 232.411 275.88 232.059 275.88 231.634C275.88 231.179 275.66 230.842 275.22 230.622C274.794 230.402 274.112 230.16 273.174 229.896C272.264 229.647 271.524 229.405 270.952 229.17C270.38 228.935 269.881 228.576 269.456 228.092C269.045 227.608 268.84 226.97 268.84 226.178C268.84 225.533 269.03 224.946 269.412 224.418C269.793 223.875 270.336 223.45 271.04 223.142C271.758 222.834 272.58 222.68 273.504 222.68C274.882 222.68 275.99 223.032 276.826 223.736C277.676 224.425 278.131 225.371 278.19 226.574H275.682C275.638 226.031 275.418 225.599 275.022 225.276C274.626 224.953 274.09 224.792 273.416 224.792C272.756 224.792 272.25 224.917 271.898 225.166C271.546 225.415 271.37 225.745 271.37 226.156C271.37 226.479 271.487 226.75 271.722 226.97C271.956 227.19 272.242 227.366 272.58 227.498C272.917 227.615 273.416 227.769 274.076 227.96C274.956 228.195 275.674 228.437 276.232 228.686C276.804 228.921 277.295 229.273 277.706 229.742C278.116 230.211 278.329 230.835 278.344 231.612C278.344 232.301 278.153 232.917 277.772 233.46C277.39 234.003 276.848 234.428 276.144 234.736C275.454 235.044 274.64 235.198 273.702 235.198ZM282.11 221.272C281.655 221.272 281.274 221.118 280.966 220.81C280.658 220.502 280.504 220.121 280.504 219.666C280.504 219.211 280.658 218.83 280.966 218.522C281.274 218.214 281.655 218.06 282.11 218.06C282.55 218.06 282.924 218.214 283.232 218.522C283.54 218.83 283.694 219.211 283.694 219.666C283.694 220.121 283.54 220.502 283.232 220.81C282.924 221.118 282.55 221.272 282.11 221.272ZM283.342 222.878V235H280.834V222.878H283.342ZM290.815 235.198C289.861 235.198 289.003 235.029 288.241 234.692C287.493 234.34 286.899 233.871 286.459 233.284C286.019 232.683 285.784 232.015 285.755 231.282H288.351C288.395 231.795 288.637 232.228 289.077 232.58C289.531 232.917 290.096 233.086 290.771 233.086C291.475 233.086 292.017 232.954 292.399 232.69C292.795 232.411 292.993 232.059 292.993 231.634C292.993 231.179 292.773 230.842 292.333 230.622C291.907 230.402 291.225 230.16 290.287 229.896C289.377 229.647 288.637 229.405 288.065 229.17C287.493 228.935 286.994 228.576 286.569 228.092C286.158 227.608 285.953 226.97 285.953 226.178C285.953 225.533 286.143 224.946 286.525 224.418C286.906 223.875 287.449 223.45 288.153 223.142C288.871 222.834 289.693 222.68 290.617 222.68C291.995 222.68 293.103 223.032 293.939 223.736C294.789 224.425 295.244 225.371 295.303 226.574H292.795C292.751 226.031 292.531 225.599 292.135 225.276C291.739 224.953 291.203 224.792 290.529 224.792C289.869 224.792 289.363 224.917 289.011 225.166C288.659 225.415 288.483 225.745 288.483 226.156C288.483 226.479 288.6 226.75 288.835 226.97C289.069 227.19 289.355 227.366 289.693 227.498C290.03 227.615 290.529 227.769 291.189 227.96C292.069 228.195 292.787 228.437 293.345 228.686C293.917 228.921 294.408 229.273 294.819 229.742C295.229 230.211 295.442 230.835 295.457 231.612C295.457 232.301 295.266 232.917 294.885 233.46C294.503 234.003 293.961 234.428 293.257 234.736C292.567 235.044 291.753 235.198 290.815 235.198ZM300.872 224.924V231.634C300.872 232.089 300.975 232.419 301.18 232.624C301.4 232.815 301.767 232.91 302.28 232.91H303.82V235H301.84C300.711 235 299.846 234.736 299.244 234.208C298.643 233.68 298.342 232.822 298.342 231.634V224.924H296.912V222.878H298.342V219.864H300.872V222.878H303.82V224.924H300.872ZM305.076 228.884C305.076 227.667 305.325 226.589 305.824 225.65C306.337 224.711 307.027 223.985 307.892 223.472C308.772 222.944 309.74 222.68 310.796 222.68C311.749 222.68 312.578 222.871 313.282 223.252C314.001 223.619 314.573 224.081 314.998 224.638V222.878H317.528V235H314.998V233.196C314.573 233.768 313.993 234.245 313.26 234.626C312.527 235.007 311.691 235.198 310.752 235.198C309.711 235.198 308.757 234.934 307.892 234.406C307.027 233.863 306.337 233.115 305.824 232.162C305.325 231.194 305.076 230.101 305.076 228.884ZM314.998 228.928C314.998 228.092 314.822 227.366 314.47 226.75C314.133 226.134 313.685 225.665 313.128 225.342C312.571 225.019 311.969 224.858 311.324 224.858C310.679 224.858 310.077 225.019 309.52 225.342C308.963 225.65 308.508 226.112 308.156 226.728C307.819 227.329 307.65 228.048 307.65 228.884C307.65 229.72 307.819 230.453 308.156 231.084C308.508 231.715 308.963 232.199 309.52 232.536C310.092 232.859 310.693 233.02 311.324 233.02C311.969 233.02 312.571 232.859 313.128 232.536C313.685 232.213 314.133 231.744 314.47 231.128C314.822 230.497 314.998 229.764 314.998 228.928ZM326.718 222.68C327.672 222.68 328.522 222.878 329.27 223.274C330.033 223.67 330.627 224.257 331.052 225.034C331.478 225.811 331.69 226.75 331.69 227.85V235H329.204V228.224C329.204 227.139 328.933 226.31 328.39 225.738C327.848 225.151 327.107 224.858 326.168 224.858C325.23 224.858 324.482 225.151 323.924 225.738C323.382 226.31 323.11 227.139 323.11 228.224V235H320.602V222.878H323.11V224.264C323.521 223.765 324.042 223.377 324.672 223.098C325.318 222.819 326 222.68 326.718 222.68ZM337.595 224.924V231.634C337.595 232.089 337.698 232.419 337.903 232.624C338.123 232.815 338.49 232.91 339.003 232.91H340.543V235H338.563C337.434 235 336.569 234.736 335.967 234.208C335.366 233.68 335.065 232.822 335.065 231.634V224.924H333.635V222.878H335.065V219.864H337.595V222.878H340.543V224.924H337.595ZM350.638 221.734V226.222H355.918V228.268H350.638V232.954H356.578V235H348.13V219.688H356.578V221.734H350.638ZM365.563 222.68C366.516 222.68 367.367 222.878 368.115 223.274C368.877 223.67 369.471 224.257 369.897 225.034C370.322 225.811 370.535 226.75 370.535 227.85V235H368.049V228.224C368.049 227.139 367.777 226.31 367.235 225.738C366.692 225.151 365.951 224.858 365.013 224.858C364.074 224.858 363.326 225.151 362.769 225.738C362.226 226.31 361.955 227.139 361.955 228.224V235H359.447V222.878H361.955V224.264C362.365 223.765 362.886 223.377 363.517 223.098C364.162 222.819 364.844 222.68 365.563 222.68ZM372.678 228.884C372.678 227.667 372.927 226.589 373.426 225.65C373.939 224.711 374.629 223.985 375.494 223.472C376.374 222.944 377.349 222.68 378.42 222.68C379.212 222.68 379.989 222.856 380.752 223.208C381.529 223.545 382.145 224 382.6 224.572V218.72H385.13V235H382.6V233.174C382.189 233.761 381.617 234.245 380.884 234.626C380.165 235.007 379.337 235.198 378.398 235.198C377.342 235.198 376.374 234.934 375.494 234.406C374.629 233.863 373.939 233.115 373.426 232.162C372.927 231.194 372.678 230.101 372.678 228.884ZM382.6 228.928C382.6 228.092 382.424 227.366 382.072 226.75C381.735 226.134 381.287 225.665 380.73 225.342C380.173 225.019 379.571 224.858 378.926 224.858C378.281 224.858 377.679 225.019 377.122 225.342C376.565 225.65 376.11 226.112 375.758 226.728C375.421 227.329 375.252 228.048 375.252 228.884C375.252 229.72 375.421 230.453 375.758 231.084C376.11 231.715 376.565 232.199 377.122 232.536C377.694 232.859 378.295 233.02 378.926 233.02C379.571 233.02 380.173 232.859 380.73 232.536C381.287 232.213 381.735 231.744 382.072 231.128C382.424 230.497 382.6 229.764 382.6 228.928ZM397.51 225.98V228.092H388.468V225.98H397.51ZM411.831 222.878V235H409.323V233.57C408.927 234.069 408.407 234.465 407.761 234.758C407.131 235.037 406.456 235.176 405.737 235.176C404.784 235.176 403.926 234.978 403.163 234.582C402.415 234.186 401.821 233.599 401.381 232.822C400.956 232.045 400.743 231.106 400.743 230.006V222.878H403.229V229.632C403.229 230.717 403.501 231.553 404.043 232.14C404.586 232.712 405.327 232.998 406.265 232.998C407.204 232.998 407.945 232.712 408.487 232.14C409.045 231.553 409.323 230.717 409.323 229.632V222.878H411.831ZM419.32 235.198C418.367 235.198 417.509 235.029 416.746 234.692C415.998 234.34 415.404 233.871 414.964 233.284C414.524 232.683 414.29 232.015 414.26 231.282H416.856C416.9 231.795 417.142 232.228 417.582 232.58C418.037 232.917 418.602 233.086 419.276 233.086C419.98 233.086 420.523 232.954 420.904 232.69C421.3 232.411 421.498 232.059 421.498 231.634C421.498 231.179 421.278 230.842 420.838 230.622C420.413 230.402 419.731 230.16 418.792 229.896C417.883 229.647 417.142 229.405 416.57 229.17C415.998 228.935 415.5 228.576 415.074 228.092C414.664 227.608 414.458 226.97 414.458 226.178C414.458 225.533 414.649 224.946 415.03 224.418C415.412 223.875 415.954 223.45 416.658 223.142C417.377 222.834 418.198 222.68 419.122 222.68C420.501 222.68 421.608 223.032 422.444 223.736C423.295 224.425 423.75 225.371 423.808 226.574H421.3C421.256 226.031 421.036 225.599 420.64 225.276C420.244 224.953 419.709 224.792 419.034 224.792C418.374 224.792 417.868 224.917 417.516 225.166C417.164 225.415 416.988 225.745 416.988 226.156C416.988 226.479 417.106 226.75 417.34 226.97C417.575 227.19 417.861 227.366 418.198 227.498C418.536 227.615 419.034 227.769 419.694 227.96C420.574 228.195 421.293 228.437 421.85 228.686C422.422 228.921 422.914 229.273 423.324 229.742C423.735 230.211 423.948 230.835 423.962 231.612C423.962 232.301 423.772 232.917 423.39 233.46C423.009 234.003 422.466 234.428 421.762 234.736C421.073 235.044 420.259 235.198 419.32 235.198ZM437.562 228.642C437.562 229.097 437.533 229.507 437.474 229.874H428.212C428.286 230.842 428.645 231.619 429.29 232.206C429.936 232.793 430.728 233.086 431.666 233.086C433.016 233.086 433.969 232.521 434.526 231.392H437.232C436.866 232.507 436.198 233.423 435.23 234.142C434.277 234.846 433.089 235.198 431.666 235.198C430.508 235.198 429.466 234.941 428.542 234.428C427.633 233.9 426.914 233.167 426.386 232.228C425.873 231.275 425.616 230.175 425.616 228.928C425.616 227.681 425.866 226.589 426.364 225.65C426.878 224.697 427.589 223.963 428.498 223.45C429.422 222.937 430.478 222.68 431.666 222.68C432.81 222.68 433.83 222.929 434.724 223.428C435.619 223.927 436.316 224.631 436.814 225.54C437.313 226.435 437.562 227.469 437.562 228.642ZM434.944 227.85C434.93 226.926 434.6 226.185 433.954 225.628C433.309 225.071 432.51 224.792 431.556 224.792C430.691 224.792 429.95 225.071 429.334 225.628C428.718 226.171 428.352 226.911 428.234 227.85H434.944ZM442.318 224.638C442.685 224.022 443.169 223.545 443.77 223.208C444.386 222.856 445.112 222.68 445.948 222.68V225.276H445.31C444.328 225.276 443.58 225.525 443.066 226.024C442.568 226.523 442.318 227.388 442.318 228.62V235H439.81V222.878H442.318V224.638ZM457.929 235.198C456.975 235.198 456.117 235.029 455.355 234.692C454.607 234.34 454.013 233.871 453.573 233.284C453.133 232.683 452.898 232.015 452.869 231.282H455.465C455.509 231.795 455.751 232.228 456.191 232.58C456.645 232.917 457.21 233.086 457.885 233.086C458.589 233.086 459.131 232.954 459.513 232.69C459.909 232.411 460.107 232.059 460.107 231.634C460.107 231.179 459.887 230.842 459.447 230.622C459.021 230.402 458.339 230.16 457.401 229.896C456.491 229.647 455.751 229.405 455.179 229.17C454.607 228.935 454.108 228.576 453.683 228.092C453.272 227.608 453.067 226.97 453.067 226.178C453.067 225.533 453.257 224.946 453.639 224.418C454.02 223.875 454.563 223.45 455.267 223.142C455.985 222.834 456.807 222.68 457.731 222.68C459.109 222.68 460.217 223.032 461.053 223.736C461.903 224.425 462.358 225.371 462.417 226.574H459.909C459.865 226.031 459.645 225.599 459.249 225.276C458.853 224.953 458.317 224.792 457.643 224.792C456.983 224.792 456.477 224.917 456.125 225.166C455.773 225.415 455.597 225.745 455.597 226.156C455.597 226.479 455.714 226.75 455.949 226.97C456.183 227.19 456.469 227.366 456.807 227.498C457.144 227.615 457.643 227.769 458.303 227.96C459.183 228.195 459.901 228.437 460.459 228.686C461.031 228.921 461.522 229.273 461.933 229.742C462.343 230.211 462.556 230.835 462.571 231.612C462.571 232.301 462.38 232.917 461.999 233.46C461.617 234.003 461.075 234.428 460.371 234.736C459.681 235.044 458.867 235.198 457.929 235.198ZM476.039 222.878V235H473.531V233.57C473.135 234.069 472.614 234.465 471.969 234.758C471.338 235.037 470.663 235.176 469.945 235.176C468.991 235.176 468.133 234.978 467.371 234.582C466.623 234.186 466.029 233.599 465.589 232.822C465.163 232.045 464.951 231.106 464.951 230.006V222.878H467.437V229.632C467.437 230.717 467.708 231.553 468.251 232.14C468.793 232.712 469.534 232.998 470.473 232.998C471.411 232.998 472.152 232.712 472.695 232.14C473.252 231.553 473.531 230.717 473.531 229.632V222.878H476.039ZM481.636 224.66C482.061 224.103 482.64 223.633 483.374 223.252C484.107 222.871 484.936 222.68 485.86 222.68C486.916 222.68 487.876 222.944 488.742 223.472C489.622 223.985 490.311 224.711 490.81 225.65C491.308 226.589 491.558 227.667 491.558 228.884C491.558 230.101 491.308 231.194 490.81 232.162C490.311 233.115 489.622 233.863 488.742 234.406C487.876 234.934 486.916 235.198 485.86 235.198C484.936 235.198 484.114 235.015 483.396 234.648C482.677 234.267 482.09 233.797 481.636 233.24V240.764H479.128V222.878H481.636V224.66ZM489.006 228.884C489.006 228.048 488.83 227.329 488.478 226.728C488.14 226.112 487.686 225.65 487.114 225.342C486.556 225.019 485.955 224.858 485.31 224.858C484.679 224.858 484.078 225.019 483.506 225.342C482.948 225.665 482.494 226.134 482.142 226.75C481.804 227.366 481.636 228.092 481.636 228.928C481.636 229.764 481.804 230.497 482.142 231.128C482.494 231.744 482.948 232.213 483.506 232.536C484.078 232.859 484.679 233.02 485.31 233.02C485.955 233.02 486.556 232.859 487.114 232.536C487.686 232.199 488.14 231.715 488.478 231.084C488.83 230.453 489.006 229.72 489.006 228.884ZM496.326 224.66C496.751 224.103 497.33 223.633 498.064 223.252C498.797 222.871 499.626 222.68 500.55 222.68C501.606 222.68 502.566 222.944 503.432 223.472C504.312 223.985 505.001 224.711 505.5 225.65C505.998 226.589 506.248 227.667 506.248 228.884C506.248 230.101 505.998 231.194 505.5 232.162C505.001 233.115 504.312 233.863 503.432 234.406C502.566 234.934 501.606 235.198 500.55 235.198C499.626 235.198 498.804 235.015 498.086 234.648C497.367 234.267 496.78 233.797 496.326 233.24V240.764H493.818V222.878H496.326V224.66ZM503.696 228.884C503.696 228.048 503.52 227.329 503.168 226.728C502.83 226.112 502.376 225.65 501.804 225.342C501.246 225.019 500.645 224.858 500 224.858C499.369 224.858 498.768 225.019 498.196 225.342C497.638 225.665 497.184 226.134 496.832 226.75C496.494 227.366 496.326 228.092 496.326 228.928C496.326 229.764 496.494 230.497 496.832 231.128C497.184 231.744 497.638 232.213 498.196 232.536C498.768 232.859 499.369 233.02 500 233.02C500.645 233.02 501.246 232.859 501.804 232.536C502.376 232.199 502.83 231.715 503.168 231.084C503.52 230.453 503.696 229.72 503.696 228.884ZM513.766 235.198C512.622 235.198 511.588 234.941 510.664 234.428C509.74 233.9 509.014 233.167 508.486 232.228C507.958 231.275 507.694 230.175 507.694 228.928C507.694 227.696 507.965 226.603 508.508 225.65C509.051 224.697 509.791 223.963 510.73 223.45C511.669 222.937 512.717 222.68 513.876 222.68C515.035 222.68 516.083 222.937 517.022 223.45C517.961 223.963 518.701 224.697 519.244 225.65C519.787 226.603 520.058 227.696 520.058 228.928C520.058 230.16 519.779 231.253 519.222 232.206C518.665 233.159 517.902 233.9 516.934 234.428C515.981 234.941 514.925 235.198 513.766 235.198ZM513.766 233.02C514.411 233.02 515.013 232.866 515.57 232.558C516.142 232.25 516.604 231.788 516.956 231.172C517.308 230.556 517.484 229.808 517.484 228.928C517.484 228.048 517.315 227.307 516.978 226.706C516.641 226.09 516.193 225.628 515.636 225.32C515.079 225.012 514.477 224.858 513.832 224.858C513.187 224.858 512.585 225.012 512.028 225.32C511.485 225.628 511.053 226.09 510.73 226.706C510.407 227.307 510.246 228.048 510.246 228.928C510.246 230.233 510.576 231.245 511.236 231.964C511.911 232.668 512.754 233.02 513.766 233.02ZM524.825 224.638C525.192 224.022 525.676 223.545 526.277 223.208C526.893 222.856 527.619 222.68 528.455 222.68V225.276H527.817C526.835 225.276 526.087 225.525 525.573 226.024C525.075 226.523 524.825 227.388 524.825 228.62V235H522.317V222.878H524.825V224.638ZM533.467 224.924V231.634C533.467 232.089 533.569 232.419 533.775 232.624C533.995 232.815 534.361 232.91 534.875 232.91H536.415V235H534.435C533.305 235 532.44 234.736 531.839 234.208C531.237 233.68 530.937 232.822 530.937 231.634V224.924H529.507V222.878H530.937V219.864H533.467V222.878H536.415V224.924H533.467Z" fill="white"/>
<path d="M244.972 261.144C244.38 261.144 243.844 261.028 243.364 260.796C242.884 260.556 242.5 260.196 242.212 259.716C241.932 259.228 241.792 258.608 241.792 257.856V252.6H242.992V257.868C242.992 258.372 243.076 258.788 243.244 259.116C243.412 259.436 243.644 259.676 243.94 259.836C244.244 259.988 244.596 260.064 244.996 260.064C245.404 260.064 245.752 259.988 246.04 259.836C246.336 259.676 246.564 259.436 246.724 259.116C246.892 258.788 246.976 258.372 246.976 257.868V252.6H248.176V257.856C248.176 258.608 248.032 259.228 247.744 259.716C247.456 260.196 247.068 260.556 246.58 260.796C246.1 261.028 245.564 261.144 244.972 261.144ZM250.217 261V252.6H253.325C253.917 252.6 254.409 252.696 254.801 252.888C255.193 253.072 255.485 253.328 255.677 253.656C255.877 253.976 255.977 254.34 255.977 254.748C255.977 255.172 255.881 255.528 255.689 255.816C255.505 256.104 255.261 256.328 254.957 256.488C254.661 256.64 254.341 256.728 253.997 256.752L254.177 256.632C254.545 256.64 254.877 256.74 255.173 256.932C255.477 257.116 255.717 257.364 255.893 257.676C256.077 257.988 256.169 258.332 256.169 258.708C256.169 259.14 256.061 259.532 255.845 259.884C255.637 260.228 255.329 260.5 254.921 260.7C254.521 260.9 254.025 261 253.433 261H250.217ZM251.417 260.004H253.277C253.805 260.004 254.213 259.884 254.501 259.644C254.797 259.396 254.945 259.048 254.945 258.6C254.945 258.16 254.793 257.808 254.489 257.544C254.193 257.28 253.781 257.148 253.253 257.148H251.417V260.004ZM251.417 256.224H253.193C253.697 256.224 254.081 256.108 254.345 255.876C254.609 255.636 254.741 255.308 254.741 254.892C254.741 254.492 254.609 254.176 254.345 253.944C254.081 253.704 253.689 253.584 253.169 253.584H251.417V256.224ZM257.971 261V252.6H259.171V261H257.971ZM267.164 262.2L264.272 257.652H265.652L268.568 262.2H267.164ZM265.016 261.144C264.224 261.144 263.524 260.964 262.916 260.604C262.316 260.236 261.844 259.728 261.5 259.08C261.164 258.424 260.996 257.664 260.996 256.8C260.996 255.944 261.164 255.192 261.5 254.544C261.844 253.888 262.316 253.376 262.916 253.008C263.524 252.64 264.224 252.456 265.016 252.456C265.824 252.456 266.528 252.64 267.128 253.008C267.736 253.376 268.208 253.888 268.544 254.544C268.88 255.192 269.048 255.944 269.048 256.8C269.048 257.664 268.88 258.424 268.544 259.08C268.208 259.728 267.736 260.236 267.128 260.604C266.528 260.964 265.824 261.144 265.016 261.144ZM265.016 260.076C265.584 260.076 266.076 259.944 266.492 259.68C266.916 259.416 267.244 259.04 267.476 258.552C267.708 258.064 267.824 257.48 267.824 256.8C267.824 256.12 267.708 255.536 267.476 255.048C267.244 254.56 266.916 254.188 266.492 253.932C266.076 253.668 265.584 253.536 265.016 253.536C264.456 253.536 263.964 253.668 263.54 253.932C263.124 254.188 262.8 254.56 262.568 255.048C262.336 255.536 262.22 256.12 262.22 256.8C262.22 257.48 262.336 258.064 262.568 258.552C262.8 259.04 263.124 259.416 263.54 259.68C263.964 259.944 264.456 260.076 265.016 260.076ZM273.939 261.144C273.347 261.144 272.811 261.028 272.331 260.796C271.851 260.556 271.467 260.196 271.179 259.716C270.899 259.228 270.759 258.608 270.759 257.856V252.6H271.959V257.868C271.959 258.372 272.043 258.788 272.211 259.116C272.379 259.436 272.611 259.676 272.907 259.836C273.211 259.988 273.563 260.064 273.963 260.064C274.371 260.064 274.719 259.988 275.007 259.836C275.303 259.676 275.531 259.436 275.691 259.116C275.859 258.788 275.943 258.372 275.943 257.868V252.6H277.143V257.856C277.143 258.608 276.999 259.228 276.711 259.716C276.423 260.196 276.035 260.556 275.547 260.796C275.067 261.028 274.531 261.144 273.939 261.144ZM279.184 261V252.6H280.384V261H279.184ZM284.477 261V253.584H281.981V252.6H288.161V253.584H285.677V261H284.477ZM291.871 261V257.88L289.111 252.6H290.467L292.567 256.896H292.387L294.487 252.6H295.831L293.071 257.88V261H291.871ZM304.381 261.144C303.597 261.144 302.909 260.964 302.317 260.604C301.725 260.244 301.265 259.74 300.937 259.092C300.609 258.444 300.445 257.688 300.445 256.824C300.445 255.968 300.609 255.212 300.937 254.556C301.273 253.9 301.749 253.388 302.365 253.02C302.989 252.644 303.721 252.456 304.561 252.456C305.521 252.456 306.321 252.688 306.961 253.152C307.601 253.608 308.009 254.244 308.185 255.06H306.829C306.709 254.596 306.453 254.232 306.061 253.968C305.677 253.696 305.177 253.56 304.561 253.56C303.969 253.56 303.453 253.692 303.013 253.956C302.581 254.22 302.249 254.596 302.017 255.084C301.785 255.572 301.669 256.152 301.669 256.824C301.669 257.504 301.785 258.088 302.017 258.576C302.249 259.064 302.573 259.436 302.989 259.692C303.413 259.948 303.905 260.076 304.465 260.076C305.305 260.076 305.941 259.832 306.373 259.344C306.805 258.856 307.057 258.204 307.129 257.388H304.813V256.464H308.341V261H307.237L307.141 259.716C306.949 260.028 306.725 260.292 306.469 260.508C306.221 260.716 305.925 260.876 305.581 260.988C305.245 261.092 304.845 261.144 304.381 261.144ZM310.304 261V252.6H311.504V260.052H315.344V261H310.304ZM320.068 261.144C319.276 261.144 318.576 260.964 317.968 260.604C317.368 260.236 316.896 259.728 316.552 259.08C316.216 258.424 316.048 257.664 316.048 256.8C316.048 255.944 316.216 255.192 316.552 254.544C316.896 253.888 317.368 253.376 317.968 253.008C318.576 252.64 319.276 252.456 320.068 252.456C320.876 252.456 321.58 252.64 322.18 253.008C322.788 253.376 323.26 253.888 323.596 254.544C323.932 255.192 324.1 255.944 324.1 256.8C324.1 257.664 323.932 258.424 323.596 259.08C323.26 259.728 322.788 260.236 322.18 260.604C321.58 260.964 320.876 261.144 320.068 261.144ZM320.068 260.076C320.636 260.076 321.128 259.944 321.544 259.68C321.968 259.416 322.296 259.04 322.528 258.552C322.76 258.064 322.876 257.48 322.876 256.8C322.876 256.12 322.76 255.536 322.528 255.048C322.296 254.56 321.968 254.188 321.544 253.932C321.128 253.668 320.636 253.536 320.068 253.536C319.508 253.536 319.016 253.668 318.592 253.932C318.176 254.188 317.852 254.56 317.62 255.048C317.388 255.536 317.272 256.12 317.272 256.8C317.272 257.48 317.388 258.064 317.62 258.552C317.852 259.04 318.176 259.416 318.592 259.68C319.016 259.944 319.508 260.076 320.068 260.076ZM325.907 261V252.6H329.015C329.607 252.6 330.099 252.696 330.491 252.888C330.883 253.072 331.175 253.328 331.367 253.656C331.567 253.976 331.667 254.34 331.667 254.748C331.667 255.172 331.571 255.528 331.379 255.816C331.195 256.104 330.951 256.328 330.647 256.488C330.351 256.64 330.031 256.728 329.687 256.752L329.867 256.632C330.235 256.64 330.567 256.74 330.863 256.932C331.167 257.116 331.407 257.364 331.583 257.676C331.767 257.988 331.859 258.332 331.859 258.708C331.859 259.14 331.751 259.532 331.535 259.884C331.327 260.228 331.019 260.5 330.611 260.7C330.211 260.9 329.715 261 329.123 261H325.907ZM327.107 260.004H328.967C329.495 260.004 329.903 259.884 330.191 259.644C330.487 259.396 330.635 259.048 330.635 258.6C330.635 258.16 330.483 257.808 330.179 257.544C329.883 257.28 329.471 257.148 328.943 257.148H327.107V260.004ZM327.107 256.224H328.883C329.387 256.224 329.771 256.108 330.035 255.876C330.299 255.636 330.431 255.308 330.431 254.892C330.431 254.492 330.299 254.176 330.035 253.944C329.771 253.704 329.379 253.584 328.859 253.584H327.107V256.224ZM332.993 261L336.089 252.6H337.397L340.469 261H339.197L336.725 254.04L334.253 261H332.993ZM334.397 258.924L334.721 257.964H338.681L339.005 258.924H334.397ZM342.049 261V252.6H343.249V260.052H347.089V261H342.049ZM355.08 261.144C354.472 261.144 353.936 261.036 353.472 260.82C353.008 260.596 352.648 260.284 352.392 259.884C352.136 259.484 352.004 259.016 351.996 258.48H353.268C353.268 258.784 353.336 259.064 353.472 259.32C353.616 259.568 353.82 259.768 354.084 259.92C354.356 260.064 354.688 260.136 355.08 260.136C355.416 260.136 355.704 260.08 355.944 259.968C356.192 259.856 356.38 259.704 356.508 259.512C356.636 259.312 356.7 259.084 356.7 258.828C356.7 258.54 356.636 258.304 356.508 258.12C356.38 257.928 356.2 257.768 355.968 257.64C355.744 257.512 355.484 257.4 355.188 257.304C354.9 257.208 354.588 257.104 354.252 256.992C353.572 256.768 353.068 256.484 352.74 256.14C352.42 255.796 352.26 255.348 352.26 254.796C352.26 254.324 352.368 253.916 352.584 253.572C352.808 253.22 353.124 252.948 353.532 252.756C353.94 252.556 354.416 252.456 354.96 252.456C355.512 252.456 355.988 252.556 356.388 252.756C356.796 252.956 357.116 253.232 357.348 253.584C357.58 253.936 357.7 254.348 357.708 254.82H356.436C356.436 254.604 356.376 254.392 356.256 254.184C356.144 253.976 355.976 253.808 355.752 253.68C355.536 253.544 355.264 253.476 354.936 253.476C354.656 253.468 354.408 253.512 354.192 253.608C353.976 253.704 353.808 253.844 353.688 254.028C353.568 254.212 353.508 254.432 353.508 254.688C353.508 254.944 353.564 255.152 353.676 255.312C353.788 255.464 353.944 255.596 354.144 255.708C354.352 255.82 354.596 255.924 354.876 256.02C355.156 256.108 355.464 256.208 355.8 256.32C356.208 256.456 356.576 256.624 356.904 256.824C357.232 257.016 357.488 257.268 357.672 257.58C357.864 257.884 357.96 258.276 357.96 258.756C357.96 259.172 357.852 259.56 357.636 259.92C357.42 260.28 357.1 260.576 356.676 260.808C356.252 261.032 355.72 261.144 355.08 261.144ZM359.77 261V252.6H365.074V253.584H360.97V256.272H364.714V257.232H360.97V260.016H365.074V261H359.77ZM367.009 261V252.6H369.853C370.517 252.6 371.061 252.712 371.485 252.936C371.909 253.16 372.221 253.46 372.421 253.836C372.629 254.204 372.733 254.624 372.733 255.096C372.733 255.544 372.629 255.96 372.421 256.344C372.221 256.72 371.905 257.024 371.473 257.256C371.041 257.48 370.489 257.592 369.817 257.592H368.209V261H367.009ZM371.425 261L369.613 257.268H370.933L372.817 261H371.425ZM368.209 256.68H369.781C370.373 256.68 370.805 256.536 371.077 256.248C371.357 255.952 371.497 255.576 371.497 255.12C371.497 254.656 371.361 254.288 371.089 254.016C370.817 253.744 370.377 253.608 369.769 253.608H368.209V256.68ZM376.825 261L373.693 252.6H374.989L377.545 259.752L380.113 252.6H381.385L378.253 261H376.825ZM382.869 261V252.6H384.069V261H382.869ZM389.854 261.144C389.038 261.144 388.334 260.964 387.742 260.604C387.15 260.236 386.694 259.728 386.374 259.08C386.054 258.424 385.894 257.664 385.894 256.8C385.894 255.944 386.054 255.188 386.374 254.532C386.694 253.876 387.15 253.368 387.742 253.008C388.334 252.64 389.038 252.456 389.854 252.456C390.83 252.456 391.622 252.692 392.23 253.164C392.838 253.636 393.226 254.3 393.394 255.156H392.086C391.958 254.66 391.71 254.264 391.342 253.968C390.974 253.672 390.474 253.524 389.842 253.524C389.29 253.524 388.806 253.656 388.39 253.92C387.982 254.184 387.666 254.56 387.442 255.048C387.226 255.536 387.118 256.12 387.118 256.8C387.118 257.48 387.226 258.068 387.442 258.564C387.666 259.052 387.982 259.428 388.39 259.692C388.806 259.948 389.29 260.076 389.842 260.076C390.474 260.076 390.974 259.936 391.342 259.656C391.71 259.368 391.958 258.98 392.086 258.492H393.394C393.226 259.324 392.838 259.976 392.23 260.448C391.622 260.912 390.83 261.144 389.854 261.144ZM395.214 261V252.6H400.518V253.584H396.414V256.272H400.158V257.232H396.414V260.016H400.518V261H395.214ZM405.201 261.144C404.593 261.144 404.057 261.036 403.593 260.82C403.129 260.596 402.769 260.284 402.513 259.884C402.257 259.484 402.125 259.016 402.117 258.48H403.389C403.389 258.784 403.457 259.064 403.593 259.32C403.737 259.568 403.941 259.768 404.205 259.92C404.477 260.064 404.809 260.136 405.201 260.136C405.537 260.136 405.825 260.08 406.065 259.968C406.313 259.856 406.501 259.704 406.629 259.512C406.757 259.312 406.821 259.084 406.821 258.828C406.821 258.54 406.757 258.304 406.629 258.12C406.501 257.928 406.321 257.768 406.089 257.64C405.865 257.512 405.605 257.4 405.309 257.304C405.021 257.208 404.709 257.104 404.373 256.992C403.693 256.768 403.189 256.484 402.861 256.14C402.541 255.796 402.381 255.348 402.381 254.796C402.381 254.324 402.489 253.916 402.705 253.572C402.929 253.22 403.245 252.948 403.653 252.756C404.061 252.556 404.537 252.456 405.081 252.456C405.633 252.456 406.109 252.556 406.509 252.756C406.917 252.956 407.237 253.232 407.469 253.584C407.701 253.936 407.821 254.348 407.829 254.82H406.557C406.557 254.604 406.497 254.392 406.377 254.184C406.265 253.976 406.097 253.808 405.873 253.68C405.657 253.544 405.385 253.476 405.057 253.476C404.777 253.468 404.529 253.512 404.313 253.608C404.097 253.704 403.929 253.844 403.809 254.028C403.689 254.212 403.629 254.432 403.629 254.688C403.629 254.944 403.685 255.152 403.797 255.312C403.909 255.464 404.065 255.596 404.265 255.708C404.473 255.82 404.717 255.924 404.997 256.02C405.277 256.108 405.585 256.208 405.921 256.32C406.329 256.456 406.697 256.624 407.025 256.824C407.353 257.016 407.609 257.268 407.793 257.58C407.985 257.884 408.081 258.276 408.081 258.756C408.081 259.172 407.973 259.56 407.757 259.92C407.541 260.28 407.221 260.576 406.797 260.808C406.373 261.032 405.841 261.144 405.201 261.144Z" fill="#999999"/>
<rect x="67" y="218" width="116" height="26" rx="13" fill="#DFF314"/>
<path d="M109.537 235V234.136C110.105 233.704 110.641 233.268 111.145 232.828C111.657 232.388 112.113 231.952 112.513 231.52C112.913 231.08 113.225 230.652 113.449 230.236C113.681 229.812 113.797 229.408 113.797 229.024C113.797 228.752 113.745 228.5 113.641 228.268C113.545 228.036 113.389 227.848 113.173 227.704C112.965 227.552 112.681 227.476 112.321 227.476C111.969 227.476 111.677 227.552 111.445 227.704C111.213 227.856 111.037 228.06 110.917 228.316C110.805 228.564 110.749 228.84 110.749 229.144H109.585C109.593 228.568 109.717 228.08 109.957 227.68C110.197 227.28 110.525 226.976 110.941 226.768C111.357 226.56 111.825 226.456 112.345 226.456C112.881 226.456 113.345 226.556 113.737 226.756C114.129 226.948 114.437 227.232 114.661 227.608C114.885 227.984 114.997 228.436 114.997 228.964C114.997 229.348 114.917 229.732 114.757 230.116C114.605 230.492 114.397 230.86 114.133 231.22C113.869 231.58 113.573 231.928 113.245 232.264C112.925 232.592 112.593 232.904 112.249 233.2C111.905 233.496 111.577 233.764 111.265 234.004H115.249V235H109.537ZM120.148 235.144C119.42 235.144 118.792 234.964 118.264 234.604C117.744 234.236 117.344 233.728 117.064 233.08C116.784 232.424 116.644 231.664 116.644 230.8C116.644 229.936 116.784 229.18 117.064 228.532C117.344 227.876 117.744 227.368 118.264 227.008C118.792 226.64 119.42 226.456 120.148 226.456C120.884 226.456 121.508 226.64 122.02 227.008C122.54 227.368 122.94 227.876 123.22 228.532C123.508 229.18 123.652 229.936 123.652 230.8C123.652 231.664 123.508 232.424 123.22 233.08C122.94 233.728 122.54 234.236 122.02 234.604C121.508 234.964 120.884 235.144 120.148 235.144ZM120.148 234.076C120.588 234.076 120.976 233.944 121.312 233.68C121.656 233.416 121.924 233.04 122.116 232.552C122.316 232.064 122.416 231.48 122.416 230.8C122.416 230.112 122.316 229.528 122.116 229.048C121.924 228.56 121.656 228.188 121.312 227.932C120.976 227.668 120.588 227.536 120.148 227.536C119.708 227.536 119.316 227.668 118.972 227.932C118.628 228.188 118.356 228.56 118.156 229.048C117.964 229.528 117.868 230.112 117.868 230.8C117.868 231.48 117.964 232.064 118.156 232.552C118.356 233.04 118.628 233.416 118.972 233.68C119.316 233.944 119.708 234.076 120.148 234.076ZM125.199 235V234.136C125.767 233.704 126.303 233.268 126.807 232.828C127.319 232.388 127.775 231.952 128.175 231.52C128.575 231.08 128.887 230.652 129.111 230.236C129.343 229.812 129.459 229.408 129.459 229.024C129.459 228.752 129.407 228.5 129.303 228.268C129.207 228.036 129.051 227.848 128.835 227.704C128.627 227.552 128.343 227.476 127.983 227.476C127.631 227.476 127.339 227.552 127.107 227.704C126.875 227.856 126.699 228.06 126.579 228.316C126.467 228.564 126.411 228.84 126.411 229.144H125.247C125.255 228.568 125.379 228.08 125.619 227.68C125.859 227.28 126.187 226.976 126.603 226.768C127.019 226.56 127.487 226.456 128.007 226.456C128.543 226.456 129.007 226.556 129.399 226.756C129.791 226.948 130.099 227.232 130.323 227.608C130.547 227.984 130.659 228.436 130.659 228.964C130.659 229.348 130.579 229.732 130.419 230.116C130.267 230.492 130.059 230.86 129.795 231.22C129.531 231.58 129.235 231.928 128.907 232.264C128.587 232.592 128.255 232.904 127.911 233.2C127.567 233.496 127.239 233.764 126.927 234.004H130.911V235H125.199ZM135.579 235.144C134.995 235.144 134.491 235.04 134.067 234.832C133.643 234.624 133.311 234.344 133.071 233.992C132.831 233.632 132.683 233.224 132.627 232.768H133.803C133.883 233.16 134.075 233.484 134.379 233.74C134.691 233.996 135.095 234.124 135.591 234.124C135.951 234.124 136.259 234.04 136.515 233.872C136.779 233.696 136.979 233.46 137.115 233.164C137.259 232.868 137.331 232.54 137.331 232.18C137.331 231.804 137.259 231.476 137.115 231.196C136.979 230.908 136.783 230.688 136.527 230.536C136.271 230.376 135.971 230.296 135.627 230.296C135.211 230.296 134.855 230.384 134.559 230.56C134.271 230.736 134.055 230.956 133.911 231.22H132.747L133.419 226.6H137.967V227.644H134.331L133.911 230.02C134.103 229.804 134.359 229.632 134.679 229.504C135.007 229.368 135.379 229.3 135.795 229.3C136.219 229.3 136.595 229.376 136.923 229.528C137.259 229.672 137.543 229.876 137.775 230.14C138.007 230.404 138.183 230.708 138.303 231.052C138.431 231.396 138.495 231.764 138.495 232.156C138.495 232.572 138.427 232.964 138.291 233.332C138.155 233.692 137.959 234.008 137.703 234.28C137.455 234.552 137.151 234.764 136.791 234.916C136.431 235.068 136.027 235.144 135.579 235.144Z" fill="#181818"/>
<line x1="67" y1="184.25" x2="802" y2="184.25" stroke="#333333" stroke-width="1.5"/>
<path d="M791.282 123L791.282 123.259C791.282 128.658 795.924 132.996 801.589 132.996" stroke="#999999" stroke-width="1.5" stroke-miterlimit="10"/>
<path d="M791.282 143L791.282 142.74C791.282 137.342 795.924 132.996 801.589 132.996" stroke="#999999" stroke-width="1.5" stroke-miterlimit="10"/>
<path d="M776 133L801.589 133Z" fill="white"/>
<path d="M776 133L801.589 133" stroke="#999999" stroke-width="1.5" stroke-miterlimit="10"/>
<path d="M259.828 114.71L254.086 130H251.182L245.418 114.71H248.102L252.634 127.426L257.188 114.71H259.828ZM262.981 116.272C262.527 116.272 262.145 116.118 261.837 115.81C261.529 115.502 261.375 115.121 261.375 114.666C261.375 114.211 261.529 113.83 261.837 113.522C262.145 113.214 262.527 113.06 262.981 113.06C263.421 113.06 263.795 113.214 264.103 113.522C264.411 113.83 264.565 114.211 264.565 114.666C264.565 115.121 264.411 115.502 264.103 115.81C263.795 116.118 263.421 116.272 262.981 116.272ZM264.213 117.878V130H261.705V117.878H264.213ZM266.45 123.884C266.45 122.667 266.7 121.589 267.198 120.65C267.712 119.711 268.401 118.985 269.266 118.472C270.146 117.944 271.122 117.68 272.192 117.68C272.984 117.68 273.762 117.856 274.524 118.208C275.302 118.545 275.918 119 276.372 119.572V113.72H278.902V130H276.372V128.174C275.962 128.761 275.39 129.245 274.656 129.626C273.938 130.007 273.109 130.198 272.17 130.198C271.114 130.198 270.146 129.934 269.266 129.406C268.401 128.863 267.712 128.115 267.198 127.162C266.7 126.194 266.45 125.101 266.45 123.884ZM276.372 123.928C276.372 123.092 276.196 122.366 275.844 121.75C275.507 121.134 275.06 120.665 274.502 120.342C273.945 120.019 273.344 119.858 272.698 119.858C272.053 119.858 271.452 120.019 270.894 120.342C270.337 120.65 269.882 121.112 269.53 121.728C269.193 122.329 269.024 123.048 269.024 123.884C269.024 124.72 269.193 125.453 269.53 126.084C269.882 126.715 270.337 127.199 270.894 127.536C271.466 127.859 272.068 128.02 272.698 128.02C273.344 128.02 273.945 127.859 274.502 127.536C275.06 127.213 275.507 126.744 275.844 126.128C276.196 125.497 276.372 124.764 276.372 123.928ZM293.086 123.642C293.086 124.097 293.057 124.507 292.998 124.874H283.736C283.81 125.842 284.169 126.619 284.814 127.206C285.46 127.793 286.252 128.086 287.19 128.086C288.54 128.086 289.493 127.521 290.05 126.392H292.756C292.39 127.507 291.722 128.423 290.754 129.142C289.801 129.846 288.613 130.198 287.19 130.198C286.032 130.198 284.99 129.941 284.066 129.428C283.157 128.9 282.438 128.167 281.91 127.228C281.397 126.275 281.14 125.175 281.14 123.928C281.14 122.681 281.39 121.589 281.888 120.65C282.402 119.697 283.113 118.963 284.022 118.45C284.946 117.937 286.002 117.68 287.19 117.68C288.334 117.68 289.354 117.929 290.248 118.428C291.143 118.927 291.84 119.631 292.338 120.54C292.837 121.435 293.086 122.469 293.086 123.642ZM290.468 122.85C290.454 121.926 290.124 121.185 289.478 120.628C288.833 120.071 288.034 119.792 287.08 119.792C286.215 119.792 285.474 120.071 284.858 120.628C284.242 121.171 283.876 121.911 283.758 122.85H290.468ZM300.592 130.198C299.448 130.198 298.414 129.941 297.49 129.428C296.566 128.9 295.84 128.167 295.312 127.228C294.784 126.275 294.52 125.175 294.52 123.928C294.52 122.696 294.792 121.603 295.334 120.65C295.877 119.697 296.618 118.963 297.556 118.45C298.495 117.937 299.544 117.68 300.702 117.68C301.861 117.68 302.91 117.937 303.848 118.45C304.787 118.963 305.528 119.697 306.07 120.65C306.613 121.603 306.884 122.696 306.884 123.928C306.884 125.16 306.606 126.253 306.048 127.206C305.491 128.159 304.728 128.9 303.76 129.428C302.807 129.941 301.751 130.198 300.592 130.198ZM300.592 128.02C301.238 128.02 301.839 127.866 302.396 127.558C302.968 127.25 303.43 126.788 303.782 126.172C304.134 125.556 304.31 124.808 304.31 123.928C304.31 123.048 304.142 122.307 303.804 121.706C303.467 121.09 303.02 120.628 302.462 120.32C301.905 120.012 301.304 119.858 300.658 119.858C300.013 119.858 299.412 120.012 298.854 120.32C298.312 120.628 297.879 121.09 297.556 121.706C297.234 122.307 297.072 123.048 297.072 123.928C297.072 125.233 297.402 126.245 298.062 126.964C298.737 127.668 299.58 128.02 300.592 128.02ZM317.147 116.734V121.222H322.427V123.268H317.147V127.954H323.087V130H314.639V114.688H323.087V116.734H317.147ZM325.12 123.884C325.12 122.667 325.369 121.589 325.868 120.65C326.381 119.711 327.07 118.985 327.936 118.472C328.816 117.944 329.791 117.68 330.862 117.68C331.654 117.68 332.431 117.856 333.194 118.208C333.971 118.545 334.587 119 335.042 119.572V113.72H337.572V130H335.042V128.174C334.631 128.761 334.059 129.245 333.326 129.626C332.607 130.007 331.778 130.198 330.84 130.198C329.784 130.198 328.816 129.934 327.936 129.406C327.07 128.863 326.381 128.115 325.868 127.162C325.369 126.194 325.12 125.101 325.12 123.884ZM335.042 123.928C335.042 123.092 334.866 122.366 334.514 121.75C334.176 121.134 333.729 120.665 333.172 120.342C332.614 120.019 332.013 119.858 331.368 119.858C330.722 119.858 330.121 120.019 329.564 120.342C329.006 120.65 328.552 121.112 328.2 121.728C327.862 122.329 327.694 123.048 327.694 123.884C327.694 124.72 327.862 125.453 328.2 126.084C328.552 126.715 329.006 127.199 329.564 127.536C330.136 127.859 330.737 128.02 331.368 128.02C332.013 128.02 332.614 127.859 333.172 127.536C333.729 127.213 334.176 126.744 334.514 126.128C334.866 125.497 335.042 124.764 335.042 123.928ZM341.922 116.272C341.467 116.272 341.086 116.118 340.778 115.81C340.47 115.502 340.316 115.121 340.316 114.666C340.316 114.211 340.47 113.83 340.778 113.522C341.086 113.214 341.467 113.06 341.922 113.06C342.362 113.06 342.736 113.214 343.044 113.522C343.352 113.83 343.506 114.211 343.506 114.666C343.506 115.121 343.352 115.502 343.044 115.81C342.736 116.118 342.362 116.272 341.922 116.272ZM343.154 117.878V130H340.646V117.878H343.154ZM349.153 119.924V126.634C349.153 127.089 349.255 127.419 349.461 127.624C349.681 127.815 350.047 127.91 350.561 127.91H352.101V130H350.121C348.991 130 348.126 129.736 347.525 129.208C346.923 128.68 346.623 127.822 346.623 126.634V119.924H345.193V117.878H346.623V114.864H349.153V117.878H352.101V119.924H349.153ZM359.45 130.198C358.306 130.198 357.272 129.941 356.348 129.428C355.424 128.9 354.698 128.167 354.17 127.228C353.642 126.275 353.378 125.175 353.378 123.928C353.378 122.696 353.65 121.603 354.192 120.65C354.735 119.697 355.476 118.963 356.414 118.45C357.353 117.937 358.402 117.68 359.56 117.68C360.719 117.68 361.768 117.937 362.706 118.45C363.645 118.963 364.386 119.697 364.928 120.65C365.471 121.603 365.742 122.696 365.742 123.928C365.742 125.16 365.464 126.253 364.906 127.206C364.349 128.159 363.586 128.9 362.618 129.428C361.665 129.941 360.609 130.198 359.45 130.198ZM359.45 128.02C360.096 128.02 360.697 127.866 361.254 127.558C361.826 127.25 362.288 126.788 362.64 126.172C362.992 125.556 363.168 124.808 363.168 123.928C363.168 123.048 363 122.307 362.662 121.706C362.325 121.09 361.878 120.628 361.32 120.32C360.763 120.012 360.162 119.858 359.516 119.858C358.871 119.858 358.27 120.012 357.712 120.32C357.17 120.628 356.737 121.09 356.414 121.706C356.092 122.307 355.93 123.048 355.93 123.928C355.93 125.233 356.26 126.245 356.92 126.964C357.595 127.668 358.438 128.02 359.45 128.02ZM370.509 119.638C370.876 119.022 371.36 118.545 371.961 118.208C372.577 117.856 373.303 117.68 374.139 117.68V120.276H373.501C372.519 120.276 371.771 120.525 371.257 121.024C370.759 121.523 370.509 122.388 370.509 123.62V130H368.001V117.878H370.509V119.638Z" fill="white"/>
<path d="M249.536 156.144C248.72 156.144 248.016 155.964 247.424 155.604C246.832 155.236 246.376 154.728 246.056 154.08C245.736 153.424 245.576 152.664 245.576 151.8C245.576 150.944 245.736 150.188 246.056 149.532C246.376 148.876 246.832 148.368 247.424 148.008C248.016 147.64 248.72 147.456 249.536 147.456C250.512 147.456 251.304 147.692 251.912 148.164C252.52 148.636 252.908 149.3 253.076 150.156H251.768C251.64 149.66 251.392 149.264 251.024 148.968C250.656 148.672 250.156 148.524 249.524 148.524C248.972 148.524 248.488 148.656 248.072 148.92C247.664 149.184 247.348 149.56 247.124 150.048C246.908 150.536 246.8 151.12 246.8 151.8C246.8 152.48 246.908 153.068 247.124 153.564C247.348 154.052 247.664 154.428 248.072 154.692C248.488 154.948 248.972 155.076 249.524 155.076C250.156 155.076 250.656 154.936 251.024 154.656C251.392 154.368 251.64 153.98 251.768 153.492H253.076C252.908 154.324 252.52 154.976 251.912 155.448C251.304 155.912 250.512 156.144 249.536 156.144ZM258.604 156.144C257.812 156.144 257.112 155.964 256.504 155.604C255.904 155.236 255.432 154.728 255.088 154.08C254.752 153.424 254.584 152.664 254.584 151.8C254.584 150.944 254.752 150.192 255.088 149.544C255.432 148.888 255.904 148.376 256.504 148.008C257.112 147.64 257.812 147.456 258.604 147.456C259.412 147.456 260.116 147.64 260.716 148.008C261.324 148.376 261.796 148.888 262.132 149.544C262.468 150.192 262.636 150.944 262.636 151.8C262.636 152.664 262.468 153.424 262.132 154.08C261.796 154.728 261.324 155.236 260.716 155.604C260.116 155.964 259.412 156.144 258.604 156.144ZM258.604 155.076C259.172 155.076 259.664 154.944 260.08 154.68C260.504 154.416 260.832 154.04 261.064 153.552C261.296 153.064 261.412 152.48 261.412 151.8C261.412 151.12 261.296 150.536 261.064 150.048C260.832 149.56 260.504 149.188 260.08 148.932C259.664 148.668 259.172 148.536 258.604 148.536C258.044 148.536 257.552 148.668 257.128 148.932C256.712 149.188 256.388 149.56 256.156 150.048C255.924 150.536 255.808 151.12 255.808 151.8C255.808 152.48 255.924 153.064 256.156 153.552C256.388 154.04 256.712 154.416 257.128 154.68C257.552 154.944 258.044 155.076 258.604 155.076ZM263.318 156L266.414 147.6H267.722L270.794 156H269.522L267.05 149.04L264.578 156H263.318ZM264.722 153.924L265.046 152.964H269.006L269.33 153.924H264.722ZM275.542 156.144C274.726 156.144 274.022 155.964 273.43 155.604C272.838 155.236 272.382 154.728 272.062 154.08C271.742 153.424 271.582 152.664 271.582 151.8C271.582 150.944 271.742 150.188 272.062 149.532C272.382 148.876 272.838 148.368 273.43 148.008C274.022 147.64 274.726 147.456 275.542 147.456C276.518 147.456 277.31 147.692 277.918 148.164C278.526 148.636 278.914 149.3 279.082 150.156H277.774C277.646 149.66 277.398 149.264 277.03 148.968C276.662 148.672 276.162 148.524 275.53 148.524C274.978 148.524 274.494 148.656 274.078 148.92C273.67 149.184 273.354 149.56 273.13 150.048C272.914 150.536 272.806 151.12 272.806 151.8C272.806 152.48 272.914 153.068 273.13 153.564C273.354 154.052 273.67 154.428 274.078 154.692C274.494 154.948 274.978 155.076 275.53 155.076C276.162 155.076 276.662 154.936 277.03 154.656C277.398 154.368 277.646 153.98 277.774 153.492H279.082C278.914 154.324 278.526 154.976 277.918 155.448C277.31 155.912 276.518 156.144 275.542 156.144ZM286.242 156V147.6H287.442V156H286.242ZM280.902 156V147.6H282.102V156H280.902ZM281.898 152.208V151.224H286.506V152.208H281.898ZM291.539 156V148.584H289.043V147.6H295.223V148.584H292.739V156H291.539ZM299.917 156.144C299.325 156.144 298.789 156.028 298.309 155.796C297.829 155.556 297.445 155.196 297.157 154.716C296.877 154.228 296.737 153.608 296.737 152.856V147.6H297.937V152.868C297.937 153.372 298.021 153.788 298.189 154.116C298.357 154.436 298.589 154.676 298.885 154.836C299.189 154.988 299.541 155.064 299.941 155.064C300.349 155.064 300.697 154.988 300.985 154.836C301.281 154.676 301.509 154.436 301.669 154.116C301.837 153.788 301.921 153.372 301.921 152.868V147.6H303.121V152.856C303.121 153.608 302.977 154.228 302.689 154.716C302.401 155.196 302.013 155.556 301.525 155.796C301.045 156.028 300.509 156.144 299.917 156.144ZM305.162 156V147.6H308.27C308.862 147.6 309.354 147.696 309.746 147.888C310.138 148.072 310.43 148.328 310.622 148.656C310.822 148.976 310.922 149.34 310.922 149.748C310.922 150.172 310.826 150.528 310.634 150.816C310.45 151.104 310.206 151.328 309.902 151.488C309.606 151.64 309.286 151.728 308.942 151.752L309.122 151.632C309.49 151.64 309.822 151.74 310.118 151.932C310.422 152.116 310.662 152.364 310.838 152.676C311.022 152.988 311.114 153.332 311.114 153.708C311.114 154.14 311.006 154.532 310.79 154.884C310.582 155.228 310.274 155.5 309.866 155.7C309.466 155.9 308.97 156 308.378 156H305.162ZM306.362 155.004H308.222C308.75 155.004 309.158 154.884 309.446 154.644C309.742 154.396 309.89 154.048 309.89 153.6C309.89 153.16 309.738 152.808 309.434 152.544C309.138 152.28 308.726 152.148 308.198 152.148H306.362V155.004ZM306.362 151.224H308.138C308.642 151.224 309.026 151.108 309.29 150.876C309.554 150.636 309.686 150.308 309.686 149.892C309.686 149.492 309.554 149.176 309.29 148.944C309.026 148.704 308.634 148.584 308.114 148.584H306.362V151.224ZM312.916 156V147.6H318.22V148.584H314.116V151.272H317.86V152.232H314.116V155.016H318.22V156H312.916Z" fill="white"/>
<rect x="67" y="117" width="115" height="26" rx="13" fill="#DFF314"/>
<path d="M79.72 134V133.136C80.288 132.704 80.824 132.268 81.328 131.828C81.84 131.388 82.296 130.952 82.696 130.52C83.096 130.08 83.408 129.652 83.632 129.236C83.864 128.812 83.98 128.408 83.98 128.024C83.98 127.752 83.928 127.5 83.824 127.268C83.728 127.036 83.572 126.848 83.356 126.704C83.148 126.552 82.864 126.476 82.504 126.476C82.152 126.476 81.86 126.552 81.628 126.704C81.396 126.856 81.22 127.06 81.1 127.316C80.988 127.564 80.932 127.84 80.932 128.144H79.768C79.776 127.568 79.9 127.08 80.14 126.68C80.38 126.28 80.708 125.976 81.124 125.768C81.54 125.56 82.008 125.456 82.528 125.456C83.064 125.456 83.528 125.556 83.92 125.756C84.312 125.948 84.62 126.232 84.844 126.608C85.068 126.984 85.18 127.436 85.18 127.964C85.18 128.348 85.1 128.732 84.94 129.116C84.788 129.492 84.58 129.86 84.316 130.22C84.052 130.58 83.756 130.928 83.428 131.264C83.108 131.592 82.776 131.904 82.432 132.2C82.088 132.496 81.76 132.764 81.448 133.004H85.432V134H79.72ZM90.3306 134.144C89.6026 134.144 88.9746 133.964 88.4466 133.604C87.9266 133.236 87.5266 132.728 87.2466 132.08C86.9666 131.424 86.8266 130.664 86.8266 129.8C86.8266 128.936 86.9666 128.18 87.2466 127.532C87.5266 126.876 87.9266 126.368 88.4466 126.008C88.9746 125.64 89.6026 125.456 90.3306 125.456C91.0666 125.456 91.6906 125.64 92.2026 126.008C92.7226 126.368 93.1226 126.876 93.4026 127.532C93.6906 128.18 93.8346 128.936 93.8346 129.8C93.8346 130.664 93.6906 131.424 93.4026 132.08C93.1226 132.728 92.7226 133.236 92.2026 133.604C91.6906 133.964 91.0666 134.144 90.3306 134.144ZM90.3306 133.076C90.7706 133.076 91.1586 132.944 91.4946 132.68C91.8386 132.416 92.1066 132.04 92.2986 131.552C92.4986 131.064 92.5986 130.48 92.5986 129.8C92.5986 129.112 92.4986 128.528 92.2986 128.048C92.1066 127.56 91.8386 127.188 91.4946 126.932C91.1586 126.668 90.7706 126.536 90.3306 126.536C89.8906 126.536 89.4986 126.668 89.1546 126.932C88.8106 127.188 88.5386 127.56 88.3386 128.048C88.1466 128.528 88.0506 129.112 88.0506 129.8C88.0506 130.48 88.1466 131.064 88.3386 131.552C88.5386 132.04 88.8106 132.416 89.1546 132.68C89.4986 132.944 89.8906 133.076 90.3306 133.076ZM95.3814 134V133.136C95.9494 132.704 96.4854 132.268 96.9894 131.828C97.5014 131.388 97.9574 130.952 98.3574 130.52C98.7574 130.08 99.0694 129.652 99.2934 129.236C99.5254 128.812 99.6414 128.408 99.6414 128.024C99.6414 127.752 99.5894 127.5 99.4854 127.268C99.3894 127.036 99.2334 126.848 99.0174 126.704C98.8094 126.552 98.5254 126.476 98.1654 126.476C97.8134 126.476 97.5214 126.552 97.2894 126.704C97.0574 126.856 96.8814 127.06 96.7614 127.316C96.6494 127.564 96.5934 127.84 96.5934 128.144H95.4294C95.4374 127.568 95.5614 127.08 95.8014 126.68C96.0414 126.28 96.3694 125.976 96.7854 125.768C97.2014 125.56 97.6694 125.456 98.1894 125.456C98.7254 125.456 99.1894 125.556 99.5814 125.756C99.9734 125.948 100.281 126.232 100.505 126.608C100.729 126.984 100.841 127.436 100.841 127.964C100.841 128.348 100.761 128.732 100.601 129.116C100.449 129.492 100.241 129.86 99.9774 130.22C99.7134 130.58 99.4174 130.928 99.0894 131.264C98.7694 131.592 98.4374 131.904 98.0934 132.2C97.7494 132.496 97.4214 132.764 97.1094 133.004H101.093V134H95.3814ZM106.558 134V132.284H102.334V131.348L106.366 125.6H107.746V131.24H108.946V132.284H107.746V134H106.558ZM103.642 131.24H106.618V126.92L103.642 131.24ZM110.578 130.892V129.884H115.426V130.892H110.578ZM117.547 134V125.6H120.403C121.075 125.6 121.627 125.712 122.059 125.936C122.499 126.16 122.823 126.464 123.031 126.848C123.239 127.224 123.343 127.656 123.343 128.144C123.343 128.608 123.239 129.032 123.031 129.416C122.823 129.8 122.503 130.108 122.071 130.34C121.639 130.564 121.083 130.676 120.403 130.676H118.747V134H117.547ZM118.747 129.68H120.355C120.995 129.68 121.447 129.54 121.711 129.26C121.983 128.98 122.119 128.608 122.119 128.144C122.119 127.656 121.983 127.276 121.711 127.004C121.447 126.732 120.995 126.596 120.355 126.596H118.747V129.68ZM125.021 134V125.6H127.865C128.529 125.6 129.073 125.712 129.497 125.936C129.921 126.16 130.233 126.46 130.433 126.836C130.641 127.204 130.745 127.624 130.745 128.096C130.745 128.544 130.641 128.96 130.433 129.344C130.233 129.72 129.917 130.024 129.485 130.256C129.053 130.48 128.501 130.592 127.829 130.592H126.221V134H125.021ZM129.437 134L127.625 130.268H128.945L130.829 134H129.437ZM126.221 129.68H127.793C128.385 129.68 128.817 129.536 129.089 129.248C129.369 128.952 129.509 128.576 129.509 128.12C129.509 127.656 129.373 127.288 129.101 127.016C128.829 126.744 128.389 126.608 127.781 126.608H126.221V129.68ZM132.681 134V125.6H137.985V126.584H133.881V129.272H137.625V130.232H133.881V133.016H137.985V134H132.681ZM142.668 134.144C142.06 134.144 141.524 134.036 141.06 133.82C140.596 133.596 140.236 133.284 139.98 132.884C139.724 132.484 139.592 132.016 139.584 131.48H140.856C140.856 131.784 140.924 132.064 141.06 132.32C141.204 132.568 141.408 132.768 141.672 132.92C141.944 133.064 142.276 133.136 142.668 133.136C143.004 133.136 143.292 133.08 143.532 132.968C143.78 132.856 143.968 132.704 144.096 132.512C144.224 132.312 144.288 132.084 144.288 131.828C144.288 131.54 144.224 131.304 144.096 131.12C143.968 130.928 143.788 130.768 143.556 130.64C143.332 130.512 143.072 130.4 142.776 130.304C142.488 130.208 142.176 130.104 141.84 129.992C141.16 129.768 140.656 129.484 140.328 129.14C140.008 128.796 139.848 128.348 139.848 127.796C139.848 127.324 139.956 126.916 140.172 126.572C140.396 126.22 140.712 125.948 141.12 125.756C141.528 125.556 142.004 125.456 142.548 125.456C143.1 125.456 143.576 125.556 143.976 125.756C144.384 125.956 144.704 126.232 144.936 126.584C145.168 126.936 145.288 127.348 145.296 127.82H144.024C144.024 127.604 143.964 127.392 143.844 127.184C143.732 126.976 143.564 126.808 143.34 126.68C143.124 126.544 142.852 126.476 142.524 126.476C142.244 126.468 141.996 126.512 141.78 126.608C141.564 126.704 141.396 126.844 141.276 127.028C141.156 127.212 141.096 127.432 141.096 127.688C141.096 127.944 141.152 128.152 141.264 128.312C141.376 128.464 141.532 128.596 141.732 128.708C141.94 128.82 142.184 128.924 142.464 129.02C142.744 129.108 143.052 129.208 143.388 129.32C143.796 129.456 144.164 129.624 144.492 129.824C144.82 130.016 145.076 130.268 145.26 130.58C145.452 130.884 145.548 131.276 145.548 131.756C145.548 132.172 145.44 132.56 145.224 132.92C145.008 133.28 144.688 133.576 144.264 133.808C143.84 134.032 143.308 134.144 142.668 134.144ZM147.358 134V125.6H152.662V126.584H148.558V129.272H152.302V130.232H148.558V133.016H152.662V134H147.358ZM154.597 134V125.6H155.797L160.081 132.044V125.6H161.281V134H160.081L155.797 127.556V134H154.597ZM165.374 134V126.584H162.878V125.6H169.058V126.584H166.574V134H165.374Z" fill="#181818"/>
<line x1="67" y1="79.25" x2="802" y2="79.2501" stroke="#333333" stroke-width="1.5"/>
<circle cx="789" cy="27" r="4" fill="#DFF314"/>
<path d="M255.828 9.71L250.086 25H247.182L241.418 9.71H244.102L248.634 22.426L253.188 9.71H255.828ZM258.981 11.272C258.527 11.272 258.145 11.118 257.837 10.81C257.529 10.502 257.375 10.1207 257.375 9.666C257.375 9.21133 257.529 8.83 257.837 8.522C258.145 8.214 258.527 8.06 258.981 8.06C259.421 8.06 259.795 8.214 260.103 8.522C260.411 8.83 260.565 9.21133 260.565 9.666C260.565 10.1207 260.411 10.502 260.103 10.81C259.795 11.118 259.421 11.272 258.981 11.272ZM260.213 12.878V25H257.705V12.878H260.213ZM262.45 18.884C262.45 17.6667 262.7 16.5887 263.198 15.65C263.712 14.7113 264.401 13.9853 265.266 13.472C266.146 12.944 267.122 12.68 268.192 12.68C268.984 12.68 269.762 12.856 270.524 13.208C271.302 13.5453 271.918 14 272.372 14.572V8.72H274.902V25H272.372V23.174C271.962 23.7607 271.39 24.2447 270.656 24.626C269.938 25.0073 269.109 25.198 268.17 25.198C267.114 25.198 266.146 24.934 265.266 24.406C264.401 23.8633 263.712 23.1153 263.198 22.162C262.7 21.194 262.45 20.1013 262.45 18.884ZM272.372 18.928C272.372 18.092 272.196 17.366 271.844 16.75C271.507 16.134 271.06 15.6647 270.502 15.342C269.945 15.0193 269.344 14.858 268.698 14.858C268.053 14.858 267.452 15.0193 266.894 15.342C266.337 15.65 265.882 16.112 265.53 16.728C265.193 17.3293 265.024 18.048 265.024 18.884C265.024 19.72 265.193 20.4533 265.53 21.084C265.882 21.7147 266.337 22.1987 266.894 22.536C267.466 22.8587 268.068 23.02 268.698 23.02C269.344 23.02 269.945 22.8587 270.502 22.536C271.06 22.2133 271.507 21.744 271.844 21.128C272.196 20.4973 272.372 19.764 272.372 18.928ZM289.086 18.642C289.086 19.0967 289.057 19.5073 288.998 19.874H279.736C279.81 20.842 280.169 21.6193 280.814 22.206C281.46 22.7927 282.252 23.086 283.19 23.086C284.54 23.086 285.493 22.5213 286.05 21.392H288.756C288.39 22.5067 287.722 23.4233 286.754 24.142C285.801 24.846 284.613 25.198 283.19 25.198C282.032 25.198 280.99 24.9413 280.066 24.428C279.157 23.9 278.438 23.1667 277.91 22.228C277.397 21.2747 277.14 20.1747 277.14 18.928C277.14 17.6813 277.39 16.5887 277.888 15.65C278.402 14.6967 279.113 13.9633 280.022 13.45C280.946 12.9367 282.002 12.68 283.19 12.68C284.334 12.68 285.354 12.9293 286.248 13.428C287.143 13.9267 287.84 14.6307 288.338 15.54C288.837 16.4347 289.086 17.4687 289.086 18.642ZM286.468 17.85C286.454 16.926 286.124 16.1853 285.478 15.628C284.833 15.0707 284.034 14.792 283.08 14.792C282.215 14.792 281.474 15.0707 280.858 15.628C280.242 16.1707 279.876 16.9113 279.758 17.85H286.468ZM296.592 25.198C295.448 25.198 294.414 24.9413 293.49 24.428C292.566 23.9 291.84 23.1667 291.312 22.228C290.784 21.2747 290.52 20.1747 290.52 18.928C290.52 17.696 290.792 16.6033 291.334 15.65C291.877 14.6967 292.618 13.9633 293.556 13.45C294.495 12.9367 295.544 12.68 296.702 12.68C297.861 12.68 298.91 12.9367 299.848 13.45C300.787 13.9633 301.528 14.6967 302.07 15.65C302.613 16.6033 302.884 17.696 302.884 18.928C302.884 20.16 302.606 21.2527 302.048 22.206C301.491 23.1593 300.728 23.9 299.76 24.428C298.807 24.9413 297.751 25.198 296.592 25.198ZM296.592 23.02C297.238 23.02 297.839 22.866 298.396 22.558C298.968 22.25 299.43 21.788 299.782 21.172C300.134 20.556 300.31 19.808 300.31 18.928C300.31 18.048 300.142 17.3073 299.804 16.706C299.467 16.09 299.02 15.628 298.462 15.32C297.905 15.012 297.304 14.858 296.658 14.858C296.013 14.858 295.412 15.012 294.854 15.32C294.312 15.628 293.879 16.09 293.556 16.706C293.234 17.3073 293.072 18.048 293.072 18.928C293.072 20.2333 293.402 21.2453 294.062 21.964C294.737 22.668 295.58 23.02 296.592 23.02ZM313.147 11.734V16.222H318.427V18.268H313.147V22.954H319.087V25H310.639V9.688H319.087V11.734H313.147ZM321.12 18.884C321.12 17.6667 321.369 16.5887 321.868 15.65C322.381 14.7113 323.07 13.9853 323.936 13.472C324.816 12.944 325.791 12.68 326.862 12.68C327.654 12.68 328.431 12.856 329.194 13.208C329.971 13.5453 330.587 14 331.042 14.572V8.72H333.572V25H331.042V23.174C330.631 23.7607 330.059 24.2447 329.326 24.626C328.607 25.0073 327.778 25.198 326.84 25.198C325.784 25.198 324.816 24.934 323.936 24.406C323.07 23.8633 322.381 23.1153 321.868 22.162C321.369 21.194 321.12 20.1013 321.12 18.884ZM331.042 18.928C331.042 18.092 330.866 17.366 330.514 16.75C330.176 16.134 329.729 15.6647 329.172 15.342C328.614 15.0193 328.013 14.858 327.368 14.858C326.722 14.858 326.121 15.0193 325.564 15.342C325.006 15.65 324.552 16.112 324.2 16.728C323.862 17.3293 323.694 18.048 323.694 18.884C323.694 19.72 323.862 20.4533 324.2 21.084C324.552 21.7147 325.006 22.1987 325.564 22.536C326.136 22.8587 326.737 23.02 327.368 23.02C328.013 23.02 328.614 22.8587 329.172 22.536C329.729 22.2133 330.176 21.744 330.514 21.128C330.866 20.4973 331.042 19.764 331.042 18.928ZM337.922 11.272C337.467 11.272 337.086 11.118 336.778 10.81C336.47 10.502 336.316 10.1207 336.316 9.666C336.316 9.21133 336.47 8.83 336.778 8.522C337.086 8.214 337.467 8.06 337.922 8.06C338.362 8.06 338.736 8.214 339.044 8.522C339.352 8.83 339.506 9.21133 339.506 9.666C339.506 10.1207 339.352 10.502 339.044 10.81C338.736 11.118 338.362 11.272 337.922 11.272ZM339.154 12.878V25H336.646V12.878H339.154ZM345.153 14.924V21.634C345.153 22.0887 345.255 22.4187 345.461 22.624C345.681 22.8147 346.047 22.91 346.561 22.91H348.101V25H346.121C344.991 25 344.126 24.736 343.525 24.208C342.923 23.68 342.623 22.822 342.623 21.634V14.924H341.193V12.878H342.623V9.864H345.153V12.878H348.101V14.924H345.153ZM355.45 25.198C354.306 25.198 353.272 24.9413 352.348 24.428C351.424 23.9 350.698 23.1667 350.17 22.228C349.642 21.2747 349.378 20.1747 349.378 18.928C349.378 17.696 349.65 16.6033 350.192 15.65C350.735 14.6967 351.476 13.9633 352.414 13.45C353.353 12.9367 354.402 12.68 355.56 12.68C356.719 12.68 357.768 12.9367 358.706 13.45C359.645 13.9633 360.386 14.6967 360.928 15.65C361.471 16.6033 361.742 17.696 361.742 18.928C361.742 20.16 361.464 21.2527 360.906 22.206C360.349 23.1593 359.586 23.9 358.618 24.428C357.665 24.9413 356.609 25.198 355.45 25.198ZM355.45 23.02C356.096 23.02 356.697 22.866 357.254 22.558C357.826 22.25 358.288 21.788 358.64 21.172C358.992 20.556 359.168 19.808 359.168 18.928C359.168 18.048 359 17.3073 358.662 16.706C358.325 16.09 357.878 15.628 357.32 15.32C356.763 15.012 356.162 14.858 355.516 14.858C354.871 14.858 354.27 15.012 353.712 15.32C353.17 15.628 352.737 16.09 352.414 16.706C352.092 17.3073 351.93 18.048 351.93 18.928C351.93 20.2333 352.26 21.2453 352.92 21.964C353.595 22.668 354.438 23.02 355.45 23.02ZM366.509 14.638C366.876 14.022 367.36 13.5453 367.961 13.208C368.577 12.856 369.303 12.68 370.139 12.68V15.276H369.501C368.519 15.276 367.771 15.5253 367.257 16.024C366.759 16.5227 366.509 17.388 366.509 18.62V25H364.001V12.878H366.509V14.638Z" fill="white"/>
<path d="M245.536 51.144C244.72 51.144 244.016 50.964 243.424 50.604C242.832 50.236 242.376 49.728 242.056 49.08C241.736 48.424 241.576 47.664 241.576 46.8C241.576 45.944 241.736 45.188 242.056 44.532C242.376 43.876 242.832 43.368 243.424 43.008C244.016 42.64 244.72 42.456 245.536 42.456C246.512 42.456 247.304 42.692 247.912 43.164C248.52 43.636 248.908 44.3 249.076 45.156H247.768C247.64 44.66 247.392 44.264 247.024 43.968C246.656 43.672 246.156 43.524 245.524 43.524C244.972 43.524 244.488 43.656 244.072 43.92C243.664 44.184 243.348 44.56 243.124 45.048C242.908 45.536 242.8 46.12 242.8 46.8C242.8 47.48 242.908 48.068 243.124 48.564C243.348 49.052 243.664 49.428 244.072 49.692C244.488 49.948 244.972 50.076 245.524 50.076C246.156 50.076 246.656 49.936 247.024 49.656C247.392 49.368 247.64 48.98 247.768 48.492H249.076C248.908 49.324 248.52 49.976 247.912 50.448C247.304 50.912 246.512 51.144 245.536 51.144ZM250.896 51V42.6H252.096V50.052H255.936V51H250.896ZM257.725 51V42.6H263.029V43.584H258.925V46.272H262.669V47.232H258.925V50.016H263.029V51H257.725ZM264.412 51L267.508 42.6H268.816L271.888 51H270.616L268.144 44.04L265.672 51H264.412ZM265.816 48.924L266.14 47.964H270.1L270.424 48.924H265.816ZM274.828 51L271.696 42.6H272.992L275.548 49.752L278.116 42.6H279.388L276.256 51H274.828ZM280.872 51V42.6H286.176V43.584H282.072V46.272H285.816V47.232H282.072V50.016H286.176V51H280.872ZM288.11 51V42.6H290.955C291.619 42.6 292.163 42.712 292.587 42.936C293.01 43.16 293.322 43.46 293.523 43.836C293.73 44.204 293.834 44.624 293.834 45.096C293.834 45.544 293.73 45.96 293.523 46.344C293.322 46.72 293.006 47.024 292.574 47.256C292.143 47.48 291.591 47.592 290.919 47.592H289.31V51H288.11ZM292.527 51L290.714 47.268H292.035L293.919 51H292.527ZM289.31 46.68H290.882C291.474 46.68 291.906 46.536 292.179 46.248C292.459 45.952 292.599 45.576 292.599 45.12C292.599 44.656 292.463 44.288 292.191 44.016C291.919 43.744 291.479 43.608 290.871 43.608H289.31V46.68ZM302.873 51.144C302.057 51.144 301.353 50.964 300.761 50.604C300.169 50.236 299.713 49.728 299.393 49.08C299.073 48.424 298.913 47.664 298.913 46.8C298.913 45.944 299.073 45.188 299.393 44.532C299.713 43.876 300.169 43.368 300.761 43.008C301.353 42.64 302.057 42.456 302.873 42.456C303.849 42.456 304.641 42.692 305.249 43.164C305.857 43.636 306.245 44.3 306.413 45.156H305.105C304.977 44.66 304.729 44.264 304.361 43.968C303.993 43.672 303.493 43.524 302.861 43.524C302.309 43.524 301.825 43.656 301.409 43.92C301.001 44.184 300.685 44.56 300.461 45.048C300.245 45.536 300.137 46.12 300.137 46.8C300.137 47.48 300.245 48.068 300.461 48.564C300.685 49.052 301.001 49.428 301.409 49.692C301.825 49.948 302.309 50.076 302.861 50.076C303.493 50.076 303.993 49.936 304.361 49.656C304.729 49.368 304.977 48.98 305.105 48.492H306.413C306.245 49.324 305.857 49.976 305.249 50.448C304.641 50.912 303.849 51.144 302.873 51.144ZM308.233 51V42.6H311.077C311.741 42.6 312.285 42.712 312.709 42.936C313.133 43.16 313.445 43.46 313.645 43.836C313.853 44.204 313.957 44.624 313.957 45.096C313.957 45.544 313.853 45.96 313.645 46.344C313.445 46.72 313.129 47.024 312.697 47.256C312.265 47.48 311.713 47.592 311.041 47.592H309.433V51H308.233ZM312.649 51L310.837 47.268H312.157L314.041 51H312.649ZM309.433 46.68H311.005C311.597 46.68 312.029 46.536 312.301 46.248C312.581 45.952 312.721 45.576 312.721 45.12C312.721 44.656 312.585 44.288 312.313 44.016C312.041 43.744 311.601 43.608 310.993 43.608H309.433V46.68ZM315.894 51V42.6H321.198V43.584H317.094V46.272H320.838V47.232H317.094V50.016H321.198V51H315.894ZM322.581 51L325.677 42.6H326.985L330.057 51H328.785L326.313 44.04L323.841 51H322.581ZM323.985 48.924L324.309 47.964H328.269L328.593 48.924H323.985ZM332.668 51V43.584H330.172V42.6H336.352V43.584H333.868V51H332.668ZM337.963 51V42.6H339.163V51H337.963ZM343.783 51L340.651 42.6H341.947L344.503 49.752L347.071 42.6H348.343L345.211 51H343.783ZM349.827 51V42.6H355.131V43.584H351.027V46.272H354.771V47.232H351.027V50.016H355.131V51H349.827ZM359.814 51.144C359.206 51.144 358.67 51.036 358.206 50.82C357.742 50.596 357.382 50.284 357.126 49.884C356.87 49.484 356.738 49.016 356.73 48.48H358.002C358.002 48.784 358.07 49.064 358.206 49.32C358.35 49.568 358.554 49.768 358.818 49.92C359.09 50.064 359.422 50.136 359.814 50.136C360.15 50.136 360.438 50.08 360.678 49.968C360.926 49.856 361.114 49.704 361.242 49.512C361.37 49.312 361.434 49.084 361.434 48.828C361.434 48.54 361.37 48.304 361.242 48.12C361.114 47.928 360.934 47.768 360.702 47.64C360.478 47.512 360.218 47.4 359.922 47.304C359.634 47.208 359.322 47.104 358.986 46.992C358.306 46.768 357.802 46.484 357.474 46.14C357.154 45.796 356.994 45.348 356.994 44.796C356.994 44.324 357.102 43.916 357.318 43.572C357.542 43.22 357.858 42.948 358.266 42.756C358.674 42.556 359.15 42.456 359.694 42.456C360.246 42.456 360.722 42.556 361.122 42.756C361.53 42.956 361.85 43.232 362.082 43.584C362.314 43.936 362.434 44.348 362.442 44.82H361.17C361.17 44.604 361.11 44.392 360.99 44.184C360.878 43.976 360.71 43.808 360.486 43.68C360.27 43.544 359.998 43.476 359.67 43.476C359.39 43.468 359.142 43.512 358.926 43.608C358.71 43.704 358.542 43.844 358.422 44.028C358.302 44.212 358.242 44.432 358.242 44.688C358.242 44.944 358.298 45.152 358.41 45.312C358.522 45.464 358.678 45.596 358.878 45.708C359.086 45.82 359.33 45.924 359.61 46.02C359.89 46.108 360.198 46.208 360.534 46.32C360.942 46.456 361.31 46.624 361.638 46.824C361.966 47.016 362.222 47.268 362.406 47.58C362.598 47.884 362.694 48.276 362.694 48.756C362.694 49.172 362.586 49.56 362.37 49.92C362.154 50.28 361.834 50.576 361.41 50.808C360.986 51.032 360.454 51.144 359.814 51.144Z" fill="white"/>
<rect x="66.5" width="115" height="26" rx="13" fill="#DFF314"/>
<path d="M79.22 17V16.136C79.788 15.704 80.324 15.268 80.828 14.828C81.34 14.388 81.796 13.952 82.196 13.52C82.596 13.08 82.908 12.652 83.132 12.236C83.364 11.812 83.48 11.408 83.48 11.024C83.48 10.752 83.428 10.5 83.324 10.268C83.228 10.036 83.072 9.848 82.856 9.704C82.648 9.552 82.364 9.476 82.004 9.476C81.652 9.476 81.36 9.552 81.128 9.704C80.896 9.856 80.72 10.06 80.6 10.316C80.488 10.564 80.432 10.84 80.432 11.144H79.268C79.276 10.568 79.4 10.08 79.64 9.68C79.88 9.28 80.208 8.976 80.624 8.768C81.04 8.56 81.508 8.456 82.028 8.456C82.564 8.456 83.028 8.556 83.42 8.756C83.812 8.948 84.12 9.232 84.344 9.608C84.568 9.984 84.68 10.436 84.68 10.964C84.68 11.348 84.6 11.732 84.44 12.116C84.288 12.492 84.08 12.86 83.816 13.22C83.552 13.58 83.256 13.928 82.928 14.264C82.608 14.592 82.276 14.904 81.932 15.2C81.588 15.496 81.26 15.764 80.948 16.004H84.932V17H79.22ZM89.8306 17.144C89.1026 17.144 88.4746 16.964 87.9466 16.604C87.4266 16.236 87.0266 15.728 86.7466 15.08C86.4666 14.424 86.3266 13.664 86.3266 12.8C86.3266 11.936 86.4666 11.18 86.7466 10.532C87.0266 9.876 87.4266 9.368 87.9466 9.008C88.4746 8.64 89.1026 8.456 89.8306 8.456C90.5666 8.456 91.1906 8.64 91.7026 9.008C92.2226 9.368 92.6226 9.876 92.9026 10.532C93.1906 11.18 93.3346 11.936 93.3346 12.8C93.3346 13.664 93.1906 14.424 92.9026 15.08C92.6226 15.728 92.2226 16.236 91.7026 16.604C91.1906 16.964 90.5666 17.144 89.8306 17.144ZM89.8306 16.076C90.2706 16.076 90.6586 15.944 90.9946 15.68C91.3386 15.416 91.6066 15.04 91.7986 14.552C91.9986 14.064 92.0986 13.48 92.0986 12.8C92.0986 12.112 91.9986 11.528 91.7986 11.048C91.6066 10.56 91.3386 10.188 90.9946 9.932C90.6586 9.668 90.2706 9.536 89.8306 9.536C89.3906 9.536 88.9986 9.668 88.6546 9.932C88.3106 10.188 88.0386 10.56 87.8386 11.048C87.6466 11.528 87.5506 12.112 87.5506 12.8C87.5506 13.48 87.6466 14.064 87.8386 14.552C88.0386 15.04 88.3106 15.416 88.6546 15.68C88.9986 15.944 89.3906 16.076 89.8306 16.076ZM94.8814 17V16.136C95.4494 15.704 95.9854 15.268 96.4894 14.828C97.0014 14.388 97.4574 13.952 97.8574 13.52C98.2574 13.08 98.5694 12.652 98.7934 12.236C99.0254 11.812 99.1414 11.408 99.1414 11.024C99.1414 10.752 99.0894 10.5 98.9854 10.268C98.8894 10.036 98.7334 9.848 98.5174 9.704C98.3094 9.552 98.0254 9.476 97.6654 9.476C97.3134 9.476 97.0214 9.552 96.7894 9.704C96.5574 9.856 96.3814 10.06 96.2614 10.316C96.1494 10.564 96.0934 10.84 96.0934 11.144H94.9294C94.9374 10.568 95.0614 10.08 95.3014 9.68C95.5414 9.28 95.8694 8.976 96.2854 8.768C96.7014 8.56 97.1694 8.456 97.6894 8.456C98.2254 8.456 98.6894 8.556 99.0814 8.756C99.4734 8.948 99.7814 9.232 100.005 9.608C100.229 9.984 100.341 10.436 100.341 10.964C100.341 11.348 100.261 11.732 100.101 12.116C99.9494 12.492 99.7414 12.86 99.4774 13.22C99.2134 13.58 98.9174 13.928 98.5894 14.264C98.2694 14.592 97.9374 14.904 97.5934 15.2C97.2494 15.496 96.9214 15.764 96.6094 16.004H100.593V17H94.8814ZM106.058 17V15.284H101.834V14.348L105.866 8.6H107.246V14.24H108.446V15.284H107.246V17H106.058ZM103.142 14.24H106.118V9.92L103.142 14.24ZM110.078 13.892V12.884H114.926V13.892H110.078ZM117.047 17V8.6H119.903C120.575 8.6 121.127 8.712 121.559 8.936C121.999 9.16 122.323 9.464 122.531 9.848C122.739 10.224 122.843 10.656 122.843 11.144C122.843 11.608 122.739 12.032 122.531 12.416C122.323 12.8 122.003 13.108 121.571 13.34C121.139 13.564 120.583 13.676 119.903 13.676H118.247V17H117.047ZM118.247 12.68H119.855C120.495 12.68 120.947 12.54 121.211 12.26C121.483 11.98 121.619 11.608 121.619 11.144C121.619 10.656 121.483 10.276 121.211 10.004C120.947 9.732 120.495 9.596 119.855 9.596H118.247V12.68ZM124.521 17V8.6H127.365C128.029 8.6 128.573 8.712 128.997 8.936C129.421 9.16 129.733 9.46 129.933 9.836C130.141 10.204 130.245 10.624 130.245 11.096C130.245 11.544 130.141 11.96 129.933 12.344C129.733 12.72 129.417 13.024 128.985 13.256C128.553 13.48 128.001 13.592 127.329 13.592H125.721V17H124.521ZM128.937 17L127.125 13.268H128.445L130.329 17H128.937ZM125.721 12.68H127.293C127.885 12.68 128.317 12.536 128.589 12.248C128.869 11.952 129.009 11.576 129.009 11.12C129.009 10.656 128.873 10.288 128.601 10.016C128.329 9.744 127.889 9.608 127.281 9.608H125.721V12.68ZM132.181 17V8.6H137.485V9.584H133.381V12.272H137.125V13.232H133.381V16.016H137.485V17H132.181ZM142.168 17.144C141.56 17.144 141.024 17.036 140.56 16.82C140.096 16.596 139.736 16.284 139.48 15.884C139.224 15.484 139.092 15.016 139.084 14.48H140.356C140.356 14.784 140.424 15.064 140.56 15.32C140.704 15.568 140.908 15.768 141.172 15.92C141.444 16.064 141.776 16.136 142.168 16.136C142.504 16.136 142.792 16.08 143.032 15.968C143.28 15.856 143.468 15.704 143.596 15.512C143.724 15.312 143.788 15.084 143.788 14.828C143.788 14.54 143.724 14.304 143.596 14.12C143.468 13.928 143.288 13.768 143.056 13.64C142.832 13.512 142.572 13.4 142.276 13.304C141.988 13.208 141.676 13.104 141.34 12.992C140.66 12.768 140.156 12.484 139.828 12.14C139.508 11.796 139.348 11.348 139.348 10.796C139.348 10.324 139.456 9.916 139.672 9.572C139.896 9.22 140.212 8.948 140.62 8.756C141.028 8.556 141.504 8.456 142.048 8.456C142.6 8.456 143.076 8.556 143.476 8.756C143.884 8.956 144.204 9.232 144.436 9.584C144.668 9.936 144.788 10.348 144.796 10.82H143.524C143.524 10.604 143.464 10.392 143.344 10.184C143.232 9.976 143.064 9.808 142.84 9.68C142.624 9.544 142.352 9.476 142.024 9.476C141.744 9.468 141.496 9.512 141.28 9.608C141.064 9.704 140.896 9.844 140.776 10.028C140.656 10.212 140.596 10.432 140.596 10.688C140.596 10.944 140.652 11.152 140.764 11.312C140.876 11.464 141.032 11.596 141.232 11.708C141.44 11.82 141.684 11.924 141.964 12.02C142.244 12.108 142.552 12.208 142.888 12.32C143.296 12.456 143.664 12.624 143.992 12.824C144.32 13.016 144.576 13.268 144.76 13.58C144.952 13.884 145.048 14.276 145.048 14.756C145.048 15.172 144.94 15.56 144.724 15.92C144.508 16.28 144.188 16.576 143.764 16.808C143.34 17.032 142.808 17.144 142.168 17.144ZM146.858 17V8.6H152.162V9.584H148.058V12.272H151.802V13.232H148.058V16.016H152.162V17H146.858ZM154.097 17V8.6H155.297L159.581 15.044V8.6H160.781V17H159.581L155.297 10.556V17H154.097ZM164.874 17V9.584H162.378V8.6H168.558V9.584H166.074V17H164.874Z" fill="#181818"/>
</svg>
