<svg width="802" height="80" viewBox="0 0 802 80" fill="none" xmlns="http://www.w3.org/2000/svg">
<path d="M791.282 18L791.282 18.2594C791.282 23.6577 795.924 27.9964 801.589 27.9964" stroke="#999999" stroke-width="1.5" stroke-miterlimit="10"/>
<path d="M791.282 37.9997L791.282 37.7403C791.282 32.3421 795.924 27.9961 801.589 27.9961" stroke="#999999" stroke-width="1.5" stroke-miterlimit="10"/>
<path d="M776 28L801.589 28L776 28Z" fill="white"/>
<path d="M776 28L801.589 28" stroke="#999999" stroke-width="1.5" stroke-miterlimit="10"/>
<path d="M247.192 9.468V11.492H240.526V16.31H246.026V18.246H240.526V25H238.018V9.468H247.192ZM260.382 12.878V25H257.852V22.36C257.544 23.2547 257.009 23.9513 256.246 24.45C255.484 24.934 254.596 25.176 253.584 25.176C252.176 25.176 251.047 24.7213 250.196 23.812C249.346 22.9027 248.92 21.6047 248.92 19.918V12.878H251.428V19.654C251.428 20.754 251.707 21.6047 252.264 22.206C252.822 22.7927 253.584 23.086 254.552 23.086C255.55 23.086 256.349 22.7633 256.95 22.118C257.552 21.4727 257.852 20.534 257.852 19.302V12.878H260.382ZM265.674 8.72V25H263.166V8.72H265.674ZM270.997 8.72V25H268.489V8.72H270.997ZM288.956 20.864C288.956 21.6267 288.773 22.338 288.406 22.998C288.039 23.6433 287.482 24.164 286.734 24.56C285.986 24.956 285.069 25.154 283.984 25.154C282.928 25.154 281.982 24.9707 281.146 24.604C280.31 24.2227 279.643 23.6947 279.144 23.02C278.645 22.3453 278.359 21.568 278.286 20.688H280.97C281.043 21.3627 281.329 21.942 281.828 22.426C282.341 22.91 283.023 23.152 283.874 23.152C284.637 23.152 285.223 22.9467 285.634 22.536C286.059 22.1253 286.272 21.5973 286.272 20.952C286.272 20.3947 286.118 19.94 285.81 19.588C285.502 19.2213 285.121 18.9353 284.666 18.73C284.211 18.5247 283.588 18.29 282.796 18.026C281.828 17.718 281.036 17.41 280.42 17.102C279.819 16.794 279.305 16.3467 278.88 15.76C278.455 15.1733 278.242 14.4033 278.242 13.45C278.242 12.614 278.447 11.8807 278.858 11.25C279.269 10.6193 279.855 10.1353 280.618 9.798C281.381 9.446 282.261 9.27 283.258 9.27C284.842 9.27 286.096 9.65133 287.02 10.414C287.959 11.1767 288.494 12.174 288.626 13.406H285.92C285.817 12.8193 285.539 12.3207 285.084 11.91C284.644 11.4847 284.035 11.272 283.258 11.272C282.554 11.272 281.989 11.4553 281.564 11.822C281.139 12.174 280.926 12.6873 280.926 13.362C280.926 13.89 281.073 14.33 281.366 14.682C281.659 15.0193 282.026 15.2907 282.466 15.496C282.921 15.6867 283.537 15.914 284.314 16.178C285.297 16.486 286.096 16.8013 286.712 17.124C287.343 17.432 287.871 17.8867 288.296 18.488C288.736 19.0893 288.956 19.8813 288.956 20.864ZM297.341 22.822V25H295.801C294.51 25 293.527 24.692 292.853 24.076C292.193 23.4453 291.863 22.404 291.863 20.952V15.012H290.125V12.878H291.863V9.864H294.393V12.878H297.319V15.012H294.393V20.996C294.393 21.6853 294.517 22.162 294.767 22.426C295.031 22.69 295.485 22.822 296.131 22.822H297.341ZM304.332 12.724C305.432 12.724 306.371 12.9953 307.148 13.538C307.926 14.0807 308.476 14.7993 308.798 15.694V12.878H311.306V25H308.798V22.184C308.476 23.0787 307.926 23.7973 307.148 24.34C306.371 24.8827 305.432 25.154 304.332 25.154C303.276 25.154 302.33 24.9047 301.494 24.406C300.673 23.9073 300.028 23.1887 299.558 22.25C299.089 21.3113 298.854 20.204 298.854 18.928C298.854 17.6667 299.089 16.5667 299.558 15.628C300.028 14.6893 300.673 13.9707 301.494 13.472C302.33 12.9733 303.276 12.724 304.332 12.724ZM305.102 14.924C303.988 14.924 303.093 15.2833 302.418 16.002C301.758 16.706 301.428 17.6813 301.428 18.928C301.428 20.1747 301.758 21.1573 302.418 21.876C303.093 22.58 303.988 22.932 305.102 22.932C305.806 22.932 306.437 22.7707 306.994 22.448C307.552 22.1107 307.992 21.6413 308.314 21.04C308.637 20.4387 308.798 19.7347 308.798 18.928C308.798 18.136 308.637 17.4393 308.314 16.838C307.992 16.222 307.552 15.7527 306.994 15.43C306.437 15.0927 305.806 14.924 305.102 14.924ZM319.486 12.724C321.055 12.724 322.353 13.142 323.38 13.978C324.407 14.7993 325.045 15.9213 325.294 17.344H322.632C322.485 16.5813 322.126 15.9873 321.554 15.562C320.997 15.122 320.293 14.902 319.442 14.902C318.474 14.902 317.667 15.2467 317.022 15.936C316.377 16.6107 316.054 17.608 316.054 18.928C316.054 20.248 316.377 21.2527 317.022 21.942C317.667 22.6313 318.474 22.976 319.442 22.976C320.293 22.976 320.997 22.756 321.554 22.316C322.126 21.876 322.485 21.2747 322.632 20.512H325.294C325.045 21.9347 324.407 23.064 323.38 23.9C322.353 24.736 321.055 25.154 319.486 25.154C318.313 25.154 317.271 24.9047 316.362 24.406C315.467 23.9073 314.763 23.1887 314.25 22.25C313.737 21.3113 313.48 20.204 313.48 18.928C313.48 17.6667 313.737 16.5667 314.25 15.628C314.763 14.6893 315.467 13.9707 316.362 13.472C317.271 12.9733 318.313 12.724 319.486 12.724ZM334.361 25L330.005 19.61V25H327.497V8.72H330.005V18.048L334.317 12.878H337.331L332.051 18.906L337.463 25H334.361ZM357.147 17.212C357.147 18.7813 356.824 20.1527 356.179 21.326C355.548 22.4847 354.617 23.3867 353.385 24.032C352.167 24.6773 350.708 25 349.007 25H343.815V9.468H349.007C350.708 9.468 352.167 9.79067 353.385 10.436C354.617 11.0667 355.548 11.9613 356.179 13.12C356.824 14.2787 357.147 15.6427 357.147 17.212ZM348.809 22.734C350.671 22.734 352.101 22.25 353.099 21.282C354.096 20.314 354.595 18.9573 354.595 17.212C354.595 15.4667 354.096 14.11 353.099 13.142C352.101 12.174 350.671 11.69 348.809 11.69H346.323V22.734H348.809ZM370.714 18.356C370.714 18.7667 370.685 19.126 370.626 19.434H361.298C361.342 20.6807 361.687 21.6047 362.332 22.206C362.978 22.8073 363.777 23.108 364.73 23.108C365.566 23.108 366.27 22.8953 366.842 22.47C367.429 22.0447 367.788 21.48 367.92 20.776H370.604C370.443 21.6267 370.106 22.382 369.592 23.042C369.079 23.702 368.412 24.2227 367.59 24.604C366.769 24.9707 365.852 25.154 364.84 25.154C363.667 25.154 362.626 24.9047 361.716 24.406C360.822 23.9073 360.118 23.1887 359.604 22.25C359.091 21.3113 358.834 20.204 358.834 18.928C358.834 17.6667 359.091 16.5667 359.604 15.628C360.118 14.6893 360.822 13.9707 361.716 13.472C362.626 12.9733 363.667 12.724 364.84 12.724C366.028 12.724 367.062 12.9733 367.942 13.472C368.837 13.956 369.519 14.6307 369.988 15.496C370.472 16.3467 370.714 17.3 370.714 18.356ZM368.184 18.29C368.214 17.498 368.074 16.838 367.766 16.31C367.473 15.7673 367.062 15.3713 366.534 15.122C366.021 14.858 365.456 14.726 364.84 14.726C363.858 14.726 363.036 15.0267 362.376 15.628C361.716 16.2293 361.357 17.1167 361.298 18.29H368.184ZM377.888 22.404L381.32 12.878H384.004L379.384 25H376.348L371.728 12.878H374.412L377.888 22.404ZM396.893 18.356C396.893 18.7667 396.864 19.126 396.805 19.434H387.477C387.521 20.6807 387.866 21.6047 388.511 22.206C389.157 22.8073 389.956 23.108 390.909 23.108C391.745 23.108 392.449 22.8953 393.021 22.47C393.608 22.0447 393.967 21.48 394.099 20.776H396.783C396.622 21.6267 396.285 22.382 395.771 23.042C395.258 23.702 394.591 24.2227 393.769 24.604C392.948 24.9707 392.031 25.154 391.019 25.154C389.846 25.154 388.805 24.9047 387.895 24.406C387.001 23.9073 386.297 23.1887 385.783 22.25C385.27 21.3113 385.013 20.204 385.013 18.928C385.013 17.6667 385.27 16.5667 385.783 15.628C386.297 14.6893 387.001 13.9707 387.895 13.472C388.805 12.9733 389.846 12.724 391.019 12.724C392.207 12.724 393.241 12.9733 394.121 13.472C395.016 13.956 395.698 14.6307 396.167 15.496C396.651 16.3467 396.893 17.3 396.893 18.356ZM394.363 18.29C394.393 17.498 394.253 16.838 393.945 16.31C393.652 15.7673 393.241 15.3713 392.713 15.122C392.2 14.858 391.635 14.726 391.019 14.726C390.037 14.726 389.215 15.0267 388.555 15.628C387.895 16.2293 387.536 17.1167 387.477 18.29H394.363ZM401.603 8.72V25H399.095V8.72H401.603ZM409.962 12.724C411.135 12.724 412.191 12.9733 413.13 13.472C414.069 13.9707 414.802 14.6893 415.33 15.628C415.858 16.5667 416.122 17.6667 416.122 18.928C416.122 20.204 415.858 21.3113 415.33 22.25C414.802 23.1887 414.069 23.9073 413.13 24.406C412.191 24.9047 411.135 25.154 409.962 25.154C408.789 25.154 407.733 24.9047 406.794 24.406C405.87 23.9073 405.137 23.1887 404.594 22.25C404.066 21.2967 403.802 20.1893 403.802 18.928C403.802 17.6667 404.066 16.5667 404.594 15.628C405.137 14.6893 405.87 13.9707 406.794 13.472C407.733 12.9733 408.789 12.724 409.962 12.724ZM409.962 14.902C409.317 14.902 408.723 15.0487 408.18 15.342C407.637 15.6353 407.197 16.09 406.86 16.706C406.537 17.3073 406.376 18.048 406.376 18.928C406.376 19.8227 406.537 20.5707 406.86 21.172C407.197 21.7733 407.637 22.2207 408.18 22.514C408.723 22.8073 409.317 22.954 409.962 22.954C410.607 22.954 411.201 22.8073 411.744 22.514C412.287 22.2207 412.719 21.7733 413.042 21.172C413.379 20.5707 413.548 19.8227 413.548 18.928C413.548 18.048 413.379 17.3073 413.042 16.706C412.719 16.09 412.287 15.6353 411.744 15.342C411.201 15.0487 410.607 14.902 409.962 14.902ZM425.265 12.724C426.321 12.724 427.26 12.9733 428.081 13.472C428.917 13.9707 429.57 14.6893 430.039 15.628C430.508 16.5667 430.743 17.6667 430.743 18.928C430.743 20.204 430.508 21.3113 430.039 22.25C429.57 23.1887 428.917 23.9073 428.081 24.406C427.26 24.9047 426.321 25.154 425.265 25.154C424.165 25.154 423.226 24.8827 422.449 24.34C421.672 23.7973 421.129 23.0787 420.821 22.184V30.764H418.313V12.878H420.821V15.694C421.129 14.7993 421.672 14.0807 422.449 13.538C423.226 12.9953 424.165 12.724 425.265 12.724ZM424.495 14.924C423.791 14.924 423.16 15.0927 422.603 15.43C422.046 15.7527 421.606 16.222 421.283 16.838C420.96 17.4393 420.799 18.136 420.799 18.928C420.799 19.7347 420.96 20.4387 421.283 21.04C421.606 21.6413 422.046 22.1107 422.603 22.448C423.16 22.7707 423.791 22.932 424.495 22.932C425.61 22.932 426.504 22.58 427.179 21.876C427.854 21.1573 428.191 20.1747 428.191 18.928C428.191 17.696 427.854 16.7207 427.179 16.002C426.504 15.2833 425.61 14.924 424.495 14.924ZM444.203 18.356C444.203 18.7667 444.174 19.126 444.115 19.434H434.787C434.831 20.6807 435.176 21.6047 435.821 22.206C436.466 22.8073 437.266 23.108 438.219 23.108C439.055 23.108 439.759 22.8953 440.331 22.47C440.918 22.0447 441.277 21.48 441.409 20.776H444.093C443.932 21.6267 443.594 22.382 443.081 23.042C442.568 23.702 441.9 24.2227 441.079 24.604C440.258 24.9707 439.341 25.154 438.329 25.154C437.156 25.154 436.114 24.9047 435.205 24.406C434.31 23.9073 433.606 23.1887 433.093 22.25C432.58 21.3113 432.323 20.204 432.323 18.928C432.323 17.6667 432.58 16.5667 433.093 15.628C433.606 14.6893 434.31 13.9707 435.205 13.472C436.114 12.9733 437.156 12.724 438.329 12.724C439.517 12.724 440.551 12.9733 441.431 13.472C442.326 13.956 443.008 14.6307 443.477 15.496C443.961 16.3467 444.203 17.3 444.203 18.356ZM441.673 18.29C441.702 17.498 441.563 16.838 441.255 16.31C440.962 15.7673 440.551 15.3713 440.023 15.122C439.51 14.858 438.945 14.726 438.329 14.726C437.346 14.726 436.525 15.0267 435.865 15.628C435.205 16.2293 434.846 17.1167 434.787 18.29H441.673ZM448.912 15.254C449.323 14.462 449.91 13.8387 450.672 13.384C451.435 12.9147 452.315 12.68 453.312 12.68V15.408H452.564C451.464 15.408 450.577 15.6793 449.902 16.222C449.242 16.75 448.912 17.63 448.912 18.862V25H446.404V12.878H448.912V15.254Z" fill="white"/>
<path d="M237.388 51V42.6H242.62V43.584H238.588V46.308H241.96V47.268H238.588V51H237.388ZM244.275 51V42.6H247.119C247.783 42.6 248.327 42.712 248.751 42.936C249.175 43.16 249.487 43.46 249.687 43.836C249.895 44.204 249.999 44.624 249.999 45.096C249.999 45.544 249.895 45.96 249.687 46.344C249.487 46.72 249.171 47.024 248.739 47.256C248.307 47.48 247.755 47.592 247.083 47.592H245.475V51H244.275ZM248.691 51L246.879 47.268H248.199L250.083 51H248.691ZM245.475 46.68H247.047C247.639 46.68 248.071 46.536 248.343 46.248C248.623 45.952 248.763 45.576 248.763 45.12C248.763 44.656 248.627 44.288 248.355 44.016C248.083 43.744 247.643 43.608 247.035 43.608H245.475V46.68ZM251.936 51V42.6H257.24V43.584H253.136V46.272H256.88V47.232H253.136V50.016H257.24V51H251.936ZM259.175 51V42.6H264.479V43.584H260.375V46.272H264.119V47.232H260.375V50.016H264.479V51H259.175ZM266.414 51V42.6H267.614V50.052H271.454V51H266.414ZM272.691 51L275.787 42.6H277.095L280.167 51H278.895L276.423 44.04L273.951 51H272.691ZM274.095 48.924L274.419 47.964H278.379L278.703 48.924H274.095ZM281.747 51V42.6H282.947L287.231 49.044V42.6H288.431V51H287.231L282.947 44.556V51H281.747ZM294.216 51.144C293.4 51.144 292.696 50.964 292.104 50.604C291.512 50.236 291.056 49.728 290.736 49.08C290.416 48.424 290.256 47.664 290.256 46.8C290.256 45.944 290.416 45.188 290.736 44.532C291.056 43.876 291.512 43.368 292.104 43.008C292.696 42.64 293.4 42.456 294.216 42.456C295.192 42.456 295.984 42.692 296.592 43.164C297.2 43.636 297.588 44.3 297.756 45.156H296.448C296.32 44.66 296.072 44.264 295.704 43.968C295.336 43.672 294.836 43.524 294.204 43.524C293.652 43.524 293.168 43.656 292.752 43.92C292.344 44.184 292.028 44.56 291.804 45.048C291.588 45.536 291.48 46.12 291.48 46.8C291.48 47.48 291.588 48.068 291.804 48.564C292.028 49.052 292.344 49.428 292.752 49.692C293.168 49.948 293.652 50.076 294.204 50.076C294.836 50.076 295.336 49.936 295.704 49.656C296.072 49.368 296.32 48.98 296.448 48.492H297.756C297.588 49.324 297.2 49.976 296.592 50.448C295.984 50.912 295.192 51.144 294.216 51.144ZM299.577 51V42.6H304.881V43.584H300.777V46.272H304.521V47.232H300.777V50.016H304.881V51H299.577Z" fill="#999999"/>
<rect x="68" y="8" width="116" height="26" rx="13" fill="#DFF314"/>
<path d="M110.444 25V24.136C111.012 23.704 111.548 23.268 112.052 22.828C112.564 22.388 113.02 21.952 113.42 21.52C113.82 21.08 114.132 20.652 114.356 20.236C114.588 19.812 114.704 19.408 114.704 19.024C114.704 18.752 114.652 18.5 114.548 18.268C114.452 18.036 114.296 17.848 114.08 17.704C113.872 17.552 113.588 17.476 113.228 17.476C112.876 17.476 112.584 17.552 112.352 17.704C112.12 17.856 111.944 18.06 111.824 18.316C111.712 18.564 111.656 18.84 111.656 19.144H110.492C110.5 18.568 110.624 18.08 110.864 17.68C111.104 17.28 111.432 16.976 111.848 16.768C112.264 16.56 112.732 16.456 113.252 16.456C113.788 16.456 114.252 16.556 114.644 16.756C115.036 16.948 115.344 17.232 115.568 17.608C115.792 17.984 115.904 18.436 115.904 18.964C115.904 19.348 115.824 19.732 115.664 20.116C115.512 20.492 115.304 20.86 115.04 21.22C114.776 21.58 114.48 21.928 114.152 22.264C113.832 22.592 113.5 22.904 113.156 23.2C112.812 23.496 112.484 23.764 112.172 24.004H116.156V25H110.444ZM121.054 25.144C120.326 25.144 119.698 24.964 119.17 24.604C118.65 24.236 118.25 23.728 117.97 23.08C117.69 22.424 117.55 21.664 117.55 20.8C117.55 19.936 117.69 19.18 117.97 18.532C118.25 17.876 118.65 17.368 119.17 17.008C119.698 16.64 120.326 16.456 121.054 16.456C121.79 16.456 122.414 16.64 122.926 17.008C123.446 17.368 123.846 17.876 124.126 18.532C124.414 19.18 124.558 19.936 124.558 20.8C124.558 21.664 124.414 22.424 124.126 23.08C123.846 23.728 123.446 24.236 122.926 24.604C122.414 24.964 121.79 25.144 121.054 25.144ZM121.054 24.076C121.494 24.076 121.882 23.944 122.218 23.68C122.562 23.416 122.83 23.04 123.022 22.552C123.222 22.064 123.322 21.48 123.322 20.8C123.322 20.112 123.222 19.528 123.022 19.048C122.83 18.56 122.562 18.188 122.218 17.932C121.882 17.668 121.494 17.536 121.054 17.536C120.614 17.536 120.222 17.668 119.878 17.932C119.534 18.188 119.262 18.56 119.062 19.048C118.87 19.528 118.774 20.112 118.774 20.8C118.774 21.48 118.87 22.064 119.062 22.552C119.262 23.04 119.534 23.416 119.878 23.68C120.222 23.944 120.614 24.076 121.054 24.076ZM126.105 25V24.136C126.673 23.704 127.209 23.268 127.713 22.828C128.225 22.388 128.681 21.952 129.081 21.52C129.481 21.08 129.793 20.652 130.017 20.236C130.249 19.812 130.365 19.408 130.365 19.024C130.365 18.752 130.313 18.5 130.209 18.268C130.113 18.036 129.957 17.848 129.741 17.704C129.533 17.552 129.249 17.476 128.889 17.476C128.537 17.476 128.245 17.552 128.013 17.704C127.781 17.856 127.605 18.06 127.485 18.316C127.373 18.564 127.317 18.84 127.317 19.144H126.153C126.161 18.568 126.285 18.08 126.525 17.68C126.765 17.28 127.093 16.976 127.509 16.768C127.925 16.56 128.393 16.456 128.913 16.456C129.449 16.456 129.913 16.556 130.305 16.756C130.697 16.948 131.005 17.232 131.229 17.608C131.453 17.984 131.565 18.436 131.565 18.964C131.565 19.348 131.485 19.732 131.325 20.116C131.173 20.492 130.965 20.86 130.701 21.22C130.437 21.58 130.141 21.928 129.813 22.264C129.493 22.592 129.161 22.904 128.817 23.2C128.473 23.496 128.145 23.764 127.833 24.004H131.817V25H126.105ZM136.665 25.144C136.049 25.144 135.529 25.032 135.105 24.808C134.689 24.576 134.357 24.268 134.109 23.884C133.861 23.5 133.677 23.068 133.557 22.588C133.445 22.108 133.389 21.616 133.389 21.112C133.389 20.184 133.517 19.372 133.773 18.676C134.029 17.98 134.401 17.436 134.889 17.044C135.377 16.652 135.965 16.456 136.653 16.456C137.197 16.456 137.661 16.564 138.045 16.78C138.437 16.988 138.745 17.264 138.969 17.608C139.193 17.952 139.329 18.332 139.377 18.748H138.261C138.181 18.34 138.001 18.028 137.721 17.812C137.441 17.588 137.081 17.476 136.641 17.476C136.241 17.476 135.885 17.6 135.573 17.848C135.269 18.088 135.025 18.456 134.841 18.952C134.665 19.448 134.565 20.076 134.541 20.836C134.541 20.852 134.541 20.868 134.541 20.884C134.541 20.9 134.541 20.916 134.541 20.932C134.661 20.692 134.829 20.472 135.045 20.272C135.269 20.072 135.533 19.912 135.837 19.792C136.149 19.672 136.485 19.612 136.845 19.612C137.317 19.612 137.753 19.724 138.153 19.948C138.561 20.164 138.889 20.476 139.137 20.884C139.393 21.292 139.521 21.768 139.521 22.312C139.521 22.8 139.405 23.26 139.173 23.692C138.941 24.124 138.609 24.476 138.177 24.748C137.753 25.012 137.249 25.144 136.665 25.144ZM136.581 24.1C136.917 24.1 137.217 24.028 137.481 23.884C137.745 23.732 137.953 23.524 138.105 23.26C138.257 22.996 138.333 22.696 138.333 22.36C138.333 22.016 138.257 21.716 138.105 21.46C137.953 21.196 137.745 20.992 137.481 20.848C137.217 20.704 136.917 20.632 136.581 20.632C136.245 20.632 135.941 20.708 135.669 20.86C135.397 21.012 135.181 21.22 135.021 21.484C134.869 21.748 134.793 22.044 134.793 22.372C134.793 22.708 134.869 23.008 135.021 23.272C135.181 23.528 135.397 23.732 135.669 23.884C135.941 24.028 136.245 24.1 136.581 24.1Z" fill="#181818"/>
</svg>
