<svg width="216" height="40" viewBox="0 0 216 40" fill="none" xmlns="http://www.w3.org/2000/svg">
<path d="M11.506 15.468V17.492H7.172V31H4.642V17.492H0.33V15.468H11.506ZM19.9334 18.68C21.3414 18.68 22.4707 19.1347 23.3214 20.044C24.172 20.9533 24.5974 22.2513 24.5974 23.938V31H22.0894V24.202C22.0894 23.1167 21.8107 22.2807 21.2534 21.694C20.696 21.0927 19.9334 20.792 18.9654 20.792C17.968 20.792 17.1687 21.1147 16.5674 21.76C15.966 22.3907 15.6654 23.322 15.6654 24.554V31H13.1574V14.72H15.6654V21.54C15.988 20.6307 16.5307 19.9267 17.2934 19.428C18.056 18.9293 18.936 18.68 19.9334 18.68ZM38.5744 24.356C38.5744 24.7667 38.5451 25.126 38.4864 25.434H29.1584C29.2024 26.6807 29.5471 27.6047 30.1924 28.206C30.8378 28.8073 31.6371 29.108 32.5904 29.108C33.4264 29.108 34.1304 28.8953 34.7024 28.47C35.2891 28.0447 35.6484 27.48 35.7804 26.776H38.4644C38.3031 27.6267 37.9658 28.382 37.4524 29.042C36.9391 29.702 36.2718 30.2227 35.4504 30.604C34.6291 30.9707 33.7124 31.154 32.7004 31.154C31.5271 31.154 30.4858 30.9047 29.5764 30.406C28.6818 29.9073 27.9778 29.1887 27.4644 28.25C26.9511 27.3113 26.6944 26.204 26.6944 24.928C26.6944 23.6667 26.9511 22.5667 27.4644 21.628C27.9778 20.6893 28.6818 19.9707 29.5764 19.472C30.4858 18.9733 31.5271 18.724 32.7004 18.724C33.8884 18.724 34.9224 18.9733 35.8024 19.472C36.6971 19.956 37.3791 20.6307 37.8484 21.496C38.3324 22.3467 38.5744 23.3 38.5744 24.356ZM36.0444 24.29C36.0738 23.498 35.9344 22.838 35.6264 22.31C35.3331 21.7673 34.9224 21.3713 34.3944 21.122C33.8811 20.858 33.3164 20.726 32.7004 20.726C31.7178 20.726 30.8964 21.0267 30.2364 21.628C29.5764 22.2293 29.2171 23.1167 29.1584 24.29H36.0444ZM54.8862 15.468V17.492H48.2202V22.31H53.7202V24.246H48.2202V31H45.7122V15.468H54.8862ZM68.0764 18.878V31H65.5464V28.36C65.2384 29.2547 64.7031 29.9513 63.9404 30.45C63.1778 30.934 62.2904 31.176 61.2784 31.176C59.8704 31.176 58.7411 30.7213 57.8904 29.812C57.0398 28.9027 56.6144 27.6047 56.6144 25.918V18.878H59.1224V25.654C59.1224 26.754 59.4011 27.6047 59.9584 28.206C60.5158 28.7927 61.2784 29.086 62.2464 29.086C63.2438 29.086 64.0431 28.7633 64.6444 28.118C65.2458 27.4727 65.5464 26.534 65.5464 25.302V18.878H68.0764ZM73.3681 14.72V31H70.8601V14.72H73.3681ZM78.6911 14.72V31H76.1831V14.72H78.6911ZM88.9503 24.972V31H86.4423V15.468H91.7223C93.5116 15.468 94.8536 15.8933 95.7483 16.744C96.6576 17.5947 97.1123 18.7607 97.1123 20.242C97.1123 21.7087 96.6503 22.8673 95.7263 23.718C94.8023 24.554 93.4676 24.972 91.7223 24.972H88.9503ZM91.4583 22.926C93.5263 22.926 94.5603 22.0313 94.5603 20.242C94.5603 19.362 94.311 18.6947 93.8123 18.24C93.3283 17.7707 92.5436 17.536 91.4583 17.536H88.9503V22.926H91.4583ZM103.953 18.724C105.053 18.724 105.992 18.9953 106.769 19.538C107.547 20.0807 108.097 20.7993 108.419 21.694V18.878H110.927V31H108.419V28.184C108.097 29.0787 107.547 29.7973 106.769 30.34C105.992 30.8827 105.053 31.154 103.953 31.154C102.897 31.154 101.951 30.9047 101.115 30.406C100.294 29.9073 99.6488 29.1887 99.1794 28.25C98.7101 27.3113 98.4754 26.204 98.4754 24.928C98.4754 23.6667 98.7101 22.5667 99.1794 21.628C99.6488 20.6893 100.294 19.9707 101.115 19.472C101.951 18.9733 102.897 18.724 103.953 18.724ZM104.723 20.924C103.609 20.924 102.714 21.2833 102.039 22.002C101.379 22.706 101.049 23.6813 101.049 24.928C101.049 26.1747 101.379 27.1573 102.039 27.876C102.714 28.58 103.609 28.932 104.723 28.932C105.427 28.932 106.058 28.7707 106.615 28.448C107.173 28.1107 107.613 27.6413 107.935 27.04C108.258 26.4387 108.419 25.7347 108.419 24.928C108.419 24.136 108.258 23.4393 107.935 22.838C107.613 22.222 107.173 21.7527 106.615 21.43C106.058 21.0927 105.427 20.924 104.723 20.924ZM119.107 18.724C120.676 18.724 121.974 19.142 123.001 19.978C124.028 20.7993 124.666 21.9213 124.915 23.344H122.253C122.106 22.5813 121.747 21.9873 121.175 21.562C120.618 21.122 119.914 20.902 119.063 20.902C118.095 20.902 117.288 21.2467 116.643 21.936C115.998 22.6107 115.675 23.608 115.675 24.928C115.675 26.248 115.998 27.2527 116.643 27.942C117.288 28.6313 118.095 28.976 119.063 28.976C119.914 28.976 120.618 28.756 121.175 28.316C121.747 27.876 122.106 27.2747 122.253 26.512H124.915C124.666 27.9347 124.028 29.064 123.001 29.9C121.974 30.736 120.676 31.154 119.107 31.154C117.934 31.154 116.892 30.9047 115.983 30.406C115.088 29.9073 114.384 29.1887 113.871 28.25C113.358 27.3113 113.101 26.204 113.101 24.928C113.101 23.6667 113.358 22.5667 113.871 21.628C114.384 20.6893 115.088 19.9707 115.983 19.472C116.892 18.9733 117.934 18.724 119.107 18.724ZM133.982 31L129.626 25.61V31H127.118V14.72H129.626V24.048L133.938 18.878H136.952L131.672 24.906L137.084 31H133.982ZM143.362 18.724C144.462 18.724 145.4 18.9953 146.178 19.538C146.955 20.0807 147.505 20.7993 147.828 21.694V18.878H150.336V31H147.828V28.184C147.505 29.0787 146.955 29.7973 146.178 30.34C145.4 30.8827 144.462 31.154 143.362 31.154C142.306 31.154 141.36 30.9047 140.524 30.406C139.702 29.9073 139.057 29.1887 138.588 28.25C138.118 27.3113 137.884 26.204 137.884 24.928C137.884 23.6667 138.118 22.5667 138.588 21.628C139.057 20.6893 139.702 19.9707 140.524 19.472C141.36 18.9733 142.306 18.724 143.362 18.724ZM144.132 20.924C143.017 20.924 142.122 21.2833 141.448 22.002C140.788 22.706 140.458 23.6813 140.458 24.928C140.458 26.1747 140.788 27.1573 141.448 27.876C142.122 28.58 143.017 28.932 144.132 28.932C144.836 28.932 145.466 28.7707 146.024 28.448C146.581 28.1107 147.021 27.6413 147.344 27.04C147.666 26.4387 147.828 25.7347 147.828 24.928C147.828 24.136 147.666 23.4393 147.344 22.838C147.021 22.222 146.581 21.7527 146.024 21.43C145.466 21.0927 144.836 20.924 144.132 20.924ZM157.987 18.724C159.087 18.724 160.026 18.9953 160.803 19.538C161.581 20.0807 162.131 20.7993 162.453 21.694V18.878H164.961V31.132C164.961 32.2613 164.727 33.2587 164.257 34.124C163.803 35.004 163.143 35.6933 162.277 36.192C161.412 36.6907 160.385 36.94 159.197 36.94C157.496 36.94 156.117 36.5367 155.061 35.73C154.02 34.9233 153.367 33.8307 153.103 32.452H155.589C155.795 33.1707 156.191 33.728 156.777 34.124C157.364 34.5347 158.112 34.74 159.021 34.74C160.019 34.74 160.84 34.432 161.485 33.816C162.131 33.2 162.453 32.3053 162.453 31.132V28.184C162.131 29.0787 161.581 29.7973 160.803 30.34C160.026 30.8827 159.087 31.154 157.987 31.154C156.931 31.154 155.985 30.9047 155.149 30.406C154.328 29.9073 153.683 29.1887 153.213 28.25C152.744 27.3113 152.509 26.204 152.509 24.928C152.509 23.6667 152.744 22.5667 153.213 21.628C153.683 20.6893 154.328 19.9707 155.149 19.472C155.985 18.9733 156.931 18.724 157.987 18.724ZM158.757 20.924C157.643 20.924 156.748 21.2833 156.073 22.002C155.413 22.706 155.083 23.6813 155.083 24.928C155.083 26.1747 155.413 27.1573 156.073 27.876C156.748 28.58 157.643 28.932 158.757 28.932C159.461 28.932 160.092 28.7707 160.649 28.448C161.207 28.1107 161.647 27.6413 161.969 27.04C162.292 26.4387 162.453 25.7347 162.453 24.928C162.453 24.136 162.292 23.4393 161.969 22.838C161.647 22.222 161.207 21.7527 160.649 21.43C160.092 21.0927 159.461 20.924 158.757 20.924ZM179.015 24.356C179.015 24.7667 178.986 25.126 178.927 25.434H169.599C169.643 26.6807 169.988 27.6047 170.633 28.206C171.279 28.8073 172.078 29.108 173.031 29.108C173.867 29.108 174.571 28.8953 175.143 28.47C175.73 28.0447 176.089 27.48 176.221 26.776H178.905C178.744 27.6267 178.407 28.382 177.893 29.042C177.38 29.702 176.713 30.2227 175.891 30.604C175.07 30.9707 174.153 31.154 173.141 31.154C171.968 31.154 170.927 30.9047 170.017 30.406C169.123 29.9073 168.419 29.1887 167.905 28.25C167.392 27.3113 167.135 26.204 167.135 24.928C167.135 23.6667 167.392 22.5667 167.905 21.628C168.419 20.6893 169.123 19.9707 170.017 19.472C170.927 18.9733 171.968 18.724 173.141 18.724C174.329 18.724 175.363 18.9733 176.243 19.472C177.138 19.956 177.82 20.6307 178.289 21.496C178.773 22.3467 179.015 23.3 179.015 24.356ZM176.485 24.29C176.515 23.498 176.375 22.838 176.067 22.31C175.774 21.7673 175.363 21.3713 174.835 21.122C174.322 20.858 173.757 20.726 173.141 20.726C172.159 20.726 171.337 21.0267 170.677 21.628C170.017 22.2293 169.658 23.1167 169.599 24.29H176.485Z" fill="white"/>
</svg>
