<svg width="297" height="50" viewBox="0 0 297 50" fill="none" xmlns="http://www.w3.org/2000/svg">
<path d="M49.298 27.928C49.1514 27.9279 49.0101 27.8732 48.9017 27.7746C48.7933 27.6759 48.7257 27.5405 48.7118 27.3946C48.1454 21.4982 45.4024 16.0244 41.0181 12.0412C36.6339 8.05794 30.923 5.85102 24.9995 5.85102C19.076 5.85102 13.365 8.05794 8.98078 12.0412C4.59654 16.0244 1.85353 21.4982 1.28708 27.3946C1.27326 27.5405 1.20561 27.6759 1.09723 27.7746C0.988854 27.8732 0.847479 27.9279 0.700937 27.928C0.554292 27.9279 0.412942 27.8733 0.30441 27.7747C0.195877 27.676 0.127907 27.5405 0.113861 27.3946C0.0382069 26.593 0 25.7876 0 25.0004C0 18.3699 2.63394 12.011 7.32243 7.32246C12.0109 2.63397 18.3699 0 25.0004 0C31.6309 0 37.9899 2.63397 42.6784 7.32246C47.3669 12.011 50.0008 18.3699 50.0008 25.0004C50.0008 25.7886 49.9616 26.5949 49.886 27.3946C49.8721 27.5408 49.804 27.6766 49.6952 27.7752C49.5864 27.8739 49.4449 27.9284 49.298 27.928ZM24.9995 1.17791C19.3466 1.18497 13.8799 3.19886 9.57347 6.86072C5.26707 10.5226 2.40085 15.5945 1.48534 21.1727C3.2361 16.3414 6.4325 12.1666 10.6398 9.21619C14.8472 6.26576 19.8612 4.68291 24.9999 4.68291C30.1387 4.68291 35.1527 6.26576 39.36 9.21619C43.5674 12.1666 46.7638 16.3414 48.5145 21.1727C47.599 15.5943 44.7325 10.5223 40.4259 6.86042C36.1193 3.19853 30.6524 1.18474 24.9995 1.17791Z" fill="#DFF314"/>
<path d="M48.9608 30.2676C48.8244 30.2667 48.6927 30.2184 48.5879 30.1311C48.4831 30.0438 48.4119 29.9228 48.3863 29.7888C47.3264 24.3656 44.4142 19.4795 40.1486 15.9669C35.883 12.4543 30.5292 10.5336 25.0034 10.5336C19.4776 10.5336 14.1236 12.4543 9.85796 15.9669C5.59234 19.4795 2.68039 24.3656 1.62044 29.7888C1.59465 29.9233 1.5226 30.0446 1.41703 30.1318C1.31146 30.2191 1.17897 30.2668 1.04201 30.2668C0.905051 30.2668 0.772328 30.2191 0.666759 30.1318C0.56119 30.0446 0.489373 29.9233 0.463585 29.7888C0.310361 28.9997 0.194405 28.1933 0.117793 27.3946C0.11431 27.3577 0.11431 27.3205 0.117793 27.2836C0.713109 21.0961 3.59201 15.3524 8.19306 11.1727C12.7941 6.99312 18.7874 4.67745 25.0034 4.67745C31.2194 4.67745 37.2124 6.99312 41.8135 11.1727C46.4145 15.3524 49.2934 21.0961 49.8888 27.2836C49.892 27.3205 49.892 27.3577 49.8888 27.3946C49.8121 28.1952 49.6974 29.0016 49.5432 29.7888C49.5175 29.9241 49.445 30.0461 49.3386 30.1335C49.2322 30.221 49.0985 30.2685 48.9608 30.2676ZM24.9994 5.85612C19.3373 5.83152 13.8536 7.83444 9.54023 11.5025C5.22685 15.1705 2.36885 20.2613 1.48343 25.8538C3.23277 21.0207 6.42874 16.8439 10.6365 13.892C14.8443 10.94 19.8594 9.3563 24.9994 9.3563C30.1394 9.3563 35.1545 10.94 39.3623 13.892C43.5701 16.8439 46.7663 21.0207 48.5156 25.8538C47.63 20.2615 44.772 15.1709 40.4586 11.5031C36.1452 7.83524 30.6613 5.83149 24.9994 5.85612Z" fill="#DFF314"/>
<path d="M48.3853 32.6062C48.2585 32.6063 48.135 32.5654 48.0334 32.4896C47.9317 32.4139 47.8575 32.3073 47.8213 32.1858C46.3471 27.2795 43.331 22.979 39.2202 19.9218C35.1095 16.8647 30.1229 15.2137 25 15.2137C19.877 15.2137 14.8905 16.8647 10.7797 19.9218C6.66893 22.979 3.65279 27.2795 2.1786 32.1858C2.14233 32.3072 2.06793 32.4137 1.96631 32.4894C1.86469 32.5652 1.74141 32.6061 1.61467 32.6062C1.4879 32.6063 1.36445 32.5654 1.2628 32.4896C1.16115 32.4139 1.08664 32.3073 1.05051 32.1858C0.814927 31.4005 0.616748 30.5942 0.459693 29.7916C0.445601 29.7173 0.445601 29.641 0.459693 29.5666C1.57223 23.8753 4.62832 18.7476 9.10497 15.0613C13.5816 11.375 19.2004 9.35933 24.9995 9.35933C30.7986 9.35933 36.4174 11.375 40.894 15.0613C45.3707 18.7476 48.4268 23.8753 49.5393 29.5666C49.5536 29.6409 49.5536 29.7173 49.5393 29.7916C49.3832 30.5961 49.185 31.4024 48.9494 32.1858C48.9132 32.3072 48.8387 32.4137 48.7371 32.4894C48.6355 32.5652 48.512 32.6061 48.3853 32.6062ZM25.0004 14.0364C30.4372 14.0197 35.7285 15.7918 40.0587 19.0794C43.7545 21.8831 46.6066 25.6507 48.302 29.9688C48.3221 29.8731 48.3423 29.7773 48.3614 29.6815C47.279 24.2831 44.3602 19.4262 40.1014 15.9365C35.8427 12.4469 30.5068 10.54 25.0009 10.54C19.495 10.54 14.1591 12.4469 9.90036 15.9365C5.6416 19.4262 2.7228 24.2831 1.64039 29.6815C1.65954 29.7779 1.67935 29.8737 1.69978 29.9688C3.39485 25.6508 6.24684 21.8831 9.94245 19.0794C14.2726 15.7918 19.5637 14.0198 25.0004 14.0364Z" fill="#DFF314"/>
<path d="M47.5513 34.9457C47.4349 34.9457 47.321 34.9113 47.2242 34.8467C47.1274 34.7821 47.0519 34.6903 47.0072 34.5828C45.201 30.2335 42.1466 26.517 38.2296 23.9024C34.3127 21.2878 29.7089 19.8924 24.9995 19.8924C20.2901 19.8924 15.6863 21.2878 11.7694 23.9024C7.85244 26.517 4.79801 30.2335 2.99177 34.5828C2.94714 34.6903 2.87161 34.7822 2.7748 34.8468C2.67799 34.9114 2.56412 34.9459 2.44771 34.9459C2.33131 34.9459 2.21744 34.9114 2.12062 34.8468C2.02381 34.7822 1.94852 34.6903 1.90389 34.5828C1.57861 33.7998 1.29341 33.0007 1.04958 32.1886C1.01621 32.0784 1.01621 31.9608 1.04958 31.8506C2.59203 26.7624 5.70432 22.2924 9.94129 19.0803C14.2793 15.8077 19.5655 14.0374 24.9995 14.0374C30.4335 14.0374 35.7195 15.8077 40.0575 19.0803C44.2946 22.2923 47.4072 26.7623 48.9494 31.8506C48.9826 31.9608 48.9826 32.0784 48.9494 32.1886C48.7058 33.0008 48.4206 33.7999 48.0951 34.5828C48.0505 34.6903 47.975 34.7821 47.8782 34.8467C47.7813 34.9113 47.6677 34.9457 47.5513 34.9457ZM2.23028 32.0172C2.31327 32.2854 2.4009 32.5526 2.49284 32.8188C4.54169 28.5926 7.73908 25.0287 11.7191 22.5351C15.6991 20.0416 20.301 18.7191 24.9976 18.7191C29.6943 18.7191 34.2959 20.0416 38.2759 22.5351C42.256 25.0287 45.4536 28.5926 47.5024 32.8188C47.5944 32.5532 47.6818 32.286 47.7648 32.0172C46.2636 27.1506 43.2425 22.893 39.1447 19.8687C35.047 16.8444 30.088 15.2127 24.9951 15.2127C19.9021 15.2127 14.9434 16.8444 10.8456 19.8687C6.74786 22.893 3.72681 27.1506 2.2256 32.0172H2.23028Z" fill="#DFF314"/>
<path d="M46.4307 37.2853C46.3249 37.2852 46.2212 37.2568 46.1302 37.2029C46.0392 37.1489 45.9643 37.0716 45.9135 36.9788C43.8626 33.2235 40.8385 30.0897 37.1586 27.9065C33.4786 25.7232 29.2788 24.5711 24.9999 24.5711C20.7211 24.5711 16.5213 25.7232 12.8413 27.9065C9.16139 30.0897 6.13703 33.2235 4.08616 36.9788C4.03542 37.0714 3.96092 37.1487 3.87013 37.2026C3.77933 37.2565 3.67575 37.2851 3.57016 37.2853C3.46441 37.2852 3.36047 37.2568 3.26949 37.2029C3.17851 37.1489 3.1038 37.0716 3.05299 36.9788C2.62781 36.2017 2.24425 35.4025 1.90385 34.5847C1.84405 34.44 1.84405 34.2774 1.90385 34.1327C3.79955 29.5685 7.005 25.6683 11.1156 22.9245C15.2263 20.1807 20.0577 18.7164 24.9999 18.7164C29.9422 18.7164 34.7736 20.1807 38.8842 22.9245C42.9949 25.6683 46.2003 29.5685 48.096 34.1327C48.1556 34.2775 48.1556 34.4399 48.096 34.5847C47.7556 35.4025 47.372 36.2017 46.9469 36.9788C46.8963 37.0716 46.8217 37.1489 46.7309 37.2029C46.64 37.2568 46.5363 37.2853 46.4307 37.2853ZM25.0004 23.3917C29.3057 23.3918 33.5379 24.5034 37.2876 26.6188C41.0373 28.7342 44.1773 31.7819 46.4038 35.4667C46.5832 35.1009 46.7532 34.7306 46.9135 34.3558C45.0788 30.0641 42.0242 26.4056 38.1288 23.8345C34.2335 21.2633 29.6688 19.8927 25.0013 19.8927C20.3339 19.8927 15.7692 21.2633 11.8739 23.8345C7.97848 26.4056 4.92387 30.0641 3.08923 34.3558C3.24884 34.7299 3.41864 35.1002 3.59868 35.4667C5.825 31.7821 8.96481 28.7347 12.7141 26.6193C16.4635 24.5038 20.6955 23.3921 25.0004 23.3917Z" fill="#DFF314"/>
<path d="M44.9722 39.6248C44.8782 39.6244 44.7857 39.6014 44.7024 39.558C44.6191 39.5145 44.5474 39.4517 44.4934 39.3749C42.2952 36.2472 39.3766 33.6945 35.9841 31.9323C32.5917 30.1701 28.8251 29.2502 25.0023 29.2502C21.1794 29.2502 17.4128 30.1701 14.0204 31.9323C10.6279 33.6945 7.70932 36.2472 5.51116 39.3749C5.4568 39.4521 5.3848 39.5152 5.30097 39.5587C5.21713 39.6022 5.12399 39.625 5.02952 39.625C4.93506 39.625 4.84192 39.6022 4.75808 39.5587C4.67424 39.5152 4.60224 39.4521 4.54789 39.3749C4.00584 38.6054 3.50731 37.8061 3.05484 36.9807C3.00722 36.894 2.98236 36.7967 2.98236 36.6978C2.98236 36.5988 3.00722 36.5015 3.05484 36.4148C5.20731 32.4741 8.3812 29.1856 12.243 26.8947C16.1048 24.6037 20.512 23.3948 25.0023 23.3948C29.4925 23.3948 33.8999 24.6037 37.7617 26.8947C41.6235 29.1856 44.7972 32.4741 46.9497 36.4148C46.9973 36.5015 47.0224 36.5988 47.0224 36.6978C47.0224 36.7967 46.9973 36.894 46.9497 36.9807C46.497 37.806 45.9987 38.6053 45.4568 39.3749C45.4022 39.4525 45.3296 39.5158 45.2453 39.5593C45.1609 39.6028 45.0671 39.6253 44.9722 39.6248ZM4.24231 36.6963C4.49418 37.1416 4.7613 37.5812 5.04285 38.0121C7.37335 34.9244 10.3888 32.4195 13.8516 30.6947C17.3143 28.9699 21.13 28.0722 24.9985 28.0722C28.867 28.0722 32.6827 28.9699 36.1455 30.6947C39.6082 32.4195 42.6234 34.9244 44.9539 38.0121C45.2345 37.5812 45.5028 37.1416 45.7547 36.6963C43.6799 33.0173 40.6645 29.9558 37.0173 27.8254C33.3702 25.6951 29.2223 24.5724 24.9985 24.5724C20.7747 24.5724 16.6269 25.6951 12.9797 27.8254C9.33255 29.9558 6.3171 33.0173 4.24231 36.6963Z" fill="#DFF314"/>
<path d="M43.1028 41.9644C43.0207 41.9647 42.9395 41.9478 42.8643 41.9148C42.7891 41.8818 42.7217 41.8335 42.6663 41.7728C40.4331 39.3038 37.7071 37.3303 34.6642 35.9796C31.6213 34.6289 28.3292 33.9311 25 33.9311C21.6708 33.9311 18.3785 34.6289 15.3356 35.9796C12.2927 37.3303 9.56695 39.3038 7.33374 41.7728C7.27833 41.8334 7.21068 41.8818 7.13548 41.9148C7.06027 41.9477 6.97912 41.9646 6.897 41.9644C6.81489 41.9646 6.73372 41.9477 6.65852 41.9147C6.58333 41.8817 6.51571 41.8334 6.46026 41.7728C5.77386 41.0144 5.13424 40.2148 4.54496 39.3787C4.47523 39.2794 4.43788 39.161 4.43788 39.0397C4.43788 38.9184 4.47523 38.8 4.54496 38.7007C6.85193 35.4185 9.91483 32.7397 13.475 30.8905C17.0352 29.0412 20.9882 28.0758 25 28.0758C29.0118 28.0758 32.9646 29.0412 36.5248 30.8905C40.085 32.7397 43.1479 35.4185 45.4548 38.7007C45.5251 38.8 45.5629 38.9186 45.5629 39.0402C45.5629 39.1618 45.5251 39.2804 45.4548 39.3797C44.8655 40.2158 44.2259 41.0153 43.5395 41.7738C43.484 41.8342 43.4165 41.8824 43.3413 41.9152C43.2661 41.948 43.1848 41.9648 43.1028 41.9644ZM5.75441 39.0359C6.12119 39.5377 6.50809 40.0261 6.91126 40.4972C9.24549 38.0487 12.0525 36.0996 15.1621 34.7678C18.2718 33.436 21.6195 32.7493 25.0024 32.7493C28.3852 32.7493 31.7327 33.436 34.8424 34.7678C37.952 36.0996 40.759 38.0487 43.0932 40.4972C43.4964 40.0261 43.8833 39.5396 44.2501 39.0359C42.039 36.004 39.1431 33.5372 35.7981 31.8366C32.4532 30.136 28.7539 29.2496 25.0014 29.2496C21.249 29.2496 17.5494 30.136 14.2045 31.8366C10.8595 33.5372 7.96356 36.004 5.75254 39.0359H5.75441Z" fill="#DFF314"/>
<path d="M40.6714 44.3039C40.5314 44.3048 40.3955 44.256 40.2882 44.166C36.0013 40.5754 30.5875 38.6077 24.9955 38.6077C19.4035 38.6077 13.9898 40.5754 9.70279 44.166C9.59661 44.2549 9.46253 44.3036 9.32403 44.3036C9.18554 44.3036 9.05169 44.2549 8.94551 44.166C8.06197 43.4256 7.22997 42.6257 6.45552 41.7719C6.35734 41.6635 6.30285 41.5225 6.30285 41.3763C6.30285 41.2301 6.35734 41.0892 6.45552 40.9808C8.79932 38.3899 11.6601 36.319 14.8534 34.9016C18.0468 33.4843 21.5017 32.752 24.9955 32.752C28.4893 32.752 31.9445 33.4843 35.1378 34.9016C38.3312 36.319 41.1919 38.3899 43.5357 40.9808C43.6337 41.0893 43.6879 41.2302 43.6879 41.3763C43.6879 41.5225 43.6337 41.6634 43.5357 41.7719C42.7612 42.6256 41.9292 43.4255 41.0458 44.166C40.9407 44.254 40.8085 44.3027 40.6714 44.3039ZM24.9995 37.4299C30.6962 37.4323 36.2216 39.3782 40.6628 42.9459C41.2374 42.448 41.7813 41.9222 42.2985 41.3754C40.0725 39.0236 37.3903 37.1503 34.4158 35.8701C31.4414 34.5899 28.2373 33.9296 24.999 33.9296C21.7608 33.9296 18.5564 34.5899 15.582 35.8701C12.6075 37.1503 9.92557 39.0236 7.69958 41.3754C8.21767 41.9222 8.76545 42.448 9.33525 42.9459C13.7767 39.378 19.3024 37.4321 24.9995 37.4299Z" fill="#DFF314"/>
<path d="M12.642 46.6434C12.5369 46.6435 12.4337 46.6154 12.3432 46.562C11.1478 45.859 10.0126 45.0582 8.94932 44.1679C8.88346 44.1125 8.8304 44.0434 8.79408 43.9654C8.75775 43.8874 8.7389 43.8024 8.7389 43.7164C8.7389 43.6303 8.75775 43.5453 8.79408 43.4673C8.8304 43.3893 8.88346 43.3202 8.94932 43.2648C13.4484 39.4963 19.13 37.4311 24.9989 37.4311C30.8678 37.4311 36.5495 39.4963 41.0486 43.2648C41.1146 43.3201 41.1679 43.3892 41.2043 43.4672C41.2408 43.5452 41.2595 43.6303 41.2595 43.7164C41.2595 43.8025 41.2408 43.8875 41.2043 43.9655C41.1679 44.0436 41.1146 44.1126 41.0486 44.1679C39.9852 45.058 38.8501 45.8588 37.6548 46.562C37.5642 46.6152 37.461 46.6433 37.356 46.6433C37.2509 46.6433 37.1478 46.6152 37.0572 46.562C33.4005 44.4176 29.238 43.2871 24.9989 43.2871C20.7597 43.2871 16.5975 44.4176 12.9408 46.562C12.8502 46.6153 12.747 46.6434 12.642 46.6434ZM24.9956 42.109C29.3266 42.1072 33.5838 43.2312 37.3494 45.3707C38.1769 44.8673 38.9732 44.3144 39.734 43.7149C35.5339 40.407 30.3428 38.6083 24.9965 38.6083C19.6502 38.6083 14.4594 40.407 10.2593 43.7149C11.02 44.3146 11.8163 44.8675 12.6439 45.3707C16.41 43.2308 20.6679 42.1068 24.9996 42.109H24.9956Z" fill="#DFF314"/>
<path d="M31.9885 48.983C31.9314 48.9828 31.8746 48.9744 31.8199 48.9581C27.3699 47.6352 22.6311 47.6352 18.1811 48.9581C18.0711 48.9909 17.9539 48.9909 17.8439 48.9581C15.9209 48.3846 14.0741 47.5807 12.344 46.5639C12.2554 46.512 12.1821 46.4378 12.131 46.3486C12.08 46.2595 12.0532 46.1586 12.0532 46.0559C12.0532 45.9532 12.08 45.8523 12.131 45.7632C12.1821 45.6741 12.2554 45.5998 12.344 45.5479C16.1818 43.2969 20.5507 42.1103 24.9999 42.1103C29.4492 42.1103 33.818 43.2969 37.6558 45.5479C37.7444 45.5998 37.8178 45.6741 37.8688 45.7632C37.9199 45.8523 37.9467 45.9532 37.9467 46.0559C37.9467 46.1586 37.9199 46.2595 37.8688 46.3486C37.8178 46.4378 37.7444 46.512 37.6558 46.5639C35.9261 47.5807 34.0798 48.3846 32.157 48.9581C32.1023 48.9744 32.0456 48.9828 31.9885 48.983ZM24.9976 46.7881C27.3614 46.7868 29.7134 47.1205 31.9836 47.7792C33.4231 47.3381 34.8175 46.7609 36.1476 46.0554C32.712 44.2381 28.8842 43.288 24.9976 43.288C21.1109 43.288 17.2831 44.2381 13.8476 46.0554C15.1776 46.761 16.572 47.3382 18.0116 47.7792C20.2827 47.1202 22.6356 46.7865 25.0004 46.7881H24.9976Z" fill="#DFF314"/>
<path d="M24.9995 50C22.5761 50.0011 20.1653 49.6502 17.8428 48.9581C17.7212 48.9219 17.6146 48.8474 17.5387 48.7457C17.4628 48.644 17.4218 48.5205 17.4218 48.3936C17.4218 48.2666 17.4628 48.1431 17.5387 48.0414C17.6146 47.9397 17.7212 47.8652 17.8428 47.829C22.5128 46.4402 27.486 46.4402 32.1559 47.829C32.2776 47.8652 32.3842 47.9397 32.4601 48.0414C32.536 48.1431 32.577 48.2666 32.577 48.3936C32.577 48.5205 32.536 48.644 32.4601 48.7457C32.3842 48.8474 32.2776 48.9219 32.1559 48.9581C29.8335 49.6502 27.4229 50.0011 24.9995 50ZM20.4909 48.394C23.4704 48.9625 26.5305 48.9625 29.51 48.394C26.5305 47.8255 23.4704 47.8255 20.4909 48.394Z" fill="#DFF314"/>
<path d="M95.851 28.212C95.851 29.7813 95.5283 31.1527 94.883 32.326C94.2523 33.4847 93.321 34.3867 92.089 35.032C90.8716 35.6773 89.4123 36 87.711 36H82.519V20.468H87.711C89.4123 20.468 90.8716 20.7907 92.089 21.436C93.321 22.0667 94.2523 22.9613 94.883 24.12C95.5283 25.2787 95.851 26.6427 95.851 28.212ZM87.513 33.734C89.3756 33.734 90.8056 33.25 91.803 32.282C92.8003 31.314 93.299 29.9573 93.299 28.212C93.299 26.4667 92.8003 25.11 91.803 24.142C90.8056 23.174 89.3756 22.69 87.513 22.69H85.027V33.734H87.513ZM109.418 29.356C109.418 29.7667 109.389 30.126 109.33 30.434H100.002C100.046 31.6807 100.391 32.6047 101.036 33.206C101.682 33.8073 102.481 34.108 103.434 34.108C104.27 34.108 104.974 33.8953 105.546 33.47C106.133 33.0447 106.492 32.48 106.624 31.776H109.308C109.147 32.6267 108.81 33.382 108.296 34.042C107.783 34.702 107.116 35.2227 106.294 35.604C105.473 35.9707 104.556 36.154 103.544 36.154C102.371 36.154 101.33 35.9047 100.42 35.406C99.5258 34.9073 98.8218 34.1887 98.3084 33.25C97.7951 32.3113 97.5384 31.204 97.5384 29.928C97.5384 28.6667 97.7951 27.5667 98.3084 26.628C98.8218 25.6893 99.5258 24.9707 100.42 24.472C101.33 23.9733 102.371 23.724 103.544 23.724C104.732 23.724 105.766 23.9733 106.646 24.472C107.541 24.956 108.223 25.6307 108.692 26.496C109.176 27.3467 109.418 28.3 109.418 29.356ZM106.888 29.29C106.918 28.498 106.778 27.838 106.47 27.31C106.177 26.7673 105.766 26.3713 105.238 26.122C104.725 25.858 104.16 25.726 103.544 25.726C102.562 25.726 101.74 26.0267 101.08 26.628C100.42 27.2293 100.061 28.1167 100.002 29.29H106.888ZM116.592 33.404L120.024 23.878H122.708L118.088 36H115.052L110.432 23.878H113.116L116.592 33.404ZM135.598 29.356C135.598 29.7667 135.568 30.126 135.51 30.434H126.182C126.226 31.6807 126.57 32.6047 127.216 33.206C127.861 33.8073 128.66 34.108 129.614 34.108C130.45 34.108 131.154 33.8953 131.726 33.47C132.312 33.0447 132.672 32.48 132.804 31.776H135.488C135.326 32.6267 134.989 33.382 134.476 34.042C133.962 34.702 133.295 35.2227 132.474 35.604C131.652 35.9707 130.736 36.154 129.724 36.154C128.55 36.154 127.509 35.9047 126.6 35.406C125.705 34.9073 125.001 34.1887 124.488 33.25C123.974 32.3113 123.718 31.204 123.718 29.928C123.718 28.6667 123.974 27.5667 124.488 26.628C125.001 25.6893 125.705 24.9707 126.6 24.472C127.509 23.9733 128.55 23.724 129.724 23.724C130.912 23.724 131.946 23.9733 132.826 24.472C133.72 24.956 134.402 25.6307 134.872 26.496C135.356 27.3467 135.598 28.3 135.598 29.356ZM133.068 29.29C133.097 28.498 132.958 27.838 132.65 27.31C132.356 26.7673 131.946 26.3713 131.418 26.122C130.904 25.858 130.34 25.726 129.724 25.726C128.741 25.726 127.92 26.0267 127.26 26.628C126.6 27.2293 126.24 28.1167 126.182 29.29H133.068ZM140.307 19.72V36H137.799V19.72H140.307ZM148.666 23.724C149.839 23.724 150.895 23.9733 151.834 24.472C152.773 24.9707 153.506 25.6893 154.034 26.628C154.562 27.5667 154.826 28.6667 154.826 29.928C154.826 31.204 154.562 32.3113 154.034 33.25C153.506 34.1887 152.773 34.9073 151.834 35.406C150.895 35.9047 149.839 36.154 148.666 36.154C147.493 36.154 146.437 35.9047 145.498 35.406C144.574 34.9073 143.841 34.1887 143.298 33.25C142.77 32.2967 142.506 31.1893 142.506 29.928C142.506 28.6667 142.77 27.5667 143.298 26.628C143.841 25.6893 144.574 24.9707 145.498 24.472C146.437 23.9733 147.493 23.724 148.666 23.724ZM148.666 25.902C148.021 25.902 147.427 26.0487 146.884 26.342C146.341 26.6353 145.901 27.09 145.564 27.706C145.241 28.3073 145.08 29.048 145.08 29.928C145.08 30.8227 145.241 31.5707 145.564 32.172C145.901 32.7733 146.341 33.2207 146.884 33.514C147.427 33.8073 148.021 33.954 148.666 33.954C149.311 33.954 149.905 33.8073 150.448 33.514C150.991 33.2207 151.423 32.7733 151.746 32.172C152.083 31.5707 152.252 30.8227 152.252 29.928C152.252 29.048 152.083 28.3073 151.746 27.706C151.423 27.09 150.991 26.6353 150.448 26.342C149.905 26.0487 149.311 25.902 148.666 25.902ZM163.969 23.724C165.025 23.724 165.964 23.9733 166.785 24.472C167.621 24.9707 168.274 25.6893 168.743 26.628C169.213 27.5667 169.447 28.6667 169.447 29.928C169.447 31.204 169.213 32.3113 168.743 33.25C168.274 34.1887 167.621 34.9073 166.785 35.406C165.964 35.9047 165.025 36.154 163.969 36.154C162.869 36.154 161.931 35.8827 161.153 35.34C160.376 34.7973 159.833 34.0787 159.525 33.184V41.764H157.017V23.878H159.525V26.694C159.833 25.7993 160.376 25.0807 161.153 24.538C161.931 23.9953 162.869 23.724 163.969 23.724ZM163.199 25.924C162.495 25.924 161.865 26.0927 161.307 26.43C160.75 26.7527 160.31 27.222 159.987 27.838C159.665 28.4393 159.503 29.136 159.503 29.928C159.503 30.7347 159.665 31.4387 159.987 32.04C160.31 32.6413 160.75 33.1107 161.307 33.448C161.865 33.7707 162.495 33.932 163.199 33.932C164.314 33.932 165.209 33.58 165.883 32.876C166.558 32.1573 166.895 31.1747 166.895 29.928C166.895 28.696 166.558 27.7207 165.883 27.002C165.209 26.2833 164.314 25.924 163.199 25.924ZM186.801 23.68C188.238 23.68 189.382 24.1347 190.233 25.044C191.098 25.9533 191.531 27.2513 191.531 28.938V36H189.023V29.202C189.023 28.146 188.759 27.332 188.231 26.76C187.703 26.1733 186.977 25.88 186.053 25.88C185.07 25.88 184.286 26.1953 183.699 26.826C183.127 27.442 182.841 28.3513 182.841 29.554V36H180.333V29.202C180.333 28.146 180.069 27.332 179.541 26.76C179.013 26.1733 178.287 25.88 177.363 25.88C176.38 25.88 175.596 26.1953 175.009 26.826C174.437 27.442 174.151 28.3513 174.151 29.554V36H171.643V23.878H174.151V26.408C174.459 25.528 174.972 24.8533 175.691 24.384C176.41 23.9147 177.253 23.68 178.221 23.68C179.233 23.68 180.106 23.9293 180.839 24.428C181.587 24.9267 182.13 25.6453 182.467 26.584C182.819 25.6747 183.384 24.9633 184.161 24.45C184.938 23.9367 185.818 23.68 186.801 23.68ZM205.503 29.356C205.503 29.7667 205.474 30.126 205.415 30.434H196.087C196.131 31.6807 196.476 32.6047 197.121 33.206C197.767 33.8073 198.566 34.108 199.519 34.108C200.355 34.108 201.059 33.8953 201.631 33.47C202.218 33.0447 202.577 32.48 202.709 31.776H205.393C205.232 32.6267 204.895 33.382 204.381 34.042C203.868 34.702 203.201 35.2227 202.379 35.604C201.558 35.9707 200.641 36.154 199.629 36.154C198.456 36.154 197.415 35.9047 196.505 35.406C195.611 34.9073 194.907 34.1887 194.393 33.25C193.88 32.3113 193.623 31.204 193.623 29.928C193.623 28.6667 193.88 27.5667 194.393 26.628C194.907 25.6893 195.611 24.9707 196.505 24.472C197.415 23.9733 198.456 23.724 199.629 23.724C200.817 23.724 201.851 23.9733 202.731 24.472C203.626 24.956 204.308 25.6307 204.777 26.496C205.261 27.3467 205.503 28.3 205.503 29.356ZM202.973 29.29C203.003 28.498 202.863 27.838 202.555 27.31C202.262 26.7673 201.851 26.3713 201.323 26.122C200.81 25.858 200.245 25.726 199.629 25.726C198.647 25.726 197.825 26.0267 197.165 26.628C196.505 27.2293 196.146 28.1167 196.087 29.29H202.973ZM214.481 23.68C215.889 23.68 217.018 24.1347 217.869 25.044C218.72 25.9533 219.145 27.2513 219.145 28.938V36H216.637V29.202C216.637 28.1167 216.358 27.2807 215.801 26.694C215.244 26.0927 214.481 25.792 213.513 25.792C212.516 25.792 211.716 26.1147 211.115 26.76C210.514 27.3907 210.213 28.322 210.213 29.554V36H207.705V23.878H210.213V26.54C210.536 25.6307 211.078 24.9267 211.841 24.428C212.604 23.9293 213.484 23.68 214.481 23.68ZM227.952 33.822V36H226.412C225.121 36 224.139 35.692 223.464 35.076C222.804 34.4453 222.474 33.404 222.474 31.952V26.012H220.736V23.878H222.474V20.864H225.004V23.878H227.93V26.012H225.004V31.996C225.004 32.6853 225.129 33.162 225.378 33.426C225.642 33.69 226.097 33.822 226.742 33.822H227.952Z" fill="white"/>
</svg>
