<svg width="216" height="40" viewBox="0 0 216 40" fill="none" xmlns="http://www.w3.org/2000/svg">
<path d="M14.85 23.212C14.85 24.7813 14.5273 26.1527 13.882 27.326C13.2513 28.4847 12.32 29.3867 11.088 30.032C9.87067 30.6773 8.41133 31 6.71 31H1.518V15.468H6.71C8.41133 15.468 9.87067 15.7907 11.088 16.436C12.32 17.0667 13.2513 17.9613 13.882 19.12C14.5273 20.2787 14.85 21.6427 14.85 23.212ZM6.512 28.734C8.37467 28.734 9.80467 28.25 10.802 27.282C11.7993 26.314 12.298 24.9573 12.298 23.212C12.298 21.4667 11.7993 20.11 10.802 19.142C9.80467 18.174 8.37467 17.69 6.512 17.69H4.026V28.734H6.512ZM28.4175 24.356C28.4175 24.7667 28.3881 25.126 28.3295 25.434H19.0015C19.0455 26.6807 19.3901 27.6047 20.0355 28.206C20.6808 28.8073 21.4801 29.108 22.4335 29.108C23.2695 29.108 23.9735 28.8953 24.5455 28.47C25.1321 28.0447 25.4915 27.48 25.6235 26.776H28.3075C28.1461 27.6267 27.8088 28.382 27.2955 29.042C26.7821 29.702 26.1148 30.2227 25.2935 30.604C24.4721 30.9707 23.5555 31.154 22.5435 31.154C21.3701 31.154 20.3288 30.9047 19.4195 30.406C18.5248 29.9073 17.8208 29.1887 17.3075 28.25C16.7941 27.3113 16.5375 26.204 16.5375 24.928C16.5375 23.6667 16.7941 22.5667 17.3075 21.628C17.8208 20.6893 18.5248 19.9707 19.4195 19.472C20.3288 18.9733 21.3701 18.724 22.5435 18.724C23.7315 18.724 24.7655 18.9733 25.6455 19.472C26.5401 19.956 27.2221 20.6307 27.6915 21.496C28.1755 22.3467 28.4175 23.3 28.4175 24.356ZM25.8875 24.29C25.9168 23.498 25.7775 22.838 25.4695 22.31C25.1761 21.7673 24.7655 21.3713 24.2375 21.122C23.7241 20.858 23.1595 20.726 22.5435 20.726C21.5608 20.726 20.7395 21.0267 20.0795 21.628C19.4195 22.2293 19.0601 23.1167 19.0015 24.29H25.8875ZM35.591 28.404L39.023 18.878H41.707L37.087 31H34.051L29.431 18.878H32.115L35.591 28.404ZM54.5966 24.356C54.5966 24.7667 54.5673 25.126 54.5086 25.434H45.1806C45.2246 26.6807 45.5693 27.6047 46.2146 28.206C46.8599 28.8073 47.6593 29.108 48.6126 29.108C49.4486 29.108 50.1526 28.8953 50.7246 28.47C51.3113 28.0447 51.6706 27.48 51.8026 26.776H54.4866C54.3253 27.6267 53.9879 28.382 53.4746 29.042C52.9613 29.702 52.2939 30.2227 51.4726 30.604C50.6513 30.9707 49.7346 31.154 48.7226 31.154C47.5493 31.154 46.5079 30.9047 45.5986 30.406C44.7039 29.9073 43.9999 29.1887 43.4866 28.25C42.9733 27.3113 42.7166 26.204 42.7166 24.928C42.7166 23.6667 42.9733 22.5667 43.4866 21.628C43.9999 20.6893 44.7039 19.9707 45.5986 19.472C46.5079 18.9733 47.5493 18.724 48.7226 18.724C49.9106 18.724 50.9446 18.9733 51.8246 19.472C52.7193 19.956 53.4013 20.6307 53.8706 21.496C54.3546 22.3467 54.5966 23.3 54.5966 24.356ZM52.0666 24.29C52.0959 23.498 51.9566 22.838 51.6486 22.31C51.3553 21.7673 50.9446 21.3713 50.4166 21.122C49.9033 20.858 49.3386 20.726 48.7226 20.726C47.7399 20.726 46.9186 21.0267 46.2586 21.628C45.5986 22.2293 45.2393 23.1167 45.1806 24.29H52.0666ZM59.3062 14.72V31H56.7982V14.72H59.3062ZM67.6651 18.724C68.8385 18.724 69.8945 18.9733 70.8331 19.472C71.7718 19.9707 72.5051 20.6893 73.0331 21.628C73.5611 22.5667 73.8251 23.6667 73.8251 24.928C73.8251 26.204 73.5611 27.3113 73.0331 28.25C72.5051 29.1887 71.7718 29.9073 70.8331 30.406C69.8945 30.9047 68.8385 31.154 67.6651 31.154C66.4918 31.154 65.4358 30.9047 64.4971 30.406C63.5731 29.9073 62.8398 29.1887 62.2971 28.25C61.7691 27.2967 61.5051 26.1893 61.5051 24.928C61.5051 23.6667 61.7691 22.5667 62.2971 21.628C62.8398 20.6893 63.5731 19.9707 64.4971 19.472C65.4358 18.9733 66.4918 18.724 67.6651 18.724ZM67.6651 20.902C67.0198 20.902 66.4258 21.0487 65.8831 21.342C65.3405 21.6353 64.9005 22.09 64.5631 22.706C64.2405 23.3073 64.0791 24.048 64.0791 24.928C64.0791 25.8227 64.2405 26.5707 64.5631 27.172C64.9005 27.7733 65.3405 28.2207 65.8831 28.514C66.4258 28.8073 67.0198 28.954 67.6651 28.954C68.3105 28.954 68.9045 28.8073 69.4471 28.514C69.9898 28.2207 70.4225 27.7733 70.7451 27.172C71.0825 26.5707 71.2511 25.8227 71.2511 24.928C71.2511 24.048 71.0825 23.3073 70.7451 22.706C70.4225 22.09 69.9898 21.6353 69.4471 21.342C68.9045 21.0487 68.3105 20.902 67.6651 20.902ZM82.9684 18.724C84.0244 18.724 84.963 18.9733 85.7844 19.472C86.6204 19.9707 87.273 20.6893 87.7424 21.628C88.2117 22.5667 88.4464 23.6667 88.4464 24.928C88.4464 26.204 88.2117 27.3113 87.7424 28.25C87.273 29.1887 86.6204 29.9073 85.7844 30.406C84.963 30.9047 84.0244 31.154 82.9684 31.154C81.8684 31.154 80.9297 30.8827 80.1524 30.34C79.375 29.7973 78.8324 29.0787 78.5244 28.184V36.764H76.0164V18.878H78.5244V21.694C78.8324 20.7993 79.375 20.0807 80.1524 19.538C80.9297 18.9953 81.8684 18.724 82.9684 18.724ZM82.1984 20.924C81.4944 20.924 80.8637 21.0927 80.3064 21.43C79.749 21.7527 79.309 22.222 78.9864 22.838C78.6637 23.4393 78.5024 24.136 78.5024 24.928C78.5024 25.7347 78.6637 26.4387 78.9864 27.04C79.309 27.6413 79.749 28.1107 80.3064 28.448C80.8637 28.7707 81.4944 28.932 82.1984 28.932C83.313 28.932 84.2077 28.58 84.8824 27.876C85.557 27.1573 85.8944 26.1747 85.8944 24.928C85.8944 23.696 85.557 22.7207 84.8824 22.002C84.2077 21.2833 83.313 20.924 82.1984 20.924ZM105.8 18.68C107.237 18.68 108.381 19.1347 109.232 20.044C110.097 20.9533 110.53 22.2513 110.53 23.938V31H108.022V24.202C108.022 23.146 107.758 22.332 107.23 21.76C106.702 21.1733 105.976 20.88 105.052 20.88C104.069 20.88 103.285 21.1953 102.698 21.826C102.126 22.442 101.84 23.3513 101.84 24.554V31H99.3321V24.202C99.3321 23.146 99.0681 22.332 98.5401 21.76C98.0121 21.1733 97.2861 20.88 96.3621 20.88C95.3794 20.88 94.5947 21.1953 94.0081 21.826C93.4361 22.442 93.1501 23.3513 93.1501 24.554V31H90.6421V18.878H93.1501V21.408C93.4581 20.528 93.9714 19.8533 94.6901 19.384C95.4087 18.9147 96.2521 18.68 97.2201 18.68C98.2321 18.68 99.1047 18.9293 99.8381 19.428C100.586 19.9267 101.129 20.6453 101.466 21.584C101.818 20.6747 102.383 19.9633 103.16 19.45C103.937 18.9367 104.817 18.68 105.8 18.68ZM124.502 24.356C124.502 24.7667 124.473 25.126 124.414 25.434H115.086C115.13 26.6807 115.475 27.6047 116.12 28.206C116.766 28.8073 117.565 29.108 118.518 29.108C119.354 29.108 120.058 28.8953 120.63 28.47C121.217 28.0447 121.576 27.48 121.708 26.776H124.392C124.231 27.6267 123.894 28.382 123.38 29.042C122.867 29.702 122.2 30.2227 121.378 30.604C120.557 30.9707 119.64 31.154 118.628 31.154C117.455 31.154 116.414 30.9047 115.504 30.406C114.61 29.9073 113.906 29.1887 113.392 28.25C112.879 27.3113 112.622 26.204 112.622 24.928C112.622 23.6667 112.879 22.5667 113.392 21.628C113.906 20.6893 114.61 19.9707 115.504 19.472C116.414 18.9733 117.455 18.724 118.628 18.724C119.816 18.724 120.85 18.9733 121.73 19.472C122.625 19.956 123.307 20.6307 123.776 21.496C124.26 22.3467 124.502 23.3 124.502 24.356ZM121.972 24.29C122.002 23.498 121.862 22.838 121.554 22.31C121.261 21.7673 120.85 21.3713 120.322 21.122C119.809 20.858 119.244 20.726 118.628 20.726C117.646 20.726 116.824 21.0267 116.164 21.628C115.504 22.2293 115.145 23.1167 115.086 24.29H121.972ZM133.48 18.68C134.888 18.68 136.017 19.1347 136.868 20.044C137.719 20.9533 138.144 22.2513 138.144 23.938V31H135.636V24.202C135.636 23.1167 135.357 22.2807 134.8 21.694C134.243 21.0927 133.48 20.792 132.512 20.792C131.515 20.792 130.715 21.1147 130.114 21.76C129.513 22.3907 129.212 23.322 129.212 24.554V31H126.704V18.878H129.212V21.54C129.535 20.6307 130.077 19.9267 130.84 19.428C131.603 18.9293 132.483 18.68 133.48 18.68ZM146.951 28.822V31H145.411C144.12 31 143.138 30.692 142.463 30.076C141.803 29.4453 141.473 28.404 141.473 26.952V21.012H139.735V18.878H141.473V15.864H144.003V18.878H146.929V21.012H144.003V26.996C144.003 27.6853 144.128 28.162 144.377 28.426C144.641 28.69 145.096 28.822 145.741 28.822H146.951Z" fill="white"/>
</svg>
