<svg width="294" height="61" viewBox="0 0 294 61" fill="none" xmlns="http://www.w3.org/2000/svg">
<path d="M23.1477 55.5H23.1428C19.977 55.4909 16.9411 54.2333 14.6872 51.9976C12.4332 49.7618 11.1411 46.7262 11.0885 43.5428C11.0848 43.5142 11.0827 43.4853 11.0827 43.4565V17.5171C11.0827 17.4821 11.0856 17.4473 11.0913 17.4129C11.1464 14.2299 12.4442 11.1964 14.7044 8.96752C16.9645 6.73864 20.0057 5.49311 23.1712 5.50003C26.3366 5.50694 29.3724 6.76572 31.6228 9.00445C33.8733 11.2432 35.1578 14.2823 35.1992 17.4654C35.1992 17.4827 35.1992 17.5 35.1992 17.5182V43.4576C35.1686 46.6553 33.8867 49.7122 31.631 51.9662C29.3753 54.2202 26.3275 55.4898 23.1477 55.5ZM12.3899 43.379C12.3929 43.4035 12.3946 43.4281 12.3948 43.4528C12.4233 46.3031 13.5668 49.0275 15.5778 51.0362C17.5889 53.0449 20.3056 54.1762 23.14 54.1854H23.1468C25.9815 54.1765 28.6988 53.0453 30.7103 51.0366C32.7219 49.028 33.866 46.3035 33.895 43.4528V17.5612C33.895 17.5487 33.895 17.5373 33.895 17.5248C33.8574 14.6829 32.7084 11.9703 30.6969 9.97403C28.6853 7.97776 25.9728 6.85844 23.1468 6.85844C20.3207 6.85844 17.6083 7.97776 15.5967 9.97403C13.5851 11.9703 12.4361 14.6829 12.3985 17.5248C12.3982 17.5537 12.3959 17.5824 12.3917 17.611L12.3899 43.379Z" fill="#DFF314"/>
<path d="M12.0674 49.0622C9.42729 49.0649 6.8593 48.1959 4.75785 46.5887C2.6564 44.9815 1.13773 42.7249 0.434971 40.1656C-0.267786 37.6063 -0.115799 34.8859 0.867747 32.4219C1.85129 29.9579 3.61198 27.8867 5.8793 26.5265L5.92578 26.4959L28.2639 13.5266C31.0248 11.9575 34.2891 11.5454 37.3499 12.3796C40.4107 13.2138 43.0216 15.2271 44.6169 17.9834C46.2122 20.7398 46.6634 24.0171 45.8729 27.1057C45.0824 30.1943 43.1138 32.8453 40.3935 34.4846C40.3709 34.5025 40.347 34.5188 40.3221 34.5334L17.9849 47.5036C17.9545 47.5212 17.9228 47.5363 17.8899 47.5486C16.1069 48.5387 14.1041 49.0593 12.0674 49.0622ZM6.6219 27.6161L6.58843 27.6371C4.55903 28.8435 2.9803 30.6875 2.09542 32.8849C1.21053 35.0824 1.06864 37.5115 1.69146 39.7981C2.31429 42.0846 3.66738 44.1019 5.54228 45.5391C7.41718 46.9763 9.70996 47.7537 12.0674 47.7516C13.9135 47.7489 15.7279 47.2692 17.3367 46.3585C17.3619 46.3441 17.388 46.3314 17.4148 46.3203L39.6033 33.4372C39.6231 33.4223 39.644 33.4086 39.6653 33.396C42.1194 31.9548 43.906 29.5948 44.6348 26.8323C45.3635 24.0698 44.975 21.1296 43.554 18.6544C42.133 16.1793 39.7954 14.3707 37.0522 13.6242C34.3089 12.8777 31.3833 13.254 28.9152 14.6708L6.6219 27.6161Z" fill="#DFF314"/>
<path d="M34.2168 49.0614C32.1623 49.0586 30.1423 48.5294 28.3476 47.5237L28.299 47.4988L5.96108 34.5286C3.22862 32.909 1.24073 30.2719 0.428201 27.1887C-0.38433 24.1054 0.0438601 20.8242 1.62008 18.0562C3.19629 15.2883 5.79346 13.2564 8.84896 12.4009C11.9045 11.5453 15.1722 11.9349 17.944 13.4855C17.9705 13.4964 17.9963 13.5093 18.0212 13.5238L40.3581 26.493C40.3883 26.5104 40.417 26.5303 40.4439 26.5524C42.702 27.9195 44.4523 29.9931 45.4269 32.4559C46.4014 34.9186 46.5464 37.6348 45.8399 40.1884C45.1333 42.742 43.6141 44.9924 41.5147 46.5949C39.4153 48.1974 36.8524 49.0638 34.2168 49.0614ZM28.9131 46.3374L28.9472 46.3556C31.4148 47.7693 34.3386 48.1434 37.0795 47.3962C39.8205 46.6489 42.156 44.8412 43.5758 42.3677C44.9957 39.8943 45.3846 36.9562 44.6573 34.1954C43.9301 31.4346 42.1458 29.0755 39.6946 27.6334C39.6697 27.6184 39.6459 27.6017 39.6232 27.5836L17.4336 14.6995C17.4111 14.69 17.3893 14.6791 17.368 14.6669C14.9006 13.2616 11.9808 12.8938 9.24478 13.6433C6.50881 14.3929 4.17835 16.1993 2.76059 18.6691C1.34282 21.1389 0.952733 24.0719 1.67539 26.8295C2.39806 29.5871 4.17486 31.9459 6.61884 33.3921L28.9131 46.3374Z" fill="#DFF314"/>
<path d="M80.8453 18.144C80.3093 18.144 79.8173 18.048 79.3693 17.856C78.9293 17.656 78.5773 17.36 78.3133 16.968C78.0573 16.568 77.9213 16.068 77.9053 15.468H79.1053C79.1133 15.772 79.1853 16.048 79.3213 16.296C79.4573 16.544 79.6533 16.744 79.9093 16.896C80.1733 17.04 80.4853 17.112 80.8453 17.112C81.2053 17.112 81.5053 17.044 81.7453 16.908C81.9933 16.772 82.1773 16.588 82.2973 16.356C82.4253 16.124 82.4893 15.864 82.4893 15.576C82.4893 15.224 82.4013 14.936 82.2253 14.712C82.0573 14.488 81.8253 14.32 81.5293 14.208C81.2413 14.096 80.9173 14.04 80.5573 14.04H79.9333V13.044H80.5573C81.0693 13.044 81.4773 12.928 81.7813 12.696C82.0853 12.456 82.2373 12.124 82.2373 11.7C82.2373 11.348 82.1173 11.06 81.8773 10.836C81.6453 10.604 81.3013 10.488 80.8453 10.488C80.3893 10.488 80.0293 10.616 79.7653 10.872C79.5013 11.128 79.3533 11.452 79.3213 11.844H78.1213C78.1453 11.372 78.2733 10.956 78.5053 10.596C78.7373 10.228 79.0533 9.948 79.4533 9.756C79.8533 9.556 80.3173 9.456 80.8453 9.456C81.4133 9.456 81.8853 9.556 82.2613 9.756C82.6453 9.948 82.9373 10.208 83.1373 10.536C83.3373 10.864 83.4373 11.224 83.4373 11.616C83.4373 11.912 83.3773 12.192 83.2573 12.456C83.1453 12.712 82.9853 12.932 82.7773 13.116C82.5693 13.3 82.3133 13.432 82.0093 13.512C82.3293 13.568 82.6133 13.692 82.8613 13.884C83.1173 14.068 83.3173 14.304 83.4613 14.592C83.6133 14.88 83.6893 15.212 83.6893 15.588C83.6893 16.044 83.5813 16.468 83.3653 16.86C83.1493 17.244 82.8293 17.556 82.4053 17.796C81.9893 18.028 81.4693 18.144 80.8453 18.144ZM88.8931 18.144C88.1651 18.144 87.5371 17.964 87.0091 17.604C86.4891 17.236 86.0891 16.728 85.8091 16.08C85.5291 15.424 85.3891 14.664 85.3891 13.8C85.3891 12.936 85.5291 12.18 85.8091 11.532C86.0891 10.876 86.4891 10.368 87.0091 10.008C87.5371 9.64 88.1651 9.456 88.8931 9.456C89.6291 9.456 90.2531 9.64 90.7651 10.008C91.2851 10.368 91.6851 10.876 91.9651 11.532C92.2531 12.18 92.3971 12.936 92.3971 13.8C92.3971 14.664 92.2531 15.424 91.9651 16.08C91.6851 16.728 91.2851 17.236 90.7651 17.604C90.2531 17.964 89.6291 18.144 88.8931 18.144ZM88.8931 17.076C89.3331 17.076 89.7211 16.944 90.0571 16.68C90.4011 16.416 90.6691 16.04 90.8611 15.552C91.0611 15.064 91.1611 14.48 91.1611 13.8C91.1611 13.112 91.0611 12.528 90.8611 12.048C90.6691 11.56 90.4011 11.188 90.0571 10.932C89.7211 10.668 89.3331 10.536 88.8931 10.536C88.4531 10.536 88.0611 10.668 87.7171 10.932C87.3731 11.188 87.1011 11.56 86.9011 12.048C86.7091 12.528 86.6131 13.112 86.6131 13.8C86.6131 14.48 86.7091 15.064 86.9011 15.552C87.1011 16.04 87.3731 16.416 87.7171 16.68C88.0611 16.944 88.4531 17.076 88.8931 17.076ZM96.1377 17.172V11.868H97.1937V17.172H96.1377ZM93.8697 15.024V14.016H99.4737V15.024H93.8697ZM104.723 18V9.6H107.579C108.251 9.6 108.803 9.712 109.235 9.936C109.675 10.16 109.999 10.464 110.207 10.848C110.415 11.224 110.519 11.656 110.519 12.144C110.519 12.608 110.415 13.032 110.207 13.416C109.999 13.8 109.679 14.108 109.247 14.34C108.815 14.564 108.259 14.676 107.579 14.676H105.923V18H104.723ZM105.923 13.68H107.531C108.171 13.68 108.623 13.54 108.887 13.26C109.159 12.98 109.295 12.608 109.295 12.144C109.295 11.656 109.159 11.276 108.887 11.004C108.623 10.732 108.171 10.596 107.531 10.596H105.923V13.68ZM112.196 18V9.6H115.04C115.704 9.6 116.248 9.712 116.672 9.936C117.096 10.16 117.408 10.46 117.608 10.836C117.816 11.204 117.92 11.624 117.92 12.096C117.92 12.544 117.816 12.96 117.608 13.344C117.408 13.72 117.092 14.024 116.66 14.256C116.228 14.48 115.676 14.592 115.004 14.592H113.396V18H112.196ZM116.612 18L114.8 14.268H116.12L118.004 18H116.612ZM113.396 13.68H114.968C115.56 13.68 115.992 13.536 116.264 13.248C116.544 12.952 116.684 12.576 116.684 12.12C116.684 11.656 116.548 11.288 116.276 11.016C116.004 10.744 115.564 10.608 114.956 10.608H113.396V13.68ZM123.565 18.144C122.773 18.144 122.073 17.964 121.465 17.604C120.865 17.236 120.393 16.728 120.049 16.08C119.713 15.424 119.545 14.664 119.545 13.8C119.545 12.944 119.713 12.192 120.049 11.544C120.393 10.888 120.865 10.376 121.465 10.008C122.073 9.64 122.773 9.456 123.565 9.456C124.373 9.456 125.077 9.64 125.677 10.008C126.285 10.376 126.757 10.888 127.093 11.544C127.429 12.192 127.597 12.944 127.597 13.8C127.597 14.664 127.429 15.424 127.093 16.08C126.757 16.728 126.285 17.236 125.677 17.604C125.077 17.964 124.373 18.144 123.565 18.144ZM123.565 17.076C124.133 17.076 124.625 16.944 125.041 16.68C125.465 16.416 125.793 16.04 126.025 15.552C126.257 15.064 126.373 14.48 126.373 13.8C126.373 13.12 126.257 12.536 126.025 12.048C125.793 11.56 125.465 11.188 125.041 10.932C124.625 10.668 124.133 10.536 123.565 10.536C123.005 10.536 122.513 10.668 122.089 10.932C121.673 11.188 121.349 11.56 121.117 12.048C120.885 12.536 120.769 13.12 120.769 13.8C120.769 14.48 120.885 15.064 121.117 15.552C121.349 16.04 121.673 16.416 122.089 16.68C122.513 16.944 123.005 17.076 123.565 17.076ZM131.408 18.144C130.888 18.144 130.44 18.048 130.064 17.856C129.688 17.656 129.396 17.368 129.188 16.992C128.98 16.616 128.876 16.168 128.876 15.648H130.088C130.088 15.92 130.132 16.164 130.22 16.38C130.308 16.596 130.444 16.768 130.628 16.896C130.82 17.016 131.072 17.076 131.384 17.076C131.688 17.076 131.932 17.016 132.116 16.896C132.3 16.776 132.432 16.616 132.512 16.416C132.592 16.208 132.632 15.972 132.632 15.708V9.6H133.832V15.708C133.832 16.484 133.616 17.084 133.184 17.508C132.752 17.932 132.16 18.144 131.408 18.144ZM135.963 18V9.6H141.267V10.584H137.163V13.272H140.907V14.232H137.163V17.016H141.267V18H135.963ZM146.85 18.144C146.034 18.144 145.33 17.964 144.738 17.604C144.146 17.236 143.69 16.728 143.37 16.08C143.05 15.424 142.89 14.664 142.89 13.8C142.89 12.944 143.05 12.188 143.37 11.532C143.69 10.876 144.146 10.368 144.738 10.008C145.33 9.64 146.034 9.456 146.85 9.456C147.826 9.456 148.618 9.692 149.226 10.164C149.834 10.636 150.222 11.3 150.39 12.156H149.082C148.954 11.66 148.706 11.264 148.338 10.968C147.97 10.672 147.47 10.524 146.838 10.524C146.286 10.524 145.802 10.656 145.386 10.92C144.978 11.184 144.662 11.56 144.438 12.048C144.222 12.536 144.114 13.12 144.114 13.8C144.114 14.48 144.222 15.068 144.438 15.564C144.662 16.052 144.978 16.428 145.386 16.692C145.802 16.948 146.286 17.076 146.838 17.076C147.47 17.076 147.97 16.936 148.338 16.656C148.706 16.368 148.954 15.98 149.082 15.492H150.39C150.222 16.324 149.834 16.976 149.226 17.448C148.618 17.912 147.826 18.144 146.85 18.144ZM154.003 18V10.584H151.507V9.6H157.687V10.584H155.203V18H154.003ZM161.881 18.144C161.273 18.144 160.737 18.036 160.273 17.82C159.809 17.596 159.449 17.284 159.193 16.884C158.937 16.484 158.805 16.016 158.797 15.48H160.069C160.069 15.784 160.137 16.064 160.273 16.32C160.417 16.568 160.621 16.768 160.885 16.92C161.157 17.064 161.489 17.136 161.881 17.136C162.217 17.136 162.505 17.08 162.745 16.968C162.993 16.856 163.181 16.704 163.309 16.512C163.437 16.312 163.501 16.084 163.501 15.828C163.501 15.54 163.437 15.304 163.309 15.12C163.181 14.928 163.001 14.768 162.769 14.64C162.545 14.512 162.285 14.4 161.989 14.304C161.701 14.208 161.389 14.104 161.053 13.992C160.373 13.768 159.869 13.484 159.541 13.14C159.221 12.796 159.061 12.348 159.061 11.796C159.061 11.324 159.169 10.916 159.385 10.572C159.609 10.22 159.925 9.948 160.333 9.756C160.741 9.556 161.217 9.456 161.761 9.456C162.313 9.456 162.789 9.556 163.189 9.756C163.597 9.956 163.917 10.232 164.149 10.584C164.381 10.936 164.501 11.348 164.509 11.82H163.237C163.237 11.604 163.177 11.392 163.057 11.184C162.945 10.976 162.777 10.808 162.553 10.68C162.337 10.544 162.065 10.476 161.737 10.476C161.457 10.468 161.209 10.512 160.993 10.608C160.777 10.704 160.609 10.844 160.489 11.028C160.369 11.212 160.309 11.432 160.309 11.688C160.309 11.944 160.365 12.152 160.477 12.312C160.589 12.464 160.745 12.596 160.945 12.708C161.153 12.82 161.397 12.924 161.677 13.02C161.957 13.108 162.265 13.208 162.601 13.32C163.009 13.456 163.377 13.624 163.705 13.824C164.033 14.016 164.289 14.268 164.473 14.58C164.665 14.884 164.761 15.276 164.761 15.756C164.761 16.172 164.653 16.56 164.437 16.92C164.221 17.28 163.901 17.576 163.477 17.808C163.053 18.032 162.521 18.144 161.881 18.144Z" fill="#999999"/>
<path d="M80.3613 36.468L84.8273 49.316L89.3153 36.468H92.0433L86.4333 52H83.2213L77.6333 36.468H80.3613ZM93.3308 36.358C93.3308 35.9327 93.4774 35.5807 93.7708 35.302C94.0641 35.0233 94.4528 34.884 94.9368 34.884C95.4208 34.884 95.8094 35.0233 96.1028 35.302C96.4108 35.5807 96.5648 35.9327 96.5648 36.358C96.5648 36.7833 96.4108 37.128 96.1028 37.392C95.8094 37.656 95.4208 37.788 94.9368 37.788C94.4528 37.788 94.0641 37.656 93.7708 37.392C93.4774 37.128 93.3308 36.7833 93.3308 36.358ZM96.1908 39.878V52H93.6828V39.878H96.1908ZM103.868 39.724C104.968 39.724 105.906 39.9953 106.684 40.538C107.461 41.0807 108.004 41.7993 108.312 42.694V35.72H110.842V52H108.312V49.184C108.004 50.0787 107.461 50.7973 106.684 51.34C105.906 51.8827 104.968 52.154 103.868 52.154C102.812 52.154 101.866 51.9047 101.03 51.406C100.208 50.9073 99.5631 50.1887 99.0937 49.25C98.6244 48.3113 98.3897 47.204 98.3897 45.928C98.3897 44.6667 98.6244 43.5667 99.0937 42.628C99.5631 41.6893 100.208 40.9707 101.03 40.472C101.866 39.9733 102.812 39.724 103.868 39.724ZM104.638 41.924C103.523 41.924 102.628 42.2833 101.954 43.002C101.294 43.706 100.964 44.6813 100.964 45.928C100.964 47.1747 101.294 48.1573 101.954 48.876C102.628 49.58 103.523 49.932 104.638 49.932C105.342 49.932 105.972 49.7707 106.53 49.448C107.087 49.1107 107.527 48.6413 107.85 48.04C108.172 47.4387 108.334 46.7347 108.334 45.928C108.334 45.136 108.172 44.4393 107.85 43.838C107.527 43.222 107.087 42.7527 106.53 42.43C105.972 42.0927 105.342 41.924 104.638 41.924ZM124.895 45.356C124.895 45.7667 124.866 46.126 124.807 46.434H115.479C115.523 47.6807 115.868 48.6047 116.513 49.206C117.159 49.8073 117.958 50.108 118.911 50.108C119.747 50.108 120.451 49.8953 121.023 49.47C121.61 49.0447 121.969 48.48 122.101 47.776H124.785C124.624 48.6267 124.287 49.382 123.773 50.042C123.26 50.702 122.593 51.2227 121.771 51.604C120.95 51.9707 120.033 52.154 119.021 52.154C117.848 52.154 116.807 51.9047 115.897 51.406C115.003 50.9073 114.299 50.1887 113.785 49.25C113.272 48.3113 113.015 47.204 113.015 45.928C113.015 44.6667 113.272 43.5667 113.785 42.628C114.299 41.6893 115.003 40.9707 115.897 40.472C116.807 39.9733 117.848 39.724 119.021 39.724C120.209 39.724 121.243 39.9733 122.123 40.472C123.018 40.956 123.7 41.6307 124.169 42.496C124.653 43.3467 124.895 44.3 124.895 45.356ZM122.365 45.29C122.395 44.498 122.255 43.838 121.947 43.31C121.654 42.7673 121.243 42.3713 120.715 42.122C120.202 41.858 119.637 41.726 119.021 41.726C118.039 41.726 117.217 42.0267 116.557 42.628C115.897 43.2293 115.538 44.1167 115.479 45.29H122.365ZM132.641 39.724C133.814 39.724 134.87 39.9733 135.809 40.472C136.748 40.9707 137.481 41.6893 138.009 42.628C138.537 43.5667 138.801 44.6667 138.801 45.928C138.801 47.204 138.537 48.3113 138.009 49.25C137.481 50.1887 136.748 50.9073 135.809 51.406C134.87 51.9047 133.814 52.154 132.641 52.154C131.468 52.154 130.412 51.9047 129.473 51.406C128.549 50.9073 127.816 50.1887 127.273 49.25C126.745 48.2967 126.481 47.1893 126.481 45.928C126.481 44.6667 126.745 43.5667 127.273 42.628C127.816 41.6893 128.549 40.9707 129.473 40.472C130.412 39.9733 131.468 39.724 132.641 39.724ZM132.641 41.902C131.996 41.902 131.402 42.0487 130.859 42.342C130.316 42.6353 129.876 43.09 129.539 43.706C129.216 44.3073 129.055 45.048 129.055 45.928C129.055 46.8227 129.216 47.5707 129.539 48.172C129.876 48.7733 130.316 49.2207 130.859 49.514C131.402 49.8073 131.996 49.954 132.641 49.954C133.286 49.954 133.88 49.8073 134.423 49.514C134.966 49.2207 135.398 48.7733 135.721 48.172C136.058 47.5707 136.227 46.8227 136.227 45.928C136.227 45.048 136.058 44.3073 135.721 43.706C135.398 43.09 134.966 42.6353 134.423 42.342C133.88 42.0487 133.286 41.902 132.641 41.902ZM148.436 38.492V43.2H154.156V45.136H148.436V49.954H154.816V52H145.928V36.468H154.816V38.492H148.436ZM161.893 39.724C162.993 39.724 163.931 39.9953 164.709 40.538C165.486 41.0807 166.029 41.7993 166.337 42.694V35.72H168.867V52H166.337V49.184C166.029 50.0787 165.486 50.7973 164.709 51.34C163.931 51.8827 162.993 52.154 161.893 52.154C160.837 52.154 159.891 51.9047 159.055 51.406C158.233 50.9073 157.588 50.1887 157.119 49.25C156.649 48.3113 156.415 47.204 156.415 45.928C156.415 44.6667 156.649 43.5667 157.119 42.628C157.588 41.6893 158.233 40.9707 159.055 40.472C159.891 39.9733 160.837 39.724 161.893 39.724ZM162.663 41.924C161.548 41.924 160.653 42.2833 159.979 43.002C159.319 43.706 158.989 44.6813 158.989 45.928C158.989 47.1747 159.319 48.1573 159.979 48.876C160.653 49.58 161.548 49.932 162.663 49.932C163.367 49.932 163.997 49.7707 164.555 49.448C165.112 49.1107 165.552 48.6413 165.875 48.04C166.197 47.4387 166.359 46.7347 166.359 45.928C166.359 45.136 166.197 44.4393 165.875 43.838C165.552 43.222 165.112 42.7527 164.555 42.43C163.997 42.0927 163.367 41.924 162.663 41.924ZM171.304 36.358C171.304 35.9327 171.451 35.5807 171.744 35.302C172.038 35.0233 172.426 34.884 172.91 34.884C173.394 34.884 173.783 35.0233 174.076 35.302C174.384 35.5807 174.538 35.9327 174.538 36.358C174.538 36.7833 174.384 37.128 174.076 37.392C173.783 37.656 173.394 37.788 172.91 37.788C172.426 37.788 172.038 37.656 171.744 37.392C171.451 37.128 171.304 36.7833 171.304 36.358ZM174.164 39.878V52H171.656V39.878H174.164ZM183.073 49.822V52H181.533C180.243 52 179.26 51.692 178.585 51.076C177.925 50.4453 177.595 49.404 177.595 47.952V42.012H175.857V39.878H177.595V36.864H180.125V39.878H183.051V42.012H180.125V47.996C180.125 48.6853 180.25 49.162 180.499 49.426C180.763 49.69 181.218 49.822 181.863 49.822H183.073ZM184.851 36.358C184.851 35.9327 184.997 35.5807 185.291 35.302C185.584 35.0233 185.973 34.884 186.457 34.884C186.941 34.884 187.329 35.0233 187.623 35.302C187.931 35.5807 188.085 35.9327 188.085 36.358C188.085 36.7833 187.931 37.128 187.623 37.392C187.329 37.656 186.941 37.788 186.457 37.788C185.973 37.788 185.584 37.656 185.291 37.392C184.997 37.128 184.851 36.7833 184.851 36.358ZM187.711 39.878V52H185.203V39.878H187.711ZM197.302 39.68C198.71 39.68 199.839 40.1347 200.69 41.044C201.54 41.9533 201.966 43.2513 201.966 44.938V52H199.458V45.202C199.458 44.1167 199.179 43.2807 198.622 42.694C198.064 42.0927 197.302 41.792 196.334 41.792C195.336 41.792 194.537 42.1147 193.936 42.76C193.334 43.3907 193.034 44.322 193.034 45.554V52H190.526V39.878H193.034V42.54C193.356 41.6307 193.899 40.9267 194.662 40.428C195.424 39.9293 196.304 39.68 197.302 39.68ZM209.541 39.724C210.641 39.724 211.579 39.9953 212.357 40.538C213.134 41.0807 213.684 41.7993 214.007 42.694V39.878H216.515V52.132C216.515 53.2613 216.28 54.2587 215.811 55.124C215.356 56.004 214.696 56.6933 213.831 57.192C212.965 57.6907 211.939 57.94 210.751 57.94C209.049 57.94 207.671 57.5367 206.615 56.73C205.573 55.9233 204.921 54.8307 204.657 53.452H207.143C207.348 54.1707 207.744 54.728 208.331 55.124C208.917 55.5347 209.665 55.74 210.575 55.74C211.572 55.74 212.393 55.432 213.039 54.816C213.684 54.2 214.007 53.3053 214.007 52.132V49.184C213.684 50.0787 213.134 50.7973 212.357 51.34C211.579 51.8827 210.641 52.154 209.541 52.154C208.485 52.154 207.539 51.9047 206.703 51.406C205.881 50.9073 205.236 50.1887 204.767 49.25C204.297 48.3113 204.063 47.204 204.063 45.928C204.063 44.6667 204.297 43.5667 204.767 42.628C205.236 41.6893 205.881 40.9707 206.703 40.472C207.539 39.9733 208.485 39.724 209.541 39.724ZM210.311 41.924C209.196 41.924 208.301 42.2833 207.627 43.002C206.967 43.706 206.637 44.6813 206.637 45.928C206.637 47.1747 206.967 48.1573 207.627 48.876C208.301 49.58 209.196 49.932 210.311 49.932C211.015 49.932 211.645 49.7707 212.203 49.448C212.76 49.1107 213.2 48.6413 213.523 48.04C213.845 47.4387 214.007 46.7347 214.007 45.928C214.007 45.136 213.845 44.4393 213.523 43.838C213.2 43.222 212.76 42.7527 212.203 42.43C211.645 42.0927 211.015 41.924 210.311 41.924Z" fill="white"/>
</svg>
