<svg width="47" height="50" viewBox="0 0 47 50" fill="none" xmlns="http://www.w3.org/2000/svg">
<path d="M23.1477 50H23.1428C19.977 49.9909 16.9411 48.7333 14.6872 46.4976C12.4332 44.2618 11.1411 41.2262 11.0885 38.0428C11.0848 38.0142 11.0827 37.9853 11.0827 37.9565V12.0171C11.0827 11.9821 11.0856 11.9473 11.0913 11.9129C11.1464 8.7299 12.4442 5.69641 14.7044 3.46752C16.9645 1.23864 20.0057 -0.00688558 23.1712 2.86337e-05C26.3366 0.00694285 29.3724 1.26572 31.6228 3.50445C33.8733 5.74319 35.1578 8.78228 35.1992 11.9654C35.1992 11.9827 35.1992 12 35.1992 12.0182V37.9576C35.1686 41.1553 33.8867 44.2122 31.631 46.4662C29.3753 48.7202 26.3275 49.9898 23.1477 50ZM12.3899 37.879C12.3929 37.9035 12.3946 37.9281 12.3948 37.9528C12.4233 40.8031 13.5668 43.5275 15.5778 45.5362C17.5889 47.5449 20.3056 48.6762 23.14 48.6854H23.1468C25.9815 48.6765 28.6988 47.5453 30.7103 45.5366C32.7219 43.528 33.866 40.8035 33.895 37.9528V12.0612C33.895 12.0487 33.895 12.0373 33.895 12.0248C33.8574 9.18294 32.7084 6.4703 30.6969 4.47403C28.6853 2.47776 25.9728 1.35844 23.1468 1.35844C20.3207 1.35844 17.6083 2.47776 15.5967 4.47403C13.5851 6.4703 12.4361 9.18294 12.3985 12.0248C12.3982 12.0537 12.3959 12.0824 12.3917 12.111L12.3899 37.879Z" fill="#DFF314"/>
<path d="M12.0674 43.5622C9.42729 43.5649 6.8593 42.6959 4.75785 41.0887C2.6564 39.4815 1.13773 37.2249 0.434971 34.6656C-0.267786 32.1063 -0.115799 29.3859 0.867747 26.9219C1.85129 24.4579 3.61198 22.3867 5.8793 21.0265L5.92578 20.9959L28.2639 8.02662C31.0248 6.45748 34.2891 6.04545 37.3499 6.87964C40.4107 7.71382 43.0216 9.7271 44.6169 12.4834C46.2122 15.2398 46.6634 18.5171 45.8729 21.6057C45.0824 24.6943 43.1138 27.3453 40.3935 28.9846C40.3709 29.0025 40.347 29.0188 40.3221 29.0334L17.9849 42.0036C17.9545 42.0212 17.9228 42.0363 17.8899 42.0486C16.1069 43.0387 14.1041 43.5593 12.0674 43.5622ZM6.6219 22.1161L6.58843 22.1371C4.55903 23.3435 2.9803 25.1875 2.09542 27.3849C1.21053 29.5824 1.06864 32.0115 1.69146 34.2981C2.31429 36.5846 3.66738 38.6019 5.54228 40.0391C7.41718 41.4763 9.70996 42.2537 12.0674 42.2516C13.9135 42.2489 15.7279 41.7692 17.3367 40.8585C17.3619 40.8441 17.388 40.8314 17.4148 40.8203L39.6033 27.9372C39.6231 27.9223 39.644 27.9086 39.6653 27.896C42.1194 26.4548 43.906 24.0948 44.6348 21.3323C45.3635 18.5698 44.975 15.6296 43.554 13.1544C42.133 10.6793 39.7954 8.87072 37.0522 8.12421C34.3089 7.3777 31.3833 7.75399 28.9152 9.17081L6.6219 22.1161Z" fill="#DFF314"/>
<path d="M34.2168 43.5614C32.1623 43.5586 30.1423 43.0294 28.3476 42.0237L28.299 41.9988L5.96108 29.0286C3.22862 27.409 1.24073 24.7719 0.428201 21.6887C-0.38433 18.6054 0.0438601 15.3242 1.62008 12.5562C3.19629 9.78825 5.79346 7.75643 8.84896 6.90087C11.9045 6.04532 15.1722 6.43494 17.944 7.98545C17.9705 7.99644 17.9963 8.00928 18.0212 8.02379L40.3581 20.993C40.3883 21.0104 40.417 21.0303 40.4439 21.0524C42.702 22.4195 44.4523 24.4931 45.4269 26.9559C46.4014 29.4186 46.5464 32.1348 45.8399 34.6884C45.1333 37.242 43.6141 39.4924 41.5147 41.0949C39.4153 42.6974 36.8524 43.5638 34.2168 43.5614ZM28.9131 40.8374L28.9472 40.8556C31.4148 42.2693 34.3386 42.6434 37.0795 41.8962C39.8205 41.1489 42.156 39.3412 43.5758 36.8677C44.9957 34.3943 45.3846 31.4562 44.6573 28.6954C43.9301 25.9346 42.1458 23.5755 39.6946 22.1334C39.6697 22.1184 39.6459 22.1017 39.6232 22.0836L17.4336 9.19952C17.4111 9.18998 17.3893 9.17906 17.368 9.16692C14.9006 7.76161 11.9808 7.39376 9.24478 8.14335C6.50881 8.89293 4.17835 10.6993 2.76059 13.1691C1.34282 15.6389 0.952733 18.5719 1.67539 21.3295C2.39806 24.0871 4.17486 26.4459 6.61884 27.8921L28.9131 40.8374Z" fill="#DFF314"/>
</svg>
