<svg width="216" height="61" viewBox="0 0 216 61" fill="none" xmlns="http://www.w3.org/2000/svg">
<path d="M3.564 18.144C3.028 18.144 2.536 18.048 2.088 17.856C1.648 17.656 1.296 17.36 1.032 16.968C0.776 16.568 0.64 16.068 0.624 15.468H1.824C1.832 15.772 1.904 16.048 2.04 16.296C2.176 16.544 2.372 16.744 2.628 16.896C2.892 17.04 3.204 17.112 3.564 17.112C3.924 17.112 4.224 17.044 4.464 16.908C4.712 16.772 4.896 16.588 5.016 16.356C5.144 16.124 5.208 15.864 5.208 15.576C5.208 15.224 5.12 14.936 4.944 14.712C4.776 14.488 4.544 14.32 4.248 14.208C3.96 14.096 3.636 14.04 3.276 14.04H2.652V13.044H3.276C3.788 13.044 4.196 12.928 4.5 12.696C4.804 12.456 4.956 12.124 4.956 11.7C4.956 11.348 4.836 11.06 4.596 10.836C4.364 10.604 4.02 10.488 3.564 10.488C3.108 10.488 2.748 10.616 2.484 10.872C2.22 11.128 2.072 11.452 2.04 11.844H0.84C0.864 11.372 0.992 10.956 1.224 10.596C1.456 10.228 1.772 9.948 2.172 9.756C2.572 9.556 3.036 9.456 3.564 9.456C4.132 9.456 4.604 9.556 4.98 9.756C5.364 9.948 5.656 10.208 5.856 10.536C6.056 10.864 6.156 11.224 6.156 11.616C6.156 11.912 6.096 12.192 5.976 12.456C5.864 12.712 5.704 12.932 5.496 13.116C5.288 13.3 5.032 13.432 4.728 13.512C5.048 13.568 5.332 13.692 5.58 13.884C5.836 14.068 6.036 14.304 6.18 14.592C6.332 14.88 6.408 15.212 6.408 15.588C6.408 16.044 6.3 16.468 6.084 16.86C5.868 17.244 5.548 17.556 5.124 17.796C4.708 18.028 4.188 18.144 3.564 18.144ZM11.6119 18.144C10.8839 18.144 10.2559 17.964 9.72788 17.604C9.20788 17.236 8.80788 16.728 8.52788 16.08C8.24788 15.424 8.10788 14.664 8.10788 13.8C8.10788 12.936 8.24788 12.18 8.52788 11.532C8.80788 10.876 9.20788 10.368 9.72788 10.008C10.2559 9.64 10.8839 9.456 11.6119 9.456C12.3479 9.456 12.9719 9.64 13.4839 10.008C14.0039 10.368 14.4039 10.876 14.6839 11.532C14.9719 12.18 15.1159 12.936 15.1159 13.8C15.1159 14.664 14.9719 15.424 14.6839 16.08C14.4039 16.728 14.0039 17.236 13.4839 17.604C12.9719 17.964 12.3479 18.144 11.6119 18.144ZM11.6119 17.076C12.0519 17.076 12.4399 16.944 12.7759 16.68C13.1199 16.416 13.3879 16.04 13.5799 15.552C13.7799 15.064 13.8799 14.48 13.8799 13.8C13.8799 13.112 13.7799 12.528 13.5799 12.048C13.3879 11.56 13.1199 11.188 12.7759 10.932C12.4399 10.668 12.0519 10.536 11.6119 10.536C11.1719 10.536 10.7799 10.668 10.4359 10.932C10.0919 11.188 9.81988 11.56 9.61988 12.048C9.42788 12.528 9.33188 13.112 9.33188 13.8C9.33188 14.48 9.42788 15.064 9.61988 15.552C9.81988 16.04 10.0919 16.416 10.4359 16.68C10.7799 16.944 11.1719 17.076 11.6119 17.076ZM18.8564 17.172V11.868H19.9124V17.172H18.8564ZM16.5884 15.024V14.016H22.1924V15.024H16.5884ZM27.4413 18V9.6H30.2973C30.9693 9.6 31.5213 9.712 31.9533 9.936C32.3933 10.16 32.7173 10.464 32.9253 10.848C33.1333 11.224 33.2373 11.656 33.2373 12.144C33.2373 12.608 33.1333 13.032 32.9253 13.416C32.7173 13.8 32.3973 14.108 31.9653 14.34C31.5333 14.564 30.9773 14.676 30.2973 14.676H28.6413V18H27.4413ZM28.6413 13.68H30.2493C30.8893 13.68 31.3413 13.54 31.6053 13.26C31.8773 12.98 32.0133 12.608 32.0133 12.144C32.0133 11.656 31.8773 11.276 31.6053 11.004C31.3413 10.732 30.8893 10.596 30.2493 10.596H28.6413V13.68ZM34.9146 18V9.6H37.7586C38.4226 9.6 38.9666 9.712 39.3906 9.936C39.8146 10.16 40.1266 10.46 40.3266 10.836C40.5346 11.204 40.6386 11.624 40.6386 12.096C40.6386 12.544 40.5346 12.96 40.3266 13.344C40.1266 13.72 39.8106 14.024 39.3786 14.256C38.9466 14.48 38.3946 14.592 37.7226 14.592H36.1146V18H34.9146ZM39.3306 18L37.5186 14.268H38.8386L40.7226 18H39.3306ZM36.1146 13.68H37.6866C38.2786 13.68 38.7106 13.536 38.9826 13.248C39.2626 12.952 39.4026 12.576 39.4026 12.12C39.4026 11.656 39.2666 11.288 38.9946 11.016C38.7226 10.744 38.2826 10.608 37.6746 10.608H36.1146V13.68ZM46.2833 18.144C45.4913 18.144 44.7913 17.964 44.1833 17.604C43.5833 17.236 43.1113 16.728 42.7673 16.08C42.4313 15.424 42.2633 14.664 42.2633 13.8C42.2633 12.944 42.4313 12.192 42.7673 11.544C43.1113 10.888 43.5833 10.376 44.1833 10.008C44.7913 9.64 45.4913 9.456 46.2833 9.456C47.0913 9.456 47.7953 9.64 48.3953 10.008C49.0033 10.376 49.4753 10.888 49.8113 11.544C50.1473 12.192 50.3153 12.944 50.3153 13.8C50.3153 14.664 50.1473 15.424 49.8113 16.08C49.4753 16.728 49.0033 17.236 48.3953 17.604C47.7953 17.964 47.0913 18.144 46.2833 18.144ZM46.2833 17.076C46.8513 17.076 47.3433 16.944 47.7593 16.68C48.1833 16.416 48.5113 16.04 48.7433 15.552C48.9753 15.064 49.0913 14.48 49.0913 13.8C49.0913 13.12 48.9753 12.536 48.7433 12.048C48.5113 11.56 48.1833 11.188 47.7593 10.932C47.3433 10.668 46.8513 10.536 46.2833 10.536C45.7233 10.536 45.2313 10.668 44.8073 10.932C44.3913 11.188 44.0673 11.56 43.8353 12.048C43.6033 12.536 43.4873 13.12 43.4873 13.8C43.4873 14.48 43.6033 15.064 43.8353 15.552C44.0673 16.04 44.3913 16.416 44.8073 16.68C45.2313 16.944 45.7233 17.076 46.2833 17.076ZM54.1268 18.144C53.6068 18.144 53.1588 18.048 52.7828 17.856C52.4068 17.656 52.1148 17.368 51.9068 16.992C51.6988 16.616 51.5948 16.168 51.5948 15.648H52.8068C52.8068 15.92 52.8508 16.164 52.9388 16.38C53.0268 16.596 53.1628 16.768 53.3468 16.896C53.5388 17.016 53.7908 17.076 54.1028 17.076C54.4068 17.076 54.6508 17.016 54.8348 16.896C55.0188 16.776 55.1508 16.616 55.2308 16.416C55.3108 16.208 55.3508 15.972 55.3508 15.708V9.6H56.5508V15.708C56.5508 16.484 56.3348 17.084 55.9028 17.508C55.4708 17.932 54.8788 18.144 54.1268 18.144ZM58.6821 18V9.6H63.9861V10.584H59.8821V13.272H63.6261V14.232H59.8821V17.016H63.9861V18H58.6821ZM69.569 18.144C68.753 18.144 68.049 17.964 67.457 17.604C66.865 17.236 66.409 16.728 66.089 16.08C65.769 15.424 65.609 14.664 65.609 13.8C65.609 12.944 65.769 12.188 66.089 11.532C66.409 10.876 66.865 10.368 67.457 10.008C68.049 9.64 68.753 9.456 69.569 9.456C70.545 9.456 71.337 9.692 71.945 10.164C72.553 10.636 72.941 11.3 73.109 12.156H71.801C71.673 11.66 71.425 11.264 71.057 10.968C70.689 10.672 70.189 10.524 69.557 10.524C69.005 10.524 68.521 10.656 68.105 10.92C67.697 11.184 67.381 11.56 67.157 12.048C66.941 12.536 66.833 13.12 66.833 13.8C66.833 14.48 66.941 15.068 67.157 15.564C67.381 16.052 67.697 16.428 68.105 16.692C68.521 16.948 69.005 17.076 69.557 17.076C70.189 17.076 70.689 16.936 71.057 16.656C71.425 16.368 71.673 15.98 71.801 15.492H73.109C72.941 16.324 72.553 16.976 71.945 17.448C71.337 17.912 70.545 18.144 69.569 18.144ZM76.7213 18V10.584H74.2253V9.6H80.4053V10.584H77.9213V18H76.7213ZM84.5999 18.144C83.9919 18.144 83.4559 18.036 82.9919 17.82C82.5279 17.596 82.1679 17.284 81.9119 16.884C81.6559 16.484 81.5239 16.016 81.5159 15.48H82.7879C82.7879 15.784 82.8559 16.064 82.9919 16.32C83.1359 16.568 83.3399 16.768 83.6039 16.92C83.8759 17.064 84.2079 17.136 84.5999 17.136C84.9359 17.136 85.2239 17.08 85.4639 16.968C85.7119 16.856 85.8999 16.704 86.0279 16.512C86.1559 16.312 86.2199 16.084 86.2199 15.828C86.2199 15.54 86.1559 15.304 86.0279 15.12C85.8999 14.928 85.7199 14.768 85.4879 14.64C85.2639 14.512 85.0039 14.4 84.7079 14.304C84.4199 14.208 84.1079 14.104 83.7719 13.992C83.0919 13.768 82.5879 13.484 82.2599 13.14C81.9399 12.796 81.7799 12.348 81.7799 11.796C81.7799 11.324 81.8879 10.916 82.1039 10.572C82.3279 10.22 82.6439 9.948 83.0519 9.756C83.4599 9.556 83.9359 9.456 84.4799 9.456C85.0319 9.456 85.5079 9.556 85.9079 9.756C86.3159 9.956 86.6359 10.232 86.8679 10.584C87.0999 10.936 87.2199 11.348 87.2279 11.82H85.9559C85.9559 11.604 85.8959 11.392 85.7759 11.184C85.6639 10.976 85.4959 10.808 85.2719 10.68C85.0559 10.544 84.7839 10.476 84.4559 10.476C84.1759 10.468 83.9279 10.512 83.7119 10.608C83.4959 10.704 83.3279 10.844 83.2079 11.028C83.0879 11.212 83.0279 11.432 83.0279 11.688C83.0279 11.944 83.0839 12.152 83.1959 12.312C83.3079 12.464 83.4639 12.596 83.6639 12.708C83.8719 12.82 84.1159 12.924 84.3959 13.02C84.6759 13.108 84.9839 13.208 85.3199 13.32C85.7279 13.456 86.0959 13.624 86.4239 13.824C86.7519 14.016 87.0079 14.268 87.1919 14.58C87.3839 14.884 87.4799 15.276 87.4799 15.756C87.4799 16.172 87.3719 16.56 87.1559 16.92C86.9399 17.28 86.6199 17.576 86.1959 17.808C85.7719 18.032 85.2399 18.144 84.5999 18.144Z" fill="#999999"/>
<path d="M3.08 36.468L7.546 49.316L12.034 36.468H14.762L9.152 52H5.94L0.352 36.468H3.08ZM16.0495 36.358C16.0495 35.9327 16.1962 35.5807 16.4895 35.302C16.7828 35.0233 17.1715 34.884 17.6555 34.884C18.1395 34.884 18.5282 35.0233 18.8215 35.302C19.1295 35.5807 19.2835 35.9327 19.2835 36.358C19.2835 36.7833 19.1295 37.128 18.8215 37.392C18.5282 37.656 18.1395 37.788 17.6555 37.788C17.1715 37.788 16.7828 37.656 16.4895 37.392C16.1962 37.128 16.0495 36.7833 16.0495 36.358ZM18.9095 39.878V52H16.4015V39.878H18.9095ZM26.5865 39.724C27.6865 39.724 28.6252 39.9953 29.4025 40.538C30.1798 41.0807 30.7225 41.7993 31.0305 42.694V35.72H33.5605V52H31.0305V49.184C30.7225 50.0787 30.1798 50.7973 29.4025 51.34C28.6252 51.8827 27.6865 52.154 26.5865 52.154C25.5305 52.154 24.5845 51.9047 23.7485 51.406C22.9272 50.9073 22.2818 50.1887 21.8125 49.25C21.3432 48.3113 21.1085 47.204 21.1085 45.928C21.1085 44.6667 21.3432 43.5667 21.8125 42.628C22.2818 41.6893 22.9272 40.9707 23.7485 40.472C24.5845 39.9733 25.5305 39.724 26.5865 39.724ZM27.3565 41.924C26.2418 41.924 25.3472 42.2833 24.6725 43.002C24.0125 43.706 23.6825 44.6813 23.6825 45.928C23.6825 47.1747 24.0125 48.1573 24.6725 48.876C25.3472 49.58 26.2418 49.932 27.3565 49.932C28.0605 49.932 28.6912 49.7707 29.2485 49.448C29.8058 49.1107 30.2458 48.6413 30.5685 48.04C30.8912 47.4387 31.0525 46.7347 31.0525 45.928C31.0525 45.136 30.8912 44.4393 30.5685 43.838C30.2458 43.222 29.8058 42.7527 29.2485 42.43C28.6912 42.0927 28.0605 41.924 27.3565 41.924ZM47.6142 45.356C47.6142 45.7667 47.5849 46.126 47.5262 46.434H38.1982C38.2422 47.6807 38.5869 48.6047 39.2322 49.206C39.8775 49.8073 40.6769 50.108 41.6302 50.108C42.4662 50.108 43.1702 49.8953 43.7422 49.47C44.3289 49.0447 44.6882 48.48 44.8202 47.776H47.5042C47.3429 48.6267 47.0055 49.382 46.4922 50.042C45.9789 50.702 45.3115 51.2227 44.4902 51.604C43.6689 51.9707 42.7522 52.154 41.7402 52.154C40.5669 52.154 39.5255 51.9047 38.6162 51.406C37.7215 50.9073 37.0175 50.1887 36.5042 49.25C35.9909 48.3113 35.7342 47.204 35.7342 45.928C35.7342 44.6667 35.9909 43.5667 36.5042 42.628C37.0175 41.6893 37.7215 40.9707 38.6162 40.472C39.5255 39.9733 40.5669 39.724 41.7402 39.724C42.9282 39.724 43.9622 39.9733 44.8422 40.472C45.7369 40.956 46.4189 41.6307 46.8882 42.496C47.3722 43.3467 47.6142 44.3 47.6142 45.356ZM45.0842 45.29C45.1135 44.498 44.9742 43.838 44.6662 43.31C44.3729 42.7673 43.9622 42.3713 43.4342 42.122C42.9209 41.858 42.3562 41.726 41.7402 41.726C40.7575 41.726 39.9362 42.0267 39.2762 42.628C38.6162 43.2293 38.2569 44.1167 38.1982 45.29H45.0842ZM55.3597 39.724C56.5331 39.724 57.5891 39.9733 58.5277 40.472C59.4664 40.9707 60.1997 41.6893 60.7277 42.628C61.2557 43.5667 61.5197 44.6667 61.5197 45.928C61.5197 47.204 61.2557 48.3113 60.7277 49.25C60.1997 50.1887 59.4664 50.9073 58.5277 51.406C57.5891 51.9047 56.5331 52.154 55.3597 52.154C54.1864 52.154 53.1304 51.9047 52.1917 51.406C51.2677 50.9073 50.5344 50.1887 49.9917 49.25C49.4637 48.2967 49.1997 47.1893 49.1997 45.928C49.1997 44.6667 49.4637 43.5667 49.9917 42.628C50.5344 41.6893 51.2677 40.9707 52.1917 40.472C53.1304 39.9733 54.1864 39.724 55.3597 39.724ZM55.3597 41.902C54.7144 41.902 54.1204 42.0487 53.5777 42.342C53.0351 42.6353 52.5951 43.09 52.2577 43.706C51.9351 44.3073 51.7737 45.048 51.7737 45.928C51.7737 46.8227 51.9351 47.5707 52.2577 48.172C52.5951 48.7733 53.0351 49.2207 53.5777 49.514C54.1204 49.8073 54.7144 49.954 55.3597 49.954C56.0051 49.954 56.5991 49.8073 57.1417 49.514C57.6844 49.2207 58.1171 48.7733 58.4397 48.172C58.7771 47.5707 58.9457 46.8227 58.9457 45.928C58.9457 45.048 58.7771 44.3073 58.4397 43.706C58.1171 43.09 57.6844 42.6353 57.1417 42.342C56.5991 42.0487 56.0051 41.902 55.3597 41.902ZM71.1552 38.492V43.2H76.8752V45.136H71.1552V49.954H77.5352V52H68.6472V36.468H77.5352V38.492H71.1552ZM84.6115 39.724C85.7115 39.724 86.6502 39.9953 87.4275 40.538C88.2048 41.0807 88.7475 41.7993 89.0555 42.694V35.72H91.5855V52H89.0555V49.184C88.7475 50.0787 88.2048 50.7973 87.4275 51.34C86.6502 51.8827 85.7115 52.154 84.6115 52.154C83.5555 52.154 82.6095 51.9047 81.7735 51.406C80.9522 50.9073 80.3068 50.1887 79.8375 49.25C79.3682 48.3113 79.1335 47.204 79.1335 45.928C79.1335 44.6667 79.3682 43.5667 79.8375 42.628C80.3068 41.6893 80.9522 40.9707 81.7735 40.472C82.6095 39.9733 83.5555 39.724 84.6115 39.724ZM85.3815 41.924C84.2668 41.924 83.3722 42.2833 82.6975 43.002C82.0375 43.706 81.7075 44.6813 81.7075 45.928C81.7075 47.1747 82.0375 48.1573 82.6975 48.876C83.3722 49.58 84.2668 49.932 85.3815 49.932C86.0855 49.932 86.7162 49.7707 87.2735 49.448C87.8308 49.1107 88.2708 48.6413 88.5935 48.04C88.9162 47.4387 89.0775 46.7347 89.0775 45.928C89.0775 45.136 88.9162 44.4393 88.5935 43.838C88.2708 43.222 87.8308 42.7527 87.2735 42.43C86.7162 42.0927 86.0855 41.924 85.3815 41.924ZM94.0232 36.358C94.0232 35.9327 94.1699 35.5807 94.4632 35.302C94.7565 35.0233 95.1452 34.884 95.6292 34.884C96.1132 34.884 96.5019 35.0233 96.7952 35.302C97.1032 35.5807 97.2572 35.9327 97.2572 36.358C97.2572 36.7833 97.1032 37.128 96.7952 37.392C96.5019 37.656 96.1132 37.788 95.6292 37.788C95.1452 37.788 94.7565 37.656 94.4632 37.392C94.1699 37.128 94.0232 36.7833 94.0232 36.358ZM96.8832 39.878V52H94.3752V39.878H96.8832ZM105.792 49.822V52H104.252C102.961 52 101.979 51.692 101.304 51.076C100.644 50.4453 100.314 49.404 100.314 47.952V42.012H98.5762V39.878H100.314V36.864H102.844V39.878H105.77V42.012H102.844V47.996C102.844 48.6853 102.969 49.162 103.218 49.426C103.482 49.69 103.937 49.822 104.582 49.822H105.792ZM107.57 36.358C107.57 35.9327 107.716 35.5807 108.01 35.302C108.303 35.0233 108.692 34.884 109.176 34.884C109.66 34.884 110.048 35.0233 110.342 35.302C110.65 35.5807 110.804 35.9327 110.804 36.358C110.804 36.7833 110.65 37.128 110.342 37.392C110.048 37.656 109.66 37.788 109.176 37.788C108.692 37.788 108.303 37.656 108.01 37.392C107.716 37.128 107.57 36.7833 107.57 36.358ZM110.43 39.878V52H107.922V39.878H110.43ZM120.02 39.68C121.428 39.68 122.558 40.1347 123.408 41.044C124.259 41.9533 124.684 43.2513 124.684 44.938V52H122.176V45.202C122.176 44.1167 121.898 43.2807 121.34 42.694C120.783 42.0927 120.02 41.792 119.052 41.792C118.055 41.792 117.256 42.1147 116.654 42.76C116.053 43.3907 115.752 44.322 115.752 45.554V52H113.244V39.878H115.752V42.54C116.075 41.6307 116.618 40.9267 117.38 40.428C118.143 39.9293 119.023 39.68 120.02 39.68ZM132.26 39.724C133.36 39.724 134.298 39.9953 135.076 40.538C135.853 41.0807 136.403 41.7993 136.726 42.694V39.878H139.234V52.132C139.234 53.2613 138.999 54.2587 138.53 55.124C138.075 56.004 137.415 56.6933 136.55 57.192C135.684 57.6907 134.658 57.94 133.47 57.94C131.768 57.94 130.39 57.5367 129.334 56.73C128.292 55.9233 127.64 54.8307 127.376 53.452H129.862C130.067 54.1707 130.463 54.728 131.05 55.124C131.636 55.5347 132.384 55.74 133.294 55.74C134.291 55.74 135.112 55.432 135.758 54.816C136.403 54.2 136.726 53.3053 136.726 52.132V49.184C136.403 50.0787 135.853 50.7973 135.076 51.34C134.298 51.8827 133.36 52.154 132.26 52.154C131.204 52.154 130.258 51.9047 129.422 51.406C128.6 50.9073 127.955 50.1887 127.486 49.25C127.016 48.3113 126.782 47.204 126.782 45.928C126.782 44.6667 127.016 43.5667 127.486 42.628C127.955 41.6893 128.6 40.9707 129.422 40.472C130.258 39.9733 131.204 39.724 132.26 39.724ZM133.03 41.924C131.915 41.924 131.02 42.2833 130.346 43.002C129.686 43.706 129.356 44.6813 129.356 45.928C129.356 47.1747 129.686 48.1573 130.346 48.876C131.02 49.58 131.915 49.932 133.03 49.932C133.734 49.932 134.364 49.7707 134.922 49.448C135.479 49.1107 135.919 48.6413 136.242 48.04C136.564 47.4387 136.726 46.7347 136.726 45.928C136.726 45.136 136.564 44.4393 136.242 43.838C135.919 43.222 135.479 42.7527 134.922 42.43C134.364 42.0927 133.734 41.924 133.03 41.924Z" fill="white"/>
</svg>
