<svg width="1231" height="161" viewBox="0 0 1231 161" fill="none" xmlns="http://www.w3.org/2000/svg">
<g filter="url(#filter0_d_79_6884)">
<rect x="1033" y="88" width="188" height="42" rx="21" fill="#DFF314" shape-rendering="crispEdges"/>
<path d="M1059.95 114V104.2H1062.08L1065.2 110.416L1068.28 104.2H1070.41V114H1068.62V107.238L1065.89 112.6H1064.47L1061.74 107.238V114H1059.95ZM1077.32 114.168C1076.34 114.168 1075.48 113.953 1074.75 113.524C1074.02 113.095 1073.45 112.502 1073.03 111.746C1072.61 110.981 1072.41 110.099 1072.41 109.1C1072.41 108.101 1072.61 107.224 1073.03 106.468C1073.45 105.703 1074.02 105.105 1074.75 104.676C1075.48 104.247 1076.34 104.032 1077.32 104.032C1078.29 104.032 1079.15 104.247 1079.89 104.676C1080.62 105.105 1081.2 105.703 1081.61 106.468C1082.02 107.224 1082.22 108.101 1082.22 109.1C1082.22 110.099 1082.02 110.981 1081.61 111.746C1081.2 112.502 1080.62 113.095 1079.89 113.524C1079.15 113.953 1078.29 114.168 1077.32 114.168ZM1077.32 112.558C1078.26 112.558 1079 112.25 1079.55 111.634C1080.11 111.018 1080.39 110.173 1080.39 109.1C1080.39 108.027 1080.11 107.182 1079.55 106.566C1079 105.95 1078.26 105.642 1077.32 105.642C1076.39 105.642 1075.64 105.95 1075.08 106.566C1074.52 107.182 1074.24 108.027 1074.24 109.1C1074.24 110.173 1074.52 111.018 1075.08 111.634C1075.64 112.25 1076.39 112.558 1077.32 112.558ZM1084.23 114V104.2H1087.82C1088.61 104.2 1089.25 104.335 1089.76 104.606C1090.27 104.867 1090.65 105.227 1090.9 105.684C1091.16 106.132 1091.28 106.631 1091.28 107.182C1091.28 107.779 1091.12 108.325 1090.81 108.82C1090.5 109.315 1090.01 109.674 1089.35 109.898L1091.38 114H1089.32L1087.5 110.136H1086.02V114H1084.23ZM1086.02 108.82H1087.71C1088.31 108.82 1088.75 108.675 1089.03 108.386C1089.31 108.097 1089.45 107.714 1089.45 107.238C1089.45 106.771 1089.31 106.398 1089.03 106.118C1088.76 105.838 1088.31 105.698 1087.7 105.698H1086.02V108.82ZM1093.37 114V104.2H1099.77V105.642H1095.16V108.33H1099.35V109.73H1095.16V112.558H1099.77V114H1093.37ZM1108.98 114.168C1108.27 114.168 1107.63 114.047 1107.08 113.804C1106.53 113.552 1106.1 113.197 1105.78 112.74C1105.46 112.273 1105.3 111.709 1105.29 111.046H1107.18C1107.2 111.503 1107.36 111.891 1107.67 112.208C1107.99 112.516 1108.42 112.67 1108.97 112.67C1109.45 112.67 1109.82 112.558 1110.1 112.334C1110.38 112.101 1110.52 111.793 1110.52 111.41C1110.52 111.009 1110.4 110.696 1110.15 110.472C1109.9 110.248 1109.58 110.066 1109.17 109.926C1108.76 109.786 1108.32 109.637 1107.85 109.478C1107.09 109.217 1106.52 108.881 1106.11 108.47C1105.72 108.059 1105.53 107.513 1105.53 106.832C1105.52 106.253 1105.65 105.759 1105.93 105.348C1106.22 104.928 1106.61 104.606 1107.11 104.382C1107.6 104.149 1108.17 104.032 1108.82 104.032C1109.47 104.032 1110.04 104.149 1110.54 104.382C1111.04 104.615 1111.43 104.942 1111.71 105.362C1112 105.782 1112.16 106.281 1112.18 106.86H1110.26C1110.25 106.515 1110.11 106.211 1109.85 105.95C1109.6 105.679 1109.25 105.544 1108.79 105.544C1108.4 105.535 1108.06 105.633 1107.79 105.838C1107.53 106.034 1107.4 106.323 1107.4 106.706C1107.4 107.033 1107.5 107.294 1107.71 107.49C1107.92 107.677 1108.2 107.835 1108.55 107.966C1108.9 108.097 1109.31 108.237 1109.77 108.386C1110.25 108.554 1110.7 108.75 1111.1 108.974C1111.5 109.198 1111.82 109.497 1112.06 109.87C1112.31 110.234 1112.43 110.705 1112.43 111.284C1112.43 111.797 1112.3 112.273 1112.04 112.712C1111.77 113.151 1111.39 113.505 1110.87 113.776C1110.36 114.037 1109.73 114.168 1108.98 114.168ZM1114.41 114V104.2H1120.81V105.642H1116.2V108.33H1120.39V109.73H1116.2V112.558H1120.81V114H1114.41ZM1122.93 114V104.2H1126.52C1127.31 104.2 1127.95 104.335 1128.46 104.606C1128.97 104.867 1129.35 105.227 1129.6 105.684C1129.86 106.132 1129.98 106.631 1129.98 107.182C1129.98 107.779 1129.82 108.325 1129.51 108.82C1129.2 109.315 1128.71 109.674 1128.05 109.898L1130.08 114H1128.02L1126.2 110.136H1124.72V114H1122.93ZM1124.72 108.82H1126.41C1127.01 108.82 1127.45 108.675 1127.73 108.386C1128.01 108.097 1128.15 107.714 1128.15 107.238C1128.15 106.771 1128.01 106.398 1127.73 106.118C1127.46 105.838 1127.01 105.698 1126.4 105.698H1124.72V108.82ZM1134.57 114L1130.98 104.2H1132.9L1135.67 112.166L1138.46 104.2H1140.35L1136.77 114H1134.57ZM1141.94 114V104.2H1143.73V114H1141.94ZM1150.48 114.168C1149.5 114.168 1148.65 113.958 1147.94 113.538C1147.23 113.109 1146.68 112.516 1146.3 111.76C1145.92 110.995 1145.72 110.113 1145.72 109.114C1145.72 108.115 1145.92 107.233 1146.3 106.468C1146.68 105.703 1147.23 105.105 1147.94 104.676C1148.65 104.247 1149.5 104.032 1150.48 104.032C1151.66 104.032 1152.62 104.326 1153.37 104.914C1154.12 105.493 1154.6 106.309 1154.78 107.364H1152.81C1152.69 106.832 1152.43 106.417 1152.02 106.118C1151.63 105.81 1151.11 105.656 1150.46 105.656C1149.55 105.656 1148.84 105.964 1148.33 106.58C1147.82 107.196 1147.56 108.041 1147.56 109.114C1147.56 110.187 1147.82 111.032 1148.33 111.648C1148.84 112.255 1149.55 112.558 1150.46 112.558C1151.11 112.558 1151.63 112.418 1152.02 112.138C1152.43 111.849 1152.69 111.452 1152.81 110.948H1154.78C1154.6 111.956 1154.12 112.745 1153.37 113.314C1152.62 113.883 1151.66 114.168 1150.48 114.168ZM1156.79 114V104.2H1163.19V105.642H1158.58V108.33H1162.77V109.73H1158.58V112.558H1163.19V114H1156.79ZM1168.65 114.168C1167.93 114.168 1167.3 114.047 1166.74 113.804C1166.19 113.552 1165.76 113.197 1165.44 112.74C1165.13 112.273 1164.96 111.709 1164.95 111.046H1166.84C1166.86 111.503 1167.02 111.891 1167.33 112.208C1167.65 112.516 1168.08 112.67 1168.63 112.67C1169.11 112.67 1169.49 112.558 1169.77 112.334C1170.05 112.101 1170.19 111.793 1170.19 111.41C1170.19 111.009 1170.06 110.696 1169.81 110.472C1169.57 110.248 1169.24 110.066 1168.83 109.926C1168.42 109.786 1167.98 109.637 1167.51 109.478C1166.76 109.217 1166.18 108.881 1165.78 108.47C1165.39 108.059 1165.19 107.513 1165.19 106.832C1165.18 106.253 1165.32 105.759 1165.6 105.348C1165.89 104.928 1166.28 104.606 1166.77 104.382C1167.27 104.149 1167.84 104.032 1168.48 104.032C1169.13 104.032 1169.71 104.149 1170.2 104.382C1170.71 104.615 1171.1 104.942 1171.38 105.362C1171.67 105.782 1171.82 106.281 1171.84 106.86H1169.92C1169.91 106.515 1169.78 106.211 1169.52 105.95C1169.26 105.679 1168.91 105.544 1168.45 105.544C1168.06 105.535 1167.73 105.633 1167.46 105.838C1167.2 106.034 1167.07 106.323 1167.07 106.706C1167.07 107.033 1167.17 107.294 1167.37 107.49C1167.58 107.677 1167.86 107.835 1168.21 107.966C1168.57 108.097 1168.98 108.237 1169.43 108.386C1169.92 108.554 1170.36 108.75 1170.76 108.974C1171.16 109.198 1171.49 109.497 1171.73 109.87C1171.97 110.234 1172.09 110.705 1172.09 111.284C1172.09 111.797 1171.96 112.273 1171.7 112.712C1171.44 113.151 1171.05 113.505 1170.54 113.776C1170.03 114.037 1169.4 114.168 1168.65 114.168Z" fill="#181818"/>
<circle cx="1198" cy="109" r="3" fill="#181818"/>
</g>
<path d="M34.668 70.584L28.332 96H23.292L17.928 76.344L12.564 96H7.524L1.188 70.584H5.688L10.08 91.248L15.66 70.584H20.196L25.776 91.248L30.168 70.584H34.668ZM48.7114 75.84C51.0154 75.84 52.8634 76.584 54.2554 78.072C55.6474 79.56 56.3434 81.684 56.3434 84.444V96H52.2394V84.876C52.2394 83.1 51.7834 81.732 50.8714 80.772C49.9594 79.788 48.7114 79.296 47.1274 79.296C45.4954 79.296 44.1874 79.824 43.2034 80.88C42.2194 81.912 41.7274 83.436 41.7274 85.452V96H37.6234V69.36H41.7274V80.52C42.2554 79.032 43.1434 77.88 44.3914 77.064C45.6394 76.248 47.0794 75.84 48.7114 75.84ZM68.3789 75.912C70.1789 75.912 71.7149 76.356 72.9869 77.244C74.2589 78.132 75.1589 79.308 75.6869 80.772V76.164H79.7909V96H75.6869V91.392C75.1589 92.856 74.2589 94.032 72.9869 94.92C71.7149 95.808 70.1789 96.252 68.3789 96.252C66.6509 96.252 65.1029 95.844 63.7349 95.028C62.3909 94.212 61.3349 93.036 60.5669 91.5C59.7989 89.964 59.4149 88.152 59.4149 86.064C59.4149 84 59.7989 82.2 60.5669 80.664C61.3349 79.128 62.3909 77.952 63.7349 77.136C65.1029 76.32 66.6509 75.912 68.3789 75.912ZM69.6389 79.512C67.8149 79.512 66.3509 80.1 65.2469 81.276C64.1669 82.428 63.6269 84.024 63.6269 86.064C63.6269 88.104 64.1669 89.712 65.2469 90.888C66.3509 92.04 67.8149 92.616 69.6389 92.616C70.7909 92.616 71.8229 92.352 72.7349 91.824C73.6469 91.272 74.3669 90.504 74.8949 89.52C75.4229 88.536 75.6869 87.384 75.6869 86.064C75.6869 84.768 75.4229 83.628 74.8949 82.644C74.3669 81.636 73.6469 80.868 72.7349 80.34C71.8229 79.788 70.7909 79.512 69.6389 79.512ZM93.9679 92.436V96H91.4479C89.3359 96 87.7279 95.496 86.6239 94.488C85.5439 93.456 85.0039 91.752 85.0039 89.376V79.656H82.1599V76.164H85.0039V71.232H89.1439V76.164H93.9319V79.656H89.1439V89.448C89.1439 90.576 89.3479 91.356 89.7559 91.788C90.1879 92.22 90.9319 92.436 91.9879 92.436H93.9679ZM428.837 70.584V73.896H421.745V96H417.605V73.896H410.549V70.584H428.837ZM440.251 75.912C442.171 75.912 443.899 76.32 445.435 77.136C446.971 77.952 448.171 79.128 449.035 80.664C449.899 82.2 450.331 84 450.331 86.064C450.331 88.152 449.899 89.964 449.035 91.5C448.171 93.036 446.971 94.212 445.435 95.028C443.899 95.844 442.171 96.252 440.251 96.252C438.331 96.252 436.603 95.844 435.067 95.028C433.555 94.212 432.355 93.036 431.467 91.5C430.603 89.94 430.171 88.128 430.171 86.064C430.171 84 430.603 82.2 431.467 80.664C432.355 79.128 433.555 77.952 435.067 77.136C436.603 76.32 438.331 75.912 440.251 75.912ZM440.251 79.476C439.195 79.476 438.223 79.716 437.335 80.196C436.447 80.676 435.727 81.42 435.175 82.428C434.647 83.412 434.383 84.624 434.383 86.064C434.383 87.528 434.647 88.752 435.175 89.736C435.727 90.72 436.447 91.452 437.335 91.932C438.223 92.412 439.195 92.652 440.251 92.652C441.307 92.652 442.279 92.412 443.167 91.932C444.055 91.452 444.763 90.72 445.291 89.736C445.843 88.752 446.119 87.528 446.119 86.064C446.119 84.624 445.843 83.412 445.291 82.428C444.763 81.42 444.055 80.676 443.167 80.196C442.279 79.716 441.307 79.476 440.251 79.476ZM28.836 122.98V148H24.696V129.244L17.46 148H13.86L6.588 129.244V148H2.484V122.98H7.452L15.732 142.96L23.868 122.98H28.836ZM35.3931 128.164L41.3331 142.744L46.8411 128.164H51.4131L39.4251 157.432H34.8531L39.1371 147.532L30.7851 128.164H35.3931ZM72.4492 122.332C75.5692 122.332 78.1612 123.124 80.2252 124.708C82.2892 126.292 83.6812 128.44 84.4012 131.152H80.0452C79.4452 129.616 78.4852 128.404 77.1652 127.516C75.8692 126.604 74.2732 126.148 72.3772 126.148C70.8652 126.148 69.5092 126.52 68.3092 127.264C67.1332 128.008 66.1972 129.076 65.5012 130.468C64.8292 131.836 64.4932 133.444 64.4932 135.292C64.4932 137.116 64.8292 138.724 65.5012 140.116C66.1972 141.484 67.1332 142.54 68.3092 143.284C69.5092 144.028 70.8652 144.4 72.3772 144.4C74.2732 144.4 75.8692 143.956 77.1652 143.068C78.4852 142.156 79.4452 140.944 80.0452 139.432H84.4012C83.6812 142.144 82.2892 144.292 80.2252 145.876C78.1612 147.436 75.5692 148.216 72.4492 148.216C70.0492 148.216 67.9252 147.676 66.0772 146.596C64.2292 145.492 62.8012 143.968 61.7932 142.024C60.7852 140.056 60.2812 137.812 60.2812 135.292C60.2812 132.772 60.7852 130.54 61.7932 128.596C62.8012 126.628 64.2292 125.092 66.0772 123.988C67.9252 122.884 70.0492 122.332 72.4492 122.332ZM91.8799 121.36V148H87.7759V121.36H91.8799ZM95.5502 122.404C95.5502 121.708 95.7902 121.132 96.2702 120.676C96.7502 120.22 97.3862 119.992 98.1782 119.992C98.9702 119.992 99.6062 120.22 100.086 120.676C100.59 121.132 100.842 121.708 100.842 122.404C100.842 123.1 100.59 123.664 100.086 124.096C99.6062 124.528 98.9702 124.744 98.1782 124.744C97.3862 124.744 96.7502 124.528 96.2702 124.096C95.7902 123.664 95.5502 123.1 95.5502 122.404ZM100.23 128.164V148H96.1262V128.164H100.23ZM122.909 137.128C122.909 137.8 122.861 138.388 122.765 138.892H107.501C107.573 140.932 108.137 142.444 109.193 143.428C110.249 144.412 111.557 144.904 113.117 144.904C114.485 144.904 115.637 144.556 116.573 143.86C117.533 143.164 118.121 142.24 118.337 141.088H122.729C122.465 142.48 121.913 143.716 121.073 144.796C120.233 145.876 119.141 146.728 117.797 147.352C116.453 147.952 114.953 148.252 113.297 148.252C111.377 148.252 109.673 147.844 108.185 147.028C106.721 146.212 105.569 145.036 104.729 143.5C103.889 141.964 103.469 140.152 103.469 138.064C103.469 136 103.889 134.2 104.729 132.664C105.569 131.128 106.721 129.952 108.185 129.136C109.673 128.32 111.377 127.912 113.297 127.912C115.241 127.912 116.933 128.32 118.373 129.136C119.837 129.928 120.953 131.032 121.721 132.448C122.513 133.84 122.909 135.4 122.909 137.128ZM118.769 137.02C118.817 135.724 118.589 134.644 118.085 133.78C117.605 132.892 116.933 132.244 116.069 131.836C115.229 131.404 114.305 131.188 113.297 131.188C111.689 131.188 110.345 131.68 109.265 132.664C108.185 133.648 107.597 135.1 107.501 137.02H118.769ZM137.239 127.84C139.543 127.84 141.391 128.584 142.783 130.072C144.175 131.56 144.871 133.684 144.871 136.444V148H140.767V136.876C140.767 135.1 140.311 133.732 139.399 132.772C138.487 131.788 137.239 131.296 135.655 131.296C134.023 131.296 132.715 131.824 131.731 132.88C130.747 133.912 130.255 135.436 130.255 137.452V148H126.151V128.164H130.255V132.52C130.783 131.032 131.671 129.88 132.919 129.064C134.167 128.248 135.607 127.84 137.239 127.84ZM158.923 144.436V148H156.403C154.291 148 152.683 147.496 151.579 146.488C150.499 145.456 149.959 143.752 149.959 141.376V131.656H147.115V128.164H149.959V123.232H154.099V128.164H158.887V131.656H154.099V141.448C154.099 142.576 154.303 143.356 154.711 143.788C155.143 144.22 155.887 144.436 156.943 144.436H158.923ZM168.563 127.912C170.891 127.912 172.751 128.512 174.143 129.712C175.559 130.888 176.423 132.472 176.735 134.464H172.847C172.679 133.384 172.211 132.52 171.443 131.872C170.699 131.2 169.703 130.864 168.455 130.864C167.423 130.864 166.619 131.116 166.043 131.62C165.491 132.1 165.215 132.76 165.215 133.6C165.215 134.224 165.419 134.728 165.827 135.112C166.235 135.496 166.739 135.796 167.339 136.012C167.963 136.228 168.839 136.468 169.967 136.732C171.455 137.068 172.655 137.416 173.567 137.776C174.503 138.136 175.295 138.712 175.943 139.504C176.615 140.272 176.951 141.328 176.951 142.672C176.951 144.328 176.315 145.672 175.043 146.704C173.795 147.736 172.103 148.252 169.967 148.252C167.495 148.252 165.491 147.676 163.955 146.524C162.443 145.372 161.531 143.764 161.219 141.7H165.215C165.335 142.78 165.815 143.656 166.655 144.328C167.495 145 168.599 145.336 169.967 145.336C170.951 145.336 171.719 145.084 172.271 144.58C172.847 144.052 173.135 143.392 173.135 142.6C173.135 141.904 172.919 141.352 172.487 140.944C172.055 140.536 171.515 140.224 170.867 140.008C170.219 139.768 169.331 139.528 168.203 139.288C166.763 138.952 165.587 138.616 164.675 138.28C163.787 137.944 163.019 137.404 162.371 136.66C161.747 135.892 161.435 134.86 161.435 133.564C161.435 131.884 162.059 130.528 163.307 129.496C164.579 128.44 166.331 127.912 168.563 127.912ZM192.168 122.584V148H188.064V122.584H192.168ZM207.502 127.84C209.806 127.84 211.654 128.584 213.046 130.072C214.438 131.56 215.134 133.684 215.134 136.444V148H211.03V136.876C211.03 135.1 210.574 133.732 209.662 132.772C208.75 131.788 207.502 131.296 205.918 131.296C204.286 131.296 202.978 131.824 201.994 132.88C201.01 133.912 200.518 135.436 200.518 137.452V148H196.414V128.164H200.518V132.52C201.046 131.032 201.934 129.88 203.182 129.064C204.43 128.248 205.87 127.84 207.502 127.84ZM247.127 122.584V148H242.987V136.588H231.035V148H226.931V122.584H231.035V133.24H242.987V122.584H247.127ZM269.815 137.128C269.815 137.8 269.767 138.388 269.671 138.892H254.407C254.479 140.932 255.043 142.444 256.099 143.428C257.155 144.412 258.463 144.904 260.023 144.904C261.391 144.904 262.543 144.556 263.479 143.86C264.439 143.164 265.027 142.24 265.243 141.088H269.635C269.371 142.48 268.819 143.716 267.979 144.796C267.139 145.876 266.047 146.728 264.703 147.352C263.359 147.952 261.859 148.252 260.203 148.252C258.283 148.252 256.579 147.844 255.091 147.028C253.627 146.212 252.475 145.036 251.635 143.5C250.795 141.964 250.375 140.152 250.375 138.064C250.375 136 250.795 134.2 251.635 132.664C252.475 131.128 253.627 129.952 255.091 129.136C256.579 128.32 258.283 127.912 260.203 127.912C262.147 127.912 263.839 128.32 265.279 129.136C266.743 129.928 267.859 131.032 268.627 132.448C269.419 133.84 269.815 135.4 269.815 137.128ZM265.675 137.02C265.723 135.724 265.495 134.644 264.991 133.78C264.511 132.892 263.839 132.244 262.975 131.836C262.135 131.404 261.211 131.188 260.203 131.188C258.595 131.188 257.251 131.68 256.171 132.664C255.091 133.648 254.503 135.1 254.407 137.02H265.675ZM277.162 132.052C277.834 130.756 278.794 129.736 280.042 128.992C281.29 128.224 282.73 127.84 284.362 127.84V132.304H283.138C281.338 132.304 279.886 132.748 278.782 133.636C277.702 134.5 277.162 135.94 277.162 137.956V148H273.058V128.164H277.162V132.052ZM305.149 137.128C305.149 137.8 305.101 138.388 305.005 138.892H289.741C289.813 140.932 290.377 142.444 291.433 143.428C292.489 144.412 293.797 144.904 295.357 144.904C296.725 144.904 297.877 144.556 298.813 143.86C299.773 143.164 300.361 142.24 300.577 141.088H304.969C304.705 142.48 304.153 143.716 303.313 144.796C302.473 145.876 301.381 146.728 300.037 147.352C298.693 147.952 297.193 148.252 295.537 148.252C293.617 148.252 291.913 147.844 290.425 147.028C288.961 146.212 287.809 145.036 286.969 143.5C286.129 141.964 285.709 140.152 285.709 138.064C285.709 136 286.129 134.2 286.969 132.664C287.809 131.128 288.961 129.952 290.425 129.136C291.913 128.32 293.617 127.912 295.537 127.912C297.481 127.912 299.173 128.32 300.613 129.136C302.077 129.928 303.193 131.032 303.961 132.448C304.753 133.84 305.149 135.4 305.149 137.128ZM301.009 137.02C301.057 135.724 300.829 134.644 300.325 133.78C299.845 132.892 299.173 132.244 298.309 131.836C297.469 131.404 296.545 131.188 295.537 131.188C293.929 131.188 292.585 131.68 291.505 132.664C290.425 133.648 289.837 135.1 289.741 137.02H301.009ZM313.625 150.52H349.625V114.52H313.625V150.52Z" fill="white"/>
<path d="M121.514 89.232C121.514 90.48 121.214 91.644 120.614 92.724C120.014 93.78 119.102 94.632 117.878 95.28C116.654 95.928 115.154 96.252 113.378 96.252C111.65 96.252 110.102 95.952 108.734 95.352C107.366 94.728 106.274 93.864 105.458 92.76C104.642 91.656 104.174 90.384 104.054 88.944H108.446C108.566 90.048 109.034 90.996 109.85 91.788C110.69 92.58 111.806 92.976 113.198 92.976C114.446 92.976 115.406 92.64 116.078 91.968C116.774 91.296 117.122 90.432 117.122 89.376C117.122 88.464 116.87 87.72 116.366 87.144C115.862 86.544 115.238 86.076 114.494 85.74C113.75 85.404 112.73 85.02 111.434 84.588C109.85 84.084 108.554 83.58 107.546 83.076C106.562 82.572 105.722 81.84 105.026 80.88C104.33 79.92 103.982 78.66 103.982 77.1C103.982 75.732 104.318 74.532 104.99 73.5C105.662 72.468 106.622 71.676 107.87 71.124C109.118 70.548 110.558 70.26 112.19 70.26C114.782 70.26 116.834 70.884 118.346 72.132C119.882 73.38 120.758 75.012 120.974 77.028H116.546C116.378 76.068 115.922 75.252 115.178 74.58C114.458 73.884 113.462 73.536 112.19 73.536C111.038 73.536 110.114 73.836 109.418 74.436C108.722 75.012 108.374 75.852 108.374 76.956C108.374 77.82 108.614 78.54 109.094 79.116C109.574 79.668 110.174 80.112 110.894 80.448C111.638 80.76 112.646 81.132 113.918 81.564C115.526 82.068 116.834 82.584 117.842 83.112C118.874 83.616 119.738 84.36 120.434 85.344C121.154 86.328 121.514 87.624 121.514 89.232ZM143.334 85.128C143.334 85.8 143.286 86.388 143.19 86.892H127.926C127.998 88.932 128.562 90.444 129.618 91.428C130.674 92.412 131.982 92.904 133.542 92.904C134.91 92.904 136.062 92.556 136.998 91.86C137.958 91.164 138.546 90.24 138.762 89.088H143.154C142.89 90.48 142.338 91.716 141.498 92.796C140.658 93.876 139.566 94.728 138.222 95.352C136.878 95.952 135.378 96.252 133.722 96.252C131.802 96.252 130.098 95.844 128.61 95.028C127.146 94.212 125.994 93.036 125.154 91.5C124.314 89.964 123.894 88.152 123.894 86.064C123.894 84 124.314 82.2 125.154 80.664C125.994 79.128 127.146 77.952 128.61 77.136C130.098 76.32 131.802 75.912 133.722 75.912C135.666 75.912 137.358 76.32 138.798 77.136C140.262 77.928 141.378 79.032 142.146 80.448C142.938 81.84 143.334 83.4 143.334 85.128ZM139.194 85.02C139.242 83.724 139.014 82.644 138.51 81.78C138.03 80.892 137.358 80.244 136.494 79.836C135.654 79.404 134.73 79.188 133.722 79.188C132.114 79.188 130.77 79.68 129.69 80.664C128.61 81.648 128.022 83.1 127.926 85.02H139.194ZM150.681 80.052C151.353 78.756 152.313 77.736 153.561 76.992C154.809 76.224 156.249 75.84 157.881 75.84V80.304H156.657C154.857 80.304 153.405 80.748 152.301 81.636C151.221 82.5 150.681 83.94 150.681 85.956V96H146.577V76.164H150.681V80.052ZM168.372 91.752L173.988 76.164H178.38L170.82 96H165.852L158.292 76.164H162.684L168.372 91.752ZM180.104 70.404C180.104 69.708 180.344 69.132 180.824 68.676C181.304 68.22 181.94 67.992 182.732 67.992C183.524 67.992 184.16 68.22 184.64 68.676C185.144 69.132 185.396 69.708 185.396 70.404C185.396 71.1 185.144 71.664 184.64 72.096C184.16 72.528 183.524 72.744 182.732 72.744C181.94 72.744 181.304 72.528 180.824 72.096C180.344 71.664 180.104 71.1 180.104 70.404ZM184.784 76.164V96H180.68V76.164H184.784ZM197.85 75.912C200.418 75.912 202.542 76.596 204.222 77.964C205.902 79.308 206.946 81.144 207.354 83.472H202.998C202.758 82.224 202.17 81.252 201.234 80.556C200.322 79.836 199.17 79.476 197.778 79.476C196.194 79.476 194.874 80.04 193.818 81.168C192.762 82.272 192.234 83.904 192.234 86.064C192.234 88.224 192.762 89.868 193.818 90.996C194.874 92.124 196.194 92.688 197.778 92.688C199.17 92.688 200.322 92.328 201.234 91.608C202.17 90.888 202.758 89.904 202.998 88.656H207.354C206.946 90.984 205.902 92.832 204.222 94.2C202.542 95.568 200.418 96.252 197.85 96.252C195.93 96.252 194.226 95.844 192.738 95.028C191.274 94.212 190.122 93.036 189.282 91.5C188.442 89.964 188.022 88.152 188.022 86.064C188.022 84 188.442 82.2 189.282 80.664C190.122 79.128 191.274 77.952 192.738 77.136C194.226 76.32 195.93 75.912 197.85 75.912ZM229.031 85.128C229.031 85.8 228.983 86.388 228.887 86.892H213.623C213.695 88.932 214.259 90.444 215.315 91.428C216.371 92.412 217.679 92.904 219.239 92.904C220.607 92.904 221.759 92.556 222.695 91.86C223.655 91.164 224.243 90.24 224.459 89.088H228.851C228.587 90.48 228.035 91.716 227.195 92.796C226.355 93.876 225.263 94.728 223.919 95.352C222.575 95.952 221.075 96.252 219.419 96.252C217.499 96.252 215.795 95.844 214.307 95.028C212.843 94.212 211.691 93.036 210.851 91.5C210.011 89.964 209.591 88.152 209.591 86.064C209.591 84 210.011 82.2 210.851 80.664C211.691 79.128 212.843 77.952 214.307 77.136C215.795 76.32 217.499 75.912 219.419 75.912C221.363 75.912 223.055 76.32 224.495 77.136C225.959 77.928 227.075 79.032 227.843 80.448C228.635 81.84 229.031 83.4 229.031 85.128ZM224.891 85.02C224.939 83.724 224.711 82.644 224.207 81.78C223.727 80.892 223.055 80.244 222.191 79.836C221.351 79.404 220.427 79.188 219.419 79.188C217.811 79.188 216.467 79.68 215.387 80.664C214.307 81.648 213.719 83.1 213.623 85.02H224.891ZM238.79 75.912C241.118 75.912 242.978 76.512 244.37 77.712C245.786 78.888 246.65 80.472 246.962 82.464H243.074C242.906 81.384 242.438 80.52 241.67 79.872C240.926 79.2 239.93 78.864 238.682 78.864C237.65 78.864 236.846 79.116 236.27 79.62C235.718 80.1 235.442 80.76 235.442 81.6C235.442 82.224 235.646 82.728 236.054 83.112C236.462 83.496 236.966 83.796 237.566 84.012C238.19 84.228 239.066 84.468 240.194 84.732C241.682 85.068 242.882 85.416 243.794 85.776C244.73 86.136 245.522 86.712 246.17 87.504C246.842 88.272 247.178 89.328 247.178 90.672C247.178 92.328 246.542 93.672 245.27 94.704C244.022 95.736 242.33 96.252 240.194 96.252C237.722 96.252 235.718 95.676 234.182 94.524C232.67 93.372 231.758 91.764 231.446 89.7H235.442C235.562 90.78 236.042 91.656 236.882 92.328C237.722 93 238.826 93.336 240.194 93.336C241.178 93.336 241.946 93.084 242.498 92.58C243.074 92.052 243.362 91.392 243.362 90.6C243.362 89.904 243.146 89.352 242.714 88.944C242.282 88.536 241.742 88.224 241.094 88.008C240.446 87.768 239.558 87.528 238.43 87.288C236.99 86.952 235.814 86.616 234.902 86.28C234.014 85.944 233.246 85.404 232.598 84.66C231.974 83.892 231.662 82.86 231.662 81.564C231.662 79.884 232.286 78.528 233.534 77.496C234.806 76.44 236.558 75.912 238.79 75.912ZM262.395 70.584V96H258.291V70.584H262.395ZM278.463 86.136V96H274.359V70.584H282.999C285.927 70.584 288.123 71.28 289.587 72.672C291.075 74.064 291.819 75.972 291.819 78.396C291.819 80.796 291.063 82.692 289.551 84.084C288.039 85.452 285.855 86.136 282.999 86.136H278.463ZM282.567 82.788C285.951 82.788 287.643 81.324 287.643 78.396C287.643 76.956 287.235 75.864 286.419 75.12C285.627 74.352 284.343 73.968 282.567 73.968H278.463V82.788H282.567ZM298.801 80.052C299.473 78.756 300.433 77.736 301.681 76.992C302.929 76.224 304.369 75.84 306.001 75.84V80.304H304.777C302.977 80.304 301.525 80.748 300.421 81.636C299.341 82.5 298.801 83.94 298.801 85.956V96H294.697V76.164H298.801V80.052ZM317.428 75.912C319.348 75.912 321.076 76.32 322.612 77.136C324.148 77.952 325.348 79.128 326.212 80.664C327.076 82.2 327.508 84 327.508 86.064C327.508 88.152 327.076 89.964 326.212 91.5C325.348 93.036 324.148 94.212 322.612 95.028C321.076 95.844 319.348 96.252 317.428 96.252C315.508 96.252 313.78 95.844 312.244 95.028C310.732 94.212 309.532 93.036 308.644 91.5C307.78 89.94 307.348 88.128 307.348 86.064C307.348 84 307.78 82.2 308.644 80.664C309.532 79.128 310.732 77.952 312.244 77.136C313.78 76.32 315.508 75.912 317.428 75.912ZM317.428 79.476C316.372 79.476 315.4 79.716 314.512 80.196C313.624 80.676 312.904 81.42 312.352 82.428C311.824 83.412 311.56 84.624 311.56 86.064C311.56 87.528 311.824 88.752 312.352 89.736C312.904 90.72 313.624 91.452 314.512 91.932C315.4 92.412 316.372 92.652 317.428 92.652C318.484 92.652 319.456 92.412 320.344 91.932C321.232 91.452 321.94 90.72 322.468 89.736C323.02 88.752 323.296 87.528 323.296 86.064C323.296 84.624 323.02 83.412 322.468 82.428C321.94 81.42 321.232 80.676 320.344 80.196C319.456 79.716 318.484 79.476 317.428 79.476ZM338.87 91.752L344.486 76.164H348.878L341.318 96H336.35L328.79 76.164H333.182L338.87 91.752ZM350.602 70.404C350.602 69.708 350.842 69.132 351.322 68.676C351.802 68.22 352.438 67.992 353.23 67.992C354.022 67.992 354.658 68.22 355.138 68.676C355.642 69.132 355.894 69.708 355.894 70.404C355.894 71.1 355.642 71.664 355.138 72.096C354.658 72.528 354.022 72.744 353.23 72.744C352.438 72.744 351.802 72.528 351.322 72.096C350.842 71.664 350.602 71.1 350.602 70.404ZM355.282 76.164V96H351.178V76.164H355.282ZM367.484 75.912C369.284 75.912 370.82 76.356 372.092 77.244C373.364 78.132 374.252 79.308 374.756 80.772V69.36H378.896V96H374.756V91.392C374.252 92.856 373.364 94.032 372.092 94.92C370.82 95.808 369.284 96.252 367.484 96.252C365.756 96.252 364.208 95.844 362.84 95.028C361.496 94.212 360.44 93.036 359.672 91.5C358.904 89.964 358.52 88.152 358.52 86.064C358.52 84 358.904 82.2 359.672 80.664C360.44 79.128 361.496 77.952 362.84 77.136C364.208 76.32 365.756 75.912 367.484 75.912ZM368.744 79.512C366.92 79.512 365.456 80.1 364.352 81.276C363.272 82.428 362.732 84.024 362.732 86.064C362.732 88.104 363.272 89.712 364.352 90.888C365.456 92.04 366.92 92.616 368.744 92.616C369.896 92.616 370.928 92.352 371.84 91.824C372.752 91.272 373.472 90.504 374 89.52C374.528 88.536 374.792 87.384 374.792 86.064C374.792 84.768 374.528 83.628 374 82.644C373.472 81.636 372.752 80.868 371.84 80.34C370.928 79.788 369.896 79.512 368.744 79.512ZM401.533 85.128C401.533 85.8 401.485 86.388 401.389 86.892H386.125C386.197 88.932 386.761 90.444 387.817 91.428C388.873 92.412 390.181 92.904 391.741 92.904C393.109 92.904 394.261 92.556 395.197 91.86C396.157 91.164 396.745 90.24 396.961 89.088H401.353C401.089 90.48 400.537 91.716 399.697 92.796C398.857 93.876 397.765 94.728 396.421 95.352C395.077 95.952 393.577 96.252 391.921 96.252C390.001 96.252 388.297 95.844 386.809 95.028C385.345 94.212 384.193 93.036 383.353 91.5C382.513 89.964 382.093 88.152 382.093 86.064C382.093 84 382.513 82.2 383.353 80.664C384.193 79.128 385.345 77.952 386.809 77.136C388.297 76.32 390.001 75.912 391.921 75.912C393.865 75.912 395.557 76.32 396.997 77.136C398.461 77.928 399.577 79.032 400.345 80.448C401.137 81.84 401.533 83.4 401.533 85.128ZM397.393 85.02C397.441 83.724 397.213 82.644 396.709 81.78C396.229 80.892 395.557 80.244 394.693 79.836C393.853 79.404 392.929 79.188 391.921 79.188C390.313 79.188 388.969 79.68 387.889 80.664C386.809 81.648 386.221 83.1 386.125 85.02H397.393Z" fill="#DFF314"/>
<rect x="0.75" y="0.75" width="172.5" height="30.5" rx="15.25" stroke="#999999" stroke-width="1.5"/>
<path d="M21 9.07778V9C21 12.8111 17.9667 16 14.0778 16H14C17.8889 16 21 19.1111 21 23C21 19.0333 24.0333 16 28 16C24.1889 16 21 12.9667 21 9.07778Z" fill="#999999"/>
<path d="M34.888 20V11.6H36.304L39.1 17.288L41.884 11.6H43.3V20H42.1V13.712L39.556 18.848H38.632L36.088 13.736V20H34.888ZM47.5433 20V16.88L44.7833 11.6H46.1393L48.2393 15.896H48.0593L50.1593 11.6H51.5033L48.7433 16.88V20H47.5433ZM59.1769 20.144C58.5689 20.144 58.0329 20.036 57.5689 19.82C57.1049 19.596 56.7449 19.284 56.4889 18.884C56.2329 18.484 56.1009 18.016 56.0929 17.48H57.3649C57.3649 17.784 57.4329 18.064 57.5689 18.32C57.7129 18.568 57.9169 18.768 58.1809 18.92C58.4529 19.064 58.7849 19.136 59.1769 19.136C59.5129 19.136 59.8009 19.08 60.0409 18.968C60.2889 18.856 60.4769 18.704 60.6049 18.512C60.7329 18.312 60.7969 18.084 60.7969 17.828C60.7969 17.54 60.7329 17.304 60.6049 17.12C60.4769 16.928 60.2969 16.768 60.0649 16.64C59.8409 16.512 59.5809 16.4 59.2849 16.304C58.9969 16.208 58.6849 16.104 58.3489 15.992C57.6689 15.768 57.1649 15.484 56.8369 15.14C56.5169 14.796 56.3569 14.348 56.3569 13.796C56.3569 13.324 56.4649 12.916 56.6809 12.572C56.9049 12.22 57.2209 11.948 57.6289 11.756C58.0369 11.556 58.5129 11.456 59.0569 11.456C59.6089 11.456 60.0849 11.556 60.4849 11.756C60.8929 11.956 61.2129 12.232 61.4449 12.584C61.6769 12.936 61.7969 13.348 61.8049 13.82H60.5329C60.5329 13.604 60.4729 13.392 60.3529 13.184C60.2409 12.976 60.0729 12.808 59.8489 12.68C59.6329 12.544 59.3609 12.476 59.0329 12.476C58.7529 12.468 58.5049 12.512 58.2889 12.608C58.0729 12.704 57.9049 12.844 57.7849 13.028C57.6649 13.212 57.6049 13.432 57.6049 13.688C57.6049 13.944 57.6609 14.152 57.7729 14.312C57.8849 14.464 58.0409 14.596 58.2409 14.708C58.4489 14.82 58.6929 14.924 58.9729 15.02C59.2529 15.108 59.5609 15.208 59.8969 15.32C60.3049 15.456 60.6729 15.624 61.0009 15.824C61.3289 16.016 61.5849 16.268 61.7689 16.58C61.9609 16.884 62.0569 17.276 62.0569 17.756C62.0569 18.172 61.9489 18.56 61.7329 18.92C61.5169 19.28 61.1969 19.576 60.7729 19.808C60.3489 20.032 59.8169 20.144 59.1769 20.144ZM63.8671 20V11.6H66.7231C67.3951 11.6 67.9471 11.712 68.3791 11.936C68.8191 12.16 69.1431 12.464 69.3511 12.848C69.5591 13.224 69.6631 13.656 69.6631 14.144C69.6631 14.608 69.5591 15.032 69.3511 15.416C69.1431 15.8 68.8231 16.108 68.3911 16.34C67.9591 16.564 67.4031 16.676 66.7231 16.676H65.0671V20H63.8671ZM65.0671 15.68H66.6751C67.3151 15.68 67.7671 15.54 68.0311 15.26C68.3031 14.98 68.4391 14.608 68.4391 14.144C68.4391 13.656 68.3031 13.276 68.0311 13.004C67.7671 12.732 67.3151 12.596 66.6751 12.596H65.0671V15.68ZM71.3403 20V11.6H76.6443V12.584H72.5403V15.272H76.2843V16.232H72.5403V19.016H76.6443V20H71.3403ZM82.2273 20.144C81.4113 20.144 80.7073 19.964 80.1152 19.604C79.5232 19.236 79.0672 18.728 78.7472 18.08C78.4272 17.424 78.2672 16.664 78.2672 15.8C78.2672 14.944 78.4272 14.188 78.7472 13.532C79.0672 12.876 79.5232 12.368 80.1152 12.008C80.7073 11.64 81.4113 11.456 82.2273 11.456C83.2032 11.456 83.9952 11.692 84.6033 12.164C85.2113 12.636 85.5993 13.3 85.7673 14.156H84.4592C84.3313 13.66 84.0833 13.264 83.7153 12.968C83.3473 12.672 82.8473 12.524 82.2152 12.524C81.6633 12.524 81.1793 12.656 80.7632 12.92C80.3553 13.184 80.0392 13.56 79.8152 14.048C79.5992 14.536 79.4912 15.12 79.4912 15.8C79.4912 16.48 79.5992 17.068 79.8152 17.564C80.0392 18.052 80.3553 18.428 80.7632 18.692C81.1793 18.948 81.6633 19.076 82.2152 19.076C82.8473 19.076 83.3473 18.936 83.7153 18.656C84.0833 18.368 84.3313 17.98 84.4592 17.492H85.7673C85.5993 18.324 85.2113 18.976 84.6033 19.448C83.9952 19.912 83.2032 20.144 82.2273 20.144ZM87.5877 20V11.6H88.7877V20H87.5877ZM90.3723 20L93.4683 11.6H94.7763L97.8483 20H96.5763L94.1043 13.04L91.6323 20H90.3723ZM91.7763 17.924L92.1003 16.964H96.0603L96.3843 17.924H91.7763ZM99.4288 20V11.6H100.629V19.052H104.469V20H99.4288ZM106.258 20V11.6H107.458V20H106.258ZM109.27 20V19.064L113.422 12.62H109.318V11.6H114.814V12.536L110.65 18.98H114.85V20H109.27ZM116.105 20L119.201 11.6H120.509L123.581 20H122.309L119.837 13.04L117.365 20H116.105ZM117.509 17.924L117.833 16.964H121.793L122.117 17.924H117.509ZM126.192 20V12.584H123.696V11.6H129.876V12.584H127.392V20H126.192ZM131.487 20V11.6H132.687V20H131.487ZM138.531 20.144C137.739 20.144 137.039 19.964 136.431 19.604C135.831 19.236 135.359 18.728 135.015 18.08C134.679 17.424 134.511 16.664 134.511 15.8C134.511 14.944 134.679 14.192 135.015 13.544C135.359 12.888 135.831 12.376 136.431 12.008C137.039 11.64 137.739 11.456 138.531 11.456C139.339 11.456 140.043 11.64 140.643 12.008C141.251 12.376 141.723 12.888 142.059 13.544C142.395 14.192 142.563 14.944 142.563 15.8C142.563 16.664 142.395 17.424 142.059 18.08C141.723 18.728 141.251 19.236 140.643 19.604C140.043 19.964 139.339 20.144 138.531 20.144ZM138.531 19.076C139.099 19.076 139.591 18.944 140.007 18.68C140.431 18.416 140.759 18.04 140.991 17.552C141.223 17.064 141.339 16.48 141.339 15.8C141.339 15.12 141.223 14.536 140.991 14.048C140.759 13.56 140.431 13.188 140.007 12.932C139.591 12.668 139.099 12.536 138.531 12.536C137.971 12.536 137.479 12.668 137.055 12.932C136.639 13.188 136.315 13.56 136.083 14.048C135.851 14.536 135.735 15.12 135.735 15.8C135.735 16.48 135.851 17.064 136.083 17.552C136.315 18.04 136.639 18.416 137.055 18.68C137.479 18.944 137.971 19.076 138.531 19.076ZM144.371 20V11.6H145.571L149.855 18.044V11.6H151.055V20H149.855L145.571 13.556V20H144.371ZM155.94 20.144C155.332 20.144 154.796 20.036 154.332 19.82C153.868 19.596 153.508 19.284 153.252 18.884C152.996 18.484 152.864 18.016 152.856 17.48H154.128C154.128 17.784 154.196 18.064 154.332 18.32C154.476 18.568 154.68 18.768 154.944 18.92C155.216 19.064 155.548 19.136 155.94 19.136C156.276 19.136 156.564 19.08 156.804 18.968C157.052 18.856 157.24 18.704 157.368 18.512C157.496 18.312 157.56 18.084 157.56 17.828C157.56 17.54 157.496 17.304 157.368 17.12C157.24 16.928 157.06 16.768 156.828 16.64C156.604 16.512 156.344 16.4 156.048 16.304C155.76 16.208 155.448 16.104 155.112 15.992C154.432 15.768 153.928 15.484 153.6 15.14C153.28 14.796 153.12 14.348 153.12 13.796C153.12 13.324 153.228 12.916 153.444 12.572C153.668 12.22 153.984 11.948 154.392 11.756C154.8 11.556 155.276 11.456 155.82 11.456C156.372 11.456 156.848 11.556 157.248 11.756C157.656 11.956 157.976 12.232 158.208 12.584C158.44 12.936 158.56 13.348 158.568 13.82H157.296C157.296 13.604 157.236 13.392 157.116 13.184C157.004 12.976 156.836 12.808 156.612 12.68C156.396 12.544 156.124 12.476 155.796 12.476C155.516 12.468 155.268 12.512 155.052 12.608C154.836 12.704 154.668 12.844 154.548 13.028C154.428 13.212 154.368 13.432 154.368 13.688C154.368 13.944 154.424 14.152 154.536 14.312C154.648 14.464 154.804 14.596 155.004 14.708C155.212 14.82 155.456 14.924 155.736 15.02C156.016 15.108 156.324 15.208 156.66 15.32C157.068 15.456 157.436 15.624 157.764 15.824C158.092 16.016 158.348 16.268 158.532 16.58C158.724 16.884 158.82 17.276 158.82 17.756C158.82 18.172 158.712 18.56 158.496 18.92C158.28 19.28 157.96 19.576 157.536 19.808C157.112 20.032 156.58 20.144 155.94 20.144Z" fill="#999999"/>
<defs>
<filter id="filter0_d_79_6884" x="1023" y="83" width="208" height="62" filterUnits="userSpaceOnUse" color-interpolation-filters="sRGB">
<feFlood flood-opacity="0" result="BackgroundImageFix"/>
<feColorMatrix in="SourceAlpha" type="matrix" values="0 0 0 0 0 0 0 0 0 0 0 0 0 0 0 0 0 0 127 0" result="hardAlpha"/>
<feOffset dy="5"/>
<feGaussianBlur stdDeviation="5"/>
<feComposite in2="hardAlpha" operator="out"/>
<feColorMatrix type="matrix" values="0 0 0 0 0.0627451 0 0 0 0 0.0627451 0 0 0 0 0.0627451 0 0 0 0.25 0"/>
<feBlend mode="normal" in2="BackgroundImageFix" result="effect1_dropShadow_79_6884"/>
<feBlend mode="normal" in="SourceGraphic" in2="effect1_dropShadow_79_6884" result="shape"/>
</filter>
</defs>
</svg>
