<svg width="208" height="62" viewBox="0 0 208 62" fill="none" xmlns="http://www.w3.org/2000/svg">
<g filter="url(#filter0_d_79_7011)">
<rect x="10" y="5" width="188" height="42" rx="21" fill="#DFF314" shape-rendering="crispEdges"/>
<path d="M36.952 31V21.2H39.08L42.202 27.416L45.282 21.2H47.41V31H45.618V24.238L42.888 29.6H41.474L38.744 24.238V31H36.952ZM54.3234 31.168C53.3434 31.168 52.4847 30.9533 51.7474 30.524C51.0194 30.0947 50.4454 29.502 50.0254 28.746C49.6147 27.9807 49.4094 27.0987 49.4094 26.1C49.4094 25.1013 49.6147 24.224 50.0254 23.468C50.4454 22.7027 51.0194 22.1053 51.7474 21.676C52.4847 21.2467 53.3434 21.032 54.3234 21.032C55.294 21.032 56.148 21.2467 56.8854 21.676C57.6227 22.1053 58.1967 22.7027 58.6074 23.468C59.018 24.224 59.2234 25.1013 59.2234 26.1C59.2234 27.0987 59.018 27.9807 58.6074 28.746C58.1967 29.502 57.6227 30.0947 56.8854 30.524C56.148 30.9533 55.294 31.168 54.3234 31.168ZM54.3234 29.558C55.2567 29.558 55.9987 29.25 56.5494 28.634C57.1094 28.018 57.3894 27.1733 57.3894 26.1C57.3894 25.0267 57.1094 24.182 56.5494 23.566C55.9987 22.95 55.2567 22.642 54.3234 22.642C53.39 22.642 52.6434 22.95 52.0834 23.566C51.5234 24.182 51.2434 25.0267 51.2434 26.1C51.2434 27.1733 51.5234 28.018 52.0834 28.634C52.6434 29.25 53.39 29.558 54.3234 29.558ZM61.2256 31V21.2H64.8236C65.6076 21.2 66.2516 21.3353 66.7556 21.606C67.2689 21.8673 67.6516 22.2267 67.9036 22.684C68.1556 23.132 68.2816 23.6313 68.2816 24.182C68.2816 24.7793 68.1229 25.3253 67.8056 25.82C67.4976 26.3147 67.0123 26.674 66.3496 26.898L68.3796 31H66.3216L64.5016 27.136H63.0176V31H61.2256ZM63.0176 25.82H64.7116C65.3089 25.82 65.7476 25.6753 66.0276 25.386C66.3076 25.0967 66.4476 24.714 66.4476 24.238C66.4476 23.7713 66.3076 23.398 66.0276 23.118C65.7569 22.838 65.3136 22.698 64.6976 22.698H63.0176V25.82ZM70.3682 31V21.2H76.7662V22.642H72.1602V25.33H76.3462V26.73H72.1602V29.558H76.7662V31H70.3682ZM85.9839 31.168C85.2653 31.168 84.6306 31.0467 84.0799 30.804C83.5293 30.552 83.0953 30.1973 82.7779 29.74C82.4606 29.2733 82.2973 28.7087 82.2879 28.046H84.1779C84.1966 28.5033 84.3599 28.8907 84.6679 29.208C84.9853 29.516 85.4193 29.67 85.9699 29.67C86.4459 29.67 86.8239 29.558 87.1039 29.334C87.3839 29.1007 87.5239 28.7927 87.5239 28.41C87.5239 28.0087 87.3979 27.696 87.1459 27.472C86.9033 27.248 86.5766 27.066 86.1659 26.926C85.7553 26.786 85.3166 26.6367 84.8499 26.478C84.0939 26.2167 83.5153 25.8807 83.1139 25.47C82.7219 25.0593 82.5259 24.5133 82.5259 23.832C82.5166 23.2533 82.6519 22.7587 82.9319 22.348C83.2213 21.928 83.6133 21.606 84.1079 21.382C84.6026 21.1487 85.1719 21.032 85.8159 21.032C86.4693 21.032 87.0433 21.1487 87.5379 21.382C88.0419 21.6153 88.4339 21.942 88.7139 22.362C89.0033 22.782 89.1573 23.2813 89.1759 23.86H87.2579C87.2486 23.5147 87.1133 23.2113 86.8519 22.95C86.5999 22.6793 86.2453 22.544 85.7879 22.544C85.3959 22.5347 85.0646 22.6327 84.7939 22.838C84.5326 23.034 84.4019 23.3233 84.4019 23.706C84.4019 24.0327 84.5046 24.294 84.7099 24.49C84.9153 24.6767 85.1953 24.8353 85.5499 24.966C85.9046 25.0967 86.3106 25.2367 86.7679 25.386C87.2533 25.554 87.6966 25.75 88.0979 25.974C88.4993 26.198 88.8213 26.4967 89.0639 26.87C89.3066 27.234 89.4279 27.7053 89.4279 28.284C89.4279 28.7973 89.2973 29.2733 89.0359 29.712C88.7746 30.1507 88.3873 30.5053 87.8739 30.776C87.3606 31.0373 86.7306 31.168 85.9839 31.168ZM91.4115 31V21.2H97.8095V22.642H93.2035V25.33H97.3895V26.73H93.2035V29.558H97.8095V31H91.4115ZM99.9252 31V21.2H103.523C104.307 21.2 104.951 21.3353 105.455 21.606C105.969 21.8673 106.351 22.2267 106.603 22.684C106.855 23.132 106.981 23.6313 106.981 24.182C106.981 24.7793 106.823 25.3253 106.505 25.82C106.197 26.3147 105.712 26.674 105.049 26.898L107.079 31H105.021L103.201 27.136H101.717V31H99.9252ZM101.717 25.82H103.411C104.009 25.82 104.447 25.6753 104.727 25.386C105.007 25.0967 105.147 24.714 105.147 24.238C105.147 23.7713 105.007 23.398 104.727 23.118C104.457 22.838 104.013 22.698 103.397 22.698H101.717V25.82ZM111.568 31L107.984 21.2H109.902L112.674 29.166L115.46 21.2H117.35L113.766 31H111.568ZM118.935 31V21.2H120.727V31H118.935ZM127.485 31.168C126.495 31.168 125.646 30.958 124.937 30.538C124.227 30.1087 123.681 29.516 123.299 28.76C122.916 27.9947 122.725 27.1127 122.725 26.114C122.725 25.1153 122.916 24.2333 123.299 23.468C123.681 22.7027 124.227 22.1053 124.937 21.676C125.646 21.2467 126.495 21.032 127.485 21.032C128.661 21.032 129.622 21.326 130.369 21.914C131.125 22.4927 131.596 23.3093 131.783 24.364H129.809C129.687 23.832 129.426 23.4167 129.025 23.118C128.633 22.81 128.11 22.656 127.457 22.656C126.551 22.656 125.842 22.964 125.329 23.58C124.815 24.196 124.559 25.0407 124.559 26.114C124.559 27.1873 124.815 28.032 125.329 28.648C125.842 29.2547 126.551 29.558 127.457 29.558C128.11 29.558 128.633 29.418 129.025 29.138C129.426 28.8487 129.687 28.452 129.809 27.948H131.783C131.596 28.956 131.125 29.7447 130.369 30.314C129.622 30.8833 128.661 31.168 127.485 31.168ZM133.789 31V21.2H140.187V22.642H135.581V25.33H139.767V26.73H135.581V29.558H140.187V31H133.789ZM145.649 31.168C144.93 31.168 144.295 31.0467 143.745 30.804C143.194 30.552 142.76 30.1973 142.443 29.74C142.125 29.2733 141.962 28.7087 141.953 28.046H143.843C143.861 28.5033 144.025 28.8907 144.333 29.208C144.65 29.516 145.084 29.67 145.635 29.67C146.111 29.67 146.489 29.558 146.769 29.334C147.049 29.1007 147.189 28.7927 147.189 28.41C147.189 28.0087 147.063 27.696 146.811 27.472C146.568 27.248 146.241 27.066 145.831 26.926C145.42 26.786 144.981 26.6367 144.515 26.478C143.759 26.2167 143.18 25.8807 142.779 25.47C142.387 25.0593 142.191 24.5133 142.191 23.832C142.181 23.2533 142.317 22.7587 142.597 22.348C142.886 21.928 143.278 21.606 143.773 21.382C144.267 21.1487 144.837 21.032 145.481 21.032C146.134 21.032 146.708 21.1487 147.203 21.382C147.707 21.6153 148.099 21.942 148.379 22.362C148.668 22.782 148.822 23.2813 148.841 23.86H146.923C146.913 23.5147 146.778 23.2113 146.517 22.95C146.265 22.6793 145.91 22.544 145.453 22.544C145.061 22.5347 144.729 22.6327 144.459 22.838C144.197 23.034 144.067 23.3233 144.067 23.706C144.067 24.0327 144.169 24.294 144.375 24.49C144.58 24.6767 144.86 24.8353 145.215 24.966C145.569 25.0967 145.975 25.2367 146.433 25.386C146.918 25.554 147.361 25.75 147.763 25.974C148.164 26.198 148.486 26.4967 148.729 26.87C148.971 27.234 149.093 27.7053 149.093 28.284C149.093 28.7973 148.962 29.2733 148.701 29.712C148.439 30.1507 148.052 30.5053 147.539 30.776C147.025 31.0373 146.395 31.168 145.649 31.168Z" fill="#181818"/>
<circle cx="175" cy="26" r="3" fill="#181818"/>
</g>
<defs>
<filter id="filter0_d_79_7011" x="0" y="0" width="208" height="62" filterUnits="userSpaceOnUse" color-interpolation-filters="sRGB">
<feFlood flood-opacity="0" result="BackgroundImageFix"/>
<feColorMatrix in="SourceAlpha" type="matrix" values="0 0 0 0 0 0 0 0 0 0 0 0 0 0 0 0 0 0 127 0" result="hardAlpha"/>
<feOffset dy="5"/>
<feGaussianBlur stdDeviation="5"/>
<feComposite in2="hardAlpha" operator="out"/>
<feColorMatrix type="matrix" values="0 0 0 0 0.0627451 0 0 0 0 0.0627451 0 0 0 0 0.0627451 0 0 0 0.25 0"/>
<feBlend mode="normal" in2="BackgroundImageFix" result="effect1_dropShadow_79_7011"/>
<feBlend mode="normal" in="SourceGraphic" in2="effect1_dropShadow_79_7011" result="shape"/>
</filter>
</defs>
</svg>
