<svg width="297" height="50" viewBox="0 0 297 50" fill="none" xmlns="http://www.w3.org/2000/svg">
<path d="M29.1744 50H20.8323C20.6448 50 20.465 49.9255 20.3324 49.7929C20.1998 49.6604 20.1254 49.4805 20.1254 49.293V36.7711L11.2698 45.6327C11.1371 45.7651 10.9575 45.8396 10.7701 45.8399C10.5826 45.8399 10.4027 45.7653 10.2702 45.6327L4.3771 39.733C4.24454 39.6004 4.17008 39.4206 4.17008 39.2331C4.17008 39.0456 4.24454 38.8657 4.3771 38.7332L13.2269 29.8783H0.706906C0.519425 29.8783 0.339597 29.8038 0.207028 29.6712C0.0744594 29.5386 0 29.3588 0 29.1712V20.8288C0 20.6412 0.0744594 20.4614 0.207028 20.3288C0.339597 20.1962 0.519425 20.1217 0.706906 20.1217H13.2269L4.38004 11.2717C4.24748 11.1391 4.17302 10.9592 4.17302 10.7717C4.17302 10.5842 4.24748 10.4045 4.38004 10.2719L10.2731 4.37213C10.4083 4.24423 10.5873 4.17295 10.7734 4.17295C10.9594 4.17295 11.1385 4.24423 11.2737 4.37213L20.1292 13.2289V0.707014C20.1292 0.519505 20.2037 0.339649 20.3363 0.20706C20.4688 0.0744708 20.6487 0 20.8362 0H29.1744C29.3619 0 29.5417 0.0744708 29.6743 0.20706C29.8069 0.339649 29.8813 0.519505 29.8813 0.707014V13.2289L38.7301 4.37601C38.8627 4.24351 39.0425 4.16895 39.2299 4.16883C39.3228 4.16896 39.4148 4.18745 39.5006 4.22315C39.5863 4.25885 39.6641 4.31112 39.7297 4.37695L45.6285 10.2825C45.7611 10.415 45.8356 10.5949 45.8356 10.7824C45.8356 10.9699 45.7611 11.1497 45.6285 11.2822L36.7808 20.1266H49.2931C49.4806 20.1266 49.6604 20.201 49.793 20.3336C49.9255 20.4662 50 20.6461 50 20.8336V29.1761C50 29.3636 49.9255 29.5434 49.793 29.676C49.6604 29.8086 49.4806 29.8831 49.2931 29.8831H36.7798L45.6295 38.7341C45.762 38.8667 45.8365 39.0466 45.8365 39.2341C45.8365 39.4216 45.762 39.6013 45.6295 39.7339L39.7278 45.6375C39.5952 45.77 39.4154 45.8446 39.2279 45.8447C39.0405 45.8446 38.8608 45.77 38.7282 45.6375L29.8823 36.7846V49.3006C29.8802 49.487 29.8047 49.665 29.6722 49.796C29.5396 49.927 29.3607 50.0003 29.1744 50ZM21.5429 48.586H28.4675V35.0691C28.4675 34.9293 28.5089 34.7925 28.5866 34.6763C28.6643 34.56 28.7747 34.4694 28.9039 34.4159C29.0331 34.3624 29.1752 34.3483 29.3123 34.3756C29.4494 34.4029 29.5754 34.4703 29.6743 34.5691L39.2279 44.1301L44.13 39.2272L34.5734 29.6692C34.4745 29.5703 34.4073 29.4444 34.38 29.3073C34.3527 29.1701 34.3667 29.028 34.4202 28.8988C34.4737 28.7696 34.5642 28.6591 34.6805 28.5815C34.7967 28.5038 34.9335 28.4624 35.0733 28.4623H48.5862V21.5377H35.0733C34.9335 21.5376 34.7967 21.4962 34.6805 21.4185C34.5642 21.3409 34.4737 21.2304 34.4202 21.1012C34.3667 20.972 34.3527 20.8299 34.38 20.6927C34.4073 20.5556 34.4745 20.4297 34.5734 20.3308L44.13 10.7785L39.2309 5.87376L29.6743 15.4338C29.5754 15.5327 29.4494 15.5999 29.3123 15.6272C29.1752 15.6545 29.0331 15.6405 28.9039 15.587C28.7747 15.5335 28.6643 15.4429 28.5866 15.3267C28.5089 15.2104 28.4675 15.0737 28.4675 14.9338V1.40639H21.5429V14.93C21.5429 15.0698 21.5015 15.2065 21.4239 15.3228C21.3462 15.4391 21.2358 15.5296 21.1067 15.5831C20.9775 15.6366 20.8354 15.6506 20.6983 15.6233C20.5611 15.5961 20.4351 15.5288 20.3363 15.4299L10.7739 5.86611L5.8805 10.7659L15.4343 20.324C15.5331 20.4229 15.6004 20.5489 15.6276 20.686C15.6549 20.8232 15.6409 20.9653 15.5874 21.0945C15.5339 21.2237 15.4433 21.3342 15.327 21.4118C15.2108 21.4895 15.0742 21.5309 14.9344 21.531H1.41851V28.4594H14.9373C15.0771 28.4594 15.2137 28.5009 15.33 28.5786C15.4462 28.6563 15.5369 28.7667 15.5904 28.8959C15.6439 29.0251 15.6579 29.1672 15.6306 29.3043C15.6033 29.4415 15.5359 29.5675 15.4371 29.6664L5.8805 39.2283L10.7739 44.1272L20.3363 34.5643C20.4351 34.4655 20.5611 34.3982 20.6983 34.3709C20.8354 34.3436 20.9775 34.3576 21.1067 34.4111C21.2358 34.4646 21.3462 34.5552 21.4239 34.6714C21.5015 34.7877 21.5429 34.9245 21.5429 35.0643V48.586Z" fill="#DFF314"/>
<path d="M92.506 20.468V22.492H88.172V36H85.642V22.492H81.33V20.468H92.506ZM100.933 23.68C102.341 23.68 103.471 24.1347 104.321 25.044C105.172 25.9533 105.597 27.2513 105.597 28.938V36H103.089V29.202C103.089 28.1167 102.811 27.2807 102.253 26.694C101.696 26.0927 100.933 25.792 99.9654 25.792C98.968 25.792 98.1687 26.1147 97.5674 26.76C96.966 27.3907 96.6654 28.322 96.6654 29.554V36H94.1574V19.72H96.6654V26.54C96.988 25.6307 97.5307 24.9267 98.2934 24.428C99.056 23.9293 99.936 23.68 100.933 23.68ZM119.574 29.356C119.574 29.7667 119.545 30.126 119.486 30.434H110.158C110.202 31.6807 110.547 32.6047 111.192 33.206C111.838 33.8073 112.637 34.108 113.59 34.108C114.426 34.108 115.13 33.8953 115.702 33.47C116.289 33.0447 116.648 32.48 116.78 31.776H119.464C119.303 32.6267 118.966 33.382 118.452 34.042C117.939 34.702 117.272 35.2227 116.45 35.604C115.629 35.9707 114.712 36.154 113.7 36.154C112.527 36.154 111.486 35.9047 110.576 35.406C109.682 34.9073 108.978 34.1887 108.464 33.25C107.951 32.3113 107.694 31.204 107.694 29.928C107.694 28.6667 107.951 27.5667 108.464 26.628C108.978 25.6893 109.682 24.9707 110.576 24.472C111.486 23.9733 112.527 23.724 113.7 23.724C114.888 23.724 115.922 23.9733 116.802 24.472C117.697 24.956 118.379 25.6307 118.848 26.496C119.332 27.3467 119.574 28.3 119.574 29.356ZM117.044 29.29C117.074 28.498 116.934 27.838 116.626 27.31C116.333 26.7673 115.922 26.3713 115.394 26.122C114.881 25.858 114.316 25.726 113.7 25.726C112.718 25.726 111.896 26.0267 111.236 26.628C110.576 27.2293 110.217 28.1167 110.158 29.29H117.044ZM135.886 20.468V22.492H129.22V27.31H134.72V29.246H129.22V36H126.712V20.468H135.886ZM149.076 23.878V36H146.546V33.36C146.238 34.2547 145.703 34.9513 144.94 35.45C144.178 35.934 143.29 36.176 142.278 36.176C140.87 36.176 139.741 35.7213 138.89 34.812C138.04 33.9027 137.614 32.6047 137.614 30.918V23.878H140.122V30.654C140.122 31.754 140.401 32.6047 140.958 33.206C141.516 33.7927 142.278 34.086 143.246 34.086C144.244 34.086 145.043 33.7633 145.644 33.118C146.246 32.4727 146.546 31.534 146.546 30.302V23.878H149.076ZM154.368 19.72V36H151.86V19.72H154.368ZM159.691 19.72V36H157.183V19.72H159.691ZM169.95 29.972V36H167.442V20.468H172.722C174.512 20.468 175.854 20.8933 176.748 21.744C177.658 22.5947 178.112 23.7607 178.112 25.242C178.112 26.7087 177.65 27.8673 176.726 28.718C175.802 29.554 174.468 29.972 172.722 29.972H169.95ZM172.458 27.926C174.526 27.926 175.56 27.0313 175.56 25.242C175.56 24.362 175.311 23.6947 174.812 23.24C174.328 22.7707 173.544 22.536 172.458 22.536H169.95V27.926H172.458ZM184.953 23.724C186.053 23.724 186.992 23.9953 187.769 24.538C188.547 25.0807 189.097 25.7993 189.419 26.694V23.878H191.927V36H189.419V33.184C189.097 34.0787 188.547 34.7973 187.769 35.34C186.992 35.8827 186.053 36.154 184.953 36.154C183.897 36.154 182.951 35.9047 182.115 35.406C181.294 34.9073 180.649 34.1887 180.179 33.25C179.71 32.3113 179.475 31.204 179.475 29.928C179.475 28.6667 179.71 27.5667 180.179 26.628C180.649 25.6893 181.294 24.9707 182.115 24.472C182.951 23.9733 183.897 23.724 184.953 23.724ZM185.723 25.924C184.609 25.924 183.714 26.2833 183.039 27.002C182.379 27.706 182.049 28.6813 182.049 29.928C182.049 31.1747 182.379 32.1573 183.039 32.876C183.714 33.58 184.609 33.932 185.723 33.932C186.427 33.932 187.058 33.7707 187.615 33.448C188.173 33.1107 188.613 32.6413 188.935 32.04C189.258 31.4387 189.419 30.7347 189.419 29.928C189.419 29.136 189.258 28.4393 188.935 27.838C188.613 27.222 188.173 26.7527 187.615 26.43C187.058 26.0927 186.427 25.924 185.723 25.924ZM200.107 23.724C201.676 23.724 202.974 24.142 204.001 24.978C205.028 25.7993 205.666 26.9213 205.915 28.344H203.253C203.106 27.5813 202.747 26.9873 202.175 26.562C201.618 26.122 200.914 25.902 200.063 25.902C199.095 25.902 198.288 26.2467 197.643 26.936C196.998 27.6107 196.675 28.608 196.675 29.928C196.675 31.248 196.998 32.2527 197.643 32.942C198.288 33.6313 199.095 33.976 200.063 33.976C200.914 33.976 201.618 33.756 202.175 33.316C202.747 32.876 203.106 32.2747 203.253 31.512H205.915C205.666 32.9347 205.028 34.064 204.001 34.9C202.974 35.736 201.676 36.154 200.107 36.154C198.934 36.154 197.892 35.9047 196.983 35.406C196.088 34.9073 195.384 34.1887 194.871 33.25C194.358 32.3113 194.101 31.204 194.101 29.928C194.101 28.6667 194.358 27.5667 194.871 26.628C195.384 25.6893 196.088 24.9707 196.983 24.472C197.892 23.9733 198.934 23.724 200.107 23.724ZM214.982 36L210.626 30.61V36H208.118V19.72H210.626V29.048L214.938 23.878H217.952L212.672 29.906L218.084 36H214.982ZM224.362 23.724C225.462 23.724 226.4 23.9953 227.178 24.538C227.955 25.0807 228.505 25.7993 228.828 26.694V23.878H231.336V36H228.828V33.184C228.505 34.0787 227.955 34.7973 227.178 35.34C226.4 35.8827 225.462 36.154 224.362 36.154C223.306 36.154 222.36 35.9047 221.524 35.406C220.702 34.9073 220.057 34.1887 219.588 33.25C219.118 32.3113 218.884 31.204 218.884 29.928C218.884 28.6667 219.118 27.5667 219.588 26.628C220.057 25.6893 220.702 24.9707 221.524 24.472C222.36 23.9733 223.306 23.724 224.362 23.724ZM225.132 25.924C224.017 25.924 223.122 26.2833 222.448 27.002C221.788 27.706 221.458 28.6813 221.458 29.928C221.458 31.1747 221.788 32.1573 222.448 32.876C223.122 33.58 224.017 33.932 225.132 33.932C225.836 33.932 226.466 33.7707 227.024 33.448C227.581 33.1107 228.021 32.6413 228.344 32.04C228.666 31.4387 228.828 30.7347 228.828 29.928C228.828 29.136 228.666 28.4393 228.344 27.838C228.021 27.222 227.581 26.7527 227.024 26.43C226.466 26.0927 225.836 25.924 225.132 25.924ZM238.987 23.724C240.087 23.724 241.026 23.9953 241.803 24.538C242.581 25.0807 243.131 25.7993 243.453 26.694V23.878H245.961V36.132C245.961 37.2613 245.727 38.2587 245.257 39.124C244.803 40.004 244.143 40.6933 243.277 41.192C242.412 41.6907 241.385 41.94 240.197 41.94C238.496 41.94 237.117 41.5367 236.061 40.73C235.02 39.9233 234.367 38.8307 234.103 37.452H236.589C236.795 38.1707 237.191 38.728 237.777 39.124C238.364 39.5347 239.112 39.74 240.021 39.74C241.019 39.74 241.84 39.432 242.485 38.816C243.131 38.2 243.453 37.3053 243.453 36.132V33.184C243.131 34.0787 242.581 34.7973 241.803 35.34C241.026 35.8827 240.087 36.154 238.987 36.154C237.931 36.154 236.985 35.9047 236.149 35.406C235.328 34.9073 234.683 34.1887 234.213 33.25C233.744 32.3113 233.509 31.204 233.509 29.928C233.509 28.6667 233.744 27.5667 234.213 26.628C234.683 25.6893 235.328 24.9707 236.149 24.472C236.985 23.9733 237.931 23.724 238.987 23.724ZM239.757 25.924C238.643 25.924 237.748 26.2833 237.073 27.002C236.413 27.706 236.083 28.6813 236.083 29.928C236.083 31.1747 236.413 32.1573 237.073 32.876C237.748 33.58 238.643 33.932 239.757 33.932C240.461 33.932 241.092 33.7707 241.649 33.448C242.207 33.1107 242.647 32.6413 242.969 32.04C243.292 31.4387 243.453 30.7347 243.453 29.928C243.453 29.136 243.292 28.4393 242.969 27.838C242.647 27.222 242.207 26.7527 241.649 26.43C241.092 26.0927 240.461 25.924 239.757 25.924ZM260.015 29.356C260.015 29.7667 259.986 30.126 259.927 30.434H250.599C250.643 31.6807 250.988 32.6047 251.633 33.206C252.279 33.8073 253.078 34.108 254.031 34.108C254.867 34.108 255.571 33.8953 256.143 33.47C256.73 33.0447 257.089 32.48 257.221 31.776H259.905C259.744 32.6267 259.407 33.382 258.893 34.042C258.38 34.702 257.713 35.2227 256.891 35.604C256.07 35.9707 255.153 36.154 254.141 36.154C252.968 36.154 251.927 35.9047 251.017 35.406C250.123 34.9073 249.419 34.1887 248.905 33.25C248.392 32.3113 248.135 31.204 248.135 29.928C248.135 28.6667 248.392 27.5667 248.905 26.628C249.419 25.6893 250.123 24.9707 251.017 24.472C251.927 23.9733 252.968 23.724 254.141 23.724C255.329 23.724 256.363 23.9733 257.243 24.472C258.138 24.956 258.82 25.6307 259.289 26.496C259.773 27.3467 260.015 28.3 260.015 29.356ZM257.485 29.29C257.515 28.498 257.375 27.838 257.067 27.31C256.774 26.7673 256.363 26.3713 255.835 26.122C255.322 25.858 254.757 25.726 254.141 25.726C253.159 25.726 252.337 26.0267 251.677 26.628C251.017 27.2293 250.658 28.1167 250.599 29.29H257.485Z" fill="white"/>
</svg>
