<svg width="50" height="50" viewBox="0 0 50 50" fill="none" xmlns="http://www.w3.org/2000/svg">
<path d="M29.1744 50H20.8323C20.6448 50 20.465 49.9255 20.3324 49.7929C20.1998 49.6604 20.1254 49.4805 20.1254 49.293V36.7711L11.2698 45.6327C11.1371 45.7651 10.9575 45.8396 10.7701 45.8399C10.5826 45.8399 10.4027 45.7653 10.2702 45.6327L4.3771 39.733C4.24454 39.6004 4.17008 39.4206 4.17008 39.2331C4.17008 39.0456 4.24454 38.8657 4.3771 38.7332L13.2269 29.8783H0.706906C0.519425 29.8783 0.339597 29.8038 0.207028 29.6712C0.0744594 29.5386 0 29.3588 0 29.1712V20.8288C0 20.6412 0.0744594 20.4614 0.207028 20.3288C0.339597 20.1962 0.519425 20.1217 0.706906 20.1217H13.2269L4.38004 11.2717C4.24748 11.1391 4.17302 10.9592 4.17302 10.7717C4.17302 10.5842 4.24748 10.4045 4.38004 10.2719L10.2731 4.37213C10.4083 4.24423 10.5873 4.17295 10.7734 4.17295C10.9594 4.17295 11.1385 4.24423 11.2737 4.37213L20.1292 13.2289V0.707014C20.1292 0.519505 20.2037 0.339649 20.3363 0.20706C20.4688 0.0744708 20.6487 0 20.8362 0H29.1744C29.3619 0 29.5417 0.0744708 29.6743 0.20706C29.8069 0.339649 29.8813 0.519505 29.8813 0.707014V13.2289L38.7301 4.37601C38.8627 4.24351 39.0425 4.16895 39.2299 4.16883C39.3228 4.16896 39.4148 4.18745 39.5006 4.22315C39.5863 4.25885 39.6641 4.31112 39.7297 4.37695L45.6285 10.2825C45.7611 10.415 45.8356 10.5949 45.8356 10.7824C45.8356 10.9699 45.7611 11.1497 45.6285 11.2822L36.7808 20.1266H49.2931C49.4806 20.1266 49.6604 20.201 49.793 20.3336C49.9255 20.4662 50 20.6461 50 20.8336V29.1761C50 29.3636 49.9255 29.5434 49.793 29.676C49.6604 29.8086 49.4806 29.8831 49.2931 29.8831H36.7798L45.6295 38.7341C45.762 38.8667 45.8365 39.0466 45.8365 39.2341C45.8365 39.4216 45.762 39.6013 45.6295 39.7339L39.7278 45.6375C39.5952 45.77 39.4154 45.8446 39.2279 45.8447C39.0405 45.8446 38.8608 45.77 38.7282 45.6375L29.8823 36.7846V49.3006C29.8802 49.487 29.8047 49.665 29.6722 49.796C29.5396 49.927 29.3607 50.0003 29.1744 50ZM21.5429 48.586H28.4675V35.0691C28.4675 34.9293 28.5089 34.7925 28.5866 34.6763C28.6643 34.56 28.7747 34.4694 28.9039 34.4159C29.0331 34.3624 29.1752 34.3483 29.3123 34.3756C29.4494 34.4029 29.5754 34.4703 29.6743 34.5691L39.2279 44.1301L44.13 39.2272L34.5734 29.6692C34.4745 29.5703 34.4073 29.4444 34.38 29.3073C34.3527 29.1701 34.3667 29.028 34.4202 28.8988C34.4737 28.7696 34.5642 28.6591 34.6805 28.5815C34.7967 28.5038 34.9335 28.4624 35.0733 28.4623H48.5862V21.5377H35.0733C34.9335 21.5376 34.7967 21.4962 34.6805 21.4185C34.5642 21.3409 34.4737 21.2304 34.4202 21.1012C34.3667 20.972 34.3527 20.8299 34.38 20.6927C34.4073 20.5556 34.4745 20.4297 34.5734 20.3308L44.13 10.7785L39.2309 5.87376L29.6743 15.4338C29.5754 15.5327 29.4494 15.5999 29.3123 15.6272C29.1752 15.6545 29.0331 15.6405 28.9039 15.587C28.7747 15.5335 28.6643 15.4429 28.5866 15.3267C28.5089 15.2104 28.4675 15.0737 28.4675 14.9338V1.40639H21.5429V14.93C21.5429 15.0698 21.5015 15.2065 21.4239 15.3228C21.3462 15.4391 21.2358 15.5296 21.1067 15.5831C20.9775 15.6366 20.8354 15.6506 20.6983 15.6233C20.5611 15.5961 20.4351 15.5288 20.3363 15.4299L10.7739 5.86611L5.8805 10.7659L15.4343 20.324C15.5331 20.4229 15.6004 20.5489 15.6276 20.686C15.6549 20.8232 15.6409 20.9653 15.5874 21.0945C15.5339 21.2237 15.4433 21.3342 15.327 21.4118C15.2108 21.4895 15.0742 21.5309 14.9344 21.531H1.41851V28.4594H14.9373C15.0771 28.4594 15.2137 28.5009 15.33 28.5786C15.4462 28.6563 15.5369 28.7667 15.5904 28.8959C15.6439 29.0251 15.6579 29.1672 15.6306 29.3043C15.6033 29.4415 15.5359 29.5675 15.4371 29.6664L5.8805 39.2283L10.7739 44.1272L20.3363 34.5643C20.4351 34.4655 20.5611 34.3982 20.6983 34.3709C20.8354 34.3436 20.9775 34.3576 21.1067 34.4111C21.2358 34.4646 21.3462 34.5552 21.4239 34.6714C21.5015 34.7877 21.5429 34.9245 21.5429 35.0643V48.586Z" fill="#DFF314"/>
</svg>
