<svg width="56" height="56" viewBox="0 0 56 56" fill="none" xmlns="http://www.w3.org/2000/svg">
<path d="M56 28.0064C56 23.8407 51.3543 19.8929 44.2316 17.4447C45.8753 9.29275 45.1447 2.80705 41.9258 0.730602C41.1839 0.243534 40.3163 0.0128174 39.3689 0.0128174V2.87114C39.894 2.87114 40.3163 2.9865 40.6702 3.20439C42.2226 4.20417 42.896 8.01099 42.371 12.9073C42.2454 14.1122 42.04 15.3811 41.7888 16.6757C39.5516 16.0604 37.1088 15.5862 34.5406 15.2786C32.9996 12.9073 31.4016 10.7539 29.7921 8.86976C33.5133 4.98604 37.0061 2.85832 39.3804 2.85832V0C36.2413 0 32.1321 2.51225 27.9772 6.87022C23.8223 2.53788 19.713 0.0512705 16.574 0.0512705V2.90959C18.9368 2.90959 22.4411 5.02449 26.1623 8.88258C24.5642 10.7668 22.9662 12.9073 21.448 15.2786C18.8683 15.5862 16.4256 16.0604 14.1883 16.6885C13.9258 15.4067 13.7318 14.1634 13.5948 12.9714C13.0583 8.07507 13.7203 4.26825 15.2613 3.25567C15.6038 3.02495 16.0489 2.92241 16.574 2.92241V0.0640879C15.6152 0.0640879 14.7477 0.294804 13.9943 0.781872C10.7868 2.85832 10.0677 9.3312 11.7228 17.4575C4.62291 19.9185 0 23.8535 0 28.0064C0 32.1721 4.64574 36.1199 11.7684 38.5681C10.1247 46.7201 10.8553 53.2058 14.0742 55.2822C14.8161 55.7693 15.6837 56 16.6425 56C19.7815 56 23.8907 53.4878 28.0457 49.1298C32.2006 53.4621 36.3098 55.9487 39.4488 55.9487C40.4077 55.9487 41.2752 55.718 42.0285 55.2309C45.236 53.1545 45.9552 46.6816 44.3 38.5553C51.3771 36.1071 56 32.1593 56 28.0064ZM41.1382 19.4571C40.7159 21.1106 40.1908 22.8153 39.5972 24.52C39.1292 23.4946 38.6384 22.4692 38.1019 21.4438C37.5768 20.4184 37.0175 19.4186 36.4582 18.4445C38.0791 18.7137 39.6429 19.0469 41.1382 19.4571ZM35.9103 33.1078C35.02 34.8382 34.1068 36.4788 33.1594 38.0041C31.4586 38.1707 29.735 38.2605 28 38.2605C26.2764 38.2605 24.5528 38.1707 22.8634 38.0169C21.916 36.4916 20.9914 34.8638 20.1011 33.1463C19.2336 31.4672 18.446 29.7624 17.7269 28.0449C18.4346 26.3273 19.2336 24.6097 20.0897 22.9306C20.98 21.2003 21.8932 19.5596 22.8406 18.0343C24.5414 17.8677 26.265 17.778 28 17.778C29.7236 17.778 31.4472 17.8677 33.1366 18.0215C34.084 19.5468 35.0086 21.1746 35.8989 22.8922C36.7664 24.5713 37.554 26.276 38.2731 27.9936C37.554 29.7111 36.7664 31.4287 35.9103 33.1078ZM39.5972 31.4415C40.2136 33.1591 40.7387 34.8766 41.1724 36.5429C39.6771 36.9531 38.1019 37.2992 36.4696 37.5683C37.0289 36.5814 37.5883 35.5688 38.1133 34.5306C38.6384 33.5051 39.1292 32.4669 39.5972 31.4415ZM28.0228 45.1179C26.9613 43.8874 25.8997 42.5159 24.8496 41.0162C25.8769 41.0675 26.927 41.106 27.9886 41.106C29.0616 41.106 30.1231 41.0803 31.1618 41.0162C30.1345 42.5159 29.073 43.8874 28.0228 45.1179ZM19.5304 37.5683C17.9095 37.2992 16.3457 36.9659 14.8504 36.5557C15.2727 34.9023 15.7978 33.1975 16.3914 31.4928C16.8594 32.5182 17.3502 33.5436 17.8867 34.569C18.4232 35.5944 18.9711 36.5942 19.5304 37.5683ZM27.9658 10.8949C29.0273 12.1254 30.0889 13.4969 31.139 14.9966C30.1117 14.9453 29.0616 14.9068 28 14.9068C26.927 14.9068 25.8655 14.9325 24.8267 14.9966C25.8541 13.4969 26.9156 12.1254 27.9658 10.8949ZM19.519 18.4445C18.9596 19.4314 18.4003 20.444 17.8753 21.4823C17.3502 22.5077 16.8594 23.5331 16.3914 24.5585C15.775 22.8409 15.2499 21.1234 14.8161 19.4571C16.3115 19.0597 17.8867 18.7137 19.519 18.4445ZM9.18875 34.4921C5.14798 32.5566 2.53404 30.0188 2.53404 28.0064C2.53404 25.994 5.14798 23.4433 9.18875 21.5207C10.1704 21.0465 11.2434 20.6235 12.3506 20.2261C13.0012 22.7384 13.8573 25.3532 14.9189 28.032C13.8687 30.6981 13.0241 33.3001 12.3848 35.7995C11.2548 35.4021 10.1818 34.9664 9.18875 34.4921ZM15.3298 52.8084C13.7774 51.8087 13.104 48.0018 13.629 43.1055C13.7546 41.9007 13.9601 40.6317 14.2112 39.3371C16.4484 39.9524 18.8912 40.4266 21.4594 40.7343C23.0004 43.1055 24.5985 45.2589 26.2079 47.1431C22.4868 51.0268 18.9939 53.1545 16.6196 53.1545C16.106 53.1417 15.6722 53.0263 15.3298 52.8084ZM42.4052 43.0414C42.9417 47.9377 42.2797 51.7446 40.7387 52.7572C40.3962 52.9879 39.9511 53.0904 39.426 53.0904C37.0632 53.0904 33.5589 50.9755 29.8378 47.1174C31.4358 45.2332 33.0338 43.0927 34.552 40.7214C37.1317 40.4138 39.5744 39.9396 41.8117 39.3115C42.0742 40.6061 42.2797 41.8494 42.4052 43.0414ZM46.7998 34.4921C45.8182 34.9664 44.7452 35.3893 43.638 35.7867C42.9874 33.2744 42.1313 30.6596 41.0697 27.9808C42.1199 25.3147 42.9645 22.7127 43.6038 20.2133C44.7338 20.6107 45.8068 21.0465 46.8113 21.5207C50.852 23.4562 53.466 25.994 53.466 28.0064C53.4545 30.0188 50.8406 32.5695 46.7998 34.4921Z" fill="#61DAFB"/>
<path d="M27.9886 33.864C30.8696 33.864 33.2051 31.2415 33.2051 28.0064C33.2051 24.7713 30.8696 22.1488 27.9886 22.1488C25.1076 22.1488 22.7721 24.7713 22.7721 28.0064C22.7721 31.2415 25.1076 33.864 27.9886 33.864Z" fill="#61DAFB"/>
</svg>
