<svg width="15" height="19" viewBox="0 0 15 19" fill="none" xmlns="http://www.w3.org/2000/svg">
<path d="M4.79449 0.690831C2.88755 1.94081 0.22532 4.84734 0.113003 4.97017C-0.053442 5.15295 -0.0339327 5.43079 0.15776 5.5898C0.348942 5.74859 0.639499 5.7303 0.806178 5.54731C0.833253 5.51766 3.50494 2.60082 5.31499 1.41478C5.3692 1.37861 6.68965 0.533086 8.29783 1.04187C9.98901 1.57716 11.4541 3.45349 12.5334 6.46729C14.2518 11.2659 13.7422 13.7993 10.829 14.9357C9.98853 15.2647 9.43521 15.74 9.18493 16.3515C8.85461 17.1579 9.20252 17.8862 9.21755 17.9174C9.32381 18.1359 9.59377 18.2286 9.82306 18.1285C10.0529 18.0295 10.155 17.7701 10.0525 17.5499C10.0508 17.5457 9.85428 17.1137 10.0458 16.6611C10.2033 16.2875 10.5837 15.9798 11.1769 15.7489C15.5717 14.0324 14.6751 9.73516 13.4032 6.18271C12.2102 2.85259 10.5901 0.843108 8.58756 0.208759C6.58571 -0.42496 4.97148 0.575361 4.79449 0.690831" fill="#363254"/>
</svg>
