<svg width="6" height="4" viewBox="0 0 6 4" fill="none" xmlns="http://www.w3.org/2000/svg">
<path d="M2.60591 1.05866C3.21393 0.772197 3.88146 0.852962 4.07187 1.1165C4.12479 1.19033 4.13712 1.27509 4.10949 1.37647C4.0604 1.55946 3.86254 1.82321 3.45557 2.01566C2.69985 2.37196 1.35779 2.58102 0.943161 2.48006C1.09617 2.13996 1.93563 1.37542 2.60591 1.05866V1.05866ZM2.19915 0.272246C1.54374 0.580798 0.210818 1.5645 0 2.34209L0.10116 2.99053C0.730856 3.86592 3.27131 3.0816 3.8636 2.80166C4.45356 2.52297 4.86755 2.0838 4.99974 1.59668C5.09431 1.24943 5.03374 0.902181 4.82908 0.618448C4.349 -0.0453486 3.19459 -0.197206 2.19915 0.272246Z" fill="#363254"/>
</svg>
