<svg width="6" height="4" viewBox="0 0 6 4" fill="none" xmlns="http://www.w3.org/2000/svg">
<path d="M3.77329 0.313552H3.7725H3.77329ZM3.47151 1.14204H3.472C3.92339 1.292 4.17055 1.54124 4.25067 1.72506C4.31166 1.86556 4.27043 1.94801 4.25641 1.97493C4.11827 2.24878 3.47752 2.39475 2.82912 2.18001C2.08806 1.93539 1.09177 1.24615 0.904113 0.928973C1.2518 0.813714 2.6608 0.873445 3.47157 1.14204H3.47151ZM0 0.567208L0.000481556 1.20387C0.324148 1.94801 1.81774 2.77481 2.52819 3.00975C3.59674 3.36415 4.72055 3.07663 5.08502 2.35626C5.16259 2.20083 5.20127 2.03404 5.20127 1.86493C5.20127 1.7055 5.16727 1.54439 5.09884 1.38665C4.8929 0.91446 4.40963 0.52388 3.7725 0.313552C3.13685 0.102594 0.480348 -0.384948 5.35062e-05 0.567208" fill="#363254"/>
</svg>
