<svg width="4" height="6" viewBox="0 0 4 6" fill="none" xmlns="http://www.w3.org/2000/svg">
<path d="M0.306453 3.81493C0.306453 3.24011 0.480931 2.33086 0.730216 1.60438C1.00755 0.795248 1.35077 0.292351 1.62556 0.292351C2.24505 0.292351 2.94318 2.5904 2.94318 3.81493C2.94318 4.859 2.35216 5.70789 1.62556 5.70789C0.898107 5.70789 0.306453 4.859 0.306453 3.81493ZM0.438851 1.51331C0.180428 2.26566 0 3.21255 0 3.81493C0 5.0199 0.729154 6.00066 1.62556 6.00066C2.52112 6.00066 3.24942 5.0199 3.24942 3.81493C3.24942 2.71471 2.6023 0 1.62556 0C1.07344 0 0.675599 0.822382 0.438851 1.51331" fill="#363254"/>
</svg>
