<svg width="14" height="15" viewBox="0 0 14 15" fill="none" xmlns="http://www.w3.org/2000/svg">
<path d="M2.65261 11.4057C2.61145 11.6135 2.75347 11.7841 2.96774 11.7841H4.19901C4.41365 11.7841 4.62213 11.6135 4.66357 11.4057L4.99149 9.73319C5.03272 9.52496 5.24078 9.35481 5.45563 9.35481H6.78813C7.5481 9.35481 8.17333 9.27572 8.66361 9.11735C9.15496 8.95981 9.6004 8.69438 10.0027 8.3223C10.3389 8.01607 10.6122 7.67807 10.8205 7.30768C11.0287 6.93855 11.1775 6.53052 11.2646 6.0842C11.4776 5.00143 11.268 4.19587 10.7839 3.55248C10.1759 2.74692 8.6243 2.70422 8.6243 2.70422C8.4122 2.67267 8.06367 2.64575 7.84924 2.64575H4.76197C4.54775 2.64575 4.33927 2.81654 4.29783 3.02497L2.65261 11.4057ZM7.47691 4.08797C8.24134 4.08797 8.7499 4.22784 9.00471 4.50695C9.25888 4.78605 9.31987 5.2656 9.18705 5.94433C9.04742 6.65167 8.77965 7.15709 8.38308 7.45933C7.98652 7.76136 6.95963 7.87073 6.95963 7.87073C6.74605 7.89387 6.39624 7.91259 6.18224 7.91259H5.73892C5.5247 7.91259 5.3821 7.74201 5.42333 7.53399L6.02561 4.46699C6.06642 4.25876 6.27532 4.08797 6.48933 4.08797H7.47691Z" stroke="white" stroke-width="5.29133"/>
</svg>
