<svg width="8" height="10" viewBox="0 0 8 10" fill="none" xmlns="http://www.w3.org/2000/svg">
<path d="M1.65275 0.378169C1.69356 0.170365 1.90204 0 2.11626 0H3.33208C3.54673 0 3.68848 0.170365 3.64725 0.378169L3.31912 2.0507C3.2781 2.25914 3.42092 2.42866 3.63471 2.42866H4.63206C4.84628 2.42866 5.19631 2.44696 5.40925 2.46862C5.40925 2.46862 6.86373 2.48545 7.33574 3.00832C7.72019 3.43403 7.88723 4.02042 7.71742 4.88508L6.95746 8.75912C6.91686 8.96734 6.70775 9.13771 6.49331 9.13771H5.24625C5.03181 9.13771 4.88964 8.96734 4.93065 8.75912L5.57629 5.47274C5.61709 5.26473 5.663 4.92126 5.67873 4.70925C5.67873 4.70925 5.70742 4.32035 5.55036 4.15356C5.39395 3.98614 5.05987 3.90285 4.54939 3.90285H3.34483C3.13019 3.90285 2.92234 4.0728 2.88069 4.28102L2.00235 8.75912C1.96133 8.96734 1.75285 9.13771 1.53842 9.13771H0.322381C0.107948 9.13771 -0.0338019 8.96734 0.00700191 8.75912L1.65275 0.378169" fill="#363254"/>
</svg>
