<svg width="9" height="10" viewBox="0 0 9 10" fill="none" xmlns="http://www.w3.org/2000/svg">
<path d="M0.00711734 8.75997C-0.034112 8.96777 0.108065 9.13835 0.32271 9.13835H1.55384C1.76763 9.13835 1.97717 8.96777 2.01776 8.75997L2.3459 7.08743C2.38691 6.87921 2.59582 6.70906 2.80961 6.70906H4.14275C4.9025 6.70906 5.52731 6.62997 6.01887 6.47159C6.50873 6.31406 6.95502 6.04862 7.35668 5.67655C7.69395 5.37031 7.96597 5.03232 8.17488 4.66193C8.38336 4.2928 8.53148 3.88477 8.61926 3.43845C8.83199 2.35568 8.63944 1.53771 8.13811 0.906726C7.51607 0.123463 5.97828 0.0584713 5.97828 0.0584713C5.76618 0.026922 5.41744 0 5.20322 0H2.11595C1.90194 0 1.69282 0.170786 1.65223 0.379221L0.00711734 8.75997ZM4.83195 1.44222C5.59553 1.44222 6.10451 1.58209 6.35975 1.8612C6.61329 2.1403 6.67407 2.61985 6.54103 3.29858C6.40162 4.00592 6.1349 4.51133 5.7377 4.81358C5.3405 5.11561 4.31361 5.22498 4.31361 5.22498C4.10088 5.24811 3.75129 5.26683 3.53643 5.26683H3.09269C2.87804 5.26683 2.73693 5.09626 2.77752 4.88824L3.37938 1.82123C3.42061 1.61301 3.6293 1.44222 3.84352 1.44222H4.83195" fill="#363254"/>
</svg>
