<svg width="14" height="15" viewBox="0 0 14 15" fill="none" xmlns="http://www.w3.org/2000/svg">
<path d="M2.65263 11.4057C2.6114 11.6135 2.75357 11.7841 2.96822 11.7841H4.19934C4.41314 11.7841 4.62268 11.6135 4.66327 11.4057L4.9914 9.73319C5.03242 9.52496 5.24132 9.35481 5.45512 9.35481H6.78825C7.54801 9.35481 8.17282 9.27572 8.66438 9.11735C9.15423 8.95981 9.60053 8.69438 10.0022 8.3223C10.3395 8.01607 10.6115 7.67807 10.8204 7.30768C11.0289 6.93855 11.177 6.53052 11.2648 6.0842C11.4775 5.00143 11.285 4.18346 10.7836 3.55248C10.1616 2.76922 8.62378 2.70422 8.62378 2.70422C8.41169 2.67267 8.06294 2.64575 7.84872 2.64575H4.76146C4.54745 2.64575 4.33833 2.81654 4.29774 3.02497L2.65263 11.4057ZM7.47746 4.08797C8.24104 4.08797 8.75002 4.22784 9.00526 4.50695C9.25879 4.78605 9.31957 5.2656 9.18654 5.94433C9.04712 6.65167 8.78041 7.15709 8.38321 7.45933C7.98601 7.76136 6.95912 7.87073 6.95912 7.87073C6.74639 7.89387 6.39679 7.91259 6.18194 7.91259H5.7382C5.52355 7.91259 5.38244 7.74201 5.42303 7.53399L6.02488 4.46699C6.06611 4.25876 6.2748 4.08797 6.48902 4.08797H7.47746Z" stroke="white" stroke-width="5.29133"/>
</svg>
