<svg width="9" height="10" viewBox="0 0 9 10" fill="none" xmlns="http://www.w3.org/2000/svg">
<path d="M0.00710375 8.75997C-0.0340618 8.96777 0.107966 9.13835 0.322227 9.13835H1.5535C1.76814 9.13835 1.97662 8.96777 2.01807 8.75997L2.34598 7.08743C2.38721 6.87921 2.59527 6.70906 2.81013 6.70906H4.14262C4.90259 6.70906 5.52782 6.62997 6.0181 6.47159C6.50945 6.31406 6.95489 6.04862 7.35719 5.67655C7.69339 5.37031 7.96669 5.03232 8.17496 4.66193C8.38323 4.2928 8.53199 3.88477 8.61913 3.43845C8.83207 2.35568 8.62252 1.55012 8.13841 0.906726C7.53039 0.101168 5.97879 0.0584713 5.97879 0.0584713C5.76669 0.026922 5.41816 0 5.20373 0H2.11646C1.90224 0 1.69376 0.170786 1.65232 0.379221L0.00710375 8.75997ZM4.8314 1.44222C5.59583 1.44222 6.10439 1.58209 6.3592 1.8612C6.61337 2.1403 6.67436 2.61985 6.54154 3.29858C6.40191 4.00592 6.13414 4.51133 5.73758 4.81358C5.34102 5.11561 4.31413 5.22498 4.31413 5.22498C4.10054 5.24811 3.75074 5.26683 3.53673 5.26683H3.09341C2.87919 5.26683 2.73659 5.09626 2.77782 4.88824L3.3801 1.82123C3.42091 1.61301 3.62981 1.44222 3.84382 1.44222H4.8314" fill="#363254"/>
</svg>
