<svg width="590" height="73" viewBox="0 0 590 73" fill="none" xmlns="http://www.w3.org/2000/svg">
<path d="M71.488 60.016L68.416 48.8H69.856L72.272 58.416L75.024 48.8H76.512L79.184 58.416L81.632 48.8H83.072L79.936 60H78.4L75.728 50.752L72.992 60L71.488 60.016ZM87.3283 60.192C86.5709 60.192 85.8989 60.0213 85.3123 59.68C84.7256 59.328 84.2616 58.8427 83.9203 58.224C83.5896 57.6053 83.4243 56.8747 83.4243 56.032C83.4243 55.2 83.5896 54.4747 83.9203 53.856C84.2509 53.2267 84.7096 52.7413 85.2963 52.4C85.8936 52.048 86.5816 51.872 87.3602 51.872C88.1283 51.872 88.7896 52.048 89.3443 52.4C89.9096 52.7413 90.3416 53.1947 90.6403 53.76C90.9389 54.3253 91.0883 54.9333 91.0883 55.584C91.0883 55.7013 91.0829 55.8187 91.0723 55.936C91.0723 56.0533 91.0723 56.1867 91.0723 56.336H84.7523C84.7843 56.944 84.9229 57.4507 85.1683 57.856C85.4243 58.2507 85.7389 58.5493 86.1123 58.752C86.4963 58.9547 86.9016 59.056 87.3283 59.056C87.8829 59.056 88.3469 58.928 88.7203 58.672C89.0936 58.416 89.3656 58.0693 89.5363 57.632H90.8643C90.6509 58.368 90.2403 58.9813 89.6323 59.472C89.0349 59.952 88.2669 60.192 87.3283 60.192ZM87.3283 53.008C86.6883 53.008 86.1176 53.2053 85.6163 53.6C85.1256 53.984 84.8429 54.5493 84.7682 55.296H89.7603C89.7283 54.5813 89.4829 54.0213 89.0243 53.616C88.5656 53.2107 88.0003 53.008 87.3283 53.008ZM97.1096 60.192C96.459 60.192 95.8776 60.0587 95.3656 59.792C94.8643 59.5253 94.4803 59.152 94.2136 58.672L94.0856 60H92.8696V48.48H94.2136V53.376C94.4696 52.992 94.8323 52.6453 95.3016 52.336C95.7816 52.0267 96.3896 51.872 97.1256 51.872C97.915 51.872 98.603 52.0533 99.1896 52.416C99.7763 52.7787 100.23 53.2747 100.55 53.904C100.88 54.5333 101.046 55.248 101.046 56.048C101.046 56.848 100.88 57.5627 100.55 58.192C100.23 58.8107 99.771 59.3013 99.1736 59.664C98.587 60.016 97.899 60.192 97.1096 60.192ZM96.9656 59.024C97.499 59.024 97.9683 58.9013 98.3736 58.656C98.779 58.4 99.099 58.048 99.3336 57.6C99.5683 57.152 99.6856 56.6293 99.6856 56.032C99.6856 55.4347 99.5683 54.912 99.3336 54.464C99.099 54.016 98.779 53.6693 98.3736 53.424C97.9683 53.168 97.499 53.04 96.9656 53.04C96.4323 53.04 95.963 53.168 95.5576 53.424C95.1523 53.6693 94.8323 54.016 94.5976 54.464C94.363 54.912 94.2456 55.4347 94.2456 56.032C94.2456 56.6293 94.363 57.152 94.5976 57.6C94.8323 58.048 95.1523 58.4 95.5576 58.656C95.963 58.9013 96.4323 59.024 96.9656 59.024ZM107.231 60V48.8H110.671C112.644 48.8 114.095 49.3013 115.023 50.304C115.962 51.3067 116.431 52.6827 116.431 54.432C116.431 56.1493 115.962 57.5093 115.023 58.512C114.095 59.504 112.644 60 110.671 60H107.231ZM108.575 58.88H110.639C111.727 58.88 112.591 58.704 113.231 58.352C113.882 57.9893 114.346 57.4773 114.623 56.816C114.9 56.144 115.039 55.3493 115.039 54.432C115.039 53.4933 114.9 52.688 114.623 52.016C114.346 51.344 113.882 50.8267 113.231 50.464C112.591 50.1013 111.727 49.92 110.639 49.92H108.575V58.88ZM121.86 60.192C121.102 60.192 120.43 60.0213 119.844 59.68C119.257 59.328 118.793 58.8427 118.452 58.224C118.121 57.6053 117.956 56.8747 117.956 56.032C117.956 55.2 118.121 54.4747 118.452 53.856C118.782 53.2267 119.241 52.7413 119.828 52.4C120.425 52.048 121.113 51.872 121.891 51.872C122.66 51.872 123.321 52.048 123.876 52.4C124.441 52.7413 124.873 53.1947 125.172 53.76C125.47 54.3253 125.62 54.9333 125.62 55.584C125.62 55.7013 125.614 55.8187 125.604 55.936C125.604 56.0533 125.604 56.1867 125.604 56.336H119.284C119.316 56.944 119.454 57.4507 119.7 57.856C119.956 58.2507 120.27 58.5493 120.644 58.752C121.028 58.9547 121.433 59.056 121.86 59.056C122.414 59.056 122.878 58.928 123.252 58.672C123.625 58.416 123.897 58.0693 124.068 57.632H125.396C125.182 58.368 124.772 58.9813 124.164 59.472C123.566 59.952 122.798 60.192 121.86 60.192ZM121.86 53.008C121.22 53.008 120.649 53.2053 120.148 53.6C119.657 53.984 119.374 54.5493 119.299 55.296H124.292C124.26 54.5813 124.014 54.0213 123.556 53.616C123.097 53.2107 122.532 53.008 121.86 53.008ZM130.441 60.192C129.492 60.192 128.702 59.952 128.073 59.472C127.444 58.992 127.076 58.3413 126.969 57.52H128.345C128.43 57.936 128.649 58.2987 129.001 58.608C129.364 58.9067 129.849 59.056 130.457 59.056C131.022 59.056 131.438 58.9387 131.705 58.704C131.972 58.4587 132.105 58.1707 132.105 57.84C132.105 57.36 131.929 57.04 131.577 56.88C131.236 56.72 130.75 56.576 130.121 56.448C129.694 56.3627 129.268 56.24 128.841 56.08C128.414 55.92 128.057 55.696 127.769 55.408C127.481 55.1093 127.337 54.72 127.337 54.24C127.337 53.5467 127.593 52.9813 128.105 52.544C128.628 52.096 129.332 51.872 130.217 51.872C131.06 51.872 131.748 52.0853 132.281 52.512C132.825 52.928 133.14 53.5253 133.225 54.304H131.897C131.844 53.8987 131.668 53.584 131.369 53.36C131.081 53.1253 130.692 53.008 130.201 53.008C129.721 53.008 129.348 53.1093 129.081 53.312C128.825 53.5147 128.697 53.7813 128.697 54.112C128.697 54.432 128.862 54.6827 129.193 54.864C129.534 55.0453 129.993 55.2 130.569 55.328C131.06 55.4347 131.524 55.568 131.961 55.728C132.409 55.8773 132.772 56.1067 133.049 56.416C133.337 56.7147 133.481 57.152 133.481 57.728C133.492 58.4427 133.22 59.0347 132.665 59.504C132.121 59.9627 131.38 60.192 130.441 60.192ZM136.217 50.304C135.95 50.304 135.726 50.2187 135.545 50.048C135.374 49.8667 135.289 49.6427 135.289 49.376C135.289 49.12 135.374 48.9067 135.545 48.736C135.726 48.5653 135.95 48.48 136.217 48.48C136.473 48.48 136.692 48.5653 136.873 48.736C137.054 48.9067 137.145 49.12 137.145 49.376C137.145 49.6427 137.054 49.8667 136.873 50.048C136.692 50.2187 136.473 50.304 136.217 50.304ZM135.545 60V52.064H136.889V60H135.545ZM142.365 57.504C141.917 57.504 141.506 57.4453 141.133 57.328L140.333 58.08C140.45 58.1653 140.594 58.24 140.765 58.304C140.946 58.3573 141.202 58.4107 141.533 58.464C141.864 58.5067 142.328 58.5547 142.925 58.608C143.992 58.6827 144.754 58.928 145.213 59.344C145.672 59.76 145.901 60.304 145.901 60.976C145.901 61.4347 145.773 61.872 145.517 62.288C145.272 62.704 144.888 63.0453 144.365 63.312C143.853 63.5787 143.192 63.712 142.381 63.712C141.666 63.712 141.032 63.616 140.477 63.424C139.922 63.2427 139.49 62.96 139.181 62.576C138.872 62.2027 138.717 61.728 138.717 61.152C138.717 60.8533 138.797 60.528 138.957 60.176C139.117 59.8347 139.416 59.5093 139.853 59.2C139.618 59.104 139.416 59.0027 139.245 58.896C139.085 58.7787 138.936 58.6507 138.797 58.512V58.144L140.157 56.8C139.528 56.2667 139.213 55.5627 139.213 54.688C139.213 54.1653 139.336 53.6907 139.581 53.264C139.826 52.8373 140.184 52.5013 140.653 52.256C141.122 52 141.693 51.872 142.365 51.872C142.824 51.872 143.24 51.936 143.613 52.064H146.541V53.072L145.053 53.136C145.362 53.584 145.517 54.1013 145.517 54.688C145.517 55.2107 145.389 55.6853 145.133 56.112C144.888 56.5387 144.53 56.88 144.061 57.136C143.602 57.3813 143.037 57.504 142.365 57.504ZM142.365 56.4C142.93 56.4 143.378 56.256 143.709 55.968C144.05 55.6693 144.221 55.2427 144.221 54.688C144.221 54.144 144.05 53.728 143.709 53.44C143.378 53.1413 142.93 52.992 142.365 52.992C141.789 52.992 141.33 53.1413 140.989 53.44C140.658 53.728 140.493 54.144 140.493 54.688C140.493 55.2427 140.658 55.6693 140.989 55.968C141.33 56.256 141.789 56.4 142.365 56.4ZM140.029 61.024C140.029 61.5573 140.253 61.952 140.701 62.208C141.149 62.4747 141.709 62.608 142.381 62.608C143.042 62.608 143.57 62.464 143.965 62.176C144.37 61.888 144.573 61.504 144.573 61.024C144.573 60.6827 144.434 60.384 144.157 60.128C143.88 59.8827 143.368 59.7387 142.621 59.696C142.034 59.6533 141.528 59.6 141.101 59.536C140.664 59.7707 140.376 60.0213 140.237 60.288C140.098 60.5653 140.029 60.8107 140.029 61.024ZM148.057 60V52.064H149.273L149.353 53.488C149.609 52.9867 149.977 52.592 150.457 52.304C150.937 52.016 151.481 51.872 152.089 51.872C153.028 51.872 153.774 52.16 154.329 52.736C154.894 53.3013 155.177 54.176 155.177 55.36V60H153.833V55.504C153.833 53.8507 153.15 53.024 151.785 53.024C151.102 53.024 150.532 53.2747 150.073 53.776C149.625 54.2667 149.401 54.9707 149.401 55.888V60H148.057ZM156.141 61.904L157.069 58.368H158.461L157.069 61.904H156.141ZM166.676 60.016L163.604 48.8H165.044L167.46 58.416L170.212 48.8H171.7L174.372 58.416L176.82 48.8H178.26L175.124 60H173.588L170.916 50.752L168.18 60L166.676 60.016ZM182.516 60.192C181.758 60.192 181.086 60.0213 180.5 59.68C179.913 59.328 179.449 58.8427 179.108 58.224C178.777 57.6053 178.612 56.8747 178.612 56.032C178.612 55.2 178.777 54.4747 179.108 53.856C179.438 53.2267 179.897 52.7413 180.484 52.4C181.081 52.048 181.769 51.872 182.548 51.872C183.316 51.872 183.977 52.048 184.532 52.4C185.097 52.7413 185.529 53.1947 185.828 53.76C186.126 54.3253 186.276 54.9333 186.276 55.584C186.276 55.7013 186.27 55.8187 186.26 55.936C186.26 56.0533 186.26 56.1867 186.26 56.336H179.94C179.972 56.944 180.11 57.4507 180.356 57.856C180.612 58.2507 180.926 58.5493 181.3 58.752C181.684 58.9547 182.089 59.056 182.516 59.056C183.07 59.056 183.534 58.928 183.908 58.672C184.281 58.416 184.553 58.0693 184.724 57.632H186.052C185.838 58.368 185.428 58.9813 184.82 59.472C184.222 59.952 183.454 60.192 182.516 60.192ZM182.516 53.008C181.876 53.008 181.305 53.2053 180.804 53.6C180.313 53.984 180.03 54.5493 179.956 55.296H184.948C184.916 54.5813 184.67 54.0213 184.212 53.616C183.753 53.2107 183.188 53.008 182.516 53.008ZM192.297 60.192C191.646 60.192 191.065 60.0587 190.553 59.792C190.052 59.5253 189.668 59.152 189.401 58.672L189.273 60H188.057V48.48H189.401V53.376C189.657 52.992 190.02 52.6453 190.489 52.336C190.969 52.0267 191.577 51.872 192.313 51.872C193.102 51.872 193.79 52.0533 194.377 52.416C194.964 52.7787 195.417 53.2747 195.737 53.904C196.068 54.5333 196.233 55.248 196.233 56.048C196.233 56.848 196.068 57.5627 195.737 58.192C195.417 58.8107 194.958 59.3013 194.361 59.664C193.774 60.016 193.086 60.192 192.297 60.192ZM192.153 59.024C192.686 59.024 193.156 58.9013 193.561 58.656C193.966 58.4 194.286 58.048 194.521 57.6C194.756 57.152 194.873 56.6293 194.873 56.032C194.873 55.4347 194.756 54.912 194.521 54.464C194.286 54.016 193.966 53.6693 193.561 53.424C193.156 53.168 192.686 53.04 192.153 53.04C191.62 53.04 191.15 53.168 190.745 53.424C190.34 53.6693 190.02 54.016 189.785 54.464C189.55 54.912 189.433 55.4347 189.433 56.032C189.433 56.6293 189.55 57.152 189.785 57.6C190.02 58.048 190.34 58.4 190.745 58.656C191.15 58.9013 191.62 59.024 192.153 59.024ZM202.418 60V48.8H205.858C207.832 48.8 209.282 49.3013 210.21 50.304C211.149 51.3067 211.618 52.6827 211.618 54.432C211.618 56.1493 211.149 57.5093 210.21 58.512C209.282 59.504 207.832 60 205.858 60H202.418ZM203.762 58.88H205.826C206.914 58.88 207.778 58.704 208.418 58.352C209.069 57.9893 209.533 57.4773 209.81 56.816C210.088 56.144 210.226 55.3493 210.226 54.432C210.226 53.4933 210.088 52.688 209.81 52.016C209.533 51.344 209.069 50.8267 208.418 50.464C207.778 50.1013 206.914 49.92 205.826 49.92H203.762V58.88ZM217.047 60.192C216.29 60.192 215.618 60.0213 215.031 59.68C214.444 59.328 213.98 58.8427 213.639 58.224C213.308 57.6053 213.143 56.8747 213.143 56.032C213.143 55.2 213.308 54.4747 213.639 53.856C213.97 53.2267 214.428 52.7413 215.015 52.4C215.612 52.048 216.3 51.872 217.079 51.872C217.847 51.872 218.508 52.048 219.063 52.4C219.628 52.7413 220.06 53.1947 220.359 53.76C220.658 54.3253 220.807 54.9333 220.807 55.584C220.807 55.7013 220.802 55.8187 220.791 55.936C220.791 56.0533 220.791 56.1867 220.791 56.336H214.471C214.503 56.944 214.642 57.4507 214.887 57.856C215.143 58.2507 215.458 58.5493 215.831 58.752C216.215 58.9547 216.62 59.056 217.047 59.056C217.602 59.056 218.066 58.928 218.439 58.672C218.812 58.416 219.084 58.0693 219.255 57.632H220.583C220.37 58.368 219.959 58.9813 219.351 59.472C218.754 59.952 217.986 60.192 217.047 60.192ZM217.047 53.008C216.407 53.008 215.836 53.2053 215.335 53.6C214.844 53.984 214.562 54.5493 214.487 55.296H219.479C219.447 54.5813 219.202 54.0213 218.743 53.616C218.284 53.2107 217.719 53.008 217.047 53.008ZM224.564 60L221.556 52.064H222.964L225.348 58.704L227.748 52.064H229.124L226.116 60H224.564ZM233.781 60.192C233.024 60.192 232.352 60.0213 231.765 59.68C231.179 59.328 230.715 58.8427 230.373 58.224C230.043 57.6053 229.877 56.8747 229.877 56.032C229.877 55.2 230.043 54.4747 230.373 53.856C230.704 53.2267 231.163 52.7413 231.749 52.4C232.347 52.048 233.035 51.872 233.813 51.872C234.581 51.872 235.243 52.048 235.797 52.4C236.363 52.7413 236.795 53.1947 237.093 53.76C237.392 54.3253 237.541 54.9333 237.541 55.584C237.541 55.7013 237.536 55.8187 237.525 55.936C237.525 56.0533 237.525 56.1867 237.525 56.336H231.205C231.237 56.944 231.376 57.4507 231.621 57.856C231.877 58.2507 232.192 58.5493 232.565 58.752C232.949 58.9547 233.355 59.056 233.781 59.056C234.336 59.056 234.8 58.928 235.173 58.672C235.547 58.416 235.819 58.0693 235.989 57.632H237.317C237.104 58.368 236.693 58.9813 236.085 59.472C235.488 59.952 234.72 60.192 233.781 60.192ZM233.781 53.008C233.141 53.008 232.571 53.2053 232.069 53.6C231.579 53.984 231.296 54.5493 231.221 55.296H236.213C236.181 54.5813 235.936 54.0213 235.477 53.616C235.019 53.2107 234.453 53.008 233.781 53.008ZM239.323 60V48.48H240.667V60H239.323ZM246.486 60.192C245.739 60.192 245.067 60.0213 244.47 59.68C243.872 59.3387 243.398 58.8587 243.046 58.24C242.704 57.6107 242.534 56.8747 242.534 56.032C242.534 55.1893 242.71 54.4587 243.062 53.84C243.414 53.2107 243.888 52.7253 244.486 52.384C245.094 52.0427 245.771 51.872 246.518 51.872C247.264 51.872 247.936 52.0427 248.534 52.384C249.131 52.7253 249.6 53.2107 249.942 53.84C250.294 54.4587 250.47 55.1893 250.47 56.032C250.47 56.8747 250.294 57.6107 249.942 58.24C249.59 58.8587 249.11 59.3387 248.502 59.68C247.904 60.0213 247.232 60.192 246.486 60.192ZM246.486 59.04C246.944 59.04 247.371 58.928 247.766 58.704C248.16 58.48 248.48 58.144 248.726 57.696C248.971 57.248 249.094 56.6933 249.094 56.032C249.094 55.3707 248.971 54.816 248.726 54.368C248.491 53.92 248.176 53.584 247.782 53.36C247.387 53.136 246.966 53.024 246.518 53.024C246.059 53.024 245.632 53.136 245.238 53.36C244.843 53.584 244.523 53.92 244.278 54.368C244.032 54.816 243.91 55.3707 243.91 56.032C243.91 56.6933 244.032 57.248 244.278 57.696C244.523 58.144 244.838 58.48 245.222 58.704C245.616 58.928 246.038 59.04 246.486 59.04ZM252.338 63.52V52.064H253.554L253.682 53.376C253.938 52.992 254.301 52.6453 254.77 52.336C255.25 52.0267 255.858 51.872 256.594 51.872C257.384 51.872 258.072 52.0533 258.658 52.416C259.245 52.7787 259.698 53.2747 260.018 53.904C260.349 54.5333 260.514 55.248 260.514 56.048C260.514 56.848 260.349 57.5627 260.018 58.192C259.698 58.8107 259.24 59.3013 258.642 59.664C258.056 60.016 257.368 60.192 256.578 60.192C255.928 60.192 255.346 60.0587 254.834 59.792C254.333 59.5253 253.949 59.152 253.682 58.672V63.52H252.338ZM256.434 59.024C256.968 59.024 257.437 58.9013 257.842 58.656C258.248 58.4 258.568 58.048 258.802 57.6C259.037 57.152 259.154 56.6293 259.154 56.032C259.154 55.4347 259.037 54.912 258.802 54.464C258.568 54.016 258.248 53.6693 257.842 53.424C257.437 53.168 256.968 53.04 256.434 53.04C255.901 53.04 255.432 53.168 255.026 53.424C254.621 53.6693 254.301 54.016 254.066 54.464C253.832 54.912 253.714 55.4347 253.714 56.032C253.714 56.6293 253.832 57.152 254.066 57.6C254.301 58.048 254.621 58.4 255.026 58.656C255.432 58.9013 255.901 59.024 256.434 59.024ZM262.385 60V52.064H263.601L263.697 53.216C263.953 52.7893 264.295 52.4587 264.721 52.224C265.148 51.9893 265.628 51.872 266.161 51.872C266.791 51.872 267.329 52 267.777 52.256C268.236 52.512 268.588 52.9013 268.833 53.424C269.111 52.944 269.489 52.5653 269.969 52.288C270.46 52.0107 270.988 51.872 271.553 51.872C272.503 51.872 273.26 52.16 273.825 52.736C274.391 53.3013 274.673 54.176 274.673 55.36V60H273.345V55.504C273.345 54.6827 273.18 54.064 272.849 53.648C272.519 53.232 272.044 53.024 271.425 53.024C270.785 53.024 270.252 53.2747 269.825 53.776C269.409 54.2667 269.201 54.9707 269.201 55.888V60H267.857V55.504C267.857 54.6827 267.692 54.064 267.361 53.648C267.031 53.232 266.556 53.024 265.937 53.024C265.308 53.024 264.78 53.2747 264.353 53.776C263.937 54.2667 263.729 54.9707 263.729 55.888V60H262.385ZM280.266 60.192C279.508 60.192 278.836 60.0213 278.25 59.68C277.663 59.328 277.199 58.8427 276.858 58.224C276.527 57.6053 276.362 56.8747 276.362 56.032C276.362 55.2 276.527 54.4747 276.858 53.856C277.188 53.2267 277.647 52.7413 278.234 52.4C278.831 52.048 279.519 51.872 280.298 51.872C281.066 51.872 281.727 52.048 282.282 52.4C282.847 52.7413 283.279 53.1947 283.578 53.76C283.876 54.3253 284.026 54.9333 284.026 55.584C284.026 55.7013 284.02 55.8187 284.01 55.936C284.01 56.0533 284.01 56.1867 284.01 56.336H277.69C277.722 56.944 277.86 57.4507 278.106 57.856C278.362 58.2507 278.676 58.5493 279.05 58.752C279.434 58.9547 279.839 59.056 280.266 59.056C280.82 59.056 281.284 58.928 281.658 58.672C282.031 58.416 282.303 58.0693 282.474 57.632H283.802C283.588 58.368 283.178 58.9813 282.57 59.472C281.972 59.952 281.204 60.192 280.266 60.192ZM280.266 53.008C279.626 53.008 279.055 53.2053 278.554 53.6C278.063 53.984 277.78 54.5493 277.706 55.296H282.698C282.666 54.5813 282.42 54.0213 281.962 53.616C281.503 53.2107 280.938 53.008 280.266 53.008ZM285.807 60V52.064H287.023L287.103 53.488C287.359 52.9867 287.727 52.592 288.207 52.304C288.687 52.016 289.231 51.872 289.839 51.872C290.778 51.872 291.524 52.16 292.079 52.736C292.644 53.3013 292.927 54.176 292.927 55.36V60H291.583V55.504C291.583 53.8507 290.9 53.024 289.535 53.024C288.852 53.024 288.282 53.2747 287.823 53.776C287.375 54.2667 287.151 54.9707 287.151 55.888V60H285.807ZM298.099 60C297.374 60 296.803 59.824 296.387 59.472C295.971 59.12 295.763 58.4853 295.763 57.568V53.2H294.387V52.064H295.763L295.939 50.16H297.107V52.064H299.443V53.2H297.107V57.568C297.107 58.0693 297.209 58.4107 297.411 58.592C297.614 58.7627 297.971 58.848 298.483 58.848H299.315V60H298.099ZM305.849 60.08C305.583 60.08 305.359 59.9947 305.177 59.824C305.007 59.6427 304.921 59.424 304.921 59.168C304.921 58.912 305.007 58.6987 305.177 58.528C305.359 58.3467 305.583 58.256 305.849 58.256C306.105 58.256 306.319 58.3467 306.489 58.528C306.671 58.6987 306.761 58.912 306.761 59.168C306.761 59.424 306.671 59.6427 306.489 59.824C306.319 59.9947 306.105 60.08 305.849 60.08ZM308.974 60.08C308.708 60.08 308.484 59.9947 308.302 59.824C308.132 59.6427 308.046 59.424 308.046 59.168C308.046 58.912 308.132 58.6987 308.302 58.528C308.484 58.3467 308.708 58.256 308.974 58.256C309.23 58.256 309.444 58.3467 309.614 58.528C309.796 58.6987 309.886 58.912 309.886 59.168C309.886 59.424 309.796 59.6427 309.614 59.824C309.444 59.9947 309.23 60.08 308.974 60.08ZM312.099 60.08C311.833 60.08 311.609 59.9947 311.427 59.824C311.257 59.6427 311.171 59.424 311.171 59.168C311.171 58.912 311.257 58.6987 311.427 58.528C311.609 58.3467 311.833 58.256 312.099 58.256C312.355 58.256 312.569 58.3467 312.739 58.528C312.921 58.6987 313.011 58.912 313.011 59.168C313.011 59.424 312.921 59.6427 312.739 59.824C312.569 59.9947 312.355 60.08 312.099 60.08Z" fill="#999999"/>
<line opacity="0.6" x1="68" y1="72.25" x2="590" y2="72.25" stroke="#999999" stroke-width="1.5"/>
<path d="M71.852 18.018L68.45 5.4H70.502L73.004 15.84L75.884 5.4H77.99L80.78 15.84L83.282 5.4H85.334L81.878 18H79.646L76.892 8.118L74.048 18L71.852 18.018ZM86.8326 18V5.04H88.7406V10.512C89.0406 9.996 89.4546 9.594 89.9826 9.306C90.5226 9.006 91.1166 8.856 91.7646 8.856C92.8326 8.856 93.6726 9.192 94.2846 9.864C94.8966 10.536 95.2026 11.538 95.2026 12.87V18H93.3126V13.068C93.3126 11.34 92.6226 10.476 91.2426 10.476C90.5226 10.476 89.9226 10.728 89.4426 11.232C88.9746 11.736 88.7406 12.456 88.7406 13.392V18H86.8326ZM100.294 18.216C99.5378 18.216 98.9138 18.09 98.4218 17.838C97.9298 17.586 97.5638 17.256 97.3238 16.848C97.0838 16.428 96.9638 15.972 96.9638 15.48C96.9638 14.616 97.2998 13.932 97.9718 13.428C98.6438 12.924 99.6038 12.672 100.852 12.672H103.192V12.51C103.192 11.814 103 11.292 102.616 10.944C102.244 10.596 101.758 10.422 101.158 10.422C100.63 10.422 100.168 10.554 99.7718 10.818C99.3878 11.07 99.1538 11.448 99.0698 11.952H97.1618C97.2218 11.304 97.4378 10.752 97.8098 10.296C98.1938 9.828 98.6738 9.474 99.2498 9.234C99.8378 8.982 100.48 8.856 101.176 8.856C102.424 8.856 103.39 9.186 104.074 9.846C104.758 10.494 105.1 11.382 105.1 12.51V18H103.444L103.282 16.47C103.03 16.962 102.664 17.376 102.184 17.712C101.704 18.048 101.074 18.216 100.294 18.216ZM100.672 16.668C101.188 16.668 101.62 16.548 101.968 16.308C102.328 16.056 102.604 15.726 102.796 15.318C103 14.91 103.126 14.46 103.174 13.968H101.05C100.294 13.968 99.7538 14.1 99.4298 14.364C99.1178 14.628 98.9618 14.958 98.9618 15.354C98.9618 15.762 99.1118 16.086 99.4118 16.326C99.7238 16.554 100.144 16.668 100.672 16.668ZM110.713 18C109.837 18 109.141 17.79 108.625 17.37C108.109 16.938 107.851 16.176 107.851 15.084V10.674H106.321V9.072H107.851L108.085 6.804H109.759V9.072H112.279V10.674H109.759V15.084C109.759 15.576 109.861 15.918 110.065 16.11C110.281 16.29 110.647 16.38 111.163 16.38H112.189V18H110.713ZM113.526 9.63L114.534 5.4H116.604L114.858 9.63H113.526ZM120.913 18.216C119.785 18.216 118.855 17.94 118.123 17.388C117.391 16.836 116.971 16.104 116.863 15.192H118.789C118.885 15.6 119.113 15.954 119.473 16.254C119.833 16.542 120.307 16.686 120.895 16.686C121.471 16.686 121.891 16.566 122.155 16.326C122.419 16.086 122.551 15.81 122.551 15.498C122.551 15.042 122.365 14.736 121.993 14.58C121.633 14.412 121.129 14.262 120.481 14.13C119.977 14.022 119.473 13.878 118.969 13.698C118.477 13.518 118.063 13.266 117.727 12.942C117.403 12.606 117.241 12.156 117.241 11.592C117.241 10.812 117.541 10.164 118.141 9.648C118.741 9.12 119.581 8.856 120.661 8.856C121.657 8.856 122.461 9.096 123.073 9.576C123.697 10.056 124.063 10.734 124.171 11.61H122.335C122.275 11.226 122.095 10.926 121.795 10.71C121.507 10.494 121.117 10.386 120.625 10.386C120.145 10.386 119.773 10.488 119.509 10.692C119.245 10.884 119.113 11.136 119.113 11.448C119.113 11.76 119.293 12.006 119.653 12.186C120.025 12.366 120.511 12.528 121.111 12.672C121.711 12.804 122.263 12.96 122.767 13.14C123.283 13.308 123.697 13.56 124.009 13.896C124.321 14.232 124.477 14.724 124.477 15.372C124.489 16.188 124.171 16.866 123.523 17.406C122.887 17.946 122.017 18.216 120.913 18.216ZM134.299 18.216C133.171 18.216 132.241 17.94 131.509 17.388C130.777 16.836 130.357 16.104 130.249 15.192H132.175C132.271 15.6 132.499 15.954 132.859 16.254C133.219 16.542 133.693 16.686 134.281 16.686C134.857 16.686 135.277 16.566 135.541 16.326C135.805 16.086 135.937 15.81 135.937 15.498C135.937 15.042 135.751 14.736 135.379 14.58C135.019 14.412 134.515 14.262 133.867 14.13C133.363 14.022 132.859 13.878 132.355 13.698C131.863 13.518 131.449 13.266 131.113 12.942C130.789 12.606 130.627 12.156 130.627 11.592C130.627 10.812 130.927 10.164 131.527 9.648C132.127 9.12 132.967 8.856 134.047 8.856C135.043 8.856 135.847 9.096 136.459 9.576C137.083 10.056 137.449 10.734 137.557 11.61H135.721C135.661 11.226 135.481 10.926 135.181 10.71C134.893 10.494 134.503 10.386 134.011 10.386C133.531 10.386 133.159 10.488 132.895 10.692C132.631 10.884 132.499 11.136 132.499 11.448C132.499 11.76 132.679 12.006 133.039 12.186C133.411 12.366 133.897 12.528 134.497 12.672C135.097 12.804 135.649 12.96 136.153 13.14C136.669 13.308 137.083 13.56 137.395 13.896C137.707 14.232 137.863 14.724 137.863 15.372C137.875 16.188 137.557 16.866 136.909 17.406C136.273 17.946 135.403 18.216 134.299 18.216ZM143.942 18.216C143.066 18.216 142.286 18.024 141.602 17.64C140.93 17.244 140.402 16.698 140.018 16.002C139.634 15.306 139.442 14.496 139.442 13.572C139.442 12.636 139.628 11.814 140 11.106C140.384 10.398 140.912 9.846 141.584 9.45C142.268 9.054 143.06 8.856 143.96 8.856C144.836 8.856 145.598 9.054 146.246 9.45C146.894 9.834 147.398 10.35 147.758 10.998C148.118 11.646 148.298 12.36 148.298 13.14C148.298 13.26 148.292 13.392 148.28 13.536C148.28 13.668 148.274 13.818 148.262 13.986H141.314C141.374 14.85 141.656 15.51 142.16 15.966C142.676 16.41 143.27 16.632 143.942 16.632C144.482 16.632 144.932 16.512 145.292 16.272C145.664 16.02 145.94 15.684 146.12 15.264H148.028C147.788 16.104 147.308 16.806 146.588 17.37C145.88 17.934 144.998 18.216 143.942 18.216ZM143.942 10.422C143.306 10.422 142.742 10.614 142.25 10.998C141.758 11.37 141.458 11.934 141.35 12.69H146.39C146.354 11.994 146.108 11.442 145.652 11.034C145.196 10.626 144.626 10.422 143.942 10.422ZM150.098 18V9.072H151.808L151.97 10.764C152.282 10.176 152.714 9.714 153.266 9.378C153.83 9.03 154.508 8.856 155.3 8.856V10.854H154.778C154.25 10.854 153.776 10.944 153.356 11.124C152.948 11.292 152.618 11.586 152.366 12.006C152.126 12.414 152.006 12.984 152.006 13.716V18H150.098ZM159.258 18L155.91 9.072H157.908L160.392 16.182L162.876 9.072H164.856L161.526 18H159.258ZM167.324 7.38C166.964 7.38 166.664 7.272 166.424 7.056C166.196 6.828 166.082 6.546 166.082 6.21C166.082 5.874 166.196 5.598 166.424 5.382C166.664 5.154 166.964 5.04 167.324 5.04C167.684 5.04 167.978 5.154 168.206 5.382C168.446 5.598 168.566 5.874 168.566 6.21C168.566 6.546 168.446 6.828 168.206 7.056C167.978 7.272 167.684 7.38 167.324 7.38ZM166.37 18V9.072H168.278V18H166.37ZM174.846 18.216C173.97 18.216 173.184 18.018 172.488 17.622C171.804 17.226 171.264 16.68 170.868 15.984C170.484 15.276 170.292 14.46 170.292 13.536C170.292 12.612 170.484 11.802 170.868 11.106C171.264 10.398 171.804 9.846 172.488 9.45C173.184 9.054 173.97 8.856 174.846 8.856C175.95 8.856 176.874 9.144 177.618 9.72C178.374 10.296 178.86 11.076 179.076 12.06H177.078C176.958 11.568 176.694 11.184 176.286 10.908C175.878 10.632 175.398 10.494 174.846 10.494C174.378 10.494 173.946 10.614 173.55 10.854C173.154 11.082 172.836 11.424 172.596 11.88C172.356 12.324 172.236 12.876 172.236 13.536C172.236 14.196 172.356 14.754 172.596 15.21C172.836 15.654 173.154 15.996 173.55 16.236C173.946 16.476 174.378 16.596 174.846 16.596C175.398 16.596 175.878 16.458 176.286 16.182C176.694 15.906 176.958 15.516 177.078 15.012H179.076C178.872 15.972 178.392 16.746 177.636 17.334C176.88 17.922 175.95 18.216 174.846 18.216ZM185.142 18.216C184.266 18.216 183.486 18.024 182.802 17.64C182.13 17.244 181.602 16.698 181.218 16.002C180.834 15.306 180.642 14.496 180.642 13.572C180.642 12.636 180.828 11.814 181.2 11.106C181.584 10.398 182.112 9.846 182.784 9.45C183.468 9.054 184.26 8.856 185.16 8.856C186.036 8.856 186.798 9.054 187.446 9.45C188.094 9.834 188.598 10.35 188.958 10.998C189.318 11.646 189.498 12.36 189.498 13.14C189.498 13.26 189.492 13.392 189.48 13.536C189.48 13.668 189.474 13.818 189.462 13.986H182.514C182.574 14.85 182.856 15.51 183.36 15.966C183.876 16.41 184.47 16.632 185.142 16.632C185.682 16.632 186.132 16.512 186.492 16.272C186.864 16.02 187.14 15.684 187.32 15.264H189.228C188.988 16.104 188.508 16.806 187.788 17.37C187.08 17.934 186.198 18.216 185.142 18.216ZM185.142 10.422C184.506 10.422 183.942 10.614 183.45 10.998C182.958 11.37 182.658 11.934 182.55 12.69H187.59C187.554 11.994 187.308 11.442 186.852 11.034C186.396 10.626 185.826 10.422 185.142 10.422ZM198.676 18.216C197.92 18.216 197.296 18.09 196.804 17.838C196.312 17.586 195.946 17.256 195.706 16.848C195.466 16.428 195.346 15.972 195.346 15.48C195.346 14.616 195.682 13.932 196.354 13.428C197.026 12.924 197.986 12.672 199.234 12.672H201.574V12.51C201.574 11.814 201.382 11.292 200.998 10.944C200.626 10.596 200.14 10.422 199.54 10.422C199.012 10.422 198.55 10.554 198.154 10.818C197.77 11.07 197.536 11.448 197.452 11.952H195.544C195.604 11.304 195.82 10.752 196.192 10.296C196.576 9.828 197.056 9.474 197.632 9.234C198.22 8.982 198.862 8.856 199.558 8.856C200.806 8.856 201.772 9.186 202.456 9.846C203.14 10.494 203.482 11.382 203.482 12.51V18H201.826L201.664 16.47C201.412 16.962 201.046 17.376 200.566 17.712C200.086 18.048 199.456 18.216 198.676 18.216ZM199.054 16.668C199.57 16.668 200.002 16.548 200.35 16.308C200.71 16.056 200.986 15.726 201.178 15.318C201.382 14.91 201.508 14.46 201.556 13.968H199.432C198.676 13.968 198.136 14.1 197.812 14.364C197.5 14.628 197.344 14.958 197.344 15.354C197.344 15.762 197.494 16.086 197.794 16.326C198.106 16.554 198.526 16.668 199.054 16.668ZM205.527 18V9.072H207.237L207.399 10.764C207.711 10.176 208.143 9.714 208.695 9.378C209.259 9.03 209.937 8.856 210.729 8.856V10.854H210.207C209.679 10.854 209.205 10.944 208.785 11.124C208.377 11.292 208.047 11.586 207.795 12.006C207.555 12.414 207.435 12.984 207.435 13.716V18H205.527ZM216.115 18.216C215.239 18.216 214.459 18.024 213.775 17.64C213.103 17.244 212.575 16.698 212.191 16.002C211.807 15.306 211.615 14.496 211.615 13.572C211.615 12.636 211.801 11.814 212.173 11.106C212.557 10.398 213.085 9.846 213.757 9.45C214.441 9.054 215.233 8.856 216.133 8.856C217.009 8.856 217.771 9.054 218.419 9.45C219.067 9.834 219.571 10.35 219.931 10.998C220.291 11.646 220.471 12.36 220.471 13.14C220.471 13.26 220.465 13.392 220.453 13.536C220.453 13.668 220.447 13.818 220.435 13.986H213.487C213.547 14.85 213.829 15.51 214.333 15.966C214.849 16.41 215.443 16.632 216.115 16.632C216.655 16.632 217.105 16.512 217.465 16.272C217.837 16.02 218.113 15.684 218.293 15.264H220.201C219.961 16.104 219.481 16.806 218.761 17.37C218.053 17.934 217.171 18.216 216.115 18.216ZM216.115 10.422C215.479 10.422 214.915 10.614 214.423 10.998C213.931 11.37 213.631 11.934 213.523 12.69H218.563C218.527 11.994 218.281 11.442 217.825 11.034C217.369 10.626 216.799 10.422 216.115 10.422ZM227.67 21.96L229.812 17.262H229.29L225.762 9.072H227.832L230.568 15.678L233.43 9.072H235.446L229.686 21.96H227.67ZM240.202 18.216C239.35 18.216 238.582 18.024 237.898 17.64C237.226 17.244 236.692 16.698 236.296 16.002C235.9 15.294 235.702 14.472 235.702 13.536C235.702 12.6 235.9 11.784 236.296 11.088C236.704 10.38 237.25 9.834 237.934 9.45C238.618 9.054 239.38 8.856 240.22 8.856C241.072 8.856 241.834 9.054 242.506 9.45C243.19 9.834 243.73 10.38 244.126 11.088C244.534 11.784 244.738 12.6 244.738 13.536C244.738 14.472 244.534 15.294 244.126 16.002C243.73 16.698 243.19 17.244 242.506 17.64C241.822 18.024 241.054 18.216 240.202 18.216ZM240.202 16.578C240.658 16.578 241.078 16.464 241.462 16.236C241.858 16.008 242.176 15.672 242.416 15.228C242.656 14.772 242.776 14.208 242.776 13.536C242.776 12.864 242.656 12.306 242.416 11.862C242.188 11.406 241.876 11.064 241.48 10.836C241.096 10.608 240.676 10.494 240.22 10.494C239.764 10.494 239.338 10.608 238.942 10.836C238.558 11.064 238.246 11.406 238.006 11.862C237.766 12.306 237.646 12.864 237.646 13.536C237.646 14.208 237.766 14.772 238.006 15.228C238.246 15.672 238.558 16.008 238.942 16.236C239.326 16.464 239.746 16.578 240.202 16.578ZM249.915 18.216C248.835 18.216 247.983 17.88 247.359 17.208C246.747 16.536 246.441 15.534 246.441 14.202V9.072H248.349V14.004C248.349 15.732 249.057 16.596 250.473 16.596C251.181 16.596 251.763 16.344 252.219 15.84C252.675 15.336 252.903 14.616 252.903 13.68V9.072H254.811V18H253.119L252.975 16.434C252.699 16.986 252.291 17.424 251.751 17.748C251.223 18.06 250.611 18.216 249.915 18.216ZM261.414 18V5.04H263.322V18H261.414ZM269.734 18.216C268.882 18.216 268.114 18.024 267.43 17.64C266.758 17.244 266.224 16.698 265.828 16.002C265.432 15.294 265.234 14.472 265.234 13.536C265.234 12.6 265.432 11.784 265.828 11.088C266.236 10.38 266.782 9.834 267.466 9.45C268.15 9.054 268.912 8.856 269.752 8.856C270.604 8.856 271.366 9.054 272.038 9.45C272.722 9.834 273.262 10.38 273.658 11.088C274.066 11.784 274.27 12.6 274.27 13.536C274.27 14.472 274.066 15.294 273.658 16.002C273.262 16.698 272.722 17.244 272.038 17.64C271.354 18.024 270.586 18.216 269.734 18.216ZM269.734 16.578C270.19 16.578 270.61 16.464 270.994 16.236C271.39 16.008 271.708 15.672 271.948 15.228C272.188 14.772 272.308 14.208 272.308 13.536C272.308 12.864 272.188 12.306 271.948 11.862C271.72 11.406 271.408 11.064 271.012 10.836C270.628 10.608 270.208 10.494 269.752 10.494C269.296 10.494 268.87 10.608 268.474 10.836C268.09 11.064 267.778 11.406 267.538 11.862C267.298 12.306 267.178 12.864 267.178 13.536C267.178 14.208 267.298 14.772 267.538 15.228C267.778 15.672 268.09 16.008 268.474 16.236C268.858 16.464 269.278 16.578 269.734 16.578ZM280.329 18.216C279.477 18.216 278.709 18.024 278.025 17.64C277.353 17.244 276.819 16.698 276.423 16.002C276.027 15.294 275.829 14.472 275.829 13.536C275.829 12.6 276.027 11.784 276.423 11.088C276.831 10.38 277.377 9.834 278.061 9.45C278.745 9.054 279.507 8.856 280.347 8.856C281.199 8.856 281.961 9.054 282.633 9.45C283.317 9.834 283.857 10.38 284.253 11.088C284.661 11.784 284.865 12.6 284.865 13.536C284.865 14.472 284.661 15.294 284.253 16.002C283.857 16.698 283.317 17.244 282.633 17.64C281.949 18.024 281.181 18.216 280.329 18.216ZM280.329 16.578C280.785 16.578 281.205 16.464 281.589 16.236C281.985 16.008 282.303 15.672 282.543 15.228C282.783 14.772 282.903 14.208 282.903 13.536C282.903 12.864 282.783 12.306 282.543 11.862C282.315 11.406 282.003 11.064 281.607 10.836C281.223 10.608 280.803 10.494 280.347 10.494C279.891 10.494 279.465 10.608 279.069 10.836C278.685 11.064 278.373 11.406 278.133 11.862C277.893 12.306 277.773 12.864 277.773 13.536C277.773 14.208 277.893 14.772 278.133 15.228C278.373 15.672 278.685 16.008 279.069 16.236C279.453 16.464 279.873 16.578 280.329 16.578ZM286.749 18V5.04H288.657V12.762L292.077 9.072H294.363L290.565 13.122L294.921 18H292.509L288.657 13.428V18H286.749ZM297.299 7.38C296.939 7.38 296.639 7.272 296.399 7.056C296.171 6.828 296.057 6.546 296.057 6.21C296.057 5.874 296.171 5.598 296.399 5.382C296.639 5.154 296.939 5.04 297.299 5.04C297.659 5.04 297.953 5.154 298.181 5.382C298.421 5.598 298.541 5.874 298.541 6.21C298.541 6.546 298.421 6.828 298.181 7.056C297.953 7.272 297.659 7.38 297.299 7.38ZM296.345 18V9.072H298.253V18H296.345ZM300.592 18V9.072H302.284L302.428 10.638C302.704 10.086 303.106 9.654 303.634 9.342C304.174 9.018 304.792 8.856 305.488 8.856C306.568 8.856 307.414 9.192 308.026 9.864C308.65 10.536 308.962 11.538 308.962 12.87V18H307.072V13.068C307.072 11.34 306.364 10.476 304.948 10.476C304.24 10.476 303.652 10.728 303.184 11.232C302.728 11.736 302.5 12.456 302.5 13.392V18H300.592ZM314.683 15.264C314.215 15.264 313.783 15.21 313.387 15.102L312.613 15.858C312.745 15.942 312.907 16.014 313.099 16.074C313.291 16.134 313.561 16.188 313.909 16.236C314.257 16.284 314.731 16.332 315.331 16.38C316.519 16.488 317.377 16.776 317.905 17.244C318.433 17.7 318.697 18.312 318.697 19.08C318.697 19.608 318.553 20.106 318.265 20.574C317.989 21.054 317.551 21.438 316.951 21.726C316.363 22.026 315.607 22.176 314.683 22.176C313.435 22.176 312.421 21.936 311.641 21.456C310.873 20.988 310.489 20.274 310.489 19.314C310.489 18.942 310.585 18.57 310.777 18.198C310.981 17.838 311.299 17.496 311.731 17.172C311.479 17.064 311.257 16.95 311.065 16.83C310.885 16.698 310.723 16.566 310.579 16.434V16.002L312.127 14.418C311.431 13.818 311.083 13.032 311.083 12.06C311.083 11.472 311.221 10.938 311.497 10.458C311.785 9.966 312.199 9.576 312.739 9.288C313.279 9 313.927 8.856 314.683 8.856C315.187 8.856 315.655 8.928 316.087 9.072H319.417V10.332L317.833 10.422C318.121 10.914 318.265 11.46 318.265 12.06C318.265 12.66 318.121 13.2 317.833 13.68C317.557 14.16 317.149 14.544 316.609 14.832C316.081 15.12 315.439 15.264 314.683 15.264ZM314.683 13.77C315.235 13.77 315.679 13.626 316.015 13.338C316.363 13.038 316.537 12.618 316.537 12.078C316.537 11.526 316.363 11.106 316.015 10.818C315.679 10.53 315.235 10.386 314.683 10.386C314.119 10.386 313.663 10.53 313.315 10.818C312.979 11.106 312.811 11.526 312.811 12.078C312.811 12.618 312.979 13.038 313.315 13.338C313.663 13.626 314.119 13.77 314.683 13.77ZM312.289 19.134C312.289 19.65 312.517 20.034 312.973 20.286C313.429 20.55 313.999 20.682 314.683 20.682C315.343 20.682 315.877 20.538 316.285 20.25C316.693 19.974 316.897 19.602 316.897 19.134C316.897 18.786 316.759 18.486 316.483 18.234C316.207 17.994 315.685 17.844 314.917 17.784C314.341 17.748 313.831 17.694 313.387 17.622C312.967 17.85 312.679 18.096 312.523 18.36C312.367 18.624 312.289 18.882 312.289 19.134ZM325.744 18V10.674H324.466V9.072H325.744V7.776C325.744 6.804 325.984 6.108 326.464 5.688C326.956 5.256 327.646 5.04 328.534 5.04H329.47V6.66H328.822C328.402 6.66 328.102 6.75 327.922 6.93C327.742 7.098 327.652 7.386 327.652 7.794V9.072H329.704V10.674H327.652V18H325.744ZM335.161 18.216C334.309 18.216 333.541 18.024 332.857 17.64C332.185 17.244 331.651 16.698 331.255 16.002C330.859 15.294 330.661 14.472 330.661 13.536C330.661 12.6 330.859 11.784 331.255 11.088C331.663 10.38 332.209 9.834 332.893 9.45C333.577 9.054 334.339 8.856 335.179 8.856C336.031 8.856 336.793 9.054 337.465 9.45C338.149 9.834 338.689 10.38 339.085 11.088C339.493 11.784 339.697 12.6 339.697 13.536C339.697 14.472 339.493 15.294 339.085 16.002C338.689 16.698 338.149 17.244 337.465 17.64C336.781 18.024 336.013 18.216 335.161 18.216ZM335.161 16.578C335.617 16.578 336.037 16.464 336.421 16.236C336.817 16.008 337.135 15.672 337.375 15.228C337.615 14.772 337.735 14.208 337.735 13.536C337.735 12.864 337.615 12.306 337.375 11.862C337.147 11.406 336.835 11.064 336.439 10.836C336.055 10.608 335.635 10.494 335.179 10.494C334.723 10.494 334.297 10.608 333.901 10.836C333.517 11.064 333.205 11.406 332.965 11.862C332.725 12.306 332.605 12.864 332.605 13.536C332.605 14.208 332.725 14.772 332.965 15.228C333.205 15.672 333.517 16.008 333.901 16.236C334.285 16.464 334.705 16.578 335.161 16.578ZM341.58 18V9.072H343.29L343.452 10.764C343.764 10.176 344.196 9.714 344.748 9.378C345.312 9.03 345.99 8.856 346.782 8.856V10.854H346.26C345.732 10.854 345.258 10.944 344.838 11.124C344.43 11.292 344.1 11.586 343.848 12.006C343.608 12.414 343.488 12.984 343.488 13.716V18H341.58ZM349.624 14.274L349.552 11.34H350.236C350.884 11.34 351.478 11.28 352.018 11.16C352.57 11.04 353.008 10.806 353.332 10.458C353.668 10.11 353.836 9.594 353.836 8.91C353.836 8.25 353.632 7.734 353.224 7.362C352.816 6.978 352.282 6.786 351.622 6.786C350.938 6.786 350.398 6.972 350.002 7.344C349.606 7.716 349.408 8.22 349.408 8.856H347.608C347.596 8.136 347.752 7.5 348.076 6.948C348.412 6.396 348.88 5.964 349.48 5.652C350.092 5.34 350.806 5.184 351.622 5.184C352.414 5.184 353.116 5.334 353.728 5.634C354.34 5.934 354.814 6.366 355.15 6.93C355.498 7.482 355.672 8.148 355.672 8.928C355.672 9.78 355.486 10.482 355.114 11.034C354.742 11.574 354.232 11.976 353.584 12.24C352.936 12.492 352.192 12.618 351.352 12.618L351.298 14.274H349.624ZM350.47 18.108C350.098 18.108 349.798 17.994 349.57 17.766C349.342 17.526 349.228 17.244 349.228 16.92C349.228 16.584 349.342 16.302 349.57 16.074C349.798 15.834 350.098 15.714 350.47 15.714C350.818 15.714 351.106 15.834 351.334 16.074C351.574 16.302 351.694 16.584 351.694 16.92C351.694 17.244 351.574 17.526 351.334 17.766C351.106 17.994 350.818 18.108 350.47 18.108Z" fill="white"/>
<rect x="0.75" y="0.75" width="38.5" height="24.5" rx="12.25" stroke="#999999" stroke-width="1.5"/>
<path opacity="0.6" d="M16.212 17.144C15.452 17.144 14.796 16.964 14.244 16.604C13.7 16.236 13.28 15.728 12.984 15.08C12.696 14.424 12.552 13.664 12.552 12.8C12.552 11.936 12.696 11.18 12.984 10.532C13.28 9.876 13.7 9.368 14.244 9.008C14.796 8.64 15.452 8.456 16.212 8.456C16.972 8.456 17.624 8.64 18.168 9.008C18.712 9.368 19.128 9.876 19.416 10.532C19.712 11.18 19.86 11.936 19.86 12.8C19.86 13.664 19.712 14.424 19.416 15.08C19.128 15.728 18.712 16.236 18.168 16.604C17.624 16.964 16.972 17.144 16.212 17.144ZM16.212 16.004C16.668 16.004 17.072 15.876 17.424 15.62C17.784 15.364 18.064 14.996 18.264 14.516C18.464 14.036 18.564 13.464 18.564 12.8C18.564 12.136 18.464 11.564 18.264 11.084C18.064 10.604 17.784 10.236 17.424 9.98C17.072 9.724 16.668 9.596 16.212 9.596C15.748 9.596 15.34 9.724 14.988 9.98C14.636 10.236 14.36 10.604 14.16 11.084C13.96 11.564 13.86 12.136 13.86 12.8C13.86 13.464 13.96 14.036 14.16 14.516C14.36 14.996 14.636 15.364 14.988 15.62C15.34 15.876 15.748 16.004 16.212 16.004ZM24.3258 17.144C23.7818 17.144 23.2858 17.048 22.8378 16.856C22.3978 16.656 22.0458 16.356 21.7818 15.956C21.5178 15.556 21.3778 15.056 21.3618 14.456H22.6218C22.6378 14.904 22.7898 15.284 23.0778 15.596C23.3738 15.9 23.7898 16.052 24.3258 16.052C24.8378 16.052 25.2298 15.912 25.5018 15.632C25.7738 15.344 25.9098 14.988 25.9098 14.564C25.9098 14.052 25.7258 13.672 25.3578 13.424C24.9978 13.176 24.5538 13.052 24.0258 13.052H23.4018V11.996H24.0378C24.5098 11.996 24.8898 11.884 25.1778 11.66C25.4738 11.436 25.6218 11.12 25.6218 10.712C25.6218 10.368 25.5058 10.088 25.2738 9.872C25.0498 9.656 24.7298 9.548 24.3138 9.548C23.8818 9.548 23.5418 9.676 23.2938 9.932C23.0458 10.18 22.9098 10.492 22.8858 10.868H21.6258C21.6418 10.38 21.7618 9.956 21.9858 9.596C22.2178 9.236 22.5338 8.956 22.9338 8.756C23.3338 8.556 23.7938 8.456 24.3138 8.456C24.8738 8.456 25.3418 8.556 25.7178 8.756C26.1018 8.948 26.3898 9.212 26.5818 9.548C26.7818 9.876 26.8818 10.236 26.8818 10.628C26.8818 11.076 26.7578 11.468 26.5098 11.804C26.2618 12.14 25.9298 12.364 25.5138 12.476C25.9938 12.58 26.3898 12.816 26.7018 13.184C27.0138 13.544 27.1698 14.012 27.1698 14.588C27.1698 15.052 27.0618 15.48 26.8458 15.872C26.6298 16.256 26.3098 16.564 25.8858 16.796C25.4618 17.028 24.9418 17.144 24.3258 17.144Z" fill="#999999"/>
</svg>
