<svg width="522" height="31" viewBox="0 0 522 31" fill="none" xmlns="http://www.w3.org/2000/svg">
<path d="M3.488 18.016L0.416 6.8H1.856L4.272 16.416L7.024 6.8H8.512L11.184 16.416L13.632 6.8H15.072L11.936 18H10.4L7.728 8.752L4.992 18L3.488 18.016ZM19.3283 18.192C18.5709 18.192 17.8989 18.0213 17.3123 17.68C16.7256 17.328 16.2616 16.8427 15.9203 16.224C15.5896 15.6053 15.4243 14.8747 15.4243 14.032C15.4243 13.2 15.5896 12.4747 15.9203 11.856C16.2509 11.2267 16.7096 10.7413 17.2963 10.4C17.8936 10.048 18.5816 9.872 19.3602 9.872C20.1283 9.872 20.7896 10.048 21.3443 10.4C21.9096 10.7413 22.3416 11.1947 22.6403 11.76C22.9389 12.3253 23.0883 12.9333 23.0883 13.584C23.0883 13.7013 23.0829 13.8187 23.0723 13.936C23.0723 14.0533 23.0723 14.1867 23.0723 14.336H16.7523C16.7843 14.944 16.9229 15.4507 17.1683 15.856C17.4243 16.2507 17.7389 16.5493 18.1123 16.752C18.4963 16.9547 18.9016 17.056 19.3283 17.056C19.8829 17.056 20.3469 16.928 20.7203 16.672C21.0936 16.416 21.3656 16.0693 21.5363 15.632H22.8643C22.6509 16.368 22.2403 16.9813 21.6323 17.472C21.0349 17.952 20.2669 18.192 19.3283 18.192ZM19.3283 11.008C18.6883 11.008 18.1176 11.2053 17.6163 11.6C17.1256 11.984 16.8429 12.5493 16.7682 13.296H21.7603C21.7283 12.5813 21.4829 12.0213 21.0243 11.616C20.5656 11.2107 20.0003 11.008 19.3283 11.008ZM29.1096 18.192C28.459 18.192 27.8776 18.0587 27.3656 17.792C26.8643 17.5253 26.4803 17.152 26.2136 16.672L26.0856 18H24.8696V6.48H26.2136V11.376C26.4696 10.992 26.8323 10.6453 27.3016 10.336C27.7816 10.0267 28.3896 9.872 29.1256 9.872C29.915 9.872 30.603 10.0533 31.1896 10.416C31.7763 10.7787 32.2296 11.2747 32.5496 11.904C32.8803 12.5333 33.0456 13.248 33.0456 14.048C33.0456 14.848 32.8803 15.5627 32.5496 16.192C32.2296 16.8107 31.771 17.3013 31.1736 17.664C30.587 18.016 29.899 18.192 29.1096 18.192ZM28.9656 17.024C29.499 17.024 29.9683 16.9013 30.3736 16.656C30.779 16.4 31.099 16.048 31.3336 15.6C31.5683 15.152 31.6856 14.6293 31.6856 14.032C31.6856 13.4347 31.5683 12.912 31.3336 12.464C31.099 12.016 30.779 11.6693 30.3736 11.424C29.9683 11.168 29.499 11.04 28.9656 11.04C28.4323 11.04 27.963 11.168 27.5576 11.424C27.1523 11.6693 26.8323 12.016 26.5976 12.464C26.363 12.912 26.2456 13.4347 26.2456 14.032C26.2456 14.6293 26.363 15.152 26.5976 15.6C26.8323 16.048 27.1523 16.4 27.5576 16.656C27.963 16.9013 28.4323 17.024 28.9656 17.024ZM39.2309 18V6.8H42.6709C44.6442 6.8 46.0949 7.30133 47.0229 8.304C47.9615 9.30667 48.4309 10.6827 48.4309 12.432C48.4309 14.1493 47.9615 15.5093 47.0229 16.512C46.0949 17.504 44.6442 18 42.6709 18H39.2309ZM40.5749 16.88H42.6389C43.7269 16.88 44.5909 16.704 45.2309 16.352C45.8815 15.9893 46.3455 15.4773 46.6229 14.816C46.9002 14.144 47.0389 13.3493 47.0389 12.432C47.0389 11.4933 46.9002 10.688 46.6229 10.016C46.3455 9.344 45.8815 8.82667 45.2309 8.464C44.5909 8.10133 43.7269 7.92 42.6389 7.92H40.5749V16.88ZM53.8595 18.192C53.1022 18.192 52.4302 18.0213 51.8435 17.68C51.2568 17.328 50.7928 16.8427 50.4515 16.224C50.1208 15.6053 49.9555 14.8747 49.9555 14.032C49.9555 13.2 50.1208 12.4747 50.4515 11.856C50.7822 11.2267 51.2408 10.7413 51.8275 10.4C52.4248 10.048 53.1128 9.872 53.8915 9.872C54.6595 9.872 55.3208 10.048 55.8755 10.4C56.4408 10.7413 56.8728 11.1947 57.1715 11.76C57.4702 12.3253 57.6195 12.9333 57.6195 13.584C57.6195 13.7013 57.6142 13.8187 57.6035 13.936C57.6035 14.0533 57.6035 14.1867 57.6035 14.336H51.2835C51.3155 14.944 51.4542 15.4507 51.6995 15.856C51.9555 16.2507 52.2702 16.5493 52.6435 16.752C53.0275 16.9547 53.4328 17.056 53.8595 17.056C54.4142 17.056 54.8782 16.928 55.2515 16.672C55.6248 16.416 55.8968 16.0693 56.0675 15.632H57.3955C57.1822 16.368 56.7715 16.9813 56.1635 17.472C55.5662 17.952 54.7982 18.192 53.8595 18.192ZM53.8595 11.008C53.2195 11.008 52.6488 11.2053 52.1475 11.6C51.6568 11.984 51.3742 12.5493 51.2995 13.296H56.2915C56.2595 12.5813 56.0142 12.0213 55.5555 11.616C55.0968 11.2107 54.5315 11.008 53.8595 11.008ZM62.4409 18.192C61.4915 18.192 60.7022 17.952 60.0729 17.472C59.4435 16.992 59.0755 16.3413 58.9689 15.52H60.3449C60.4302 15.936 60.6489 16.2987 61.0009 16.608C61.3635 16.9067 61.8489 17.056 62.4569 17.056C63.0222 17.056 63.4382 16.9387 63.7049 16.704C63.9715 16.4587 64.1049 16.1707 64.1049 15.84C64.1049 15.36 63.9289 15.04 63.5769 14.88C63.2355 14.72 62.7502 14.576 62.1209 14.448C61.6942 14.3627 61.2675 14.24 60.8409 14.08C60.4142 13.92 60.0569 13.696 59.7689 13.408C59.4809 13.1093 59.3369 12.72 59.3369 12.24C59.3369 11.5467 59.5929 10.9813 60.1049 10.544C60.6275 10.096 61.3315 9.872 62.2169 9.872C63.0595 9.872 63.7475 10.0853 64.2809 10.512C64.8249 10.928 65.1395 11.5253 65.2249 12.304H63.8969C63.8435 11.8987 63.6675 11.584 63.3689 11.36C63.0809 11.1253 62.6915 11.008 62.2009 11.008C61.7209 11.008 61.3475 11.1093 61.0809 11.312C60.8249 11.5147 60.6969 11.7813 60.6969 12.112C60.6969 12.432 60.8622 12.6827 61.1929 12.864C61.5342 13.0453 61.9929 13.2 62.5689 13.328C63.0595 13.4347 63.5235 13.568 63.9609 13.728C64.4089 13.8773 64.7715 14.1067 65.0489 14.416C65.3369 14.7147 65.4809 15.152 65.4809 15.728C65.4915 16.4427 65.2195 17.0347 64.6649 17.504C64.1209 17.9627 63.3795 18.192 62.4409 18.192ZM68.2169 8.304C67.9502 8.304 67.7262 8.21867 67.5449 8.048C67.3742 7.86667 67.2889 7.64267 67.2889 7.376C67.2889 7.12 67.3742 6.90667 67.5449 6.736C67.7262 6.56533 67.9502 6.48 68.2169 6.48C68.4729 6.48 68.6915 6.56533 68.8729 6.736C69.0542 6.90667 69.1449 7.12 69.1449 7.376C69.1449 7.64267 69.0542 7.86667 68.8729 8.048C68.6915 8.21867 68.4729 8.304 68.2169 8.304ZM67.5449 18V10.064H68.8889V18H67.5449ZM74.365 15.504C73.917 15.504 73.5063 15.4453 73.133 15.328L72.333 16.08C72.4503 16.1653 72.5943 16.24 72.765 16.304C72.9463 16.3573 73.2023 16.4107 73.533 16.464C73.8637 16.5067 74.3277 16.5547 74.925 16.608C75.9917 16.6827 76.7543 16.928 77.213 17.344C77.6717 17.76 77.901 18.304 77.901 18.976C77.901 19.4347 77.773 19.872 77.517 20.288C77.2717 20.704 76.8877 21.0453 76.365 21.312C75.853 21.5787 75.1917 21.712 74.381 21.712C73.6663 21.712 73.0317 21.616 72.477 21.424C71.9223 21.2427 71.4903 20.96 71.181 20.576C70.8717 20.2027 70.717 19.728 70.717 19.152C70.717 18.8533 70.797 18.528 70.957 18.176C71.117 17.8347 71.4157 17.5093 71.853 17.2C71.6183 17.104 71.4157 17.0027 71.245 16.896C71.085 16.7787 70.9357 16.6507 70.797 16.512V16.144L72.157 14.8C71.5277 14.2667 71.213 13.5627 71.213 12.688C71.213 12.1653 71.3357 11.6907 71.581 11.264C71.8263 10.8373 72.1837 10.5013 72.653 10.256C73.1223 10 73.693 9.872 74.365 9.872C74.8237 9.872 75.2397 9.936 75.613 10.064H78.541V11.072L77.053 11.136C77.3623 11.584 77.517 12.1013 77.517 12.688C77.517 13.2107 77.389 13.6853 77.133 14.112C76.8877 14.5387 76.5303 14.88 76.061 15.136C75.6023 15.3813 75.037 15.504 74.365 15.504ZM74.365 14.4C74.9303 14.4 75.3783 14.256 75.709 13.968C76.0503 13.6693 76.221 13.2427 76.221 12.688C76.221 12.144 76.0503 11.728 75.709 11.44C75.3783 11.1413 74.9303 10.992 74.365 10.992C73.789 10.992 73.3303 11.1413 72.989 11.44C72.6583 11.728 72.493 12.144 72.493 12.688C72.493 13.2427 72.6583 13.6693 72.989 13.968C73.3303 14.256 73.789 14.4 74.365 14.4ZM72.029 19.024C72.029 19.5573 72.253 19.952 72.701 20.208C73.149 20.4747 73.709 20.608 74.381 20.608C75.0423 20.608 75.5703 20.464 75.965 20.176C76.3703 19.888 76.573 19.504 76.573 19.024C76.573 18.6827 76.4343 18.384 76.157 18.128C75.8797 17.8827 75.3677 17.7387 74.621 17.696C74.0343 17.6533 73.5277 17.6 73.101 17.536C72.6637 17.7707 72.3757 18.0213 72.237 18.288C72.0983 18.5653 72.029 18.8107 72.029 19.024ZM80.0571 18V10.064H81.2731L81.3531 11.488C81.6091 10.9867 81.9771 10.592 82.4571 10.304C82.9371 10.016 83.4811 9.872 84.0891 9.872C85.0278 9.872 85.7745 10.16 86.3291 10.736C86.8945 11.3013 87.1771 12.176 87.1771 13.36V18H85.8331V13.504C85.8331 11.8507 85.1505 11.024 83.7851 11.024C83.1025 11.024 82.5318 11.2747 82.0731 11.776C81.6251 12.2667 81.4011 12.9707 81.4011 13.888V18H80.0571ZM88.1414 19.904L89.0694 16.368H90.4614L89.0694 19.904H88.1414ZM98.6755 18.016L95.6035 6.8H97.0435L99.4595 16.416L102.212 6.8H103.7L106.372 16.416L108.82 6.8H110.26L107.124 18H105.588L102.916 8.752L100.18 18L98.6755 18.016ZM114.516 18.192C113.758 18.192 113.086 18.0213 112.5 17.68C111.913 17.328 111.449 16.8427 111.108 16.224C110.777 15.6053 110.612 14.8747 110.612 14.032C110.612 13.2 110.777 12.4747 111.108 11.856C111.438 11.2267 111.897 10.7413 112.484 10.4C113.081 10.048 113.769 9.872 114.548 9.872C115.316 9.872 115.977 10.048 116.532 10.4C117.097 10.7413 117.529 11.1947 117.828 11.76C118.126 12.3253 118.276 12.9333 118.276 13.584C118.276 13.7013 118.27 13.8187 118.26 13.936C118.26 14.0533 118.26 14.1867 118.26 14.336H111.94C111.972 14.944 112.11 15.4507 112.356 15.856C112.612 16.2507 112.926 16.5493 113.3 16.752C113.684 16.9547 114.089 17.056 114.516 17.056C115.07 17.056 115.534 16.928 115.908 16.672C116.281 16.416 116.553 16.0693 116.724 15.632H118.052C117.838 16.368 117.428 16.9813 116.82 17.472C116.222 17.952 115.454 18.192 114.516 18.192ZM114.516 11.008C113.876 11.008 113.305 11.2053 112.804 11.6C112.313 11.984 112.03 12.5493 111.956 13.296H116.948C116.916 12.5813 116.67 12.0213 116.212 11.616C115.753 11.2107 115.188 11.008 114.516 11.008ZM124.297 18.192C123.646 18.192 123.065 18.0587 122.553 17.792C122.052 17.5253 121.668 17.152 121.401 16.672L121.273 18H120.057V6.48H121.401V11.376C121.657 10.992 122.02 10.6453 122.489 10.336C122.969 10.0267 123.577 9.872 124.313 9.872C125.102 9.872 125.79 10.0533 126.377 10.416C126.964 10.7787 127.417 11.2747 127.737 11.904C128.068 12.5333 128.233 13.248 128.233 14.048C128.233 14.848 128.068 15.5627 127.737 16.192C127.417 16.8107 126.958 17.3013 126.361 17.664C125.774 18.016 125.086 18.192 124.297 18.192ZM124.153 17.024C124.686 17.024 125.156 16.9013 125.561 16.656C125.966 16.4 126.286 16.048 126.521 15.6C126.756 15.152 126.873 14.6293 126.873 14.032C126.873 13.4347 126.756 12.912 126.521 12.464C126.286 12.016 125.966 11.6693 125.561 11.424C125.156 11.168 124.686 11.04 124.153 11.04C123.62 11.04 123.15 11.168 122.745 11.424C122.34 11.6693 122.02 12.016 121.785 12.464C121.55 12.912 121.433 13.4347 121.433 14.032C121.433 14.6293 121.55 15.152 121.785 15.6C122.02 16.048 122.34 16.4 122.745 16.656C123.15 16.9013 123.62 17.024 124.153 17.024ZM134.418 18V6.8H137.858C139.832 6.8 141.282 7.30133 142.21 8.304C143.149 9.30667 143.618 10.6827 143.618 12.432C143.618 14.1493 143.149 15.5093 142.21 16.512C141.282 17.504 139.832 18 137.858 18H134.418ZM135.762 16.88H137.826C138.914 16.88 139.778 16.704 140.418 16.352C141.069 15.9893 141.533 15.4773 141.81 14.816C142.088 14.144 142.226 13.3493 142.226 12.432C142.226 11.4933 142.088 10.688 141.81 10.016C141.533 9.344 141.069 8.82667 140.418 8.464C139.778 8.10133 138.914 7.92 137.826 7.92H135.762V16.88ZM149.047 18.192C148.29 18.192 147.618 18.0213 147.031 17.68C146.444 17.328 145.98 16.8427 145.639 16.224C145.308 15.6053 145.143 14.8747 145.143 14.032C145.143 13.2 145.308 12.4747 145.639 11.856C145.97 11.2267 146.428 10.7413 147.015 10.4C147.612 10.048 148.3 9.872 149.079 9.872C149.847 9.872 150.508 10.048 151.063 10.4C151.628 10.7413 152.06 11.1947 152.359 11.76C152.658 12.3253 152.807 12.9333 152.807 13.584C152.807 13.7013 152.802 13.8187 152.791 13.936C152.791 14.0533 152.791 14.1867 152.791 14.336H146.471C146.503 14.944 146.642 15.4507 146.887 15.856C147.143 16.2507 147.458 16.5493 147.831 16.752C148.215 16.9547 148.62 17.056 149.047 17.056C149.602 17.056 150.066 16.928 150.439 16.672C150.812 16.416 151.084 16.0693 151.255 15.632H152.583C152.37 16.368 151.959 16.9813 151.351 17.472C150.754 17.952 149.986 18.192 149.047 18.192ZM149.047 11.008C148.407 11.008 147.836 11.2053 147.335 11.6C146.844 11.984 146.562 12.5493 146.487 13.296H151.479C151.447 12.5813 151.202 12.0213 150.743 11.616C150.284 11.2107 149.719 11.008 149.047 11.008ZM156.564 18L153.556 10.064H154.964L157.348 16.704L159.748 10.064H161.124L158.116 18H156.564ZM165.781 18.192C165.024 18.192 164.352 18.0213 163.765 17.68C163.179 17.328 162.715 16.8427 162.373 16.224C162.043 15.6053 161.877 14.8747 161.877 14.032C161.877 13.2 162.043 12.4747 162.373 11.856C162.704 11.2267 163.163 10.7413 163.749 10.4C164.347 10.048 165.035 9.872 165.813 9.872C166.581 9.872 167.243 10.048 167.797 10.4C168.363 10.7413 168.795 11.1947 169.093 11.76C169.392 12.3253 169.541 12.9333 169.541 13.584C169.541 13.7013 169.536 13.8187 169.525 13.936C169.525 14.0533 169.525 14.1867 169.525 14.336H163.205C163.237 14.944 163.376 15.4507 163.621 15.856C163.877 16.2507 164.192 16.5493 164.565 16.752C164.949 16.9547 165.355 17.056 165.781 17.056C166.336 17.056 166.8 16.928 167.173 16.672C167.547 16.416 167.819 16.0693 167.989 15.632H169.317C169.104 16.368 168.693 16.9813 168.085 17.472C167.488 17.952 166.72 18.192 165.781 18.192ZM165.781 11.008C165.141 11.008 164.571 11.2053 164.069 11.6C163.579 11.984 163.296 12.5493 163.221 13.296H168.213C168.181 12.5813 167.936 12.0213 167.477 11.616C167.019 11.2107 166.453 11.008 165.781 11.008ZM171.323 18V6.48H172.667V18H171.323ZM178.486 18.192C177.739 18.192 177.067 18.0213 176.47 17.68C175.872 17.3387 175.398 16.8587 175.046 16.24C174.704 15.6107 174.534 14.8747 174.534 14.032C174.534 13.1893 174.71 12.4587 175.062 11.84C175.414 11.2107 175.888 10.7253 176.486 10.384C177.094 10.0427 177.771 9.872 178.518 9.872C179.264 9.872 179.936 10.0427 180.534 10.384C181.131 10.7253 181.6 11.2107 181.942 11.84C182.294 12.4587 182.47 13.1893 182.47 14.032C182.47 14.8747 182.294 15.6107 181.942 16.24C181.59 16.8587 181.11 17.3387 180.502 17.68C179.904 18.0213 179.232 18.192 178.486 18.192ZM178.486 17.04C178.944 17.04 179.371 16.928 179.766 16.704C180.16 16.48 180.48 16.144 180.726 15.696C180.971 15.248 181.094 14.6933 181.094 14.032C181.094 13.3707 180.971 12.816 180.726 12.368C180.491 11.92 180.176 11.584 179.782 11.36C179.387 11.136 178.966 11.024 178.518 11.024C178.059 11.024 177.632 11.136 177.238 11.36C176.843 11.584 176.523 11.92 176.278 12.368C176.032 12.816 175.91 13.3707 175.91 14.032C175.91 14.6933 176.032 15.248 176.278 15.696C176.523 16.144 176.838 16.48 177.222 16.704C177.616 16.928 178.038 17.04 178.486 17.04ZM184.338 21.52V10.064H185.554L185.682 11.376C185.938 10.992 186.301 10.6453 186.77 10.336C187.25 10.0267 187.858 9.872 188.594 9.872C189.384 9.872 190.072 10.0533 190.658 10.416C191.245 10.7787 191.698 11.2747 192.018 11.904C192.349 12.5333 192.514 13.248 192.514 14.048C192.514 14.848 192.349 15.5627 192.018 16.192C191.698 16.8107 191.24 17.3013 190.642 17.664C190.056 18.016 189.368 18.192 188.578 18.192C187.928 18.192 187.346 18.0587 186.834 17.792C186.333 17.5253 185.949 17.152 185.682 16.672V21.52H184.338ZM188.434 17.024C188.968 17.024 189.437 16.9013 189.842 16.656C190.248 16.4 190.568 16.048 190.802 15.6C191.037 15.152 191.154 14.6293 191.154 14.032C191.154 13.4347 191.037 12.912 190.802 12.464C190.568 12.016 190.248 11.6693 189.842 11.424C189.437 11.168 188.968 11.04 188.434 11.04C187.901 11.04 187.432 11.168 187.026 11.424C186.621 11.6693 186.301 12.016 186.066 12.464C185.832 12.912 185.714 13.4347 185.714 14.032C185.714 14.6293 185.832 15.152 186.066 15.6C186.301 16.048 186.621 16.4 187.026 16.656C187.432 16.9013 187.901 17.024 188.434 17.024ZM194.385 18V10.064H195.601L195.697 11.216C195.953 10.7893 196.295 10.4587 196.721 10.224C197.148 9.98933 197.628 9.872 198.161 9.872C198.791 9.872 199.329 10 199.777 10.256C200.236 10.512 200.588 10.9013 200.833 11.424C201.111 10.944 201.489 10.5653 201.969 10.288C202.46 10.0107 202.988 9.872 203.553 9.872C204.503 9.872 205.26 10.16 205.825 10.736C206.391 11.3013 206.673 12.176 206.673 13.36V18H205.345V13.504C205.345 12.6827 205.18 12.064 204.849 11.648C204.519 11.232 204.044 11.024 203.425 11.024C202.785 11.024 202.252 11.2747 201.825 11.776C201.409 12.2667 201.201 12.9707 201.201 13.888V18H199.857V13.504C199.857 12.6827 199.692 12.064 199.361 11.648C199.031 11.232 198.556 11.024 197.937 11.024C197.308 11.024 196.78 11.2747 196.353 11.776C195.937 12.2667 195.729 12.9707 195.729 13.888V18H194.385ZM212.266 18.192C211.508 18.192 210.836 18.0213 210.25 17.68C209.663 17.328 209.199 16.8427 208.858 16.224C208.527 15.6053 208.362 14.8747 208.362 14.032C208.362 13.2 208.527 12.4747 208.858 11.856C209.188 11.2267 209.647 10.7413 210.234 10.4C210.831 10.048 211.519 9.872 212.298 9.872C213.066 9.872 213.727 10.048 214.282 10.4C214.847 10.7413 215.279 11.1947 215.578 11.76C215.876 12.3253 216.026 12.9333 216.026 13.584C216.026 13.7013 216.02 13.8187 216.01 13.936C216.01 14.0533 216.01 14.1867 216.01 14.336H209.69C209.722 14.944 209.86 15.4507 210.106 15.856C210.362 16.2507 210.676 16.5493 211.05 16.752C211.434 16.9547 211.839 17.056 212.266 17.056C212.82 17.056 213.284 16.928 213.658 16.672C214.031 16.416 214.303 16.0693 214.474 15.632H215.802C215.588 16.368 215.178 16.9813 214.57 17.472C213.972 17.952 213.204 18.192 212.266 18.192ZM212.266 11.008C211.626 11.008 211.055 11.2053 210.554 11.6C210.063 11.984 209.78 12.5493 209.706 13.296H214.698C214.666 12.5813 214.42 12.0213 213.962 11.616C213.503 11.2107 212.938 11.008 212.266 11.008ZM217.807 18V10.064H219.023L219.103 11.488C219.359 10.9867 219.727 10.592 220.207 10.304C220.687 10.016 221.231 9.872 221.839 9.872C222.778 9.872 223.524 10.16 224.079 10.736C224.644 11.3013 224.927 12.176 224.927 13.36V18H223.583V13.504C223.583 11.8507 222.9 11.024 221.535 11.024C220.852 11.024 220.282 11.2747 219.823 11.776C219.375 12.2667 219.151 12.9707 219.151 13.888V18H217.807ZM230.099 18C229.374 18 228.803 17.824 228.387 17.472C227.971 17.12 227.763 16.4853 227.763 15.568V11.2H226.387V10.064H227.763L227.939 8.16H229.107V10.064H231.443V11.2H229.107V15.568C229.107 16.0693 229.209 16.4107 229.411 16.592C229.614 16.7627 229.971 16.848 230.483 16.848H231.315V18H230.099ZM237.849 18.08C237.583 18.08 237.359 17.9947 237.177 17.824C237.007 17.6427 236.921 17.424 236.921 17.168C236.921 16.912 237.007 16.6987 237.177 16.528C237.359 16.3467 237.583 16.256 237.849 16.256C238.105 16.256 238.319 16.3467 238.489 16.528C238.671 16.6987 238.761 16.912 238.761 17.168C238.761 17.424 238.671 17.6427 238.489 17.824C238.319 17.9947 238.105 18.08 237.849 18.08ZM240.974 18.08C240.708 18.08 240.484 17.9947 240.302 17.824C240.132 17.6427 240.046 17.424 240.046 17.168C240.046 16.912 240.132 16.6987 240.302 16.528C240.484 16.3467 240.708 16.256 240.974 16.256C241.23 16.256 241.444 16.3467 241.614 16.528C241.796 16.6987 241.886 16.912 241.886 17.168C241.886 17.424 241.796 17.6427 241.614 17.824C241.444 17.9947 241.23 18.08 240.974 18.08ZM244.099 18.08C243.833 18.08 243.609 17.9947 243.427 17.824C243.257 17.6427 243.171 17.424 243.171 17.168C243.171 16.912 243.257 16.6987 243.427 16.528C243.609 16.3467 243.833 16.256 244.099 16.256C244.355 16.256 244.569 16.3467 244.739 16.528C244.921 16.6987 245.011 16.912 245.011 17.168C245.011 17.424 244.921 17.6427 244.739 17.824C244.569 17.9947 244.355 18.08 244.099 18.08Z" fill="#999999"/>
<line opacity="0.6" y1="30.25" x2="522" y2="30.25" stroke="#999999" stroke-width="1.5"/>
</svg>
