<svg width="40" height="26" viewBox="0 0 40 26" fill="none" xmlns="http://www.w3.org/2000/svg">
<rect x="0.75" y="0.75" width="38.5" height="24.5" rx="12.25" stroke="#999999" stroke-width="1.5"/>
<path opacity="0.6" d="M16.212 17.144C15.452 17.144 14.796 16.964 14.244 16.604C13.7 16.236 13.28 15.728 12.984 15.08C12.696 14.424 12.552 13.664 12.552 12.8C12.552 11.936 12.696 11.18 12.984 10.532C13.28 9.876 13.7 9.368 14.244 9.008C14.796 8.64 15.452 8.456 16.212 8.456C16.972 8.456 17.624 8.64 18.168 9.008C18.712 9.368 19.128 9.876 19.416 10.532C19.712 11.18 19.86 11.936 19.86 12.8C19.86 13.664 19.712 14.424 19.416 15.08C19.128 15.728 18.712 16.236 18.168 16.604C17.624 16.964 16.972 17.144 16.212 17.144ZM16.212 16.004C16.668 16.004 17.072 15.876 17.424 15.62C17.784 15.364 18.064 14.996 18.264 14.516C18.464 14.036 18.564 13.464 18.564 12.8C18.564 12.136 18.464 11.564 18.264 11.084C18.064 10.604 17.784 10.236 17.424 9.98C17.072 9.724 16.668 9.596 16.212 9.596C15.748 9.596 15.34 9.724 14.988 9.98C14.636 10.236 14.36 10.604 14.16 11.084C13.96 11.564 13.86 12.136 13.86 12.8C13.86 13.464 13.96 14.036 14.16 14.516C14.36 14.996 14.636 15.364 14.988 15.62C15.34 15.876 15.748 16.004 16.212 16.004ZM24.3258 17.144C23.7818 17.144 23.2858 17.048 22.8378 16.856C22.3978 16.656 22.0458 16.356 21.7818 15.956C21.5178 15.556 21.3778 15.056 21.3618 14.456H22.6218C22.6378 14.904 22.7898 15.284 23.0778 15.596C23.3738 15.9 23.7898 16.052 24.3258 16.052C24.8378 16.052 25.2298 15.912 25.5018 15.632C25.7738 15.344 25.9098 14.988 25.9098 14.564C25.9098 14.052 25.7258 13.672 25.3578 13.424C24.9978 13.176 24.5538 13.052 24.0258 13.052H23.4018V11.996H24.0378C24.5098 11.996 24.8898 11.884 25.1778 11.66C25.4738 11.436 25.6218 11.12 25.6218 10.712C25.6218 10.368 25.5058 10.088 25.2738 9.872C25.0498 9.656 24.7298 9.548 24.3138 9.548C23.8818 9.548 23.5418 9.676 23.2938 9.932C23.0458 10.18 22.9098 10.492 22.8858 10.868H21.6258C21.6418 10.38 21.7618 9.956 21.9858 9.596C22.2178 9.236 22.5338 8.956 22.9338 8.756C23.3338 8.556 23.7938 8.456 24.3138 8.456C24.8738 8.456 25.3418 8.556 25.7178 8.756C26.1018 8.948 26.3898 9.212 26.5818 9.548C26.7818 9.876 26.8818 10.236 26.8818 10.628C26.8818 11.076 26.7578 11.468 26.5098 11.804C26.2618 12.14 25.9298 12.364 25.5138 12.476C25.9938 12.58 26.3898 12.816 26.7018 13.184C27.0138 13.544 27.1698 14.012 27.1698 14.588C27.1698 15.052 27.0618 15.48 26.8458 15.872C26.6298 16.256 26.3098 16.564 25.8858 16.796C25.4618 17.028 24.9418 17.144 24.3258 17.144Z" fill="#999999"/>
</svg>
