<svg width="590" height="73" viewBox="0 0 590 73" fill="none" xmlns="http://www.w3.org/2000/svg">
<path d="M72.672 60.192C71.9147 60.192 71.2427 60.0213 70.656 59.68C70.0693 59.328 69.6053 58.8427 69.264 58.224C68.9333 57.6053 68.768 56.8747 68.768 56.032C68.768 55.2 68.9333 54.4747 69.264 53.856C69.5947 53.2267 70.0533 52.7413 70.64 52.4C71.2373 52.048 71.9253 51.872 72.704 51.872C73.472 51.872 74.1333 52.048 74.688 52.4C75.2533 52.7413 75.6853 53.1947 75.984 53.76C76.2827 54.3253 76.432 54.9333 76.432 55.584C76.432 55.7013 76.4267 55.8187 76.416 55.936C76.416 56.0533 76.416 56.1867 76.416 56.336H70.096C70.128 56.944 70.2667 57.4507 70.512 57.856C70.768 58.2507 71.0827 58.5493 71.456 58.752C71.84 58.9547 72.2453 59.056 72.672 59.056C73.2267 59.056 73.6907 58.928 74.064 58.672C74.4373 58.416 74.7093 58.0693 74.88 57.632H76.208C75.9947 58.368 75.584 58.9813 74.976 59.472C74.3787 59.952 73.6107 60.192 72.672 60.192ZM72.672 53.008C72.032 53.008 71.4613 53.2053 70.96 53.6C70.4693 53.984 70.1867 54.5493 70.112 55.296H75.104C75.072 54.5813 74.8267 54.0213 74.368 53.616C73.9093 53.2107 73.344 53.008 72.672 53.008ZM77.0384 60L79.7904 56.032L77.0384 52.064H78.4944L80.7184 55.344L82.9584 52.064H84.3984L81.6464 56.032L84.3984 60H82.9584L80.7184 56.72L78.4944 60H77.0384ZM88.4003 60.192C87.7389 60.192 87.1896 60.08 86.7523 59.856C86.3149 59.632 85.9896 59.3333 85.7763 58.96C85.5629 58.5867 85.4563 58.1813 85.4563 57.744C85.4563 56.9333 85.7656 56.3093 86.3843 55.872C87.0029 55.4347 87.8456 55.216 88.9123 55.216H91.0563V55.12C91.0563 54.4267 90.8749 53.904 90.5123 53.552C90.1496 53.1893 89.6643 53.008 89.0563 53.008C88.5336 53.008 88.0803 53.1413 87.6963 53.408C87.3229 53.664 87.0883 54.0427 86.9923 54.544H85.6163C85.6696 53.968 85.8616 53.4827 86.1923 53.088C86.5336 52.6933 86.9549 52.3947 87.4563 52.192C87.9576 51.9787 88.4909 51.872 89.0563 51.872C90.1656 51.872 90.9976 52.1707 91.5523 52.768C92.1176 53.3547 92.4003 54.1387 92.4003 55.12V60H91.2003L91.1203 58.576C90.8963 59.024 90.5656 59.408 90.1283 59.728C89.7016 60.0373 89.1256 60.192 88.4003 60.192ZM88.6083 59.056C89.1203 59.056 89.5576 58.9227 89.9203 58.656C90.2936 58.3893 90.5763 58.0427 90.7683 57.616C90.9603 57.1893 91.0563 56.7413 91.0563 56.272V56.256H89.0243C88.2349 56.256 87.6749 56.3947 87.3443 56.672C87.0243 56.9387 86.8643 57.2747 86.8643 57.68C86.8643 58.096 87.0136 58.432 87.3123 58.688C87.6216 58.9333 88.0536 59.056 88.6083 59.056ZM94.4165 60V52.064H95.6325L95.7285 53.216C95.9845 52.7893 96.3258 52.4587 96.7525 52.224C97.1792 51.9893 97.6592 51.872 98.1925 51.872C98.8218 51.872 99.3605 52 99.8085 52.256C100.267 52.512 100.619 52.9013 100.865 53.424C101.142 52.944 101.521 52.5653 102.001 52.288C102.491 52.0107 103.019 51.872 103.585 51.872C104.534 51.872 105.291 52.16 105.857 52.736C106.422 53.3013 106.705 54.176 106.705 55.36V60H105.377V55.504C105.377 54.6827 105.211 54.064 104.881 53.648C104.55 53.232 104.075 53.024 103.457 53.024C102.817 53.024 102.283 53.2747 101.857 53.776C101.441 54.2667 101.233 54.9707 101.233 55.888V60H99.8885V55.504C99.8885 54.6827 99.7232 54.064 99.3925 53.648C99.0618 53.232 98.5872 53.024 97.9685 53.024C97.3392 53.024 96.8112 53.2747 96.3845 53.776C95.9685 54.2667 95.7605 54.9707 95.7605 55.888V60H94.4165ZM108.729 63.52V52.064H109.945L110.073 53.376C110.329 52.992 110.692 52.6453 111.161 52.336C111.641 52.0267 112.249 51.872 112.985 51.872C113.774 51.872 114.462 52.0533 115.049 52.416C115.636 52.7787 116.089 53.2747 116.409 53.904C116.74 54.5333 116.905 55.248 116.905 56.048C116.905 56.848 116.74 57.5627 116.409 58.192C116.089 58.8107 115.63 59.3013 115.033 59.664C114.446 60.016 113.758 60.192 112.969 60.192C112.318 60.192 111.737 60.0587 111.225 59.792C110.724 59.5253 110.34 59.152 110.073 58.672V63.52H108.729ZM112.825 59.024C113.358 59.024 113.828 58.9013 114.233 58.656C114.638 58.4 114.958 58.048 115.193 57.6C115.428 57.152 115.545 56.6293 115.545 56.032C115.545 55.4347 115.428 54.912 115.193 54.464C114.958 54.016 114.638 53.6693 114.233 53.424C113.828 53.168 113.358 53.04 112.825 53.04C112.292 53.04 111.822 53.168 111.417 53.424C111.012 53.6693 110.692 54.016 110.457 54.464C110.222 54.912 110.105 55.4347 110.105 56.032C110.105 56.6293 110.222 57.152 110.457 57.6C110.692 58.048 111.012 58.4 111.417 58.656C111.822 58.9013 112.292 59.024 112.825 59.024ZM118.776 60V48.48H120.12V60H118.776ZM125.891 60.192C125.133 60.192 124.461 60.0213 123.875 59.68C123.288 59.328 122.824 58.8427 122.483 58.224C122.152 57.6053 121.987 56.8747 121.987 56.032C121.987 55.2 122.152 54.4747 122.483 53.856C122.813 53.2267 123.272 52.7413 123.859 52.4C124.456 52.048 125.144 51.872 125.923 51.872C126.691 51.872 127.352 52.048 127.907 52.4C128.472 52.7413 128.904 53.1947 129.203 53.76C129.501 54.3253 129.651 54.9333 129.651 55.584C129.651 55.7013 129.645 55.8187 129.635 55.936C129.635 56.0533 129.635 56.1867 129.635 56.336H123.315C123.347 56.944 123.485 57.4507 123.731 57.856C123.987 58.2507 124.301 58.5493 124.675 58.752C125.059 58.9547 125.464 59.056 125.891 59.056C126.445 59.056 126.909 58.928 127.283 58.672C127.656 58.416 127.928 58.0693 128.099 57.632H129.427C129.213 58.368 128.803 58.9813 128.195 59.472C127.597 59.952 126.829 60.192 125.891 60.192ZM125.891 53.008C125.251 53.008 124.68 53.2053 124.179 53.6C123.688 53.984 123.405 54.5493 123.331 55.296H128.323C128.291 54.5813 128.045 54.0213 127.587 53.616C127.128 53.2107 126.563 53.008 125.891 53.008ZM137.24 63.184C136.099 63.184 135.096 62.9653 134.232 62.528C133.379 62.0907 132.712 61.472 132.232 60.672C131.763 59.872 131.528 58.9227 131.528 57.824C131.528 56.6933 131.725 55.6373 132.12 54.656C132.515 53.6747 133.069 52.816 133.784 52.08C134.499 51.344 135.341 50.7733 136.312 50.368C137.283 49.9627 138.349 49.76 139.512 49.76C140.696 49.76 141.725 49.9893 142.6 50.448C143.475 50.896 144.147 51.5253 144.616 52.336C145.096 53.136 145.336 54.0693 145.336 55.136C145.336 55.744 145.261 56.3467 145.112 56.944C144.963 57.5307 144.739 58.064 144.44 58.544C144.152 59.0133 143.795 59.392 143.368 59.68C142.952 59.9573 142.472 60.096 141.928 60.096C141.384 60.096 140.968 59.9573 140.68 59.68C140.403 59.4027 140.248 59.0293 140.216 58.56C139.885 59.04 139.464 59.4187 138.952 59.696C138.451 59.9627 137.917 60.096 137.352 60.096C136.541 60.096 135.907 59.8507 135.448 59.36C135 58.8693 134.776 58.208 134.776 57.376C134.776 56.7893 134.867 56.2293 135.048 55.696C135.24 55.152 135.507 54.672 135.848 54.256C136.189 53.8293 136.595 53.4933 137.064 53.248C137.533 53.0027 138.056 52.88 138.632 52.88C139.709 52.88 140.408 53.3227 140.728 54.208L140.936 53.056H142.072L141.272 57.632C141.197 58.0907 141.219 58.464 141.336 58.752C141.464 59.0293 141.725 59.168 142.12 59.168C142.461 59.168 142.765 59.0507 143.032 58.816C143.299 58.5707 143.523 58.2507 143.704 57.856C143.885 57.4507 144.019 57.0187 144.104 56.56C144.2 56.0907 144.248 55.6373 144.248 55.2C144.248 53.8027 143.811 52.704 142.936 51.904C142.072 51.104 140.877 50.704 139.352 50.704C138.381 50.704 137.485 50.8853 136.664 51.248C135.853 51.6107 135.144 52.112 134.536 52.752C133.928 53.392 133.453 54.1333 133.112 54.976C132.781 55.8187 132.616 56.7307 132.616 57.712C132.616 58.672 132.813 59.488 133.208 60.16C133.603 60.832 134.163 61.344 134.888 61.696C135.613 62.048 136.477 62.224 137.48 62.224C137.939 62.224 138.397 62.176 138.856 62.08C139.315 61.9947 139.741 61.8613 140.136 61.68L140.36 62.592C139.4 62.9867 138.36 63.184 137.24 63.184ZM137.752 59.072C138.211 59.072 138.632 58.9493 139.016 58.704C139.4 58.4587 139.715 58.1227 139.96 57.696C140.205 57.2587 140.355 56.7573 140.408 56.192C140.483 55.5627 140.371 55.024 140.072 54.576C139.784 54.128 139.315 53.904 138.664 53.904C138.12 53.904 137.645 54.064 137.24 54.384C136.845 54.6933 136.541 55.0987 136.328 55.6C136.115 56.1013 136.008 56.624 136.008 57.168C136.008 57.744 136.152 58.208 136.44 58.56C136.739 58.9013 137.176 59.072 137.752 59.072ZM150.771 57.504C150.323 57.504 149.913 57.4453 149.539 57.328L148.739 58.08C148.857 58.1653 149.001 58.24 149.171 58.304C149.353 58.3573 149.609 58.4107 149.939 58.464C150.27 58.5067 150.734 58.5547 151.331 58.608C152.398 58.6827 153.161 58.928 153.619 59.344C154.078 59.76 154.307 60.304 154.307 60.976C154.307 61.4347 154.179 61.872 153.923 62.288C153.678 62.704 153.294 63.0453 152.771 63.312C152.259 63.5787 151.598 63.712 150.787 63.712C150.073 63.712 149.438 63.616 148.883 63.424C148.329 63.2427 147.897 62.96 147.587 62.576C147.278 62.2027 147.123 61.728 147.123 61.152C147.123 60.8533 147.203 60.528 147.363 60.176C147.523 59.8347 147.822 59.5093 148.259 59.2C148.025 59.104 147.822 59.0027 147.651 58.896C147.491 58.7787 147.342 58.6507 147.203 58.512V58.144L148.563 56.8C147.934 56.2667 147.619 55.5627 147.619 54.688C147.619 54.1653 147.742 53.6907 147.987 53.264C148.233 52.8373 148.59 52.5013 149.059 52.256C149.529 52 150.099 51.872 150.771 51.872C151.23 51.872 151.646 51.936 152.019 52.064H154.947V53.072L153.459 53.136C153.769 53.584 153.923 54.1013 153.923 54.688C153.923 55.2107 153.795 55.6853 153.539 56.112C153.294 56.5387 152.937 56.88 152.467 57.136C152.009 57.3813 151.443 57.504 150.771 57.504ZM150.771 56.4C151.337 56.4 151.785 56.256 152.115 55.968C152.457 55.6693 152.627 55.2427 152.627 54.688C152.627 54.144 152.457 53.728 152.115 53.44C151.785 53.1413 151.337 52.992 150.771 52.992C150.195 52.992 149.737 53.1413 149.395 53.44C149.065 53.728 148.899 54.144 148.899 54.688C148.899 55.2427 149.065 55.6693 149.395 55.968C149.737 56.256 150.195 56.4 150.771 56.4ZM148.435 61.024C148.435 61.5573 148.659 61.952 149.107 62.208C149.555 62.4747 150.115 62.608 150.787 62.608C151.449 62.608 151.977 62.464 152.371 62.176C152.777 61.888 152.979 61.504 152.979 61.024C152.979 60.6827 152.841 60.384 152.563 60.128C152.286 59.8827 151.774 59.7387 151.027 59.696C150.441 59.6533 149.934 59.6 149.507 59.536C149.07 59.7707 148.782 60.0213 148.643 60.288C148.505 60.5653 148.435 60.8107 148.435 61.024ZM156.463 60V52.064H157.679L157.775 53.216C158.031 52.7893 158.373 52.4587 158.799 52.224C159.226 51.9893 159.706 51.872 160.239 51.872C160.869 51.872 161.407 52 161.855 52.256C162.314 52.512 162.666 52.9013 162.911 53.424C163.189 52.944 163.567 52.5653 164.047 52.288C164.538 52.0107 165.066 51.872 165.631 51.872C166.581 51.872 167.338 52.16 167.903 52.736C168.469 53.3013 168.751 54.176 168.751 55.36V60H167.423V55.504C167.423 54.6827 167.258 54.064 166.927 53.648C166.597 53.232 166.122 53.024 165.503 53.024C164.863 53.024 164.33 53.2747 163.903 53.776C163.487 54.2667 163.279 54.9707 163.279 55.888V60H161.935V55.504C161.935 54.6827 161.77 54.064 161.439 53.648C161.109 53.232 160.634 53.024 160.015 53.024C159.386 53.024 158.858 53.2747 158.431 53.776C158.015 54.2667 157.807 54.9707 157.807 55.888V60H156.463ZM173.416 60.192C172.755 60.192 172.205 60.08 171.768 59.856C171.331 59.632 171.005 59.3333 170.792 58.96C170.579 58.5867 170.472 58.1813 170.472 57.744C170.472 56.9333 170.781 56.3093 171.4 55.872C172.019 55.4347 172.861 55.216 173.928 55.216H176.072V55.12C176.072 54.4267 175.891 53.904 175.528 53.552C175.165 53.1893 174.68 53.008 174.072 53.008C173.549 53.008 173.096 53.1413 172.712 53.408C172.339 53.664 172.104 54.0427 172.008 54.544H170.632C170.685 53.968 170.877 53.4827 171.208 53.088C171.549 52.6933 171.971 52.3947 172.472 52.192C172.973 51.9787 173.507 51.872 174.072 51.872C175.181 51.872 176.013 52.1707 176.568 52.768C177.133 53.3547 177.416 54.1387 177.416 55.12V60H176.216L176.136 58.576C175.912 59.024 175.581 59.408 175.144 59.728C174.717 60.0373 174.141 60.192 173.416 60.192ZM173.624 59.056C174.136 59.056 174.573 58.9227 174.936 58.656C175.309 58.3893 175.592 58.0427 175.784 57.616C175.976 57.1893 176.072 56.7413 176.072 56.272V56.256H174.04C173.251 56.256 172.691 56.3947 172.36 56.672C172.04 56.9387 171.88 57.2747 171.88 57.68C171.88 58.096 172.029 58.432 172.328 58.688C172.637 58.9333 173.069 59.056 173.624 59.056ZM180.248 50.304C179.981 50.304 179.757 50.2187 179.576 50.048C179.405 49.8667 179.32 49.6427 179.32 49.376C179.32 49.12 179.405 48.9067 179.576 48.736C179.757 48.5653 179.981 48.48 180.248 48.48C180.504 48.48 180.723 48.5653 180.904 48.736C181.085 48.9067 181.176 49.12 181.176 49.376C181.176 49.6427 181.085 49.8667 180.904 50.048C180.723 50.2187 180.504 50.304 180.248 50.304ZM179.576 60V52.064H180.92V60H179.576ZM183.26 60V48.48H184.604V60H183.26ZM187.271 60.08C187.004 60.08 186.78 59.9947 186.599 59.824C186.428 59.6427 186.343 59.424 186.343 59.168C186.343 58.912 186.428 58.6987 186.599 58.528C186.78 58.3467 187.004 58.256 187.271 58.256C187.527 58.256 187.74 58.3467 187.911 58.528C188.092 58.6987 188.183 58.912 188.183 59.168C188.183 59.424 188.092 59.6427 187.911 59.824C187.74 59.9947 187.527 60.08 187.271 60.08ZM193.58 60.192C192.823 60.192 192.14 60.0213 191.532 59.68C190.935 59.328 190.46 58.8427 190.108 58.224C189.767 57.5947 189.596 56.864 189.596 56.032C189.596 55.2 189.767 54.4747 190.108 53.856C190.46 53.2267 190.935 52.7413 191.532 52.4C192.14 52.048 192.823 51.872 193.58 51.872C194.519 51.872 195.308 52.1173 195.948 52.608C196.599 53.0987 197.009 53.7547 197.18 54.576H195.804C195.697 54.0853 195.436 53.7067 195.02 53.44C194.604 53.1627 194.119 53.024 193.564 53.024C193.116 53.024 192.695 53.136 192.3 53.36C191.905 53.584 191.585 53.92 191.34 54.368C191.095 54.816 190.972 55.3707 190.972 56.032C190.972 56.6933 191.095 57.248 191.34 57.696C191.585 58.144 191.905 58.4853 192.3 58.72C192.695 58.944 193.116 59.056 193.564 59.056C194.119 59.056 194.604 58.9227 195.02 58.656C195.436 58.3787 195.697 57.9893 195.804 57.488H197.18C197.02 58.288 196.615 58.9387 195.964 59.44C195.313 59.9413 194.519 60.192 193.58 60.192ZM202.673 60.192C201.926 60.192 201.254 60.0213 200.657 59.68C200.06 59.3387 199.585 58.8587 199.233 58.24C198.892 57.6107 198.721 56.8747 198.721 56.032C198.721 55.1893 198.897 54.4587 199.249 53.84C199.601 53.2107 200.076 52.7253 200.673 52.384C201.281 52.0427 201.958 51.872 202.705 51.872C203.452 51.872 204.124 52.0427 204.721 52.384C205.318 52.7253 205.788 53.2107 206.129 53.84C206.481 54.4587 206.657 55.1893 206.657 56.032C206.657 56.8747 206.481 57.6107 206.129 58.24C205.777 58.8587 205.297 59.3387 204.689 59.68C204.092 60.0213 203.42 60.192 202.673 60.192ZM202.673 59.04C203.132 59.04 203.558 58.928 203.953 58.704C204.348 58.48 204.668 58.144 204.913 57.696C205.158 57.248 205.281 56.6933 205.281 56.032C205.281 55.3707 205.158 54.816 204.913 54.368C204.678 53.92 204.364 53.584 203.969 53.36C203.574 53.136 203.153 53.024 202.705 53.024C202.246 53.024 201.82 53.136 201.425 53.36C201.03 53.584 200.71 53.92 200.465 54.368C200.22 54.816 200.097 55.3707 200.097 56.032C200.097 56.6933 200.22 57.248 200.465 57.696C200.71 58.144 201.025 58.48 201.409 58.704C201.804 58.928 202.225 59.04 202.673 59.04ZM208.526 60V52.064H209.742L209.838 53.216C210.094 52.7893 210.435 52.4587 210.862 52.224C211.289 51.9893 211.769 51.872 212.302 51.872C212.931 51.872 213.47 52 213.918 52.256C214.377 52.512 214.729 52.9013 214.974 53.424C215.251 52.944 215.63 52.5653 216.11 52.288C216.601 52.0107 217.129 51.872 217.694 51.872C218.643 51.872 219.401 52.16 219.966 52.736C220.531 53.3013 220.814 54.176 220.814 55.36V60H219.486V55.504C219.486 54.6827 219.321 54.064 218.99 53.648C218.659 53.232 218.185 53.024 217.566 53.024C216.926 53.024 216.393 53.2747 215.966 53.776C215.55 54.2667 215.342 54.9707 215.342 55.888V60H213.998V55.504C213.998 54.6827 213.833 54.064 213.502 53.648C213.171 53.232 212.697 53.024 212.078 53.024C211.449 53.024 210.921 53.2747 210.494 53.776C210.078 54.2667 209.87 54.9707 209.87 55.888V60H208.526Z" fill="#999999"/>
<line opacity="0.6" x1="68" y1="72.25" x2="590" y2="72.25" stroke="#999999" stroke-width="1.5"/>
<path d="M71.852 18.018L68.45 5.4H70.502L73.004 15.84L75.884 5.4H77.99L80.78 15.84L83.282 5.4H85.334L81.878 18H79.646L76.892 8.118L74.048 18L71.852 18.018ZM86.8326 18V5.04H88.7406V10.512C89.0406 9.996 89.4546 9.594 89.9826 9.306C90.5226 9.006 91.1166 8.856 91.7646 8.856C92.8326 8.856 93.6726 9.192 94.2846 9.864C94.8966 10.536 95.2026 11.538 95.2026 12.87V18H93.3126V13.068C93.3126 11.34 92.6226 10.476 91.2426 10.476C90.5226 10.476 89.9226 10.728 89.4426 11.232C88.9746 11.736 88.7406 12.456 88.7406 13.392V18H86.8326ZM100.294 18.216C99.5378 18.216 98.9138 18.09 98.4218 17.838C97.9298 17.586 97.5638 17.256 97.3238 16.848C97.0838 16.428 96.9638 15.972 96.9638 15.48C96.9638 14.616 97.2998 13.932 97.9718 13.428C98.6438 12.924 99.6038 12.672 100.852 12.672H103.192V12.51C103.192 11.814 103 11.292 102.616 10.944C102.244 10.596 101.758 10.422 101.158 10.422C100.63 10.422 100.168 10.554 99.7718 10.818C99.3878 11.07 99.1538 11.448 99.0698 11.952H97.1618C97.2218 11.304 97.4378 10.752 97.8098 10.296C98.1938 9.828 98.6738 9.474 99.2498 9.234C99.8378 8.982 100.48 8.856 101.176 8.856C102.424 8.856 103.39 9.186 104.074 9.846C104.758 10.494 105.1 11.382 105.1 12.51V18H103.444L103.282 16.47C103.03 16.962 102.664 17.376 102.184 17.712C101.704 18.048 101.074 18.216 100.294 18.216ZM100.672 16.668C101.188 16.668 101.62 16.548 101.968 16.308C102.328 16.056 102.604 15.726 102.796 15.318C103 14.91 103.126 14.46 103.174 13.968H101.05C100.294 13.968 99.7538 14.1 99.4298 14.364C99.1178 14.628 98.9618 14.958 98.9618 15.354C98.9618 15.762 99.1118 16.086 99.4118 16.326C99.7238 16.554 100.144 16.668 100.672 16.668ZM110.713 18C109.837 18 109.141 17.79 108.625 17.37C108.109 16.938 107.851 16.176 107.851 15.084V10.674H106.321V9.072H107.851L108.085 6.804H109.759V9.072H112.279V10.674H109.759V15.084C109.759 15.576 109.861 15.918 110.065 16.11C110.281 16.29 110.647 16.38 111.163 16.38H112.189V18H110.713ZM113.526 9.63L114.534 5.4H116.604L114.858 9.63H113.526ZM120.913 18.216C119.785 18.216 118.855 17.94 118.123 17.388C117.391 16.836 116.971 16.104 116.863 15.192H118.789C118.885 15.6 119.113 15.954 119.473 16.254C119.833 16.542 120.307 16.686 120.895 16.686C121.471 16.686 121.891 16.566 122.155 16.326C122.419 16.086 122.551 15.81 122.551 15.498C122.551 15.042 122.365 14.736 121.993 14.58C121.633 14.412 121.129 14.262 120.481 14.13C119.977 14.022 119.473 13.878 118.969 13.698C118.477 13.518 118.063 13.266 117.727 12.942C117.403 12.606 117.241 12.156 117.241 11.592C117.241 10.812 117.541 10.164 118.141 9.648C118.741 9.12 119.581 8.856 120.661 8.856C121.657 8.856 122.461 9.096 123.073 9.576C123.697 10.056 124.063 10.734 124.171 11.61H122.335C122.275 11.226 122.095 10.926 121.795 10.71C121.507 10.494 121.117 10.386 120.625 10.386C120.145 10.386 119.773 10.488 119.509 10.692C119.245 10.884 119.113 11.136 119.113 11.448C119.113 11.76 119.293 12.006 119.653 12.186C120.025 12.366 120.511 12.528 121.111 12.672C121.711 12.804 122.263 12.96 122.767 13.14C123.283 13.308 123.697 13.56 124.009 13.896C124.321 14.232 124.477 14.724 124.477 15.372C124.489 16.188 124.171 16.866 123.523 17.406C122.887 17.946 122.017 18.216 120.913 18.216ZM131.779 21.96L133.921 17.262H133.399L129.871 9.072H131.941L134.677 15.678L137.539 9.072H139.555L133.795 21.96H131.779ZM144.311 18.216C143.459 18.216 142.691 18.024 142.007 17.64C141.335 17.244 140.801 16.698 140.405 16.002C140.009 15.294 139.811 14.472 139.811 13.536C139.811 12.6 140.009 11.784 140.405 11.088C140.813 10.38 141.359 9.834 142.043 9.45C142.727 9.054 143.489 8.856 144.329 8.856C145.181 8.856 145.943 9.054 146.615 9.45C147.299 9.834 147.839 10.38 148.235 11.088C148.643 11.784 148.847 12.6 148.847 13.536C148.847 14.472 148.643 15.294 148.235 16.002C147.839 16.698 147.299 17.244 146.615 17.64C145.931 18.024 145.163 18.216 144.311 18.216ZM144.311 16.578C144.767 16.578 145.187 16.464 145.571 16.236C145.967 16.008 146.285 15.672 146.525 15.228C146.765 14.772 146.885 14.208 146.885 13.536C146.885 12.864 146.765 12.306 146.525 11.862C146.297 11.406 145.985 11.064 145.589 10.836C145.205 10.608 144.785 10.494 144.329 10.494C143.873 10.494 143.447 10.608 143.051 10.836C142.667 11.064 142.355 11.406 142.115 11.862C141.875 12.306 141.755 12.864 141.755 13.536C141.755 14.208 141.875 14.772 142.115 15.228C142.355 15.672 142.667 16.008 143.051 16.236C143.435 16.464 143.855 16.578 144.311 16.578ZM154.025 18.216C152.945 18.216 152.093 17.88 151.469 17.208C150.857 16.536 150.551 15.534 150.551 14.202V9.072H152.459V14.004C152.459 15.732 153.167 16.596 154.583 16.596C155.291 16.596 155.873 16.344 156.329 15.84C156.785 15.336 157.013 14.616 157.013 13.68V9.072H158.921V18H157.229L157.085 16.434C156.809 16.986 156.401 17.424 155.861 17.748C155.333 18.06 154.721 18.216 154.025 18.216ZM161.168 18V9.072H162.878L163.04 10.764C163.352 10.176 163.784 9.714 164.336 9.378C164.9 9.03 165.578 8.856 166.37 8.856V10.854H165.848C165.32 10.854 164.846 10.944 164.426 11.124C164.018 11.292 163.688 11.586 163.436 12.006C163.196 12.414 163.076 12.984 163.076 13.716V18H161.168ZM176.357 18.216C175.481 18.216 174.701 18.024 174.017 17.64C173.345 17.244 172.817 16.698 172.433 16.002C172.049 15.306 171.857 14.496 171.857 13.572C171.857 12.636 172.043 11.814 172.415 11.106C172.799 10.398 173.327 9.846 173.999 9.45C174.683 9.054 175.475 8.856 176.375 8.856C177.251 8.856 178.013 9.054 178.661 9.45C179.309 9.834 179.813 10.35 180.173 10.998C180.533 11.646 180.713 12.36 180.713 13.14C180.713 13.26 180.707 13.392 180.695 13.536C180.695 13.668 180.689 13.818 180.677 13.986H173.729C173.789 14.85 174.071 15.51 174.575 15.966C175.091 16.41 175.685 16.632 176.357 16.632C176.897 16.632 177.347 16.512 177.707 16.272C178.079 16.02 178.355 15.684 178.535 15.264H180.443C180.203 16.104 179.723 16.806 179.003 17.37C178.295 17.934 177.413 18.216 176.357 18.216ZM176.357 10.422C175.721 10.422 175.157 10.614 174.665 10.998C174.173 11.37 173.873 11.934 173.765 12.69H178.805C178.769 11.994 178.523 11.442 178.067 11.034C177.611 10.626 177.041 10.422 176.357 10.422ZM182.512 18V9.072H184.204L184.366 10.332C184.654 9.876 185.032 9.516 185.5 9.252C185.98 8.988 186.532 8.856 187.156 8.856C188.572 8.856 189.556 9.414 190.108 10.53C190.432 10.014 190.864 9.606 191.404 9.306C191.956 9.006 192.55 8.856 193.186 8.856C194.302 8.856 195.178 9.192 195.814 9.864C196.45 10.536 196.768 11.538 196.768 12.87V18H194.86V13.068C194.86 11.34 194.2 10.476 192.88 10.476C192.208 10.476 191.656 10.728 191.224 11.232C190.804 11.736 190.594 12.456 190.594 13.392V18H188.686V13.068C188.686 11.34 188.02 10.476 186.688 10.476C186.028 10.476 185.482 10.728 185.05 11.232C184.63 11.736 184.42 12.456 184.42 13.392V18H182.512ZM201.845 18.216C201.089 18.216 200.465 18.09 199.973 17.838C199.481 17.586 199.115 17.256 198.875 16.848C198.635 16.428 198.515 15.972 198.515 15.48C198.515 14.616 198.851 13.932 199.523 13.428C200.195 12.924 201.155 12.672 202.403 12.672H204.743V12.51C204.743 11.814 204.551 11.292 204.167 10.944C203.795 10.596 203.309 10.422 202.709 10.422C202.181 10.422 201.719 10.554 201.323 10.818C200.939 11.07 200.705 11.448 200.621 11.952H198.713C198.773 11.304 198.989 10.752 199.361 10.296C199.745 9.828 200.225 9.474 200.801 9.234C201.389 8.982 202.031 8.856 202.727 8.856C203.975 8.856 204.941 9.186 205.625 9.846C206.309 10.494 206.651 11.382 206.651 12.51V18H204.995L204.833 16.47C204.581 16.962 204.215 17.376 203.735 17.712C203.255 18.048 202.625 18.216 201.845 18.216ZM202.223 16.668C202.739 16.668 203.171 16.548 203.519 16.308C203.879 16.056 204.155 15.726 204.347 15.318C204.551 14.91 204.677 14.46 204.725 13.968H202.601C201.845 13.968 201.305 14.1 200.981 14.364C200.669 14.628 200.513 14.958 200.513 15.354C200.513 15.762 200.663 16.086 200.963 16.326C201.275 16.554 201.695 16.668 202.223 16.668ZM209.775 7.38C209.415 7.38 209.115 7.272 208.875 7.056C208.647 6.828 208.533 6.546 208.533 6.21C208.533 5.874 208.647 5.598 208.875 5.382C209.115 5.154 209.415 5.04 209.775 5.04C210.135 5.04 210.429 5.154 210.657 5.382C210.897 5.598 211.017 5.874 211.017 6.21C211.017 6.546 210.897 6.828 210.657 7.056C210.429 7.272 210.135 7.38 209.775 7.38ZM208.821 18V9.072H210.729V18H208.821ZM213.068 18V5.04H214.976V18H213.068ZM224.592 18.216C223.836 18.216 223.212 18.09 222.72 17.838C222.228 17.586 221.862 17.256 221.622 16.848C221.382 16.428 221.262 15.972 221.262 15.48C221.262 14.616 221.598 13.932 222.27 13.428C222.942 12.924 223.902 12.672 225.15 12.672H227.49V12.51C227.49 11.814 227.298 11.292 226.914 10.944C226.542 10.596 226.056 10.422 225.456 10.422C224.928 10.422 224.466 10.554 224.07 10.818C223.686 11.07 223.452 11.448 223.368 11.952H221.46C221.52 11.304 221.736 10.752 222.108 10.296C222.492 9.828 222.972 9.474 223.548 9.234C224.136 8.982 224.778 8.856 225.474 8.856C226.722 8.856 227.688 9.186 228.372 9.846C229.056 10.494 229.398 11.382 229.398 12.51V18H227.742L227.58 16.47C227.328 16.962 226.962 17.376 226.482 17.712C226.002 18.048 225.372 18.216 224.592 18.216ZM224.97 16.668C225.486 16.668 225.918 16.548 226.266 16.308C226.626 16.056 226.902 15.726 227.094 15.318C227.298 14.91 227.424 14.46 227.472 13.968H225.348C224.592 13.968 224.052 14.1 223.728 14.364C223.416 14.628 223.26 14.958 223.26 15.354C223.26 15.762 223.41 16.086 223.71 16.326C224.022 16.554 224.442 16.668 224.97 16.668ZM235.51 18.216C234.646 18.216 233.884 18.012 233.224 17.604C232.564 17.196 232.048 16.638 231.676 15.93C231.304 15.222 231.118 14.418 231.118 13.518C231.118 12.618 231.304 11.82 231.676 11.124C232.048 10.416 232.564 9.864 233.224 9.468C233.896 9.06 234.664 8.856 235.528 8.856C236.236 8.856 236.854 8.994 237.382 9.27C237.922 9.546 238.342 9.936 238.642 10.44V5.04H240.55V18H238.84L238.642 16.614C238.354 17.034 237.958 17.406 237.454 17.73C236.95 18.054 236.302 18.216 235.51 18.216ZM235.852 16.56C236.668 16.56 237.334 16.278 237.85 15.714C238.378 15.15 238.642 14.424 238.642 13.536C238.642 12.636 238.378 11.91 237.85 11.358C237.334 10.794 236.668 10.512 235.852 10.512C235.036 10.512 234.364 10.794 233.836 11.358C233.308 11.91 233.044 12.636 233.044 13.536C233.044 14.124 233.164 14.646 233.404 15.102C233.644 15.558 233.974 15.918 234.394 16.182C234.826 16.434 235.312 16.56 235.852 16.56ZM246.844 18.216C245.98 18.216 245.218 18.012 244.558 17.604C243.898 17.196 243.382 16.638 243.01 15.93C242.638 15.222 242.452 14.418 242.452 13.518C242.452 12.618 242.638 11.82 243.01 11.124C243.382 10.416 243.898 9.864 244.558 9.468C245.23 9.06 245.998 8.856 246.862 8.856C247.57 8.856 248.188 8.994 248.716 9.27C249.256 9.546 249.676 9.936 249.976 10.44V5.04H251.884V18H250.174L249.976 16.614C249.688 17.034 249.292 17.406 248.788 17.73C248.284 18.054 247.636 18.216 246.844 18.216ZM247.186 16.56C248.002 16.56 248.668 16.278 249.184 15.714C249.712 15.15 249.976 14.424 249.976 13.536C249.976 12.636 249.712 11.91 249.184 11.358C248.668 10.794 248.002 10.512 247.186 10.512C246.37 10.512 245.698 10.794 245.17 11.358C244.642 11.91 244.378 12.636 244.378 13.536C244.378 14.124 244.498 14.646 244.738 15.102C244.978 15.558 245.308 15.918 245.728 16.182C246.16 16.434 246.646 16.56 247.186 16.56ZM254.11 18V9.072H255.82L255.982 10.764C256.294 10.176 256.726 9.714 257.278 9.378C257.842 9.03 258.52 8.856 259.312 8.856V10.854H258.79C258.262 10.854 257.788 10.944 257.368 11.124C256.96 11.292 256.63 11.586 256.378 12.006C256.138 12.414 256.018 12.984 256.018 13.716V18H254.11ZM264.697 18.216C263.821 18.216 263.041 18.024 262.357 17.64C261.685 17.244 261.157 16.698 260.773 16.002C260.389 15.306 260.197 14.496 260.197 13.572C260.197 12.636 260.383 11.814 260.755 11.106C261.139 10.398 261.667 9.846 262.339 9.45C263.023 9.054 263.815 8.856 264.715 8.856C265.591 8.856 266.353 9.054 267.001 9.45C267.649 9.834 268.153 10.35 268.513 10.998C268.873 11.646 269.053 12.36 269.053 13.14C269.053 13.26 269.047 13.392 269.035 13.536C269.035 13.668 269.029 13.818 269.017 13.986H262.069C262.129 14.85 262.411 15.51 262.915 15.966C263.431 16.41 264.025 16.632 264.697 16.632C265.237 16.632 265.687 16.512 266.047 16.272C266.419 16.02 266.695 15.684 266.875 15.264H268.783C268.543 16.104 268.063 16.806 267.343 17.37C266.635 17.934 265.753 18.216 264.697 18.216ZM264.697 10.422C264.061 10.422 263.497 10.614 263.005 10.998C262.513 11.37 262.213 11.934 262.105 12.69H267.145C267.109 11.994 266.863 11.442 266.407 11.034C265.951 10.626 265.381 10.422 264.697 10.422ZM274.417 18.216C273.289 18.216 272.359 17.94 271.627 17.388C270.895 16.836 270.475 16.104 270.367 15.192H272.293C272.389 15.6 272.617 15.954 272.977 16.254C273.337 16.542 273.811 16.686 274.399 16.686C274.975 16.686 275.395 16.566 275.659 16.326C275.923 16.086 276.055 15.81 276.055 15.498C276.055 15.042 275.869 14.736 275.497 14.58C275.137 14.412 274.633 14.262 273.985 14.13C273.481 14.022 272.977 13.878 272.473 13.698C271.981 13.518 271.567 13.266 271.231 12.942C270.907 12.606 270.745 12.156 270.745 11.592C270.745 10.812 271.045 10.164 271.645 9.648C272.245 9.12 273.085 8.856 274.165 8.856C275.161 8.856 275.965 9.096 276.577 9.576C277.201 10.056 277.567 10.734 277.675 11.61H275.839C275.779 11.226 275.599 10.926 275.299 10.71C275.011 10.494 274.621 10.386 274.129 10.386C273.649 10.386 273.277 10.488 273.013 10.692C272.749 10.884 272.617 11.136 272.617 11.448C272.617 11.76 272.797 12.006 273.157 12.186C273.529 12.366 274.015 12.528 274.615 12.672C275.215 12.804 275.767 12.96 276.271 13.14C276.787 13.308 277.201 13.56 277.513 13.896C277.825 14.232 277.981 14.724 277.981 15.372C277.993 16.188 277.675 16.866 277.027 17.406C276.391 17.946 275.521 18.216 274.417 18.216ZM283.448 18.216C282.32 18.216 281.39 17.94 280.658 17.388C279.926 16.836 279.506 16.104 279.398 15.192H281.324C281.42 15.6 281.648 15.954 282.008 16.254C282.368 16.542 282.842 16.686 283.43 16.686C284.006 16.686 284.426 16.566 284.69 16.326C284.954 16.086 285.086 15.81 285.086 15.498C285.086 15.042 284.9 14.736 284.528 14.58C284.168 14.412 283.664 14.262 283.016 14.13C282.512 14.022 282.008 13.878 281.504 13.698C281.012 13.518 280.598 13.266 280.262 12.942C279.938 12.606 279.776 12.156 279.776 11.592C279.776 10.812 280.076 10.164 280.676 9.648C281.276 9.12 282.116 8.856 283.196 8.856C284.192 8.856 284.996 9.096 285.608 9.576C286.232 10.056 286.598 10.734 286.706 11.61H284.87C284.81 11.226 284.63 10.926 284.33 10.71C284.042 10.494 283.652 10.386 283.16 10.386C282.68 10.386 282.308 10.488 282.044 10.692C281.78 10.884 281.648 11.136 281.648 11.448C281.648 11.76 281.828 12.006 282.188 12.186C282.56 12.366 283.046 12.528 283.646 12.672C284.246 12.804 284.798 12.96 285.302 13.14C285.818 13.308 286.232 13.56 286.544 13.896C286.856 14.232 287.012 14.724 287.012 15.372C287.024 16.188 286.706 16.866 286.058 17.406C285.422 17.946 284.552 18.216 283.448 18.216ZM289.826 14.274L289.754 11.34H290.438C291.086 11.34 291.68 11.28 292.22 11.16C292.772 11.04 293.21 10.806 293.534 10.458C293.87 10.11 294.038 9.594 294.038 8.91C294.038 8.25 293.834 7.734 293.426 7.362C293.018 6.978 292.484 6.786 291.824 6.786C291.14 6.786 290.6 6.972 290.204 7.344C289.808 7.716 289.61 8.22 289.61 8.856H287.81C287.798 8.136 287.954 7.5 288.278 6.948C288.614 6.396 289.082 5.964 289.682 5.652C290.294 5.34 291.008 5.184 291.824 5.184C292.616 5.184 293.318 5.334 293.93 5.634C294.542 5.934 295.016 6.366 295.352 6.93C295.7 7.482 295.874 8.148 295.874 8.928C295.874 9.78 295.688 10.482 295.316 11.034C294.944 11.574 294.434 11.976 293.786 12.24C293.138 12.492 292.394 12.618 291.554 12.618L291.5 14.274H289.826ZM290.672 18.108C290.3 18.108 290 17.994 289.772 17.766C289.544 17.526 289.43 17.244 289.43 16.92C289.43 16.584 289.544 16.302 289.772 16.074C290 15.834 290.3 15.714 290.672 15.714C291.02 15.714 291.308 15.834 291.536 16.074C291.776 16.302 291.896 16.584 291.896 16.92C291.896 17.244 291.776 17.526 291.536 17.766C291.308 17.994 291.02 18.108 290.672 18.108Z" fill="white"/>
<rect x="0.75" y="0.75" width="38.5" height="24.5" rx="12.25" stroke="#999999" stroke-width="1.5"/>
<path opacity="0.6" d="M16.212 17.144C15.452 17.144 14.796 16.964 14.244 16.604C13.7 16.236 13.28 15.728 12.984 15.08C12.696 14.424 12.552 13.664 12.552 12.8C12.552 11.936 12.696 11.18 12.984 10.532C13.28 9.876 13.7 9.368 14.244 9.008C14.796 8.64 15.452 8.456 16.212 8.456C16.972 8.456 17.624 8.64 18.168 9.008C18.712 9.368 19.128 9.876 19.416 10.532C19.712 11.18 19.86 11.936 19.86 12.8C19.86 13.664 19.712 14.424 19.416 15.08C19.128 15.728 18.712 16.236 18.168 16.604C17.624 16.964 16.972 17.144 16.212 17.144ZM16.212 16.004C16.668 16.004 17.072 15.876 17.424 15.62C17.784 15.364 18.064 14.996 18.264 14.516C18.464 14.036 18.564 13.464 18.564 12.8C18.564 12.136 18.464 11.564 18.264 11.084C18.064 10.604 17.784 10.236 17.424 9.98C17.072 9.724 16.668 9.596 16.212 9.596C15.748 9.596 15.34 9.724 14.988 9.98C14.636 10.236 14.36 10.604 14.16 11.084C13.96 11.564 13.86 12.136 13.86 12.8C13.86 13.464 13.96 14.036 14.16 14.516C14.36 14.996 14.636 15.364 14.988 15.62C15.34 15.876 15.748 16.004 16.212 16.004ZM21.376 17V16.088C21.92 15.656 22.44 15.22 22.936 14.78C23.432 14.34 23.872 13.908 24.256 13.484C24.648 13.052 24.956 12.632 25.18 12.224C25.404 11.808 25.516 11.408 25.516 11.024C25.516 10.768 25.472 10.528 25.384 10.304C25.296 10.072 25.152 9.888 24.952 9.752C24.752 9.608 24.484 9.536 24.148 9.536C23.644 9.536 23.264 9.696 23.008 10.016C22.76 10.336 22.64 10.72 22.648 11.168H21.412C21.42 10.576 21.544 10.08 21.784 9.68C22.032 9.28 22.36 8.976 22.768 8.768C23.184 8.56 23.652 8.456 24.172 8.456C24.964 8.456 25.596 8.68 26.068 9.128C26.548 9.568 26.788 10.184 26.788 10.976C26.788 11.448 26.672 11.916 26.44 12.38C26.216 12.844 25.92 13.292 25.552 13.724C25.192 14.148 24.804 14.548 24.388 14.924C23.972 15.3 23.576 15.64 23.2 15.944H27.04V17H21.376Z" fill="#999999"/>
</svg>
