<svg width="522" height="31" viewBox="0 0 522 31" fill="none" xmlns="http://www.w3.org/2000/svg">
<path d="M4.672 18.192C3.91467 18.192 3.24267 18.0213 2.656 17.68C2.06933 17.328 1.60533 16.8427 1.264 16.224C0.933333 15.6053 0.768 14.8747 0.768 14.032C0.768 13.2 0.933333 12.4747 1.264 11.856C1.59467 11.2267 2.05333 10.7413 2.64 10.4C3.23733 10.048 3.92533 9.872 4.704 9.872C5.472 9.872 6.13333 10.048 6.688 10.4C7.25333 10.7413 7.68533 11.1947 7.984 11.76C8.28267 12.3253 8.432 12.9333 8.432 13.584C8.432 13.7013 8.42667 13.8187 8.416 13.936C8.416 14.0533 8.416 14.1867 8.416 14.336H2.096C2.128 14.944 2.26667 15.4507 2.512 15.856C2.768 16.2507 3.08267 16.5493 3.456 16.752C3.84 16.9547 4.24533 17.056 4.672 17.056C5.22667 17.056 5.69067 16.928 6.064 16.672C6.43733 16.416 6.70933 16.0693 6.88 15.632H8.208C7.99467 16.368 7.584 16.9813 6.976 17.472C6.37867 17.952 5.61067 18.192 4.672 18.192ZM4.672 11.008C4.032 11.008 3.46133 11.2053 2.96 11.6C2.46933 11.984 2.18667 12.5493 2.112 13.296H7.104C7.072 12.5813 6.82667 12.0213 6.368 11.616C5.90933 11.2107 5.344 11.008 4.672 11.008ZM9.03838 18L11.7904 14.032L9.03838 10.064H10.4944L12.7184 13.344L14.9584 10.064H16.3984L13.6464 14.032L16.3984 18H14.9584L12.7184 14.72L10.4944 18H9.03838ZM20.4003 18.192C19.7389 18.192 19.1896 18.08 18.7523 17.856C18.3149 17.632 17.9896 17.3333 17.7763 16.96C17.5629 16.5867 17.4563 16.1813 17.4563 15.744C17.4563 14.9333 17.7656 14.3093 18.3843 13.872C19.0029 13.4347 19.8456 13.216 20.9123 13.216H23.0563V13.12C23.0563 12.4267 22.8749 11.904 22.5123 11.552C22.1496 11.1893 21.6643 11.008 21.0563 11.008C20.5336 11.008 20.0803 11.1413 19.6963 11.408C19.3229 11.664 19.0883 12.0427 18.9923 12.544H17.6163C17.6696 11.968 17.8616 11.4827 18.1923 11.088C18.5336 10.6933 18.9549 10.3947 19.4563 10.192C19.9576 9.97867 20.4909 9.872 21.0563 9.872C22.1656 9.872 22.9976 10.1707 23.5523 10.768C24.1176 11.3547 24.4003 12.1387 24.4003 13.12V18H23.2003L23.1203 16.576C22.8963 17.024 22.5656 17.408 22.1283 17.728C21.7016 18.0373 21.1256 18.192 20.4003 18.192ZM20.6083 17.056C21.1203 17.056 21.5576 16.9227 21.9203 16.656C22.2936 16.3893 22.5763 16.0427 22.7683 15.616C22.9603 15.1893 23.0563 14.7413 23.0563 14.272V14.256H21.0243C20.2349 14.256 19.6749 14.3947 19.3443 14.672C19.0243 14.9387 18.8643 15.2747 18.8643 15.68C18.8643 16.096 19.0136 16.432 19.3123 16.688C19.6216 16.9333 20.0536 17.056 20.6083 17.056ZM26.4165 18V10.064H27.6325L27.7285 11.216C27.9845 10.7893 28.3258 10.4587 28.7525 10.224C29.1792 9.98933 29.6592 9.872 30.1925 9.872C30.8218 9.872 31.3605 10 31.8085 10.256C32.2672 10.512 32.6192 10.9013 32.8645 11.424C33.1418 10.944 33.5205 10.5653 34.0005 10.288C34.4912 10.0107 35.0192 9.872 35.5845 9.872C36.5338 9.872 37.2912 10.16 37.8565 10.736C38.4218 11.3013 38.7045 12.176 38.7045 13.36V18H37.3765V13.504C37.3765 12.6827 37.2112 12.064 36.8805 11.648C36.5498 11.232 36.0752 11.024 35.4565 11.024C34.8165 11.024 34.2832 11.2747 33.8565 11.776C33.4405 12.2667 33.2325 12.9707 33.2325 13.888V18H31.8885V13.504C31.8885 12.6827 31.7232 12.064 31.3925 11.648C31.0618 11.232 30.5872 11.024 29.9685 11.024C29.3392 11.024 28.8112 11.2747 28.3845 11.776C27.9685 12.2667 27.7605 12.9707 27.7605 13.888V18H26.4165ZM40.729 21.52V10.064H41.945L42.073 11.376C42.329 10.992 42.6917 10.6453 43.161 10.336C43.641 10.0267 44.249 9.872 44.985 9.872C45.7743 9.872 46.4623 10.0533 47.049 10.416C47.6357 10.7787 48.089 11.2747 48.409 11.904C48.7397 12.5333 48.905 13.248 48.905 14.048C48.905 14.848 48.7397 15.5627 48.409 16.192C48.089 16.8107 47.6303 17.3013 47.033 17.664C46.4463 18.016 45.7583 18.192 44.969 18.192C44.3183 18.192 43.737 18.0587 43.225 17.792C42.7237 17.5253 42.3397 17.152 42.073 16.672V21.52H40.729ZM44.825 17.024C45.3583 17.024 45.8277 16.9013 46.233 16.656C46.6383 16.4 46.9583 16.048 47.193 15.6C47.4277 15.152 47.545 14.6293 47.545 14.032C47.545 13.4347 47.4277 12.912 47.193 12.464C46.9583 12.016 46.6383 11.6693 46.233 11.424C45.8277 11.168 45.3583 11.04 44.825 11.04C44.2917 11.04 43.8223 11.168 43.417 11.424C43.0117 11.6693 42.6917 12.016 42.457 12.464C42.2223 12.912 42.105 13.4347 42.105 14.032C42.105 14.6293 42.2223 15.152 42.457 15.6C42.6917 16.048 43.0117 16.4 43.417 16.656C43.8223 16.9013 44.2917 17.024 44.825 17.024ZM50.7759 18V6.48H52.1199V18H50.7759ZM57.8908 18.192C57.1334 18.192 56.4614 18.0213 55.8748 17.68C55.2881 17.328 54.8241 16.8427 54.4828 16.224C54.1521 15.6053 53.9868 14.8747 53.9868 14.032C53.9868 13.2 54.1521 12.4747 54.4828 11.856C54.8134 11.2267 55.2721 10.7413 55.8588 10.4C56.4561 10.048 57.1441 9.872 57.9227 9.872C58.6908 9.872 59.3521 10.048 59.9068 10.4C60.4721 10.7413 60.9041 11.1947 61.2028 11.76C61.5014 12.3253 61.6508 12.9333 61.6508 13.584C61.6508 13.7013 61.6454 13.8187 61.6348 13.936C61.6348 14.0533 61.6348 14.1867 61.6348 14.336H55.3148C55.3468 14.944 55.4854 15.4507 55.7308 15.856C55.9868 16.2507 56.3014 16.5493 56.6748 16.752C57.0588 16.9547 57.4641 17.056 57.8908 17.056C58.4454 17.056 58.9094 16.928 59.2828 16.672C59.6561 16.416 59.9281 16.0693 60.0988 15.632H61.4268C61.2134 16.368 60.8028 16.9813 60.1948 17.472C59.5974 17.952 58.8294 18.192 57.8908 18.192ZM57.8908 11.008C57.2508 11.008 56.6801 11.2053 56.1788 11.6C55.6881 11.984 55.4054 12.5493 55.3307 13.296H60.3228C60.2908 12.5813 60.0454 12.0213 59.5868 11.616C59.1281 11.2107 58.5628 11.008 57.8908 11.008ZM69.2401 21.184C68.0988 21.184 67.0961 20.9653 66.2321 20.528C65.3788 20.0907 64.7121 19.472 64.2321 18.672C63.7628 17.872 63.5281 16.9227 63.5281 15.824C63.5281 14.6933 63.7255 13.6373 64.1201 12.656C64.5148 11.6747 65.0695 10.816 65.7841 10.08C66.4988 9.344 67.3415 8.77333 68.3121 8.368C69.2828 7.96267 70.3495 7.76 71.5121 7.76C72.6961 7.76 73.7255 7.98933 74.6001 8.448C75.4748 8.896 76.1468 9.52533 76.6161 10.336C77.0961 11.136 77.3361 12.0693 77.3361 13.136C77.3361 13.744 77.2615 14.3467 77.1121 14.944C76.9628 15.5307 76.7388 16.064 76.4401 16.544C76.1521 17.0133 75.7948 17.392 75.3681 17.68C74.9521 17.9573 74.4721 18.096 73.9281 18.096C73.3841 18.096 72.9681 17.9573 72.6801 17.68C72.4028 17.4027 72.2481 17.0293 72.2161 16.56C71.8855 17.04 71.4641 17.4187 70.9521 17.696C70.4508 17.9627 69.9175 18.096 69.3521 18.096C68.5415 18.096 67.9068 17.8507 67.4481 17.36C67.0001 16.8693 66.7761 16.208 66.7761 15.376C66.7761 14.7893 66.8668 14.2293 67.0481 13.696C67.2401 13.152 67.5068 12.672 67.8481 12.256C68.1895 11.8293 68.5948 11.4933 69.0641 11.248C69.5335 11.0027 70.0561 10.88 70.6321 10.88C71.7095 10.88 72.4081 11.3227 72.7281 12.208L72.9361 11.056H74.0721L73.2721 15.632C73.1975 16.0907 73.2188 16.464 73.3361 16.752C73.4641 17.0293 73.7255 17.168 74.1201 17.168C74.4615 17.168 74.7655 17.0507 75.0321 16.816C75.2988 16.5707 75.5228 16.2507 75.7041 15.856C75.8855 15.4507 76.0188 15.0187 76.1041 14.56C76.2001 14.0907 76.2481 13.6373 76.2481 13.2C76.2481 11.8027 75.8108 10.704 74.9361 9.904C74.0721 9.104 72.8775 8.704 71.3521 8.704C70.3815 8.704 69.4855 8.88533 68.6641 9.248C67.8535 9.61067 67.1441 10.112 66.5361 10.752C65.9281 11.392 65.4535 12.1333 65.1121 12.976C64.7815 13.8187 64.6161 14.7307 64.6161 15.712C64.6161 16.672 64.8135 17.488 65.2081 18.16C65.6028 18.832 66.1628 19.344 66.8881 19.696C67.6135 20.048 68.4775 20.224 69.4801 20.224C69.9388 20.224 70.3975 20.176 70.8561 20.08C71.3148 19.9947 71.7415 19.8613 72.1361 19.68L72.3601 20.592C71.4001 20.9867 70.3601 21.184 69.2401 21.184ZM69.7521 17.072C70.2108 17.072 70.6321 16.9493 71.0161 16.704C71.4001 16.4587 71.7148 16.1227 71.9601 15.696C72.2055 15.2587 72.3548 14.7573 72.4081 14.192C72.4828 13.5627 72.3708 13.024 72.0721 12.576C71.7841 12.128 71.3148 11.904 70.6641 11.904C70.1201 11.904 69.6455 12.064 69.2401 12.384C68.8455 12.6933 68.5415 13.0987 68.3281 13.6C68.1148 14.1013 68.0081 14.624 68.0081 15.168C68.0081 15.744 68.1521 16.208 68.4401 16.56C68.7388 16.9013 69.1761 17.072 69.7521 17.072ZM82.7713 15.504C82.3233 15.504 81.9126 15.4453 81.5393 15.328L80.7393 16.08C80.8566 16.1653 81.0006 16.24 81.1713 16.304C81.3526 16.3573 81.6086 16.4107 81.9393 16.464C82.2699 16.5067 82.7339 16.5547 83.3313 16.608C84.3979 16.6827 85.1606 16.928 85.6193 17.344C86.0779 17.76 86.3073 18.304 86.3073 18.976C86.3073 19.4347 86.1793 19.872 85.9233 20.288C85.6779 20.704 85.2939 21.0453 84.7713 21.312C84.2593 21.5787 83.5979 21.712 82.7873 21.712C82.0726 21.712 81.4379 21.616 80.8832 21.424C80.3286 21.2427 79.8966 20.96 79.5872 20.576C79.2779 20.2027 79.1233 19.728 79.1233 19.152C79.1233 18.8533 79.2033 18.528 79.3633 18.176C79.5233 17.8347 79.8219 17.5093 80.2593 17.2C80.0246 17.104 79.8219 17.0027 79.6513 16.896C79.4913 16.7787 79.3419 16.6507 79.2033 16.512V16.144L80.5633 14.8C79.9339 14.2667 79.6193 13.5627 79.6193 12.688C79.6193 12.1653 79.7419 11.6907 79.9873 11.264C80.2326 10.8373 80.5899 10.5013 81.0593 10.256C81.5286 10 82.0993 9.872 82.7713 9.872C83.2299 9.872 83.6459 9.936 84.0193 10.064H86.9473V11.072L85.4593 11.136C85.7686 11.584 85.9233 12.1013 85.9233 12.688C85.9233 13.2107 85.7953 13.6853 85.5393 14.112C85.2939 14.5387 84.9366 14.88 84.4673 15.136C84.0086 15.3813 83.4433 15.504 82.7713 15.504ZM82.7713 14.4C83.3366 14.4 83.7846 14.256 84.1153 13.968C84.4566 13.6693 84.6273 13.2427 84.6273 12.688C84.6273 12.144 84.4566 11.728 84.1153 11.44C83.7846 11.1413 83.3366 10.992 82.7713 10.992C82.1953 10.992 81.7366 11.1413 81.3953 11.44C81.0646 11.728 80.8993 12.144 80.8993 12.688C80.8993 13.2427 81.0646 13.6693 81.3953 13.968C81.7366 14.256 82.1953 14.4 82.7713 14.4ZM80.4353 19.024C80.4353 19.5573 80.6593 19.952 81.1073 20.208C81.5553 20.4747 82.1153 20.608 82.7873 20.608C83.4486 20.608 83.9766 20.464 84.3713 20.176C84.7766 19.888 84.9793 19.504 84.9793 19.024C84.9793 18.6827 84.8406 18.384 84.5633 18.128C84.2859 17.8827 83.7739 17.7387 83.0273 17.696C82.4406 17.6533 81.9339 17.6 81.5073 17.536C81.0699 17.7707 80.7819 18.0213 80.6432 18.288C80.5046 18.5653 80.4353 18.8107 80.4353 19.024ZM88.4634 18V10.064H89.6794L89.7754 11.216C90.0314 10.7893 90.3727 10.4587 90.7994 10.224C91.226 9.98933 91.706 9.872 92.2394 9.872C92.8687 9.872 93.4074 10 93.8554 10.256C94.314 10.512 94.666 10.9013 94.9114 11.424C95.1887 10.944 95.5674 10.5653 96.0474 10.288C96.538 10.0107 97.066 9.872 97.6314 9.872C98.5807 9.872 99.338 10.16 99.9034 10.736C100.469 11.3013 100.751 12.176 100.751 13.36V18H99.4234V13.504C99.4234 12.6827 99.258 12.064 98.9274 11.648C98.5967 11.232 98.122 11.024 97.5034 11.024C96.8634 11.024 96.33 11.2747 95.9034 11.776C95.4874 12.2667 95.2794 12.9707 95.2794 13.888V18H93.9354V13.504C93.9354 12.6827 93.77 12.064 93.4394 11.648C93.1087 11.232 92.634 11.024 92.0154 11.024C91.386 11.024 90.858 11.2747 90.4314 11.776C90.0154 12.2667 89.8074 12.9707 89.8074 13.888V18H88.4634ZM105.416 18.192C104.755 18.192 104.205 18.08 103.768 17.856C103.331 17.632 103.005 17.3333 102.792 16.96C102.579 16.5867 102.472 16.1813 102.472 15.744C102.472 14.9333 102.781 14.3093 103.4 13.872C104.019 13.4347 104.861 13.216 105.928 13.216H108.072V13.12C108.072 12.4267 107.891 11.904 107.528 11.552C107.165 11.1893 106.68 11.008 106.072 11.008C105.549 11.008 105.096 11.1413 104.712 11.408C104.339 11.664 104.104 12.0427 104.008 12.544H102.632C102.685 11.968 102.877 11.4827 103.208 11.088C103.549 10.6933 103.971 10.3947 104.472 10.192C104.973 9.97867 105.507 9.872 106.072 9.872C107.181 9.872 108.013 10.1707 108.568 10.768C109.133 11.3547 109.416 12.1387 109.416 13.12V18H108.216L108.136 16.576C107.912 17.024 107.581 17.408 107.144 17.728C106.717 18.0373 106.141 18.192 105.416 18.192ZM105.624 17.056C106.136 17.056 106.573 16.9227 106.936 16.656C107.309 16.3893 107.592 16.0427 107.784 15.616C107.976 15.1893 108.072 14.7413 108.072 14.272V14.256H106.04C105.251 14.256 104.691 14.3947 104.36 14.672C104.04 14.9387 103.88 15.2747 103.88 15.68C103.88 16.096 104.029 16.432 104.328 16.688C104.637 16.9333 105.069 17.056 105.624 17.056ZM112.248 8.304C111.981 8.304 111.757 8.21867 111.576 8.048C111.405 7.86667 111.32 7.64267 111.32 7.376C111.32 7.12 111.405 6.90667 111.576 6.736C111.757 6.56533 111.981 6.48 112.248 6.48C112.504 6.48 112.723 6.56533 112.904 6.736C113.085 6.90667 113.176 7.12 113.176 7.376C113.176 7.64267 113.085 7.86667 112.904 8.048C112.723 8.21867 112.504 8.304 112.248 8.304ZM111.576 18V10.064H112.92V18H111.576ZM115.26 18V6.48H116.604V18H115.26ZM119.271 18.08C119.004 18.08 118.78 17.9947 118.599 17.824C118.428 17.6427 118.343 17.424 118.343 17.168C118.343 16.912 118.428 16.6987 118.599 16.528C118.78 16.3467 119.004 16.256 119.271 16.256C119.527 16.256 119.74 16.3467 119.911 16.528C120.092 16.6987 120.183 16.912 120.183 17.168C120.183 17.424 120.092 17.6427 119.911 17.824C119.74 17.9947 119.527 18.08 119.271 18.08ZM125.58 18.192C124.823 18.192 124.14 18.0213 123.532 17.68C122.935 17.328 122.46 16.8427 122.108 16.224C121.767 15.5947 121.596 14.864 121.596 14.032C121.596 13.2 121.767 12.4747 122.108 11.856C122.46 11.2267 122.935 10.7413 123.532 10.4C124.14 10.048 124.823 9.872 125.58 9.872C126.519 9.872 127.308 10.1173 127.948 10.608C128.599 11.0987 129.009 11.7547 129.18 12.576H127.804C127.697 12.0853 127.436 11.7067 127.02 11.44C126.604 11.1627 126.119 11.024 125.564 11.024C125.116 11.024 124.695 11.136 124.3 11.36C123.905 11.584 123.585 11.92 123.34 12.368C123.095 12.816 122.972 13.3707 122.972 14.032C122.972 14.6933 123.095 15.248 123.34 15.696C123.585 16.144 123.905 16.4853 124.3 16.72C124.695 16.944 125.116 17.056 125.564 17.056C126.119 17.056 126.604 16.9227 127.02 16.656C127.436 16.3787 127.697 15.9893 127.804 15.488H129.18C129.02 16.288 128.615 16.9387 127.964 17.44C127.313 17.9413 126.519 18.192 125.58 18.192ZM134.673 18.192C133.926 18.192 133.254 18.0213 132.657 17.68C132.06 17.3387 131.585 16.8587 131.233 16.24C130.892 15.6107 130.721 14.8747 130.721 14.032C130.721 13.1893 130.897 12.4587 131.249 11.84C131.601 11.2107 132.076 10.7253 132.673 10.384C133.281 10.0427 133.958 9.872 134.705 9.872C135.452 9.872 136.124 10.0427 136.721 10.384C137.318 10.7253 137.788 11.2107 138.129 11.84C138.481 12.4587 138.657 13.1893 138.657 14.032C138.657 14.8747 138.481 15.6107 138.129 16.24C137.777 16.8587 137.297 17.3387 136.689 17.68C136.092 18.0213 135.42 18.192 134.673 18.192ZM134.673 17.04C135.132 17.04 135.558 16.928 135.953 16.704C136.348 16.48 136.668 16.144 136.913 15.696C137.158 15.248 137.281 14.6933 137.281 14.032C137.281 13.3707 137.158 12.816 136.913 12.368C136.678 11.92 136.364 11.584 135.969 11.36C135.574 11.136 135.153 11.024 134.705 11.024C134.246 11.024 133.82 11.136 133.425 11.36C133.03 11.584 132.71 11.92 132.465 12.368C132.22 12.816 132.097 13.3707 132.097 14.032C132.097 14.6933 132.22 15.248 132.465 15.696C132.71 16.144 133.025 16.48 133.409 16.704C133.804 16.928 134.225 17.04 134.673 17.04ZM140.526 18V10.064H141.742L141.838 11.216C142.094 10.7893 142.435 10.4587 142.862 10.224C143.289 9.98933 143.769 9.872 144.302 9.872C144.931 9.872 145.47 10 145.918 10.256C146.377 10.512 146.729 10.9013 146.974 11.424C147.251 10.944 147.63 10.5653 148.11 10.288C148.601 10.0107 149.129 9.872 149.694 9.872C150.643 9.872 151.401 10.16 151.966 10.736C152.531 11.3013 152.814 12.176 152.814 13.36V18H151.486V13.504C151.486 12.6827 151.321 12.064 150.99 11.648C150.659 11.232 150.185 11.024 149.566 11.024C148.926 11.024 148.393 11.2747 147.966 11.776C147.55 12.2667 147.342 12.9707 147.342 13.888V18H145.998V13.504C145.998 12.6827 145.833 12.064 145.502 11.648C145.171 11.232 144.697 11.024 144.078 11.024C143.449 11.024 142.921 11.2747 142.494 11.776C142.078 12.2667 141.87 12.9707 141.87 13.888V18H140.526Z" fill="#999999"/>
<line opacity="0.6" y1="30.25" x2="522" y2="30.25" stroke="#999999" stroke-width="1.5"/>
</svg>
