<svg width="40" height="26" viewBox="0 0 40 26" fill="none" xmlns="http://www.w3.org/2000/svg">
<rect x="0.75" y="0.75" width="38.5" height="24.5" rx="12.25" stroke="#999999" stroke-width="1.5"/>
<path opacity="0.6" d="M16.212 17.144C15.452 17.144 14.796 16.964 14.244 16.604C13.7 16.236 13.28 15.728 12.984 15.08C12.696 14.424 12.552 13.664 12.552 12.8C12.552 11.936 12.696 11.18 12.984 10.532C13.28 9.876 13.7 9.368 14.244 9.008C14.796 8.64 15.452 8.456 16.212 8.456C16.972 8.456 17.624 8.64 18.168 9.008C18.712 9.368 19.128 9.876 19.416 10.532C19.712 11.18 19.86 11.936 19.86 12.8C19.86 13.664 19.712 14.424 19.416 15.08C19.128 15.728 18.712 16.236 18.168 16.604C17.624 16.964 16.972 17.144 16.212 17.144ZM16.212 16.004C16.668 16.004 17.072 15.876 17.424 15.62C17.784 15.364 18.064 14.996 18.264 14.516C18.464 14.036 18.564 13.464 18.564 12.8C18.564 12.136 18.464 11.564 18.264 11.084C18.064 10.604 17.784 10.236 17.424 9.98C17.072 9.724 16.668 9.596 16.212 9.596C15.748 9.596 15.34 9.724 14.988 9.98C14.636 10.236 14.36 10.604 14.16 11.084C13.96 11.564 13.86 12.136 13.86 12.8C13.86 13.464 13.96 14.036 14.16 14.516C14.36 14.996 14.636 15.364 14.988 15.62C15.34 15.876 15.748 16.004 16.212 16.004ZM21.376 17V16.088C21.92 15.656 22.44 15.22 22.936 14.78C23.432 14.34 23.872 13.908 24.256 13.484C24.648 13.052 24.956 12.632 25.18 12.224C25.404 11.808 25.516 11.408 25.516 11.024C25.516 10.768 25.472 10.528 25.384 10.304C25.296 10.072 25.152 9.888 24.952 9.752C24.752 9.608 24.484 9.536 24.148 9.536C23.644 9.536 23.264 9.696 23.008 10.016C22.76 10.336 22.64 10.72 22.648 11.168H21.412C21.42 10.576 21.544 10.08 21.784 9.68C22.032 9.28 22.36 8.976 22.768 8.768C23.184 8.56 23.652 8.456 24.172 8.456C24.964 8.456 25.596 8.68 26.068 9.128C26.548 9.568 26.788 10.184 26.788 10.976C26.788 11.448 26.672 11.916 26.44 12.38C26.216 12.844 25.92 13.292 25.552 13.724C25.192 14.148 24.804 14.548 24.388 14.924C23.972 15.3 23.576 15.64 23.2 15.944H27.04V17H21.376Z" fill="#999999"/>
</svg>
