<svg width="590" height="73" viewBox="0 0 590 73" fill="none" xmlns="http://www.w3.org/2000/svg">
<path d="M71.808 60V49.904H68.464V48.8H76.496V49.904H73.152V60H71.808ZM78.1243 63.52L80.0923 59.232H79.6283L76.4763 52.064H77.9323L80.5563 58.24L83.3403 52.064H84.7323L79.5323 63.52H78.1243ZM86.1509 63.52V52.064H87.3669L87.4949 53.376C87.7509 52.992 88.1135 52.6453 88.5829 52.336C89.0629 52.0267 89.6709 51.872 90.4069 51.872C91.1962 51.872 91.8842 52.0533 92.4709 52.416C93.0575 52.7787 93.5109 53.2747 93.8309 53.904C94.1615 54.5333 94.3269 55.248 94.3269 56.048C94.3269 56.848 94.1615 57.5627 93.8309 58.192C93.5109 58.8107 93.0522 59.3013 92.4549 59.664C91.8682 60.016 91.1802 60.192 90.3909 60.192C89.7402 60.192 89.1589 60.0587 88.6469 59.792C88.1455 59.5253 87.7615 59.152 87.4949 58.672V63.52H86.1509ZM90.2469 59.024C90.7802 59.024 91.2495 58.9013 91.6549 58.656C92.0602 58.4 92.3802 58.048 92.6149 57.6C92.8495 57.152 92.9669 56.6293 92.9669 56.032C92.9669 55.4347 92.8495 54.912 92.6149 54.464C92.3802 54.016 92.0602 53.6693 91.6549 53.424C91.2495 53.168 90.7802 53.04 90.2469 53.04C89.7135 53.04 89.2442 53.168 88.8389 53.424C88.4335 53.6693 88.1135 54.016 87.8789 54.464C87.6442 54.912 87.5269 55.4347 87.5269 56.032C87.5269 56.6293 87.6442 57.152 87.8789 57.6C88.1135 58.048 88.4335 58.4 88.8389 58.656C89.2442 58.9013 89.7135 59.024 90.2469 59.024ZM99.7658 60.192C99.0084 60.192 98.3364 60.0213 97.7498 59.68C97.1631 59.328 96.6991 58.8427 96.3578 58.224C96.0271 57.6053 95.8618 56.8747 95.8618 56.032C95.8618 55.2 96.0271 54.4747 96.3578 53.856C96.6884 53.2267 97.1471 52.7413 97.7338 52.4C98.3311 52.048 99.0191 51.872 99.7977 51.872C100.566 51.872 101.227 52.048 101.782 52.4C102.347 52.7413 102.779 53.1947 103.078 53.76C103.376 54.3253 103.526 54.9333 103.526 55.584C103.526 55.7013 103.52 55.8187 103.51 55.936C103.51 56.0533 103.51 56.1867 103.51 56.336H97.1898C97.2218 56.944 97.3604 57.4507 97.6058 57.856C97.8618 58.2507 98.1764 58.5493 98.5498 58.752C98.9338 58.9547 99.3391 59.056 99.7658 59.056C100.32 59.056 100.784 58.928 101.158 58.672C101.531 58.416 101.803 58.0693 101.974 57.632H103.302C103.088 58.368 102.678 58.9813 102.07 59.472C101.472 59.952 100.704 60.192 99.7658 60.192ZM99.7658 53.008C99.1258 53.008 98.5551 53.2053 98.0538 53.6C97.5631 53.984 97.2804 54.5493 97.2057 55.296H102.198C102.166 54.5813 101.92 54.0213 101.462 53.616C101.003 53.2107 100.438 53.008 99.7658 53.008ZM110.406 63.52L112.374 59.232H111.91L108.758 52.064H110.214L112.838 58.24L115.622 52.064H117.014L111.814 63.52H110.406ZM121.298 60.192C120.551 60.192 119.879 60.0213 119.282 59.68C118.685 59.3387 118.21 58.8587 117.858 58.24C117.517 57.6107 117.346 56.8747 117.346 56.032C117.346 55.1893 117.522 54.4587 117.874 53.84C118.226 53.2107 118.701 52.7253 119.298 52.384C119.906 52.0427 120.583 51.872 121.33 51.872C122.077 51.872 122.749 52.0427 123.346 52.384C123.943 52.7253 124.413 53.2107 124.754 53.84C125.106 54.4587 125.282 55.1893 125.282 56.032C125.282 56.8747 125.106 57.6107 124.754 58.24C124.402 58.8587 123.922 59.3387 123.314 59.68C122.717 60.0213 122.045 60.192 121.298 60.192ZM121.298 59.04C121.757 59.04 122.183 58.928 122.578 58.704C122.973 58.48 123.293 58.144 123.538 57.696C123.783 57.248 123.906 56.6933 123.906 56.032C123.906 55.3707 123.783 54.816 123.538 54.368C123.303 53.92 122.989 53.584 122.594 53.36C122.199 53.136 121.778 53.024 121.33 53.024C120.871 53.024 120.445 53.136 120.05 53.36C119.655 53.584 119.335 53.92 119.09 54.368C118.845 54.816 118.722 55.3707 118.722 56.032C118.722 56.6933 118.845 57.248 119.09 57.696C119.335 58.144 119.65 58.48 120.034 58.704C120.429 58.928 120.85 59.04 121.298 59.04ZM130.047 60.192C129.108 60.192 128.362 59.9093 127.807 59.344C127.252 58.768 126.975 57.888 126.975 56.704V52.064H128.319V56.56C128.319 58.2133 128.996 59.04 130.351 59.04C131.044 59.04 131.615 58.7947 132.063 58.304C132.522 57.8027 132.751 57.0933 132.751 56.176V52.064H134.095V60H132.879L132.783 58.576C132.538 59.0773 132.17 59.472 131.679 59.76C131.199 60.048 130.655 60.192 130.047 60.192ZM136.307 60V52.064H137.523L137.635 53.584C137.88 53.0613 138.254 52.6453 138.755 52.336C139.256 52.0267 139.875 51.872 140.611 51.872V53.28H140.243C139.774 53.28 139.342 53.3653 138.947 53.536C138.552 53.696 138.238 53.9733 138.003 54.368C137.768 54.7627 137.651 55.3067 137.651 56V60H136.307ZM146.786 60V53.2H145.586V52.064H146.786V50.688C146.786 49.92 146.978 49.36 147.362 49.008C147.746 48.656 148.306 48.48 149.042 48.48H149.842V49.632H149.25C148.845 49.632 148.557 49.7173 148.386 49.888C148.215 50.048 148.13 50.3253 148.13 50.72V52.064H150.082V53.2H148.13V60H146.786ZM154.578 60.192C153.639 60.192 152.893 59.9093 152.338 59.344C151.783 58.768 151.506 57.888 151.506 56.704V52.064H152.85V56.56C152.85 58.2133 153.527 59.04 154.882 59.04C155.575 59.04 156.146 58.7947 156.594 58.304C157.053 57.8027 157.282 57.0933 157.282 56.176V52.064H158.626V60H157.41L157.314 58.576C157.069 59.0773 156.701 59.472 156.21 59.76C155.73 60.048 155.186 60.192 154.578 60.192ZM160.838 60V48.48H162.182V60H160.838ZM164.385 60V48.48H165.729V60H164.385ZM172.167 60V52.064H173.383L173.463 53.488C173.719 52.9867 174.087 52.592 174.567 52.304C175.047 52.016 175.591 51.872 176.199 51.872C177.137 51.872 177.884 52.16 178.439 52.736C179.004 53.3013 179.286 54.176 179.286 55.36V60H177.943V55.504C177.943 53.8507 177.26 53.024 175.895 53.024C175.212 53.024 174.641 53.2747 174.183 53.776C173.735 54.2667 173.511 54.9707 173.511 55.888V60H172.167ZM183.963 60.192C183.301 60.192 182.752 60.08 182.315 59.856C181.877 59.632 181.552 59.3333 181.339 58.96C181.125 58.5867 181.019 58.1813 181.019 57.744C181.019 56.9333 181.328 56.3093 181.947 55.872C182.565 55.4347 183.408 55.216 184.475 55.216H186.619V55.12C186.619 54.4267 186.437 53.904 186.075 53.552C185.712 53.1893 185.227 53.008 184.619 53.008C184.096 53.008 183.643 53.1413 183.259 53.408C182.885 53.664 182.651 54.0427 182.555 54.544H181.179C181.232 53.968 181.424 53.4827 181.755 53.088C182.096 52.6933 182.517 52.3947 183.019 52.192C183.52 51.9787 184.053 51.872 184.619 51.872C185.728 51.872 186.56 52.1707 187.115 52.768C187.68 53.3547 187.963 54.1387 187.963 55.12V60H186.763L186.683 58.576C186.459 59.024 186.128 59.408 185.691 59.728C185.264 60.0373 184.688 60.192 183.963 60.192ZM184.171 59.056C184.683 59.056 185.12 58.9227 185.483 58.656C185.856 58.3893 186.139 58.0427 186.331 57.616C186.523 57.1893 186.619 56.7413 186.619 56.272V56.256H184.587C183.797 56.256 183.237 56.3947 182.907 56.672C182.587 56.9387 182.427 57.2747 182.427 57.68C182.427 58.096 182.576 58.432 182.875 58.688C183.184 58.9333 183.616 59.056 184.171 59.056ZM189.979 60V52.064H191.195L191.291 53.216C191.547 52.7893 191.888 52.4587 192.315 52.224C192.742 51.9893 193.222 51.872 193.755 51.872C194.384 51.872 194.923 52 195.371 52.256C195.83 52.512 196.182 52.9013 196.427 53.424C196.704 52.944 197.083 52.5653 197.563 52.288C198.054 52.0107 198.582 51.872 199.147 51.872C200.096 51.872 200.854 52.16 201.419 52.736C201.984 53.3013 202.267 54.176 202.267 55.36V60H200.939V55.504C200.939 54.6827 200.774 54.064 200.443 53.648C200.112 53.232 199.638 53.024 199.019 53.024C198.379 53.024 197.846 53.2747 197.419 53.776C197.003 54.2667 196.795 54.9707 196.795 55.888V60H195.451V55.504C195.451 54.6827 195.286 54.064 194.955 53.648C194.624 53.232 194.15 53.024 193.531 53.024C192.902 53.024 192.374 53.2747 191.947 53.776C191.531 54.2667 191.323 54.9707 191.323 55.888V60H189.979ZM207.86 60.192C207.102 60.192 206.43 60.0213 205.844 59.68C205.257 59.328 204.793 58.8427 204.452 58.224C204.121 57.6053 203.956 56.8747 203.956 56.032C203.956 55.2 204.121 54.4747 204.452 53.856C204.782 53.2267 205.241 52.7413 205.828 52.4C206.425 52.048 207.113 51.872 207.891 51.872C208.66 51.872 209.321 52.048 209.876 52.4C210.441 52.7413 210.873 53.1947 211.172 53.76C211.47 54.3253 211.62 54.9333 211.62 55.584C211.62 55.7013 211.614 55.8187 211.604 55.936C211.604 56.0533 211.604 56.1867 211.604 56.336H205.284C205.316 56.944 205.454 57.4507 205.7 57.856C205.956 58.2507 206.27 58.5493 206.644 58.752C207.028 58.9547 207.433 59.056 207.86 59.056C208.414 59.056 208.878 58.928 209.252 58.672C209.625 58.416 209.897 58.0693 210.068 57.632H211.396C211.182 58.368 210.772 58.9813 210.164 59.472C209.566 59.952 208.798 60.192 207.86 60.192ZM207.86 53.008C207.22 53.008 206.649 53.2053 206.148 53.6C205.657 53.984 205.374 54.5493 205.299 55.296H210.292C210.26 54.5813 210.014 54.0213 209.556 53.616C209.097 53.2107 208.532 53.008 207.86 53.008Z" fill="#999999"/>
<line x1="68" y1="72.25" x2="590" y2="72.25" stroke="white" stroke-width="1.5"/>
<path d="M71.852 18.018L68.45 5.4H70.502L73.004 15.84L75.884 5.4H77.99L80.78 15.84L83.282 5.4H85.334L81.878 18H79.646L76.892 8.118L74.048 18L71.852 18.018ZM86.8326 18V5.04H88.7406V10.512C89.0406 9.996 89.4546 9.594 89.9826 9.306C90.5226 9.006 91.1166 8.856 91.7646 8.856C92.8326 8.856 93.6726 9.192 94.2846 9.864C94.8966 10.536 95.2026 11.538 95.2026 12.87V18H93.3126V13.068C93.3126 11.34 92.6226 10.476 91.2426 10.476C90.5226 10.476 89.9226 10.728 89.4426 11.232C88.9746 11.736 88.7406 12.456 88.7406 13.392V18H86.8326ZM100.294 18.216C99.5378 18.216 98.9138 18.09 98.4218 17.838C97.9298 17.586 97.5638 17.256 97.3238 16.848C97.0838 16.428 96.9638 15.972 96.9638 15.48C96.9638 14.616 97.2998 13.932 97.9718 13.428C98.6438 12.924 99.6038 12.672 100.852 12.672H103.192V12.51C103.192 11.814 103 11.292 102.616 10.944C102.244 10.596 101.758 10.422 101.158 10.422C100.63 10.422 100.168 10.554 99.7718 10.818C99.3878 11.07 99.1538 11.448 99.0698 11.952H97.1618C97.2218 11.304 97.4378 10.752 97.8098 10.296C98.1938 9.828 98.6738 9.474 99.2498 9.234C99.8378 8.982 100.48 8.856 101.176 8.856C102.424 8.856 103.39 9.186 104.074 9.846C104.758 10.494 105.1 11.382 105.1 12.51V18H103.444L103.282 16.47C103.03 16.962 102.664 17.376 102.184 17.712C101.704 18.048 101.074 18.216 100.294 18.216ZM100.672 16.668C101.188 16.668 101.62 16.548 101.968 16.308C102.328 16.056 102.604 15.726 102.796 15.318C103 14.91 103.126 14.46 103.174 13.968H101.05C100.294 13.968 99.7538 14.1 99.4298 14.364C99.1178 14.628 98.9618 14.958 98.9618 15.354C98.9618 15.762 99.1118 16.086 99.4118 16.326C99.7238 16.554 100.144 16.668 100.672 16.668ZM110.713 18C109.837 18 109.141 17.79 108.625 17.37C108.109 16.938 107.851 16.176 107.851 15.084V10.674H106.321V9.072H107.851L108.085 6.804H109.759V9.072H112.279V10.674H109.759V15.084C109.759 15.576 109.861 15.918 110.065 16.11C110.281 16.29 110.647 16.38 111.163 16.38H112.189V18H110.713ZM113.526 9.63L114.534 5.4H116.604L114.858 9.63H113.526ZM120.913 18.216C119.785 18.216 118.855 17.94 118.123 17.388C117.391 16.836 116.971 16.104 116.863 15.192H118.789C118.885 15.6 119.113 15.954 119.473 16.254C119.833 16.542 120.307 16.686 120.895 16.686C121.471 16.686 121.891 16.566 122.155 16.326C122.419 16.086 122.551 15.81 122.551 15.498C122.551 15.042 122.365 14.736 121.993 14.58C121.633 14.412 121.129 14.262 120.481 14.13C119.977 14.022 119.473 13.878 118.969 13.698C118.477 13.518 118.063 13.266 117.727 12.942C117.403 12.606 117.241 12.156 117.241 11.592C117.241 10.812 117.541 10.164 118.141 9.648C118.741 9.12 119.581 8.856 120.661 8.856C121.657 8.856 122.461 9.096 123.073 9.576C123.697 10.056 124.063 10.734 124.171 11.61H122.335C122.275 11.226 122.095 10.926 121.795 10.71C121.507 10.494 121.117 10.386 120.625 10.386C120.145 10.386 119.773 10.488 119.509 10.692C119.245 10.884 119.113 11.136 119.113 11.448C119.113 11.76 119.293 12.006 119.653 12.186C120.025 12.366 120.511 12.528 121.111 12.672C121.711 12.804 122.263 12.96 122.767 13.14C123.283 13.308 123.697 13.56 124.009 13.896C124.321 14.232 124.477 14.724 124.477 15.372C124.489 16.188 124.171 16.866 123.523 17.406C122.887 17.946 122.017 18.216 120.913 18.216ZM131.779 21.96L133.921 17.262H133.399L129.871 9.072H131.941L134.677 15.678L137.539 9.072H139.555L133.795 21.96H131.779ZM144.311 18.216C143.459 18.216 142.691 18.024 142.007 17.64C141.335 17.244 140.801 16.698 140.405 16.002C140.009 15.294 139.811 14.472 139.811 13.536C139.811 12.6 140.009 11.784 140.405 11.088C140.813 10.38 141.359 9.834 142.043 9.45C142.727 9.054 143.489 8.856 144.329 8.856C145.181 8.856 145.943 9.054 146.615 9.45C147.299 9.834 147.839 10.38 148.235 11.088C148.643 11.784 148.847 12.6 148.847 13.536C148.847 14.472 148.643 15.294 148.235 16.002C147.839 16.698 147.299 17.244 146.615 17.64C145.931 18.024 145.163 18.216 144.311 18.216ZM144.311 16.578C144.767 16.578 145.187 16.464 145.571 16.236C145.967 16.008 146.285 15.672 146.525 15.228C146.765 14.772 146.885 14.208 146.885 13.536C146.885 12.864 146.765 12.306 146.525 11.862C146.297 11.406 145.985 11.064 145.589 10.836C145.205 10.608 144.785 10.494 144.329 10.494C143.873 10.494 143.447 10.608 143.051 10.836C142.667 11.064 142.355 11.406 142.115 11.862C141.875 12.306 141.755 12.864 141.755 13.536C141.755 14.208 141.875 14.772 142.115 15.228C142.355 15.672 142.667 16.008 143.051 16.236C143.435 16.464 143.855 16.578 144.311 16.578ZM154.025 18.216C152.945 18.216 152.093 17.88 151.469 17.208C150.857 16.536 150.551 15.534 150.551 14.202V9.072H152.459V14.004C152.459 15.732 153.167 16.596 154.583 16.596C155.291 16.596 155.873 16.344 156.329 15.84C156.785 15.336 157.013 14.616 157.013 13.68V9.072H158.921V18H157.229L157.085 16.434C156.809 16.986 156.401 17.424 155.861 17.748C155.333 18.06 154.721 18.216 154.025 18.216ZM161.168 18V9.072H162.878L163.04 10.764C163.352 10.176 163.784 9.714 164.336 9.378C164.9 9.03 165.578 8.856 166.37 8.856V10.854H165.848C165.32 10.854 164.846 10.944 164.426 11.124C164.018 11.292 163.688 11.586 163.436 12.006C163.196 12.414 163.076 12.984 163.076 13.716V18H161.168ZM172.181 18V9.072H173.873L174.017 10.638C174.293 10.086 174.695 9.654 175.223 9.342C175.763 9.018 176.381 8.856 177.077 8.856C178.157 8.856 179.003 9.192 179.615 9.864C180.239 10.536 180.551 11.538 180.551 12.87V18H178.661V13.068C178.661 11.34 177.953 10.476 176.537 10.476C175.829 10.476 175.241 10.728 174.773 11.232C174.317 11.736 174.089 12.456 174.089 13.392V18H172.181ZM185.642 18.216C184.886 18.216 184.262 18.09 183.77 17.838C183.278 17.586 182.912 17.256 182.672 16.848C182.432 16.428 182.312 15.972 182.312 15.48C182.312 14.616 182.648 13.932 183.32 13.428C183.992 12.924 184.952 12.672 186.2 12.672H188.54V12.51C188.54 11.814 188.348 11.292 187.964 10.944C187.592 10.596 187.106 10.422 186.506 10.422C185.978 10.422 185.516 10.554 185.12 10.818C184.736 11.07 184.502 11.448 184.418 11.952H182.51C182.57 11.304 182.786 10.752 183.158 10.296C183.542 9.828 184.022 9.474 184.598 9.234C185.186 8.982 185.828 8.856 186.524 8.856C187.772 8.856 188.738 9.186 189.422 9.846C190.106 10.494 190.448 11.382 190.448 12.51V18H188.792L188.63 16.47C188.378 16.962 188.012 17.376 187.532 17.712C187.052 18.048 186.422 18.216 185.642 18.216ZM186.02 16.668C186.536 16.668 186.968 16.548 187.316 16.308C187.676 16.056 187.952 15.726 188.144 15.318C188.348 14.91 188.474 14.46 188.522 13.968H186.398C185.642 13.968 185.102 14.1 184.778 14.364C184.466 14.628 184.31 14.958 184.31 15.354C184.31 15.762 184.46 16.086 184.76 16.326C185.072 16.554 185.492 16.668 186.02 16.668ZM192.493 18V9.072H194.185L194.347 10.332C194.635 9.876 195.013 9.516 195.481 9.252C195.961 8.988 196.513 8.856 197.137 8.856C198.553 8.856 199.537 9.414 200.089 10.53C200.413 10.014 200.845 9.606 201.385 9.306C201.937 9.006 202.531 8.856 203.167 8.856C204.283 8.856 205.159 9.192 205.795 9.864C206.431 10.536 206.749 11.538 206.749 12.87V18H204.841V13.068C204.841 11.34 204.181 10.476 202.861 10.476C202.189 10.476 201.637 10.728 201.205 11.232C200.785 11.736 200.575 12.456 200.575 13.392V18H198.667V13.068C198.667 11.34 198.001 10.476 196.669 10.476C196.009 10.476 195.463 10.728 195.031 11.232C194.611 11.736 194.401 12.456 194.401 13.392V18H192.493ZM212.977 18.216C212.101 18.216 211.321 18.024 210.637 17.64C209.965 17.244 209.437 16.698 209.053 16.002C208.669 15.306 208.477 14.496 208.477 13.572C208.477 12.636 208.663 11.814 209.035 11.106C209.419 10.398 209.947 9.846 210.619 9.45C211.303 9.054 212.095 8.856 212.995 8.856C213.871 8.856 214.633 9.054 215.281 9.45C215.929 9.834 216.433 10.35 216.793 10.998C217.153 11.646 217.333 12.36 217.333 13.14C217.333 13.26 217.327 13.392 217.315 13.536C217.315 13.668 217.309 13.818 217.297 13.986H210.349C210.409 14.85 210.691 15.51 211.195 15.966C211.711 16.41 212.305 16.632 212.977 16.632C213.517 16.632 213.967 16.512 214.327 16.272C214.699 16.02 214.975 15.684 215.155 15.264H217.063C216.823 16.104 216.343 16.806 215.623 17.37C214.915 17.934 214.033 18.216 212.977 18.216ZM212.977 10.422C212.341 10.422 211.777 10.614 211.285 10.998C210.793 11.37 210.493 11.934 210.385 12.69H215.425C215.389 11.994 215.143 11.442 214.687 11.034C214.231 10.626 213.661 10.422 212.977 10.422ZM220.167 14.274L220.095 11.34H220.779C221.427 11.34 222.021 11.28 222.561 11.16C223.113 11.04 223.551 10.806 223.875 10.458C224.211 10.11 224.379 9.594 224.379 8.91C224.379 8.25 224.175 7.734 223.767 7.362C223.359 6.978 222.825 6.786 222.165 6.786C221.481 6.786 220.941 6.972 220.545 7.344C220.149 7.716 219.951 8.22 219.951 8.856H218.151C218.139 8.136 218.295 7.5 218.619 6.948C218.955 6.396 219.423 5.964 220.023 5.652C220.635 5.34 221.349 5.184 222.165 5.184C222.957 5.184 223.659 5.334 224.271 5.634C224.883 5.934 225.357 6.366 225.693 6.93C226.041 7.482 226.215 8.148 226.215 8.928C226.215 9.78 226.029 10.482 225.657 11.034C225.285 11.574 224.775 11.976 224.127 12.24C223.479 12.492 222.735 12.618 221.895 12.618L221.841 14.274H220.167ZM221.013 18.108C220.641 18.108 220.341 17.994 220.113 17.766C219.885 17.526 219.771 17.244 219.771 16.92C219.771 16.584 219.885 16.302 220.113 16.074C220.341 15.834 220.641 15.714 221.013 15.714C221.361 15.714 221.649 15.834 221.877 16.074C222.117 16.302 222.237 16.584 222.237 16.92C222.237 17.244 222.117 17.526 221.877 17.766C221.649 17.994 221.361 18.108 221.013 18.108Z" fill="white"/>
<rect x="0.5" y="0.5" width="36" height="25" rx="12.5" fill="#DFF314"/>
<rect x="0.5" y="0.5" width="36" height="25" rx="12.5" stroke="#DFF314"/>
<path d="M16.212 17.144C15.452 17.144 14.796 16.964 14.244 16.604C13.7 16.236 13.28 15.728 12.984 15.08C12.696 14.424 12.552 13.664 12.552 12.8C12.552 11.936 12.696 11.18 12.984 10.532C13.28 9.876 13.7 9.368 14.244 9.008C14.796 8.64 15.452 8.456 16.212 8.456C16.972 8.456 17.624 8.64 18.168 9.008C18.712 9.368 19.128 9.876 19.416 10.532C19.712 11.18 19.86 11.936 19.86 12.8C19.86 13.664 19.712 14.424 19.416 15.08C19.128 15.728 18.712 16.236 18.168 16.604C17.624 16.964 16.972 17.144 16.212 17.144ZM16.212 16.004C16.668 16.004 17.072 15.876 17.424 15.62C17.784 15.364 18.064 14.996 18.264 14.516C18.464 14.036 18.564 13.464 18.564 12.8C18.564 12.136 18.464 11.564 18.264 11.084C18.064 10.604 17.784 10.236 17.424 9.98C17.072 9.724 16.668 9.596 16.212 9.596C15.748 9.596 15.34 9.724 14.988 9.98C14.636 10.236 14.36 10.604 14.16 11.084C13.96 11.564 13.86 12.136 13.86 12.8C13.86 13.464 13.96 14.036 14.16 14.516C14.36 14.996 14.636 15.364 14.988 15.62C15.34 15.876 15.748 16.004 16.212 16.004ZM22.5018 17V10.04L21.1458 10.352V9.416L23.0058 8.6H23.8218V17H22.5018Z" fill="#181818"/>
</svg>
