<svg width="522" height="31" viewBox="0 0 522 31" fill="none" xmlns="http://www.w3.org/2000/svg">
<path d="M3.808 18V7.904H0.464V6.8H8.496V7.904H5.152V18H3.808ZM10.1243 21.52L12.0923 17.232H11.6283L8.47625 10.064H9.93225L12.5563 16.24L15.3403 10.064H16.7323L11.5323 21.52H10.1243ZM18.1509 21.52V10.064H19.3669L19.4949 11.376C19.7509 10.992 20.1135 10.6453 20.5829 10.336C21.0629 10.0267 21.6709 9.872 22.4069 9.872C23.1962 9.872 23.8842 10.0533 24.4709 10.416C25.0575 10.7787 25.5109 11.2747 25.8309 11.904C26.1615 12.5333 26.3269 13.248 26.3269 14.048C26.3269 14.848 26.1615 15.5627 25.8309 16.192C25.5109 16.8107 25.0522 17.3013 24.4549 17.664C23.8682 18.016 23.1802 18.192 22.3909 18.192C21.7402 18.192 21.1589 18.0587 20.6469 17.792C20.1455 17.5253 19.7615 17.152 19.4949 16.672V21.52H18.1509ZM22.2469 17.024C22.7802 17.024 23.2495 16.9013 23.6549 16.656C24.0602 16.4 24.3802 16.048 24.6149 15.6C24.8495 15.152 24.9669 14.6293 24.9669 14.032C24.9669 13.4347 24.8495 12.912 24.6149 12.464C24.3802 12.016 24.0602 11.6693 23.6549 11.424C23.2495 11.168 22.7802 11.04 22.2469 11.04C21.7135 11.04 21.2442 11.168 20.8389 11.424C20.4335 11.6693 20.1135 12.016 19.8789 12.464C19.6442 12.912 19.5269 13.4347 19.5269 14.032C19.5269 14.6293 19.6442 15.152 19.8789 15.6C20.1135 16.048 20.4335 16.4 20.8389 16.656C21.2442 16.9013 21.7135 17.024 22.2469 17.024ZM31.7658 18.192C31.0084 18.192 30.3364 18.0213 29.7498 17.68C29.1631 17.328 28.6991 16.8427 28.3578 16.224C28.0271 15.6053 27.8618 14.8747 27.8618 14.032C27.8618 13.2 28.0271 12.4747 28.3578 11.856C28.6884 11.2267 29.1471 10.7413 29.7338 10.4C30.3311 10.048 31.0191 9.872 31.7977 9.872C32.5658 9.872 33.2271 10.048 33.7818 10.4C34.3471 10.7413 34.7791 11.1947 35.0778 11.76C35.3764 12.3253 35.5258 12.9333 35.5258 13.584C35.5258 13.7013 35.5204 13.8187 35.5098 13.936C35.5098 14.0533 35.5098 14.1867 35.5098 14.336H29.1898C29.2218 14.944 29.3604 15.4507 29.6058 15.856C29.8618 16.2507 30.1764 16.5493 30.5498 16.752C30.9338 16.9547 31.3391 17.056 31.7658 17.056C32.3204 17.056 32.7844 16.928 33.1578 16.672C33.5311 16.416 33.8031 16.0693 33.9738 15.632H35.3018C35.0884 16.368 34.6778 16.9813 34.0698 17.472C33.4724 17.952 32.7044 18.192 31.7658 18.192ZM31.7658 11.008C31.1258 11.008 30.5551 11.2053 30.0538 11.6C29.5631 11.984 29.2804 12.5493 29.2057 13.296H34.1978C34.1658 12.5813 33.9204 12.0213 33.4618 11.616C33.0031 11.2107 32.4378 11.008 31.7658 11.008ZM42.4055 21.52L44.3735 17.232H43.9095L40.7575 10.064H42.2135L44.8375 16.24L47.6215 10.064H49.0135L43.8135 21.52H42.4055ZM53.2981 18.192C52.5515 18.192 51.8795 18.0213 51.2821 17.68C50.6848 17.3387 50.2101 16.8587 49.8581 16.24C49.5168 15.6107 49.3461 14.8747 49.3461 14.032C49.3461 13.1893 49.5221 12.4587 49.8741 11.84C50.2261 11.2107 50.7008 10.7253 51.2981 10.384C51.9061 10.0427 52.5835 9.872 53.3301 9.872C54.0768 9.872 54.7488 10.0427 55.3461 10.384C55.9435 10.7253 56.4128 11.2107 56.7541 11.84C57.1061 12.4587 57.2821 13.1893 57.2821 14.032C57.2821 14.8747 57.1061 15.6107 56.7541 16.24C56.4021 16.8587 55.9221 17.3387 55.3141 17.68C54.7168 18.0213 54.0448 18.192 53.2981 18.192ZM53.2981 17.04C53.7568 17.04 54.1835 16.928 54.5781 16.704C54.9728 16.48 55.2928 16.144 55.5381 15.696C55.7835 15.248 55.9061 14.6933 55.9061 14.032C55.9061 13.3707 55.7835 12.816 55.5381 12.368C55.3035 11.92 54.9888 11.584 54.5941 11.36C54.1995 11.136 53.7781 11.024 53.3301 11.024C52.8715 11.024 52.4448 11.136 52.0501 11.36C51.6555 11.584 51.3355 11.92 51.0901 12.368C50.8448 12.816 50.7221 13.3707 50.7221 14.032C50.7221 14.6933 50.8448 15.248 51.0901 15.696C51.3355 16.144 51.6501 16.48 52.0341 16.704C52.4288 16.928 52.8501 17.04 53.2981 17.04ZM62.0469 18.192C61.1082 18.192 60.3615 17.9093 59.8069 17.344C59.2522 16.768 58.9749 15.888 58.9749 14.704V10.064H60.3189V14.56C60.3189 16.2133 60.9962 17.04 62.3509 17.04C63.0442 17.04 63.6149 16.7947 64.0629 16.304C64.5215 15.8027 64.7509 15.0933 64.7509 14.176V10.064H66.0949V18H64.8789L64.7829 16.576C64.5375 17.0773 64.1695 17.472 63.6789 17.76C63.1989 18.048 62.6549 18.192 62.0469 18.192ZM68.3071 18V10.064H69.5231L69.6351 11.584C69.8805 11.0613 70.2538 10.6453 70.7551 10.336C71.2565 10.0267 71.8751 9.872 72.6111 9.872V11.28H72.2431C71.7738 11.28 71.3418 11.3653 70.9471 11.536C70.5525 11.696 70.2378 11.9733 70.0031 12.368C69.7685 12.7627 69.6511 13.3067 69.6511 14V18H68.3071ZM78.786 18V11.2H77.586V10.064H78.786V8.688C78.786 7.92 78.978 7.36 79.362 7.008C79.746 6.656 80.306 6.48 81.042 6.48H81.842V7.632H81.25C80.8447 7.632 80.5567 7.71733 80.386 7.888C80.2153 8.048 80.13 8.32533 80.13 8.72V10.064H82.082V11.2H80.13V18H78.786ZM86.5781 18.192C85.6395 18.192 84.8928 17.9093 84.3381 17.344C83.7835 16.768 83.5061 15.888 83.5061 14.704V10.064H84.8501V14.56C84.8501 16.2133 85.5275 17.04 86.8821 17.04C87.5755 17.04 88.1461 16.7947 88.5941 16.304C89.0528 15.8027 89.2821 15.0933 89.2821 14.176V10.064H90.6261V18H89.4101L89.3141 16.576C89.0688 17.0773 88.7008 17.472 88.2101 17.76C87.7301 18.048 87.1861 18.192 86.5781 18.192ZM92.8384 18V6.48H94.1824V18H92.8384ZM96.3853 18V6.48H97.7293V18H96.3853ZM104.167 18V10.064H105.383L105.463 11.488C105.719 10.9867 106.087 10.592 106.567 10.304C107.047 10.016 107.591 9.872 108.199 9.872C109.137 9.872 109.884 10.16 110.439 10.736C111.004 11.3013 111.286 12.176 111.286 13.36V18H109.943V13.504C109.943 11.8507 109.26 11.024 107.895 11.024C107.212 11.024 106.641 11.2747 106.183 11.776C105.735 12.2667 105.511 12.9707 105.511 13.888V18H104.167ZM115.963 18.192C115.301 18.192 114.752 18.08 114.315 17.856C113.877 17.632 113.552 17.3333 113.339 16.96C113.125 16.5867 113.019 16.1813 113.019 15.744C113.019 14.9333 113.328 14.3093 113.947 13.872C114.565 13.4347 115.408 13.216 116.475 13.216H118.619V13.12C118.619 12.4267 118.437 11.904 118.075 11.552C117.712 11.1893 117.227 11.008 116.619 11.008C116.096 11.008 115.643 11.1413 115.259 11.408C114.885 11.664 114.651 12.0427 114.555 12.544H113.179C113.232 11.968 113.424 11.4827 113.755 11.088C114.096 10.6933 114.517 10.3947 115.019 10.192C115.52 9.97867 116.053 9.872 116.619 9.872C117.728 9.872 118.56 10.1707 119.115 10.768C119.68 11.3547 119.963 12.1387 119.963 13.12V18H118.763L118.683 16.576C118.459 17.024 118.128 17.408 117.691 17.728C117.264 18.0373 116.688 18.192 115.963 18.192ZM116.171 17.056C116.683 17.056 117.12 16.9227 117.483 16.656C117.856 16.3893 118.139 16.0427 118.331 15.616C118.523 15.1893 118.619 14.7413 118.619 14.272V14.256H116.587C115.797 14.256 115.237 14.3947 114.907 14.672C114.587 14.9387 114.427 15.2747 114.427 15.68C114.427 16.096 114.576 16.432 114.875 16.688C115.184 16.9333 115.616 17.056 116.171 17.056ZM121.979 18V10.064H123.195L123.291 11.216C123.547 10.7893 123.888 10.4587 124.315 10.224C124.742 9.98933 125.222 9.872 125.755 9.872C126.384 9.872 126.923 10 127.371 10.256C127.83 10.512 128.182 10.9013 128.427 11.424C128.704 10.944 129.083 10.5653 129.563 10.288C130.054 10.0107 130.582 9.872 131.147 9.872C132.096 9.872 132.854 10.16 133.419 10.736C133.984 11.3013 134.267 12.176 134.267 13.36V18H132.939V13.504C132.939 12.6827 132.774 12.064 132.443 11.648C132.112 11.232 131.638 11.024 131.019 11.024C130.379 11.024 129.846 11.2747 129.419 11.776C129.003 12.2667 128.795 12.9707 128.795 13.888V18H127.451V13.504C127.451 12.6827 127.286 12.064 126.955 11.648C126.624 11.232 126.15 11.024 125.531 11.024C124.902 11.024 124.374 11.2747 123.947 11.776C123.531 12.2667 123.323 12.9707 123.323 13.888V18H121.979ZM139.86 18.192C139.102 18.192 138.43 18.0213 137.844 17.68C137.257 17.328 136.793 16.8427 136.452 16.224C136.121 15.6053 135.956 14.8747 135.956 14.032C135.956 13.2 136.121 12.4747 136.452 11.856C136.782 11.2267 137.241 10.7413 137.828 10.4C138.425 10.048 139.113 9.872 139.891 9.872C140.66 9.872 141.321 10.048 141.876 10.4C142.441 10.7413 142.873 11.1947 143.172 11.76C143.47 12.3253 143.62 12.9333 143.62 13.584C143.62 13.7013 143.614 13.8187 143.604 13.936C143.604 14.0533 143.604 14.1867 143.604 14.336H137.284C137.316 14.944 137.454 15.4507 137.7 15.856C137.956 16.2507 138.27 16.5493 138.644 16.752C139.028 16.9547 139.433 17.056 139.86 17.056C140.414 17.056 140.878 16.928 141.252 16.672C141.625 16.416 141.897 16.0693 142.068 15.632H143.396C143.182 16.368 142.772 16.9813 142.164 17.472C141.566 17.952 140.798 18.192 139.86 18.192ZM139.86 11.008C139.22 11.008 138.649 11.2053 138.148 11.6C137.657 11.984 137.374 12.5493 137.299 13.296H142.292C142.26 12.5813 142.014 12.0213 141.556 11.616C141.097 11.2107 140.532 11.008 139.86 11.008Z" fill="#999999"/>
<line y1="30.25" x2="522" y2="30.25" stroke="white" stroke-width="1.5"/>
</svg>
