<svg width="37" height="26" viewBox="0 0 37 26" fill="none" xmlns="http://www.w3.org/2000/svg">
<rect x="0.5" y="0.5" width="36" height="25" rx="12.5" fill="#DFF314"/>
<rect x="0.5" y="0.5" width="36" height="25" rx="12.5" stroke="#DFF314"/>
<path d="M16.212 17.144C15.452 17.144 14.796 16.964 14.244 16.604C13.7 16.236 13.28 15.728 12.984 15.08C12.696 14.424 12.552 13.664 12.552 12.8C12.552 11.936 12.696 11.18 12.984 10.532C13.28 9.876 13.7 9.368 14.244 9.008C14.796 8.64 15.452 8.456 16.212 8.456C16.972 8.456 17.624 8.64 18.168 9.008C18.712 9.368 19.128 9.876 19.416 10.532C19.712 11.18 19.86 11.936 19.86 12.8C19.86 13.664 19.712 14.424 19.416 15.08C19.128 15.728 18.712 16.236 18.168 16.604C17.624 16.964 16.972 17.144 16.212 17.144ZM16.212 16.004C16.668 16.004 17.072 15.876 17.424 15.62C17.784 15.364 18.064 14.996 18.264 14.516C18.464 14.036 18.564 13.464 18.564 12.8C18.564 12.136 18.464 11.564 18.264 11.084C18.064 10.604 17.784 10.236 17.424 9.98C17.072 9.724 16.668 9.596 16.212 9.596C15.748 9.596 15.34 9.724 14.988 9.98C14.636 10.236 14.36 10.604 14.16 11.084C13.96 11.564 13.86 12.136 13.86 12.8C13.86 13.464 13.96 14.036 14.16 14.516C14.36 14.996 14.636 15.364 14.988 15.62C15.34 15.876 15.748 16.004 16.212 16.004ZM22.5018 17V10.04L21.1458 10.352V9.416L23.0058 8.6H23.8218V17H22.5018Z" fill="#181818"/>
</svg>
