<svg width="120" height="120" viewBox="0 0 120 120" fill="none" xmlns="http://www.w3.org/2000/svg">
<path d="M120 60C120 93.1371 93.1371 120 60 120C26.8629 120 1.28748e-05 93.1371 1.28748e-05 60C1.28748e-05 26.8629 26.8629 5.24537e-06 60 5.24537e-06C93.1371 5.24537e-06 120 26.8629 120 60Z" fill="#DFF314"/>
<path d="M55.2151 9.72167C55.0564 9.7361 54.9162 9.69397 54.7943 9.59527C54.6752 9.49318 54.6082 9.35969 54.5932 9.1948C54.5787 9.03613 54.621 8.8974 54.72 8.7786C54.8218 8.65641 54.952 8.5881 55.1106 8.57366C55.2724 8.55894 55.4143 8.60248 55.5365 8.70429C55.6584 8.80299 55.7266 8.93168 55.741 9.09034C55.756 9.25523 55.7126 9.39877 55.6108 9.52096C55.5087 9.64005 55.3768 9.70695 55.2151 9.72167Z" fill="#181818"/>
<path d="M43.4256 14.736L41.3793 8.50309L45.203 7.24731L45.4486 7.99526L42.3727 9.00544L42.9544 10.7774L45.4739 9.94993L45.7195 10.6979L43.2 11.5253L43.9279 13.7425L47.0038 12.7323L47.2494 13.4802L43.4256 14.736Z" fill="#181818"/>
<path d="M35.6983 18.3113L33.9423 11.8641L34.4847 11.5973L38.1295 14.995L37.6587 10.0356L38.2011 9.76882L42.2399 15.0929L41.521 15.4466L38.5916 11.582L39.0431 16.2688L38.5765 16.4984L35.1401 13.2802L36.4172 17.9576L35.6983 18.3113Z" fill="#181818"/>
<path d="M32.6367 20.5824C32.2064 20.8828 31.7592 21.0389 31.295 21.0506C30.8334 21.0606 30.3934 20.9487 29.9751 20.7151C29.5575 20.4771 29.1976 20.1416 28.8954 19.7087L26.7068 16.5736L27.3521 16.1229L29.5408 19.2581C29.7554 19.5654 30.0093 19.8091 30.3026 19.9891C30.5984 20.1674 30.9075 20.2582 31.2299 20.2617C31.5549 20.2633 31.8736 20.1551 32.1861 19.9369C32.5036 19.7151 32.7163 19.4523 32.8242 19.1484C32.9302 18.8419 32.9489 18.5221 32.8802 18.1891C32.8123 17.8517 32.671 17.5293 32.4565 17.222L30.2678 14.0868L30.9132 13.6361L33.1018 16.7713C33.3289 17.0966 33.4931 17.4354 33.5942 17.7876C33.6936 18.1374 33.7262 18.4842 33.692 18.8281C33.6604 19.1702 33.5572 19.4918 33.3826 19.7928C33.208 20.0938 32.9594 20.357 32.6367 20.5824Z" fill="#181818"/>
<path d="M27.8787 24.3671C27.6167 24.6036 27.3273 24.7912 27.0106 24.9298C26.6918 25.0661 26.3717 25.1403 26.0504 25.1526C25.7314 25.1628 25.4385 25.0969 25.1715 24.955L25.5324 24.2568C25.696 24.3448 25.8843 24.381 26.0974 24.3654C26.3107 24.3454 26.5273 24.2846 26.747 24.183C26.9667 24.0815 27.1681 23.948 27.3513 23.7827C27.56 23.5943 27.7233 23.3859 27.8411 23.1575C27.9592 22.9247 28.0185 22.6966 28.0189 22.4732C28.0192 22.2498 27.9451 22.0558 27.7966 21.8911C27.6438 21.7218 27.4613 21.6362 27.2491 21.6341C27.0348 21.6298 26.809 21.6779 26.5716 21.7786C26.3322 21.8769 26.0982 21.9976 25.8697 22.1407C25.4833 22.3886 25.1107 22.5818 24.7519 22.7205C24.3934 22.8547 24.0528 22.8992 23.73 22.8539C23.4096 22.8065 23.1123 22.6309 22.8381 22.3271C22.5828 22.0441 22.4411 21.7239 22.413 21.3663C22.3872 21.0067 22.4564 20.6475 22.6208 20.2887C22.7851 19.93 23.0227 19.6104 23.3334 19.3299C23.5908 19.0976 23.8766 18.9132 24.191 18.7767C24.5057 18.6358 24.8248 18.5581 25.1484 18.5437C25.472 18.5294 25.7738 18.5957 26.0538 18.7428L25.6828 19.4437C25.5172 19.3534 25.3277 19.3182 25.1143 19.3383C24.9012 19.3539 24.6859 19.4136 24.4682 19.5175C24.2508 19.6169 24.0494 19.7504 23.8639 19.9178C23.6554 20.1018 23.4933 20.3091 23.3775 20.5399C23.2618 20.7706 23.2037 20.9977 23.2033 21.2211C23.2029 21.4444 23.276 21.6373 23.4224 21.7996C23.5982 21.9944 23.7842 22.098 23.9804 22.1103C24.1768 22.1181 24.3873 22.067 24.6119 21.9568C24.8365 21.8467 25.0779 21.7109 25.3361 21.5494C25.6996 21.318 26.0681 21.139 26.4417 21.0121C26.8132 20.883 27.166 20.8402 27.4999 20.8839C27.8361 20.9255 28.1298 21.0854 28.3809 21.3637C28.6362 21.6466 28.7768 21.9679 28.8026 22.3276C28.8307 22.6851 28.7626 23.0433 28.5982 23.402C28.4339 23.7608 28.194 24.0825 27.8787 24.3671Z" fill="#181818"/>
<path d="M22.6425 29.6398L17.7303 25.2924L20.3973 22.2779L20.9868 22.7996L18.8414 25.2245L20.2379 26.4604L21.9952 24.4742L22.5847 24.9959L20.8273 26.9821L22.5747 28.5286L24.7201 26.1036L25.3096 26.6253L22.6425 29.6398Z" fill="#181818"/>
<path d="M19.4487 34.0224L14.0967 30.2297L15.4294 28.3486C15.6316 28.0631 15.8841 27.8553 16.1868 27.7252C16.4913 27.5926 16.8111 27.5436 17.1464 27.5783C17.4809 27.6086 17.7947 27.7276 18.0878 27.9353C18.3452 28.1177 18.5436 28.3348 18.6829 28.5867C18.8222 28.8386 18.9 29.1043 18.9163 29.3839C18.9319 29.6591 18.887 29.9278 18.7816 30.19L21.9542 30.4857L21.4287 31.2274L18.3259 30.9468L17.7056 31.8224L19.9038 33.3801L19.4487 34.0224ZM17.0634 31.3672L17.8949 30.1934C18.0177 30.0201 18.0885 29.831 18.1074 29.6261C18.1236 29.4194 18.0889 29.2225 18.0033 29.0354C17.9168 28.844 17.7819 28.6833 17.5984 28.5533C17.4123 28.4214 17.216 28.3474 17.0093 28.3311C16.8019 28.3105 16.6047 28.343 16.4177 28.4287C16.2281 28.5126 16.0719 28.6412 15.9491 28.8145L15.1176 29.9883L17.0634 31.3672Z" fill="#181818"/>
<path d="M11.4744 34.7197L11.8813 33.8859L14.1364 37.4587L16.8015 38.7599L16.4562 39.4674L13.7911 38.1661L9.58756 38.5854L9.99452 37.7516L13.189 37.4341L11.4744 34.7197Z" fill="#181818"/>
<path d="M12.8548 49.2777L6.98463 46.0869L7.16705 45.5107L12.1415 45.2278L8.2347 42.1377L8.41712 41.5614L15.0551 42.3264L14.8133 43.0903L9.99658 42.5334L13.6932 45.4489L13.5363 45.9447L8.83559 46.2012L13.0966 48.5138L12.8548 49.2777Z" fill="#181818"/>
<path d="M5.63628 52.8094L5.72331 52.027L12.2424 52.7524L12.1553 53.5348L9.05412 53.1897L8.69513 56.4172L11.7963 56.7622L11.7093 57.5447L5.19026 56.8193L5.27729 56.0369L7.91284 56.3301L8.27184 53.1027L5.63628 52.8094Z" fill="#181818"/>
<path d="M11.8022 61.2462C11.8111 61.6897 11.7319 62.1084 11.5648 62.5023C11.3946 62.8962 11.1579 63.2447 10.8546 63.5476C10.5482 63.8474 10.1905 64.0857 9.78168 64.2626C9.37276 64.4363 8.93409 64.5279 8.46566 64.5372C7.99723 64.5465 7.55527 64.4726 7.13975 64.3152C6.72418 64.1548 6.35889 63.9308 6.04388 63.6434C5.72569 63.3529 5.47526 63.0142 5.29261 62.6273C5.10683 62.2404 5.00952 61.8252 5.00069 61.3817C4.99011 60.8507 5.10373 60.3594 5.34154 59.9079C5.57935 59.4563 5.89987 59.0797 6.30312 58.7779L6.69176 59.4685C6.40881 59.6929 6.18635 59.9738 6.02438 60.3114C5.85921 60.6459 5.7803 60.9974 5.78764 61.366C5.79442 61.7064 5.86947 62.0236 6.01279 62.3176C6.15604 62.6085 6.3501 62.8624 6.59498 63.0794C6.83985 63.2963 7.12124 63.4641 7.43914 63.5828C7.75703 63.7014 8.09398 63.7572 8.44998 63.7501C8.80911 63.743 9.14513 63.6738 9.45805 63.5426C9.77091 63.4082 10.0454 63.2278 10.2814 63.0012C10.5174 62.7716 10.7011 62.5086 10.8327 62.2122C10.9611 61.9128 11.0219 61.596 11.0153 61.2618C11.0077 60.8808 10.9148 60.5296 10.7366 60.2081C10.5551 59.8837 10.3217 59.6149 10.0363 59.4019L10.4018 58.6963C10.8168 58.9817 11.1521 59.3453 11.4077 59.787C11.6601 60.2288 11.7917 60.7152 11.8022 61.2462Z" fill="#181818"/>
<path d="M5.35538 66.2967L6.13364 66.1789L6.46021 68.338L12.1674 67.4745L12.2852 68.2529L6.57795 69.1164L6.90382 71.2709L6.12557 71.3886L5.35538 66.2967Z" fill="#181818"/>
<path d="M7.3841 76.2505L7.12257 75.3359L12.7732 71.2387L13.0026 72.0407L11.8482 72.8777L12.6946 75.8377L14.1157 75.9333L14.3463 76.7397L7.3841 76.2505ZM11.858 75.7749L11.1713 73.3735L8.22246 75.5184L11.858 75.7749Z" fill="#181818"/>
<path d="M17.0162 82.8674L11.7542 87.1283L11.4162 86.3915L15.5704 83.0308L10.316 83.9937L10.0209 83.3507L14.1752 79.99L8.92076 80.9529L8.5827 80.2161L15.2399 78.996L15.6229 79.8308L11.8112 82.9157L16.6351 82.0369L17.0162 82.8674Z" fill="#181818"/>
<path d="M20.0333 91.7125C20.1287 91.8401 20.1663 91.9817 20.1461 92.1372C20.1215 92.2921 20.043 92.4192 19.9104 92.5183C19.7828 92.6138 19.6425 92.6504 19.4895 92.6283C19.3321 92.6056 19.2057 92.5305 19.1103 92.4029C19.0131 92.2728 18.9758 92.129 18.9985 91.9716C19.0187 91.8161 19.0926 91.6906 19.2201 91.5952C19.3527 91.496 19.4977 91.4578 19.6551 91.4805C19.81 91.5051 19.9361 91.5824 20.0333 91.7125Z" fill="#181818"/>
<path d="M30.4798 99.1297L26.2434 104.138L23.1709 101.538L23.6792 100.937L26.1509 103.029L27.3552 101.605L25.3307 99.8919L25.839 99.2909L27.8636 101.004L29.3705 99.2223L26.8989 97.131L27.4072 96.5299L30.4798 99.1297Z" fill="#181818"/>
<path d="M37.5728 103.84L33.0018 108.713L32.4905 108.391L33.4748 103.506L29.4977 106.505L28.9864 106.183L31.4049 99.953L32.0828 100.38L30.326 104.9L34.081 102.06L34.521 102.338L33.5804 106.951L36.8949 103.413L37.5728 103.84Z" fill="#181818"/>
<path d="M41.1108 105.259C41.5921 105.468 41.9593 105.767 42.2124 106.156C42.4627 106.545 42.598 106.978 42.6181 107.457C42.6342 107.937 42.537 108.42 42.3266 108.904L40.8031 112.411L40.0811 112.097L41.6047 108.59C41.7541 108.246 41.8286 107.902 41.8283 107.558C41.8251 107.213 41.7405 106.902 41.5746 106.625C41.4058 106.347 41.1466 106.133 40.7971 105.981C40.4419 105.826 40.1066 105.783 39.7913 105.85C39.4747 105.92 39.1926 106.072 38.945 106.305C38.6932 106.54 38.4926 106.829 38.3433 107.173L36.8197 110.68L36.0978 110.366L37.6214 106.859C37.7794 106.495 37.982 106.178 38.229 105.907C38.4748 105.639 38.7531 105.43 39.0639 105.279C39.3719 105.126 39.6998 105.046 40.0476 105.037C40.3955 105.028 40.7499 105.102 41.1108 105.259Z" fill="#181818"/>
<path d="M46.8267 107.33C47.1653 107.429 47.4767 107.577 47.7606 107.774C48.0437 107.975 48.2746 108.208 48.4534 108.476C48.6292 108.742 48.7265 109.026 48.7455 109.328L47.9618 109.386C47.9511 109.201 47.8833 109.021 47.7583 108.848C47.6295 108.677 47.4643 108.524 47.2627 108.39C47.0611 108.256 46.842 108.155 46.6052 108.085C46.3354 108.006 46.0724 107.976 45.8161 107.995C45.556 108.017 45.3307 108.086 45.1402 108.202C44.9498 108.319 44.8234 108.484 44.761 108.697C44.6968 108.915 44.7194 109.116 44.8289 109.298C44.9374 109.483 45.0967 109.65 45.3068 109.799C45.516 109.952 45.7413 110.088 45.9829 110.207C46.3964 110.407 46.7562 110.623 47.0622 110.856C47.3644 111.091 47.5807 111.358 47.7112 111.657C47.8387 111.955 47.8449 112.3 47.7297 112.693C47.6225 113.058 47.424 113.347 47.1342 113.558C46.8414 113.768 46.4992 113.898 46.1076 113.946C45.716 113.993 45.3194 113.959 44.9177 113.841C44.585 113.743 44.2782 113.596 43.9973 113.4C43.7124 113.206 43.4791 112.974 43.2973 112.706C43.1156 112.438 43.014 112.146 42.9926 111.831L43.7839 111.78C43.7937 111.968 43.8631 112.148 43.9919 112.319C44.1168 112.492 44.2805 112.645 44.483 112.776C44.6816 112.909 44.9007 113.011 45.1405 113.081C45.4064 113.162 45.6679 113.192 45.9251 113.169C46.1822 113.147 46.406 113.078 46.5965 112.961C46.7869 112.844 46.9129 112.681 46.9744 112.471C47.0483 112.219 47.039 112.007 46.9467 111.833C46.8505 111.662 46.6966 111.509 46.4852 111.375C46.2737 111.242 46.0316 111.107 45.7588 110.972C45.3714 110.783 45.0258 110.563 44.7221 110.311C44.4175 110.063 44.1963 109.784 44.0585 109.477C43.9178 109.169 43.9002 108.835 44.0056 108.475C44.1129 108.109 44.3129 107.821 44.6057 107.611C44.8954 107.4 45.2361 107.27 45.6278 107.222C46.0194 107.174 46.419 107.21 46.8267 107.33Z" fill="#181818"/>
<path d="M54.0602 109.028L52.9309 115.491L48.9665 114.798L49.102 114.022L52.2911 114.58L52.6121 112.743L49.9999 112.286L50.1354 111.511L52.7477 111.967L53.1494 109.668L49.9602 109.111L50.0957 108.335L54.0602 109.028Z" fill="#181818"/>
<path d="M59.4658 109.454L59.0394 116L56.7392 115.85C56.3901 115.827 56.0809 115.721 55.8115 115.531C55.539 115.341 55.3298 115.095 55.1836 114.791C55.0342 114.49 54.9712 114.16 54.9945 113.802C55.015 113.487 55.0961 113.204 55.2376 112.954C55.3791 112.703 55.5647 112.497 55.7942 112.337C56.0204 112.18 56.2728 112.077 56.5514 112.03L55.1412 109.172L56.0482 109.231L57.4346 112.021L58.5052 112.091L58.6804 109.402L59.4658 109.454ZM58.4541 112.877L57.0188 112.783C56.8068 112.769 56.6087 112.808 56.4243 112.899C56.2397 112.994 56.0902 113.126 55.9758 113.297C55.858 113.471 55.7919 113.671 55.7772 113.895C55.7624 114.123 55.8022 114.329 55.8966 114.513C55.9877 114.701 56.1187 114.852 56.2897 114.966C56.4604 115.084 56.6518 115.149 56.8637 115.163L58.299 115.257L58.4541 112.877Z" fill="#181818"/>
<path d="M64.2371 115.882L63.3138 115.972L65.1752 112.179L64.8873 109.227L65.6707 109.151L65.9586 112.103L68.5178 115.464L67.5945 115.554L65.6506 112.999L64.2371 115.882Z" fill="#181818"/>
<path d="M75.9125 107.08L76.2701 113.752L75.6838 113.899L72.837 109.809L72.2519 114.756L71.6655 114.903L68.8396 108.847L69.6169 108.652L71.6659 113.048L72.2124 108.371L72.7169 108.245L75.3978 112.115L75.1352 107.274L75.9125 107.08Z" fill="#181818"/>
<path d="M82.7018 111.379L81.9898 111.715L79.1925 105.781L79.9045 105.446L81.2352 108.268L84.172 106.883L82.8413 104.061L83.5532 103.725L86.3505 109.659L85.6385 109.995L84.5076 107.596L81.5709 108.98L82.7018 111.379Z" fill="#181818"/>
<path d="M86.657 101.707C87.0301 101.467 87.4281 101.315 87.8511 101.251C88.2759 101.19 88.6966 101.209 89.1134 101.308C89.5293 101.412 89.9196 101.592 90.2845 101.848C90.6466 102.105 90.9544 102.431 91.2077 102.825C91.4611 103.219 91.6296 103.635 91.7133 104.071C91.7943 104.509 91.795 104.938 91.7152 105.357C91.6345 105.78 91.4772 106.171 91.2433 106.529C91.0112 106.89 90.7085 107.19 90.3354 107.43C89.8887 107.717 89.4108 107.878 88.9017 107.912C88.3925 107.946 87.9038 107.87 87.4356 107.685L87.8202 106.992C88.1595 107.115 88.5153 107.158 88.8876 107.119C89.2591 107.084 89.5998 106.967 89.9098 106.768C90.1962 106.584 90.4271 106.354 90.6024 106.078C90.775 105.803 90.8896 105.505 90.9461 105.183C91.0026 104.86 90.9981 104.533 90.9327 104.2C90.8672 103.867 90.7382 103.55 90.5456 103.251C90.3514 102.949 90.1164 102.699 89.8408 102.501C89.5625 102.305 89.265 102.165 88.9484 102.083C88.6292 102.002 88.3089 101.983 87.9876 102.027C87.6654 102.074 87.3637 102.188 87.0826 102.369C86.762 102.575 86.5116 102.838 86.3312 103.158C86.1499 103.483 86.0433 103.823 86.0114 104.177L85.2189 104.236C85.2447 103.732 85.3787 103.256 85.621 102.807C85.865 102.361 86.2103 101.994 86.657 101.707Z" fill="#181818"/>
<path d="M94.3355 104.553L93.8276 103.952L95.4953 102.543L91.7701 98.1328L92.3714 97.6248L96.0965 102.035L97.7607 100.628L98.2687 101.23L94.3355 104.553Z" fill="#181818"/>
<path d="M101.75 97.6106L101.108 98.3125L94.6586 95.6448L95.2215 95.0293L96.5391 95.5742L98.6166 93.3025L97.9536 92.0418L98.5196 91.4229L101.75 97.6106ZM99.0014 94.0482L97.316 95.8912L100.687 97.2799L99.0014 94.0482Z" fill="#181818"/>
<path d="M102.34 85.9383L108.725 88.1891L108.275 88.863L103.236 87.0843L106.809 91.0564L106.416 91.6447L101.377 89.866L104.95 93.8381L104.5 94.5121L99.9731 89.4796L100.483 88.716L105.107 90.3474L101.832 86.698L102.34 85.9383Z" fill="#181818"/>
<path d="M108.292 78.7342C108.351 78.5861 108.452 78.4799 108.595 78.4157C108.74 78.3555 108.889 78.3558 109.043 78.4168C109.191 78.4755 109.296 78.5759 109.357 78.7178C109.42 78.8638 109.422 79.0108 109.364 79.1589C109.304 79.31 109.201 79.417 109.055 79.4801C108.912 79.5444 108.766 79.5472 108.618 79.4885C108.464 79.4275 108.356 79.324 108.293 79.178C108.233 79.0332 108.232 78.8853 108.292 78.7342Z" fill="#181818"/>
<path d="M108.832 68.2107L115.264 69.4977L114.474 73.4447L113.703 73.2903L114.338 70.1152L112.509 69.7493L111.989 72.3501L111.217 72.1956L111.737 69.5949L109.449 69.1371L108.814 72.3122L108.043 72.1578L108.832 68.2107Z" fill="#181818"/>
<path d="M109.525 59.7234L116 61.3686L115.965 61.9721L111.214 63.4725L115.762 65.5042L115.727 66.1077L109.105 67.0027L109.151 66.2027L113.957 65.555L109.656 63.6409L109.686 63.1216L114.178 61.7142L109.479 60.5234L109.525 59.7234Z" fill="#181818"/>
<path d="M109.055 55.94C109.006 55.4175 109.09 54.9514 109.308 54.5415C109.527 54.1347 109.841 53.8067 110.25 53.5576C110.663 53.3112 111.132 53.163 111.658 53.1131L115.464 52.7511L115.538 53.5348L111.732 53.8968C111.359 53.9322 111.022 54.0333 110.721 54.2C110.42 54.3699 110.189 54.5943 110.027 54.8732C109.866 55.1553 109.803 55.4861 109.839 55.8655C109.876 56.2511 110 56.5657 110.211 56.8092C110.426 57.0524 110.695 57.2261 111.018 57.3302C111.345 57.4372 111.696 57.4729 112.069 57.4374L115.875 57.0755L115.949 57.8592L112.143 58.2212C111.748 58.2587 111.373 58.2348 111.016 58.1494C110.663 58.0638 110.345 57.9214 110.063 57.7224C109.78 57.5264 109.551 57.2783 109.375 56.9781C109.199 56.6779 109.093 56.3319 109.055 55.94Z" fill="#181818"/>
<path d="M108.104 49.9346C108.027 49.5901 108.006 49.2458 108.042 48.9019C108.08 48.5572 108.173 48.242 108.32 47.9563C108.469 47.6736 108.67 47.4509 108.925 47.2884L109.355 47.9463C109.198 48.0454 109.074 48.1915 108.982 48.3847C108.895 48.5803 108.841 48.7987 108.821 49.04C108.802 49.2813 108.819 49.5223 108.872 49.7632C108.933 50.0376 109.034 50.2824 109.175 50.4974C109.32 50.7148 109.489 50.8787 109.683 50.989C109.877 51.0993 110.083 51.1303 110.299 51.082C110.522 51.0324 110.686 50.9157 110.792 50.732C110.902 50.5475 110.971 50.3272 111 50.0711C111.033 49.8142 111.043 49.5511 111.031 49.2817C111.005 48.8233 111.02 48.4038 111.076 48.0232C111.136 47.645 111.265 47.3265 111.463 47.0678C111.662 46.8122 111.961 46.6398 112.361 46.5507C112.733 46.4678 113.081 46.502 113.406 46.6536C113.732 46.8082 114.01 47.0453 114.242 47.365C114.473 47.6847 114.634 48.0488 114.725 48.4574C114.801 48.7958 114.821 49.1355 114.785 49.4764C114.752 49.8197 114.663 50.1357 114.516 50.4245C114.369 50.7133 114.163 50.9434 113.897 51.1147L113.47 50.4467C113.63 50.347 113.754 50.1993 113.841 50.0037C113.933 49.8105 113.987 49.5936 114.003 49.353C114.024 49.1148 114.007 48.8737 113.953 48.6298C113.895 48.3577 113.794 48.1145 113.651 47.9002C113.507 47.6858 113.338 47.5235 113.144 47.4131C112.949 47.3028 112.746 47.2715 112.532 47.3191C112.276 47.3762 112.094 47.4872 111.987 47.6519C111.884 47.8191 111.825 48.0275 111.81 48.2772C111.795 48.527 111.794 48.804 111.808 49.1083C111.83 49.5386 111.805 49.9476 111.731 50.3353C111.661 50.7223 111.524 51.0504 111.322 51.3196C111.12 51.5918 110.836 51.7688 110.471 51.8504C110.099 51.9334 109.75 51.8976 109.424 51.743C109.099 51.5914 108.821 51.3558 108.59 51.0361C108.358 50.7165 108.196 50.3493 108.104 49.9346Z" fill="#181818"/>
<path d="M106.093 42.7804L112.295 40.6442L113.605 44.4501L112.861 44.7064L111.807 41.6449L110.044 42.2522L110.907 44.7599L110.163 45.0162L109.3 42.5085L107.093 43.2684L108.148 46.33L107.403 46.5863L106.093 42.7804Z" fill="#181818"/>
<path d="M103.851 37.8425L109.787 35.0503L110.768 37.1365C110.917 37.4531 110.973 37.7752 110.937 38.1028C110.903 38.4331 110.788 38.7357 110.593 39.0105C110.402 39.2868 110.144 39.5015 109.819 39.6544C109.533 39.7887 109.247 39.8544 108.959 39.8517C108.671 39.849 108.401 39.7859 108.15 39.6625C107.903 39.5406 107.691 39.3692 107.515 39.1483L105.696 41.7648L105.309 40.9422L107.081 38.3791L106.624 37.408L104.186 38.5548L103.851 37.8425ZM107.336 37.073L107.948 38.3748C108.039 38.567 108.169 38.7217 108.338 38.839C108.509 38.9549 108.698 39.0216 108.903 39.0391C109.112 39.0581 109.318 39.0198 109.522 38.924C109.728 38.827 109.889 38.6925 110.005 38.5206C110.125 38.3502 110.194 38.1625 110.212 37.9575C110.232 37.7511 110.197 37.5518 110.106 37.3596L109.494 36.0578L107.336 37.073Z" fill="#181818"/>
<path d="M107.17 30.5569L107.695 31.3217L103.476 31.526L101.031 33.2056L100.586 32.5567L103.03 30.8771L104.735 27.0113L105.26 27.776L103.964 30.7134L107.17 30.5569Z" fill="#181818"/>
<path d="M93.821 24.5918L99.4877 21.0522L99.8994 21.4947L97.6967 25.9646L102.309 24.0847L102.721 24.5272L98.7874 29.9295L98.2416 29.3429L101.097 25.4237L96.7404 27.2067L96.3861 26.8259L98.477 22.6074L94.3668 25.1784L93.821 24.5918Z" fill="#181818"/>
<path d="M94.301 16.5689L94.9391 17.0299L91.0985 22.3481L90.4604 21.8872L92.2875 19.3572L89.6554 17.4558L87.8284 19.9858L87.1903 19.5248L91.0309 14.2066L91.6689 14.6675L90.1162 16.8176L92.7483 18.719L94.301 16.5689Z" fill="#181818"/>
<path d="M83.9232 17.7835C83.5329 17.5728 83.2074 17.2978 82.9469 16.9584C82.6878 16.6163 82.5011 16.2386 82.3868 15.8255C82.2768 15.4112 82.2454 14.9825 82.2928 14.5395C82.3428 14.0979 82.4791 13.671 82.7016 13.2586C82.9241 12.8462 83.2061 12.4978 83.5476 12.2136C83.8918 11.9308 84.2665 11.723 84.6717 11.5903C85.0812 11.4563 85.4992 11.405 85.9259 11.4365C86.3541 11.4652 86.7633 11.5849 87.1536 11.7955C87.6209 12.0477 87.9925 12.3885 88.2684 12.8178C88.5444 13.2471 88.7144 13.7116 88.7784 14.2112L87.9861 14.2096C87.9301 13.8528 87.7951 13.5208 87.5811 13.2136C87.3713 12.9051 87.1042 12.6634 86.7799 12.4883C86.4802 12.3267 86.1672 12.2358 85.8408 12.2159C85.5172 12.1974 85.2007 12.2413 84.8913 12.3477C84.5819 12.4541 84.2973 12.6164 84.0376 12.8348C83.7778 13.0531 83.5634 13.319 83.3943 13.6324C83.2238 13.9486 83.1186 14.2752 83.0787 14.6122C83.0416 14.9507 83.0635 15.2784 83.1445 15.5955C83.2282 15.914 83.3666 16.2034 83.5597 16.4638C83.7571 16.723 84.0028 16.9319 84.297 17.0907C84.6323 17.2716 84.9837 17.3637 85.3512 17.3667C85.7229 17.3685 86.0717 17.2976 86.3976 17.154L86.8317 17.8196C86.379 18.0404 85.8976 18.1532 85.3873 18.1583C84.8785 18.1606 84.3905 18.0357 83.9232 17.7835Z" fill="#181818"/>
<path d="M82.7016 9.68467L82.4209 10.4202L80.3811 9.64157L78.323 15.0352L77.5876 14.7545L79.6458 9.36087L77.6103 8.58393L77.891 7.84843L82.7016 9.68467Z" fill="#181818"/>
<path d="M73.0402 6.55061L73.9649 6.77318L74.7488 13.7095L73.938 13.5143L73.7778 12.0973L70.7851 11.377L70.0024 12.5671L69.187 12.3708L73.0402 6.55061ZM71.2516 10.6796L73.6795 11.264L73.2646 7.64087L71.2516 10.6796Z" fill="#181818"/>
<path d="M62.5398 11.6785L61.422 5.00001L62.2297 5.06842L63.1093 10.3395L64.858 5.29105L65.563 5.35076L66.4426 10.6218L68.1913 5.5734L68.999 5.64181L66.7835 12.038L65.8684 11.9605L65.0602 7.12344L63.4502 11.7556L62.5398 11.6785Z" fill="#181818"/>
<path d="M73.0473 52.0473L72.7749 52.3197C67.1064 57.9882 67.4248 67.4185 73.3733 73.367" stroke="#181818" stroke-width="1.5" stroke-miterlimit="10"/>
<path d="M52.0458 73.0488L52.3183 72.7764C57.9867 67.1079 67.4246 67.4187 73.3731 73.3672" stroke="#181818" stroke-width="1.5" stroke-miterlimit="10"/>
<path d="M46.4991 46.501L73.3692 73.3711L46.4991 46.501Z" fill="white"/>
<path d="M46.4991 46.501L73.3692 73.3711" stroke="#181818" stroke-width="1.5" stroke-miterlimit="10"/>
</svg>
