<svg width="111" height="111" viewBox="0 0 111 111" fill="none" xmlns="http://www.w3.org/2000/svg">
<path d="M50.215 4.72166C50.0564 4.7361 49.9161 4.69397 49.7943 4.59527C49.6752 4.49318 49.6082 4.35969 49.5932 4.1948C49.5787 4.03613 49.621 3.8974 49.72 3.7786C49.8217 3.65641 49.952 3.58809 50.1106 3.57365C50.2724 3.55893 50.4143 3.60248 50.5365 3.70429C50.6584 3.80299 50.7265 3.93167 50.741 4.09034C50.756 4.25523 50.7126 4.39877 50.6108 4.52096C50.5087 4.64004 50.3768 4.70694 50.215 4.72166Z" fill="#181818"/>
<path d="M38.4256 9.73601L36.3793 3.50308L40.203 2.2473L40.4486 2.99525L37.3727 4.00543L37.9544 5.77736L40.4739 4.94992L40.7195 5.69788L38.2 6.52532L38.9279 8.74246L42.0038 7.73228L42.2493 8.48023L38.4256 9.73601Z" fill="#181818"/>
<path d="M30.6983 13.3113L28.9423 6.86412L29.4847 6.59729L33.1294 9.99496L32.6587 5.03564L33.201 4.76882L37.2398 10.0929L36.5209 10.4466L33.5916 6.58201L34.0431 11.2688L33.5765 11.4984L30.1401 8.28018L31.4172 12.9576L30.6983 13.3113Z" fill="#181818"/>
<path d="M27.6367 15.5824C27.2064 15.8828 26.7592 16.0389 26.295 16.0506C25.8334 16.0606 25.3934 15.9487 24.975 15.7151C24.5575 15.477 24.1976 15.1416 23.8954 14.7087L21.7068 11.5736L22.3521 11.1229L24.5408 14.258C24.7553 14.5654 25.0093 14.8091 25.3026 14.9891C25.5984 15.1674 25.9075 15.2582 26.2299 15.2617C26.5549 15.2633 26.8736 15.1551 27.1861 14.9369C27.5036 14.7151 27.7163 14.4523 27.8242 14.1484C27.9302 13.8419 27.9489 13.5221 27.8802 13.1891C27.8123 12.8517 27.671 12.5293 27.4565 12.222L25.2678 9.08678L25.9132 8.6361L28.1018 11.7713C28.3289 12.0966 28.493 12.4354 28.5942 12.7876C28.6936 13.1374 28.7262 13.4842 28.692 13.8281C28.6604 14.1702 28.5572 14.4918 28.3826 14.7928C28.208 15.0938 27.9593 15.357 27.6367 15.5824Z" fill="#181818"/>
<path d="M22.8787 19.3671C22.6166 19.6036 22.3273 19.7912 22.0106 19.9298C21.6918 20.0661 21.3717 20.1403 21.0504 20.1526C20.7314 20.1628 20.4385 20.0969 20.1715 19.955L20.5324 19.2568C20.6959 19.3448 20.8843 19.381 21.0974 19.3654C21.3107 19.3454 21.5272 19.2846 21.747 19.183C21.9667 19.0815 22.1681 18.948 22.3513 18.7827C22.56 18.5943 22.7233 18.3859 22.8411 18.1575C22.9592 17.9247 23.0185 17.6966 23.0188 17.4732C23.0192 17.2498 22.9451 17.0558 22.7966 16.8911C22.6438 16.7218 22.4613 16.6362 22.2491 16.6341C22.0348 16.6298 21.809 16.6779 21.5716 16.7786C21.3322 16.8769 21.0982 16.9976 20.8697 17.1407C20.4832 17.3886 20.1107 17.5818 19.7519 17.7205C19.3934 17.8547 19.0528 17.8992 18.73 17.8539C18.4095 17.8065 18.1122 17.6309 17.8381 17.3271C17.5828 17.0441 17.4411 16.7239 17.413 16.3663C17.3872 16.0067 17.4564 15.6475 17.6208 15.2887C17.7851 14.93 18.0226 14.6104 18.3334 14.3299C18.5907 14.0976 18.8766 13.9132 19.191 13.7767C19.5057 13.6358 19.8248 13.5581 20.1484 13.5437C20.472 13.5294 20.7738 13.5957 21.0538 13.7428L20.6828 14.4437C20.5171 14.3534 20.3276 14.3182 20.1143 14.3383C19.9012 14.3539 19.6858 14.4136 19.4682 14.5175C19.2508 14.6169 19.0494 14.7504 18.8639 14.9178C18.6554 15.1018 18.4933 15.3091 18.3775 15.5399C18.2618 15.7706 18.2037 15.9977 18.2033 16.221C18.2029 16.4444 18.2759 16.6373 18.4224 16.7996C18.5982 16.9944 18.7842 17.098 18.9804 17.1102C19.1768 17.1181 19.3873 17.067 19.6119 16.9568C19.8365 16.8467 20.0779 16.7109 20.3361 16.5493C20.6995 16.318 21.0681 16.139 21.4417 16.0121C21.8132 15.883 22.1659 15.8402 22.4999 15.8839C22.8361 15.9255 23.1298 16.0854 23.3809 16.3637C23.6362 16.6466 23.7767 16.9679 23.8025 17.3276C23.8307 17.6851 23.7626 18.0433 23.5982 18.402C23.4339 18.7608 23.194 19.0825 22.8787 19.3671Z" fill="#181818"/>
<path d="M17.6425 24.6398L12.7303 20.2924L15.3973 17.2779L15.9868 17.7996L13.8414 20.2245L15.2379 21.4604L16.9952 19.4742L17.5846 19.9958L15.8273 21.9821L17.5747 23.5286L19.7201 21.1036L20.3096 21.6253L17.6425 24.6398Z" fill="#181818"/>
<path d="M14.4487 29.0224L9.09671 25.2297L10.4293 23.3486C10.6316 23.0631 10.8841 22.8553 11.1867 22.7252C11.4912 22.5926 11.8111 22.5436 12.1464 22.5783C12.4809 22.6086 12.7947 22.7276 13.0878 22.9353C13.3452 23.1177 13.5436 23.3348 13.6829 23.5867C13.8222 23.8386 13.9 24.1043 13.9163 24.3839C13.9319 24.6591 13.887 24.9278 13.7816 25.19L16.9542 25.4857L16.4287 26.2274L13.3259 25.9468L12.7056 26.8224L14.9038 28.3801L14.4487 29.0224ZM12.0634 26.3672L12.8949 25.1934C13.0177 25.0201 13.0885 24.831 13.1074 24.6261C13.1236 24.4194 13.0889 24.2225 13.0032 24.0354C12.9168 23.844 12.7819 23.6833 12.5984 23.5533C12.4123 23.4214 12.216 23.3474 12.0093 23.3311C11.8019 23.3104 11.6047 23.343 11.4176 23.4287C11.2281 23.5126 11.0719 23.6412 10.9491 23.8145L10.1175 24.9883L12.0634 26.3672Z" fill="#181818"/>
<path d="M6.47437 29.7197L6.88133 28.8859L9.13637 32.4587L11.8015 33.7599L11.4562 34.4674L8.79107 33.1661L4.58754 33.5854L4.99451 32.7516L8.18903 32.4341L6.47437 29.7197Z" fill="#181818"/>
<path d="M7.85475 44.2777L1.98461 41.0869L2.16703 40.5106L7.14145 40.2278L3.23469 37.1377L3.41711 36.5614L10.0551 37.3264L9.8133 38.0903L4.99656 37.5334L8.69324 40.4488L8.53627 40.9447L3.83558 41.2012L8.09656 43.5138L7.85475 44.2777Z" fill="#181818"/>
<path d="M0.636268 47.8094L0.723297 47.027L7.24234 47.7524L7.15531 48.5348L4.05411 48.1897L3.69512 51.4172L6.79632 51.7622L6.70929 52.5447L0.190245 51.8193L0.277274 51.0369L2.91283 51.3301L3.27183 48.1027L0.636268 47.8094Z" fill="#181818"/>
<path d="M6.80222 56.2461C6.81105 56.6897 6.73192 57.1084 6.56482 57.5023C6.39459 57.8962 6.15785 58.2447 5.8546 58.5475C5.54816 58.8474 5.19052 59.0857 4.78166 59.2626C4.37275 59.4363 3.93407 59.5279 3.46565 59.5372C2.99722 59.5465 2.55525 59.4725 2.13974 59.3152C1.72417 59.1548 1.35888 58.9308 1.04387 58.6434C0.725673 58.3529 0.475248 58.0142 0.292593 57.6272C0.106815 57.2404 0.00950911 56.8252 0.000675419 56.3817C-0.00990013 55.8507 0.103716 55.3594 0.341525 54.9079C0.579333 54.4563 0.89986 54.0797 1.3031 53.7779L1.69175 54.4685C1.4088 54.6929 1.18634 54.9738 1.02436 55.3114C0.859201 55.6459 0.780291 55.9974 0.787631 56.366C0.794412 56.7064 0.86946 57.0236 1.01277 57.3176C1.15603 57.6085 1.35009 57.8624 1.59497 58.0794C1.83984 58.2963 2.12123 58.4641 2.43912 58.5828C2.75702 58.7014 3.09397 58.7572 3.44997 58.7501C3.8091 58.743 4.14512 58.6738 4.45804 58.5426C4.77089 58.4082 5.04534 58.2278 5.28138 58.0012C5.51736 57.7715 5.70113 57.5086 5.83269 57.2122C5.96106 56.9128 6.02192 56.596 6.01526 56.2618C6.00767 55.8808 5.91477 55.5295 5.73654 55.2081C5.55513 54.8837 5.32172 54.6149 5.03631 54.4019L5.40183 53.6963C5.81677 53.9817 6.15204 54.3453 6.40764 54.787C6.66012 55.2288 6.79164 55.7152 6.80222 56.2461Z" fill="#181818"/>
<path d="M0.355367 61.2967L1.13362 61.1789L1.4602 63.338L7.16741 62.4745L7.28515 63.2528L1.57794 64.1164L1.90381 66.2709L1.12555 66.3886L0.355367 61.2967Z" fill="#181818"/>
<path d="M2.38409 71.2505L2.12256 70.3359L7.77322 66.2387L8.00254 67.0407L6.84821 67.8777L7.69464 70.8377L9.11564 70.9333L9.34625 71.7397L2.38409 71.2505ZM6.85799 70.7749L6.17132 68.3735L3.22245 70.5184L6.85799 70.7749Z" fill="#181818"/>
<path d="M12.0162 77.8674L6.75423 82.1283L6.41617 81.3915L10.5704 78.0308L5.31599 78.9937L5.02092 78.3506L9.17518 74.99L3.92075 75.9529L3.58268 75.2161L10.2399 73.996L10.6229 74.8308L6.81115 77.9156L11.6351 77.0369L12.0162 77.8674Z" fill="#181818"/>
<path d="M15.0333 86.7125C15.1287 86.8401 15.1663 86.9817 15.1461 87.1372C15.1215 87.2921 15.043 87.4192 14.9104 87.5183C14.7828 87.6137 14.6425 87.6504 14.4895 87.6283C14.3321 87.6056 14.2057 87.5305 14.1103 87.4029C14.013 87.2728 13.9758 87.129 13.9985 86.9716C14.0187 86.8161 14.0926 86.6906 14.2201 86.5952C14.3527 86.496 14.4977 86.4578 14.6551 86.4805C14.81 86.5051 14.936 86.5824 15.0333 86.7125Z" fill="#181818"/>
<path d="M25.4798 94.1297L21.2434 99.1382L18.1708 96.5385L18.6792 95.9374L21.1509 98.0288L22.3552 96.6049L20.3307 94.8919L20.839 94.2909L22.8636 96.0039L24.3705 94.2223L21.8989 92.131L22.4072 91.5299L25.4798 94.1297Z" fill="#181818"/>
<path d="M32.5728 98.84L28.0018 103.713L27.4904 103.391L28.4748 98.5061L24.4977 101.505L23.9864 101.183L26.4049 94.953L27.0827 95.3802L25.326 99.9003L29.081 97.0604L29.521 97.3377L28.5804 101.951L31.8949 98.4129L32.5728 98.84Z" fill="#181818"/>
<path d="M36.1108 100.259C36.5921 100.468 36.9593 100.767 37.2124 101.156C37.4627 101.545 37.5979 101.978 37.6181 102.457C37.6342 102.937 37.537 103.42 37.3266 103.904L35.803 107.411L35.0811 107.097L36.6047 103.59C36.7541 103.246 36.8286 102.902 36.8283 102.558C36.8251 102.213 36.7405 101.902 36.5746 101.625C36.4058 101.347 36.1466 101.133 35.7971 100.981C35.4419 100.826 35.1066 100.783 34.7913 100.85C34.4747 100.92 34.1926 101.072 33.945 101.305C33.6932 101.54 33.4926 101.829 33.3433 102.173L31.8197 105.68L31.0978 105.366L32.6213 101.859C32.7794 101.495 32.982 101.178 33.229 100.907C33.4748 100.639 33.7531 100.43 34.0639 100.279C34.3719 100.126 34.6998 100.046 35.0476 100.037C35.3955 100.028 35.7498 100.102 36.1108 100.259Z" fill="#181818"/>
<path d="M41.8266 102.33C42.1653 102.429 42.4767 102.577 42.7606 102.774C43.0437 102.975 43.2746 103.208 43.4534 103.476C43.6292 103.742 43.7265 104.026 43.7454 104.328L42.9618 104.386C42.9511 104.201 42.8832 104.021 42.7583 103.848C42.6295 103.677 42.4643 103.524 42.2627 103.39C42.0611 103.256 41.8419 103.155 41.6052 103.085C41.3354 103.006 41.0724 102.976 40.8161 102.995C40.556 103.017 40.3307 103.086 40.1402 103.202C39.9498 103.319 39.8233 103.484 39.7609 103.697C39.6968 103.915 39.7194 104.116 39.8289 104.298C39.9374 104.483 40.0967 104.65 40.3068 104.799C40.5159 104.952 40.7413 105.088 40.9829 105.207C41.3964 105.407 41.7562 105.623 42.0622 105.856C42.3643 106.091 42.5807 106.358 42.7112 106.657C42.8387 106.955 42.8449 107.3 42.7297 107.693C42.6225 108.058 42.424 108.347 42.1342 108.558C41.8414 108.768 41.4992 108.898 41.1076 108.946C40.716 108.993 40.3193 108.959 39.9177 108.841C39.585 108.743 39.2782 108.596 38.9972 108.4C38.7124 108.206 38.4791 107.974 38.2973 107.706C38.1156 107.438 38.014 107.146 37.9925 106.831L38.7839 106.78C38.7937 106.968 38.863 107.148 38.9919 107.319C39.1168 107.492 39.2805 107.645 39.483 107.776C39.6815 107.909 39.9007 108.01 40.1405 108.081C40.4064 108.162 40.6679 108.192 40.9251 108.169C41.1822 108.147 41.406 108.078 41.5965 107.961C41.7869 107.844 41.9129 107.681 41.9744 107.471C42.0482 107.219 42.039 107.007 41.9467 106.833C41.8505 106.662 41.6966 106.509 41.4852 106.375C41.2737 106.242 41.0316 106.107 40.7588 105.972C40.3714 105.783 40.0258 105.563 39.7221 105.311C39.4175 105.063 39.1963 104.784 39.0585 104.477C38.9178 104.169 38.9002 103.835 39.0056 103.475C39.1129 103.109 39.3129 102.821 39.6056 102.611C39.8954 102.4 40.2361 102.27 40.6278 102.222C41.0194 102.174 41.419 102.21 41.8266 102.33Z" fill="#181818"/>
<path d="M49.0602 104.028L47.9309 110.491L43.9665 109.798L44.102 109.022L47.2911 109.58L47.6121 107.743L44.9999 107.286L45.1354 106.511L47.7476 106.967L48.1493 104.668L44.9602 104.111L45.0957 103.335L49.0602 104.028Z" fill="#181818"/>
<path d="M54.4658 104.454L54.0394 111L51.7391 110.85C51.3901 110.827 51.0808 110.721 50.8115 110.531C50.539 110.341 50.3297 110.095 50.1836 109.791C50.0342 109.49 49.9712 109.16 49.9945 108.802C50.015 108.487 50.0961 108.204 50.2376 107.954C50.3791 107.703 50.5646 107.497 50.7942 107.337C51.0204 107.18 51.2728 107.077 51.5514 107.03L50.1412 104.172L51.0482 104.231L52.4346 107.021L53.5052 107.091L53.6804 104.402L54.4658 104.454ZM53.454 107.877L52.0187 107.783C51.8068 107.769 51.6086 107.808 51.4243 107.899C51.2397 107.994 51.0902 108.126 50.9758 108.297C50.858 108.471 50.7918 108.671 50.7772 108.895C50.7624 109.123 50.8022 109.329 50.8966 109.513C50.9877 109.701 51.1187 109.852 51.2896 109.966C51.4604 110.084 51.6518 110.149 51.8637 110.163L53.299 110.257L53.454 107.877Z" fill="#181818"/>
<path d="M59.2371 110.882L58.3138 110.972L60.1752 107.179L59.8873 104.227L60.6707 104.151L60.9586 107.103L63.5177 110.464L62.5945 110.554L60.6506 107.999L59.2371 110.882Z" fill="#181818"/>
<path d="M70.9125 102.08L71.2701 108.752L70.6838 108.899L67.837 104.809L67.2519 109.756L66.6655 109.903L63.8396 103.847L64.6169 103.652L66.6659 108.048L67.2123 103.371L67.7169 103.245L70.3978 107.115L70.1352 102.274L70.9125 102.08Z" fill="#181818"/>
<path d="M77.7018 106.379L76.9898 106.715L74.1925 100.781L74.9045 100.446L76.2352 103.268L79.172 101.883L77.8413 99.0606L78.5532 98.7249L81.3505 104.659L80.6385 104.995L79.5076 102.596L76.5709 103.98L77.7018 106.379Z" fill="#181818"/>
<path d="M81.657 96.7067C82.0301 96.4668 82.4281 96.3149 82.8511 96.2509C83.2758 96.1895 83.6966 96.2087 84.1134 96.3084C84.5293 96.4124 84.9196 96.5922 85.2844 96.8479C85.6466 97.1053 85.9544 97.431 86.2077 97.8252C86.4611 98.2194 86.6296 98.6347 86.7133 99.0711C86.7943 99.5092 86.7949 99.9377 86.7152 100.357C86.6344 100.78 86.4772 101.171 86.2433 101.529C86.0111 101.89 85.7085 102.19 85.3354 102.43C84.8887 102.717 84.4108 102.878 83.9017 102.912C83.3925 102.946 82.9038 102.87 82.4356 102.685L82.8202 101.992C83.1595 102.115 83.5153 102.158 83.8876 102.119C84.259 102.084 84.5998 101.967 84.9098 101.768C85.1962 101.584 85.427 101.354 85.6023 101.078C85.775 100.803 85.8896 100.505 85.9461 100.183C86.0026 99.8604 85.9981 99.5327 85.9326 99.1997C85.8672 98.8668 85.7381 98.5505 85.5456 98.2509C85.3514 97.9487 85.1164 97.6987 84.8408 97.5008C84.5625 97.3046 84.265 97.1654 83.9484 97.0829C83.6292 97.0022 83.3089 96.9834 82.9876 97.0266C82.6654 97.0741 82.3637 97.1882 82.0826 97.3689C81.762 97.575 81.5116 97.8381 81.3312 98.1583C81.1499 98.4829 81.0433 98.8225 81.0114 99.1773L80.2189 99.2355C80.2447 98.7325 80.3787 98.2564 80.621 97.8072C80.865 97.3607 81.2103 96.9938 81.657 96.7067Z" fill="#181818"/>
<path d="M89.3355 99.5533L88.8275 98.952L90.4953 97.5427L86.7701 93.1328L87.3713 92.6247L91.0965 97.0346L92.7607 95.6284L93.2687 96.2297L89.3355 99.5533Z" fill="#181818"/>
<path d="M96.7501 92.6106L96.1082 93.3125L89.6586 90.6448L90.2215 90.0293L91.5391 90.5742L93.6166 88.3025L92.9536 87.0418L93.5196 86.4229L96.7501 92.6106ZM94.0014 89.0482L92.3159 90.8912L95.6874 92.2799L94.0014 89.0482Z" fill="#181818"/>
<path d="M97.3397 80.9383L103.725 83.1891L103.275 83.863L98.2362 82.0843L101.809 86.0564L101.416 86.6447L96.3773 84.866L99.95 88.8381L99.4996 89.5121L94.9731 84.4796L95.4834 83.716L100.107 85.3474L96.832 81.698L97.3397 80.9383Z" fill="#181818"/>
<path d="M103.292 73.7342C103.351 73.5861 103.452 73.4799 103.595 73.4157C103.74 73.3554 103.889 73.3558 104.043 73.4168C104.191 73.4755 104.296 73.5759 104.357 73.7178C104.42 73.8638 104.422 74.0108 104.364 74.1589C104.304 74.31 104.201 74.417 104.055 74.4801C103.912 74.5444 103.766 74.5472 103.618 74.4885C103.464 74.4275 103.356 74.324 103.293 74.178C103.233 74.0332 103.232 73.8853 103.292 73.7342Z" fill="#181818"/>
<path d="M103.832 63.2107L110.264 64.4977L109.474 68.4447L108.703 68.2903L109.338 65.1152L107.509 64.7493L106.989 67.3501L106.217 67.1956L106.737 64.5949L104.449 64.1371L103.814 67.3122L103.043 67.1578L103.832 63.2107Z" fill="#181818"/>
<path d="M104.525 54.7234L111 56.3686L110.965 56.9721L106.214 58.4725L110.762 60.5042L110.727 61.1077L104.105 62.0027L104.151 61.2027L108.957 60.555L104.656 58.6409L104.686 58.1216L109.178 56.7142L104.479 55.5234L104.525 54.7234Z" fill="#181818"/>
<path d="M104.055 50.94C104.006 50.4175 104.09 49.9513 104.308 49.5415C104.527 49.1347 104.841 48.8067 105.25 48.5575C105.663 48.3112 106.132 48.163 106.658 48.113L110.464 47.7511L110.538 48.5348L106.732 48.8968C106.359 48.9322 106.022 49.0333 105.721 49.2C105.42 49.3699 105.189 49.5943 105.027 49.8732C104.866 50.1553 104.803 50.4861 104.839 50.8655C104.876 51.2511 105 51.5657 105.211 51.8092C105.426 52.0524 105.695 52.2261 106.018 52.3302C106.345 52.4372 106.696 52.4729 107.069 52.4374L110.875 52.0755L110.949 52.8592L107.143 53.2211C106.748 53.2587 106.373 53.2348 106.016 53.1494C105.663 53.0638 105.345 52.9214 105.063 52.7224C104.78 52.5264 104.551 52.2783 104.375 51.9781C104.199 51.6779 104.093 51.3319 104.055 50.94Z" fill="#181818"/>
<path d="M103.104 44.9346C103.027 44.5901 103.006 44.2458 103.042 43.9019C103.08 43.5572 103.173 43.242 103.32 42.9563C103.469 42.6735 103.67 42.4509 103.925 42.2884L104.355 42.9463C104.198 43.0454 104.074 43.1915 103.982 43.3847C103.895 43.5803 103.841 43.7987 103.821 44.04C103.802 44.2813 103.818 44.5223 103.872 44.7632C103.933 45.0376 104.034 45.2824 104.175 45.4974C104.32 45.7148 104.489 45.8787 104.683 45.989C104.877 46.0993 105.083 46.1303 105.299 46.082C105.522 46.0324 105.686 45.9157 105.792 45.732C105.902 45.5475 105.971 45.3272 106 45.071C106.033 44.8142 106.043 44.5511 106.031 44.2817C106.005 43.8232 106.02 43.4038 106.076 43.0232C106.136 42.645 106.265 42.3265 106.463 42.0678C106.662 41.8122 106.961 41.6398 107.361 41.5507C107.733 41.4678 108.081 41.502 108.406 41.6536C108.732 41.8082 109.01 42.0453 109.242 42.365C109.473 42.6847 109.634 43.0488 109.725 43.4574C109.801 43.7958 109.821 44.1355 109.785 44.4764C109.752 44.8197 109.663 45.1357 109.516 45.4245C109.369 45.7133 109.163 45.9434 108.897 46.1147L108.47 45.4467C108.63 45.347 108.754 45.1993 108.841 45.0037C108.933 44.8105 108.987 44.5936 109.003 44.353C109.024 44.1148 109.007 43.8737 108.953 43.6298C108.895 43.3577 108.794 43.1145 108.651 42.9002C108.507 42.6858 108.338 42.5234 108.144 42.4131C107.949 42.3028 107.746 42.2715 107.532 42.3191C107.276 42.3762 107.094 42.4872 106.987 42.6519C106.884 42.8191 106.825 43.0275 106.81 43.2772C106.795 43.527 106.794 43.804 106.808 44.1083C106.83 44.5386 106.805 44.9476 106.731 45.3353C106.661 45.7223 106.524 46.0504 106.322 46.3196C106.12 46.5918 105.836 46.7688 105.471 46.8504C105.099 46.9334 104.75 46.8976 104.424 46.743C104.099 46.5914 103.821 46.3558 103.59 46.0361C103.358 45.7164 103.196 45.3493 103.104 44.9346Z" fill="#181818"/>
<path d="M101.093 37.7804L107.295 35.6442L108.605 39.4501L107.861 39.7064L106.807 36.6449L105.044 37.2522L105.907 39.7599L105.163 40.0162L104.3 37.5085L102.093 38.2684L103.148 41.3299L102.403 41.5863L101.093 37.7804Z" fill="#181818"/>
<path d="M98.8512 32.8425L104.787 30.0503L105.768 32.1365C105.917 32.4531 105.973 32.7752 105.937 33.1028C105.903 33.4331 105.788 33.7357 105.593 34.0105C105.402 34.2868 105.144 34.5014 104.819 34.6544C104.533 34.7886 104.247 34.8544 103.959 34.8517C103.671 34.849 103.401 34.7859 103.15 34.6625C102.903 34.5406 102.691 34.3692 102.515 34.1483L100.696 36.7648L100.309 35.9422L102.081 33.3791L101.624 32.408L99.1862 33.5548L98.8512 32.8425ZM102.336 32.073L102.948 33.3748C103.039 33.567 103.169 33.7217 103.338 33.839C103.509 33.9549 103.698 34.0216 103.903 34.0391C104.112 34.0581 104.318 34.0198 104.522 33.924C104.728 33.827 104.889 33.6925 105.005 33.5206C105.125 33.3502 105.194 33.1625 105.211 32.9575C105.232 32.7511 105.197 32.5518 105.106 32.3596L104.494 31.0578L102.336 32.073Z" fill="#181818"/>
<path d="M102.17 25.5569L102.695 26.3217L98.4759 26.526L96.0314 28.2056L95.5857 27.5567L98.0302 25.8771L99.7347 22.0112L100.26 22.776L98.9636 25.7134L102.17 25.5569Z" fill="#181818"/>
<path d="M88.8209 19.5918L94.4877 16.0522L94.8994 16.4947L92.6966 20.9646L97.3092 19.0847L97.7209 19.5272L93.7873 24.9295L93.2415 24.3429L96.0975 20.4237L91.7404 22.2067L91.3861 21.8259L93.477 17.6074L89.3667 20.1784L88.8209 19.5918Z" fill="#181818"/>
<path d="M89.301 11.5689L89.9391 12.0299L86.0985 17.3481L85.4604 16.8872L87.2874 14.3572L84.6554 12.4558L82.8284 14.9858L82.1903 14.5248L86.0308 9.2066L86.6689 9.66754L85.1162 11.8176L87.7483 13.719L89.301 11.5689Z" fill="#181818"/>
<path d="M78.9232 12.7835C78.5329 12.5728 78.2074 12.2978 77.9469 11.9584C77.6878 11.6163 77.5011 11.2386 77.3868 10.8255C77.2767 10.4112 77.2454 9.98246 77.2927 9.53945C77.3428 9.09792 77.4791 8.67096 77.7016 8.25856C77.9241 7.84617 78.2061 7.49783 78.5475 7.21355C78.8918 6.93075 79.2665 6.72299 79.6717 6.59025C80.0812 6.45625 80.4992 6.40499 80.9259 6.43646C81.354 6.46518 81.7633 6.58487 82.1536 6.79552C82.6209 7.04771 82.9925 7.38847 83.2684 7.8178C83.5443 8.24713 83.7143 8.71159 83.7784 9.21119L82.9861 9.20955C82.9301 8.85278 82.7951 8.52079 82.5811 8.2136C82.3713 7.90514 82.1042 7.66339 81.7799 7.48834C81.4802 7.32664 81.1672 7.23582 80.8408 7.21586C80.5172 7.19738 80.2007 7.24133 79.8913 7.3477C79.5819 7.45407 79.2973 7.61642 79.0376 7.83476C78.7778 8.0531 78.5634 8.31898 78.3943 8.6324C78.2237 8.94857 78.1185 9.27516 78.0787 9.61217C78.0416 9.95068 78.0635 10.2784 78.1445 10.5955C78.2282 10.914 78.3666 11.2034 78.5597 11.4638C78.7571 11.723 79.0028 11.9319 79.297 12.0907C79.6323 12.2716 79.9837 12.3637 80.3512 12.3667C80.7229 12.3685 81.0717 12.2976 81.3976 12.154L81.8317 12.8196C81.379 13.0403 80.8976 13.1532 80.3873 13.1583C79.8785 13.1606 79.3905 13.0357 78.9232 12.7835Z" fill="#181818"/>
<path d="M77.7016 4.68467L77.4209 5.42017L75.3811 4.64156L73.323 10.0352L72.5876 9.75452L74.6458 4.36086L72.6103 3.58393L72.891 2.84843L77.7016 4.68467Z" fill="#181818"/>
<path d="M68.0402 1.55061L68.9649 1.77317L69.7488 8.7095L68.938 8.51434L68.7778 7.09733L65.785 6.377L65.0023 7.56706L64.187 7.37081L68.0402 1.55061ZM66.2516 5.67959L68.6795 6.26396L68.2646 2.64086L66.2516 5.67959Z" fill="#181818"/>
<path d="M57.5398 6.67852L56.422 0L57.2297 0.0684117L58.1093 5.33945L59.858 0.291046L60.563 0.350758L61.4426 5.6218L63.1913 0.573393L63.9989 0.641805L61.7834 7.03798L60.8684 6.96048L60.0602 2.12343L58.4501 6.75564L57.5398 6.67852Z" fill="#181818"/>
</svg>
