<svg width="150" height="34" viewBox="0 0 150 34" fill="none" xmlns="http://www.w3.org/2000/svg">
<rect width="150" height="34" rx="17" fill="url(#paint0_linear_90_614)"/>
<path d="M20.488 21.144C19.696 21.144 19.004 20.964 18.412 20.604C17.82 20.244 17.36 19.744 17.032 19.104C16.704 18.456 16.54 17.704 16.54 16.848C16.54 15.984 16.708 15.224 17.044 14.568C17.388 13.904 17.872 13.388 18.496 13.02C19.128 12.644 19.876 12.456 20.74 12.456C21.724 12.456 22.54 12.692 23.188 13.164C23.836 13.636 24.256 14.288 24.448 15.12H22.732C22.604 14.728 22.372 14.424 22.036 14.208C21.7 13.984 21.268 13.872 20.74 13.872C19.9 13.872 19.252 14.14 18.796 14.676C18.34 15.204 18.112 15.932 18.112 16.86C18.112 17.788 18.336 18.508 18.784 19.02C19.24 19.524 19.856 19.776 20.632 19.776C21.392 19.776 21.964 19.572 22.348 19.164C22.74 18.748 22.976 18.204 23.056 17.532H20.932V16.38H24.604V21H23.188L23.068 19.896C22.796 20.296 22.456 20.604 22.048 20.82C21.64 21.036 21.12 21.144 20.488 21.144ZM26.4572 21V12.6H31.9413V13.836H27.9932V16.14H31.5813V17.34H27.9932V19.764H31.9413V21H26.4572ZM35.7107 21V13.836H33.2627V12.6H39.7067V13.836H37.2467V21H35.7107ZM44.424 21V12.6H47.292C48.276 12.6 49.084 12.776 49.716 13.128C50.356 13.472 50.828 13.96 51.132 14.592C51.444 15.216 51.6 15.952 51.6 16.8C51.6 17.648 51.444 18.388 51.132 19.02C50.828 19.644 50.356 20.132 49.716 20.484C49.084 20.828 48.276 21 47.292 21H44.424ZM45.96 19.68H47.22C47.924 19.68 48.48 19.568 48.888 19.344C49.296 19.112 49.588 18.784 49.764 18.36C49.94 17.928 50.028 17.408 50.028 16.8C50.028 16.2 49.94 15.684 49.764 15.252C49.588 14.82 49.296 14.488 48.888 14.256C48.48 14.024 47.924 13.908 47.22 13.908H45.96V19.68ZM53.3152 21V12.6H54.8512V21H53.3152ZM56.8393 21V12.6H59.9233C60.5953 12.6 61.1473 12.716 61.5793 12.948C62.0193 13.172 62.3473 13.48 62.5633 13.872C62.7793 14.256 62.8873 14.684 62.8873 15.156C62.8873 15.668 62.7513 16.136 62.4793 16.56C62.2153 16.984 61.7993 17.292 61.2313 17.484L62.9713 21H61.2073L59.6473 17.688H58.3753V21H56.8393ZM58.3753 16.56H59.8273C60.3393 16.56 60.7153 16.436 60.9553 16.188C61.1953 15.94 61.3153 15.612 61.3153 15.204C61.3153 14.804 61.1953 14.484 60.9553 14.244C60.7233 14.004 60.3433 13.884 59.8153 13.884H58.3753V16.56ZM64.6758 21V12.6H70.1598V13.836H66.2118V16.14H69.7998V17.34H66.2118V19.764H70.1598V21H64.6758ZM75.7773 21.144C74.9293 21.144 74.2013 20.964 73.5933 20.604C72.9853 20.236 72.5173 19.728 72.1893 19.08C71.8613 18.424 71.6973 17.668 71.6973 16.812C71.6973 15.956 71.8613 15.2 72.1893 14.544C72.5173 13.888 72.9853 13.376 73.5933 13.008C74.2013 12.64 74.9293 12.456 75.7773 12.456C76.7853 12.456 77.6093 12.708 78.2493 13.212C78.8973 13.708 79.3013 14.408 79.4613 15.312H77.7693C77.6653 14.856 77.4413 14.5 77.0973 14.244C76.7613 13.98 76.3133 13.848 75.7533 13.848C74.9773 13.848 74.3693 14.112 73.9293 14.64C73.4893 15.168 73.2693 15.892 73.2693 16.812C73.2693 17.732 73.4893 18.456 73.9293 18.984C74.3693 19.504 74.9773 19.764 75.7533 19.764C76.3133 19.764 76.7613 19.644 77.0973 19.404C77.4413 19.156 77.6653 18.816 77.7693 18.384H79.4613C79.3013 19.248 78.8973 19.924 78.2493 20.412C77.6093 20.9 76.7853 21.144 75.7773 21.144ZM83.0315 21V13.836H80.5835V12.6H87.0275V13.836H84.5675V21H83.0315ZM88.5254 21V12.6H90.0614V21H88.5254ZM95.9854 21.144C95.1454 21.144 94.4094 20.96 93.7774 20.592C93.1534 20.224 92.6614 19.716 92.3014 19.068C91.9494 18.412 91.7734 17.656 91.7734 16.8C91.7734 15.944 91.9494 15.192 92.3014 14.544C92.6614 13.888 93.1534 13.376 93.7774 13.008C94.4094 12.64 95.1454 12.456 95.9854 12.456C96.8174 12.456 97.5494 12.64 98.1814 13.008C98.8134 13.376 99.3054 13.888 99.6574 14.544C100.009 15.192 100.185 15.944 100.185 16.8C100.185 17.656 100.009 18.412 99.6574 19.068C99.3054 19.716 98.8134 20.224 98.1814 20.592C97.5494 20.96 96.8174 21.144 95.9854 21.144ZM95.9854 19.764C96.7854 19.764 97.4214 19.5 97.8934 18.972C98.3734 18.444 98.6134 17.72 98.6134 16.8C98.6134 15.88 98.3734 15.156 97.8934 14.628C97.4214 14.1 96.7854 13.836 95.9854 13.836C95.1854 13.836 94.5454 14.1 94.0654 14.628C93.5854 15.156 93.3454 15.88 93.3454 16.8C93.3454 17.72 93.5854 18.444 94.0654 18.972C94.5454 19.5 95.1854 19.764 95.9854 19.764ZM101.902 21V12.6H103.438L107.386 18.516V12.6H108.922V21H107.386L103.438 15.096V21H101.902Z" fill="#181818"/>
<circle cx="133" cy="17" r="3" fill="#181818"/>
<defs>
<linearGradient id="paint0_linear_90_614" x1="1.49384e-07" y1="3.51724" x2="74.5346" y2="96.7092" gradientUnits="userSpaceOnUse">
<stop stop-color="#606060"/>
<stop offset="1" stop-color="white"/>
</linearGradient>
</defs>
</svg>
