<svg width="286" height="54" viewBox="0 0 286 54" fill="none" xmlns="http://www.w3.org/2000/svg">
<path d="M5.88 46.192C5.144 46.192 4.48267 46.0587 3.896 45.792C3.30933 45.5147 2.84533 45.136 2.504 44.656C2.17333 44.1653 2.008 43.6 2.008 42.96C2.008 42.2773 2.20533 41.664 2.6 41.12C3.00533 40.576 3.53867 40.2133 4.2 40.032C3.592 39.8293 3.12267 39.504 2.792 39.056C2.46133 38.608 2.296 38.1173 2.296 37.584C2.296 37.04 2.44 36.544 2.728 36.096C3.016 35.6373 3.42667 35.2747 3.96 35.008C4.49333 34.7413 5.13333 34.608 5.88 34.608C6.62667 34.608 7.26667 34.7413 7.8 35.008C8.33333 35.2747 8.744 35.6373 9.032 36.096C9.32 36.544 9.464 37.04 9.464 37.584C9.464 38.1067 9.29867 38.5973 8.968 39.056C8.63733 39.504 8.168 39.8293 7.56 40.032C8.22133 40.2133 8.74933 40.576 9.144 41.12C9.54933 41.664 9.752 42.2773 9.752 42.96C9.752 43.6 9.58133 44.1653 9.24 44.656C8.90933 45.136 8.45067 45.5147 7.864 45.792C7.27733 46.0587 6.616 46.192 5.88 46.192ZM5.88 39.552C6.56267 39.552 7.10133 39.3813 7.496 39.04C7.90133 38.688 8.104 38.2293 8.104 37.664C8.104 37.0347 7.90667 36.56 7.512 36.24C7.11733 35.92 6.57333 35.76 5.88 35.76C5.18667 35.76 4.64267 35.92 4.248 36.24C3.864 36.56 3.672 37.0347 3.672 37.664C3.672 38.2293 3.86933 38.688 4.264 39.04C4.65867 39.3813 5.19733 39.552 5.88 39.552ZM5.88 45.008C6.72267 45.008 7.352 44.816 7.768 44.432C8.19467 44.0373 8.408 43.52 8.408 42.88C8.408 42.1547 8.17867 41.6053 7.72 41.232C7.26133 40.8587 6.648 40.672 5.88 40.672C5.112 40.672 4.49867 40.8587 4.04 41.232C3.58133 41.6053 3.352 42.1547 3.352 42.88C3.352 43.52 3.56 44.0373 3.976 44.432C4.40267 44.816 5.03733 45.008 5.88 45.008ZM12.4557 46L16.9038 35.952H10.7598V34.8H18.2798V35.808L13.8798 46H12.4557ZM23.3983 46.192C22.6303 46.192 21.9636 46.0533 21.3983 45.776C20.8329 45.4987 20.3796 45.12 20.0383 44.64C19.7076 44.1493 19.5049 43.5947 19.4303 42.976H20.7423C20.8703 43.5947 21.1689 44.096 21.6383 44.48C22.1076 44.8533 22.6996 45.04 23.4143 45.04C23.9476 45.04 24.4063 44.9173 24.7903 44.672C25.1743 44.416 25.4676 44.0747 25.6703 43.648C25.8836 43.2213 25.9903 42.7467 25.9903 42.224C25.9903 41.392 25.7556 40.72 25.2863 40.208C24.8169 39.696 24.2089 39.44 23.4623 39.44C22.8436 39.44 22.3156 39.5787 21.8783 39.856C21.4409 40.1333 21.1209 40.496 20.9183 40.944H19.6383L20.5983 34.8H26.4703V35.968H21.6383L20.9823 39.376C21.2383 39.0667 21.5903 38.8107 22.0383 38.608C22.4969 38.4053 23.0196 38.304 23.6063 38.304C24.3423 38.304 24.9823 38.4747 25.5263 38.816C26.0809 39.1573 26.5129 39.6213 26.8223 40.208C27.1316 40.7947 27.2863 41.4613 27.2863 42.208C27.2863 42.9227 27.1316 43.584 26.8223 44.192C26.5236 44.8 26.0809 45.2853 25.4943 45.648C24.9183 46.0107 24.2196 46.192 23.3983 46.192ZM32.9175 46L37.0455 34.8H38.4695L42.5815 46H41.1575L40.1335 43.12H35.3655L34.3255 46H32.9175ZM35.7655 42.032H39.7335L37.7495 36.496L35.7655 42.032ZM44.1665 46V34.48H45.5105V46H44.1665ZM51.3134 46.192C50.524 46.192 49.8307 46.0107 49.2334 45.648C48.6467 45.2853 48.188 44.7893 47.8574 44.16C47.5374 43.5307 47.3774 42.816 47.3774 42.016C47.3774 41.216 47.5427 40.5067 47.8734 39.888C48.204 39.2587 48.6627 38.768 49.2494 38.416C49.836 38.0533 50.5294 37.872 51.3294 37.872C51.98 37.872 52.556 38.0053 53.0574 38.272C53.5587 38.5387 53.948 38.912 54.2254 39.392V34.48H55.5694V46H54.3534L54.2254 44.688C53.9694 45.072 53.6014 45.4187 53.1214 45.728C52.6414 46.0373 52.0387 46.192 51.3134 46.192ZM51.4574 45.024C51.9907 45.024 52.46 44.9013 52.8654 44.656C53.2814 44.4 53.6014 44.048 53.8254 43.6C54.06 43.152 54.1774 42.6293 54.1774 42.032C54.1774 41.4347 54.06 40.912 53.8254 40.464C53.6014 40.016 53.2814 39.6693 52.8654 39.424C52.46 39.168 51.9907 39.04 51.4574 39.04C50.9347 39.04 50.4654 39.168 50.0494 39.424C49.644 39.6693 49.324 40.016 49.0894 40.464C48.8654 40.912 48.7534 41.4347 48.7534 42.032C48.7534 42.6293 48.8654 43.152 49.0894 43.6C49.324 44.048 49.644 44.4 50.0494 44.656C50.4654 44.9013 50.9347 45.024 51.4574 45.024ZM61.3283 46.192C60.5709 46.192 59.8989 46.0213 59.3123 45.68C58.7256 45.328 58.2616 44.8427 57.9203 44.224C57.5896 43.6053 57.4243 42.8747 57.4243 42.032C57.4243 41.2 57.5896 40.4747 57.9203 39.856C58.2509 39.2267 58.7096 38.7413 59.2963 38.4C59.8936 38.048 60.5816 37.872 61.3602 37.872C62.1283 37.872 62.7896 38.048 63.3443 38.4C63.9096 38.7413 64.3416 39.1947 64.6403 39.76C64.9389 40.3253 65.0883 40.9333 65.0883 41.584C65.0883 41.7013 65.0829 41.8187 65.0723 41.936C65.0723 42.0533 65.0723 42.1867 65.0723 42.336H58.7523C58.7843 42.944 58.9229 43.4507 59.1683 43.856C59.4243 44.2507 59.7389 44.5493 60.1123 44.752C60.4963 44.9547 60.9016 45.056 61.3283 45.056C61.8829 45.056 62.3469 44.928 62.7203 44.672C63.0936 44.416 63.3656 44.0693 63.5363 43.632H64.8643C64.6509 44.368 64.2403 44.9813 63.6323 45.472C63.0349 45.952 62.2669 46.192 61.3283 46.192ZM61.3283 39.008C60.6883 39.008 60.1176 39.2053 59.6163 39.6C59.1256 39.984 58.8429 40.5493 58.7682 41.296H63.7603C63.7283 40.5813 63.4829 40.0213 63.0243 39.616C62.5656 39.2107 62.0003 39.008 61.3283 39.008ZM66.8696 46V38.064H68.0856L68.1976 39.584C68.443 39.0613 68.8163 38.6453 69.3176 38.336C69.819 38.0267 70.4376 37.872 71.1736 37.872V39.28H70.8056C70.3363 39.28 69.9043 39.3653 69.5096 39.536C69.115 39.696 68.8003 39.9733 68.5656 40.368C68.331 40.7627 68.2136 41.3067 68.2136 42V46H66.8696ZM74.2821 46L71.9621 38.064H73.3061L74.9861 44.288L76.8421 38.064H78.3621L80.2341 44.288L81.8981 38.064H83.2581L80.9381 46H79.5621L77.6101 39.456L75.6581 46H74.2821ZM88.0638 46.192C87.3171 46.192 86.6451 46.0213 86.0478 45.68C85.4504 45.3387 84.9758 44.8587 84.6238 44.24C84.2824 43.6107 84.1118 42.8747 84.1118 42.032C84.1118 41.1893 84.2878 40.4587 84.6398 39.84C84.9918 39.2107 85.4664 38.7253 86.0638 38.384C86.6718 38.0427 87.3491 37.872 88.0958 37.872C88.8424 37.872 89.5144 38.0427 90.1118 38.384C90.7091 38.7253 91.1784 39.2107 91.5198 39.84C91.8718 40.4587 92.0478 41.1893 92.0478 42.032C92.0478 42.8747 91.8718 43.6107 91.5198 44.24C91.1678 44.8587 90.6878 45.3387 90.0798 45.68C89.4824 46.0213 88.8104 46.192 88.0638 46.192ZM88.0638 45.04C88.5224 45.04 88.9491 44.928 89.3438 44.704C89.7384 44.48 90.0584 44.144 90.3038 43.696C90.5491 43.248 90.6718 42.6933 90.6718 42.032C90.6718 41.3707 90.5491 40.816 90.3038 40.368C90.0691 39.92 89.7544 39.584 89.3598 39.36C88.9651 39.136 88.5438 39.024 88.0958 39.024C87.6371 39.024 87.2104 39.136 86.8158 39.36C86.4211 39.584 86.1011 39.92 85.8558 40.368C85.6104 40.816 85.4878 41.3707 85.4878 42.032C85.4878 42.6933 85.6104 43.248 85.8558 43.696C86.1011 44.144 86.4158 44.48 86.7998 44.704C87.1944 44.928 87.6158 45.04 88.0638 45.04ZM97.5325 46.192C96.7858 46.192 96.1138 46.0213 95.5165 45.68C94.9192 45.3387 94.4445 44.8587 94.0925 44.24C93.7512 43.6107 93.5805 42.8747 93.5805 42.032C93.5805 41.1893 93.7565 40.4587 94.1085 39.84C94.4605 39.2107 94.9352 38.7253 95.5325 38.384C96.1405 38.0427 96.8178 37.872 97.5645 37.872C98.3112 37.872 98.9832 38.0427 99.5805 38.384C100.178 38.7253 100.647 39.2107 100.989 39.84C101.341 40.4587 101.517 41.1893 101.517 42.032C101.517 42.8747 101.341 43.6107 100.989 44.24C100.637 44.8587 100.157 45.3387 99.5485 45.68C98.9512 46.0213 98.2792 46.192 97.5325 46.192ZM97.5325 45.04C97.9912 45.04 98.4178 44.928 98.8125 44.704C99.2072 44.48 99.5272 44.144 99.7725 43.696C100.018 43.248 100.141 42.6933 100.141 42.032C100.141 41.3707 100.018 40.816 99.7725 40.368C99.5378 39.92 99.2232 39.584 98.8285 39.36C98.4338 39.136 98.0125 39.024 97.5645 39.024C97.1058 39.024 96.6792 39.136 96.2845 39.36C95.8898 39.584 95.5698 39.92 95.3245 40.368C95.0792 40.816 94.9565 41.3707 94.9565 42.032C94.9565 42.6933 95.0792 43.248 95.3245 43.696C95.5698 44.144 95.8845 44.48 96.2685 44.704C96.6632 44.928 97.0845 45.04 97.5325 45.04ZM106.985 46.192C106.196 46.192 105.503 46.0107 104.905 45.648C104.319 45.2853 103.86 44.7893 103.529 44.16C103.209 43.5307 103.049 42.816 103.049 42.016C103.049 41.216 103.215 40.5067 103.545 39.888C103.876 39.2587 104.335 38.768 104.921 38.416C105.508 38.0533 106.201 37.872 107.001 37.872C107.652 37.872 108.228 38.0053 108.729 38.272C109.231 38.5387 109.62 38.912 109.897 39.392V34.48H111.241V46H110.025L109.897 44.688C109.641 45.072 109.273 45.4187 108.793 45.728C108.313 46.0373 107.711 46.192 106.985 46.192ZM107.129 45.024C107.663 45.024 108.132 44.9013 108.537 44.656C108.953 44.4 109.273 44.048 109.497 43.6C109.732 43.152 109.849 42.6293 109.849 42.032C109.849 41.4347 109.732 40.912 109.497 40.464C109.273 40.016 108.953 39.6693 108.537 39.424C108.132 39.168 107.663 39.04 107.129 39.04C106.607 39.04 106.137 39.168 105.721 39.424C105.316 39.6693 104.996 40.016 104.761 40.464C104.537 40.912 104.425 41.4347 104.425 42.032C104.425 42.6293 104.537 43.152 104.761 43.6C104.996 44.048 105.316 44.4 105.721 44.656C106.137 44.9013 106.607 45.024 107.129 45.024ZM121.315 46.192C120.493 46.192 119.779 46.0427 119.171 45.744C118.563 45.4453 118.093 45.0293 117.763 44.496C117.432 43.9627 117.267 43.344 117.267 42.64H118.674C118.674 43.0773 118.776 43.4827 118.979 43.856C119.181 44.2187 119.475 44.512 119.859 44.736C120.253 44.9493 120.739 45.056 121.315 45.056C122.072 45.056 122.659 44.8747 123.075 44.512C123.491 44.1493 123.699 43.696 123.699 43.152C123.699 42.704 123.603 42.3467 123.411 42.08C123.219 41.8027 122.957 41.5787 122.627 41.408C122.307 41.2373 121.933 41.088 121.507 40.96C121.091 40.832 120.653 40.688 120.195 40.528C119.331 40.2293 118.691 39.8613 118.275 39.424C117.859 38.976 117.651 38.3947 117.651 37.68C117.64 37.0827 117.779 36.5547 118.067 36.096C118.355 35.6267 118.76 35.264 119.283 35.008C119.816 34.7413 120.445 34.608 121.171 34.608C121.885 34.608 122.504 34.7413 123.027 35.008C123.56 35.2747 123.971 35.6427 124.259 36.112C124.557 36.5813 124.712 37.1147 124.723 37.712H123.315C123.315 37.4027 123.235 37.0987 123.075 36.8C122.915 36.4907 122.669 36.24 122.339 36.048C122.019 35.856 121.613 35.76 121.123 35.76C120.515 35.7493 120.013 35.904 119.619 36.224C119.235 36.544 119.043 36.9867 119.043 37.552C119.043 38.032 119.176 38.4 119.443 38.656C119.72 38.912 120.104 39.1253 120.595 39.296C121.085 39.456 121.651 39.6427 122.291 39.856C122.824 40.048 123.304 40.272 123.731 40.528C124.157 40.784 124.488 41.1147 124.723 41.52C124.968 41.9253 125.091 42.4427 125.091 43.072C125.091 43.6053 124.952 44.112 124.675 44.592C124.397 45.0613 123.976 45.4453 123.411 45.744C122.856 46.0427 122.157 46.192 121.315 46.192ZM130.053 46C129.327 46 128.757 45.824 128.341 45.472C127.925 45.12 127.717 44.4853 127.717 43.568V39.2H126.34V38.064H127.717L127.893 36.16H129.061V38.064H131.397V39.2H129.061V43.568C129.061 44.0693 129.162 44.4107 129.365 44.592C129.567 44.7627 129.925 44.848 130.437 44.848H131.269V46H130.053ZM133.568 46.08C133.301 46.08 133.077 45.9947 132.896 45.824C132.725 45.6427 132.64 45.424 132.64 45.168C132.64 44.912 132.725 44.6987 132.896 44.528C133.077 44.3467 133.301 44.256 133.568 44.256C133.824 44.256 134.037 44.3467 134.208 44.528C134.389 44.6987 134.48 44.912 134.48 45.168C134.48 45.424 134.389 45.6427 134.208 45.824C134.037 45.9947 133.824 46.08 133.568 46.08ZM139.877 46.192C139.056 46.192 138.341 46.0427 137.733 45.744C137.125 45.4453 136.656 45.0293 136.325 44.496C135.994 43.9627 135.829 43.344 135.829 42.64H137.237C137.237 43.0773 137.338 43.4827 137.541 43.856C137.744 44.2187 138.037 44.512 138.421 44.736C138.816 44.9493 139.301 45.056 139.877 45.056C140.634 45.056 141.221 44.8747 141.637 44.512C142.053 44.1493 142.261 43.696 142.261 43.152C142.261 42.704 142.165 42.3467 141.973 42.08C141.781 41.8027 141.52 41.5787 141.189 41.408C140.869 41.2373 140.496 41.088 140.069 40.96C139.653 40.832 139.216 40.688 138.757 40.528C137.893 40.2293 137.253 39.8613 136.837 39.424C136.421 38.976 136.213 38.3947 136.213 37.68C136.202 37.0827 136.341 36.5547 136.629 36.096C136.917 35.6267 137.322 35.264 137.845 35.008C138.378 34.7413 139.008 34.608 139.733 34.608C140.448 34.608 141.066 34.7413 141.589 35.008C142.122 35.2747 142.533 35.6427 142.821 36.112C143.12 36.5813 143.274 37.1147 143.285 37.712H141.877C141.877 37.4027 141.797 37.0987 141.637 36.8C141.477 36.4907 141.232 36.24 140.901 36.048C140.581 35.856 140.176 35.76 139.685 35.76C139.077 35.7493 138.576 35.904 138.181 36.224C137.797 36.544 137.605 36.9867 137.605 37.552C137.605 38.032 137.738 38.4 138.005 38.656C138.282 38.912 138.666 39.1253 139.157 39.296C139.648 39.456 140.213 39.6427 140.853 39.856C141.386 40.048 141.866 40.272 142.293 40.528C142.72 40.784 143.05 41.1147 143.285 41.52C143.53 41.9253 143.653 42.4427 143.653 43.072C143.653 43.6053 143.514 44.112 143.237 44.592C142.96 45.0613 142.538 45.4453 141.973 45.744C141.418 46.0427 140.72 46.192 139.877 46.192ZM148.119 46.192C147.458 46.192 146.908 46.08 146.471 45.856C146.034 45.632 145.708 45.3333 145.495 44.96C145.282 44.5867 145.175 44.1813 145.175 43.744C145.175 42.9333 145.484 42.3093 146.103 41.872C146.722 41.4347 147.564 41.216 148.631 41.216H150.775V41.12C150.775 40.4267 150.594 39.904 150.231 39.552C149.868 39.1893 149.383 39.008 148.775 39.008C148.252 39.008 147.799 39.1413 147.415 39.408C147.042 39.664 146.807 40.0427 146.711 40.544H145.335C145.388 39.968 145.58 39.4827 145.911 39.088C146.252 38.6933 146.674 38.3947 147.175 38.192C147.676 37.9787 148.21 37.872 148.775 37.872C149.884 37.872 150.716 38.1707 151.271 38.768C151.836 39.3547 152.119 40.1387 152.119 41.12V46H150.919L150.839 44.576C150.615 45.024 150.284 45.408 149.847 45.728C149.42 46.0373 148.844 46.192 148.119 46.192ZM148.327 45.056C148.839 45.056 149.276 44.9227 149.639 44.656C150.012 44.3893 150.295 44.0427 150.487 43.616C150.679 43.1893 150.775 42.7413 150.775 42.272V42.256H148.743C147.954 42.256 147.394 42.3947 147.063 42.672C146.743 42.9387 146.583 43.2747 146.583 43.68C146.583 44.096 146.732 44.432 147.031 44.688C147.34 44.9333 147.772 45.056 148.327 45.056ZM154.135 46V38.064H155.351L155.431 39.488C155.687 38.9867 156.055 38.592 156.535 38.304C157.015 38.016 157.559 37.872 158.167 37.872C159.106 37.872 159.853 38.16 160.407 38.736C160.973 39.3013 161.255 40.176 161.255 41.36V46H159.911V41.504C159.911 39.8507 159.229 39.024 157.863 39.024C157.181 39.024 156.61 39.2747 156.151 39.776C155.703 40.2667 155.479 40.9707 155.479 41.888V46H154.135ZM167.606 46V34.8H171.286C172.161 34.8 172.881 34.944 173.446 35.232C174.011 35.52 174.427 35.9093 174.694 36.4C174.971 36.8907 175.11 37.4453 175.11 38.064C175.11 38.672 174.977 39.2213 174.71 39.712C174.443 40.2027 174.027 40.5973 173.462 40.896C172.897 41.184 172.171 41.328 171.286 41.328H168.95V46H167.606ZM168.95 40.192H171.254C172.15 40.192 172.785 40.0053 173.158 39.632C173.542 39.248 173.734 38.7253 173.734 38.064C173.734 37.392 173.542 36.8693 173.158 36.496C172.785 36.112 172.15 35.92 171.254 35.92H168.95V40.192ZM179.891 46.192C179.133 46.192 178.461 46.0213 177.875 45.68C177.288 45.328 176.824 44.8427 176.483 44.224C176.152 43.6053 175.987 42.8747 175.987 42.032C175.987 41.2 176.152 40.4747 176.483 39.856C176.813 39.2267 177.272 38.7413 177.859 38.4C178.456 38.048 179.144 37.872 179.923 37.872C180.691 37.872 181.352 38.048 181.907 38.4C182.472 38.7413 182.904 39.1947 183.203 39.76C183.501 40.3253 183.651 40.9333 183.651 41.584C183.651 41.7013 183.645 41.8187 183.635 41.936C183.635 42.0533 183.635 42.1867 183.635 42.336H177.315C177.347 42.944 177.485 43.4507 177.731 43.856C177.987 44.2507 178.301 44.5493 178.675 44.752C179.059 44.9547 179.464 45.056 179.891 45.056C180.445 45.056 180.909 44.928 181.283 44.672C181.656 44.416 181.928 44.0693 182.099 43.632H183.427C183.213 44.368 182.803 44.9813 182.195 45.472C181.597 45.952 180.829 46.192 179.891 46.192ZM179.891 39.008C179.251 39.008 178.68 39.2053 178.179 39.6C177.688 39.984 177.405 40.5493 177.331 41.296H182.323C182.291 40.5813 182.045 40.0213 181.587 39.616C181.128 39.2107 180.563 39.008 179.891 39.008ZM189.032 46.192C188.243 46.192 187.549 46.0107 186.952 45.648C186.365 45.2853 185.907 44.7893 185.576 44.16C185.256 43.5307 185.096 42.816 185.096 42.016C185.096 41.216 185.261 40.5067 185.592 39.888C185.923 39.2587 186.381 38.768 186.968 38.416C187.555 38.0533 188.248 37.872 189.048 37.872C189.699 37.872 190.275 38.0053 190.776 38.272C191.277 38.5387 191.667 38.912 191.944 39.392V34.48H193.288V46H192.072L191.944 44.688C191.688 45.072 191.32 45.4187 190.84 45.728C190.36 46.0373 189.757 46.192 189.032 46.192ZM189.176 45.024C189.709 45.024 190.179 44.9013 190.584 44.656C191 44.4 191.32 44.048 191.544 43.6C191.779 43.152 191.896 42.6293 191.896 42.032C191.896 41.4347 191.779 40.912 191.544 40.464C191.32 40.016 191 39.6693 190.584 39.424C190.179 39.168 189.709 39.04 189.176 39.04C188.653 39.04 188.184 39.168 187.768 39.424C187.363 39.6693 187.043 40.016 186.808 40.464C186.584 40.912 186.472 41.4347 186.472 42.032C186.472 42.6293 186.584 43.152 186.808 43.6C187.043 44.048 187.363 44.4 187.768 44.656C188.184 44.9013 188.653 45.024 189.176 45.024ZM195.479 46V38.064H196.695L196.807 39.584C197.052 39.0613 197.426 38.6453 197.927 38.336C198.428 38.0267 199.047 37.872 199.783 37.872V39.28H199.415C198.946 39.28 198.514 39.3653 198.119 39.536C197.724 39.696 197.41 39.9733 197.175 40.368C196.94 40.7627 196.823 41.3067 196.823 42V46H195.479ZM204.611 46.192C203.864 46.192 203.192 46.0213 202.595 45.68C201.997 45.3387 201.523 44.8587 201.171 44.24C200.829 43.6107 200.659 42.8747 200.659 42.032C200.659 41.1893 200.835 40.4587 201.187 39.84C201.539 39.2107 202.013 38.7253 202.611 38.384C203.219 38.0427 203.896 37.872 204.643 37.872C205.389 37.872 206.061 38.0427 206.659 38.384C207.256 38.7253 207.725 39.2107 208.067 39.84C208.419 40.4587 208.595 41.1893 208.595 42.032C208.595 42.8747 208.419 43.6107 208.067 44.24C207.715 44.8587 207.235 45.3387 206.627 45.68C206.029 46.0213 205.357 46.192 204.611 46.192ZM204.611 45.04C205.069 45.04 205.496 44.928 205.891 44.704C206.285 44.48 206.605 44.144 206.851 43.696C207.096 43.248 207.219 42.6933 207.219 42.032C207.219 41.3707 207.096 40.816 206.851 40.368C206.616 39.92 206.301 39.584 205.907 39.36C205.512 39.136 205.091 39.024 204.643 39.024C204.184 39.024 203.757 39.136 203.363 39.36C202.968 39.584 202.648 39.92 202.403 40.368C202.157 40.816 202.035 41.3707 202.035 42.032C202.035 42.6933 202.157 43.248 202.403 43.696C202.648 44.144 202.963 44.48 203.347 44.704C203.741 44.928 204.163 45.04 204.611 45.04ZM209.391 47.904L210.319 44.368H211.711L210.319 47.904H209.391ZM222.534 46.192C221.435 46.192 220.486 45.952 219.686 45.472C218.896 44.9813 218.283 44.304 217.846 43.44C217.408 42.5653 217.19 41.552 217.19 40.4C217.19 39.2587 217.408 38.256 217.846 37.392C218.283 36.5173 218.896 35.8347 219.686 35.344C220.486 34.8533 221.435 34.608 222.534 34.608C223.814 34.608 224.854 34.9173 225.654 35.536C226.464 36.144 226.982 36.9973 227.206 38.096H225.718C225.547 37.4027 225.195 36.848 224.661 36.432C224.139 36.0053 223.43 35.792 222.534 35.792C221.734 35.792 221.035 35.9787 220.438 36.352C219.84 36.7147 219.376 37.2427 219.046 37.936C218.726 38.6187 218.566 39.44 218.566 40.4C218.566 41.36 218.726 42.1867 219.046 42.88C219.376 43.5627 219.84 44.0907 220.438 44.464C221.035 44.8267 221.734 45.008 222.534 45.008C223.43 45.008 224.139 44.8053 224.661 44.4C225.195 43.984 225.547 43.4347 225.718 42.752H227.206C226.982 43.8293 226.464 44.672 225.654 45.28C224.854 45.888 223.814 46.192 222.534 46.192ZM228.168 46L232.296 34.8H233.72L237.832 46H236.408L235.384 43.12H230.616L229.576 46H228.168ZM231.016 42.032H234.984L233 36.496L231.016 42.032ZM247.427 46.192C246.723 46.192 246.12 46.0533 245.619 45.776C245.118 45.4987 244.718 45.1307 244.419 44.672C244.131 44.2027 243.955 43.6853 243.891 43.12H245.139C245.246 43.728 245.502 44.1973 245.907 44.528C246.312 44.8587 246.824 45.024 247.443 45.024C248.296 45.024 249.006 44.6293 249.571 43.84C250.136 43.04 250.44 41.7973 250.483 40.112C250.227 40.6133 249.816 41.0507 249.251 41.424C248.696 41.7867 248.024 41.968 247.235 41.968C246.606 41.968 246.008 41.8187 245.443 41.52C244.878 41.2213 244.419 40.8053 244.067 40.272C243.715 39.728 243.539 39.0933 243.539 38.368C243.539 37.7387 243.694 37.136 244.003 36.56C244.323 35.984 244.771 35.5147 245.347 35.152C245.923 34.7893 246.611 34.608 247.411 34.608C248.222 34.608 248.904 34.7627 249.459 35.072C250.014 35.3707 250.456 35.776 250.787 36.288C251.128 36.8 251.374 37.376 251.523 38.016C251.683 38.6453 251.763 39.2907 251.763 39.952C251.763 41.1893 251.592 42.2773 251.251 43.216C250.91 44.144 250.414 44.8747 249.763 45.408C249.123 45.9307 248.344 46.192 247.427 46.192ZM247.507 40.8C248.008 40.8 248.456 40.688 248.851 40.464C249.246 40.2293 249.56 39.92 249.795 39.536C250.03 39.152 250.147 38.736 250.147 38.288C250.147 37.808 250.03 37.3813 249.795 37.008C249.56 36.624 249.246 36.3253 248.851 36.112C248.456 35.8987 248.008 35.792 247.507 35.792C247.006 35.792 246.558 35.8987 246.163 36.112C245.768 36.3253 245.459 36.624 245.235 37.008C245.011 37.3813 244.899 37.8133 244.899 38.304C244.899 39.0613 245.144 39.6693 245.635 40.128C246.136 40.576 246.76 40.8 247.507 40.8ZM258.177 46.192C257.185 46.192 256.326 45.952 255.601 45.472C254.886 44.9813 254.337 44.304 253.953 43.44C253.569 42.5653 253.377 41.552 253.377 40.4C253.377 39.248 253.569 38.24 253.953 37.376C254.337 36.5013 254.886 35.824 255.601 35.344C256.326 34.8533 257.185 34.608 258.177 34.608C259.169 34.608 260.022 34.8533 260.737 35.344C261.452 35.824 262.001 36.5013 262.385 37.376C262.769 38.24 262.961 39.248 262.961 40.4C262.961 41.552 262.769 42.5653 262.385 43.44C262.001 44.304 261.452 44.9813 260.737 45.472C260.022 45.952 259.169 46.192 258.177 46.192ZM258.177 45.008C258.828 45.008 259.409 44.8267 259.921 44.464C260.444 44.0907 260.849 43.5627 261.137 42.88C261.436 42.1867 261.585 41.36 261.585 40.4C261.585 39.44 261.436 38.6187 261.137 37.936C260.849 37.2533 260.444 36.7307 259.921 36.368C259.409 35.9947 258.828 35.808 258.177 35.808C257.516 35.808 256.929 35.9947 256.417 36.368C255.905 36.7307 255.5 37.2533 255.201 37.936C254.902 38.6187 254.753 39.44 254.753 40.4C254.753 41.36 254.902 42.1867 255.201 42.88C255.5 43.5627 255.905 44.0907 256.417 44.464C256.929 44.8267 257.516 45.008 258.177 45.008ZM265.612 46L270.06 35.952H263.916V34.8H271.436V35.808L267.036 46H265.612ZM276.281 46.192C275.567 46.192 274.921 46.064 274.345 45.808C273.769 45.5413 273.305 45.1467 272.953 44.624C272.612 44.1013 272.431 43.4507 272.409 42.672H273.769C273.78 43.312 274.004 43.8667 274.441 44.336C274.879 44.7947 275.492 45.024 276.281 45.024C277.071 45.024 277.663 44.8053 278.057 44.368C278.463 43.9307 278.665 43.4027 278.665 42.784C278.665 42.2613 278.537 41.8347 278.281 41.504C278.036 41.1733 277.7 40.928 277.273 40.768C276.857 40.608 276.399 40.528 275.897 40.528H275.065V39.392H275.897C276.623 39.392 277.188 39.2267 277.593 38.896C278.009 38.5653 278.217 38.1013 278.217 37.504C278.217 37.0027 278.052 36.592 277.721 36.272C277.401 35.9413 276.921 35.776 276.281 35.776C275.663 35.776 275.167 35.9627 274.793 36.336C274.42 36.6987 274.212 37.1573 274.169 37.712H272.809C272.841 37.104 273.001 36.5653 273.289 36.096C273.588 35.6267 273.993 35.264 274.505 35.008C275.017 34.7413 275.609 34.608 276.281 34.608C277.007 34.608 277.609 34.736 278.089 34.992C278.58 35.248 278.948 35.5893 279.193 36.016C279.449 36.4427 279.577 36.912 279.577 37.424C279.577 37.9893 279.423 38.5067 279.113 38.976C278.804 39.4347 278.34 39.744 277.721 39.904C278.383 40.0427 278.932 40.3573 279.369 40.848C279.807 41.3387 280.025 41.984 280.025 42.784C280.025 43.4027 279.881 43.9733 279.593 44.496C279.316 45.008 278.9 45.4187 278.345 45.728C277.791 46.0373 277.103 46.192 276.281 46.192ZM283.038 46V36.304L281.23 36.704V35.776L283.486 34.8H284.398V46H283.038Z" fill="#999999"/>
<path d="M8.98828 4.79785C8.00995 7.13572 6.15359 9.02588 3.80371 10.0098C6.1388 10.9904 8.00178 12.8511 8.98535 15.1846C9.9535 12.8101 11.8151 10.9491 14.1904 9.98242C11.8562 9.00196 9.9698 7.14637 8.98828 4.79785Z" stroke="#DFF314" stroke-width="1.5"/>
<path d="M28.39 15L32.26 4.5H34L37.84 15H36.16L35.26 12.435H30.97L30.07 15H28.39ZM31.42 11.175H34.81L33.115 6.39L31.42 11.175ZM39.3043 15V4.5H42.7093C43.9393 4.5 44.9493 4.715 45.7393 5.145C46.5393 5.575 47.1293 6.185 47.5093 6.975C47.8993 7.755 48.0943 8.685 48.0943 9.765C48.0943 10.835 47.8993 11.765 47.5093 12.555C47.1293 13.335 46.5393 13.94 45.7393 14.37C44.9493 14.79 43.9393 15 42.7093 15H39.3043ZM40.8943 13.65H42.6493C43.5993 13.65 44.3493 13.495 44.8993 13.185C45.4593 12.875 45.8593 12.43 46.0993 11.85C46.3493 11.27 46.4743 10.575 46.4743 9.765C46.4743 8.955 46.3493 8.255 46.0993 7.665C45.8593 7.075 45.4593 6.625 44.8993 6.315C44.3493 5.995 43.5993 5.835 42.6493 5.835H40.8943V13.65ZM49.8511 15V4.5H53.2561C54.4861 4.5 55.4961 4.715 56.2861 5.145C57.0861 5.575 57.6761 6.185 58.0561 6.975C58.4461 7.755 58.6411 8.685 58.6411 9.765C58.6411 10.835 58.4461 11.765 58.0561 12.555C57.6761 13.335 57.0861 13.94 56.2861 14.37C55.4961 14.79 54.4861 15 53.2561 15H49.8511ZM51.4411 13.65H53.1961C54.1461 13.65 54.8961 13.495 55.4461 13.185C56.0061 12.875 56.4061 12.43 56.6461 11.85C56.8961 11.27 57.0211 10.575 57.0211 9.765C57.0211 8.955 56.8961 8.255 56.6461 7.665C56.4061 7.075 56.0061 6.625 55.4461 6.315C54.8961 5.995 54.1461 5.835 53.1961 5.835H51.4411V13.65ZM60.398 15V4.5H64.013C64.843 4.5 65.523 4.64 66.053 4.92C66.593 5.2 66.993 5.58 67.253 6.06C67.513 6.53 67.643 7.055 67.643 7.635C67.643 8.285 67.468 8.875 67.118 9.405C66.778 9.935 66.243 10.315 65.513 10.545L67.748 15H65.903L63.863 10.77H61.988V15H60.398ZM61.988 9.57H63.923C64.643 9.57 65.168 9.395 65.498 9.045C65.838 8.695 66.008 8.24 66.008 7.68C66.008 7.12 65.843 6.675 65.513 6.345C65.183 6.005 64.648 5.835 63.908 5.835H61.988V9.57ZM69.524 15V4.5H76.199V5.79H71.114V9.06H75.749V10.32H71.114V13.71H76.199V15H69.524ZM81.5583 15.18C80.7883 15.18 80.1133 15.045 79.5333 14.775C78.9533 14.505 78.4983 14.12 78.1683 13.62C77.8483 13.12 77.6833 12.525 77.6733 11.835H79.3533C79.3633 12.395 79.5583 12.87 79.9383 13.26C80.3183 13.65 80.8533 13.845 81.5433 13.845C82.1533 13.845 82.6283 13.7 82.9683 13.41C83.3183 13.11 83.4933 12.73 83.4933 12.27C83.4933 11.9 83.4083 11.6 83.2383 11.37C83.0783 11.14 82.8533 10.95 82.5633 10.8C82.2833 10.65 81.9583 10.515 81.5883 10.395C81.2183 10.275 80.8283 10.145 80.4183 10.005C79.6083 9.735 78.9983 9.385 78.5883 8.955C78.1883 8.525 77.9883 7.96 77.9883 7.26C77.9783 6.67 78.1133 6.155 78.3933 5.715C78.6833 5.275 79.0833 4.935 79.5933 4.695C80.1133 4.445 80.7183 4.32 81.4083 4.32C82.0883 4.32 82.6833 4.445 83.1933 4.695C83.7133 4.945 84.1183 5.295 84.4083 5.745C84.6983 6.185 84.8483 6.7 84.8583 7.29H83.1783C83.1783 7.02 83.1083 6.765 82.9683 6.525C82.8283 6.275 82.6233 6.07 82.3533 5.91C82.0833 5.75 81.7533 5.67 81.3633 5.67C80.8633 5.66 80.4483 5.785 80.1183 6.045C79.7983 6.305 79.6383 6.665 79.6383 7.125C79.6383 7.535 79.7583 7.85 79.9983 8.07C80.2383 8.29 80.5683 8.475 80.9883 8.625C81.4083 8.765 81.8883 8.93 82.4283 9.12C82.9483 9.29 83.4133 9.495 83.8233 9.735C84.2333 9.975 84.5583 10.29 84.7983 10.68C85.0483 11.07 85.1733 11.565 85.1733 12.165C85.1733 12.695 85.0383 13.19 84.7683 13.65C84.4983 14.1 84.0933 14.47 83.5533 14.76C83.0133 15.04 82.3483 15.18 81.5583 15.18ZM90.3767 15.18C89.6067 15.18 88.9317 15.045 88.3517 14.775C87.7717 14.505 87.3167 14.12 86.9867 13.62C86.6667 13.12 86.5017 12.525 86.4917 11.835H88.1717C88.1817 12.395 88.3767 12.87 88.7567 13.26C89.1367 13.65 89.6717 13.845 90.3617 13.845C90.9717 13.845 91.4467 13.7 91.7867 13.41C92.1367 13.11 92.3117 12.73 92.3117 12.27C92.3117 11.9 92.2267 11.6 92.0567 11.37C91.8967 11.14 91.6717 10.95 91.3817 10.8C91.1017 10.65 90.7767 10.515 90.4067 10.395C90.0367 10.275 89.6467 10.145 89.2367 10.005C88.4267 9.735 87.8167 9.385 87.4067 8.955C87.0067 8.525 86.8067 7.96 86.8067 7.26C86.7967 6.67 86.9317 6.155 87.2117 5.715C87.5017 5.275 87.9017 4.935 88.4117 4.695C88.9317 4.445 89.5367 4.32 90.2267 4.32C90.9067 4.32 91.5017 4.445 92.0117 4.695C92.5317 4.945 92.9367 5.295 93.2267 5.745C93.5167 6.185 93.6667 6.7 93.6767 7.29H91.9967C91.9967 7.02 91.9267 6.765 91.7867 6.525C91.6467 6.275 91.4417 6.07 91.1717 5.91C90.9017 5.75 90.5717 5.67 90.1817 5.67C89.6817 5.66 89.2667 5.785 88.9367 6.045C88.6167 6.305 88.4567 6.665 88.4567 7.125C88.4567 7.535 88.5767 7.85 88.8167 8.07C89.0567 8.29 89.3867 8.475 89.8067 8.625C90.2267 8.765 90.7067 8.93 91.2467 9.12C91.7667 9.29 92.2317 9.495 92.6417 9.735C93.0517 9.975 93.3767 10.29 93.6167 10.68C93.8667 11.07 93.9917 11.565 93.9917 12.165C93.9917 12.695 93.8567 13.19 93.5867 13.65C93.3167 14.1 92.9117 14.47 92.3717 14.76C91.8317 15.04 91.1667 15.18 90.3767 15.18Z" fill="white"/>
</svg>
