<svg width="95" height="20" viewBox="0 0 95 20" fill="none" xmlns="http://www.w3.org/2000/svg">
<path d="M8.98828 4.79785C8.00995 7.13572 6.15359 9.02588 3.80371 10.0098C6.1388 10.9904 8.00178 12.8511 8.98535 15.1846C9.9535 12.8101 11.8151 10.9491 14.1904 9.98242C11.8562 9.00196 9.9698 7.14637 8.98828 4.79785Z" stroke="#DFF314" stroke-width="1.5"/>
<path d="M28.39 15L32.26 4.5H34L37.84 15H36.16L35.26 12.435H30.97L30.07 15H28.39ZM31.42 11.175H34.81L33.115 6.39L31.42 11.175ZM39.3043 15V4.5H42.7093C43.9393 4.5 44.9493 4.715 45.7393 5.145C46.5393 5.575 47.1293 6.185 47.5093 6.975C47.8993 7.755 48.0943 8.685 48.0943 9.765C48.0943 10.835 47.8993 11.765 47.5093 12.555C47.1293 13.335 46.5393 13.94 45.7393 14.37C44.9493 14.79 43.9393 15 42.7093 15H39.3043ZM40.8943 13.65H42.6493C43.5993 13.65 44.3493 13.495 44.8993 13.185C45.4593 12.875 45.8593 12.43 46.0993 11.85C46.3493 11.27 46.4743 10.575 46.4743 9.765C46.4743 8.955 46.3493 8.255 46.0993 7.665C45.8593 7.075 45.4593 6.625 44.8993 6.315C44.3493 5.995 43.5993 5.835 42.6493 5.835H40.8943V13.65ZM49.8511 15V4.5H53.2561C54.4861 4.5 55.4961 4.715 56.2861 5.145C57.0861 5.575 57.6761 6.185 58.0561 6.975C58.4461 7.755 58.6411 8.685 58.6411 9.765C58.6411 10.835 58.4461 11.765 58.0561 12.555C57.6761 13.335 57.0861 13.94 56.2861 14.37C55.4961 14.79 54.4861 15 53.2561 15H49.8511ZM51.4411 13.65H53.1961C54.1461 13.65 54.8961 13.495 55.4461 13.185C56.0061 12.875 56.4061 12.43 56.6461 11.85C56.8961 11.27 57.0211 10.575 57.0211 9.765C57.0211 8.955 56.8961 8.255 56.6461 7.665C56.4061 7.075 56.0061 6.625 55.4461 6.315C54.8961 5.995 54.1461 5.835 53.1961 5.835H51.4411V13.65ZM60.398 15V4.5H64.013C64.843 4.5 65.523 4.64 66.053 4.92C66.593 5.2 66.993 5.58 67.253 6.06C67.513 6.53 67.643 7.055 67.643 7.635C67.643 8.285 67.468 8.875 67.118 9.405C66.778 9.935 66.243 10.315 65.513 10.545L67.748 15H65.903L63.863 10.77H61.988V15H60.398ZM61.988 9.57H63.923C64.643 9.57 65.168 9.395 65.498 9.045C65.838 8.695 66.008 8.24 66.008 7.68C66.008 7.12 65.843 6.675 65.513 6.345C65.183 6.005 64.648 5.835 63.908 5.835H61.988V9.57ZM69.524 15V4.5H76.199V5.79H71.114V9.06H75.749V10.32H71.114V13.71H76.199V15H69.524ZM81.5583 15.18C80.7883 15.18 80.1133 15.045 79.5333 14.775C78.9533 14.505 78.4983 14.12 78.1683 13.62C77.8483 13.12 77.6833 12.525 77.6733 11.835H79.3533C79.3633 12.395 79.5583 12.87 79.9383 13.26C80.3183 13.65 80.8533 13.845 81.5433 13.845C82.1533 13.845 82.6283 13.7 82.9683 13.41C83.3183 13.11 83.4933 12.73 83.4933 12.27C83.4933 11.9 83.4083 11.6 83.2383 11.37C83.0783 11.14 82.8533 10.95 82.5633 10.8C82.2833 10.65 81.9583 10.515 81.5883 10.395C81.2183 10.275 80.8283 10.145 80.4183 10.005C79.6083 9.735 78.9983 9.385 78.5883 8.955C78.1883 8.525 77.9883 7.96 77.9883 7.26C77.9783 6.67 78.1133 6.155 78.3933 5.715C78.6833 5.275 79.0833 4.935 79.5933 4.695C80.1133 4.445 80.7183 4.32 81.4083 4.32C82.0883 4.32 82.6833 4.445 83.1933 4.695C83.7133 4.945 84.1183 5.295 84.4083 5.745C84.6983 6.185 84.8483 6.7 84.8583 7.29H83.1783C83.1783 7.02 83.1083 6.765 82.9683 6.525C82.8283 6.275 82.6233 6.07 82.3533 5.91C82.0833 5.75 81.7533 5.67 81.3633 5.67C80.8633 5.66 80.4483 5.785 80.1183 6.045C79.7983 6.305 79.6383 6.665 79.6383 7.125C79.6383 7.535 79.7583 7.85 79.9983 8.07C80.2383 8.29 80.5683 8.475 80.9883 8.625C81.4083 8.765 81.8883 8.93 82.4283 9.12C82.9483 9.29 83.4133 9.495 83.8233 9.735C84.2333 9.975 84.5583 10.29 84.7983 10.68C85.0483 11.07 85.1733 11.565 85.1733 12.165C85.1733 12.695 85.0383 13.19 84.7683 13.65C84.4983 14.1 84.0933 14.47 83.5533 14.76C83.0133 15.04 82.3483 15.18 81.5583 15.18ZM90.3767 15.18C89.6067 15.18 88.9317 15.045 88.3517 14.775C87.7717 14.505 87.3167 14.12 86.9867 13.62C86.6667 13.12 86.5017 12.525 86.4917 11.835H88.1717C88.1817 12.395 88.3767 12.87 88.7567 13.26C89.1367 13.65 89.6717 13.845 90.3617 13.845C90.9717 13.845 91.4467 13.7 91.7867 13.41C92.1367 13.11 92.3117 12.73 92.3117 12.27C92.3117 11.9 92.2267 11.6 92.0567 11.37C91.8967 11.14 91.6717 10.95 91.3817 10.8C91.1017 10.65 90.7767 10.515 90.4067 10.395C90.0367 10.275 89.6467 10.145 89.2367 10.005C88.4267 9.735 87.8167 9.385 87.4067 8.955C87.0067 8.525 86.8067 7.96 86.8067 7.26C86.7967 6.67 86.9317 6.155 87.2117 5.715C87.5017 5.275 87.9017 4.935 88.4117 4.695C88.9317 4.445 89.5367 4.32 90.2267 4.32C90.9067 4.32 91.5017 4.445 92.0117 4.695C92.5317 4.945 92.9367 5.295 93.2267 5.745C93.5167 6.185 93.6667 6.7 93.6767 7.29H91.9967C91.9967 7.02 91.9267 6.765 91.7867 6.525C91.6467 6.275 91.4417 6.07 91.1717 5.91C90.9017 5.75 90.5717 5.67 90.1817 5.67C89.6817 5.66 89.2667 5.785 88.9367 6.045C88.6167 6.305 88.4567 6.665 88.4567 7.125C88.4567 7.535 88.5767 7.85 88.8167 8.07C89.0567 8.29 89.3867 8.475 89.8067 8.625C90.2267 8.765 90.7067 8.93 91.2467 9.12C91.7667 9.29 92.2317 9.495 92.6417 9.735C93.0517 9.975 93.3767 10.29 93.6167 10.68C93.8667 11.07 93.9917 11.565 93.9917 12.165C93.9917 12.695 93.8567 13.19 93.5867 13.65C93.3167 14.1 92.9117 14.47 92.3717 14.76C91.8317 15.04 91.1667 15.18 90.3767 15.18Z" fill="white"/>
</svg>
