<svg width="131" height="54" viewBox="0 0 131 54" fill="none" xmlns="http://www.w3.org/2000/svg">
<path d="M1.008 41.92V40.784H4.064V37.872H5.264V40.784H8.32V41.92H5.264V44.848H4.064V41.92H1.008ZM10.612 46L15.06 35.952H8.916V34.8H16.436V35.808L12.036 46H10.612ZM25.2336 48.32C24.6576 47.7653 24.1243 47.104 23.6336 46.336C23.143 45.5787 22.7483 44.7253 22.4496 43.776C22.1616 42.816 22.0176 41.7813 22.0176 40.672C22.0176 39.5627 22.1616 38.5333 22.4496 37.584C22.7483 36.624 23.143 35.7653 23.6336 35.008C24.1243 34.24 24.6576 33.5787 25.2336 33.024H26.6096V33.152C25.6283 34.112 24.839 35.2373 24.2416 36.528C23.655 37.808 23.3616 39.1893 23.3616 40.672C23.3616 42.1547 23.6603 43.5413 24.2576 44.832C24.855 46.112 25.639 47.232 26.6096 48.192V48.32H25.2336ZM31.5988 46.192C30.8948 46.192 30.2921 46.0533 29.7908 45.776C29.2894 45.4987 28.8894 45.1307 28.5908 44.672C28.3028 44.2027 28.1268 43.6853 28.0628 43.12H29.3108C29.4174 43.728 29.6734 44.1973 30.0788 44.528C30.4841 44.8587 30.9961 45.024 31.6148 45.024C32.4681 45.024 33.1774 44.6293 33.7428 43.84C34.3081 43.04 34.6121 41.7973 34.6548 40.112C34.3988 40.6133 33.9881 41.0507 33.4228 41.424C32.8681 41.7867 32.1961 41.968 31.4068 41.968C30.7774 41.968 30.1801 41.8187 29.6148 41.52C29.0494 41.2213 28.5908 40.8053 28.2388 40.272C27.8868 39.728 27.7108 39.0933 27.7108 38.368C27.7108 37.7387 27.8654 37.136 28.1748 36.56C28.4948 35.984 28.9428 35.5147 29.5188 35.152C30.0948 34.7893 30.7828 34.608 31.5828 34.608C32.3934 34.608 33.0761 34.7627 33.6308 35.072C34.1854 35.3707 34.6281 35.776 34.9588 36.288C35.3001 36.8 35.5454 37.376 35.6948 38.016C35.8548 38.6453 35.9348 39.2907 35.9348 39.952C35.9348 41.1893 35.7641 42.2773 35.4228 43.216C35.0814 44.144 34.5854 44.8747 33.9348 45.408C33.2948 45.9307 32.5161 46.192 31.5988 46.192ZM31.6788 40.8C32.1801 40.8 32.6281 40.688 33.0228 40.464C33.4174 40.2293 33.7321 39.92 33.9668 39.536C34.2014 39.152 34.3188 38.736 34.3188 38.288C34.3188 37.808 34.2014 37.3813 33.9668 37.008C33.7321 36.624 33.4174 36.3253 33.0228 36.112C32.6281 35.8987 32.1801 35.792 31.6788 35.792C31.1774 35.792 30.7294 35.8987 30.3348 36.112C29.9401 36.3253 29.6308 36.624 29.4068 37.008C29.1828 37.3813 29.0707 37.8133 29.0707 38.304C29.0707 39.0613 29.3161 39.6693 29.8068 40.128C30.3081 40.576 30.9321 40.8 31.6788 40.8ZM37.5393 46V45.056C38.2966 44.4587 39.0113 43.856 39.6833 43.248C40.3659 42.6293 40.9686 42.0213 41.4913 41.424C42.0246 40.8267 42.4406 40.24 42.7393 39.664C43.0486 39.088 43.2033 38.5333 43.2033 38C43.2033 37.6053 43.1339 37.2373 42.9953 36.896C42.8673 36.5547 42.6539 36.2827 42.3553 36.08C42.0566 35.8667 41.6513 35.76 41.1393 35.76C40.6486 35.76 40.2379 35.872 39.9073 36.096C39.5766 36.3093 39.3259 36.5973 39.1553 36.96C38.9953 37.3227 38.9153 37.712 38.9153 38.128H37.6193C37.6193 37.392 37.7739 36.7627 38.0833 36.24C38.3926 35.7067 38.8139 35.3013 39.3473 35.024C39.8806 34.7467 40.4833 34.608 41.1553 34.608C42.1473 34.608 42.9579 34.8907 43.5873 35.456C44.2273 36.0107 44.5473 36.8427 44.5473 37.952C44.5473 38.6133 44.3819 39.2693 44.0513 39.92C43.7206 40.56 43.2993 41.184 42.7873 41.792C42.2753 42.3893 41.7259 42.9493 41.1393 43.472C40.5633 43.9947 40.0246 44.464 39.5233 44.88H44.9313V46H37.5393ZM47.9755 46V36.304L46.1675 36.704V35.776L48.4235 34.8H49.3355V46H47.9755ZM51.1236 48.32V48.192C52.0943 47.232 52.8783 46.112 53.4756 44.832C54.0836 43.5413 54.3876 42.1547 54.3876 40.672C54.3876 39.1893 54.089 37.808 53.4916 36.528C52.8943 35.2373 52.1103 34.112 51.1396 33.152V33.024H52.4996C53.0863 33.5787 53.6196 34.24 54.0996 35.008C54.5903 35.7653 54.9796 36.624 55.2676 37.584C55.5663 38.5333 55.7156 39.5627 55.7156 40.672C55.7156 41.7813 55.5663 42.816 55.2676 43.776C54.9796 44.7253 54.5903 45.5787 54.0996 46.336C53.6196 47.104 53.0863 47.7653 52.4996 48.32H51.1236ZM62.9911 46V36.304L61.1831 36.704V35.776L63.4391 34.8H64.3511V46H62.9911ZM66.5393 46V45.056C67.2966 44.4587 68.0113 43.856 68.6833 43.248C69.3659 42.6293 69.9686 42.0213 70.4913 41.424C71.0246 40.8267 71.4406 40.24 71.7393 39.664C72.0486 39.088 72.2033 38.5333 72.2033 38C72.2033 37.6053 72.1339 37.2373 71.9953 36.896C71.8673 36.5547 71.6539 36.2827 71.3553 36.08C71.0566 35.8667 70.6513 35.76 70.1393 35.76C69.6486 35.76 69.2379 35.872 68.9073 36.096C68.5766 36.3093 68.3259 36.5973 68.1553 36.96C67.9953 37.3227 67.9153 37.712 67.9153 38.128H66.6193C66.6193 37.392 66.7739 36.7627 67.0833 36.24C67.3926 35.7067 67.8139 35.3013 68.3473 35.024C68.8806 34.7467 69.4833 34.608 70.1553 34.608C71.1473 34.608 71.9579 34.8907 72.5873 35.456C73.2273 36.0107 73.5473 36.8427 73.5473 37.952C73.5473 38.6133 73.3819 39.2693 73.0513 39.92C72.7206 40.56 72.2993 41.184 71.7873 41.792C71.2753 42.3893 70.7259 42.9493 70.1393 43.472C69.5633 43.9947 69.0246 44.464 68.5233 44.88H73.9313V46H66.5393ZM79.6795 46.192C78.9115 46.192 78.2448 46.0533 77.6795 45.776C77.1142 45.4987 76.6608 45.12 76.3195 44.64C75.9888 44.1493 75.7862 43.5947 75.7115 42.976H77.0235C77.1515 43.5947 77.4502 44.096 77.9195 44.48C78.3888 44.8533 78.9808 45.04 79.6955 45.04C80.2288 45.04 80.6875 44.9173 81.0715 44.672C81.4555 44.416 81.7488 44.0747 81.9515 43.648C82.1648 43.2213 82.2715 42.7467 82.2715 42.224C82.2715 41.392 82.0368 40.72 81.5675 40.208C81.0982 39.696 80.4902 39.44 79.7435 39.44C79.1248 39.44 78.5968 39.5787 78.1595 39.856C77.7222 40.1333 77.4022 40.496 77.1995 40.944H75.9195L76.8795 34.8H82.7515V35.968H77.9195L77.2635 39.376C77.5195 39.0667 77.8715 38.8107 78.3195 38.608C78.7782 38.4053 79.3008 38.304 79.8875 38.304C80.6235 38.304 81.2635 38.4747 81.8075 38.816C82.3622 39.1573 82.7942 39.6213 83.1035 40.208C83.4128 40.7947 83.5675 41.4613 83.5675 42.208C83.5675 42.9227 83.4128 43.584 83.1035 44.192C82.8048 44.8 82.3622 45.2853 81.7755 45.648C81.1995 46.0107 80.5008 46.192 79.6795 46.192ZM85.4284 41.92V40.784H91.7644V41.92H85.4284ZM94.9755 46V36.304L93.1675 36.704V35.776L95.4235 34.8H96.3355V46H94.9755ZM103.772 46V43.6H98.0916V42.56L103.532 34.8H105.1V42.416H106.764V43.6H105.1V46H103.772ZM99.5796 42.416H103.836V36.288L99.5796 42.416ZM108.147 41.92V40.784H114.483V41.92H108.147ZM117.694 46V36.304L115.886 36.704V35.776L118.142 34.8H119.054V46H117.694ZM125.45 46.192C124.64 46.192 123.957 46.0427 123.402 45.744C122.848 45.4347 122.4 45.024 122.058 44.512C121.728 44 121.482 43.4293 121.322 42.8C121.173 42.16 121.098 41.5093 121.098 40.848C121.098 39.6107 121.269 38.528 121.61 37.6C121.952 36.6613 122.442 35.9307 123.082 35.408C123.733 34.8747 124.517 34.608 125.434 34.608C126.138 34.608 126.741 34.7467 127.242 35.024C127.744 35.3013 128.138 35.6747 128.426 36.144C128.725 36.6027 128.912 37.1147 128.986 37.68H127.738C127.621 37.072 127.36 36.6027 126.954 36.272C126.549 35.9413 126.037 35.776 125.418 35.776C124.576 35.776 123.866 36.176 123.29 36.976C122.725 37.7653 122.421 39.0027 122.378 40.688C122.634 40.1867 123.04 39.7547 123.594 39.392C124.16 39.0187 124.837 38.832 125.626 38.832C126.266 38.832 126.864 38.9813 127.418 39.28C127.984 39.5787 128.442 40 128.794 40.544C129.146 41.0773 129.322 41.7067 129.322 42.432C129.322 43.0613 129.168 43.664 128.858 44.24C128.549 44.816 128.101 45.2853 127.514 45.648C126.938 46.0107 126.25 46.192 125.45 46.192ZM125.354 45.008C125.856 45.008 126.304 44.9013 126.698 44.688C127.093 44.4747 127.402 44.1813 127.626 43.808C127.85 43.424 127.962 42.9867 127.962 42.496C127.962 41.7387 127.712 41.136 127.21 40.688C126.72 40.2293 126.101 40 125.354 40C124.853 40 124.405 40.1173 124.01 40.352C123.616 40.576 123.301 40.88 123.066 41.264C122.842 41.648 122.73 42.064 122.73 42.512C122.73 42.992 122.842 43.424 123.066 43.808C123.301 44.1813 123.616 44.4747 124.01 44.688C124.405 44.9013 124.853 45.008 125.354 45.008Z" fill="#999999"/>
<path d="M8.98828 4.79785C8.00995 7.13572 6.15359 9.02588 3.80371 10.0098C6.1388 10.9904 8.00178 12.8511 8.98535 15.1846C9.9535 12.8101 11.8151 10.9491 14.1904 9.98242C11.8562 9.00196 9.9698 7.14637 8.98828 4.79785Z" stroke="#DFF314" stroke-width="1.5"/>
<path d="M29.065 15V4.5H32.74C33.56 4.5 34.24 4.64 34.78 4.92C35.32 5.19 35.72 5.565 35.98 6.045C36.25 6.515 36.385 7.05 36.385 7.65C36.385 8.22 36.255 8.745 35.995 9.225C35.745 9.695 35.35 10.07 34.81 10.35C34.27 10.63 33.58 10.77 32.74 10.77H30.655V15H29.065ZM30.655 9.465H32.665C33.415 9.465 33.95 9.305 34.27 8.985C34.6 8.655 34.765 8.21 34.765 7.65C34.765 7.07 34.6 6.62 34.27 6.3C33.95 5.97 33.415 5.805 32.665 5.805H30.655V9.465ZM37.9566 15V4.5H39.5466V9H44.6316V4.5H46.2216V15H44.6316V10.305H39.5466V15H37.9566ZM53.202 15.18C52.162 15.18 51.252 14.95 50.472 14.49C49.692 14.03 49.082 13.395 48.642 12.585C48.202 11.765 47.982 10.82 47.982 9.75C47.982 8.68 48.202 7.74 48.642 6.93C49.082 6.11 49.692 5.47 50.472 5.01C51.252 4.55 52.162 4.32 53.202 4.32C54.242 4.32 55.152 4.55 55.932 5.01C56.712 5.47 57.317 6.11 57.747 6.93C58.187 7.74 58.407 8.68 58.407 9.75C58.407 10.82 58.187 11.765 57.747 12.585C57.317 13.395 56.712 14.03 55.932 14.49C55.152 14.95 54.242 15.18 53.202 15.18ZM53.202 13.755C53.922 13.755 54.547 13.595 55.077 13.275C55.617 12.955 56.037 12.495 56.337 11.895C56.637 11.295 56.787 10.58 56.787 9.75C56.787 8.92 56.637 8.205 56.337 7.605C56.037 7.005 55.617 6.545 55.077 6.225C54.547 5.905 53.922 5.745 53.202 5.745C52.482 5.745 51.852 5.905 51.312 6.225C50.772 6.545 50.352 7.005 50.052 7.605C49.762 8.205 49.617 8.92 49.617 9.75C49.617 10.58 49.762 11.295 50.052 11.895C50.352 12.495 50.772 12.955 51.312 13.275C51.852 13.595 52.482 13.755 53.202 13.755ZM60.1783 15V4.5H61.7683L67.0333 12.405V4.5H68.6233V15H67.0333L61.7683 7.095V15H60.1783ZM70.7545 15V4.5H77.4295V5.79H72.3445V9.06H76.9795V10.32H72.3445V13.71H77.4295V15H70.7545Z" fill="white"/>
</svg>
