<svg width="79" height="20" viewBox="0 0 79 20" fill="none" xmlns="http://www.w3.org/2000/svg">
<path d="M8.98828 4.79785C8.00995 7.13572 6.15359 9.02588 3.80371 10.0098C6.1388 10.9904 8.00178 12.8511 8.98535 15.1846C9.9535 12.8101 11.8151 10.9491 14.1904 9.98242C11.8562 9.00196 9.9698 7.14637 8.98828 4.79785Z" stroke="#DFF314" stroke-width="1.5"/>
<path d="M29.065 15V4.5H32.74C33.56 4.5 34.24 4.64 34.78 4.92C35.32 5.19 35.72 5.565 35.98 6.045C36.25 6.515 36.385 7.05 36.385 7.65C36.385 8.22 36.255 8.745 35.995 9.225C35.745 9.695 35.35 10.07 34.81 10.35C34.27 10.63 33.58 10.77 32.74 10.77H30.655V15H29.065ZM30.655 9.465H32.665C33.415 9.465 33.95 9.305 34.27 8.985C34.6 8.655 34.765 8.21 34.765 7.65C34.765 7.07 34.6 6.62 34.27 6.3C33.95 5.97 33.415 5.805 32.665 5.805H30.655V9.465ZM37.9566 15V4.5H39.5466V9H44.6316V4.5H46.2216V15H44.6316V10.305H39.5466V15H37.9566ZM53.202 15.18C52.162 15.18 51.252 14.95 50.472 14.49C49.692 14.03 49.082 13.395 48.642 12.585C48.202 11.765 47.982 10.82 47.982 9.75C47.982 8.68 48.202 7.74 48.642 6.93C49.082 6.11 49.692 5.47 50.472 5.01C51.252 4.55 52.162 4.32 53.202 4.32C54.242 4.32 55.152 4.55 55.932 5.01C56.712 5.47 57.317 6.11 57.747 6.93C58.187 7.74 58.407 8.68 58.407 9.75C58.407 10.82 58.187 11.765 57.747 12.585C57.317 13.395 56.712 14.03 55.932 14.49C55.152 14.95 54.242 15.18 53.202 15.18ZM53.202 13.755C53.922 13.755 54.547 13.595 55.077 13.275C55.617 12.955 56.037 12.495 56.337 11.895C56.637 11.295 56.787 10.58 56.787 9.75C56.787 8.92 56.637 8.205 56.337 7.605C56.037 7.005 55.617 6.545 55.077 6.225C54.547 5.905 53.922 5.745 53.202 5.745C52.482 5.745 51.852 5.905 51.312 6.225C50.772 6.545 50.352 7.005 50.052 7.605C49.762 8.205 49.617 8.92 49.617 9.75C49.617 10.58 49.762 11.295 50.052 11.895C50.352 12.495 50.772 12.955 51.312 13.275C51.852 13.595 52.482 13.755 53.202 13.755ZM60.1783 15V4.5H61.7683L67.0333 12.405V4.5H68.6233V15H67.0333L61.7683 7.095V15H60.1783ZM70.7545 15V4.5H77.4295V5.79H72.3445V9.06H76.9795V10.32H72.3445V13.71H77.4295V15H70.7545Z" fill="white"/>
</svg>
