<svg width="482" height="213" viewBox="0 0 482 213" fill="none" xmlns="http://www.w3.org/2000/svg">
<path d="M13.824 70.332C16.944 70.332 19.536 71.124 21.6 72.708C23.664 74.292 25.056 76.44 25.776 79.152H21.42C20.82 77.616 19.86 76.404 18.54 75.516C17.244 74.604 15.648 74.148 13.752 74.148C12.24 74.148 10.884 74.52 9.684 75.264C8.508 76.008 7.572 77.076 6.876 78.468C6.204 79.836 5.868 81.444 5.868 83.292C5.868 85.116 6.204 86.724 6.876 88.116C7.572 89.484 8.508 90.54 9.684 91.284C10.884 92.028 12.24 92.4 13.752 92.4C15.648 92.4 17.244 91.956 18.54 91.068C19.86 90.156 20.82 88.944 21.42 87.432H25.776C25.056 90.144 23.664 92.292 21.6 93.876C19.536 95.436 16.944 96.216 13.824 96.216C11.424 96.216 9.3 95.676 7.452 94.596C5.604 93.492 4.176 91.968 3.168 90.024C2.16 88.056 1.656 85.812 1.656 83.292C1.656 80.772 2.16 78.54 3.168 76.596C4.176 74.628 5.604 73.092 7.452 71.988C9.3 70.884 11.424 70.332 13.824 70.332ZM38.2227 75.912C40.1427 75.912 41.8707 76.32 43.4067 77.136C44.9427 77.952 46.1427 79.128 47.0067 80.664C47.8707 82.2 48.3027 84 48.3027 86.064C48.3027 88.152 47.8707 89.964 47.0067 91.5C46.1427 93.036 44.9427 94.212 43.4067 95.028C41.8707 95.844 40.1427 96.252 38.2227 96.252C36.3027 96.252 34.5747 95.844 33.0387 95.028C31.5267 94.212 30.3267 93.036 29.4387 91.5C28.5747 89.94 28.1427 88.128 28.1427 86.064C28.1427 84 28.5747 82.2 29.4387 80.664C30.3267 79.128 31.5267 77.952 33.0387 77.136C34.5747 76.32 36.3027 75.912 38.2227 75.912ZM38.2227 79.476C37.1667 79.476 36.1947 79.716 35.3067 80.196C34.4187 80.676 33.6987 81.42 33.1467 82.428C32.6187 83.412 32.3547 84.624 32.3547 86.064C32.3547 87.528 32.6187 88.752 33.1467 89.736C33.6987 90.72 34.4187 91.452 35.3067 91.932C36.1947 92.412 37.1667 92.652 38.2227 92.652C39.2787 92.652 40.2507 92.412 41.1387 91.932C42.0267 91.452 42.7347 90.72 43.2627 89.736C43.8147 88.752 44.0907 87.528 44.0907 86.064C44.0907 84.624 43.8147 83.412 43.2627 82.428C42.7347 81.42 42.0267 80.676 41.1387 80.196C40.2507 79.716 39.2787 79.476 38.2227 79.476ZM62.6164 75.84C64.9204 75.84 66.7684 76.584 68.1604 78.072C69.5524 79.56 70.2484 81.684 70.2484 84.444V96H66.1444V84.876C66.1444 83.1 65.6884 81.732 64.7764 80.772C63.8644 79.788 62.6164 79.296 61.0324 79.296C59.4004 79.296 58.0924 79.824 57.1084 80.88C56.1244 81.912 55.6324 83.436 55.6324 85.452V96H51.5284V76.164H55.6324V80.52C56.1604 79.032 57.0484 77.88 58.2964 77.064C59.5444 76.248 60.9844 75.84 62.6164 75.84ZM84.2999 92.436V96H81.7799C79.6679 96 78.0599 95.496 76.9559 94.488C75.8759 93.456 75.3359 91.752 75.3359 89.376V79.656H72.4919V76.164H75.3359V71.232H79.4759V76.164H84.2639V79.656H79.4759V89.448C79.4759 90.576 79.6799 91.356 80.0879 91.788C80.5199 92.22 81.2639 92.436 82.3199 92.436H84.2999ZM95.3803 75.912C97.1803 75.912 98.7163 76.356 99.9883 77.244C101.26 78.132 102.16 79.308 102.688 80.772V76.164H106.792V96H102.688V91.392C102.16 92.856 101.26 94.032 99.9883 94.92C98.7163 95.808 97.1803 96.252 95.3803 96.252C93.6523 96.252 92.1043 95.844 90.7363 95.028C89.3923 94.212 88.3363 93.036 87.5683 91.5C86.8003 89.964 86.4163 88.152 86.4163 86.064C86.4163 84 86.8003 82.2 87.5683 80.664C88.3363 79.128 89.3923 77.952 90.7363 77.136C92.1043 76.32 93.6523 75.912 95.3803 75.912ZM96.6403 79.512C94.8163 79.512 93.3523 80.1 92.2483 81.276C91.1683 82.428 90.6283 84.024 90.6283 86.064C90.6283 88.104 91.1683 89.712 92.2483 90.888C93.3523 92.04 94.8163 92.616 96.6403 92.616C97.7923 92.616 98.8243 92.352 99.7363 91.824C100.648 91.272 101.368 90.504 101.896 89.52C102.424 88.536 102.688 87.384 102.688 86.064C102.688 84.768 102.424 83.628 101.896 82.644C101.368 81.636 100.648 80.868 99.7363 80.34C98.8243 79.788 97.7923 79.512 96.6403 79.512ZM119.817 75.912C122.385 75.912 124.509 76.596 126.189 77.964C127.869 79.308 128.913 81.144 129.321 83.472H124.965C124.725 82.224 124.137 81.252 123.201 80.556C122.289 79.836 121.137 79.476 119.745 79.476C118.161 79.476 116.841 80.04 115.785 81.168C114.729 82.272 114.201 83.904 114.201 86.064C114.201 88.224 114.729 89.868 115.785 90.996C116.841 92.124 118.161 92.688 119.745 92.688C121.137 92.688 122.289 92.328 123.201 91.608C124.137 90.888 124.725 89.904 124.965 88.656H129.321C128.913 90.984 127.869 92.832 126.189 94.2C124.509 95.568 122.385 96.252 119.817 96.252C117.897 96.252 116.193 95.844 114.705 95.028C113.241 94.212 112.089 93.036 111.249 91.5C110.409 89.964 109.989 88.152 109.989 86.064C109.989 84 110.409 82.2 111.249 80.664C112.089 79.128 113.241 77.952 114.705 77.136C116.193 76.32 117.897 75.912 119.817 75.912ZM142.538 92.436V96H140.018C137.906 96 136.298 95.496 135.194 94.488C134.114 93.456 133.574 91.752 133.574 89.376V79.656H130.73V76.164H133.574V71.232H137.714V76.164H142.502V79.656H137.714V89.448C137.714 90.576 137.918 91.356 138.326 91.788C138.758 92.22 139.502 92.436 140.558 92.436H142.538ZM178.184 75.84C180.536 75.84 182.408 76.584 183.8 78.072C185.216 79.56 185.924 81.684 185.924 84.444V96H181.82V84.876C181.82 83.148 181.388 81.816 180.524 80.88C179.66 79.92 178.472 79.44 176.96 79.44C175.352 79.44 174.068 79.956 173.108 80.988C172.172 81.996 171.704 83.484 171.704 85.452V96H167.6V84.876C167.6 83.148 167.168 81.816 166.304 80.88C165.44 79.92 164.252 79.44 162.74 79.44C161.132 79.44 159.848 79.956 158.888 80.988C157.952 81.996 157.484 83.484 157.484 85.452V96H153.38V76.164H157.484V80.304C157.988 78.864 158.828 77.76 160.004 76.992C161.18 76.224 162.56 75.84 164.144 75.84C165.8 75.84 167.228 76.248 168.428 77.064C169.652 77.88 170.54 79.056 171.092 80.592C171.668 79.104 172.592 77.94 173.864 77.1C175.136 76.26 176.576 75.84 178.184 75.84ZM208.428 85.128C208.428 85.8 208.38 86.388 208.284 86.892H193.02C193.092 88.932 193.656 90.444 194.712 91.428C195.768 92.412 197.076 92.904 198.636 92.904C200.004 92.904 201.156 92.556 202.092 91.86C203.052 91.164 203.64 90.24 203.856 89.088H208.248C207.984 90.48 207.432 91.716 206.592 92.796C205.752 93.876 204.66 94.728 203.316 95.352C201.972 95.952 200.472 96.252 198.816 96.252C196.896 96.252 195.192 95.844 193.704 95.028C192.24 94.212 191.088 93.036 190.248 91.5C189.408 89.964 188.988 88.152 188.988 86.064C188.988 84 189.408 82.2 190.248 80.664C191.088 79.128 192.24 77.952 193.704 77.136C195.192 76.32 196.896 75.912 198.816 75.912C200.76 75.912 202.452 76.32 203.892 77.136C205.356 77.928 206.472 79.032 207.24 80.448C208.032 81.84 208.428 83.4 208.428 85.128ZM204.288 85.02C204.336 83.724 204.108 82.644 203.604 81.78C203.124 80.892 202.452 80.244 201.588 79.836C200.748 79.404 199.824 79.188 198.816 79.188C197.208 79.188 195.864 79.68 194.784 80.664C193.704 81.648 193.116 83.1 193.02 85.02H204.288ZM229.36 92.436V96H226.84C224.728 96 223.12 95.496 222.016 94.488C220.936 93.456 220.396 91.752 220.396 89.376V79.656H217.552V76.164H220.396V71.232H224.536V76.164H229.324V79.656H224.536V89.448C224.536 90.576 224.74 91.356 225.148 91.788C225.58 92.22 226.324 92.436 227.38 92.436H229.36ZM241.557 75.912C243.477 75.912 245.205 76.32 246.741 77.136C248.277 77.952 249.477 79.128 250.341 80.664C251.205 82.2 251.637 84 251.637 86.064C251.637 88.152 251.205 89.964 250.341 91.5C249.477 93.036 248.277 94.212 246.741 95.028C245.205 95.844 243.477 96.252 241.557 96.252C239.637 96.252 237.909 95.844 236.373 95.028C234.861 94.212 233.661 93.036 232.773 91.5C231.909 89.94 231.477 88.128 231.477 86.064C231.477 84 231.909 82.2 232.773 80.664C233.661 79.128 234.861 77.952 236.373 77.136C237.909 76.32 239.637 75.912 241.557 75.912ZM241.557 79.476C240.501 79.476 239.529 79.716 238.641 80.196C237.753 80.676 237.033 81.42 236.481 82.428C235.953 83.412 235.689 84.624 235.689 86.064C235.689 87.528 235.953 88.752 236.481 89.736C237.033 90.72 237.753 91.452 238.641 91.932C239.529 92.412 240.501 92.652 241.557 92.652C242.613 92.652 243.585 92.412 244.473 91.932C245.361 91.452 246.069 90.72 246.597 89.736C247.149 88.752 247.425 87.528 247.425 86.064C247.425 84.624 247.149 83.412 246.597 82.428C246.069 81.42 245.361 80.676 244.473 80.196C243.585 79.716 242.613 79.476 241.557 79.476ZM262.818 75.912C264.618 75.912 266.154 76.356 267.426 77.244C268.698 78.132 269.586 79.308 270.09 80.772V69.36H274.23V96H270.09V91.392C269.586 92.856 268.698 94.032 267.426 94.92C266.154 95.808 264.618 96.252 262.818 96.252C261.09 96.252 259.542 95.844 258.174 95.028C256.83 94.212 255.774 93.036 255.006 91.5C254.238 89.964 253.854 88.152 253.854 86.064C253.854 84 254.238 82.2 255.006 80.664C255.774 79.128 256.83 77.952 258.174 77.136C259.542 76.32 261.09 75.912 262.818 75.912ZM264.078 79.512C262.254 79.512 260.79 80.1 259.686 81.276C258.606 82.428 258.066 84.024 258.066 86.064C258.066 88.104 258.606 89.712 259.686 90.888C260.79 92.04 262.254 92.616 264.078 92.616C265.23 92.616 266.262 92.352 267.174 91.824C268.086 91.272 268.806 90.504 269.334 89.52C269.862 88.536 270.126 87.384 270.126 86.064C270.126 84.768 269.862 83.628 269.334 82.644C268.806 81.636 268.086 80.868 267.174 80.34C266.262 79.788 265.23 79.512 264.078 79.512ZM286.391 75.912C288.191 75.912 289.727 76.356 290.999 77.244C292.271 78.132 293.171 79.308 293.699 80.772V76.164H297.803V96H293.699V91.392C293.171 92.856 292.271 94.032 290.999 94.92C289.727 95.808 288.191 96.252 286.391 96.252C284.663 96.252 283.115 95.844 281.747 95.028C280.403 94.212 279.347 93.036 278.579 91.5C277.811 89.964 277.427 88.152 277.427 86.064C277.427 84 277.811 82.2 278.579 80.664C279.347 79.128 280.403 77.952 281.747 77.136C283.115 76.32 284.663 75.912 286.391 75.912ZM287.651 79.512C285.827 79.512 284.363 80.1 283.259 81.276C282.179 82.428 281.639 84.024 281.639 86.064C281.639 88.104 282.179 89.712 283.259 90.888C284.363 92.04 285.827 92.616 287.651 92.616C288.803 92.616 289.835 92.352 290.747 91.824C291.659 91.272 292.379 90.504 292.907 89.52C293.435 88.536 293.699 87.384 293.699 86.064C293.699 84.768 293.435 83.628 292.907 82.644C292.379 81.636 291.659 80.868 290.747 80.34C289.835 79.788 288.803 79.512 287.651 79.512ZM304.348 76.164L310.288 90.744L315.796 76.164H320.368L308.38 105.432H303.808L308.092 95.532L299.74 76.164H304.348ZM338.02 75.912C339.82 75.912 341.356 76.356 342.628 77.244C343.9 78.132 344.8 79.308 345.328 80.772V76.164H349.432V96H345.328V91.392C344.8 92.856 343.9 94.032 342.628 94.92C341.356 95.808 339.82 96.252 338.02 96.252C336.292 96.252 334.744 95.844 333.376 95.028C332.032 94.212 330.976 93.036 330.208 91.5C329.44 89.964 329.056 88.152 329.056 86.064C329.056 84 329.44 82.2 330.208 80.664C330.976 79.128 332.032 77.952 333.376 77.136C334.744 76.32 336.292 75.912 338.02 75.912ZM339.28 79.512C337.456 79.512 335.992 80.1 334.888 81.276C333.808 82.428 333.268 84.024 333.268 86.064C333.268 88.104 333.808 89.712 334.888 90.888C335.992 92.04 337.456 92.616 339.28 92.616C340.432 92.616 341.464 92.352 342.376 91.824C343.288 91.272 344.008 90.504 344.536 89.52C345.064 88.536 345.328 87.384 345.328 86.064C345.328 84.768 345.064 83.628 344.536 82.644C344.008 81.636 343.288 80.868 342.376 80.34C341.464 79.788 340.432 79.512 339.28 79.512ZM364.725 75.84C367.029 75.84 368.877 76.584 370.269 78.072C371.661 79.56 372.357 81.684 372.357 84.444V96H368.253V84.876C368.253 83.1 367.797 81.732 366.885 80.772C365.973 79.788 364.725 79.296 363.141 79.296C361.509 79.296 360.201 79.824 359.217 80.88C358.233 81.912 357.741 83.436 357.741 85.452V96H353.637V76.164H357.741V80.52C358.269 79.032 359.157 77.88 360.405 77.064C361.653 76.248 363.093 75.84 364.725 75.84ZM384.393 75.912C386.193 75.912 387.729 76.356 389.001 77.244C390.273 78.132 391.161 79.308 391.665 80.772V69.36H395.805V96H391.665V91.392C391.161 92.856 390.273 94.032 389.001 94.92C387.729 95.808 386.193 96.252 384.393 96.252C382.665 96.252 381.117 95.844 379.749 95.028C378.405 94.212 377.349 93.036 376.581 91.5C375.813 89.964 375.429 88.152 375.429 86.064C375.429 84 375.813 82.2 376.581 80.664C377.349 79.128 378.405 77.952 379.749 77.136C381.117 76.32 382.665 75.912 384.393 75.912ZM385.653 79.512C383.829 79.512 382.365 80.1 381.261 81.276C380.181 82.428 379.641 84.024 379.641 86.064C379.641 88.104 380.181 89.712 381.261 90.888C382.365 92.04 383.829 92.616 385.653 92.616C386.805 92.616 387.837 92.352 388.749 91.824C389.661 91.272 390.381 90.504 390.909 89.52C391.437 88.536 391.701 87.384 391.701 86.064C391.701 84.768 391.437 83.628 390.909 82.644C390.381 81.636 389.661 80.868 388.749 80.34C387.837 79.788 386.805 79.512 385.653 79.512ZM151.109 127.84C153.413 127.84 155.261 128.584 156.653 130.072C158.045 131.56 158.741 133.684 158.741 136.444V148H154.637V136.876C154.637 135.1 154.181 133.732 153.269 132.772C152.357 131.788 151.109 131.296 149.525 131.296C147.893 131.296 146.585 131.824 145.601 132.88C144.617 133.912 144.125 135.436 144.125 137.452V148H140.021V121.36H144.125V132.52C144.653 131.032 145.541 129.88 146.789 129.064C148.037 128.248 149.477 127.84 151.109 127.84ZM171.892 127.912C173.812 127.912 175.54 128.32 177.076 129.136C178.612 129.952 179.812 131.128 180.676 132.664C181.54 134.2 181.972 136 181.972 138.064C181.972 140.152 181.54 141.964 180.676 143.5C179.812 145.036 178.612 146.212 177.076 147.028C175.54 147.844 173.812 148.252 171.892 148.252C169.972 148.252 168.244 147.844 166.708 147.028C165.196 146.212 163.996 145.036 163.108 143.5C162.244 141.94 161.812 140.128 161.812 138.064C161.812 136 162.244 134.2 163.108 132.664C163.996 131.128 165.196 129.952 166.708 129.136C168.244 128.32 169.972 127.912 171.892 127.912ZM171.892 131.476C170.836 131.476 169.864 131.716 168.976 132.196C168.088 132.676 167.368 133.42 166.816 134.428C166.288 135.412 166.024 136.624 166.024 138.064C166.024 139.528 166.288 140.752 166.816 141.736C167.368 142.72 168.088 143.452 168.976 143.932C169.864 144.412 170.836 144.652 171.892 144.652C172.948 144.652 173.92 144.412 174.808 143.932C175.696 143.452 176.404 142.72 176.932 141.736C177.484 140.752 177.76 139.528 177.76 138.064C177.76 136.624 177.484 135.412 176.932 134.428C176.404 133.42 175.696 132.676 174.808 132.196C173.92 131.716 172.948 131.476 171.892 131.476ZM212.99 128.164L207.482 148H202.946L198.05 132.664L193.082 148H188.582L183.074 128.164H187.214L190.994 144.22L195.962 128.164H200.282L205.322 144.22L209.102 128.164H212.99ZM226.886 122.584V148H222.782V122.584H226.886ZM247.669 127.912C250.237 127.912 252.361 128.596 254.041 129.964C255.721 131.308 256.765 133.144 257.173 135.472H252.817C252.577 134.224 251.989 133.252 251.053 132.556C250.141 131.836 248.989 131.476 247.597 131.476C246.013 131.476 244.693 132.04 243.637 133.168C242.581 134.272 242.053 135.904 242.053 138.064C242.053 140.224 242.581 141.868 243.637 142.996C244.693 144.124 246.013 144.688 247.597 144.688C248.989 144.688 250.141 144.328 251.053 143.608C251.989 142.888 252.577 141.904 252.817 140.656H257.173C256.765 142.984 255.721 144.832 254.041 146.2C252.361 147.568 250.237 148.252 247.669 148.252C245.749 148.252 244.045 147.844 242.557 147.028C241.093 146.212 239.941 145.036 239.101 143.5C238.261 141.964 237.841 140.152 237.841 138.064C237.841 136 238.261 134.2 239.101 132.664C239.941 131.128 241.093 129.952 242.557 129.136C244.045 128.32 245.749 127.912 247.669 127.912ZM268.374 127.912C270.174 127.912 271.71 128.356 272.982 129.244C274.254 130.132 275.154 131.308 275.682 132.772V128.164H279.786V148H275.682V143.392C275.154 144.856 274.254 146.032 272.982 146.92C271.71 147.808 270.174 148.252 268.374 148.252C266.646 148.252 265.098 147.844 263.73 147.028C262.386 146.212 261.33 145.036 260.562 143.5C259.794 141.964 259.41 140.152 259.41 138.064C259.41 136 259.794 134.2 260.562 132.664C261.33 131.128 262.386 129.952 263.73 129.136C265.098 128.32 266.646 127.912 268.374 127.912ZM269.634 131.512C267.81 131.512 266.346 132.1 265.242 133.276C264.162 134.428 263.622 136.024 263.622 138.064C263.622 140.104 264.162 141.712 265.242 142.888C266.346 144.04 267.81 144.616 269.634 144.616C270.786 144.616 271.818 144.352 272.73 143.824C273.642 143.272 274.362 142.504 274.89 141.52C275.418 140.536 275.682 139.384 275.682 138.064C275.682 136.768 275.418 135.628 274.89 134.644C274.362 133.636 273.642 132.868 272.73 132.34C271.818 131.788 270.786 131.512 269.634 131.512ZM295.079 127.84C297.383 127.84 299.231 128.584 300.623 130.072C302.015 131.56 302.711 133.684 302.711 136.444V148H298.607V136.876C298.607 135.1 298.151 133.732 297.239 132.772C296.327 131.788 295.079 131.296 293.495 131.296C291.863 131.296 290.555 131.824 289.571 132.88C288.587 133.912 288.095 135.436 288.095 137.452V148H283.991V128.164H288.095V132.52C288.623 131.032 289.511 129.88 290.759 129.064C292.007 128.248 293.447 127.84 295.079 127.84ZM325.884 127.912C327.612 127.912 329.148 128.32 330.492 129.136C331.86 129.952 332.928 131.128 333.696 132.664C334.464 134.2 334.848 136 334.848 138.064C334.848 140.152 334.464 141.964 333.696 143.5C332.928 145.036 331.86 146.212 330.492 147.028C329.148 147.844 327.612 148.252 325.884 148.252C324.084 148.252 322.548 147.808 321.276 146.92C320.004 146.032 319.116 144.856 318.612 143.392V148H314.508V121.36H318.612V132.772C319.116 131.308 320.004 130.132 321.276 129.244C322.548 128.356 324.084 127.912 325.884 127.912ZM324.624 131.512C323.472 131.512 322.44 131.788 321.528 132.34C320.616 132.868 319.896 133.636 319.368 134.644C318.84 135.628 318.576 136.768 318.576 138.064C318.576 139.384 318.84 140.536 319.368 141.52C319.896 142.504 320.616 143.272 321.528 143.824C322.44 144.352 323.472 144.616 324.624 144.616C326.448 144.616 327.912 144.04 329.016 142.888C330.12 141.712 330.672 140.104 330.672 138.064C330.672 136.048 330.12 134.452 329.016 133.276C327.912 132.1 326.448 131.512 324.624 131.512ZM342.185 132.052C342.857 130.756 343.817 129.736 345.065 128.992C346.313 128.224 347.753 127.84 349.385 127.84V132.304H348.161C346.361 132.304 344.909 132.748 343.805 133.636C342.725 134.5 342.185 135.94 342.185 137.956V148H338.081V128.164H342.185V132.052ZM351.164 122.404C351.164 121.708 351.404 121.132 351.884 120.676C352.364 120.22 353 119.992 353.792 119.992C354.584 119.992 355.22 120.22 355.7 120.676C356.204 121.132 356.456 121.708 356.456 122.404C356.456 123.1 356.204 123.664 355.7 124.096C355.22 124.528 354.584 124.744 353.792 124.744C353 124.744 352.364 124.528 351.884 124.096C351.404 123.664 351.164 123.1 351.164 122.404ZM355.844 128.164V148H351.74V128.164H355.844ZM371.179 127.84C373.483 127.84 375.331 128.584 376.723 130.072C378.115 131.56 378.811 133.684 378.811 136.444V148H374.707V136.876C374.707 135.1 374.251 133.732 373.339 132.772C372.427 131.788 371.179 131.296 369.595 131.296C367.963 131.296 366.655 131.824 365.671 132.88C364.687 133.912 364.195 135.436 364.195 137.452V148H360.091V128.164H364.195V132.52C364.723 131.032 365.611 129.88 366.859 129.064C368.107 128.248 369.547 127.84 371.179 127.84ZM390.846 127.912C392.646 127.912 394.182 128.356 395.454 129.244C396.726 130.132 397.626 131.308 398.154 132.772V128.164H402.258V148.216C402.258 150.064 401.874 151.696 401.106 153.112C400.362 154.552 399.282 155.68 397.866 156.496C396.45 157.312 394.77 157.72 392.826 157.72C390.042 157.72 387.786 157.06 386.058 155.74C384.354 154.42 383.286 152.632 382.854 150.376H386.922C387.258 151.552 387.906 152.464 388.866 153.112C389.826 153.784 391.05 154.12 392.538 154.12C394.17 154.12 395.514 153.616 396.57 152.608C397.626 151.6 398.154 150.136 398.154 148.216V143.392C397.626 144.856 396.726 146.032 395.454 146.92C394.182 147.808 392.646 148.252 390.846 148.252C389.118 148.252 387.57 147.844 386.202 147.028C384.858 146.212 383.802 145.036 383.034 143.5C382.266 141.964 381.882 140.152 381.882 138.064C381.882 136 382.266 134.2 383.034 132.664C383.802 131.128 384.858 129.952 386.202 129.136C387.57 128.32 389.118 127.912 390.846 127.912ZM392.106 131.512C390.282 131.512 388.818 132.1 387.714 133.276C386.634 134.428 386.094 136.024 386.094 138.064C386.094 140.104 386.634 141.712 387.714 142.888C388.818 144.04 390.282 144.616 392.106 144.616C393.258 144.616 394.29 144.352 395.202 143.824C396.114 143.272 396.834 142.504 397.362 141.52C397.89 140.536 398.154 139.384 398.154 138.064C398.154 136.768 397.89 135.628 397.362 134.644C396.834 133.636 396.114 132.868 395.202 132.34C394.29 131.788 393.258 131.512 392.106 131.512ZM4.824 180.164L10.764 194.744L16.272 180.164H20.844L8.856 209.432H4.284L8.568 199.532L0.216 180.164H4.824ZM31.8946 179.912C33.8146 179.912 35.5426 180.32 37.0786 181.136C38.6146 181.952 39.8146 183.128 40.6786 184.664C41.5426 186.2 41.9746 188 41.9746 190.064C41.9746 192.152 41.5426 193.964 40.6786 195.5C39.8146 197.036 38.6146 198.212 37.0786 199.028C35.5426 199.844 33.8146 200.252 31.8946 200.252C29.9746 200.252 28.2466 199.844 26.7106 199.028C25.1986 198.212 23.9986 197.036 23.1106 195.5C22.2466 193.94 21.8146 192.128 21.8146 190.064C21.8146 188 22.2466 186.2 23.1106 184.664C23.9986 183.128 25.1986 181.952 26.7106 181.136C28.2466 180.32 29.9746 179.912 31.8946 179.912ZM31.8946 183.476C30.8386 183.476 29.8666 183.716 28.9786 184.196C28.0906 184.676 27.3706 185.42 26.8186 186.428C26.2906 187.412 26.0266 188.624 26.0266 190.064C26.0266 191.528 26.2906 192.752 26.8186 193.736C27.3706 194.72 28.0906 195.452 28.9786 195.932C29.8666 196.412 30.8386 196.652 31.8946 196.652C32.9506 196.652 33.9226 196.412 34.8106 195.932C35.6986 195.452 36.4066 194.72 36.9346 193.736C37.4866 192.752 37.7626 191.528 37.7626 190.064C37.7626 188.624 37.4866 187.412 36.9346 186.428C36.4066 185.42 35.6986 184.676 34.8106 184.196C33.9226 183.716 32.9506 183.476 31.8946 183.476ZM63.4883 180.164V200H59.3483V195.68C58.8443 197.144 57.9683 198.284 56.7203 199.1C55.4723 199.892 54.0203 200.288 52.3643 200.288C50.0603 200.288 48.2123 199.544 46.8203 198.056C45.4283 196.568 44.7323 194.444 44.7323 191.684V180.164H48.8363V191.252C48.8363 193.052 49.2923 194.444 50.2043 195.428C51.1163 196.388 52.3643 196.868 53.9483 196.868C55.5803 196.868 56.8883 196.34 57.8723 195.284C58.8563 194.228 59.3483 192.692 59.3483 190.676V180.164H63.4883ZM71.7874 184.052C72.4594 182.756 73.4194 181.736 74.6674 180.992C75.9154 180.224 77.3554 179.84 78.9874 179.84V184.304H77.7634C75.9634 184.304 74.5114 184.748 73.4074 185.636C72.3274 186.5 71.7874 187.94 71.7874 189.956V200H67.6834V180.164H71.7874V184.052ZM97.1958 195.752L102.812 180.164H107.204L99.6438 200H94.6758L87.1158 180.164H91.5078L97.1958 195.752ZM108.928 174.404C108.928 173.708 109.168 173.132 109.648 172.676C110.128 172.22 110.764 171.992 111.556 171.992C112.348 171.992 112.984 172.22 113.464 172.676C113.968 173.132 114.22 173.708 114.22 174.404C114.22 175.1 113.968 175.664 113.464 176.096C112.984 176.528 112.348 176.744 111.556 176.744C110.764 176.744 110.128 176.528 109.648 176.096C109.168 175.664 108.928 175.1 108.928 174.404ZM113.608 180.164V200H109.504V180.164H113.608ZM124.37 179.912C126.698 179.912 128.558 180.512 129.95 181.712C131.366 182.888 132.23 184.472 132.542 186.464H128.654C128.486 185.384 128.018 184.52 127.25 183.872C126.506 183.2 125.51 182.864 124.262 182.864C123.23 182.864 122.426 183.116 121.85 183.62C121.298 184.1 121.022 184.76 121.022 185.6C121.022 186.224 121.226 186.728 121.634 187.112C122.042 187.496 122.546 187.796 123.146 188.012C123.77 188.228 124.646 188.468 125.774 188.732C127.262 189.068 128.462 189.416 129.374 189.776C130.31 190.136 131.102 190.712 131.75 191.504C132.422 192.272 132.758 193.328 132.758 194.672C132.758 196.328 132.122 197.672 130.85 198.704C129.602 199.736 127.91 200.252 125.774 200.252C123.302 200.252 121.298 199.676 119.762 198.524C118.25 197.372 117.338 195.764 117.026 193.7H121.022C121.142 194.78 121.622 195.656 122.462 196.328C123.302 197 124.406 197.336 125.774 197.336C126.758 197.336 127.526 197.084 128.078 196.58C128.654 196.052 128.942 195.392 128.942 194.6C128.942 193.904 128.726 193.352 128.294 192.944C127.862 192.536 127.322 192.224 126.674 192.008C126.026 191.768 125.138 191.528 124.01 191.288C122.57 190.952 121.394 190.616 120.482 190.28C119.594 189.944 118.826 189.404 118.178 188.66C117.554 187.892 117.242 186.86 117.242 185.564C117.242 183.884 117.866 182.528 119.114 181.496C120.386 180.44 122.138 179.912 124.37 179.912ZM135.578 174.404C135.578 173.708 135.818 173.132 136.298 172.676C136.778 172.22 137.414 171.992 138.206 171.992C138.998 171.992 139.634 172.22 140.114 172.676C140.618 173.132 140.87 173.708 140.87 174.404C140.87 175.1 140.618 175.664 140.114 176.096C139.634 176.528 138.998 176.744 138.206 176.744C137.414 176.744 136.778 176.528 136.298 176.096C135.818 175.664 135.578 175.1 135.578 174.404ZM140.258 180.164V200H136.154V180.164H140.258ZM153.576 179.912C155.496 179.912 157.224 180.32 158.76 181.136C160.296 181.952 161.496 183.128 162.36 184.664C163.224 186.2 163.656 188 163.656 190.064C163.656 192.152 163.224 193.964 162.36 195.5C161.496 197.036 160.296 198.212 158.76 199.028C157.224 199.844 155.496 200.252 153.576 200.252C151.656 200.252 149.928 199.844 148.392 199.028C146.88 198.212 145.68 197.036 144.792 195.5C143.928 193.94 143.496 192.128 143.496 190.064C143.496 188 143.928 186.2 144.792 184.664C145.68 183.128 146.88 181.952 148.392 181.136C149.928 180.32 151.656 179.912 153.576 179.912ZM153.576 183.476C152.52 183.476 151.548 183.716 150.66 184.196C149.772 184.676 149.052 185.42 148.5 186.428C147.972 187.412 147.708 188.624 147.708 190.064C147.708 191.528 147.972 192.752 148.5 193.736C149.052 194.72 149.772 195.452 150.66 195.932C151.548 196.412 152.52 196.652 153.576 196.652C154.632 196.652 155.604 196.412 156.492 195.932C157.38 195.452 158.088 194.72 158.616 193.736C159.168 192.752 159.444 191.528 159.444 190.064C159.444 188.624 159.168 187.412 158.616 186.428C158.088 185.42 157.38 184.676 156.492 184.196C155.604 183.716 154.632 183.476 153.576 183.476ZM177.97 179.84C180.274 179.84 182.122 180.584 183.514 182.072C184.906 183.56 185.602 185.684 185.602 188.444V200H181.498V188.876C181.498 187.1 181.042 185.732 180.13 184.772C179.218 183.788 177.97 183.296 176.386 183.296C174.754 183.296 173.446 183.824 172.462 184.88C171.478 185.912 170.986 187.436 170.986 189.452V200H166.882V180.164H170.986V184.52C171.514 183.032 172.402 181.88 173.65 181.064C174.898 180.248 176.338 179.84 177.97 179.84ZM207.371 196.436V200H204.851C202.739 200 201.131 199.496 200.027 198.488C198.947 197.456 198.407 195.752 198.407 193.376V183.656H195.563V180.164H198.407V175.232H202.547V180.164H207.335V183.656H202.547V193.448C202.547 194.576 202.751 195.356 203.159 195.788C203.591 196.22 204.335 196.436 205.391 196.436H207.371ZM219.567 179.912C221.487 179.912 223.215 180.32 224.751 181.136C226.287 181.952 227.487 183.128 228.351 184.664C229.215 186.2 229.647 188 229.647 190.064C229.647 192.152 229.215 193.964 228.351 195.5C227.487 197.036 226.287 198.212 224.751 199.028C223.215 199.844 221.487 200.252 219.567 200.252C217.647 200.252 215.919 199.844 214.383 199.028C212.871 198.212 211.671 197.036 210.783 195.5C209.919 193.94 209.487 192.128 209.487 190.064C209.487 188 209.919 186.2 210.783 184.664C211.671 183.128 212.871 181.952 214.383 181.136C215.919 180.32 217.647 179.912 219.567 179.912ZM219.567 183.476C218.511 183.476 217.539 183.716 216.651 184.196C215.763 184.676 215.043 185.42 214.491 186.428C213.963 187.412 213.699 188.624 213.699 190.064C213.699 191.528 213.963 192.752 214.491 193.736C215.043 194.72 215.763 195.452 216.651 195.932C217.539 196.412 218.511 196.652 219.567 196.652C220.623 196.652 221.595 196.412 222.483 195.932C223.371 195.452 224.079 194.72 224.607 193.736C225.159 192.752 225.435 191.528 225.435 190.064C225.435 188.624 225.159 187.412 224.607 186.428C224.079 185.42 223.371 184.676 222.483 184.196C221.595 183.716 220.623 183.476 219.567 183.476ZM244.694 173.36V200H240.59V173.36H244.694ZM248.365 174.404C248.365 173.708 248.605 173.132 249.085 172.676C249.565 172.22 250.201 171.992 250.993 171.992C251.785 171.992 252.421 172.22 252.901 172.676C253.405 173.132 253.657 173.708 253.657 174.404C253.657 175.1 253.405 175.664 252.901 176.096C252.421 176.528 251.785 176.744 250.993 176.744C250.201 176.744 249.565 176.528 249.085 176.096C248.605 175.664 248.365 175.1 248.365 174.404ZM253.045 180.164V200H248.941V180.164H253.045ZM266.543 176.06C264.935 175.988 263.807 176.252 263.159 176.852C262.511 177.428 262.187 178.424 262.187 179.84V180.164H266.543V183.692H262.187V200H258.047V183.692H255.347V180.164H258.047V179.516C258.047 177.092 258.755 175.28 260.171 174.08C261.587 172.856 263.711 172.316 266.543 172.46V176.06ZM287.554 189.128C287.554 189.8 287.506 190.388 287.41 190.892H272.146C272.218 192.932 272.782 194.444 273.838 195.428C274.894 196.412 276.202 196.904 277.762 196.904C279.13 196.904 280.282 196.556 281.218 195.86C282.178 195.164 282.766 194.24 282.982 193.088H287.374C287.11 194.48 286.558 195.716 285.718 196.796C284.878 197.876 283.786 198.728 282.442 199.352C281.098 199.952 279.598 200.252 277.942 200.252C276.022 200.252 274.318 199.844 272.83 199.028C271.366 198.212 270.214 197.036 269.374 195.5C268.534 193.964 268.114 192.152 268.114 190.064C268.114 188 268.534 186.2 269.374 184.664C270.214 183.128 271.366 181.952 272.83 181.136C274.318 180.32 276.022 179.912 277.942 179.912C279.886 179.912 281.578 180.32 283.018 181.136C284.482 181.928 285.598 183.032 286.366 184.448C287.158 185.84 287.554 187.4 287.554 189.128ZM283.414 189.02C283.462 187.724 283.234 186.644 282.73 185.78C282.25 184.892 281.578 184.244 280.714 183.836C279.874 183.404 278.95 183.188 277.942 183.188C276.334 183.188 274.99 183.68 273.91 184.664C272.83 185.648 272.242 187.1 272.146 189.02H283.414ZM296.03 202.52H332.03V166.52H296.03V202.52Z" fill="white"/>
<path d="M411.831 69.36V96H407.727V69.36H411.831ZM434.51 85.128C434.51 85.8 434.462 86.388 434.366 86.892H419.102C419.174 88.932 419.738 90.444 420.794 91.428C421.85 92.412 423.158 92.904 424.718 92.904C426.086 92.904 427.238 92.556 428.174 91.86C429.134 91.164 429.722 90.24 429.938 89.088H434.33C434.066 90.48 433.514 91.716 432.674 92.796C431.834 93.876 430.742 94.728 429.398 95.352C428.054 95.952 426.554 96.252 424.898 96.252C422.978 96.252 421.274 95.844 419.786 95.028C418.322 94.212 417.17 93.036 416.33 91.5C415.49 89.964 415.07 88.152 415.07 86.064C415.07 84 415.49 82.2 416.33 80.664C417.17 79.128 418.322 77.952 419.786 77.136C421.274 76.32 422.978 75.912 424.898 75.912C426.842 75.912 428.534 76.32 429.974 77.136C431.438 77.928 432.554 79.032 433.322 80.448C434.114 81.84 434.51 83.4 434.51 85.128ZM430.37 85.02C430.418 83.724 430.19 82.644 429.686 81.78C429.206 80.892 428.534 80.244 427.67 79.836C426.83 79.404 425.906 79.188 424.898 79.188C423.29 79.188 421.946 79.68 420.866 80.664C419.786 81.648 419.198 83.1 419.102 85.02H430.37ZM447.724 92.436V96H445.204C443.092 96 441.484 95.496 440.38 94.488C439.3 93.456 438.76 91.752 438.76 89.376V79.656H435.916V76.164H438.76V71.232H442.9V76.164H447.688V79.656H442.9V89.448C442.9 90.576 443.104 91.356 443.512 91.788C443.944 92.22 444.688 92.436 445.744 92.436H447.724ZM453.585 67.272L453.153 74.688H450.345L449.877 67.272H453.585ZM463.43 75.912C465.758 75.912 467.618 76.512 469.01 77.712C470.426 78.888 471.29 80.472 471.602 82.464H467.714C467.546 81.384 467.078 80.52 466.31 79.872C465.566 79.2 464.57 78.864 463.322 78.864C462.29 78.864 461.486 79.116 460.91 79.62C460.358 80.1 460.082 80.76 460.082 81.6C460.082 82.224 460.286 82.728 460.694 83.112C461.102 83.496 461.606 83.796 462.206 84.012C462.83 84.228 463.706 84.468 464.834 84.732C466.322 85.068 467.522 85.416 468.434 85.776C469.37 86.136 470.162 86.712 470.81 87.504C471.482 88.272 471.818 89.328 471.818 90.672C471.818 92.328 471.182 93.672 469.91 94.704C468.662 95.736 466.97 96.252 464.834 96.252C462.362 96.252 460.358 95.676 458.822 94.524C457.31 93.372 456.398 91.764 456.086 89.7H460.082C460.202 90.78 460.682 91.656 461.522 92.328C462.362 93 463.466 93.336 464.834 93.336C465.818 93.336 466.586 93.084 467.138 92.58C467.714 92.052 468.002 91.392 468.002 90.6C468.002 89.904 467.786 89.352 467.354 88.944C466.922 88.536 466.382 88.224 465.734 88.008C465.086 87.768 464.198 87.528 463.07 87.288C461.63 86.952 460.454 86.616 459.542 86.28C458.654 85.944 457.886 85.404 457.238 84.66C456.614 83.892 456.302 82.86 456.302 81.564C456.302 79.884 456.926 78.528 458.174 77.496C459.446 76.44 461.198 75.912 463.43 75.912ZM20.916 137.128C20.916 137.8 20.868 138.388 20.772 138.892H5.508C5.58 140.932 6.144 142.444 7.2 143.428C8.256 144.412 9.564 144.904 11.124 144.904C12.492 144.904 13.644 144.556 14.58 143.86C15.54 143.164 16.128 142.24 16.344 141.088H20.736C20.472 142.48 19.92 143.716 19.08 144.796C18.24 145.876 17.148 146.728 15.804 147.352C14.46 147.952 12.96 148.252 11.304 148.252C9.384 148.252 7.68 147.844 6.192 147.028C4.728 146.212 3.576 145.036 2.736 143.5C1.896 141.964 1.476 140.152 1.476 138.064C1.476 136 1.896 134.2 2.736 132.664C3.576 131.128 4.728 129.952 6.192 129.136C7.68 128.32 9.384 127.912 11.304 127.912C13.248 127.912 14.94 128.32 16.38 129.136C17.844 129.928 18.96 131.032 19.728 132.448C20.52 133.84 20.916 135.4 20.916 137.128ZM16.776 137.02C16.824 135.724 16.596 134.644 16.092 133.78C15.612 132.892 14.94 132.244 14.076 131.836C13.236 131.404 12.312 131.188 11.304 131.188C9.696 131.188 8.352 131.68 7.272 132.664C6.192 133.648 5.604 135.1 5.508 137.02H16.776ZM35.8945 148L31.0345 140.98L26.7865 148H22.2145L28.7665 137.704L22.1425 128.164H26.7865L31.5385 135.004L35.7505 128.164H40.2865L33.7345 138.172L40.5385 148H35.8945ZM54.045 127.912C55.773 127.912 57.309 128.32 58.653 129.136C60.021 129.952 61.089 131.128 61.857 132.664C62.625 134.2 63.009 136 63.009 138.064C63.009 140.152 62.625 141.964 61.857 143.5C61.089 145.036 60.021 146.212 58.653 147.028C57.309 147.844 55.773 148.252 54.045 148.252C52.245 148.252 50.709 147.808 49.437 146.92C48.165 146.032 47.277 144.856 46.773 143.392V157.432H42.669V128.164H46.773V132.772C47.277 131.308 48.165 130.132 49.437 129.244C50.709 128.356 52.245 127.912 54.045 127.912ZM52.785 131.512C51.633 131.512 50.601 131.788 49.689 132.34C48.777 132.868 48.057 133.636 47.529 134.644C47.001 135.628 46.737 136.768 46.737 138.064C46.737 139.384 47.001 140.536 47.529 141.52C48.057 142.504 48.777 143.272 49.689 143.824C50.601 144.352 51.633 144.616 52.785 144.616C54.609 144.616 56.073 144.04 57.177 142.888C58.281 141.712 58.833 140.104 58.833 138.064C58.833 136.048 58.281 134.452 57.177 133.276C56.073 132.1 54.609 131.512 52.785 131.512ZM70.346 121.36V148H66.242V121.36H70.346ZM83.6643 127.912C85.5843 127.912 87.3123 128.32 88.8483 129.136C90.3843 129.952 91.5843 131.128 92.4483 132.664C93.3123 134.2 93.7443 136 93.7443 138.064C93.7443 140.152 93.3123 141.964 92.4483 143.5C91.5843 145.036 90.3843 146.212 88.8483 147.028C87.3123 147.844 85.5843 148.252 83.6643 148.252C81.7443 148.252 80.0163 147.844 78.4803 147.028C76.9683 146.212 75.7683 145.036 74.8803 143.5C74.0163 141.94 73.5843 140.128 73.5843 138.064C73.5843 136 74.0163 134.2 74.8803 132.664C75.7683 131.128 76.9683 129.952 78.4803 129.136C80.0163 128.32 81.7443 127.912 83.6643 127.912ZM83.6643 131.476C82.6083 131.476 81.6363 131.716 80.7483 132.196C79.8603 132.676 79.1403 133.42 78.5883 134.428C78.0603 135.412 77.7963 136.624 77.7963 138.064C77.7963 139.528 78.0603 140.752 78.5883 141.736C79.1403 142.72 79.8603 143.452 80.7483 143.932C81.6363 144.412 82.6083 144.652 83.6643 144.652C84.7203 144.652 85.6923 144.412 86.5803 143.932C87.4683 143.452 88.1763 142.72 88.7043 141.736C89.2563 140.752 89.5323 139.528 89.5323 138.064C89.5323 136.624 89.2563 135.412 88.7043 134.428C88.1763 133.42 87.4683 132.676 86.5803 132.196C85.6923 131.716 84.7203 131.476 83.6643 131.476ZM101.074 132.052C101.746 130.756 102.706 129.736 103.954 128.992C105.202 128.224 106.642 127.84 108.274 127.84V132.304H107.05C105.25 132.304 103.798 132.748 102.694 133.636C101.614 134.5 101.074 135.94 101.074 137.956V148H96.9699V128.164H101.074V132.052ZM129.061 137.128C129.061 137.8 129.013 138.388 128.917 138.892H113.653C113.725 140.932 114.289 142.444 115.345 143.428C116.401 144.412 117.709 144.904 119.269 144.904C120.637 144.904 121.789 144.556 122.725 143.86C123.685 143.164 124.273 142.24 124.489 141.088H128.881C128.617 142.48 128.065 143.716 127.225 144.796C126.385 145.876 125.293 146.728 123.949 147.352C122.605 147.952 121.105 148.252 119.449 148.252C117.529 148.252 115.825 147.844 114.337 147.028C112.873 146.212 111.721 145.036 110.881 143.5C110.041 141.964 109.621 140.152 109.621 138.064C109.621 136 110.041 134.2 110.881 132.664C111.721 131.128 112.873 129.952 114.337 129.136C115.825 128.32 117.529 127.912 119.449 127.912C121.393 127.912 123.085 128.32 124.525 129.136C125.989 129.928 127.105 131.032 127.873 132.448C128.665 133.84 129.061 135.4 129.061 137.128ZM124.921 137.02C124.969 135.724 124.741 134.644 124.237 133.78C123.757 132.892 123.085 132.244 122.221 131.836C121.381 131.404 120.457 131.188 119.449 131.188C117.841 131.188 116.497 131.68 115.417 132.664C114.337 133.648 113.749 135.1 113.653 137.02H124.921Z" fill="#DFF314"/>
<rect x="0.75" y="0.75" width="141.5" height="30.5" rx="15.25" stroke="#999999" stroke-width="1.5"/>
<path d="M21 9.07778V9C21 12.8111 17.9667 16 14.0778 16H14C17.8889 16 21 19.1111 21 23C21 19.0333 24.0333 16 28 16C24.1889 16 21 12.9667 21 9.07778Z" fill="#999999"/>
<path d="M33.888 20V11.6H36.348C37.324 11.6 38.128 11.772 38.76 12.116C39.4 12.46 39.872 12.948 40.176 13.58C40.488 14.204 40.644 14.948 40.644 15.812C40.644 16.676 40.488 17.42 40.176 18.044C39.872 18.668 39.4 19.152 38.76 19.496C38.128 19.832 37.324 20 36.348 20H33.888ZM35.088 18.992H36.3C37.076 18.992 37.688 18.864 38.136 18.608C38.592 18.352 38.916 17.988 39.108 17.516C39.308 17.036 39.408 16.468 39.408 15.812C39.408 15.148 39.308 14.576 39.108 14.096C38.916 13.616 38.592 13.248 38.136 12.992C37.688 12.736 37.076 12.608 36.3 12.608H35.088V18.992ZM42.4628 20V11.6H45.3068C45.9708 11.6 46.5148 11.712 46.9388 11.936C47.3628 12.16 47.6748 12.46 47.8748 12.836C48.0828 13.204 48.1868 13.624 48.1868 14.096C48.1868 14.544 48.0828 14.96 47.8748 15.344C47.6748 15.72 47.3588 16.024 46.9268 16.256C46.4948 16.48 45.9428 16.592 45.2708 16.592H43.6628V20H42.4628ZM46.8788 20L45.0668 16.268H46.3868L48.2708 20H46.8788ZM43.6628 15.68H45.2348C45.8268 15.68 46.2588 15.536 46.5308 15.248C46.8108 14.952 46.9508 14.576 46.9508 14.12C46.9508 13.656 46.8148 13.288 46.5428 13.016C46.2708 12.744 45.8308 12.608 45.2228 12.608H43.6628V15.68ZM53.8316 20.144C53.0396 20.144 52.3396 19.964 51.7316 19.604C51.1316 19.236 50.6596 18.728 50.3156 18.08C49.9796 17.424 49.8116 16.664 49.8116 15.8C49.8116 14.944 49.9796 14.192 50.3156 13.544C50.6596 12.888 51.1316 12.376 51.7316 12.008C52.3396 11.64 53.0396 11.456 53.8316 11.456C54.6396 11.456 55.3436 11.64 55.9436 12.008C56.5516 12.376 57.0236 12.888 57.3596 13.544C57.6956 14.192 57.8636 14.944 57.8636 15.8C57.8636 16.664 57.6956 17.424 57.3596 18.08C57.0236 18.728 56.5516 19.236 55.9436 19.604C55.3436 19.964 54.6396 20.144 53.8316 20.144ZM53.8316 19.076C54.3996 19.076 54.8916 18.944 55.3076 18.68C55.7316 18.416 56.0596 18.04 56.2916 17.552C56.5236 17.064 56.6396 16.48 56.6396 15.8C56.6396 15.12 56.5236 14.536 56.2916 14.048C56.0596 13.56 55.7316 13.188 55.3076 12.932C54.8916 12.668 54.3996 12.536 53.8316 12.536C53.2716 12.536 52.7796 12.668 52.3556 12.932C51.9396 13.188 51.6156 13.56 51.3836 14.048C51.1516 14.536 51.0356 15.12 51.0356 15.8C51.0356 16.48 51.1516 17.064 51.3836 17.552C51.6156 18.04 51.9396 18.416 52.3556 18.68C52.7796 18.944 53.2716 19.076 53.8316 19.076ZM59.6711 20V11.6H62.5271C63.1991 11.6 63.7511 11.712 64.1831 11.936C64.6231 12.16 64.9471 12.464 65.1551 12.848C65.3631 13.224 65.4671 13.656 65.4671 14.144C65.4671 14.608 65.3631 15.032 65.1551 15.416C64.9471 15.8 64.6271 16.108 64.1951 16.34C63.7631 16.564 63.2071 16.676 62.5271 16.676H60.8711V20H59.6711ZM60.8711 15.68H62.4791C63.1191 15.68 63.5711 15.54 63.8351 15.26C64.1071 14.98 64.2431 14.608 64.2431 14.144C64.2431 13.656 64.1071 13.276 63.8351 13.004C63.5711 12.732 63.1191 12.596 62.4791 12.596H60.8711V15.68ZM70.5982 20V11.6H72.0142L74.8102 17.288L77.5942 11.6H79.0102V20H77.8102V13.712L75.2662 18.848H74.3422L71.7982 13.736V20H70.5982ZM81.1535 20V11.6H86.4575V12.584H82.3535V15.272H86.0975V16.232H82.3535V19.016H86.4575V20H81.1535ZM91.2941 20L94.3901 11.6H95.6981L98.7701 20H97.4981L95.0261 13.04L92.5541 20H91.2941ZM92.6981 17.924L93.0221 16.964H96.9821L97.3061 17.924H92.6981ZM103.804 20V11.6H105.004V19.052H108.844V20H103.804ZM110.633 20V11.6H111.833V20H110.633ZM113.97 20V11.6H115.17L119.454 18.044V11.6H120.654V20H119.454L115.17 13.556V20H113.97ZM122.791 20V11.6H128.095V12.584H123.991V15.272H127.735V16.232H123.991V19.016H128.095V20H122.791Z" fill="#999999"/>
</svg>
