<svg width="590" height="73" viewBox="0 0 590 73" fill="none" xmlns="http://www.w3.org/2000/svg">
<path d="M69.184 60V48.8H70.528V53.744H76.336V48.8H77.68V60H76.336V54.848H70.528V60H69.184ZM83.5314 60.192C82.774 60.192 82.102 60.0213 81.5154 59.68C80.9287 59.328 80.4647 58.8427 80.1234 58.224C79.7927 57.6053 79.6274 56.8747 79.6274 56.032C79.6274 55.2 79.7927 54.4747 80.1234 53.856C80.454 53.2267 80.9127 52.7413 81.4994 52.4C82.0967 52.048 82.7847 51.872 83.5634 51.872C84.3314 51.872 84.9927 52.048 85.5474 52.4C86.1127 52.7413 86.5447 53.1947 86.8434 53.76C87.142 54.3253 87.2914 54.9333 87.2914 55.584C87.2914 55.7013 87.286 55.8187 87.2754 55.936C87.2754 56.0533 87.2754 56.1867 87.2754 56.336H80.9554C80.9874 56.944 81.126 57.4507 81.3714 57.856C81.6274 58.2507 81.942 58.5493 82.3154 58.752C82.6994 58.9547 83.1047 59.056 83.5314 59.056C84.086 59.056 84.55 58.928 84.9234 58.672C85.2967 58.416 85.5687 58.0693 85.7394 57.632H87.0674C86.854 58.368 86.4434 58.9813 85.8354 59.472C85.238 59.952 84.47 60.192 83.5314 60.192ZM83.5314 53.008C82.8914 53.008 82.3207 53.2053 81.8194 53.6C81.3287 53.984 81.046 54.5493 80.9714 55.296H85.9634C85.9314 54.5813 85.686 54.0213 85.2274 53.616C84.7687 53.2107 84.2034 53.008 83.5314 53.008ZM89.0728 60V48.48H90.4168V60H89.0728ZM92.6196 60V48.48H93.9636V60H92.6196ZM99.7825 60.192C99.0358 60.192 98.3638 60.0213 97.7665 59.68C97.1692 59.3387 96.6945 58.8587 96.3425 58.24C96.0012 57.6107 95.8305 56.8747 95.8305 56.032C95.8305 55.1893 96.0065 54.4587 96.3585 53.84C96.7105 53.2107 97.1852 52.7253 97.7825 52.384C98.3905 52.0427 99.0678 51.872 99.8145 51.872C100.561 51.872 101.233 52.0427 101.831 52.384C102.428 52.7253 102.897 53.2107 103.239 53.84C103.591 54.4587 103.767 55.1893 103.767 56.032C103.767 56.8747 103.591 57.6107 103.239 58.24C102.887 58.8587 102.407 59.3387 101.799 59.68C101.201 60.0213 100.529 60.192 99.7825 60.192ZM99.7825 59.04C100.241 59.04 100.668 58.928 101.063 58.704C101.457 58.48 101.777 58.144 102.023 57.696C102.268 57.248 102.391 56.6933 102.391 56.032C102.391 55.3707 102.268 54.816 102.023 54.368C101.788 53.92 101.473 53.584 101.079 53.36C100.684 53.136 100.263 53.024 99.8145 53.024C99.3558 53.024 98.9292 53.136 98.5345 53.36C98.1398 53.584 97.8198 53.92 97.5745 54.368C97.3292 54.816 97.2065 55.3707 97.2065 56.032C97.2065 56.6933 97.3292 57.248 97.5745 57.696C97.8198 58.144 98.1345 58.48 98.5185 58.704C98.9132 58.928 99.3345 59.04 99.7825 59.04ZM109.95 60V48.8H111.518L115.55 56.608L119.55 48.8H121.134V60H119.79V51.2L116.046 58.4H115.038L111.294 51.216V60H109.95ZM126.985 60.192C126.227 60.192 125.555 60.0213 124.969 59.68C124.382 59.328 123.918 58.8427 123.577 58.224C123.246 57.6053 123.081 56.8747 123.081 56.032C123.081 55.2 123.246 54.4747 123.577 53.856C123.907 53.2267 124.366 52.7413 124.953 52.4C125.55 52.048 126.238 51.872 127.016 51.872C127.785 51.872 128.446 52.048 129.001 52.4C129.566 52.7413 129.998 53.1947 130.297 53.76C130.595 54.3253 130.745 54.9333 130.745 55.584C130.745 55.7013 130.739 55.8187 130.729 55.936C130.729 56.0533 130.729 56.1867 130.729 56.336H124.409C124.441 56.944 124.579 57.4507 124.825 57.856C125.081 58.2507 125.395 58.5493 125.769 58.752C126.153 58.9547 126.558 59.056 126.985 59.056C127.539 59.056 128.003 58.928 128.377 58.672C128.75 58.416 129.022 58.0693 129.193 57.632H130.521C130.307 58.368 129.897 58.9813 129.289 59.472C128.691 59.952 127.923 60.192 126.985 60.192ZM126.985 53.008C126.345 53.008 125.774 53.2053 125.273 53.6C124.782 53.984 124.499 54.5493 124.424 55.296H129.417C129.385 54.5813 129.139 54.0213 128.681 53.616C128.222 53.2107 127.657 53.008 126.985 53.008ZM132.526 60V52.064H133.742L133.854 53.584C134.099 53.0613 134.473 52.6453 134.974 52.336C135.475 52.0267 136.094 51.872 136.83 51.872V53.28H136.462C135.993 53.28 135.561 53.3653 135.166 53.536C134.771 53.696 134.457 53.9733 134.222 54.368C133.987 54.7627 133.87 55.3067 133.87 56V60H132.526ZM141.287 57.504C140.839 57.504 140.428 57.4453 140.055 57.328L139.255 58.08C139.372 58.1653 139.516 58.24 139.687 58.304C139.868 58.3573 140.124 58.4107 140.455 58.464C140.786 58.5067 141.25 58.5547 141.847 58.608C142.914 58.6827 143.676 58.928 144.135 59.344C144.594 59.76 144.823 60.304 144.823 60.976C144.823 61.4347 144.695 61.872 144.439 62.288C144.194 62.704 143.81 63.0453 143.287 63.312C142.775 63.5787 142.114 63.712 141.303 63.712C140.588 63.712 139.954 63.616 139.399 63.424C138.844 63.2427 138.412 62.96 138.103 62.576C137.794 62.2027 137.639 61.728 137.639 61.152C137.639 60.8533 137.719 60.528 137.879 60.176C138.039 59.8347 138.338 59.5093 138.775 59.2C138.54 59.104 138.338 59.0027 138.167 58.896C138.007 58.7787 137.858 58.6507 137.719 58.512V58.144L139.079 56.8C138.45 56.2667 138.135 55.5627 138.135 54.688C138.135 54.1653 138.258 53.6907 138.503 53.264C138.748 52.8373 139.106 52.5013 139.575 52.256C140.044 52 140.615 51.872 141.287 51.872C141.746 51.872 142.162 51.936 142.535 52.064H145.463V53.072L143.975 53.136C144.284 53.584 144.439 54.1013 144.439 54.688C144.439 55.2107 144.311 55.6853 144.055 56.112C143.81 56.5387 143.452 56.88 142.983 57.136C142.524 57.3813 141.959 57.504 141.287 57.504ZM141.287 56.4C141.852 56.4 142.3 56.256 142.631 55.968C142.972 55.6693 143.143 55.2427 143.143 54.688C143.143 54.144 142.972 53.728 142.631 53.44C142.3 53.1413 141.852 52.992 141.287 52.992C140.711 52.992 140.252 53.1413 139.911 53.44C139.58 53.728 139.415 54.144 139.415 54.688C139.415 55.2427 139.58 55.6693 139.911 55.968C140.252 56.256 140.711 56.4 141.287 56.4ZM138.951 61.024C138.951 61.5573 139.175 61.952 139.623 62.208C140.071 62.4747 140.631 62.608 141.303 62.608C141.964 62.608 142.492 62.464 142.887 62.176C143.292 61.888 143.495 61.504 143.495 61.024C143.495 60.6827 143.356 60.384 143.079 60.128C142.802 59.8827 142.29 59.7387 141.543 59.696C140.956 59.6533 140.45 59.6 140.023 59.536C139.586 59.7707 139.298 60.0213 139.159 60.288C139.02 60.5653 138.951 60.8107 138.951 61.024ZM150.235 60.192C149.477 60.192 148.805 60.0213 148.219 59.68C147.632 59.328 147.168 58.8427 146.827 58.224C146.496 57.6053 146.331 56.8747 146.331 56.032C146.331 55.2 146.496 54.4747 146.827 53.856C147.157 53.2267 147.616 52.7413 148.203 52.4C148.8 52.048 149.488 51.872 150.266 51.872C151.035 51.872 151.696 52.048 152.251 52.4C152.816 52.7413 153.248 53.1947 153.547 53.76C153.845 54.3253 153.995 54.9333 153.995 55.584C153.995 55.7013 153.989 55.8187 153.979 55.936C153.979 56.0533 153.979 56.1867 153.979 56.336H147.659C147.691 56.944 147.829 57.4507 148.075 57.856C148.331 58.2507 148.645 58.5493 149.019 58.752C149.403 58.9547 149.808 59.056 150.235 59.056C150.789 59.056 151.253 58.928 151.627 58.672C152 58.416 152.272 58.0693 152.443 57.632H153.771C153.557 58.368 153.147 58.9813 152.539 59.472C151.941 59.952 151.173 60.192 150.235 60.192ZM150.235 53.008C149.595 53.008 149.024 53.2053 148.523 53.6C148.032 53.984 147.749 54.5493 147.674 55.296H152.667C152.635 54.5813 152.389 54.0213 151.931 53.616C151.472 53.2107 150.907 53.008 150.235 53.008ZM154.704 61.904L155.632 58.368H157.024L155.632 61.904H154.704ZM166.502 60.192C165.745 60.192 165.062 60.0213 164.454 59.68C163.857 59.328 163.382 58.8427 163.03 58.224C162.689 57.5947 162.518 56.864 162.518 56.032C162.518 55.2 162.689 54.4747 163.03 53.856C163.382 53.2267 163.857 52.7413 164.454 52.4C165.062 52.048 165.745 51.872 166.502 51.872C167.441 51.872 168.23 52.1173 168.87 52.608C169.521 53.0987 169.931 53.7547 170.102 54.576H168.726C168.619 54.0853 168.358 53.7067 167.942 53.44C167.526 53.1627 167.041 53.024 166.486 53.024C166.038 53.024 165.617 53.136 165.222 53.36C164.827 53.584 164.507 53.92 164.262 54.368C164.017 54.816 163.894 55.3707 163.894 56.032C163.894 56.6933 164.017 57.248 164.262 57.696C164.507 58.144 164.827 58.4853 165.222 58.72C165.617 58.944 166.038 59.056 166.486 59.056C167.041 59.056 167.526 58.9227 167.942 58.656C168.358 58.3787 168.619 57.9893 168.726 57.488H170.102C169.942 58.288 169.537 58.9387 168.886 59.44C168.235 59.9413 167.441 60.192 166.502 60.192ZM174.619 60.192C173.958 60.192 173.408 60.08 172.971 59.856C172.534 59.632 172.208 59.3333 171.995 58.96C171.782 58.5867 171.675 58.1813 171.675 57.744C171.675 56.9333 171.984 56.3093 172.603 55.872C173.222 55.4347 174.064 55.216 175.131 55.216H177.275V55.12C177.275 54.4267 177.094 53.904 176.731 53.552C176.368 53.1893 175.883 53.008 175.275 53.008C174.752 53.008 174.299 53.1413 173.915 53.408C173.542 53.664 173.307 54.0427 173.211 54.544H171.835C171.888 53.968 172.08 53.4827 172.411 53.088C172.752 52.6933 173.174 52.3947 173.675 52.192C174.176 51.9787 174.71 51.872 175.275 51.872C176.384 51.872 177.216 52.1707 177.771 52.768C178.336 53.3547 178.619 54.1387 178.619 55.12V60H177.419L177.339 58.576C177.115 59.024 176.784 59.408 176.347 59.728C175.92 60.0373 175.344 60.192 174.619 60.192ZM174.827 59.056C175.339 59.056 175.776 58.9227 176.139 58.656C176.512 58.3893 176.795 58.0427 176.987 57.616C177.179 57.1893 177.275 56.7413 177.275 56.272V56.256H175.243C174.454 56.256 173.894 56.3947 173.563 56.672C173.243 56.9387 173.083 57.2747 173.083 57.68C173.083 58.096 173.232 58.432 173.531 58.688C173.84 58.9333 174.272 59.056 174.827 59.056ZM180.635 60V52.064H181.851L181.931 53.488C182.187 52.9867 182.555 52.592 183.035 52.304C183.515 52.016 184.059 51.872 184.667 51.872C185.606 51.872 186.353 52.16 186.907 52.736C187.473 53.3013 187.755 54.176 187.755 55.36V60H186.411V55.504C186.411 53.8507 185.729 53.024 184.363 53.024C183.681 53.024 183.11 53.2747 182.651 53.776C182.203 54.2667 181.979 54.9707 181.979 55.888V60H180.635ZM194.89 63.52L196.858 59.232H196.394L193.242 52.064H194.698L197.322 58.24L200.106 52.064H201.498L196.298 63.52H194.89ZM205.783 60.192C205.036 60.192 204.364 60.0213 203.767 59.68C203.169 59.3387 202.695 58.8587 202.343 58.24C202.001 57.6107 201.831 56.8747 201.831 56.032C201.831 55.1893 202.007 54.4587 202.359 53.84C202.711 53.2107 203.185 52.7253 203.783 52.384C204.391 52.0427 205.068 51.872 205.815 51.872C206.561 51.872 207.233 52.0427 207.831 52.384C208.428 52.7253 208.897 53.2107 209.239 53.84C209.591 54.4587 209.767 55.1893 209.767 56.032C209.767 56.8747 209.591 57.6107 209.239 58.24C208.887 58.8587 208.407 59.3387 207.799 59.68C207.201 60.0213 206.529 60.192 205.783 60.192ZM205.783 59.04C206.241 59.04 206.668 58.928 207.063 58.704C207.457 58.48 207.777 58.144 208.023 57.696C208.268 57.248 208.391 56.6933 208.391 56.032C208.391 55.3707 208.268 54.816 208.023 54.368C207.788 53.92 207.473 53.584 207.079 53.36C206.684 53.136 206.263 53.024 205.815 53.024C205.356 53.024 204.929 53.136 204.535 53.36C204.14 53.584 203.82 53.92 203.575 54.368C203.329 54.816 203.207 55.3707 203.207 56.032C203.207 56.6933 203.329 57.248 203.575 57.696C203.82 58.144 204.135 58.48 204.519 58.704C204.913 58.928 205.335 59.04 205.783 59.04ZM214.531 60.192C213.593 60.192 212.846 59.9093 212.291 59.344C211.737 58.768 211.459 57.888 211.459 56.704V52.064H212.803V56.56C212.803 58.2133 213.481 59.04 214.835 59.04C215.529 59.04 216.099 58.7947 216.547 58.304C217.006 57.8027 217.235 57.0933 217.235 56.176V52.064H218.579V60H217.363L217.267 58.576C217.022 59.0773 216.654 59.472 216.163 59.76C215.683 60.048 215.139 60.192 214.531 60.192ZM225.026 60V48.48H226.37V53.424C226.637 52.9333 227.015 52.5547 227.506 52.288C227.997 52.0107 228.53 51.872 229.106 51.872C230.023 51.872 230.759 52.16 231.314 52.736C231.869 53.3013 232.146 54.176 232.146 55.36V60H230.818V55.504C230.818 53.8507 230.151 53.024 228.818 53.024C228.125 53.024 227.543 53.2747 227.074 53.776C226.605 54.2667 226.37 54.9707 226.37 55.888V60H225.026ZM237.75 60.192C236.993 60.192 236.321 60.0213 235.734 59.68C235.147 59.328 234.683 58.8427 234.342 58.224C234.011 57.6053 233.846 56.8747 233.846 56.032C233.846 55.2 234.011 54.4747 234.342 53.856C234.673 53.2267 235.131 52.7413 235.718 52.4C236.315 52.048 237.003 51.872 237.782 51.872C238.55 51.872 239.211 52.048 239.766 52.4C240.331 52.7413 240.763 53.1947 241.062 53.76C241.361 54.3253 241.51 54.9333 241.51 55.584C241.51 55.7013 241.505 55.8187 241.494 55.936C241.494 56.0533 241.494 56.1867 241.494 56.336H235.174C235.206 56.944 235.345 57.4507 235.59 57.856C235.846 58.2507 236.161 58.5493 236.534 58.752C236.918 58.9547 237.323 59.056 237.75 59.056C238.305 59.056 238.769 58.928 239.142 58.672C239.515 58.416 239.787 58.0693 239.958 57.632H241.286C241.073 58.368 240.662 58.9813 240.054 59.472C239.457 59.952 238.689 60.192 237.75 60.192ZM237.75 53.008C237.11 53.008 236.539 53.2053 236.038 53.6C235.547 53.984 235.265 54.5493 235.19 55.296H240.182C240.15 54.5813 239.905 54.0213 239.446 53.616C238.987 53.2107 238.422 53.008 237.75 53.008ZM243.292 60V48.48H244.636V60H243.292ZM246.838 63.52V52.064H248.054L248.182 53.376C248.438 52.992 248.801 52.6453 249.27 52.336C249.75 52.0267 250.358 51.872 251.094 51.872C251.884 51.872 252.572 52.0533 253.158 52.416C253.745 52.7787 254.198 53.2747 254.518 53.904C254.849 54.5333 255.014 55.248 255.014 56.048C255.014 56.848 254.849 57.5627 254.518 58.192C254.198 58.8107 253.74 59.3013 253.142 59.664C252.556 60.016 251.868 60.192 251.078 60.192C250.428 60.192 249.846 60.0587 249.334 59.792C248.833 59.5253 248.449 59.152 248.182 58.672V63.52H246.838ZM250.934 59.024C251.468 59.024 251.937 58.9013 252.342 58.656C252.748 58.4 253.068 58.048 253.302 57.6C253.537 57.152 253.654 56.6293 253.654 56.032C253.654 55.4347 253.537 54.912 253.302 54.464C253.068 54.016 252.748 53.6693 252.342 53.424C251.937 53.168 251.468 53.04 250.934 53.04C250.401 53.04 249.932 53.168 249.526 53.424C249.121 53.6693 248.801 54.016 248.566 54.464C248.332 54.912 248.214 55.4347 248.214 56.032C248.214 56.6293 248.332 57.152 248.566 57.6C248.801 58.048 249.121 58.4 249.526 58.656C249.932 58.9013 250.401 59.024 250.934 59.024ZM261.12 60V52.064H262.336L262.432 53.216C262.688 52.7893 263.029 52.4587 263.456 52.224C263.882 51.9893 264.362 51.872 264.896 51.872C265.525 51.872 266.064 52 266.512 52.256C266.97 52.512 267.322 52.9013 267.568 53.424C267.845 52.944 268.224 52.5653 268.704 52.288C269.194 52.0107 269.722 51.872 270.288 51.872C271.237 51.872 271.994 52.16 272.56 52.736C273.125 53.3013 273.408 54.176 273.408 55.36V60H272.08V55.504C272.08 54.6827 271.914 54.064 271.584 53.648C271.253 53.232 270.778 53.024 270.16 53.024C269.52 53.024 268.986 53.2747 268.56 53.776C268.144 54.2667 267.936 54.9707 267.936 55.888V60H266.592V55.504C266.592 54.6827 266.426 54.064 266.096 53.648C265.765 53.232 265.29 53.024 264.672 53.024C264.042 53.024 263.514 53.2747 263.088 53.776C262.672 54.2667 262.464 54.9707 262.464 55.888V60H261.12ZM279 60.192C278.243 60.192 277.571 60.0213 276.984 59.68C276.397 59.328 275.933 58.8427 275.592 58.224C275.261 57.6053 275.096 56.8747 275.096 56.032C275.096 55.2 275.261 54.4747 275.592 53.856C275.923 53.2267 276.381 52.7413 276.968 52.4C277.565 52.048 278.253 51.872 279.032 51.872C279.8 51.872 280.461 52.048 281.016 52.4C281.581 52.7413 282.013 53.1947 282.312 53.76C282.611 54.3253 282.76 54.9333 282.76 55.584C282.76 55.7013 282.755 55.8187 282.744 55.936C282.744 56.0533 282.744 56.1867 282.744 56.336H276.424C276.456 56.944 276.595 57.4507 276.84 57.856C277.096 58.2507 277.411 58.5493 277.784 58.752C278.168 58.9547 278.573 59.056 279 59.056C279.555 59.056 280.019 58.928 280.392 58.672C280.765 58.416 281.037 58.0693 281.208 57.632H282.536C282.323 58.368 281.912 58.9813 281.304 59.472C280.707 59.952 279.939 60.192 279 60.192ZM279 53.008C278.36 53.008 277.789 53.2053 277.288 53.6C276.797 53.984 276.515 54.5493 276.44 55.296H281.432C281.4 54.5813 281.155 54.0213 280.696 53.616C280.237 53.2107 279.672 53.008 279 53.008ZM290.376 60L288.056 52.064H289.4L291.08 58.288L292.936 52.064H294.456L296.328 58.288L297.992 52.064H299.352L297.032 60H295.656L293.704 53.456L291.752 60H290.376ZM301.654 50.304C301.388 50.304 301.164 50.2187 300.982 50.048C300.812 49.8667 300.726 49.6427 300.726 49.376C300.726 49.12 300.812 48.9067 300.982 48.736C301.164 48.5653 301.388 48.48 301.654 48.48C301.91 48.48 302.129 48.5653 302.31 48.736C302.492 48.9067 302.582 49.12 302.582 49.376C302.582 49.6427 302.492 49.8667 302.31 50.048C302.129 50.2187 301.91 50.304 301.654 50.304ZM300.982 60V52.064H302.326V60H300.982ZM307.803 60C307.077 60 306.507 59.824 306.091 59.472C305.675 59.12 305.467 58.4853 305.467 57.568V53.2H304.09V52.064H305.467L305.643 50.16H306.811V52.064H309.147V53.2H306.811V57.568C306.811 58.0693 306.912 58.4107 307.115 58.592C307.317 58.7627 307.675 58.848 308.187 58.848H309.019V60H307.803ZM310.854 60V48.48H312.198V53.424C312.465 52.9333 312.843 52.5547 313.334 52.288C313.825 52.0107 314.358 51.872 314.934 51.872C315.851 51.872 316.587 52.16 317.142 52.736C317.697 53.3013 317.974 54.176 317.974 55.36V60H316.646V55.504C316.646 53.8507 315.979 53.024 314.646 53.024C313.953 53.024 313.371 53.2747 312.902 53.776C312.433 54.2667 312.198 54.9707 312.198 55.888V60H310.854ZM324.709 60.08C324.442 60.08 324.218 59.9947 324.037 59.824C323.866 59.6427 323.781 59.424 323.781 59.168C323.781 58.912 323.866 58.6987 324.037 58.528C324.218 58.3467 324.442 58.256 324.709 58.256C324.965 58.256 325.178 58.3467 325.349 58.528C325.53 58.6987 325.621 58.912 325.621 59.168C325.621 59.424 325.53 59.6427 325.349 59.824C325.178 59.9947 324.965 60.08 324.709 60.08ZM327.834 60.08C327.567 60.08 327.343 59.9947 327.162 59.824C326.991 59.6427 326.906 59.424 326.906 59.168C326.906 58.912 326.991 58.6987 327.162 58.528C327.343 58.3467 327.567 58.256 327.834 58.256C328.09 58.256 328.303 58.3467 328.474 58.528C328.655 58.6987 328.746 58.912 328.746 59.168C328.746 59.424 328.655 59.6427 328.474 59.824C328.303 59.9947 328.09 60.08 327.834 60.08ZM330.959 60.08C330.692 60.08 330.468 59.9947 330.287 59.824C330.116 59.6427 330.031 59.424 330.031 59.168C330.031 58.912 330.116 58.6987 330.287 58.528C330.468 58.3467 330.692 58.256 330.959 58.256C331.215 58.256 331.428 58.3467 331.599 58.528C331.78 58.6987 331.871 58.912 331.871 59.168C331.871 59.424 331.78 59.6427 331.599 59.824C331.428 59.9947 331.215 60.08 330.959 60.08Z" fill="#999999"/>
<line opacity="0.6" x1="68" y1="72.25" x2="590" y2="72.25" stroke="#999999" stroke-width="1.5"/>
<path d="M72.482 18V13.356L68.306 5.4H70.466L73.436 11.484L76.388 5.4H78.53L74.39 13.356V18H72.482ZM82.4481 18.216C81.5961 18.216 80.8281 18.024 80.1441 17.64C79.4721 17.244 78.9381 16.698 78.5421 16.002C78.1461 15.294 77.9481 14.472 77.9481 13.536C77.9481 12.6 78.1461 11.784 78.5421 11.088C78.9501 10.38 79.4961 9.834 80.1801 9.45C80.8641 9.054 81.6261 8.856 82.4661 8.856C83.3181 8.856 84.0801 9.054 84.7521 9.45C85.4361 9.834 85.9761 10.38 86.3721 11.088C86.7801 11.784 86.9841 12.6 86.9841 13.536C86.9841 14.472 86.7801 15.294 86.3721 16.002C85.9761 16.698 85.4361 17.244 84.7521 17.64C84.0681 18.024 83.3001 18.216 82.4481 18.216ZM82.4481 16.578C82.9041 16.578 83.3241 16.464 83.7081 16.236C84.1041 16.008 84.4221 15.672 84.6621 15.228C84.9021 14.772 85.0221 14.208 85.0221 13.536C85.0221 12.864 84.9021 12.306 84.6621 11.862C84.4341 11.406 84.1221 11.064 83.7261 10.836C83.3421 10.608 82.9221 10.494 82.4661 10.494C82.0101 10.494 81.5841 10.608 81.1881 10.836C80.8041 11.064 80.4921 11.406 80.2521 11.862C80.0121 12.306 79.8921 12.864 79.8921 13.536C79.8921 14.208 80.0121 14.772 80.2521 15.228C80.4921 15.672 80.8041 16.008 81.1881 16.236C81.5721 16.464 81.9921 16.578 82.4481 16.578ZM92.1615 18.216C91.0815 18.216 90.2295 17.88 89.6055 17.208C88.9935 16.536 88.6875 15.534 88.6875 14.202V9.072H90.5955V14.004C90.5955 15.732 91.3035 16.596 92.7195 16.596C93.4275 16.596 94.0095 16.344 94.4655 15.84C94.9215 15.336 95.1495 14.616 95.1495 13.68V9.072H97.0575V18H95.3655L95.2215 16.434C94.9455 16.986 94.5375 17.424 93.9975 17.748C93.4695 18.06 92.8575 18.216 92.1615 18.216ZM99.3047 18V9.072H101.015L101.177 10.764C101.489 10.176 101.921 9.714 102.473 9.378C103.037 9.03 103.715 8.856 104.507 8.856V10.854H103.985C103.457 10.854 102.983 10.944 102.563 11.124C102.155 11.292 101.825 11.586 101.573 12.006C101.333 12.414 101.213 12.984 101.213 13.716V18H99.3047ZM110.318 18V9.072H112.01L112.172 10.332C112.46 9.876 112.838 9.516 113.306 9.252C113.786 8.988 114.338 8.856 114.962 8.856C116.378 8.856 117.362 9.414 117.914 10.53C118.238 10.014 118.67 9.606 119.21 9.306C119.762 9.006 120.356 8.856 120.992 8.856C122.108 8.856 122.984 9.192 123.62 9.864C124.256 10.536 124.574 11.538 124.574 12.87V18H122.666V13.068C122.666 11.34 122.006 10.476 120.686 10.476C120.014 10.476 119.462 10.728 119.03 11.232C118.61 11.736 118.4 12.456 118.4 13.392V18H116.492V13.068C116.492 11.34 115.826 10.476 114.494 10.476C113.834 10.476 113.288 10.728 112.856 11.232C112.436 11.736 112.226 12.456 112.226 13.392V18H110.318ZM130.802 18.216C129.926 18.216 129.146 18.024 128.462 17.64C127.79 17.244 127.262 16.698 126.878 16.002C126.494 15.306 126.302 14.496 126.302 13.572C126.302 12.636 126.488 11.814 126.86 11.106C127.244 10.398 127.772 9.846 128.444 9.45C129.128 9.054 129.92 8.856 130.82 8.856C131.696 8.856 132.458 9.054 133.106 9.45C133.754 9.834 134.258 10.35 134.618 10.998C134.978 11.646 135.158 12.36 135.158 13.14C135.158 13.26 135.152 13.392 135.14 13.536C135.14 13.668 135.134 13.818 135.122 13.986H128.174C128.234 14.85 128.516 15.51 129.02 15.966C129.536 16.41 130.13 16.632 130.802 16.632C131.342 16.632 131.792 16.512 132.152 16.272C132.524 16.02 132.8 15.684 132.98 15.264H134.888C134.648 16.104 134.168 16.806 133.448 17.37C132.74 17.934 131.858 18.216 130.802 18.216ZM130.802 10.422C130.166 10.422 129.602 10.614 129.11 10.998C128.618 11.37 128.318 11.934 128.21 12.69H133.25C133.214 11.994 132.968 11.442 132.512 11.034C132.056 10.626 131.486 10.422 130.802 10.422ZM140.522 18.216C139.394 18.216 138.464 17.94 137.732 17.388C137 16.836 136.58 16.104 136.472 15.192H138.398C138.494 15.6 138.722 15.954 139.082 16.254C139.442 16.542 139.916 16.686 140.504 16.686C141.08 16.686 141.5 16.566 141.764 16.326C142.028 16.086 142.16 15.81 142.16 15.498C142.16 15.042 141.974 14.736 141.602 14.58C141.242 14.412 140.738 14.262 140.09 14.13C139.586 14.022 139.082 13.878 138.578 13.698C138.086 13.518 137.672 13.266 137.336 12.942C137.012 12.606 136.85 12.156 136.85 11.592C136.85 10.812 137.15 10.164 137.75 9.648C138.35 9.12 139.19 8.856 140.27 8.856C141.266 8.856 142.07 9.096 142.682 9.576C143.306 10.056 143.672 10.734 143.78 11.61H141.944C141.884 11.226 141.704 10.926 141.404 10.71C141.116 10.494 140.726 10.386 140.234 10.386C139.754 10.386 139.382 10.488 139.118 10.692C138.854 10.884 138.722 11.136 138.722 11.448C138.722 11.76 138.902 12.006 139.262 12.186C139.634 12.366 140.12 12.528 140.72 12.672C141.32 12.804 141.872 12.96 142.376 13.14C142.892 13.308 143.306 13.56 143.618 13.896C143.93 14.232 144.086 14.724 144.086 15.372C144.098 16.188 143.78 16.866 143.132 17.406C142.496 17.946 141.626 18.216 140.522 18.216ZM149.553 18.216C148.425 18.216 147.495 17.94 146.763 17.388C146.031 16.836 145.611 16.104 145.503 15.192H147.429C147.525 15.6 147.753 15.954 148.113 16.254C148.473 16.542 148.947 16.686 149.535 16.686C150.111 16.686 150.531 16.566 150.795 16.326C151.059 16.086 151.191 15.81 151.191 15.498C151.191 15.042 151.005 14.736 150.633 14.58C150.273 14.412 149.769 14.262 149.121 14.13C148.617 14.022 148.113 13.878 147.609 13.698C147.117 13.518 146.703 13.266 146.367 12.942C146.043 12.606 145.881 12.156 145.881 11.592C145.881 10.812 146.181 10.164 146.781 9.648C147.381 9.12 148.221 8.856 149.301 8.856C150.297 8.856 151.101 9.096 151.713 9.576C152.337 10.056 152.703 10.734 152.811 11.61H150.975C150.915 11.226 150.735 10.926 150.435 10.71C150.147 10.494 149.757 10.386 149.265 10.386C148.785 10.386 148.413 10.488 148.149 10.692C147.885 10.884 147.753 11.136 147.753 11.448C147.753 11.76 147.933 12.006 148.293 12.186C148.665 12.366 149.151 12.528 149.751 12.672C150.351 12.804 150.903 12.96 151.407 13.14C151.923 13.308 152.337 13.56 152.649 13.896C152.961 14.232 153.117 14.724 153.117 15.372C153.129 16.188 152.811 16.866 152.163 17.406C151.527 17.946 150.657 18.216 149.553 18.216ZM158.044 18.216C157.288 18.216 156.664 18.09 156.172 17.838C155.68 17.586 155.314 17.256 155.074 16.848C154.834 16.428 154.714 15.972 154.714 15.48C154.714 14.616 155.05 13.932 155.722 13.428C156.394 12.924 157.354 12.672 158.602 12.672H160.942V12.51C160.942 11.814 160.75 11.292 160.366 10.944C159.994 10.596 159.508 10.422 158.908 10.422C158.38 10.422 157.918 10.554 157.522 10.818C157.138 11.07 156.904 11.448 156.82 11.952H154.912C154.972 11.304 155.188 10.752 155.56 10.296C155.944 9.828 156.424 9.474 157 9.234C157.588 8.982 158.23 8.856 158.926 8.856C160.174 8.856 161.14 9.186 161.824 9.846C162.508 10.494 162.85 11.382 162.85 12.51V18H161.194L161.032 16.47C160.78 16.962 160.414 17.376 159.934 17.712C159.454 18.048 158.824 18.216 158.044 18.216ZM158.422 16.668C158.938 16.668 159.37 16.548 159.718 16.308C160.078 16.056 160.354 15.726 160.546 15.318C160.75 14.91 160.876 14.46 160.924 13.968H158.8C158.044 13.968 157.504 14.1 157.18 14.364C156.868 14.628 156.712 14.958 156.712 15.354C156.712 15.762 156.862 16.086 157.162 16.326C157.474 16.554 157.894 16.668 158.422 16.668ZM168.548 15.264C168.08 15.264 167.648 15.21 167.252 15.102L166.478 15.858C166.61 15.942 166.772 16.014 166.964 16.074C167.156 16.134 167.426 16.188 167.774 16.236C168.122 16.284 168.596 16.332 169.196 16.38C170.384 16.488 171.242 16.776 171.77 17.244C172.298 17.7 172.562 18.312 172.562 19.08C172.562 19.608 172.418 20.106 172.13 20.574C171.854 21.054 171.416 21.438 170.816 21.726C170.228 22.026 169.472 22.176 168.548 22.176C167.3 22.176 166.286 21.936 165.506 21.456C164.738 20.988 164.354 20.274 164.354 19.314C164.354 18.942 164.45 18.57 164.642 18.198C164.846 17.838 165.164 17.496 165.596 17.172C165.344 17.064 165.122 16.95 164.93 16.83C164.75 16.698 164.588 16.566 164.444 16.434V16.002L165.992 14.418C165.296 13.818 164.948 13.032 164.948 12.06C164.948 11.472 165.086 10.938 165.362 10.458C165.65 9.966 166.064 9.576 166.604 9.288C167.144 9 167.792 8.856 168.548 8.856C169.052 8.856 169.52 8.928 169.952 9.072H173.282V10.332L171.698 10.422C171.986 10.914 172.13 11.46 172.13 12.06C172.13 12.66 171.986 13.2 171.698 13.68C171.422 14.16 171.014 14.544 170.474 14.832C169.946 15.12 169.304 15.264 168.548 15.264ZM168.548 13.77C169.1 13.77 169.544 13.626 169.88 13.338C170.228 13.038 170.402 12.618 170.402 12.078C170.402 11.526 170.228 11.106 169.88 10.818C169.544 10.53 169.1 10.386 168.548 10.386C167.984 10.386 167.528 10.53 167.18 10.818C166.844 11.106 166.676 11.526 166.676 12.078C166.676 12.618 166.844 13.038 167.18 13.338C167.528 13.626 167.984 13.77 168.548 13.77ZM166.154 19.134C166.154 19.65 166.382 20.034 166.838 20.286C167.294 20.55 167.864 20.682 168.548 20.682C169.208 20.682 169.742 20.538 170.15 20.25C170.558 19.974 170.762 19.602 170.762 19.134C170.762 18.786 170.624 18.486 170.348 18.234C170.072 17.994 169.55 17.844 168.782 17.784C168.206 17.748 167.696 17.694 167.252 17.622C166.832 17.85 166.544 18.096 166.388 18.36C166.232 18.624 166.154 18.882 166.154 19.134ZM178.629 18.216C177.753 18.216 176.973 18.024 176.289 17.64C175.617 17.244 175.089 16.698 174.705 16.002C174.321 15.306 174.129 14.496 174.129 13.572C174.129 12.636 174.315 11.814 174.687 11.106C175.071 10.398 175.599 9.846 176.271 9.45C176.955 9.054 177.747 8.856 178.647 8.856C179.523 8.856 180.285 9.054 180.933 9.45C181.581 9.834 182.085 10.35 182.445 10.998C182.805 11.646 182.985 12.36 182.985 13.14C182.985 13.26 182.979 13.392 182.967 13.536C182.967 13.668 182.961 13.818 182.949 13.986H176.001C176.061 14.85 176.343 15.51 176.847 15.966C177.363 16.41 177.957 16.632 178.629 16.632C179.169 16.632 179.619 16.512 179.979 16.272C180.351 16.02 180.627 15.684 180.807 15.264H182.715C182.475 16.104 181.995 16.806 181.275 17.37C180.567 17.934 179.685 18.216 178.629 18.216ZM178.629 10.422C177.993 10.422 177.429 10.614 176.937 10.998C176.445 11.37 176.145 11.934 176.037 12.69H181.077C181.041 11.994 180.795 11.442 180.339 11.034C179.883 10.626 179.313 10.422 178.629 10.422Z" fill="white"/>
<rect x="0.75" y="0.75" width="39.5" height="24.5" rx="12.25" stroke="#999999" stroke-width="1.5"/>
<path opacity="0.6" d="M16.212 17.144C15.452 17.144 14.796 16.964 14.244 16.604C13.7 16.236 13.28 15.728 12.984 15.08C12.696 14.424 12.552 13.664 12.552 12.8C12.552 11.936 12.696 11.18 12.984 10.532C13.28 9.876 13.7 9.368 14.244 9.008C14.796 8.64 15.452 8.456 16.212 8.456C16.972 8.456 17.624 8.64 18.168 9.008C18.712 9.368 19.128 9.876 19.416 10.532C19.712 11.18 19.86 11.936 19.86 12.8C19.86 13.664 19.712 14.424 19.416 15.08C19.128 15.728 18.712 16.236 18.168 16.604C17.624 16.964 16.972 17.144 16.212 17.144ZM16.212 16.004C16.668 16.004 17.072 15.876 17.424 15.62C17.784 15.364 18.064 14.996 18.264 14.516C18.464 14.036 18.564 13.464 18.564 12.8C18.564 12.136 18.464 11.564 18.264 11.084C18.064 10.604 17.784 10.236 17.424 9.98C17.072 9.724 16.668 9.596 16.212 9.596C15.748 9.596 15.34 9.724 14.988 9.98C14.636 10.236 14.36 10.604 14.16 11.084C13.96 11.564 13.86 12.136 13.86 12.8C13.86 13.464 13.96 14.036 14.16 14.516C14.36 14.996 14.636 15.364 14.988 15.62C15.34 15.876 15.748 16.004 16.212 16.004ZM25.4658 17V15.32H21.2538V14.312L25.2618 8.6H26.7258V14.216H27.9018V15.32H26.7258V17H25.4658ZM22.6338 14.216H25.5378V10.004L22.6338 14.216Z" fill="#999999"/>
</svg>
