<svg width="522" height="31" viewBox="0 0 522 31" fill="none" xmlns="http://www.w3.org/2000/svg">
<path d="M1.184 18V6.8H2.528V11.744H8.336V6.8H9.68V18H8.336V12.848H2.528V18H1.184ZM15.5314 18.192C14.774 18.192 14.102 18.0213 13.5154 17.68C12.9287 17.328 12.4647 16.8427 12.1234 16.224C11.7927 15.6053 11.6274 14.8747 11.6274 14.032C11.6274 13.2 11.7927 12.4747 12.1234 11.856C12.454 11.2267 12.9127 10.7413 13.4994 10.4C14.0967 10.048 14.7847 9.872 15.5634 9.872C16.3314 9.872 16.9927 10.048 17.5474 10.4C18.1127 10.7413 18.5447 11.1947 18.8434 11.76C19.142 12.3253 19.2914 12.9333 19.2914 13.584C19.2914 13.7013 19.286 13.8187 19.2754 13.936C19.2754 14.0533 19.2754 14.1867 19.2754 14.336H12.9554C12.9874 14.944 13.126 15.4507 13.3714 15.856C13.6274 16.2507 13.942 16.5493 14.3154 16.752C14.6994 16.9547 15.1047 17.056 15.5314 17.056C16.086 17.056 16.55 16.928 16.9234 16.672C17.2967 16.416 17.5687 16.0693 17.7394 15.632H19.0674C18.854 16.368 18.4434 16.9813 17.8354 17.472C17.238 17.952 16.47 18.192 15.5314 18.192ZM15.5314 11.008C14.8914 11.008 14.3207 11.2053 13.8194 11.6C13.3287 11.984 13.046 12.5493 12.9714 13.296H17.9634C17.9314 12.5813 17.686 12.0213 17.2274 11.616C16.7687 11.2107 16.2034 11.008 15.5314 11.008ZM21.0728 18V6.48H22.4168V18H21.0728ZM24.6196 18V6.48H25.9636V18H24.6196ZM31.7825 18.192C31.0358 18.192 30.3638 18.0213 29.7665 17.68C29.1692 17.3387 28.6945 16.8587 28.3425 16.24C28.0012 15.6107 27.8305 14.8747 27.8305 14.032C27.8305 13.1893 28.0065 12.4587 28.3585 11.84C28.7105 11.2107 29.1852 10.7253 29.7825 10.384C30.3905 10.0427 31.0678 9.872 31.8145 9.872C32.5612 9.872 33.2332 10.0427 33.8305 10.384C34.4278 10.7253 34.8972 11.2107 35.2385 11.84C35.5905 12.4587 35.7665 13.1893 35.7665 14.032C35.7665 14.8747 35.5905 15.6107 35.2385 16.24C34.8865 16.8587 34.4065 17.3387 33.7985 17.68C33.2012 18.0213 32.5292 18.192 31.7825 18.192ZM31.7825 17.04C32.2412 17.04 32.6678 16.928 33.0625 16.704C33.4572 16.48 33.7772 16.144 34.0225 15.696C34.2678 15.248 34.3905 14.6933 34.3905 14.032C34.3905 13.3707 34.2678 12.816 34.0225 12.368C33.7878 11.92 33.4732 11.584 33.0785 11.36C32.6838 11.136 32.2625 11.024 31.8145 11.024C31.3558 11.024 30.9292 11.136 30.5345 11.36C30.1398 11.584 29.8198 11.92 29.5745 12.368C29.3292 12.816 29.2065 13.3707 29.2065 14.032C29.2065 14.6933 29.3292 15.248 29.5745 15.696C29.8198 16.144 30.1345 16.48 30.5185 16.704C30.9132 16.928 31.3345 17.04 31.7825 17.04ZM41.9496 18V6.8H43.5176L47.5496 14.608L51.5496 6.8H53.1336V18H51.7896V9.2L48.0456 16.4H47.0376L43.2936 9.216V18H41.9496ZM58.9845 18.192C58.2272 18.192 57.5552 18.0213 56.9685 17.68C56.3818 17.328 55.9178 16.8427 55.5765 16.224C55.2458 15.6053 55.0805 14.8747 55.0805 14.032C55.0805 13.2 55.2458 12.4747 55.5765 11.856C55.9072 11.2267 56.3658 10.7413 56.9525 10.4C57.5498 10.048 58.2378 9.872 59.0165 9.872C59.7845 9.872 60.4458 10.048 61.0005 10.4C61.5658 10.7413 61.9978 11.1947 62.2965 11.76C62.5952 12.3253 62.7445 12.9333 62.7445 13.584C62.7445 13.7013 62.7392 13.8187 62.7285 13.936C62.7285 14.0533 62.7285 14.1867 62.7285 14.336H56.4085C56.4405 14.944 56.5792 15.4507 56.8245 15.856C57.0805 16.2507 57.3952 16.5493 57.7685 16.752C58.1525 16.9547 58.5578 17.056 58.9845 17.056C59.5392 17.056 60.0032 16.928 60.3765 16.672C60.7498 16.416 61.0218 16.0693 61.1925 15.632H62.5205C62.3072 16.368 61.8965 16.9813 61.2885 17.472C60.6912 17.952 59.9232 18.192 58.9845 18.192ZM58.9845 11.008C58.3445 11.008 57.7738 11.2053 57.2725 11.6C56.7818 11.984 56.4992 12.5493 56.4245 13.296H61.4165C61.3845 12.5813 61.1392 12.0213 60.6805 11.616C60.2218 11.2107 59.6565 11.008 58.9845 11.008ZM64.5259 18V10.064H65.7419L65.8539 11.584C66.0992 11.0613 66.4725 10.6453 66.9739 10.336C67.4752 10.0267 68.0939 9.872 68.8299 9.872V11.28H68.4619C67.9925 11.28 67.5605 11.3653 67.1659 11.536C66.7712 11.696 66.4565 11.9733 66.2219 12.368C65.9872 12.7627 65.8699 13.3067 65.8699 14V18H64.5259ZM73.2869 15.504C72.8389 15.504 72.4282 15.4453 72.0549 15.328L71.2549 16.08C71.3722 16.1653 71.5162 16.24 71.6869 16.304C71.8682 16.3573 72.1242 16.4107 72.4549 16.464C72.7855 16.5067 73.2495 16.5547 73.8469 16.608C74.9135 16.6827 75.6762 16.928 76.1349 17.344C76.5935 17.76 76.8229 18.304 76.8229 18.976C76.8229 19.4347 76.6949 19.872 76.4389 20.288C76.1935 20.704 75.8095 21.0453 75.2869 21.312C74.7749 21.5787 74.1135 21.712 73.3029 21.712C72.5882 21.712 71.9535 21.616 71.3989 21.424C70.8442 21.2427 70.4122 20.96 70.1029 20.576C69.7935 20.2027 69.6389 19.728 69.6389 19.152C69.6389 18.8533 69.7189 18.528 69.8789 18.176C70.0389 17.8347 70.3375 17.5093 70.7749 17.2C70.5402 17.104 70.3375 17.0027 70.1669 16.896C70.0069 16.7787 69.8575 16.6507 69.7189 16.512V16.144L71.0789 14.8C70.4495 14.2667 70.1349 13.5627 70.1349 12.688C70.1349 12.1653 70.2575 11.6907 70.5029 11.264C70.7482 10.8373 71.1055 10.5013 71.5749 10.256C72.0442 10 72.6149 9.872 73.2869 9.872C73.7455 9.872 74.1615 9.936 74.5349 10.064H77.4629V11.072L75.9749 11.136C76.2842 11.584 76.4389 12.1013 76.4389 12.688C76.4389 13.2107 76.3109 13.6853 76.0549 14.112C75.8095 14.5387 75.4522 14.88 74.9829 15.136C74.5242 15.3813 73.9589 15.504 73.2869 15.504ZM73.2869 14.4C73.8522 14.4 74.3002 14.256 74.6309 13.968C74.9722 13.6693 75.1429 13.2427 75.1429 12.688C75.1429 12.144 74.9722 11.728 74.6309 11.44C74.3002 11.1413 73.8522 10.992 73.2869 10.992C72.7109 10.992 72.2522 11.1413 71.9109 11.44C71.5802 11.728 71.4149 12.144 71.4149 12.688C71.4149 13.2427 71.5802 13.6693 71.9109 13.968C72.2522 14.256 72.7109 14.4 73.2869 14.4ZM70.9509 19.024C70.9509 19.5573 71.1749 19.952 71.6229 20.208C72.0709 20.4747 72.6309 20.608 73.3029 20.608C73.9642 20.608 74.4922 20.464 74.8869 20.176C75.2922 19.888 75.4949 19.504 75.4949 19.024C75.4949 18.6827 75.3562 18.384 75.0789 18.128C74.8015 17.8827 74.2895 17.7387 73.5429 17.696C72.9562 17.6533 72.4495 17.6 72.0229 17.536C71.5855 17.7707 71.2975 18.0213 71.1589 18.288C71.0202 18.5653 70.9509 18.8107 70.9509 19.024ZM82.2345 18.192C81.4772 18.192 80.8052 18.0213 80.2185 17.68C79.6318 17.328 79.1678 16.8427 78.8265 16.224C78.4958 15.6053 78.3305 14.8747 78.3305 14.032C78.3305 13.2 78.4958 12.4747 78.8265 11.856C79.1572 11.2267 79.6158 10.7413 80.2025 10.4C80.7998 10.048 81.4878 9.872 82.2665 9.872C83.0345 9.872 83.6958 10.048 84.2505 10.4C84.8158 10.7413 85.2478 11.1947 85.5465 11.76C85.8452 12.3253 85.9945 12.9333 85.9945 13.584C85.9945 13.7013 85.9892 13.8187 85.9785 13.936C85.9785 14.0533 85.9785 14.1867 85.9785 14.336H79.6585C79.6905 14.944 79.8292 15.4507 80.0745 15.856C80.3305 16.2507 80.6452 16.5493 81.0185 16.752C81.4025 16.9547 81.8078 17.056 82.2345 17.056C82.7892 17.056 83.2532 16.928 83.6265 16.672C83.9998 16.416 84.2718 16.0693 84.4425 15.632H85.7705C85.5572 16.368 85.1465 16.9813 84.5385 17.472C83.9412 17.952 83.1732 18.192 82.2345 18.192ZM82.2345 11.008C81.5945 11.008 81.0238 11.2053 80.5225 11.6C80.0318 11.984 79.7492 12.5493 79.6745 13.296H84.6665C84.6345 12.5813 84.3892 12.0213 83.9305 11.616C83.4718 11.2107 82.9065 11.008 82.2345 11.008ZM86.7039 19.904L87.6319 16.368H89.0239L87.6319 19.904H86.7039ZM98.502 18.192C97.7447 18.192 97.062 18.0213 96.454 17.68C95.8567 17.328 95.382 16.8427 95.03 16.224C94.6887 15.5947 94.518 14.864 94.518 14.032C94.518 13.2 94.6887 12.4747 95.03 11.856C95.382 11.2267 95.8567 10.7413 96.454 10.4C97.062 10.048 97.7447 9.872 98.502 9.872C99.4407 9.872 100.23 10.1173 100.87 10.608C101.521 11.0987 101.931 11.7547 102.102 12.576H100.726C100.619 12.0853 100.358 11.7067 99.942 11.44C99.526 11.1627 99.0407 11.024 98.486 11.024C98.038 11.024 97.6167 11.136 97.222 11.36C96.8273 11.584 96.5073 11.92 96.262 12.368C96.0167 12.816 95.894 13.3707 95.894 14.032C95.894 14.6933 96.0167 15.248 96.262 15.696C96.5073 16.144 96.8273 16.4853 97.222 16.72C97.6167 16.944 98.038 17.056 98.486 17.056C99.0407 17.056 99.526 16.9227 99.942 16.656C100.358 16.3787 100.619 15.9893 100.726 15.488H102.102C101.942 16.288 101.537 16.9387 100.886 17.44C100.235 17.9413 99.4407 18.192 98.502 18.192ZM106.619 18.192C105.958 18.192 105.408 18.08 104.971 17.856C104.534 17.632 104.208 17.3333 103.995 16.96C103.782 16.5867 103.675 16.1813 103.675 15.744C103.675 14.9333 103.984 14.3093 104.603 13.872C105.222 13.4347 106.064 13.216 107.131 13.216H109.275V13.12C109.275 12.4267 109.094 11.904 108.731 11.552C108.368 11.1893 107.883 11.008 107.275 11.008C106.752 11.008 106.299 11.1413 105.915 11.408C105.542 11.664 105.307 12.0427 105.211 12.544H103.835C103.888 11.968 104.08 11.4827 104.411 11.088C104.752 10.6933 105.174 10.3947 105.675 10.192C106.176 9.97867 106.71 9.872 107.275 9.872C108.384 9.872 109.216 10.1707 109.771 10.768C110.336 11.3547 110.619 12.1387 110.619 13.12V18H109.419L109.339 16.576C109.115 17.024 108.784 17.408 108.347 17.728C107.92 18.0373 107.344 18.192 106.619 18.192ZM106.827 17.056C107.339 17.056 107.776 16.9227 108.139 16.656C108.512 16.3893 108.795 16.0427 108.987 15.616C109.179 15.1893 109.275 14.7413 109.275 14.272V14.256H107.243C106.454 14.256 105.894 14.3947 105.563 14.672C105.243 14.9387 105.083 15.2747 105.083 15.68C105.083 16.096 105.232 16.432 105.531 16.688C105.84 16.9333 106.272 17.056 106.827 17.056ZM112.635 18V10.064H113.851L113.931 11.488C114.187 10.9867 114.555 10.592 115.035 10.304C115.515 10.016 116.059 9.872 116.667 9.872C117.606 9.872 118.353 10.16 118.907 10.736C119.473 11.3013 119.755 12.176 119.755 13.36V18H118.411V13.504C118.411 11.8507 117.729 11.024 116.363 11.024C115.681 11.024 115.11 11.2747 114.651 11.776C114.203 12.2667 113.979 12.9707 113.979 13.888V18H112.635ZM126.89 21.52L128.858 17.232H128.394L125.242 10.064H126.698L129.322 16.24L132.106 10.064H133.498L128.298 21.52H126.89ZM137.783 18.192C137.036 18.192 136.364 18.0213 135.767 17.68C135.169 17.3387 134.695 16.8587 134.343 16.24C134.001 15.6107 133.831 14.8747 133.831 14.032C133.831 13.1893 134.007 12.4587 134.359 11.84C134.711 11.2107 135.185 10.7253 135.783 10.384C136.391 10.0427 137.068 9.872 137.815 9.872C138.561 9.872 139.233 10.0427 139.831 10.384C140.428 10.7253 140.897 11.2107 141.239 11.84C141.591 12.4587 141.767 13.1893 141.767 14.032C141.767 14.8747 141.591 15.6107 141.239 16.24C140.887 16.8587 140.407 17.3387 139.799 17.68C139.201 18.0213 138.529 18.192 137.783 18.192ZM137.783 17.04C138.241 17.04 138.668 16.928 139.063 16.704C139.457 16.48 139.777 16.144 140.023 15.696C140.268 15.248 140.391 14.6933 140.391 14.032C140.391 13.3707 140.268 12.816 140.023 12.368C139.788 11.92 139.473 11.584 139.079 11.36C138.684 11.136 138.263 11.024 137.815 11.024C137.356 11.024 136.929 11.136 136.535 11.36C136.14 11.584 135.82 11.92 135.575 12.368C135.329 12.816 135.207 13.3707 135.207 14.032C135.207 14.6933 135.329 15.248 135.575 15.696C135.82 16.144 136.135 16.48 136.519 16.704C136.913 16.928 137.335 17.04 137.783 17.04ZM146.531 18.192C145.593 18.192 144.846 17.9093 144.291 17.344C143.737 16.768 143.459 15.888 143.459 14.704V10.064H144.803V14.56C144.803 16.2133 145.481 17.04 146.835 17.04C147.529 17.04 148.099 16.7947 148.547 16.304C149.006 15.8027 149.235 15.0933 149.235 14.176V10.064H150.579V18H149.363L149.267 16.576C149.022 17.0773 148.654 17.472 148.163 17.76C147.683 18.048 147.139 18.192 146.531 18.192ZM157.026 18V6.48H158.37V11.424C158.637 10.9333 159.015 10.5547 159.506 10.288C159.997 10.0107 160.53 9.872 161.106 9.872C162.023 9.872 162.759 10.16 163.314 10.736C163.869 11.3013 164.146 12.176 164.146 13.36V18H162.818V13.504C162.818 11.8507 162.151 11.024 160.818 11.024C160.125 11.024 159.543 11.2747 159.074 11.776C158.605 12.2667 158.37 12.9707 158.37 13.888V18H157.026ZM169.75 18.192C168.993 18.192 168.321 18.0213 167.734 17.68C167.147 17.328 166.683 16.8427 166.342 16.224C166.011 15.6053 165.846 14.8747 165.846 14.032C165.846 13.2 166.011 12.4747 166.342 11.856C166.673 11.2267 167.131 10.7413 167.718 10.4C168.315 10.048 169.003 9.872 169.782 9.872C170.55 9.872 171.211 10.048 171.766 10.4C172.331 10.7413 172.763 11.1947 173.062 11.76C173.361 12.3253 173.51 12.9333 173.51 13.584C173.51 13.7013 173.505 13.8187 173.494 13.936C173.494 14.0533 173.494 14.1867 173.494 14.336H167.174C167.206 14.944 167.345 15.4507 167.59 15.856C167.846 16.2507 168.161 16.5493 168.534 16.752C168.918 16.9547 169.323 17.056 169.75 17.056C170.305 17.056 170.769 16.928 171.142 16.672C171.515 16.416 171.787 16.0693 171.958 15.632H173.286C173.073 16.368 172.662 16.9813 172.054 17.472C171.457 17.952 170.689 18.192 169.75 18.192ZM169.75 11.008C169.11 11.008 168.539 11.2053 168.038 11.6C167.547 11.984 167.265 12.5493 167.19 13.296H172.182C172.15 12.5813 171.905 12.0213 171.446 11.616C170.987 11.2107 170.422 11.008 169.75 11.008ZM175.292 18V6.48H176.636V18H175.292ZM178.838 21.52V10.064H180.054L180.182 11.376C180.438 10.992 180.801 10.6453 181.27 10.336C181.75 10.0267 182.358 9.872 183.094 9.872C183.884 9.872 184.572 10.0533 185.158 10.416C185.745 10.7787 186.198 11.2747 186.518 11.904C186.849 12.5333 187.014 13.248 187.014 14.048C187.014 14.848 186.849 15.5627 186.518 16.192C186.198 16.8107 185.74 17.3013 185.142 17.664C184.556 18.016 183.868 18.192 183.078 18.192C182.428 18.192 181.846 18.0587 181.334 17.792C180.833 17.5253 180.449 17.152 180.182 16.672V21.52H178.838ZM182.934 17.024C183.468 17.024 183.937 16.9013 184.342 16.656C184.748 16.4 185.068 16.048 185.302 15.6C185.537 15.152 185.654 14.6293 185.654 14.032C185.654 13.4347 185.537 12.912 185.302 12.464C185.068 12.016 184.748 11.6693 184.342 11.424C183.937 11.168 183.468 11.04 182.934 11.04C182.401 11.04 181.932 11.168 181.526 11.424C181.121 11.6693 180.801 12.016 180.566 12.464C180.332 12.912 180.214 13.4347 180.214 14.032C180.214 14.6293 180.332 15.152 180.566 15.6C180.801 16.048 181.121 16.4 181.526 16.656C181.932 16.9013 182.401 17.024 182.934 17.024ZM193.12 18V10.064H194.336L194.432 11.216C194.688 10.7893 195.029 10.4587 195.456 10.224C195.882 9.98933 196.362 9.872 196.896 9.872C197.525 9.872 198.064 10 198.512 10.256C198.97 10.512 199.322 10.9013 199.568 11.424C199.845 10.944 200.224 10.5653 200.704 10.288C201.194 10.0107 201.722 9.872 202.288 9.872C203.237 9.872 203.994 10.16 204.56 10.736C205.125 11.3013 205.408 12.176 205.408 13.36V18H204.08V13.504C204.08 12.6827 203.914 12.064 203.584 11.648C203.253 11.232 202.778 11.024 202.16 11.024C201.52 11.024 200.986 11.2747 200.56 11.776C200.144 12.2667 199.936 12.9707 199.936 13.888V18H198.592V13.504C198.592 12.6827 198.426 12.064 198.096 11.648C197.765 11.232 197.29 11.024 196.672 11.024C196.042 11.024 195.514 11.2747 195.088 11.776C194.672 12.2667 194.464 12.9707 194.464 13.888V18H193.12ZM211 18.192C210.243 18.192 209.571 18.0213 208.984 17.68C208.397 17.328 207.933 16.8427 207.592 16.224C207.261 15.6053 207.096 14.8747 207.096 14.032C207.096 13.2 207.261 12.4747 207.592 11.856C207.923 11.2267 208.381 10.7413 208.968 10.4C209.565 10.048 210.253 9.872 211.032 9.872C211.8 9.872 212.461 10.048 213.016 10.4C213.581 10.7413 214.013 11.1947 214.312 11.76C214.611 12.3253 214.76 12.9333 214.76 13.584C214.76 13.7013 214.755 13.8187 214.744 13.936C214.744 14.0533 214.744 14.1867 214.744 14.336H208.424C208.456 14.944 208.595 15.4507 208.84 15.856C209.096 16.2507 209.411 16.5493 209.784 16.752C210.168 16.9547 210.573 17.056 211 17.056C211.555 17.056 212.019 16.928 212.392 16.672C212.765 16.416 213.037 16.0693 213.208 15.632H214.536C214.323 16.368 213.912 16.9813 213.304 17.472C212.707 17.952 211.939 18.192 211 18.192ZM211 11.008C210.36 11.008 209.789 11.2053 209.288 11.6C208.797 11.984 208.515 12.5493 208.44 13.296H213.432C213.4 12.5813 213.155 12.0213 212.696 11.616C212.237 11.2107 211.672 11.008 211 11.008ZM222.376 18L220.056 10.064H221.4L223.08 16.288L224.936 10.064H226.456L228.328 16.288L229.992 10.064H231.352L229.032 18H227.656L225.704 11.456L223.752 18H222.376ZM233.654 8.304C233.388 8.304 233.164 8.21867 232.982 8.048C232.812 7.86667 232.726 7.64267 232.726 7.376C232.726 7.12 232.812 6.90667 232.982 6.736C233.164 6.56533 233.388 6.48 233.654 6.48C233.91 6.48 234.129 6.56533 234.31 6.736C234.492 6.90667 234.582 7.12 234.582 7.376C234.582 7.64267 234.492 7.86667 234.31 8.048C234.129 8.21867 233.91 8.304 233.654 8.304ZM232.982 18V10.064H234.326V18H232.982ZM239.803 18C239.077 18 238.507 17.824 238.091 17.472C237.675 17.12 237.467 16.4853 237.467 15.568V11.2H236.09V10.064H237.467L237.643 8.16H238.811V10.064H241.147V11.2H238.811V15.568C238.811 16.0693 238.912 16.4107 239.115 16.592C239.317 16.7627 239.675 16.848 240.187 16.848H241.019V18H239.803ZM242.854 18V6.48H244.198V11.424C244.465 10.9333 244.843 10.5547 245.334 10.288C245.825 10.0107 246.358 9.872 246.934 9.872C247.851 9.872 248.587 10.16 249.142 10.736C249.697 11.3013 249.974 12.176 249.974 13.36V18H248.646V13.504C248.646 11.8507 247.979 11.024 246.646 11.024C245.953 11.024 245.371 11.2747 244.902 11.776C244.433 12.2667 244.198 12.9707 244.198 13.888V18H242.854ZM256.709 18.08C256.442 18.08 256.218 17.9947 256.037 17.824C255.866 17.6427 255.781 17.424 255.781 17.168C255.781 16.912 255.866 16.6987 256.037 16.528C256.218 16.3467 256.442 16.256 256.709 16.256C256.965 16.256 257.178 16.3467 257.349 16.528C257.53 16.6987 257.621 16.912 257.621 17.168C257.621 17.424 257.53 17.6427 257.349 17.824C257.178 17.9947 256.965 18.08 256.709 18.08ZM259.834 18.08C259.567 18.08 259.343 17.9947 259.162 17.824C258.991 17.6427 258.906 17.424 258.906 17.168C258.906 16.912 258.991 16.6987 259.162 16.528C259.343 16.3467 259.567 16.256 259.834 16.256C260.09 16.256 260.303 16.3467 260.474 16.528C260.655 16.6987 260.746 16.912 260.746 17.168C260.746 17.424 260.655 17.6427 260.474 17.824C260.303 17.9947 260.09 18.08 259.834 18.08ZM262.959 18.08C262.692 18.08 262.468 17.9947 262.287 17.824C262.116 17.6427 262.031 17.424 262.031 17.168C262.031 16.912 262.116 16.6987 262.287 16.528C262.468 16.3467 262.692 16.256 262.959 16.256C263.215 16.256 263.428 16.3467 263.599 16.528C263.78 16.6987 263.871 16.912 263.871 17.168C263.871 17.424 263.78 17.6427 263.599 17.824C263.428 17.9947 263.215 18.08 262.959 18.08Z" fill="#999999"/>
<line opacity="0.6" y1="30.25" x2="522" y2="30.25" stroke="#999999" stroke-width="1.5"/>
</svg>
